g NewMesh_tris_195
v -7.938039 0.3440096 -7.3445
v 2.373854 0.3829117 -6.001307
v -3.455422 0.1185516 -2.474065
v 1.743749 0.2661763 -12.0598
v 7.541994 -0.07698795 -8.502649
v 8.200538 1.016364 -0.8085552
v 4.873491 0.02803897 -1.983748
v 0.01011967 1.307336 -1.160102
v 17.23757 0.06906417 -2.56834
v 14.29939 0.0106901 -12.97288
v 9.838837 -0.1163894 -17.89184
v 1.949377 -0.06603901 -19.36851
v -4.66562 0.7520258 5.594166
v 1.207733 0.3027426 5.146071
v -0.79421 0.5148404 10.1226
v 7.59953 0.7486358 5.549273
v 17.91055 0.0463605 4.001465
v -12.59215 -0.1096965 10.81849
v -8.278315 0.01023331 15.17575
v 0.4326892 0.04702803 16.7304
v 10.48018 -0.02186257 15.9961
v -9.085435 0.5107738 2.27209
v -17.08056 0.0164219 1.349971
v -15.472 -0.09040966 -8.968629
v -6.824331 -0.01568372 -18.56904
v -5.187045 0.5719258 -10.89527
v 16.44657 -0.4213599 11.60015
v -86.38445 3.120537 164.0505
v -76.07256 3.159439 165.3936
v -81.90183 2.895079 168.9209
v -76.70266 3.042704 159.3352
v -70.90442 2.699539 162.8923
v -70.24587 3.792892 170.5864
v -73.57292 2.804566 169.4112
v -78.43629 4.083863 170.2349
v -61.20884 2.845592 168.8266
v -64.14703 2.787218 158.4221
v -68.60757 2.660138 153.5031
v -76.49703 2.710488 152.0264
v -83.11203 3.528553 176.9891
v -77.23868 3.07927 176.541
v -79.24062 3.291368 181.5176
v -70.84688 3.525163 176.9442
v -60.53586 2.822888 175.3964
v -91.03856 2.666831 182.2135
v -86.72472 2.786761 186.5707
v -78.01373 2.823555 188.1254
v -67.96623 2.754665 187.3911
v -87.53185 3.287301 173.6671
v -95.52698 2.792949 172.7449
v -93.91841 2.686118 162.4263
v -85.27074 2.760844 152.8259
v -83.63345 3.348453 160.4997
v -61.99984 2.355167 182.9951
v -83.72188 -1.030304 104.0066
v -74.33805 -0.9949036 105.2289
v -79.64269 -1.235471 108.4387
v -74.91145 -1.101133 99.71569
v -69.63505 -1.413412 102.9527
v -69.03577 -0.4184614 109.9543
v -72.06339 -1.317838 108.8849
v -76.48905 -0.1536774 109.6344
v -60.81207 -1.280505 108.3529
v -63.48582 -1.333625 98.88479
v -67.54492 -1.449268 94.40853
v -74.72433 -1.403449 93.06477
v -80.74397 -0.6590098 115.7808
v -75.39922 -1.067858 115.373
v -77.22099 -0.8748484 119.9017
v -69.58269 -0.6620947 115.7399
v -60.19966 -1.301165 114.3314
v -87.95712 -1.443177 120.5349
v -84.03152 -1.334041 124.5
v -76.10452 -1.300558 125.9148
v -66.9613 -1.363248 125.2466
v -84.76601 -0.8785491 112.7577
v -92.04157 -1.328409 111.9186
v -90.57777 -1.425626 102.5287
v -82.7084 -1.357625 93.79228
v -81.21847 -0.8229008 100.7754
v -61.53188 -1.726791 121.2462
v 59.54335 4.295601 273.0817
v 69.85524 4.334503 274.4249
v 64.02596 4.070143 277.9521
v 69.22514 4.217768 268.3664
v 75.02338 3.874604 271.9235
v 75.68192 4.967956 279.6176
v 72.35487 3.97963 278.4424
v 67.4915 5.258927 279.2661
v 84.71895 4.020656 277.8578
v 81.78076 3.962282 267.4533
v 77.32021 3.835202 262.5343
v 69.43076 3.885552 261.0577
v 62.81577 4.703617 286.0204
v 68.68912 4.254334 285.5722
v 66.68717 4.466432 290.5488
v 75.08091 4.700227 285.9755
v 85.39192 3.997952 284.4276
v 54.88924 3.841895 291.2447
v 59.20308 3.961825 295.6019
v 67.91407 3.99862 297.1566
v 77.96156 3.929729 296.4223
v 58.39595 4.462365 282.6983
v 50.40083 3.968013 281.7762
v 52.0094 3.861182 271.4576
v 60.65705 3.935908 261.8571
v 62.29434 4.523517 269.5309
v 83.92795 3.530232 292.0263
v 136.9315 15.90193 160.0619
v 169.8037 16.02594 164.3438
v 151.2212 15.18322 175.5879
v 167.7951 15.65381 145.0305
v 186.2787 14.55988 156.37
v 188.378 18.04526 180.8972
v 177.772 14.89468 177.1509
v 162.2686 18.97282 179.7765
v 217.1862 15.02546 175.2874
v 207.8199 14.83938 142.1198
v 193.6006 14.43427 126.4392
v 168.4506 14.59478 121.7319
v 147.3633 17.2026 201.3078
v 166.0864 15.77038 199.8793
v 159.7046 16.4465 215.7435
v 186.4621 17.1918 201.1646
v 219.3315 14.95309 196.2305
v 122.0952 14.45561 217.9618
v 135.8468 14.83792 231.8519
v 163.6157 14.95521 236.8078
v 195.645 14.7356 234.467
v 133.2739 16.43354 190.7177
v 107.787 14.85765 187.7781
v 112.9148 14.51709 154.8846
v 140.4818 14.7553 124.2804
v 145.7011 16.62848 148.7428
v 214.6646 13.46209 220.4536

vn -0.03518791 0.9993306 -0.01001009
vn 0.02285886 0.9973056 -0.0697058
vn -0.1043767 0.991151 -0.08200588
vn 0.03994949 0.9986457 -0.03332685
vn 0.04379476 0.9965672 -0.07025473
vn -0.08282852 0.9962617 -0.02453726
vn -0.1346815 0.9795766 0.1493002
vn -0.0009766088 0.9961104 -0.08810842
vn 0.08850566 0.9945899 -0.0543852
vn -0.02203449 0.9997312 -0.007202411
vn 0.0168464 0.9996446 -0.02066126
vn 0.01077334 0.9981365 -0.06006215
vn -0.03485258 0.9986699 0.03799602
vn 0.04138365 0.9990977 0.00955242
vn -0.006958378 0.9985272 0.05380535
vn -0.0002441538 0.9995963 0.0284134
vn 0.1151165 0.9918572 0.05447585
vn -0.08231033 0.9947433 0.06091636
vn -0.05459819 0.9971723 0.05163786
vn -0.0005188179 0.995581 0.09390604
vn 0.07025517 0.9944982 0.07770184
vn -0.04956313 0.9987398 -0.007904465
vn -0.0829518 0.9965203 0.008148687
vn -0.0706208 0.9968092 -0.03720257
vn -0.02929816 0.9969614 -0.07217724
vn -0.02563593 0.9996488 0.006714173
vn 0.1192987 0.9896087 0.08026493
vn -0.03518791 0.9993306 -0.01001009
vn 0.02285886 0.9973056 -0.0697058
vn -0.1043767 0.991151 -0.08200588
vn 0.03994949 0.9986457 -0.03332685
vn 0.04379476 0.9965672 -0.07025473
vn -0.08282852 0.9962617 -0.02453726
vn -0.1346815 0.9795766 0.1493002
vn -0.0009766088 0.9961104 -0.08810842
vn 0.08850566 0.9945899 -0.0543852
vn -0.02203449 0.9997312 -0.007202411
vn 0.0168464 0.9996446 -0.02066126
vn 0.01077334 0.9981365 -0.06006215
vn -0.03485258 0.9986699 0.03799602
vn 0.04138365 0.9990977 0.00955242
vn -0.006958378 0.9985272 0.05380535
vn -0.0002441538 0.9995963 0.0284134
vn 0.1151165 0.9918572 0.05447585
vn -0.08231033 0.9947433 0.06091636
vn -0.05459819 0.9971723 0.05163786
vn -0.0005188179 0.995581 0.09390604
vn 0.07025517 0.9944982 0.07770184
vn -0.04956313 0.9987398 -0.007904465
vn -0.0829518 0.9965203 0.008148687
vn -0.0706208 0.9968092 -0.03720257
vn -0.02929816 0.9969614 -0.07217724
vn -0.02563593 0.9996488 0.006714173
vn 0.1192987 0.9896087 0.08026493
vn -0.03518791 0.9993306 -0.01001009
vn 0.02285886 0.9973056 -0.0697058
vn -0.1043767 0.991151 -0.08200588
vn 0.03994949 0.9986457 -0.03332685
vn 0.04379476 0.9965672 -0.07025473
vn -0.08282852 0.9962617 -0.02453726
vn -0.1346815 0.9795766 0.1493002
vn -0.0009766088 0.9961104 -0.08810842
vn 0.08850566 0.9945899 -0.0543852
vn -0.02203449 0.9997312 -0.007202411
vn 0.0168464 0.9996446 -0.02066126
vn 0.01077334 0.9981365 -0.06006215
vn -0.03485258 0.9986699 0.03799602
vn 0.04138365 0.9990977 0.00955242
vn -0.006958378 0.9985272 0.05380535
vn -0.0002441538 0.9995963 0.0284134
vn 0.1151165 0.9918572 0.05447585
vn -0.08231033 0.9947433 0.06091636
vn -0.05459819 0.9971723 0.05163786
vn -0.0005188179 0.995581 0.09390604
vn 0.07025517 0.9944982 0.07770184
vn -0.04956313 0.9987398 -0.007904465
vn -0.0829518 0.9965203 0.008148687
vn -0.0706208 0.9968092 -0.03720257
vn -0.02929816 0.9969614 -0.07217724
vn -0.02563593 0.9996488 0.006714173
vn 0.1192987 0.9896087 0.08026493
vn -0.03518791 0.9993306 -0.01001009
vn 0.02285886 0.9973056 -0.0697058
vn -0.1043767 0.991151 -0.08200588
vn 0.03994949 0.9986457 -0.03332685
vn 0.04379476 0.9965672 -0.07025473
vn -0.08282852 0.9962617 -0.02453726
vn -0.1346815 0.9795766 0.1493002
vn -0.0009766088 0.9961104 -0.08810842
vn 0.08850566 0.9945899 -0.0543852
vn -0.02203449 0.9997312 -0.007202411
vn 0.0168464 0.9996446 -0.02066126
vn 0.01077334 0.9981365 -0.06006215
vn -0.03485258 0.9986699 0.03799602
vn 0.04138365 0.9990977 0.00955242
vn -0.006958378 0.9985272 0.05380535
vn -0.0002441538 0.9995963 0.0284134
vn 0.1151165 0.9918572 0.05447585
vn -0.08231033 0.9947433 0.06091636
vn -0.05459819 0.9971723 0.05163786
vn -0.0005188179 0.995581 0.09390604
vn 0.07025517 0.9944982 0.07770184
vn -0.04956313 0.9987398 -0.007904465
vn -0.0829518 0.9965203 0.008148687
vn -0.0706208 0.9968092 -0.03720257
vn -0.02929816 0.9969614 -0.07217724
vn -0.02563593 0.9996488 0.006714173
vn 0.1192987 0.9896087 0.08026493
vn -0.03518791 0.9993306 -0.01001009
vn 0.02285886 0.9973056 -0.06970581
vn -0.1043767 0.991151 -0.08200589
vn 0.03994949 0.9986457 -0.03332685
vn 0.04379476 0.9965672 -0.07025474
vn -0.08282852 0.9962617 -0.02453726
vn -0.1346815 0.9795766 0.1493002
vn -0.0009766088 0.9961104 -0.08810842
vn 0.08850566 0.9945899 -0.0543852
vn -0.02203449 0.9997312 -0.007202412
vn 0.0168464 0.9996446 -0.02066126
vn 0.01077334 0.9981365 -0.06006215
vn -0.03485258 0.9986699 0.03799602
vn 0.04138365 0.9990977 0.00955242
vn -0.006958378 0.9985272 0.05380535
vn -0.0002441538 0.9995963 0.0284134
vn 0.1151165 0.9918572 0.05447585
vn -0.08231033 0.9947433 0.06091636
vn -0.05459819 0.9971723 0.05163786
vn -0.0005188179 0.995581 0.09390604
vn 0.07025517 0.9944982 0.07770184
vn -0.04956313 0.9987398 -0.007904465
vn -0.0829518 0.9965203 0.008148687
vn -0.0706208 0.9968092 -0.03720257
vn -0.02929816 0.9969614 -0.07217724
vn -0.02563593 0.9996488 0.006714173
vn 0.1192987 0.9896087 0.08026493

vt 0.939109 0.921223
vt 0.777576 0.29897
vt 0.614106 0.686264
vt 1.154719 0.296212
vt 0.90054 -0.035458
vt 0.425826 -0.023957
vt 0.508618 0.182659
vt 0.496495 0.481261
vt 0.476882 -0.586376
vt 1.128083 -0.476018
vt 1.456915 -0.23716
vt 1.600828 0.232664
vt 0.130415 0.806727
vt 0.113528 0.442118
vt -0.176246 0.599584
vt 0.045367 0.054254
vt 0.070853 -0.586376
vt -0.139012 1.331524
vt -0.436425 1.095329
vt -0.592058 0.569675
vt -0.615025 -0.052894
vt 0.361932 1.056331
vt 0.472945 1.539811
vt 1.091707 1.370113
vt 1.615026 0.774258
vt 1.135914 0.72718
vt -0.387273 -0.450239
vt 0.939109 0.921223
vt 0.777576 0.29897
vt 0.614106 0.686264
vt 1.154719 0.296212
vt 0.90054 -0.035458
vt 0.425826 -0.023957
vt 0.508618 0.182659
vt 0.496495 0.481261
vt 0.476882 -0.586376
vt 1.128083 -0.476018
vt 1.456915 -0.23716
vt 1.600828 0.232664
vt 0.130415 0.806727
vt 0.113528 0.442118
vt -0.176246 0.599584
vt 0.045367 0.054254
vt 0.070853 -0.586376
vt -0.139012 1.331524
vt -0.436425 1.095329
vt -0.592058 0.569675
vt -0.615025 -0.052894
vt 0.361932 1.056331
vt 0.472945 1.539811
vt 1.091707 1.370113
vt 1.615026 0.774258
vt 1.135914 0.72718
vt -0.387273 -0.450239
vt 0.939109 0.921223
vt 0.777576 0.29897
vt 0.614106 0.686264
vt 1.154719 0.296212
vt 0.90054 -0.035458
vt 0.425826 -0.023957
vt 0.508618 0.182659
vt 0.496495 0.481261
vt 0.476882 -0.586376
vt 1.128083 -0.476018
vt 1.456915 -0.23716
vt 1.600828 0.232664
vt 0.130415 0.806727
vt 0.113528 0.442118
vt -0.176246 0.599584
vt 0.045367 0.054254
vt 0.070853 -0.586376
vt -0.139012 1.331524
vt -0.436425 1.095329
vt -0.592058 0.569675
vt -0.615025 -0.052894
vt 0.361932 1.056331
vt 0.472945 1.539811
vt 1.091707 1.370113
vt 1.615026 0.774258
vt 1.135914 0.72718
vt -0.387273 -0.450239
vt 0.939109 0.921223
vt 0.777576 0.29897
vt 0.614106 0.686264
vt 1.154719 0.296212
vt 0.90054 -0.035458
vt 0.425826 -0.023957
vt 0.508618 0.182659
vt 0.496495 0.481261
vt 0.476882 -0.586376
vt 1.128083 -0.476018
vt 1.456915 -0.23716
vt 1.600828 0.232664
vt 0.130415 0.806727
vt 0.113528 0.442118
vt -0.176246 0.599584
vt 0.045367 0.054254
vt 0.070853 -0.586376
vt -0.139012 1.331524
vt -0.436425 1.095329
vt -0.592058 0.569675
vt -0.615025 -0.052894
vt 0.361932 1.056331
vt 0.472945 1.539811
vt 1.091707 1.370113
vt 1.615026 0.774258
vt 1.135914 0.72718
vt -0.387273 -0.450239
vt 0.939109 0.921223
vt 0.777576 0.29897
vt 0.614106 0.686264
vt 1.154719 0.296212
vt 0.90054 -0.035458
vt 0.425826 -0.023957
vt 0.508618 0.182659
vt 0.496495 0.481261
vt 0.476882 -0.586376
vt 1.128083 -0.476018
vt 1.456915 -0.23716
vt 1.600828 0.232664
vt 0.130415 0.806727
vt 0.113528 0.442118
vt -0.176246 0.599584
vt 0.045367 0.054254
vt 0.070853 -0.586376
vt -0.139012 1.331524
vt -0.436425 1.095329
vt -0.592058 0.569675
vt -0.615025 -0.052894
vt 0.361932 1.056331
vt 0.472945 1.539811
vt 1.091707 1.370113
vt 1.615026 0.774258
vt 1.135914 0.72718
vt -0.387273 -0.450239

vt1 0.3104798 0.6913891
vt1 0.3725834 0.4109639
vt1 0.4517733 0.5812034
vt1 0.2040969 0.4158961
vt1 0.3121161 0.2636443
vt1 0.5241855 0.2608902
vt1 0.490674 0.3545682
vt1 0.5009876 0.4877321
vt1 0.4920931 0.01064625
vt1 0.2032551 0.07073106
vt1 0.060434 0.1827661
vt1 0.00390625 0.394815
vt1 0.6697374 0.6270662
vt1 0.6713069 0.4639212
vt1 0.803331 0.5295066
vt1 0.6953837 0.2895477
vt1 0.6734095 0.00390625
vt1 0.7986695 0.8570567
vt1 0.9276624 0.7466812
vt1 0.9885701 0.5093135
vt1 0.9885701 0.2308229
vt1 0.5704226 0.7423311
vt1 0.5287198 0.9600499
vt1 0.2496489 0.8943014
vt1 0.006375331 0.6367759
vt1 0.21948 0.6079753
vt1 0.8802717 0.05711257
vt1 0.3104798 0.6913891
vt1 0.3725834 0.4109639
vt1 0.4517733 0.5812034
vt1 0.2040969 0.4158961
vt1 0.3121161 0.2636443
vt1 0.5241855 0.2608902
vt1 0.490674 0.3545682
vt1 0.5009876 0.4877321
vt1 0.4920931 0.01064625
vt1 0.2032551 0.07073106
vt1 0.060434 0.1827661
vt1 0.00390625 0.394815
vt1 0.6697374 0.6270662
vt1 0.6713069 0.4639212
vt1 0.803331 0.5295066
vt1 0.6953837 0.2895477
vt1 0.6734095 0.00390625
vt1 0.7986695 0.8570567
vt1 0.9276624 0.7466812
vt1 0.9885701 0.5093135
vt1 0.9885701 0.2308229
vt1 0.5704226 0.7423311
vt1 0.5287198 0.9600499
vt1 0.2496489 0.8943014
vt1 0.006375331 0.6367759
vt1 0.21948 0.6079753
vt1 0.8802717 0.05711257
vt1 0.3104798 0.6913891
vt1 0.3725834 0.4109639
vt1 0.4517733 0.5812034
vt1 0.2040969 0.4158961
vt1 0.3121161 0.2636443
vt1 0.5241855 0.2608902
vt1 0.490674 0.3545682
vt1 0.5009876 0.4877321
vt1 0.4920931 0.01064625
vt1 0.2032551 0.07073106
vt1 0.060434 0.1827661
vt1 0.00390625 0.394815
vt1 0.6697374 0.6270662
vt1 0.6713069 0.4639212
vt1 0.803331 0.5295066
vt1 0.6953837 0.2895477
vt1 0.6734095 0.00390625
vt1 0.7986695 0.8570567
vt1 0.9276624 0.7466812
vt1 0.9885701 0.5093135
vt1 0.9885701 0.2308229
vt1 0.5704226 0.7423311
vt1 0.5287198 0.9600499
vt1 0.2496489 0.8943014
vt1 0.006375331 0.6367759
vt1 0.21948 0.6079753
vt1 0.8802717 0.05711257
vt1 0.3104798 0.6913891
vt1 0.3725834 0.4109639
vt1 0.4517733 0.5812034
vt1 0.2040969 0.4158961
vt1 0.3121161 0.2636443
vt1 0.5241855 0.2608902
vt1 0.490674 0.3545682
vt1 0.5009876 0.4877321
vt1 0.4920931 0.01064625
vt1 0.2032551 0.07073106
vt1 0.060434 0.1827661
vt1 0.00390625 0.394815
vt1 0.6697374 0.6270662
vt1 0.6713069 0.4639212
vt1 0.803331 0.5295066
vt1 0.6953837 0.2895477
vt1 0.6734095 0.00390625
vt1 0.7986695 0.8570567
vt1 0.9276624 0.7466812
vt1 0.9885701 0.5093135
vt1 0.9885701 0.2308229
vt1 0.5704226 0.7423311
vt1 0.5287198 0.9600499
vt1 0.2496489 0.8943014
vt1 0.006375331 0.6367759
vt1 0.21948 0.6079753
vt1 0.8802717 0.05711257
vt1 0 0
vt1 0 0
vt1 0 0
vt1 0 0
vt1 0 0
vt1 0 0
vt1 0 0
vt1 0 0
vt1 0 0
vt1 0 0
vt1 0 0
vt1 0 0
vt1 0 0
vt1 0 0
vt1 0 0
vt1 0 0
vt1 0 0
vt1 0 0
vt1 0 0
vt1 0 0
vt1 0 0
vt1 0 0
vt1 0 0
vt1 0 0
vt1 0 0
vt1 0 0
vt1 0 0

vt2 0.3104798 0.6913891
vt2 0.3725834 0.4109639
vt2 0.4517733 0.5812034
vt2 0.2040969 0.4158961
vt2 0.3121161 0.2636443
vt2 0.5241855 0.2608902
vt2 0.490674 0.3545682
vt2 0.5009876 0.4877321
vt2 0.4920931 0.01064625
vt2 0.2032551 0.07073106
vt2 0.060434 0.1827661
vt2 0.00390625 0.394815
vt2 0.6697374 0.6270662
vt2 0.6713069 0.4639212
vt2 0.803331 0.5295066
vt2 0.6953837 0.2895477
vt2 0.6734095 0.00390625
vt2 0.7986695 0.8570567
vt2 0.9276624 0.7466812
vt2 0.9885701 0.5093135
vt2 0.9885701 0.2308229
vt2 0.5704226 0.7423311
vt2 0.5287198 0.9600499
vt2 0.2496489 0.8943014
vt2 0.006375331 0.6367759
vt2 0.21948 0.6079753
vt2 0.8802717 0.05711257
vt2 0.3104798 0.6913891
vt2 0.3725834 0.4109639
vt2 0.4517733 0.5812034
vt2 0.2040969 0.4158961
vt2 0.3121161 0.2636443
vt2 0.5241855 0.2608902
vt2 0.490674 0.3545682
vt2 0.5009876 0.4877321
vt2 0.4920931 0.01064625
vt2 0.2032551 0.07073106
vt2 0.060434 0.1827661
vt2 0.00390625 0.394815
vt2 0.6697374 0.6270662
vt2 0.6713069 0.4639212
vt2 0.803331 0.5295066
vt2 0.6953837 0.2895477
vt2 0.6734095 0.00390625
vt2 0.7986695 0.8570567
vt2 0.9276624 0.7466812
vt2 0.9885701 0.5093135
vt2 0.9885701 0.2308229
vt2 0.5704226 0.7423311
vt2 0.5287198 0.9600499
vt2 0.2496489 0.8943014
vt2 0.006375331 0.6367759
vt2 0.21948 0.6079753
vt2 0.8802717 0.05711257
vt2 0.3104798 0.6913891
vt2 0.3725834 0.4109639
vt2 0.4517733 0.5812034
vt2 0.2040969 0.4158961
vt2 0.3121161 0.2636443
vt2 0.5241855 0.2608902
vt2 0.490674 0.3545682
vt2 0.5009876 0.4877321
vt2 0.4920931 0.01064625
vt2 0.2032551 0.07073106
vt2 0.060434 0.1827661
vt2 0.00390625 0.394815
vt2 0.6697374 0.6270662
vt2 0.6713069 0.4639212
vt2 0.803331 0.5295066
vt2 0.6953837 0.2895477
vt2 0.6734095 0.00390625
vt2 0.7986695 0.8570567
vt2 0.9276624 0.7466812
vt2 0.9885701 0.5093135
vt2 0.9885701 0.2308229
vt2 0.5704226 0.7423311
vt2 0.5287198 0.9600499
vt2 0.2496489 0.8943014
vt2 0.006375331 0.6367759
vt2 0.21948 0.6079753
vt2 0.8802717 0.05711257
vt2 0.3104798 0.6913891
vt2 0.3725834 0.4109639
vt2 0.4517733 0.5812034
vt2 0.2040969 0.4158961
vt2 0.3121161 0.2636443
vt2 0.5241855 0.2608902
vt2 0.490674 0.3545682
vt2 0.5009876 0.4877321
vt2 0.4920931 0.01064625
vt2 0.2032551 0.07073106
vt2 0.060434 0.1827661
vt2 0.00390625 0.394815
vt2 0.6697374 0.6270662
vt2 0.6713069 0.4639212
vt2 0.803331 0.5295066
vt2 0.6953837 0.2895477
vt2 0.6734095 0.00390625
vt2 0.7986695 0.8570567
vt2 0.9276624 0.7466812
vt2 0.9885701 0.5093135
vt2 0.9885701 0.2308229
vt2 0.5704226 0.7423311
vt2 0.5287198 0.9600499
vt2 0.2496489 0.8943014
vt2 0.006375331 0.6367759
vt2 0.21948 0.6079753
vt2 0.8802717 0.05711257
vt2 0 0
vt2 0 0
vt2 0 0
vt2 0 0
vt2 0 0
vt2 0 0
vt2 0 0
vt2 0 0
vt2 0 0
vt2 0 0
vt2 0 0
vt2 0 0
vt2 0 0
vt2 0 0
vt2 0 0
vt2 0 0
vt2 0 0
vt2 0 0
vt2 0 0
vt2 0 0
vt2 0 0
vt2 0 0
vt2 0 0
vt2 0 0
vt2 0 0
vt2 0 0
vt2 0 0


usemtl AEP_Lava_01_Dif
usemap AEP_Lava_01_Dif
f 18/18/18 19/19/19 15/15/15
f 18/18/18 15/15/15 13/13/13
f 13/13/13 15/15/15 14/14/14
f 13/13/13 14/14/14 8/8/8
f 8/8/8 14/14/14 7/7/7
f 8/8/8 7/7/7 2/2/2
f 2/2/2 7/7/7 6/6/6
f 2/2/2 6/6/6 5/5/5
f 5/5/5 6/6/6 9/9/9
f 5/5/5 9/9/9 10/10/10
f 18/18/18 13/13/13 22/22/22
f 22/22/22 13/13/13 3/3/3
f 22/22/22 3/3/3 1/1/1
f 1/1/1 3/3/3 2/2/2
f 1/1/1 2/2/2 4/4/4
f 4/4/4 2/2/2 5/5/5
f 4/4/4 5/5/5 11/11/11
f 11/11/11 5/5/5 10/10/10
f 1/1/1 4/4/4 26/26/26
f 1/1/1 26/26/26 25/25/25
f 25/25/25 26/26/26 4/4/4
f 25/25/25 4/4/4 12/12/12
f 12/12/12 4/4/4 11/11/11
f 21/21/21 27/27/27 16/16/16
f 16/16/16 27/27/27 17/17/17
f 16/16/16 17/17/17 6/6/6
f 6/6/6 17/17/17 9/9/9
f 21/21/21 16/16/16 15/15/15
f 21/21/21 15/15/15 20/20/20
f 20/20/20 15/15/15 19/19/19
f 1/1/1 25/25/25 24/24/24
f 1/1/1 24/24/24 22/22/22
f 22/22/22 24/24/24 23/23/23
f 22/22/22 23/23/23 18/18/18
f 45/45/45 46/46/46 42/42/42
f 45/45/45 42/42/42 40/40/40
f 40/40/40 42/42/42 41/41/41
f 40/40/40 41/41/41 35/35/35
f 35/35/35 41/41/41 34/34/34
f 35/35/35 34/34/34 29/29/29
f 29/29/29 34/34/34 33/33/33
f 29/29/29 33/33/33 32/32/32
f 32/32/32 33/33/33 36/36/36
f 32/32/32 36/36/36 37/37/37
f 45/45/45 40/40/40 49/49/49
f 49/49/49 40/40/40 30/30/30
f 49/49/49 30/30/30 28/28/28
f 28/28/28 30/30/30 29/29/29
f 28/28/28 29/29/29 31/31/31
f 31/31/31 29/29/29 32/32/32
f 31/31/31 32/32/32 38/38/38
f 38/38/38 32/32/32 37/37/37
f 28/28/28 31/31/31 53/53/53
f 28/28/28 53/53/53 52/52/52
f 52/52/52 53/53/53 31/31/31
f 52/52/52 31/31/31 39/39/39
f 39/39/39 31/31/31 38/38/38
f 48/48/48 54/54/54 43/43/43
f 43/43/43 54/54/54 44/44/44
f 43/43/43 44/44/44 33/33/33
f 33/33/33 44/44/44 36/36/36
f 48/48/48 43/43/43 42/42/42
f 48/48/48 42/42/42 47/47/47
f 47/47/47 42/42/42 46/46/46
f 28/28/28 52/52/52 51/51/51
f 28/28/28 51/51/51 49/49/49
f 49/49/49 51/51/51 50/50/50
f 49/49/49 50/50/50 45/45/45
f 72/72/72 73/73/73 69/69/69
f 72/72/72 69/69/69 67/67/67
f 67/67/67 69/69/69 68/68/68
f 67/67/67 68/68/68 62/62/62
f 62/62/62 68/68/68 61/61/61
f 62/62/62 61/61/61 56/56/56
f 56/56/56 61/61/61 60/60/60
f 56/56/56 60/60/60 59/59/59
f 59/59/59 60/60/60 63/63/63
f 59/59/59 63/63/63 64/64/64
f 72/72/72 67/67/67 76/76/76
f 76/76/76 67/67/67 57/57/57
f 76/76/76 57/57/57 55/55/55
f 55/55/55 57/57/57 56/56/56
f 55/55/55 56/56/56 58/58/58
f 58/58/58 56/56/56 59/59/59
f 58/58/58 59/59/59 65/65/65
f 65/65/65 59/59/59 64/64/64
f 55/55/55 58/58/58 80/80/80
f 55/55/55 80/80/80 79/79/79
f 79/79/79 80/80/80 58/58/58
f 79/79/79 58/58/58 66/66/66
f 66/66/66 58/58/58 65/65/65
f 75/75/75 81/81/81 70/70/70
f 70/70/70 81/81/81 71/71/71
f 70/70/70 71/71/71 60/60/60
f 60/60/60 71/71/71 63/63/63
f 75/75/75 70/70/70 69/69/69
f 75/75/75 69/69/69 74/74/74
f 74/74/74 69/69/69 73/73/73
f 55/55/55 79/79/79 78/78/78
f 55/55/55 78/78/78 76/76/76
f 76/76/76 78/78/78 77/77/77
f 76/76/76 77/77/77 72/72/72
f 99/99/99 100/100/100 96/96/96
f 99/99/99 96/96/96 94/94/94
f 94/94/94 96/96/96 95/95/95
f 94/94/94 95/95/95 89/89/89
f 89/89/89 95/95/95 88/88/88
f 89/89/89 88/88/88 83/83/83
f 83/83/83 88/88/88 87/87/87
f 83/83/83 87/87/87 86/86/86
f 86/86/86 87/87/87 90/90/90
f 86/86/86 90/90/90 91/91/91
f 99/99/99 94/94/94 103/103/103
f 103/103/103 94/94/94 84/84/84
f 103/103/103 84/84/84 82/82/82
f 82/82/82 84/84/84 83/83/83
f 82/82/82 83/83/83 85/85/85
f 85/85/85 83/83/83 86/86/86
f 85/85/85 86/86/86 92/92/92
f 92/92/92 86/86/86 91/91/91
f 82/82/82 85/85/85 107/107/107
f 82/82/82 107/107/107 106/106/106
f 106/106/106 107/107/107 85/85/85
f 106/106/106 85/85/85 93/93/93
f 93/93/93 85/85/85 92/92/92
f 102/102/102 108/108/108 97/97/97
f 97/97/97 108/108/108 98/98/98
f 97/97/97 98/98/98 87/87/87
f 87/87/87 98/98/98 90/90/90
f 102/102/102 97/97/97 96/96/96
f 102/102/102 96/96/96 101/101/101
f 101/101/101 96/96/96 100/100/100
f 82/82/82 106/106/106 105/105/105
f 82/82/82 105/105/105 103/103/103
f 103/103/103 105/105/105 104/104/104
f 103/103/103 104/104/104 99/99/99
f 127/127/127 128/128/128 123/123/123
f 127/127/127 123/123/123 126/126/126
f 126/126/126 123/123/123 121/121/121
f 126/126/126 121/121/121 130/130/130
f 130/130/130 121/121/121 111/111/111
f 130/130/130 111/111/111 109/109/109
f 109/109/109 111/111/111 110/110/110
f 109/109/109 110/110/110 112/112/112
f 112/112/112 110/110/110 113/113/113
f 112/112/112 113/113/113 119/119/119
f 119/119/119 113/113/113 118/118/118
f 121/121/121 123/123/123 122/122/122
f 121/121/121 122/122/122 116/116/116
f 116/116/116 122/122/122 115/115/115
f 116/116/116 115/115/115 110/110/110
f 110/110/110 115/115/115 114/114/114
f 110/110/110 114/114/114 113/113/113
f 113/113/113 114/114/114 117/117/117
f 113/113/113 117/117/117 118/118/118
f 131/131/131 126/126/126 130/130/130
f 131/131/131 130/130/130 132/132/132
f 132/132/132 130/130/130 109/109/109
f 132/132/132 109/109/109 133/133/133
f 133/133/133 109/109/109 134/134/134
f 133/133/133 134/134/134 112/112/112
f 112/112/112 134/134/134 109/109/109
f 120/120/120 133/133/133 112/112/112
f 120/120/120 112/112/112 119/119/119
f 123/123/123 128/128/128 129/129/129
f 123/123/123 129/129/129 124/124/124
f 124/124/124 129/129/129 135/135/135
f 124/124/124 135/135/135 125/125/125
f 115/115/115 122/122/122 124/124/124
f 115/115/115 124/124/124 114/114/114
f 114/114/114 124/124/124 125/125/125
f 114/114/114 125/125/125 117/117/117
f 3/3/3 13/13/13 8/8/8
f 3/3/3 8/8/8 2/2/2
f 14/14/14 15/15/15 16/16/16
f 14/14/14 16/16/16 7/7/7
f 7/7/7 16/16/16 6/6/6
f 30/30/30 40/40/40 35/35/35
f 30/30/30 35/35/35 29/29/29
f 41/41/41 42/42/42 43/43/43
f 41/41/41 43/43/43 34/34/34
f 34/34/34 43/43/43 33/33/33
f 57/57/57 67/67/67 62/62/62
f 57/57/57 62/62/62 56/56/56
f 68/68/68 69/69/69 70/70/70
f 68/68/68 70/70/70 61/61/61
f 61/61/61 70/70/70 60/60/60
f 84/84/84 94/94/94 89/89/89
f 84/84/84 89/89/89 83/83/83
f 95/95/95 96/96/96 97/97/97
f 95/95/95 97/97/97 88/88/88
f 88/88/88 97/97/97 87/87/87
f 116/116/116 110/110/110 111/111/111
f 116/116/116 111/111/111 121/121/121
f 123/123/123 124/124/124 122/122/122

