g NewMesh_tris_195
v -7.223615 0.3130488 -6.683495
v 2.160208 0.3484496 -5.461189
v -3.144434 0.1078819 -2.251399
v 1.586812 0.2422204 -10.97442
v 6.863214 -0.07005905 -7.737411
v 7.462489 0.9248918 -0.7357853
v 4.434876 0.02551547 -1.80521
v 0.009208899 1.189676 -1.055693
v 15.68619 0.0628484 -2.337189
v 13.01244 0.009727991 -11.80532
v 8.953341 -0.1059144 -16.28158
v 1.773933 -0.06009551 -17.62534
v -4.245714 0.6843435 5.090692
v 1.099037 0.2754958 4.682925
v -0.7227311 0.4685049 9.211564
v 6.915573 0.6812586 5.049839
v 16.2986 0.04218807 3.641333
v -11.45885 -0.09982386 9.844825
v -7.533266 0.009312312 13.80993
v 0.3937472 0.04279551 15.22467
v 9.536963 -0.01989494 14.55645
v -8.267746 0.4648042 2.067602
v -15.54331 0.01494393 1.228474
v -14.07952 -0.0822728 -8.161452
v -6.210141 -0.01427219 -16.89783
v -4.720211 0.5204525 -9.914695
v 14.96638 -0.3834376 10.55613
v 68.56022 1.687363 -118.0346
v 78.87212 1.726265 -116.6914
v 73.04284 1.461905 -113.1642
v 78.24201 1.609529 -122.7499
v 84.04025 1.266365 -119.1928
v 84.6988 2.359718 -111.4987
v 81.37175 1.371392 -112.6739
v 76.50838 2.650689 -111.8502
v 93.73583 1.412417 -113.2584
v 90.79765 1.354043 -123.663
v 86.3371 1.226964 -128.582
v 78.44764 1.277314 -130.0586
v 71.83264 2.095379 -105.0959
v 77.70599 1.646096 -105.544
v 75.70405 1.858194 -100.5675
v 84.09779 2.091989 -105.1408
v 94.40881 1.389714 -106.6886
v 63.90611 1.233657 -99.87162
v 68.21995 1.353587 -95.51436
v 76.93095 1.390381 -93.95971
v 86.97844 1.321491 -94.69401
v 67.41283 1.854127 -108.418
v 59.4177 1.359775 -109.3401
v 61.02626 1.252944 -119.6587
v 69.67393 1.32767 -129.2592
v 71.31122 1.915279 -121.5854
v 92.94483 0.9219933 -99.08997
v -9.886189 4.46389 53.36035
v 0.4257039 4.502792 54.70354
v -5.403573 4.238432 58.23079
v -0.2044015 4.386057 48.64505
v 5.593843 4.042893 52.2022
v 6.252387 5.136245 59.89629
v 2.92534 4.14792 58.7211
v -1.938031 5.427217 59.54475
v 15.28942 4.188945 58.13651
v 12.35124 4.130571 47.73197
v 7.890687 4.003491 42.81301
v 0.00122664 4.053842 41.33634
v -6.61377 4.871906 66.29902
v -0.7404174 4.422623 65.85092
v -2.742361 4.634721 70.82745
v 5.65138 4.868516 66.25412
v 15.9624 4.166241 64.70631
v -14.5403 4.010184 71.52334
v -10.22647 4.130114 75.8806
v -1.515461 4.166909 77.43525
v 8.532029 4.098018 76.70095
v -11.03359 4.630654 62.97694
v -19.02872 4.136302 62.05482
v -17.42015 4.029471 51.73622
v -8.772482 4.104197 42.13581
v -7.135195 4.691806 49.80958
v 14.49842 3.698521 72.30499
v 213.4298 17.24528 49.37183
v 246.302 17.3693 53.65366
v 227.7194 16.52657 64.89778
v 244.2933 16.99717 34.34042
v 262.7769 15.90323 45.67989
v 264.8763 19.38861 70.20708
v 254.2703 16.23803 66.46081
v 238.7669 20.31617 69.08643
v 293.6844 16.36881 64.59725
v 284.3181 16.18273 31.42973
v 270.0988 15.77763 15.74908
v 244.9488 15.93813 11.04176
v 223.8616 18.54596 90.61765
v 242.5846 17.11373 89.18921
v 236.2028 17.78986 105.0534
v 262.9604 18.53515 90.47453
v 295.8298 16.29644 85.54044
v 198.5934 15.79896 107.2717
v 212.345 16.18127 121.1618
v 240.1139 16.29857 126.1177
v 272.1433 16.07896 123.7769
v 209.7721 17.77689 80.02755
v 184.2853 16.201 77.08802
v 189.4131 15.86044 44.19445
v 216.9801 16.09865 13.59031
v 222.1994 17.97183 38.05271
v 291.1629 14.80544 109.7635
v 136.0416 5.638954 162.3916
v 146.3535 5.677856 163.7348
v 140.5242 5.413496 167.262
v 145.7234 5.561121 157.6763
v 151.5216 5.217957 161.2334
v 152.1802 6.311309 168.9275
v 148.8531 5.322984 167.7523
v 143.9898 6.602281 168.576
v 161.2172 5.364009 167.1677
v 158.279 5.305635 156.7632
v 153.8185 5.178555 151.8442
v 145.929 5.228906 150.3676
v 139.314 6.04697 175.3302
v 145.1874 5.597687 174.8821
v 143.1854 5.809785 179.8587
v 151.5792 6.043581 175.2853
v 161.8902 5.341305 173.7375
v 131.3875 5.185248 180.5546
v 135.7013 5.305178 184.9118
v 144.4123 5.341973 186.4665
v 154.4598 5.273082 185.7322
v 134.8942 5.805718 172.0082
v 126.8991 5.311367 171.086
v 128.5077 5.204535 160.7674
v 137.1553 5.279261 151.167
v 138.7926 5.86687 158.8408
v 160.4262 4.873585 181.3362

vn -0.03518791 0.9993306 -0.01001009
vn 0.02285886 0.9973056 -0.0697058
vn -0.1043767 0.991151 -0.08200588
vn 0.03994949 0.9986457 -0.03332685
vn 0.04379476 0.9965672 -0.07025473
vn -0.08282852 0.9962617 -0.02453726
vn -0.1346815 0.9795766 0.1493002
vn -0.0009766088 0.9961104 -0.08810842
vn 0.08850566 0.9945899 -0.0543852
vn -0.02203449 0.9997312 -0.007202411
vn 0.0168464 0.9996446 -0.02066126
vn 0.01077334 0.9981365 -0.06006215
vn -0.03485258 0.9986699 0.03799602
vn 0.04138365 0.9990977 0.00955242
vn -0.006958378 0.9985272 0.05380535
vn -0.0002441538 0.9995963 0.0284134
vn 0.1151165 0.9918572 0.05447585
vn -0.08231033 0.9947433 0.06091636
vn -0.05459819 0.9971723 0.05163786
vn -0.0005188179 0.995581 0.09390604
vn 0.07025517 0.9944982 0.07770184
vn -0.04956313 0.9987398 -0.007904465
vn -0.0829518 0.9965203 0.008148687
vn -0.0706208 0.9968092 -0.03720257
vn -0.02929816 0.9969614 -0.07217724
vn -0.02563593 0.9996488 0.006714173
vn 0.1192987 0.9896087 0.08026493
vn -0.03518791 0.9993306 -0.01001009
vn 0.02285886 0.9973056 -0.0697058
vn -0.1043767 0.991151 -0.08200588
vn 0.03994949 0.9986457 -0.03332685
vn 0.04379476 0.9965672 -0.07025473
vn -0.08282852 0.9962617 -0.02453726
vn -0.1346815 0.9795766 0.1493002
vn -0.0009766088 0.9961104 -0.08810842
vn 0.08850566 0.9945899 -0.0543852
vn -0.02203449 0.9997312 -0.007202411
vn 0.0168464 0.9996446 -0.02066126
vn 0.01077334 0.9981365 -0.06006215
vn -0.03485258 0.9986699 0.03799602
vn 0.04138365 0.9990977 0.00955242
vn -0.006958378 0.9985272 0.05380535
vn -0.0002441538 0.9995963 0.0284134
vn 0.1151165 0.9918572 0.05447585
vn -0.08231033 0.9947433 0.06091636
vn -0.05459819 0.9971723 0.05163786
vn -0.0005188179 0.995581 0.09390604
vn 0.07025517 0.9944982 0.07770184
vn -0.04956313 0.9987398 -0.007904465
vn -0.0829518 0.9965203 0.008148687
vn -0.0706208 0.9968092 -0.03720257
vn -0.02929816 0.9969614 -0.07217724
vn -0.02563593 0.9996488 0.006714173
vn 0.1192987 0.9896087 0.08026493
vn -0.03518791 0.9993306 -0.01001009
vn 0.02285886 0.9973056 -0.0697058
vn -0.1043767 0.991151 -0.08200588
vn 0.03994949 0.9986457 -0.03332685
vn 0.04379476 0.9965672 -0.07025473
vn -0.08282852 0.9962617 -0.02453726
vn -0.1346815 0.9795766 0.1493002
vn -0.0009766088 0.9961104 -0.08810842
vn 0.08850566 0.9945899 -0.0543852
vn -0.02203449 0.9997312 -0.007202411
vn 0.0168464 0.9996446 -0.02066126
vn 0.01077334 0.9981365 -0.06006215
vn -0.03485258 0.9986699 0.03799602
vn 0.04138365 0.9990977 0.00955242
vn -0.006958378 0.9985272 0.05380535
vn -0.0002441538 0.9995963 0.0284134
vn 0.1151165 0.9918572 0.05447585
vn -0.08231033 0.9947433 0.06091636
vn -0.05459819 0.9971723 0.05163786
vn -0.0005188179 0.995581 0.09390604
vn 0.07025517 0.9944982 0.07770184
vn -0.04956313 0.9987398 -0.007904465
vn -0.0829518 0.9965203 0.008148687
vn -0.0706208 0.9968092 -0.03720257
vn -0.02929816 0.9969614 -0.07217724
vn -0.02563593 0.9996488 0.006714173
vn 0.1192987 0.9896087 0.08026493
vn -0.03518791 0.9993306 -0.01001009
vn 0.02285886 0.9973056 -0.0697058
vn -0.1043767 0.991151 -0.08200588
vn 0.03994949 0.9986457 -0.03332685
vn 0.04379476 0.9965672 -0.07025473
vn -0.08282852 0.9962617 -0.02453726
vn -0.1346815 0.9795766 0.1493002
vn -0.0009766088 0.9961104 -0.08810842
vn 0.08850566 0.9945899 -0.0543852
vn -0.02203449 0.9997312 -0.007202411
vn 0.0168464 0.9996446 -0.02066126
vn 0.01077334 0.9981365 -0.06006215
vn -0.03485258 0.9986699 0.03799602
vn 0.04138365 0.9990977 0.00955242
vn -0.006958378 0.9985272 0.05380535
vn -0.0002441538 0.9995963 0.0284134
vn 0.1151165 0.9918572 0.05447585
vn -0.08231033 0.9947433 0.06091636
vn -0.05459819 0.9971723 0.05163786
vn -0.0005188179 0.995581 0.09390604
vn 0.07025517 0.9944982 0.07770184
vn -0.04956313 0.9987398 -0.007904465
vn -0.0829518 0.9965203 0.008148687
vn -0.0706208 0.9968092 -0.03720257
vn -0.02929816 0.9969614 -0.07217724
vn -0.02563593 0.9996488 0.006714173
vn 0.1192987 0.9896087 0.08026493
vn -0.03518791 0.9993306 -0.01001009
vn 0.02285886 0.9973056 -0.0697058
vn -0.1043767 0.991151 -0.08200588
vn 0.03994949 0.9986457 -0.03332685
vn 0.04379476 0.9965672 -0.07025473
vn -0.08282852 0.9962617 -0.02453726
vn -0.1346815 0.9795766 0.1493002
vn -0.0009766088 0.9961104 -0.08810842
vn 0.08850566 0.9945899 -0.0543852
vn -0.02203449 0.9997312 -0.007202411
vn 0.0168464 0.9996446 -0.02066126
vn 0.01077334 0.9981365 -0.06006215
vn -0.03485258 0.9986699 0.03799602
vn 0.04138365 0.9990977 0.00955242
vn -0.006958378 0.9985272 0.05380535
vn -0.0002441538 0.9995963 0.0284134
vn 0.1151165 0.9918572 0.05447585
vn -0.08231033 0.9947433 0.06091636
vn -0.05459819 0.9971723 0.05163786
vn -0.0005188179 0.995581 0.09390604
vn 0.07025517 0.9944982 0.07770184
vn -0.04956313 0.9987398 -0.007904465
vn -0.0829518 0.9965203 0.008148687
vn -0.0706208 0.9968092 -0.03720257
vn -0.02929816 0.9969614 -0.07217724
vn -0.02563593 0.9996488 0.006714173
vn 0.1192987 0.9896087 0.08026493

vt 0.939109 0.921223
vt 0.777576 0.29897
vt 0.614106 0.686264
vt 1.154719 0.296212
vt 0.90054 -0.035458
vt 0.425826 -0.023957
vt 0.508618 0.182659
vt 0.496495 0.481261
vt 0.476882 -0.586376
vt 1.128083 -0.476018
vt 1.456915 -0.23716
vt 1.600828 0.232664
vt 0.130415 0.806727
vt 0.113528 0.442118
vt -0.176246 0.599584
vt 0.045367 0.054254
vt 0.070853 -0.586376
vt -0.139012 1.331524
vt -0.436425 1.095329
vt -0.592058 0.569675
vt -0.615025 -0.052894
vt 0.361932 1.056331
vt 0.472945 1.539811
vt 1.091707 1.370113
vt 1.615026 0.774258
vt 1.135914 0.72718
vt -0.387273 -0.450239
vt 0.939109 0.921223
vt 0.777576 0.29897
vt 0.614106 0.686264
vt 1.154719 0.296212
vt 0.90054 -0.035458
vt 0.425826 -0.023957
vt 0.508618 0.182659
vt 0.496495 0.481261
vt 0.476882 -0.586376
vt 1.128083 -0.476018
vt 1.456915 -0.23716
vt 1.600828 0.232664
vt 0.130415 0.806727
vt 0.113528 0.442118
vt -0.176246 0.599584
vt 0.045367 0.054254
vt 0.070853 -0.586376
vt -0.139012 1.331524
vt -0.436425 1.095329
vt -0.592058 0.569675
vt -0.615025 -0.052894
vt 0.361932 1.056331
vt 0.472945 1.539811
vt 1.091707 1.370113
vt 1.615026 0.774258
vt 1.135914 0.72718
vt -0.387273 -0.450239
vt 0.939109 0.921223
vt 0.777576 0.29897
vt 0.614106 0.686264
vt 1.154719 0.296212
vt 0.90054 -0.035458
vt 0.425826 -0.023957
vt 0.508618 0.182659
vt 0.496495 0.481261
vt 0.476882 -0.586376
vt 1.128083 -0.476018
vt 1.456915 -0.23716
vt 1.600828 0.232664
vt 0.130415 0.806727
vt 0.113528 0.442118
vt -0.176246 0.599584
vt 0.045367 0.054254
vt 0.070853 -0.586376
vt -0.139012 1.331524
vt -0.436425 1.095329
vt -0.592058 0.569675
vt -0.615025 -0.052894
vt 0.361932 1.056331
vt 0.472945 1.539811
vt 1.091707 1.370113
vt 1.615026 0.774258
vt 1.135914 0.72718
vt -0.387273 -0.450239
vt 0.939109 0.921223
vt 0.777576 0.29897
vt 0.614106 0.686264
vt 1.154719 0.296212
vt 0.90054 -0.035458
vt 0.425826 -0.023957
vt 0.508618 0.182659
vt 0.496495 0.481261
vt 0.476882 -0.586376
vt 1.128083 -0.476018
vt 1.456915 -0.23716
vt 1.600828 0.232664
vt 0.130415 0.806727
vt 0.113528 0.442118
vt -0.176246 0.599584
vt 0.045367 0.054254
vt 0.070853 -0.586376
vt -0.139012 1.331524
vt -0.436425 1.095329
vt -0.592058 0.569675
vt -0.615025 -0.052894
vt 0.361932 1.056331
vt 0.472945 1.539811
vt 1.091707 1.370113
vt 1.615026 0.774258
vt 1.135914 0.72718
vt -0.387273 -0.450239
vt 0.939109 0.921223
vt 0.777576 0.29897
vt 0.614106 0.686264
vt 1.154719 0.296212
vt 0.90054 -0.035458
vt 0.425826 -0.023957
vt 0.508618 0.182659
vt 0.496495 0.481261
vt 0.476882 -0.586376
vt 1.128083 -0.476018
vt 1.456915 -0.23716
vt 1.600828 0.232664
vt 0.130415 0.806727
vt 0.113528 0.442118
vt -0.176246 0.599584
vt 0.045367 0.054254
vt 0.070853 -0.586376
vt -0.139012 1.331524
vt -0.436425 1.095329
vt -0.592058 0.569675
vt -0.615025 -0.052894
vt 0.361932 1.056331
vt 0.472945 1.539811
vt 1.091707 1.370113
vt 1.615026 0.774258
vt 1.135914 0.72718
vt -0.387273 -0.450239

vt1 0.3104798 0.6913891
vt1 0.3725834 0.4109639
vt1 0.4517733 0.5812034
vt1 0.2040969 0.4158961
vt1 0.3121161 0.2636443
vt1 0.5241855 0.2608902
vt1 0.490674 0.3545682
vt1 0.5009876 0.4877321
vt1 0.4920931 0.01064625
vt1 0.2032551 0.07073106
vt1 0.060434 0.1827661
vt1 0.00390625 0.394815
vt1 0.6697374 0.6270662
vt1 0.6713069 0.4639212
vt1 0.803331 0.5295066
vt1 0.6953837 0.2895477
vt1 0.6734095 0.00390625
vt1 0.7986695 0.8570567
vt1 0.9276624 0.7466812
vt1 0.9885701 0.5093135
vt1 0.9885701 0.2308229
vt1 0.5704226 0.7423311
vt1 0.5287198 0.9600499
vt1 0.2496489 0.8943014
vt1 0.006375331 0.6367759
vt1 0.21948 0.6079753
vt1 0.8802717 0.05711257
vt1 0.3104798 0.6913891
vt1 0.3725834 0.4109639
vt1 0.4517733 0.5812034
vt1 0.2040969 0.4158961
vt1 0.3121161 0.2636443
vt1 0.5241855 0.2608902
vt1 0.490674 0.3545682
vt1 0.5009876 0.4877321
vt1 0.4920931 0.01064625
vt1 0.2032551 0.07073106
vt1 0.060434 0.1827661
vt1 0.00390625 0.394815
vt1 0.6697374 0.6270662
vt1 0.6713069 0.4639212
vt1 0.803331 0.5295066
vt1 0.6953837 0.2895477
vt1 0.6734095 0.00390625
vt1 0.7986695 0.8570567
vt1 0.9276624 0.7466812
vt1 0.9885701 0.5093135
vt1 0.9885701 0.2308229
vt1 0.5704226 0.7423311
vt1 0.5287198 0.9600499
vt1 0.2496489 0.8943014
vt1 0.006375331 0.6367759
vt1 0.21948 0.6079753
vt1 0.8802717 0.05711257
vt1 0.3104798 0.6913891
vt1 0.3725834 0.4109639
vt1 0.4517733 0.5812034
vt1 0.2040969 0.4158961
vt1 0.3121161 0.2636443
vt1 0.5241855 0.2608902
vt1 0.490674 0.3545682
vt1 0.5009876 0.4877321
vt1 0.4920931 0.01064625
vt1 0.2032551 0.07073106
vt1 0.060434 0.1827661
vt1 0.00390625 0.394815
vt1 0.6697374 0.6270662
vt1 0.6713069 0.4639212
vt1 0.803331 0.5295066
vt1 0.6953837 0.2895477
vt1 0.6734095 0.00390625
vt1 0.7986695 0.8570567
vt1 0.9276624 0.7466812
vt1 0.9885701 0.5093135
vt1 0.9885701 0.2308229
vt1 0.5704226 0.7423311
vt1 0.5287198 0.9600499
vt1 0.2496489 0.8943014
vt1 0.006375331 0.6367759
vt1 0.21948 0.6079753
vt1 0.8802717 0.05711257
vt1 0.3104798 0.6913891
vt1 0.3725834 0.4109639
vt1 0.4517733 0.5812034
vt1 0.2040969 0.4158961
vt1 0.3121161 0.2636443
vt1 0.5241855 0.2608902
vt1 0.490674 0.3545682
vt1 0.5009876 0.4877321
vt1 0.4920931 0.01064625
vt1 0.2032551 0.07073106
vt1 0.060434 0.1827661
vt1 0.00390625 0.394815
vt1 0.6697374 0.6270662
vt1 0.6713069 0.4639212
vt1 0.803331 0.5295066
vt1 0.6953837 0.2895477
vt1 0.6734095 0.00390625
vt1 0.7986695 0.8570567
vt1 0.9276624 0.7466812
vt1 0.9885701 0.5093135
vt1 0.9885701 0.2308229
vt1 0.5704226 0.7423311
vt1 0.5287198 0.9600499
vt1 0.2496489 0.8943014
vt1 0.006375331 0.6367759
vt1 0.21948 0.6079753
vt1 0.8802717 0.05711257
vt1 0.3104798 0.6913891
vt1 0.3725834 0.4109639
vt1 0.4517733 0.5812034
vt1 0.2040969 0.4158961
vt1 0.3121161 0.2636443
vt1 0.5241855 0.2608902
vt1 0.490674 0.3545682
vt1 0.5009876 0.4877321
vt1 0.4920931 0.01064625
vt1 0.2032551 0.07073106
vt1 0.060434 0.1827661
vt1 0.00390625 0.394815
vt1 0.6697374 0.6270662
vt1 0.6713069 0.4639212
vt1 0.803331 0.5295066
vt1 0.6953837 0.2895477
vt1 0.6734095 0.00390625
vt1 0.7986695 0.8570567
vt1 0.9276624 0.7466812
vt1 0.9885701 0.5093135
vt1 0.9885701 0.2308229
vt1 0.5704226 0.7423311
vt1 0.5287198 0.9600499
vt1 0.2496489 0.8943014
vt1 0.006375331 0.6367759
vt1 0.21948 0.6079753
vt1 0.8802717 0.05711257

vt2 0.3104798 0.6913891
vt2 0.3725834 0.4109639
vt2 0.4517733 0.5812034
vt2 0.2040969 0.4158961
vt2 0.3121161 0.2636443
vt2 0.5241855 0.2608902
vt2 0.490674 0.3545682
vt2 0.5009876 0.4877321
vt2 0.4920931 0.01064625
vt2 0.2032551 0.07073106
vt2 0.060434 0.1827661
vt2 0.00390625 0.394815
vt2 0.6697374 0.6270662
vt2 0.6713069 0.4639212
vt2 0.803331 0.5295066
vt2 0.6953837 0.2895477
vt2 0.6734095 0.00390625
vt2 0.7986695 0.8570567
vt2 0.9276624 0.7466812
vt2 0.9885701 0.5093135
vt2 0.9885701 0.2308229
vt2 0.5704226 0.7423311
vt2 0.5287198 0.9600499
vt2 0.2496489 0.8943014
vt2 0.006375331 0.6367759
vt2 0.21948 0.6079753
vt2 0.8802717 0.05711257
vt2 0.3104798 0.6913891
vt2 0.3725834 0.4109639
vt2 0.4517733 0.5812034
vt2 0.2040969 0.4158961
vt2 0.3121161 0.2636443
vt2 0.5241855 0.2608902
vt2 0.490674 0.3545682
vt2 0.5009876 0.4877321
vt2 0.4920931 0.01064625
vt2 0.2032551 0.07073106
vt2 0.060434 0.1827661
vt2 0.00390625 0.394815
vt2 0.6697374 0.6270662
vt2 0.6713069 0.4639212
vt2 0.803331 0.5295066
vt2 0.6953837 0.2895477
vt2 0.6734095 0.00390625
vt2 0.7986695 0.8570567
vt2 0.9276624 0.7466812
vt2 0.9885701 0.5093135
vt2 0.9885701 0.2308229
vt2 0.5704226 0.7423311
vt2 0.5287198 0.9600499
vt2 0.2496489 0.8943014
vt2 0.006375331 0.6367759
vt2 0.21948 0.6079753
vt2 0.8802717 0.05711257
vt2 0.3104798 0.6913891
vt2 0.3725834 0.4109639
vt2 0.4517733 0.5812034
vt2 0.2040969 0.4158961
vt2 0.3121161 0.2636443
vt2 0.5241855 0.2608902
vt2 0.490674 0.3545682
vt2 0.5009876 0.4877321
vt2 0.4920931 0.01064625
vt2 0.2032551 0.07073106
vt2 0.060434 0.1827661
vt2 0.00390625 0.394815
vt2 0.6697374 0.6270662
vt2 0.6713069 0.4639212
vt2 0.803331 0.5295066
vt2 0.6953837 0.2895477
vt2 0.6734095 0.00390625
vt2 0.7986695 0.8570567
vt2 0.9276624 0.7466812
vt2 0.9885701 0.5093135
vt2 0.9885701 0.2308229
vt2 0.5704226 0.7423311
vt2 0.5287198 0.9600499
vt2 0.2496489 0.8943014
vt2 0.006375331 0.6367759
vt2 0.21948 0.6079753
vt2 0.8802717 0.05711257
vt2 0.3104798 0.6913891
vt2 0.3725834 0.4109639
vt2 0.4517733 0.5812034
vt2 0.2040969 0.4158961
vt2 0.3121161 0.2636443
vt2 0.5241855 0.2608902
vt2 0.490674 0.3545682
vt2 0.5009876 0.4877321
vt2 0.4920931 0.01064625
vt2 0.2032551 0.07073106
vt2 0.060434 0.1827661
vt2 0.00390625 0.394815
vt2 0.6697374 0.6270662
vt2 0.6713069 0.4639212
vt2 0.803331 0.5295066
vt2 0.6953837 0.2895477
vt2 0.6734095 0.00390625
vt2 0.7986695 0.8570567
vt2 0.9276624 0.7466812
vt2 0.9885701 0.5093135
vt2 0.9885701 0.2308229
vt2 0.5704226 0.7423311
vt2 0.5287198 0.9600499
vt2 0.2496489 0.8943014
vt2 0.006375331 0.6367759
vt2 0.21948 0.6079753
vt2 0.8802717 0.05711257
vt2 0.3104798 0.6913891
vt2 0.3725834 0.4109639
vt2 0.4517733 0.5812034
vt2 0.2040969 0.4158961
vt2 0.3121161 0.2636443
vt2 0.5241855 0.2608902
vt2 0.490674 0.3545682
vt2 0.5009876 0.4877321
vt2 0.4920931 0.01064625
vt2 0.2032551 0.07073106
vt2 0.060434 0.1827661
vt2 0.00390625 0.394815
vt2 0.6697374 0.6270662
vt2 0.6713069 0.4639212
vt2 0.803331 0.5295066
vt2 0.6953837 0.2895477
vt2 0.6734095 0.00390625
vt2 0.7986695 0.8570567
vt2 0.9276624 0.7466812
vt2 0.9885701 0.5093135
vt2 0.9885701 0.2308229
vt2 0.5704226 0.7423311
vt2 0.5287198 0.9600499
vt2 0.2496489 0.8943014
vt2 0.006375331 0.6367759
vt2 0.21948 0.6079753
vt2 0.8802717 0.05711257


usemtl AEP_Lava_01_Dif
usemap AEP_Lava_01_Dif
f 18/18/18 19/19/19 15/15/15
f 18/18/18 15/15/15 13/13/13
f 13/13/13 15/15/15 14/14/14
f 13/13/13 14/14/14 8/8/8
f 8/8/8 14/14/14 7/7/7
f 8/8/8 7/7/7 2/2/2
f 2/2/2 7/7/7 6/6/6
f 2/2/2 6/6/6 5/5/5
f 5/5/5 6/6/6 9/9/9
f 5/5/5 9/9/9 10/10/10
f 18/18/18 13/13/13 22/22/22
f 22/22/22 13/13/13 3/3/3
f 22/22/22 3/3/3 1/1/1
f 1/1/1 3/3/3 2/2/2
f 1/1/1 2/2/2 4/4/4
f 4/4/4 2/2/2 5/5/5
f 4/4/4 5/5/5 11/11/11
f 11/11/11 5/5/5 10/10/10
f 1/1/1 4/4/4 26/26/26
f 1/1/1 26/26/26 25/25/25
f 25/25/25 26/26/26 4/4/4
f 25/25/25 4/4/4 12/12/12
f 12/12/12 4/4/4 11/11/11
f 21/21/21 27/27/27 16/16/16
f 16/16/16 27/27/27 17/17/17
f 16/16/16 17/17/17 6/6/6
f 6/6/6 17/17/17 9/9/9
f 21/21/21 16/16/16 15/15/15
f 21/21/21 15/15/15 20/20/20
f 20/20/20 15/15/15 19/19/19
f 1/1/1 25/25/25 24/24/24
f 1/1/1 24/24/24 22/22/22
f 22/22/22 24/24/24 23/23/23
f 22/22/22 23/23/23 18/18/18
f 45/45/45 46/46/46 42/42/42
f 45/45/45 42/42/42 40/40/40
f 40/40/40 42/42/42 41/41/41
f 40/40/40 41/41/41 35/35/35
f 35/35/35 41/41/41 34/34/34
f 35/35/35 34/34/34 29/29/29
f 29/29/29 34/34/34 33/33/33
f 29/29/29 33/33/33 32/32/32
f 32/32/32 33/33/33 36/36/36
f 32/32/32 36/36/36 37/37/37
f 45/45/45 40/40/40 49/49/49
f 49/49/49 40/40/40 30/30/30
f 49/49/49 30/30/30 28/28/28
f 28/28/28 30/30/30 29/29/29
f 28/28/28 29/29/29 31/31/31
f 31/31/31 29/29/29 32/32/32
f 31/31/31 32/32/32 38/38/38
f 38/38/38 32/32/32 37/37/37
f 28/28/28 31/31/31 53/53/53
f 28/28/28 53/53/53 52/52/52
f 52/52/52 53/53/53 31/31/31
f 52/52/52 31/31/31 39/39/39
f 39/39/39 31/31/31 38/38/38
f 48/48/48 54/54/54 43/43/43
f 43/43/43 54/54/54 44/44/44
f 43/43/43 44/44/44 33/33/33
f 33/33/33 44/44/44 36/36/36
f 48/48/48 43/43/43 42/42/42
f 48/48/48 42/42/42 47/47/47
f 47/47/47 42/42/42 46/46/46
f 28/28/28 52/52/52 51/51/51
f 28/28/28 51/51/51 49/49/49
f 49/49/49 51/51/51 50/50/50
f 49/49/49 50/50/50 45/45/45
f 72/72/72 73/73/73 69/69/69
f 72/72/72 69/69/69 67/67/67
f 67/67/67 69/69/69 68/68/68
f 67/67/67 68/68/68 62/62/62
f 62/62/62 68/68/68 61/61/61
f 62/62/62 61/61/61 56/56/56
f 56/56/56 61/61/61 60/60/60
f 56/56/56 60/60/60 59/59/59
f 59/59/59 60/60/60 63/63/63
f 59/59/59 63/63/63 64/64/64
f 72/72/72 67/67/67 76/76/76
f 76/76/76 67/67/67 57/57/57
f 76/76/76 57/57/57 55/55/55
f 55/55/55 57/57/57 56/56/56
f 55/55/55 56/56/56 58/58/58
f 58/58/58 56/56/56 59/59/59
f 58/58/58 59/59/59 65/65/65
f 65/65/65 59/59/59 64/64/64
f 55/55/55 58/58/58 80/80/80
f 55/55/55 80/80/80 79/79/79
f 79/79/79 80/80/80 58/58/58
f 79/79/79 58/58/58 66/66/66
f 66/66/66 58/58/58 65/65/65
f 75/75/75 81/81/81 70/70/70
f 70/70/70 81/81/81 71/71/71
f 70/70/70 71/71/71 60/60/60
f 60/60/60 71/71/71 63/63/63
f 75/75/75 70/70/70 69/69/69
f 75/75/75 69/69/69 74/74/74
f 74/74/74 69/69/69 73/73/73
f 55/55/55 79/79/79 78/78/78
f 55/55/55 78/78/78 76/76/76
f 76/76/76 78/78/78 77/77/77
f 76/76/76 77/77/77 72/72/72
f 99/99/99 100/100/100 96/96/96
f 99/99/99 96/96/96 94/94/94
f 94/94/94 96/96/96 95/95/95
f 94/94/94 95/95/95 89/89/89
f 89/89/89 95/95/95 88/88/88
f 89/89/89 88/88/88 83/83/83
f 83/83/83 88/88/88 87/87/87
f 83/83/83 87/87/87 86/86/86
f 86/86/86 87/87/87 90/90/90
f 86/86/86 90/90/90 91/91/91
f 99/99/99 94/94/94 103/103/103
f 103/103/103 94/94/94 84/84/84
f 103/103/103 84/84/84 82/82/82
f 82/82/82 84/84/84 83/83/83
f 82/82/82 83/83/83 85/85/85
f 85/85/85 83/83/83 86/86/86
f 85/85/85 86/86/86 92/92/92
f 92/92/92 86/86/86 91/91/91
f 82/82/82 85/85/85 107/107/107
f 82/82/82 107/107/107 106/106/106
f 106/106/106 107/107/107 85/85/85
f 106/106/106 85/85/85 93/93/93
f 93/93/93 85/85/85 92/92/92
f 102/102/102 108/108/108 97/97/97
f 97/97/97 108/108/108 98/98/98
f 97/97/97 98/98/98 87/87/87
f 87/87/87 98/98/98 90/90/90
f 102/102/102 97/97/97 96/96/96
f 102/102/102 96/96/96 101/101/101
f 101/101/101 96/96/96 100/100/100
f 82/82/82 106/106/106 105/105/105
f 82/82/82 105/105/105 103/103/103
f 103/103/103 105/105/105 104/104/104
f 103/103/103 104/104/104 99/99/99
f 126/126/126 127/127/127 123/123/123
f 126/126/126 123/123/123 121/121/121
f 121/121/121 123/123/123 122/122/122
f 121/121/121 122/122/122 116/116/116
f 116/116/116 122/122/122 115/115/115
f 116/116/116 115/115/115 110/110/110
f 110/110/110 115/115/115 114/114/114
f 110/110/110 114/114/114 113/113/113
f 113/113/113 114/114/114 117/117/117
f 113/113/113 117/117/117 118/118/118
f 126/126/126 121/121/121 130/130/130
f 130/130/130 121/121/121 111/111/111
f 130/130/130 111/111/111 109/109/109
f 109/109/109 111/111/111 110/110/110
f 109/109/109 110/110/110 112/112/112
f 112/112/112 110/110/110 113/113/113
f 112/112/112 113/113/113 119/119/119
f 119/119/119 113/113/113 118/118/118
f 109/109/109 112/112/112 134/134/134
f 109/109/109 134/134/134 133/133/133
f 133/133/133 134/134/134 112/112/112
f 133/133/133 112/112/112 120/120/120
f 120/120/120 112/112/112 119/119/119
f 129/129/129 135/135/135 124/124/124
f 124/124/124 135/135/135 125/125/125
f 124/124/124 125/125/125 114/114/114
f 114/114/114 125/125/125 117/117/117
f 129/129/129 124/124/124 123/123/123
f 129/129/129 123/123/123 128/128/128
f 128/128/128 123/123/123 127/127/127
f 109/109/109 133/133/133 132/132/132
f 109/109/109 132/132/132 130/130/130
f 130/130/130 132/132/132 131/131/131
f 130/130/130 131/131/131 126/126/126
f 3/3/3 13/13/13 8/8/8
f 3/3/3 8/8/8 2/2/2
f 14/14/14 15/15/15 16/16/16
f 14/14/14 16/16/16 7/7/7
f 7/7/7 16/16/16 6/6/6
f 30/30/30 40/40/40 35/35/35
f 30/30/30 35/35/35 29/29/29
f 41/41/41 42/42/42 43/43/43
f 41/41/41 43/43/43 34/34/34
f 34/34/34 43/43/43 33/33/33
f 57/57/57 67/67/67 62/62/62
f 57/57/57 62/62/62 56/56/56
f 68/68/68 69/69/69 70/70/70
f 68/68/68 70/70/70 61/61/61
f 61/61/61 70/70/70 60/60/60
f 84/84/84 94/94/94 89/89/89
f 84/84/84 89/89/89 83/83/83
f 95/95/95 96/96/96 97/97/97
f 95/95/95 97/97/97 88/88/88
f 88/88/88 97/97/97 87/87/87
f 111/111/111 121/121/121 116/116/116
f 111/111/111 116/116/116 110/110/110
f 122/122/122 123/123/123 124/124/124
f 122/122/122 124/124/124 115/115/115
f 115/115/115 124/124/124 114/114/114

