g NewMesh_tris_66
v 3.656395 0.04140483 2.737542
v 3.728926 0.1491268 2.461891
v 3.770503 0.01336083 2.311687
v 3.656395 0.04140483 2.737542
v 3.695866 0.1688858 2.588761
v 3.728926 0.1491268 2.461891
v 3.695866 0.1688858 2.588761
v 2.746971 0.04140483 2.493863
v 2.786442 0.1688858 2.345082
v 3.656395 0.04140483 2.737542
v 2.819502 0.1491268 2.218212
v 3.728926 0.1491268 2.461891
v 3.770503 0.01336083 2.311687
v 2.861079 0.01336083 2.068007
v 2.786442 0.1688858 2.345082
v 2.861079 0.01336083 2.068007
v 2.819502 0.1491268 2.218212
v 2.786442 0.1688858 2.345082
v 2.746971 0.04140483 2.493863
v 2.861079 0.01336083 2.068007
v 4.582414 0.07433183 0.2159447
v 2.633849 0.07433283 2.43904
v 3.32112 0.07369883 -0.1077765
v 3.896111 0.07433283 2.777262
v 3.937223 -0.07175717 2.900177
v 2.520186 -0.07175717 2.520483
v 3.259151 -0.07068617 -0.2186315
v 3.896111 0.07433283 2.777262
v 4.667657 -0.07175717 0.1741585
v 3.937223 -0.07175717 2.900177
v 4.582414 0.07433183 0.2159447
v 3.259151 -0.07068617 -0.2186315
v 3.32112 0.07369883 -0.1077765
v 2.520186 -0.07175717 2.520483
v 4.667657 -0.07175717 0.1741585
v 3.259151 -0.07068617 -0.2186315
v 3.937223 -0.07175717 2.900177
v -0.256417 0.2429089 -1.422555
v -0.2765822 0.3296875 -1.13116
v -0.3054554 0.1839138 -0.987498
v -0.256417 0.2429089 -1.422555
v -0.2619629 0.3586568 -1.259716
v -0.2765822 0.3296875 -1.13116
v -0.2619629 0.3586568 -1.259716
v 0.6766241 0.1588012 -1.328791
v 0.6710782 0.2745491 -1.165951
v -0.256417 0.2429089 -1.422555
v 0.6564589 0.2455798 -1.037395
v -0.2765822 0.3296875 -1.13116
v -0.3054554 0.1839138 -0.987498
v 0.6275857 0.09980617 -0.8937336
v 0.6710782 0.2745491 -1.165951
v 0.6275857 0.09980617 -0.8937336
v 0.6564589 0.2455798 -1.037395
v 0.6710782 0.2745491 -1.165951
v 0.6766241 0.1588012 -1.328791
v 0.6275857 0.09980617 -0.8937336
v -0.7770803 0.1083001 1.209523
v 0.7991467 0.1788143 -1.290396
v 0.5147232 -0.00767837 1.325505
v -0.4958967 0.2955542 -1.420539
v -0.5672321 0.1644365 -1.546475
v 0.8866047 0.03338245 -1.400374
v 0.5810446 -0.1654635 1.413149
v -0.4958967 0.2955542 -1.420539
v -0.8664967 -0.03485756 1.252709
v -0.5672321 0.1644365 -1.546475
v -0.7770803 0.1083001 1.209523
v 0.5810446 -0.1654635 1.413149
v 0.5147232 -0.00767837 1.325505
v 0.8866047 0.03338245 -1.400374
v -0.8664967 -0.03485756 1.252709
v 0.5810446 -0.1654635 1.413149
v -0.5672321 0.1644365 -1.546475
v 0.2111638 0.174743 0.2581775
v -0.02312792 0.06895328 0.141147
v 0.1043309 0.1970856 0.2081158
v 0.2111638 0.174743 0.2581775
v 0.3442591 0.03711949 0.3184929
v -0.02312792 0.06895328 0.141147
v 0.1043309 0.1970856 0.2081158
v 0.3875219 0.1051162 -0.7053106
v 0.5149808 0.2332485 -0.6383418
v -0.02312792 0.06895328 0.141147
v 0.6218136 0.2109059 -0.5882801
v 0.2111638 0.174743 0.2581775
v 0.3442591 0.03711949 0.3184929
v 0.7549089 0.07328235 -0.5279647
v 0.5149808 0.2332485 -0.6383418
v 0.7549089 0.07328235 -0.5279647
v 0.6218136 0.2109059 -0.5882801
v 0.5149808 0.2332485 -0.6383418
v 0.3875219 0.1051162 -0.7053106
v 0.7549089 0.07328235 -0.5279647
v 0.6186683 2.577247 3.253143
v 0.7071358 4.419844 2.922977
v 0.7340349 2.138439 3.117938
v 0.5769172 4.419844 3.408961
v 0.6975904 2.679919 2.726532
v 0.8914007 3.041371 2.466537
v 0.7766402 4.419844 2.663583
v 0.6073062 3.232022 3.580125
v 0.6186683 2.577247 3.253143
v 0.7340349 2.138439 3.117938
v 0.7071358 4.419844 2.922977
v 0.5769172 4.419844 3.408961
v 0.6975904 2.679919 2.726532
v 0.8914007 3.041371 2.466537
v 0.7766402 4.419844 2.663583
v 0.6073062 3.232022 3.580125

vn 0.2700561 0.6957375 0.6655966
vn 0.7063664 0.6934403 -0.1420815
vn 0.5280478 0.696725 -0.4855307
vn 0.2700561 0.6957375 0.6655966
vn 0.5495496 0.7527901 0.3623565
vn 0.7063664 0.6934403 -0.1420815
vn 0.5495496 0.7527901 0.3623565
vn -0.5679548 0.6924831 0.4448534
vn -0.6597754 0.7503676 0.04055904
vn 0.2700561 0.6957375 0.6655966
vn -0.5482461 0.6872892 -0.4765079
vn 0.7063664 0.6934403 -0.1420815
vn 0.5280478 0.696725 -0.4855307
vn -0.2132026 0.6957161 -0.6859475
vn -0.6597754 0.7503676 0.04055904
vn -0.2132026 0.6957161 -0.6859475
vn -0.5482461 0.6872892 -0.4765079
vn -0.6597754 0.7503676 0.04055904
vn -0.5679548 0.6924831 0.4448534
vn -0.2132026 0.6957161 -0.6859475
vn 0.5135044 0.8033539 -0.3015554
vn -0.4753584 0.8466755 0.239113
vn -0.2795386 0.8195817 -0.500144
vn 0.3302439 0.8280144 0.4531348
vn 0.3485005 0.6589406 0.6665919
vn -0.6176932 0.6914871 0.3745674
vn -0.3744798 0.6261576 -0.6838798
vn 0.3302439 0.8280144 0.4531348
vn 0.7154349 0.5834619 -0.3843504
vn 0.3485005 0.6589406 0.6665919
vn 0.5135044 0.8033539 -0.3015554
vn -0.3744798 0.6261576 -0.6838798
vn -0.2795386 0.8195817 -0.500144
vn -0.0002768807 -1 -0.0002637662
vn -0.0002768807 -1 -0.0002637662
vn -0.0002768807 -1 -0.0002637662
vn -0.0002768807 -1 -0.0002637662
vn -0.3117131 0.7703693 -0.5562067
vn -0.6170948 0.7239946 0.3082626
vn -0.3883251 0.6837622 0.6177969
vn -0.3117131 0.7703693 -0.5562067
vn -0.5355543 0.8183642 -0.2084743
vn -0.6170948 0.7239946 0.3082626
vn -0.5355543 0.8183642 -0.2084743
vn 0.5472092 0.6899801 -0.4738033
vn 0.7046334 0.7043181 -0.08618539
vn -0.3117131 0.7703693 -0.5562067
vn 0.6693283 0.6020107 0.4354108
vn -0.6170948 0.7239946 0.3082626
vn -0.3883251 0.6837622 0.6177969
vn 0.3723699 0.6140413 0.6959123
vn 0.7046334 0.7043181 -0.08618539
vn 0.3723699 0.6140413 0.6959123
vn 0.6693283 0.6020107 0.4354108
vn 0.7046334 0.7043181 -0.08618539
vn 0.5472092 0.6899801 -0.4738033
vn 0.3723699 0.6140413 0.6959123
vn -0.3936506 0.8055112 0.4429342
vn 0.500306 0.8306765 -0.2442753
vn 0.4191683 0.7495593 0.5123072
vn -0.3274561 0.8864746 -0.3270093
vn -0.3921114 0.7392377 -0.5475182
vn 0.6069334 0.6791884 -0.4127166
vn 0.525185 0.5341553 0.6624642
vn -0.3274561 0.8864746 -0.3270093
vn -0.5976704 0.5932215 0.5393314
vn -0.3921114 0.7392377 -0.5475182
vn -0.3936506 0.8055112 0.4429342
vn 0.525185 0.5341553 0.6624642
vn 0.4191683 0.7495593 0.5123072
vn -0.08125925 -0.9935381 -0.07924005
vn -0.08125925 -0.9935381 -0.07924005
vn -0.08125925 -0.9935381 -0.07924005
vn -0.08125925 -0.9935381 -0.07924005
vn 0.01841442 0.6556471 0.7548429
vn -0.7410794 0.6481234 0.1753207
vn -0.4703468 0.7331656 0.491164
vn 0.01841442 0.6556471 0.7548429
vn 0.3810708 0.6531903 0.6543145
vn -0.7410794 0.6481234 0.1753207
vn -0.4703468 0.7331656 0.491164
vn -0.3459581 0.6796202 -0.6468613
vn 0.0693086 0.778332 -0.6240158
vn -0.7410794 0.6481234 0.1753207
vn 0.5840182 0.698887 -0.4128918
vn 0.01841442 0.6556471 0.7548429
vn 0.3810708 0.6531903 0.6543145
vn 0.7290208 0.682106 -0.05709638
vn 0.0693086 0.778332 -0.6240158
vn 0.7290208 0.682106 -0.05709638
vn 0.5840182 0.698887 -0.4128918
vn 0.0693086 0.778332 -0.6240158
vn -0.3459581 0.6796202 -0.6468613
vn 0.7290208 0.682106 -0.05709638
vn 0.8875677 0.04831123 0.4581371
vn 0.9625654 0.01409966 0.2706827
vn 0.9781371 0.02911538 0.2059131
vn 0.9746494 0.003143445 0.2237154
vn 0.9970839 -0.01391668 0.07503443
vn 0.8546448 -0.05664406 0.5161141
vn 0.9650173 0.04336703 0.2585751
vn 0.9996371 0.02371334 -0.0127815
vn -0.8875677 -0.04831123 -0.4581371
vn -0.9781371 -0.02911538 -0.2059131
vn -0.9625654 -0.01409966 -0.2706827
vn -0.9746494 -0.003143445 -0.2237154
vn -0.9970839 0.01391668 -0.07503443
vn -0.8546448 0.05664406 -0.5161141
vn -0.9650173 -0.04336703 -0.2585751
vn -0.9996371 -0.02371334 0.0127815

vt 0.089307 0.027506
vt 0.089709 0.103889
vt 0.089307 0.144144
vt 0.089307 0.027506
vt 0.089426 0.070678
vt 0.089709 0.103889
vt 0.089426 0.070678
vt 0.384377 0.027506
vt 0.384496 0.070678
vt 0.089307 0.027506
vt 0.384779 0.103889
vt 0.089709 0.103889
vt 0.089307 0.144144
vt 0.384377 0.144144
vt 0.384496 0.070678
vt 0.384377 0.144144
vt 0.384779 0.103889
vt 0.384496 0.070678
vt 0.384377 0.027506
vt 0.384377 0.144144
vt 0.020843 0.714179
vt 0.421445 0.034623
vt 0.418235 0.733404
vt 0.011545 0.036309
vt 0.001936 0.003055
vt 0.433721 0.005297
vt 0.433721 0.747468
vt 0.011545 0.036309
vt 0.003449 0.746407
vt 0.001936 0.003055
vt 0.020843 0.714179
vt 0.433721 0.747468
vt 0.418235 0.733404
vt 0.148263 0.21602
vt 0.123522 0.230328
vt 0.14815 0.230302
vt 0.123502 0.215995
vt 0.089307 0.027506
vt 0.089709 0.103889
vt 0.089307 0.144144
vt 0.089307 0.027506
vt 0.089426 0.070678
vt 0.089709 0.103889
vt 0.089426 0.070678
vt 0.384377 0.027506
vt 0.384496 0.070678
vt 0.089307 0.027506
vt 0.384779 0.103889
vt 0.089709 0.103889
vt 0.089307 0.144144
vt 0.384377 0.144144
vt 0.384496 0.070678
vt 0.384377 0.144144
vt 0.384779 0.103889
vt 0.384496 0.070678
vt 0.384377 0.027506
vt 0.384377 0.144144
vt 0.020843 0.714179
vt 0.421445 0.034623
vt 0.418235 0.733404
vt 0.011545 0.036309
vt 0.001936 0.003055
vt 0.433721 0.005297
vt 0.433721 0.747468
vt 0.011545 0.036309
vt 0.003449 0.746407
vt 0.001936 0.003055
vt 0.020843 0.714179
vt 0.433721 0.747468
vt 0.418235 0.733404
vt 0.148263 0.21602
vt 0.123522 0.230328
vt 0.14815 0.230302
vt 0.123502 0.215995
vt 0.089709 0.103889
vt 0.089307 0.027506
vt 0.089426 0.070678
vt 0.089709 0.103889
vt 0.089307 0.144144
vt 0.089307 0.027506
vt 0.089426 0.070678
vt 0.384377 0.027506
vt 0.384496 0.070678
vt 0.089307 0.027506
vt 0.384779 0.103889
vt 0.089709 0.103889
vt 0.089307 0.144144
vt 0.384377 0.144144
vt 0.384496 0.070678
vt 0.384377 0.144144
vt 0.384779 0.103889
vt 0.384496 0.070678
vt 0.384377 0.027506
vt 0.384377 0.144144
vt 0.609957 0.340976
vt 0.770891 0.003531
vt 0.650504 0.448369
vt 0.512793 0.002627
vt 0.801869 0.321676
vt 0.894025 0.211421
vt 0.903011 0.003538
vt 0.516624 0.186201
vt 0.609957 0.340976
vt 0.650504 0.448369
vt 0.770891 0.003531
vt 0.512793 0.002627
vt 0.801869 0.321676
vt 0.894025 0.211421
vt 0.903011 0.003538
vt 0.516624 0.186201

vt1 0.8665822 0.3552366
vt1 0.7975476 0.3864706
vt1 0.7567285 0.3552366
vt1 0.8665822 0.3552366
vt1 0.8303959 0.3893039
vt1 0.7975476 0.3864706
vt1 0.7568232 0.2669638
vt1 0.9908504 0.2172644
vt1 0.9909452 0.2669638
vt1 0.7567285 0.2172644
vt1 0.9911697 0.2999333
vt1 0.7570478 0.2999333
vt1 0.7567285 0.3513303
vt1 0.9908504 0.3513303
vt1 0.9066755 0.389303
vt1 0.9803421 0.3552366
vt1 0.9395241 0.3864719
vt1 0.9066755 0.389303
vt1 0.8704885 0.3552366
vt1 0.9803421 0.3552366
vt1 0.7463454 0.6144386
vt1 0.1124744 0.3006594
vt1 0.7338884 0.2590918
vt1 0.05487701 0.6053944
vt1 0.00390625 0.6144386
vt1 0.07694645 0.2625594
vt1 0.7528223 0.2172644
vt1 0.04012094 0.00390625
vt1 0.6829792 0.2133582
vt1 0.00390625 0.03626271
vt1 0.6781656 0.1703022
vt1 0.9965191 0.02921659
vt1 0.9559504 0.00390625
vt1 0.7093865 0.6183448
vt1 0.007601044 0.9831467
vt1 0.00390625 0.6195511
vt1 0.7093866 0.9831466
vt1 0.8644823 0.4856905
vt1 0.7956166 0.5168481
vt1 0.7548972 0.4856905
vt1 0.8644823 0.4856905
vt1 0.8283846 0.5196745
vt1 0.7956166 0.5168481
vt1 0.7549918 0.397624
vt1 0.9884468 0.3480462
vt1 0.9885412 0.397624
vt1 0.7548972 0.3480462
vt1 0.9887652 0.4305128
vt1 0.7552158 0.4305128
vt1 0.7548972 0.4817843
vt1 0.9884468 0.4817843
vt1 0.7909959 0.557564
vt1 0.8644823 0.5235808
vt1 0.823764 0.5547398
vt1 0.7909959 0.557564
vt1 0.7548972 0.5235808
vt1 0.8644823 0.5235808
vt1 0.7445301 0.6129549
vt1 0.1122088 0.2999428
vt1 0.7321035 0.2584766
vt1 0.05475234 0.603933
vt1 0.00390625 0.6129549
vt1 0.07676774 0.261936
vt1 0.750991 0.2167515
vt1 0.04003234 0.00390625
vt1 0.6813191 0.2128453
vt1 0.00390625 0.03618354
vt1 0.6765171 0.1698946
vt1 0.994093 0.02915483
vt1 0.9536235 0.00390625
vt1 0.7076617 0.6168611
vt1 0.00759201 0.980771
vt1 0.00390625 0.6180644
vt1 0.7076617 0.9807709
vt1 0.7936803 0.5926988
vt1 0.8564013 0.5614702
vt1 0.8232878 0.5959576
vt1 0.7936803 0.5926988
vt1 0.7548972 0.5614702
vt1 0.8564013 0.5614702
vt1 0.9886279 0.2963291
vt1 0.7551544 0.3441399
vt1 0.7550785 0.2963291
vt1 0.9887039 0.3441399
vt1 0.7548972 0.2665432
vt1 0.9884467 0.2665432
vt1 0.9888092 0.2167515
vt1 0.7552598 0.2167515
vt1 0.901503 0.5201771
vt1 0.9698927 0.4856905
vt1 0.9311108 0.5169204
vt1 0.901503 0.5201771
vt1 0.8683886 0.4856905
vt1 0.9698927 0.4856905
vt1 0.7966272 0.4105549
vt1 0.04425449 0.1181332
vt1 0.9970678 0.3730284
vt1 0.00390625 0.3310558
vt1 0.79697 0.1655995
vt1 0.6642888 0.00390625
vt1 0.06247041 0.00390625
vt1 0.4935238 0.4973305
vt1 0.2043469 0.9078854
vt1 0.00390625 0.8703589
vt1 0.9567196 0.6154637
vt1 0.9970678 0.8283863
vt1 0.2040041 0.66293
vt1 0.3366853 0.5012367
vt1 0.9385037 0.5012367
vt1 0.5074503 0.994661

vt2 0.8665822 0.3552366
vt2 0.7975476 0.3864706
vt2 0.7567285 0.3552366
vt2 0.8665822 0.3552366
vt2 0.8303959 0.3893039
vt2 0.7975476 0.3864706
vt2 0.7568232 0.2669638
vt2 0.9908504 0.2172644
vt2 0.9909452 0.2669638
vt2 0.7567285 0.2172644
vt2 0.9911697 0.2999333
vt2 0.7570478 0.2999333
vt2 0.7567285 0.3513303
vt2 0.9908504 0.3513303
vt2 0.9066755 0.389303
vt2 0.9803421 0.3552366
vt2 0.9395241 0.3864719
vt2 0.9066755 0.389303
vt2 0.8704885 0.3552366
vt2 0.9803421 0.3552366
vt2 0.7463454 0.6144386
vt2 0.1124744 0.3006594
vt2 0.7338884 0.2590918
vt2 0.05487701 0.6053944
vt2 0.00390625 0.6144386
vt2 0.07694645 0.2625594
vt2 0.7528223 0.2172644
vt2 0.04012094 0.00390625
vt2 0.6829792 0.2133582
vt2 0.00390625 0.03626271
vt2 0.6781656 0.1703022
vt2 0.9965191 0.02921659
vt2 0.9559504 0.00390625
vt2 0.7093865 0.6183448
vt2 0.007601044 0.9831467
vt2 0.00390625 0.6195511
vt2 0.7093866 0.9831466
vt2 0.8644823 0.4856905
vt2 0.7956166 0.5168481
vt2 0.7548972 0.4856905
vt2 0.8644823 0.4856905
vt2 0.8283846 0.5196745
vt2 0.7956166 0.5168481
vt2 0.7549918 0.397624
vt2 0.9884468 0.3480462
vt2 0.9885412 0.397624
vt2 0.7548972 0.3480462
vt2 0.9887652 0.4305128
vt2 0.7552158 0.4305128
vt2 0.7548972 0.4817843
vt2 0.9884468 0.4817843
vt2 0.7909959 0.557564
vt2 0.8644823 0.5235808
vt2 0.823764 0.5547398
vt2 0.7909959 0.557564
vt2 0.7548972 0.5235808
vt2 0.8644823 0.5235808
vt2 0.7445301 0.6129549
vt2 0.1122088 0.2999428
vt2 0.7321035 0.2584766
vt2 0.05475234 0.603933
vt2 0.00390625 0.6129549
vt2 0.07676774 0.261936
vt2 0.750991 0.2167515
vt2 0.04003234 0.00390625
vt2 0.6813191 0.2128453
vt2 0.00390625 0.03618354
vt2 0.6765171 0.1698946
vt2 0.994093 0.02915483
vt2 0.9536235 0.00390625
vt2 0.7076617 0.6168611
vt2 0.00759201 0.980771
vt2 0.00390625 0.6180644
vt2 0.7076617 0.9807709
vt2 0.7936803 0.5926988
vt2 0.8564013 0.5614702
vt2 0.8232878 0.5959576
vt2 0.7936803 0.5926988
vt2 0.7548972 0.5614702
vt2 0.8564013 0.5614702
vt2 0.9886279 0.2963291
vt2 0.7551544 0.3441399
vt2 0.7550785 0.2963291
vt2 0.9887039 0.3441399
vt2 0.7548972 0.2665432
vt2 0.9884467 0.2665432
vt2 0.9888092 0.2167515
vt2 0.7552598 0.2167515
vt2 0.901503 0.5201771
vt2 0.9698927 0.4856905
vt2 0.9311108 0.5169204
vt2 0.901503 0.5201771
vt2 0.8683886 0.4856905
vt2 0.9698927 0.4856905
vt2 0.7966272 0.4105549
vt2 0.04425449 0.1181332
vt2 0.9970678 0.3730284
vt2 0.00390625 0.3310558
vt2 0.79697 0.1655995
vt2 0.6642888 0.00390625
vt2 0.06247041 0.00390625
vt2 0.4935238 0.4973305
vt2 0.2043469 0.9078854
vt2 0.00390625 0.8703589
vt2 0.9567196 0.6154637
vt2 0.9970678 0.8283863
vt2 0.2040041 0.66293
vt2 0.3366853 0.5012367
vt2 0.9385037 0.5012367
vt2 0.5074503 0.994661


usemtl MEP_House_Props_01_Snow
usemap MEP_House_Props_01_Snow
f 1/1/1 3/3/3 2/2/2
f 4/4/4 6/6/6 5/5/5
f 15/15/15 17/17/17 16/16/16
f 18/18/18 20/20/20 19/19/19
f 38/38/38 40/40/40 39/39/39
f 41/41/41 43/43/43 42/42/42
f 52/52/52 54/54/54 53/53/53
f 55/55/55 57/57/57 56/56/56
f 75/75/75 77/77/77 76/76/76
f 78/78/78 80/80/80 79/79/79
f 89/89/89 91/91/91 90/90/90
f 92/92/92 94/94/94 93/93/93
f 8/8/8 10/10/10 7/7/7
f 8/8/8 7/7/7 9/9/9
f 9/9/9 7/7/7 11/11/11
f 13/13/13 14/14/14 11/11/11
f 13/13/13 11/11/11 12/12/12
f 12/12/12 11/11/11 7/7/7
f 24/24/24 21/21/21 22/22/22
f 22/22/22 21/21/21 23/23/23
f 22/22/22 23/23/23 26/26/26
f 26/26/26 23/23/23 27/27/27
f 32/32/32 33/33/33 31/31/31
f 32/32/32 31/31/31 29/29/29
f 29/29/29 31/31/31 28/28/28
f 29/29/29 28/28/28 30/30/30
f 34/34/34 36/36/36 35/35/35
f 34/34/34 35/35/35 37/37/37
f 45/45/45 47/47/47 44/44/44
f 45/45/45 44/44/44 46/46/46
f 46/46/46 44/44/44 48/48/48
f 50/50/50 51/51/51 48/48/48
f 50/50/50 48/48/48 49/49/49
f 49/49/49 48/48/48 44/44/44
f 61/61/61 58/58/58 59/59/59
f 59/59/59 58/58/58 60/60/60
f 59/59/59 60/60/60 63/63/63
f 63/63/63 60/60/60 64/64/64
f 69/69/69 70/70/70 68/68/68
f 69/69/69 68/68/68 66/66/66
f 66/66/66 68/68/68 65/65/65
f 66/66/66 65/65/65 67/67/67
f 71/71/71 73/73/73 72/72/72
f 71/71/71 72/72/72 74/74/74
f 82/82/82 84/84/84 81/81/81
f 82/82/82 81/81/81 83/83/83
f 83/83/83 81/81/81 85/85/85
f 87/87/87 88/88/88 85/85/85
f 87/87/87 85/85/85 86/86/86
f 86/86/86 85/85/85 81/81/81
f 100/100/100 101/101/101 96/96/96
f 100/100/100 96/96/96 99/99/99
f 99/99/99 96/96/96 97/97/97
f 98/98/98 102/102/102 95/95/95
f 98/98/98 95/95/95 96/96/96
f 96/96/96 95/95/95 97/97/97
f 107/107/107 104/104/104 105/105/105
f 107/107/107 105/105/105 108/108/108
f 108/108/108 105/105/105 109/109/109
f 105/105/105 104/104/104 103/103/103
f 105/105/105 103/103/103 106/106/106
f 106/106/106 103/103/103 110/110/110
f 25/25/25 24/24/24 22/22/22
f 25/25/25 22/22/22 26/26/26
f 62/62/62 61/61/61 59/59/59
f 62/62/62 59/59/59 63/63/63

