g NewMesh_tris_48
v -0.1332973 -0.1481376 0.006245901
v 0.8047059 4.011925 0.3421391
v 0.6800891 3.617116 1.510041
v 1.143465 2.659581 -0.4837323
v 0.2297966 2.091773 1.240398
v 0.2787122 1.289227 0.1720318
v 1.286658 3.707336 1.581084
v 2.427164 3.502363 1.401282
v 2.676854 2.334789 1.277451
v 0.1658324 4.196488 -0.04706323
v 0.08556683 0.8833364 0.1565193
v -0.6634549 3.995249 0.3966125
v 0.8706871 3.176782 0.1658023
v 0.1954961 -0.09092077 0.104727
v -0.1567356 -0.01919124 0.05313468
v 0.5548098 3.27475 0.3504529
v 0.7579359 3.234065 0.1126614
v 1.235482 0.7633354 -0.5401429
v 0.1088261 0.6427367 0.1697724
v 2.441025 2.306537 -0.6310038
v 1.839095 3.291367 -0.838096
v 0.7006336 3.083307 -1.15673
v 0.8047059 4.011925 0.3421391
v -0.1332973 -0.1481376 0.006245901
v 0.6800891 3.617116 1.510041
v 1.143465 2.659581 -0.4837323
v 0.2297966 2.091773 1.240398
v 1.286658 3.707336 1.581084
v 0.2787122 1.289227 0.1720318
v 2.427164 3.502363 1.401282
v 2.676854 2.334789 1.277451
v 0.1658324 4.196488 -0.04706323
v -0.6634549 3.995249 0.3966125
v 0.08556683 0.8833364 0.1565193
v 0.8706871 3.176782 0.1658023
v 0.1954961 -0.09092077 0.104727
v 0.5548098 3.27475 0.3504529
v -0.1567356 -0.01919124 0.05313468
v 0.7579359 3.234065 0.1126614
v 1.235482 0.7633354 -0.5401429
v 2.441025 2.306537 -0.6310038
v 0.1088261 0.6427367 0.1697724
v 1.839095 3.291367 -0.838096
v 0.7006336 3.083307 -1.15673
v -0.2460791 0.9162154 -0.4936306
v -0.4047548 5.190834 -0.5290517
v 0.7475688 4.910829 -0.8884221
v -1.247719 3.850042 -0.8716065
v 0.7051761 3.306108 -0.7296317
v -0.2846733 2.416159 -0.6028731
v 0.6012148 5.127248 -1.447757
v 0.04563854 5.134728 -2.480412
v -0.1149016 4.03381 -2.931095
v -0.5554102 5.200346 0.2265368
v -0.2178695 1.980777 -0.5119163
v 0.154554 4.888456 0.7955176
v -0.5629368 4.371246 -0.7192285
v -0.2694773 1.048257 -0.8147146
v -0.198638 1.042299 -0.458596
v -0.2840994 4.424213 -0.4683972
v -0.5758343 4.398707 -0.5854459
v -1.264375 2.015676 -1.363768
v -0.2048506 1.752593 -0.5917111
v -1.821783 3.748193 -2.092291
v -1.843179 4.564452 -1.250649
v -1.740838 4.100043 -0.1484872
v -0.4047548 5.190834 -0.5290517
v -0.2460791 0.9162154 -0.4936306
v 0.7475688 4.910829 -0.8884221
v -1.247719 3.850042 -0.8716065
v 0.7051761 3.306108 -0.7296317
v 0.6012148 5.127248 -1.447757
v -0.2846733 2.416159 -0.6028731
v 0.04563854 5.134728 -2.480412
v -0.1149016 4.03381 -2.931095
v -0.5554102 5.200346 0.2265368
v 0.154554 4.888456 0.7955176
v -0.2178695 1.980777 -0.5119163
v -0.5629368 4.371246 -0.7192285
v -0.2694773 1.048257 -0.8147146
v -0.2840994 4.424213 -0.4683972
v -0.198638 1.042299 -0.458596
v -0.5758343 4.398707 -0.5854459
v -1.264375 2.015676 -1.363768
v -1.821783 3.748193 -2.092291
v -0.2048506 1.752593 -0.5917111
v -1.843179 4.564452 -1.250649
v -1.740838 4.100043 -0.1484872

vn -0.898716 0.2326719 -0.3717167
vn -0.9414471 0.2320448 -0.244607
vn -0.9745966 0.2220924 -0.02891816
vn -0.7263415 0.2164577 -0.6523604
vn -0.7019447 0.5536531 -0.4480422
vn -0.2540184 0.5111465 -0.8210991
vn -0.1664416 0.5473185 -0.8202072
vn 0.1483455 0.3662146 -0.9186297
vn 0.3493502 0.172392 -0.920997
vn 0.2597012 0.05297024 0.9642352
vn 0.1282028 0.05773977 0.9900657
vn 0.4631047 0.04317 0.8852516
vn -0.20122 0.06491893 0.9773925
vn -0.1055336 -0.06119353 0.9925311
vn -0.1557215 -0.05537137 0.9862478
vn 0.7026487 -0.1261562 0.7002639
vn 0.743289 -0.1273109 0.6567446
vn 0.5241166 -0.3640707 0.7699054
vn 0.2030991 0.07870185 0.9759902
vn 0.2075843 0.1724254 0.9629009
vn -0.08556747 0.4026543 0.911344
vn -0.317017 0.5111043 0.7989197
vn 0.9414471 -0.2320448 0.244607
vn 0.898716 -0.2326719 0.3717167
vn 0.9745966 -0.2220924 0.02891816
vn 0.7263415 -0.2164577 0.6523604
vn 0.7019447 -0.5536531 0.4480422
vn 0.1664416 -0.5473185 0.8202072
vn 0.2540184 -0.5111465 0.8210991
vn -0.1483455 -0.3662146 0.9186297
vn -0.3493502 -0.172392 0.920997
vn -0.2597012 -0.05297024 -0.9642352
vn -0.4631047 -0.04317 -0.8852516
vn -0.1282028 -0.05773977 -0.9900657
vn 0.20122 -0.06491893 -0.9773925
vn 0.1055336 0.06119353 -0.9925311
vn -0.7026624 0.1261307 -0.7002547
vn 0.1557215 0.05537137 -0.9862478
vn -0.743289 0.1273109 -0.6567446
vn -0.5241166 0.3640707 -0.7699054
vn -0.2075843 -0.1724254 -0.9629009
vn -0.2030991 -0.07870185 -0.9759902
vn 0.08556747 -0.4026543 -0.911344
vn 0.317017 -0.5111043 -0.7989197
vn -0.04614322 0.006581916 0.9989132
vn 0.08783669 0.01153276 0.9960682
vn 0.3018933 0.01911165 0.9531502
vn -0.3683034 -0.005957578 0.9296866
vn -0.197264 0.3498438 0.9158036
vn -0.7004059 0.3563122 0.6184441
vn -0.7311484 0.4090606 0.5459776
vn -0.9257749 0.2844666 0.2490374
vn -0.9905384 0.1354738 0.02191958
vn 0.8124056 0.2099557 -0.5439814
vn 0.8819212 0.1912897 -0.4308401
vn 0.6683703 0.2321508 -0.7066732
vn 0.9836825 0.131322 -0.1229763
vn 0.9693183 0.02923924 -0.2440639
vn 0.9805709 0.0242257 -0.194663
vn 0.4181708 0.09447277 -0.9034424
vn 0.3633551 0.09662043 -0.926627
vn 0.5537369 -0.1650144 -0.8161774
vn 0.8420749 0.2250481 -0.4901665
vn 0.8248876 0.315754 -0.468892
vn 0.8696443 0.4758924 -0.1313213
vn 0.8403656 0.5229945 0.1423457
vn -0.08783669 -0.01153276 -0.9960682
vn 0.04614322 -0.006581916 -0.9989132
vn -0.3018933 -0.01911165 -0.9531502
vn 0.3683034 0.005957578 -0.9296866
vn 0.197264 -0.3498438 -0.9158036
vn 0.7311484 -0.4090606 -0.5459776
vn 0.7004059 -0.3563122 -0.6184441
vn 0.9257749 -0.2844666 -0.2490374
vn 0.9905384 -0.1354738 -0.02191958
vn -0.8124056 -0.2099557 0.5439814
vn -0.6683703 -0.2321508 0.7066732
vn -0.8819212 -0.1912897 0.4308401
vn -0.9836825 -0.131322 0.1229763
vn -0.9693183 -0.02923924 0.2440639
vn -0.4181565 -0.09449936 0.9034462
vn -0.9805709 -0.0242257 0.194663
vn -0.3633551 -0.09662043 0.926627
vn -0.5537369 0.1650144 0.8161774
vn -0.8248876 -0.315754 0.468892
vn -0.8420749 -0.2250481 0.4901665
vn -0.8696443 -0.4758924 0.1313213
vn -0.8403656 -0.5229945 -0.1423457

vt 0.802418 0.147402
vt 0.793543 0.997401
vt 0.551475 0.918781
vt 0.99973 0.672131
vt 0.013389 0.376593
vt 0.285138 0.144771
vt 0.017788 0.832453
vt 0.270822 0.994697
vt 0.59052 0.800243
vt 0.793543 0.997401
vt 0.802418 0.147402
vt 0.551475 0.918781
vt 0.99973 0.672131
vt 0.050836 0.107831
vt 0.055148 0.019504
vt 0.957324 0.019504
vt 0.953012 0.107831
vt 0.013389 0.376593
vt 0.285138 0.144771
vt 0.017788 0.832453
vt 0.270822 0.994697
vt 0.59052 0.800243
vt 0.793543 0.997401
vt 0.802418 0.147402
vt 0.551475 0.918781
vt 0.99973 0.672131
vt 0.013389 0.376593
vt 0.017788 0.832453
vt 0.285138 0.144771
vt 0.270822 0.994697
vt 0.59052 0.800243
vt 0.793543 0.997401
vt 0.551475 0.918781
vt 0.802418 0.147402
vt 0.99973 0.672131
vt 0.050836 0.107831
vt 0.957324 0.019504
vt 0.055148 0.019504
vt 0.953012 0.107831
vt 0.013389 0.376593
vt 0.017788 0.832453
vt 0.285138 0.144771
vt 0.270822 0.994697
vt 0.59052 0.800243
vt 0.802418 0.147402
vt 0.793543 0.997401
vt 0.551475 0.918781
vt 0.99973 0.672131
vt 0.013389 0.376593
vt 0.285138 0.144771
vt 0.017788 0.832453
vt 0.270822 0.994697
vt 0.59052 0.800243
vt 0.793543 0.997401
vt 0.802418 0.147402
vt 0.551475 0.918781
vt 0.99973 0.672131
vt 0.050836 0.107831
vt 0.055148 0.019504
vt 0.957324 0.019504
vt 0.953012 0.107831
vt 0.013389 0.376593
vt 0.285138 0.144771
vt 0.017788 0.832453
vt 0.270822 0.994697
vt 0.59052 0.800243
vt 0.793543 0.997401
vt 0.802418 0.147402
vt 0.551475 0.918781
vt 0.99973 0.672131
vt 0.013389 0.376593
vt 0.017788 0.832453
vt 0.285138 0.144771
vt 0.270822 0.994697
vt 0.59052 0.800243
vt 0.793543 0.997401
vt 0.551475 0.918781
vt 0.802418 0.147402
vt 0.99973 0.672131
vt 0.050836 0.107831
vt 0.957324 0.019504
vt 0.055148 0.019504
vt 0.953012 0.107831
vt 0.013389 0.376593
vt 0.017788 0.832453
vt 0.285138 0.144771
vt 0.270822 0.994697
vt 0.59052 0.800243




usemtl MEP_Brush_02
usemap MEP_Brush_02
f 1/1/1 3/3/3 2/2/2
f 1/1/1 2/2/2 4/4/4
f 8/8/8 9/9/9 6/6/6
f 8/8/8 6/6/6 7/7/7
f 7/7/7 6/6/6 5/5/5
f 10/10/10 12/12/12 11/11/11
f 10/10/10 11/11/11 13/13/13
f 16/16/16 15/15/15 14/14/14
f 16/16/16 14/14/14 17/17/17
f 21/21/21 22/22/22 19/19/19
f 21/21/21 19/19/19 20/20/20
f 20/20/20 19/19/19 18/18/18
f 23/23/23 25/25/25 24/24/24
f 23/23/23 24/24/24 26/26/26
f 28/28/28 27/27/27 29/29/29
f 28/28/28 29/29/29 30/30/30
f 30/30/30 29/29/29 31/31/31
f 34/34/34 33/33/33 32/32/32
f 34/34/34 32/32/32 35/35/35
f 36/36/36 38/38/38 37/37/37
f 36/36/36 37/37/37 39/39/39
f 41/41/41 40/40/40 42/42/42
f 41/41/41 42/42/42 43/43/43
f 43/43/43 42/42/42 44/44/44
f 45/45/45 47/47/47 46/46/46
f 45/45/45 46/46/46 48/48/48
f 52/52/52 53/53/53 50/50/50
f 52/52/52 50/50/50 51/51/51
f 51/51/51 50/50/50 49/49/49
f 54/54/54 56/56/56 55/55/55
f 54/54/54 55/55/55 57/57/57
f 60/60/60 59/59/59 58/58/58
f 60/60/60 58/58/58 61/61/61
f 65/65/65 66/66/66 63/63/63
f 65/65/65 63/63/63 64/64/64
f 64/64/64 63/63/63 62/62/62
f 67/67/67 69/69/69 68/68/68
f 67/67/67 68/68/68 70/70/70
f 72/72/72 71/71/71 73/73/73
f 72/72/72 73/73/73 74/74/74
f 74/74/74 73/73/73 75/75/75
f 78/78/78 77/77/77 76/76/76
f 78/78/78 76/76/76 79/79/79
f 80/80/80 82/82/82 81/81/81
f 80/80/80 81/81/81 83/83/83
f 85/85/85 84/84/84 86/86/86
f 85/85/85 86/86/86 87/87/87
f 87/87/87 86/86/86 88/88/88

