g NewMesh_tris_83
v -4.773653 -0.1390163 -7.25927
v -5.572716 -0.06874485 -7.127601
v -5.072039 0.5761241 -7.442339
v -4.869792 0.5633411 -7.87849
v -4.56866 -0.1570468 -7.971802
v -4.939369 2.494824 -7.678521
v -5.140953 2.50695 -7.39865
v -5.549332 0.5872567 -7.500327
v -5.572716 -0.06874485 -7.127601
v -4.680007 5.587805 -7.754749
v -4.914763 5.593037 -7.725054
v -4.635837 5.580013 -7.987143
v -4.486536 8.374945 -8.114638
v -4.486536 8.374945 -8.114638
v -5.469599 2.509868 -7.503976
v -5.015678 5.58848 -7.939098
v -4.486536 8.374945 -8.114638
v -5.471131 2.499545 -7.848942
v -4.843292 5.580432 -8.101076
v -4.486536 8.374945 -8.114638
v -5.641854 0.5813542 -7.972116
v -5.666184 -0.177755 -7.812351
v -5.572716 -0.06874485 -7.127601
v -5.237622 -0.1482441 -8.261172
v -5.222032 0.5665791 -8.205746
v -5.143431 2.490247 -7.956818
v -4.843292 5.580432 -8.101076
v -5.143431 2.490247 -7.956818
v -4.486536 8.374945 -8.114638
v -5.222032 0.5665791 -8.205746
v -5.237622 -0.1482441 -8.261172
v -4.869792 0.5633411 -7.87849
v -6.233297 4.791561 -7.287064
v -4.996318 2.743301 -7.613607
v -6.326665 4.76096 -7.127757
v -8.237949 8.431033 -6.816716
v -6.345517 4.74556 -7.429624
v -6.233297 4.791561 -7.287064
v -5.061705 2.711528 -7.876673
v -4.996318 2.743301 -7.613607
v -6.326665 4.76096 -7.127757
v -5.211089 2.66694 -7.463502
v -6.326665 4.76096 -7.127757
v -6.502414 4.69129 -7.265142
v -8.237949 8.431033 -6.816716
v -5.40921 2.587974 -7.633798
v -5.316885 2.615531 -7.889153
v -6.502414 4.69129 -7.265142
v -6.345517 4.74556 -7.429624
v -6.345517 4.74556 -7.429624
v -6.502414 4.69129 -7.265142
v -8.237949 8.431033 -6.816716
v -1.037223 -0.1847813 -0.3732802
v -0.1285281 -0.2242597 -0.9284675
v -0.4094141 0.5763233 -0.3417545
v 0.1667784 0.5270354 -0.5265352
v 0.430229 -0.370876 -0.228768
v -0.1532513 2.402092 -0.3116726
v -0.1882106 2.412243 0.02971351
v 0.5692266 0.5072883 -0.09630294
v 0.1762082 -0.2659788 0.4673058
v -0.02961581 5.353717 0.08803391
v 0.1574895 5.335392 -0.05370891
v 0.04726286 5.352185 0.3105698
v 0.2192895 8.372704 0.3058614
v 0.2192895 8.372704 0.3058614
v 0.1812818 2.373215 -0.3832498
v 0.3500063 5.322536 0.08122512
v 0.2192895 8.372704 0.3058614
v 0.3530756 2.365519 -0.08610118
v 0.2818821 5.332915 0.3063625
v 0.2192895 8.372704 0.3058614
v 0.2260523 0.5543336 0.3590672
v 0.1247171 2.38964 0.1691246
v 0.1247171 2.38964 0.1691246
v 0.2818821 5.332915 0.3063625
v 0.2192895 8.372704 0.3058614
v -0.3599072 0.5906565 0.205111
v 0.2260523 0.5543336 0.3590672
v 0.1762082 -0.2659788 0.4673058
v -0.8211021 -0.1749897 0.503779

vn 0.6481583 0.3974733 0.6495427
vn -0.5327161 0.3547211 0.7683662
vn 0.4817173 0.265072 0.8352757
vn 0.9400678 0.2102826 -0.2684286
vn 0.8343017 0.3981321 -0.3813546
vn 0.9993261 -0.02876188 0.02280735
vn 0.286852 0.0322183 0.957433
vn -0.7374243 0.1791534 0.6512368
vn -0.5327161 0.3547211 0.7683662
vn 0.6868309 0.02719934 0.7263082
vn -0.4672528 0.1826476 0.8650518
vn 0.9026655 -0.08508547 -0.4218478
vn 0.1171871 0.9902349 -0.07551093
vn 0.1171871 0.9902349 -0.07551093
vn -0.7969972 0.1105523 0.5937791
vn -0.9668493 0.1676001 -0.1926468
vn 0.1171871 0.9902349 -0.07551093
vn -0.8228477 0.1110286 -0.55731
vn -0.1216423 0.00138605 -0.992573
vn 0.1171871 0.9902349 -0.07551093
vn -0.9000443 0.05985313 -0.431669
vn -0.9647635 -0.006814208 -0.2630308
vn -0.5327161 0.3547211 0.7683662
vn -0.09538583 0.08579265 -0.9917365
vn 0.122705 0.08851337 -0.9884883
vn 0.2938714 0.02507537 -0.9555161
vn -0.1216423 0.00138605 -0.992573
vn 0.2938714 0.02507537 -0.9555161
vn 0.1171871 0.9902349 -0.07551093
vn 0.122705 0.08851337 -0.9884883
vn -0.09538583 0.08579265 -0.9917365
vn 0.9400678 0.2102826 -0.2684286
vn 0.8538194 0.5172622 -0.05858567
vn 0.8515466 0.4520028 0.2656353
vn 0.2006623 0.002811044 0.9796566
vn -0.4518523 0.8852884 0.1099726
vn -0.05257378 0.1969699 -0.978999
vn 0.8538194 0.5172622 -0.05858567
vn 0.4750552 0.4445494 -0.7594067
vn 0.8515466 0.4520028 0.2656353
vn 0.2006623 0.002811044 0.9796566
vn 0.05575895 -0.1316592 0.9897257
vn 0.2006623 0.002811044 0.9796566
vn -0.8961979 -0.4352146 0.08612501
vn -0.4518523 0.8852884 0.1099726
vn -0.8519247 -0.4796126 0.2102285
vn -0.4840891 -0.06907377 -0.8722882
vn -0.8961979 -0.4352146 0.08612501
vn -0.05257378 0.1969699 -0.978999
vn -0.05257378 0.1969699 -0.978999
vn -0.8961979 -0.4352146 0.08612501
vn -0.4518523 0.8852884 0.1099726
vn -0.75069 0.5902812 -0.2967028
vn 0.1438064 0.3527249 -0.9246107
vn -0.7251877 0.4219046 -0.54415
vn 0.360424 0.1708531 -0.917008
vn 0.9704114 -0.09910348 -0.2201827
vn -0.723115 0.1172528 -0.680703
vn -0.8698603 0.08119924 0.4865694
vn 0.998648 0.01305861 -0.05031646
vn 0.5044293 0.08499028 0.8592601
vn -0.9527283 0.1028044 -0.2859021
vn -0.007550852 0.1287767 -0.9916449
vn -0.5683825 0.01509534 0.822626
vn 0.01924238 0.9984549 0.05212846
vn 0.01924238 0.9984549 0.05212846
vn 0.3939712 0.09435719 -0.9142668
vn 0.9472663 0.05437641 -0.3158007
vn 0.01924238 0.9984549 0.05212846
vn 0.994676 0.05714596 0.08575635
vn 0.6008528 -0.01446569 0.7992289
vn 0.01924238 0.9984549 0.05212846
vn 0.3503191 0.1048113 0.9307477
vn 0.2109012 0.03241976 0.9769696
vn 0.2109012 0.03241976 0.9769696
vn 0.6008528 -0.01446569 0.7992289
vn 0.01924238 0.9984549 0.05212846
vn -0.6445336 0.3434516 0.6830941
vn 0.3503191 0.1048113 0.9307477
vn 0.5044293 0.08499028 0.8592601
vn -0.5104719 0.5615319 0.6512301

vt 0.6 0
vt 0.4 0
vt 0.6 0.238785
vt 0.8 0.239928
vt 0.8 0
vt 0.8 0.94415
vt 0.6 0.94415
vt 0.4 0.239928
vt 0.4 0
vt 0.599999 1.888299
vt 0.399999 1.888299
vt 0.8 1.888299
vt 0.499999 2.832449
vt 0.499999 2.832449
vt 0.4 0.94415
vt 0.199999 1.888299
vt 0.499999 2.832449
vt 0.2 0.94415
vt 0 1.888299
vt 0.499999 2.832449
vt 0.2 0.241775
vt 0.2 0
vt 0.4 0
vt 0 1E-06
vt 0 0.241776
vt 0 0.94415
vt 1 1.888299
vt 1 0.94415
vt 0.499999 2.832449
vt 1 0.241775
vt 1 0
vt 0.8 0.239928
vt 1 1.888299
vt 1 0.94415
vt 0.8 1.888299
vt 0.499999 2.832449
vt 0.199999 1.888299
vt 0 1.888299
vt 0.2 0.94415
vt 0 0.94415
vt 0.8 1.888299
vt 0.8 0.94415
vt 0.8 1.888299
vt 0.499999 1.888299
vt 0.499999 2.832449
vt 0.6 0.94415
vt 0.4 0.94415
vt 0.499999 1.888299
vt 0.199999 1.888299
vt 0.199999 1.888299
vt 0.499999 1.888299
vt 0.499999 2.832449
vt 0.6 0
vt 0.4 0
vt 0.6 0.238785
vt 0.4 0.239928
vt 0.2 0
vt 0.6 0.94415
vt 0.8 0.94415
vt 0.2 0.241775
vt 0 1E-06
vt 0.599999 1.888299
vt 0.399999 1.888299
vt 0.8 1.888299
vt 0.499999 2.832449
vt 0.499999 2.832449
vt 0.4 0.94415
vt 0.199999 1.888299
vt 0.499999 2.832449
vt 0.2 0.94415
vt 0 1.888299
vt 0.499999 2.832449
vt 0 0.241776
vt 0 0.94415
vt 1 0.94415
vt 1 1.888299
vt 0.499999 2.832449
vt 0.8 0.239928
vt 1 0.241775
vt 1 0
vt 0.8 0




usemtl Bark_02
usemap Bark_02
f 5/5/5 31/31/31 32/32/32
f 41/41/41 42/42/42 34/34/34
f 46/46/46 48/48/48 47/47/47
f 39/39/39 47/47/47 49/49/49
f 27/27/27 29/29/29 12/12/12
f 27/27/27 12/12/12 28/28/28
f 28/28/28 12/12/12 6/6/6
f 28/28/28 6/6/6 4/4/4
f 4/4/4 6/6/6 3/3/3
f 4/4/4 3/3/3 1/1/1
f 1/1/1 3/3/3 2/2/2
f 4/4/4 1/1/1 5/5/5
f 17/17/17 16/16/16 11/11/11
f 11/11/11 16/16/16 15/15/15
f 11/11/11 15/15/15 7/7/7
f 7/7/7 15/15/15 8/8/8
f 7/7/7 8/8/8 3/3/3
f 3/3/3 8/8/8 9/9/9
f 3/3/3 6/6/6 7/7/7
f 7/7/7 6/6/6 10/10/10
f 7/7/7 10/10/10 11/11/11
f 11/11/11 10/10/10 13/13/13
f 12/12/12 14/14/14 10/10/10
f 12/12/12 10/10/10 6/6/6
f 22/22/22 23/23/23 8/8/8
f 22/22/22 8/8/8 21/21/21
f 21/21/21 8/8/8 15/15/15
f 21/21/21 15/15/15 18/18/18
f 18/18/18 15/15/15 16/16/16
f 18/18/18 16/16/16 19/19/19
f 19/19/19 16/16/16 20/20/20
f 30/30/30 28/28/28 4/4/4
f 30/30/30 4/4/4 31/31/31
f 35/35/35 34/34/34 33/33/33
f 35/35/35 33/33/33 36/36/36
f 37/37/37 36/36/36 38/38/38
f 37/37/37 38/38/38 39/39/39
f 39/39/39 38/38/38 40/40/40
f 43/43/43 45/45/45 44/44/44
f 43/43/43 44/44/44 42/42/42
f 42/42/42 44/44/44 46/46/46
f 51/51/51 52/52/52 50/50/50
f 51/51/51 50/50/50 47/47/47
f 53/53/53 81/81/81 78/78/78
f 53/53/53 78/78/78 55/55/55
f 55/55/55 78/78/78 59/59/59
f 55/55/55 59/59/59 58/58/58
f 58/58/58 59/59/59 62/62/62
f 58/58/58 62/62/62 63/63/63
f 63/63/63 62/62/62 65/65/65
f 80/80/80 79/79/79 78/78/78
f 78/78/78 79/79/79 75/75/75
f 78/78/78 75/75/75 59/59/59
f 59/59/59 75/75/75 64/64/64
f 59/59/59 64/64/64 62/62/62
f 62/62/62 64/64/64 66/66/66
f 54/54/54 53/53/53 55/55/55
f 54/54/54 55/55/55 56/56/56
f 56/56/56 55/55/55 58/58/58
f 56/56/56 58/58/58 67/67/67
f 67/67/67 58/58/58 63/63/63
f 67/67/67 63/63/63 68/68/68
f 68/68/68 63/63/63 69/69/69
f 57/57/57 54/54/54 56/56/56
f 57/57/57 56/56/56 60/60/60
f 60/60/60 56/56/56 67/67/67
f 60/60/60 67/67/67 70/70/70
f 70/70/70 67/67/67 68/68/68
f 70/70/70 68/68/68 71/71/71
f 71/71/71 68/68/68 72/72/72
f 76/76/76 77/77/77 64/64/64
f 76/76/76 64/64/64 75/75/75
f 24/24/24 22/22/22 21/21/21
f 24/24/24 21/21/21 25/25/25
f 25/25/25 21/21/21 18/18/18
f 25/25/25 18/18/18 26/26/26
f 26/26/26 18/18/18 19/19/19
f 61/61/61 57/57/57 60/60/60
f 61/61/61 60/60/60 73/73/73
f 73/73/73 60/60/60 70/70/70
f 73/73/73 70/70/70 74/74/74
f 74/74/74 70/70/70 71/71/71
f 81/81/81 80/80/80 78/78/78

