g NewMesh_tris_79
v 9.11974 0.5464433 -1.71251
v 8.644201 0.4954269 -0.806291
v 8.747655 1.129141 -1.495662
v 8.454557 1.04504 -1.0486
v 7.858693 0.4129223 -1.136139
v 7.942564 1.064605 -1.300925
v 7.671175 0.5857233 -1.919288
v 8.128634 2.825373 -1.267297
v 7.978493 1.122322 -1.809673
v 8.206528 2.862311 -1.55851
v 8.167792 6.552016 -1.09783
v 8.206419 6.549056 -0.8931869
v 7.728025 10.3391 -0.7094932
v 8.383061 2.824664 -1.101457
v 8.412131 6.567397 -0.8662448
v 7.728025 10.3391 -0.7094932
v 8.454557 1.04504 -1.0486
v 8.618199 2.861164 -1.290177
v 8.500641 6.581694 -1.054237
v 7.728025 10.3391 -0.7094932
v 8.509095 2.884431 -1.57265
v 8.349632 6.572186 -1.197365
v 7.728025 10.3391 -0.7094932
v 8.475965 1.16222 -1.93019
v 8.206528 2.862311 -1.55851
v 7.978493 1.122322 -1.809673
v 8.167792 6.552016 -1.09783
v 7.728025 10.3391 -0.7094932
v 8.47678 0.6528693 -2.448696
v 7.671175 0.5857233 -1.919288
v 8.443415 4.148444 -1.229809
v 8.240953 4.059749 -1.277505
v 7.846423 6.654139 -3.824759
v 8.370238 3.956469 -1.387619
v 7.846423 6.654139 -3.824759
v 8.240953 4.059749 -1.277505
v 8.370238 3.956469 -1.387619
v 7.846423 6.654139 -3.824759
v 8.315302 5.11097 -1.2181
v 8.41573 5.036711 -1.0296
v 6.05188 7.646783 1.536601
v 8.260486 4.915646 -1.056989
v 8.315302 5.11097 -1.2181
v 6.05188 7.646783 1.536601
v 8.41573 5.036711 -1.0296
v 8.260486 4.915646 -1.056989
v 6.05188 7.646783 1.536601
v 8.224222 6.874522 -0.9355173
v 8.252159 6.875964 -1.113558
v 10.1359 9.705425 -1.511355
v 8.392199 6.838083 -1.049921
v 8.224222 6.874522 -0.9355173
v 10.1359 9.705425 -1.511355
v 8.252159 6.875964 -1.113558
v 8.392199 6.838083 -1.049921
v 10.1359 9.705425 -1.511355
v -0.033757 -0.146405 -0.311881
v 0.436358 -0.114711 -0.144115
v 0.082225 0.258379 -0.154349
v -0.146824 0.260759 0.012121
v -0.357347 -0.142014 0.009847
v -0.059282 0.26461 0.281311
v -0.137055 1.388275 0.128643
v -0.084225 -0.138869 0.365576
v -0.161143 1.388275 -0.063994
v 0.014622 1.388275 -0.146431
v 0.003354 7.451858 -0.119995
v 0.126897 7.451858 -0.070369
v -0.08202 7.451858 -0.017833
v -0.011241 7.451858 0.094931
v 0.092074 11.79769 -0.02603
v 0.092074 11.79769 -0.02603
v 0.092074 11.79769 -0.02603
v 0.147339 1.388275 -0.004743
v 0.117877 7.451858 0.062463
v 0.092074 11.79769 -0.02603
v 0.311275 0.260759 0.012121
v 0.053597 1.388275 0.165262
v -0.011241 7.451858 0.094931
v 0.092074 11.79769 -0.02603
v 0.223732 0.26461 0.281311
v -0.137055 1.388275 0.128643
v 0.279746 -0.170171 0.253017
v 0.436358 -0.114711 -0.144115
v -0.084225 -0.138869 0.365576
v -0.059282 0.26461 0.281311
v 0.436358 -0.114711 -0.144115

vn 0.8456321 0.5295277 -0.06713465
vn 0.264961 0.4258761 0.8651157
vn 0.9396989 0.334923 0.06922936
vn 0.1772123 0.2802242 0.9434353
vn -0.7045975 0.2515429 0.6635272
vn -0.8232853 0.2269363 0.5202897
vn -0.854901 0.4385834 -0.2771081
vn -0.9268398 0.03715387 0.3736143
vn -0.7324894 0.4246826 -0.5320752
vn -0.6266487 0.1500486 -0.7647201
vn -0.9008301 0.004959285 -0.4341433
vn -0.6672376 -0.08000221 0.740536
vn -0.1563967 0.9843358 0.08138273
vn 0.0451037 -0.02128718 0.9987554
vn 0.499169 0.009145428 0.8664563
vn -0.1563967 0.9843358 0.08138273
vn 0.1772123 0.2802242 0.9434353
vn 0.9654147 0.04472623 0.2568543
vn 0.9749937 0.1372842 -0.1747583
vn -0.1563967 0.9843358 0.08138273
vn 0.5475802 0.1409839 -0.8247905
vn 0.1439604 0.1375547 -0.9799765
vn -0.1563967 0.9843358 0.08138273
vn 0.3524421 0.4956266 -0.7938128
vn -0.6266487 0.1500486 -0.7647201
vn -0.7324894 0.4246826 -0.5320752
vn -0.9008301 0.004959285 -0.4341433
vn -0.1563967 0.9843358 0.08138273
vn 0.1367234 0.6545639 -0.7435406
vn -0.854901 0.4385834 -0.2771081
vn 0.6740878 0.6027641 0.426944
vn -0.978839 0.04674866 0.1992207
vn -0.1385647 0.7103664 -0.6900576
vn 0.198723 -0.6354781 -0.7461076
vn -0.1385647 0.7103664 -0.6900576
vn -0.978839 0.04674866 0.1992207
vn 0.198723 -0.6354781 -0.7461076
vn -0.1385647 0.7103664 -0.6900576
vn -0.2021242 0.63216 -0.7480103
vn 0.8011025 0.1578969 0.5773244
vn -0.5223654 0.6016703 0.6042575
vn -0.611568 -0.7456957 0.2644289
vn -0.2021242 0.63216 -0.7480103
vn -0.5223654 0.6016703 0.6042575
vn 0.8011025 0.1578969 0.5773244
vn -0.611568 -0.7456957 0.2644289
vn -0.5223654 0.6016703 0.6042575
vn -0.458047 0.4635916 0.7584693
vn -0.5811378 0.2794406 -0.7643244
vn 0.5390108 0.8306699 -0.1394804
vn 0.8552563 -0.5180486 0.01274386
vn -0.458047 0.4635916 0.7584693
vn 0.5390108 0.8306699 -0.1394804
vn -0.5811378 0.2794406 -0.7643244
vn 0.8552563 -0.5180486 0.01274386
vn 0.5390108 0.8306699 -0.1394804
vn -0.2429038 0.3767923 -0.8938822
vn 0.8514918 0.3482876 -0.3919914
vn 0.01590029 0.2539774 -0.9670795
vn -0.9189098 0.2534945 -0.302234
vn -0.9152043 0.3889343 -0.1055042
vn -0.5262805 0.1999341 0.8264716
vn -0.7386832 0.02816909 0.6734639
vn -0.3322604 0.1359927 0.9333322
vn -0.875204 -0.004608425 -0.483732
vn 0.1690774 0.01950189 -0.9854097
vn -0.2447966 0.01892207 -0.9693898
vn 0.8465758 0.00875905 -0.5321962
vn -0.9972286 0.03067128 -0.06778201
vn -0.3735503 0.02783316 0.9271923
vn 0.01443542 0.9998894 -0.003601225
vn 0.01443542 0.9998894 -0.003601225
vn 0.01443542 0.9998894 -0.003601225
vn 0.9869624 0.08292084 -0.1379471
vn 0.7668684 0.0142527 0.641646
vn 0.01443542 0.9998894 -0.003601225
vn 0.9470425 0.2407053 -0.212536
vn 0.4043181 0.0813031 0.9109976
vn -0.3735503 0.02783316 0.9271923
vn 0.01443542 0.9998894 -0.003601225
vn 0.5930218 0.1422202 0.7925268
vn -0.7386832 0.02816909 0.6734639
vn 0.7054172 0.06424259 0.705875
vn 0.8514918 0.3482876 -0.3919914
vn -0.3322604 0.1359927 0.9333322
vn -0.5262805 0.1999341 0.8264716
vn 0.8514918 0.3482876 -0.3919914

vt 0.6 0
vt 0.4 0
vt 0.6 0.238785
vt 0.4 0.239928
vt 0.2 0
vt 0.2 0.241775
vt 0 1E-06
vt 0.2 0.94415
vt 0 0.241776
vt 0 0.94415
vt 0 1.888299
vt 0.199999 1.888299
vt 0.499999 2.832449
vt 0.4 0.94415
vt 0.399999 1.888299
vt 0.499999 2.832449
vt 0.4 0.239928
vt 0.6 0.94415
vt 0.599999 1.888299
vt 0.499999 2.832449
vt 0.8 0.94415
vt 0.8 1.888299
vt 0.499999 2.832449
vt 0.8 0.239928
vt 1 0.94415
vt 1 0.241775
vt 1 1.888299
vt 0.499999 2.832449
vt 0.8 0
vt 1 0
vt 0.349999 1.888299
vt 0 1.888299
vt 0.499999 2.832449
vt 0.8 1.888299
vt 0.499999 2.832449
vt 1 1.888299
vt 0.8 1.888299
vt 0.499999 2.832449
vt 0.349999 1.888299
vt 0 1.888299
vt 0.499999 2.832449
vt 0.8 1.888299
vt 0.349999 1.888299
vt 0.499999 2.832449
vt 1 1.888299
vt 0.8 1.888299
vt 0.499999 2.832449
vt 0.349999 1.888299
vt 0 1.888299
vt 0.499999 2.832449
vt 0.8 1.888299
vt 0.349999 1.888299
vt 0.499999 2.832449
vt 1 1.888299
vt 0.8 1.888299
vt 0.499999 2.832449
vt 0.6 0
vt 0.4 0
vt 0.6 0.238785
vt 0.8 0.239928
vt 0.8 0
vt 1 0.241775
vt 1 0.94415
vt 1 0
vt 0.8 0.94415
vt 0.6 0.94415
vt 0.599999 3.698042
vt 0.399999 3.698042
vt 0.8 3.698042
vt 1 3.698042
vt 0.499999 4.642191
vt 0.499999 4.642191
vt 0.499999 4.642191
vt 0.4 0.94415
vt 0.199999 3.698041
vt 0.499999 4.642191
vt 0.4 0.239928
vt 0.2 0.94415
vt 0 3.698042
vt 0.499999 4.642191
vt 0.2 0.241775
vt 0 0.94415
vt 0.2 0
vt 0.4 0
vt 0 1E-06
vt 0 0.241776
vt 0.4 0




usemtl Bark_02
usemap Bark_02
f 31/31/31 33/33/33 32/32/32
f 34/34/34 35/35/35 31/31/31
f 36/36/36 38/38/38 37/37/37
f 39/39/39 41/41/41 40/40/40
f 42/42/42 44/44/44 43/43/43
f 45/45/45 47/47/47 46/46/46
f 48/48/48 50/50/50 49/49/49
f 51/51/51 53/53/53 52/52/52
f 54/54/54 56/56/56 55/55/55
f 17/17/17 14/14/14 8/8/8
f 8/8/8 14/14/14 12/12/12
f 8/8/8 12/12/12 11/11/11
f 11/11/11 12/12/12 13/13/13
f 2/2/2 1/1/1 3/3/3
f 2/2/2 3/3/3 4/4/4
f 4/4/4 3/3/3 18/18/18
f 4/4/4 18/18/18 14/14/14
f 14/14/14 18/18/18 15/15/15
f 14/14/14 15/15/15 12/12/12
f 12/12/12 15/15/15 16/16/16
f 1/1/1 29/29/29 24/24/24
f 1/1/1 24/24/24 3/3/3
f 3/3/3 24/24/24 21/21/21
f 3/3/3 21/21/21 18/18/18
f 18/18/18 21/21/21 19/19/19
f 18/18/18 19/19/19 15/15/15
f 15/15/15 19/19/19 20/20/20
f 29/29/29 30/30/30 26/26/26
f 29/29/29 26/26/26 24/24/24
f 24/24/24 26/26/26 25/25/25
f 24/24/24 25/25/25 21/21/21
f 21/21/21 25/25/25 22/22/22
f 21/21/21 22/22/22 19/19/19
f 19/19/19 22/22/22 23/23/23
f 27/27/27 28/28/28 22/22/22
f 27/27/27 22/22/22 25/25/25
f 70/70/70 73/73/73 69/69/69
f 70/70/70 69/69/69 63/63/63
f 63/63/63 69/69/69 65/65/65
f 63/63/63 65/65/65 60/60/60
f 60/60/60 65/65/65 59/59/59
f 60/60/60 59/59/59 57/57/57
f 57/57/57 59/59/59 58/58/58
f 60/60/60 57/57/57 61/61/61
f 60/60/60 61/61/61 62/62/62
f 62/62/62 61/61/61 64/64/64
f 67/67/67 71/71/71 68/68/68
f 67/67/67 68/68/68 66/66/66
f 66/66/66 68/68/68 74/74/74
f 66/66/66 74/74/74 77/77/77
f 77/77/77 74/74/74 81/81/81
f 77/77/77 81/81/81 83/83/83
f 83/83/83 81/81/81 85/85/85
f 77/77/77 87/87/87 59/59/59
f 77/77/77 59/59/59 66/66/66
f 66/66/66 59/59/59 65/65/65
f 66/66/66 65/65/65 67/67/67
f 67/67/67 65/65/65 69/69/69
f 67/67/67 69/69/69 72/72/72
f 82/82/82 86/86/86 81/81/81
f 82/82/82 81/81/81 78/78/78
f 78/78/78 81/81/81 74/74/74
f 78/78/78 74/74/74 75/75/75
f 75/75/75 74/74/74 68/68/68
f 75/75/75 68/68/68 76/76/76
f 75/75/75 80/80/80 79/79/79
f 75/75/75 79/79/79 78/78/78
f 78/78/78 79/79/79 82/82/82
f 84/84/84 77/77/77 83/83/83
f 5/5/5 2/2/2 4/4/4
f 5/5/5 4/4/4 6/6/6
f 6/6/6 4/4/4 8/8/8
f 6/6/6 8/8/8 9/9/9
f 9/9/9 8/8/8 10/10/10
f 6/6/6 9/9/9 7/7/7
f 6/6/6 7/7/7 5/5/5
f 10/10/10 8/8/8 11/11/11
f 62/62/62 63/63/63 60/60/60
f 81/81/81 86/86/86 85/85/85

