g NewMesh_tris_83
v -11.61898 -0.5196927 1.51232
v -12.11889 -0.460556 1.052236
v -11.67321 0.09000975 1.244859
v -11.27995 0.097514 1.154975
v -11.04103 -0.504063 1.282395
v -11.50825 1.706955 1.276938
v -11.79761 1.705988 1.287125
v -11.88032 0.1056983 0.8989511
v -12.11889 -0.460556 1.052236
v -11.4207 4.299328 1.514924
v -11.56113 4.304198 1.374625
v -11.24379 4.303003 1.424821
v -11.16955 6.648891 1.553406
v -11.16955 6.648891 1.553406
v -11.89674 1.715782 1.015259
v -11.47101 4.310884 1.197813
v -11.16955 6.648891 1.553406
v -11.66865 1.722802 0.8370491
v -11.27489 4.310145 1.228836
v -11.16955 6.648891 1.553406
v -11.61508 0.1228881 0.5955292
v -11.70983 -0.5200659 0.6355131
v -12.11889 -0.460556 1.052236
v -11.19322 -0.478327 0.6906712
v -11.24417 0.1178318 0.753702
v -11.42854 1.717347 0.9987753
v -11.27489 4.310145 1.228836
v -11.42854 1.717347 0.9987753
v -11.16955 6.648891 1.553406
v -11.24417 0.1178318 0.753702
v -11.19322 -0.478327 0.6906712
v -11.27995 0.097514 1.154975
v -12.50373 3.623245 0.6974337
v -11.58824 1.9126 1.280883
v -12.65629 3.591112 0.716136
v -13.95834 6.666301 -0.2674045
v -12.46549 3.592059 0.5483617
v -12.50373 3.623245 0.6974337
v -11.44654 1.898434 1.101579
v -11.58824 1.9126 1.280883
v -12.65629 3.591112 0.716136
v -11.79564 1.843501 1.212795
v -12.65629 3.591112 0.716136
v -12.65338 3.540359 0.5267779
v -13.95834 6.666301 -0.2674045
v -11.78213 1.78663 0.9914116
v -11.56638 1.82058 0.9226763
v -12.65338 3.540359 0.5267779
v -12.46549 3.592059 0.5483617
v -12.46549 3.592059 0.5483617
v -12.65338 3.540359 0.5267779
v -13.95834 6.666301 -0.2674045
v -0.9012423 -0.2179504 0.6241595
v -0.8398002 -0.1760934 -0.4388514
v -0.5040108 0.5725623 0.1863064
v -0.3281047 0.5651342 -0.394704
v 0.05090246 -0.3332514 -0.5112077
v -0.3011705 2.404542 0.1347073
v -0.04053578 2.392804 0.3578697
v 0.2543806 0.5418394 -0.4820116
v 0.4796103 -0.2830478 0.1001335
v 0.1494646 5.330084 0.4886387
v 0.1394105 5.330144 0.2534066
v 0.3760477 5.319652 0.5517749
v 0.5233281 8.340138 0.6418861
v 0.5233281 8.340138 0.6418861
v -0.1697198 2.397879 -0.1823825
v 0.3597802 5.319751 0.1711608
v 0.5233281 8.340138 0.6418861
v 0.1721558 2.382023 -0.1551927
v 0.5060304 5.313266 0.3555633
v 0.5233281 8.340138 0.6418861
v 0.4335415 0.5436842 0.06134999
v 0.2519965 2.378886 0.1787013
v 0.2519965 2.378886 0.1787013
v 0.5060304 5.313266 0.3555633
v 0.5233281 8.340138 0.6418861
v -0.02637526 0.5574929 0.4571485
v 0.4335415 0.5436842 0.06134999
v 0.4796103 -0.2830478 0.1001335
v -0.05748806 -0.2479436 0.9454326

vn -0.1308289 0.3556978 0.9253987
vn -0.9461525 0.3175864 0.06272512
vn -0.3745165 0.215 0.9019493
vn 0.7798132 0.2157259 0.5876681
vn 0.7972698 0.4103865 0.4426553
vn 0.5949578 -0.0392645 0.8027973
vn -0.5816767 -0.02229479 0.8131145
vn -0.9724881 0.150527 -0.1777876
vn -0.9461525 0.3175864 0.06272512
vn -0.1540477 -0.01853091 0.9878896
vn -0.9760463 0.1399322 0.1665912
vn 0.8890223 -0.07054923 0.4523959
vn 0.09468137 0.9917347 0.0865891
vn 0.09468137 0.9917347 0.0865891
vn -0.9610456 0.0856925 -0.26277
vn -0.4460889 0.1867781 -0.875282
vn 0.09468137 0.9917347 0.0865891
vn -0.06782687 0.1486762 -0.9865571
vn 0.7093431 0.05620984 -0.7026185
vn 0.09468137 0.9917347 0.0865891
vn -0.2124227 0.09150073 -0.9728845
vn -0.3827608 0.01641465 -0.9237016
vn -0.9461525 0.3175864 0.06272512
vn 0.7216308 0.1401993 -0.6779331
vn 0.8525051 0.1407079 -0.5034247
vn 0.9336252 0.07398691 -0.3505283
vn 0.7093431 0.05620984 -0.7026185
vn 0.9336252 0.07398691 -0.3505283
vn 0.09468137 0.9917347 0.0865891
vn 0.8525051 0.1407079 -0.5034247
vn 0.7216308 0.1401993 -0.6779331
vn 0.7798132 0.2157259 0.5876681
vn 0.5498999 0.5116951 0.6601349
vn 0.2948761 0.4290169 0.8538107
vn -0.6509128 -0.05205671 0.7573656
vn -0.3963446 0.8822154 -0.2541788
vn 0.7336645 0.250121 -0.6318038
vn 0.5498999 0.5116951 0.6601349
vn 0.8741407 0.4805318 -0.07047869
vn 0.2948761 0.4290169 0.8538107
vn -0.6509128 -0.05205671 0.7573656
vn -0.7426066 -0.1855186 0.6435203
vn -0.6509128 -0.05205671 0.7573656
vn -0.6006395 -0.4308661 -0.6734883
vn -0.3963446 0.8822154 -0.2541788
vn -0.6698943 -0.482323 -0.5644519
vn 0.3950289 -0.01727299 -0.9185063
vn -0.6006395 -0.4308661 -0.6734883
vn 0.7336645 0.250121 -0.6318038
vn 0.7336645 0.250121 -0.6318038
vn -0.6006395 -0.4308661 -0.6734883
vn -0.3963446 0.8822154 -0.2541788
vn -0.6613543 0.5655444 0.4927169
vn -0.6712154 0.413444 -0.6152512
vn -0.8530062 0.4135507 0.3183649
vn -0.5446535 0.2433132 -0.8025904
vn 0.3707327 -0.03388136 -0.9281214
vn -0.9693308 0.1179644 0.2155976
vn -0.09492361 0.005830651 0.9954675
vn 0.5283189 0.06949725 -0.8461969
vn 0.9948457 0.06146546 0.08064933
vn -0.7762463 0.06814265 0.6267362
vn -0.8165083 0.1860125 -0.5465471
vn 0.3518263 -0.06357476 0.933904
vn 0.07132573 0.9932849 0.0910916
vn 0.07132573 0.9932849 0.0910916
vn -0.5246176 0.1686966 -0.8344567
vn 0.2816981 0.1234706 -0.9515258
vn 0.07132573 0.9932849 0.0910916
vn 0.6385889 0.1052674 -0.7623143
vn 0.9987727 -0.02899376 -0.04015802
vn 0.07132573 0.9932849 0.0910916
vn 0.966037 0.06877799 0.249083
vn 0.9232344 -0.01356459 0.3839977
vn 0.9232344 -0.01356459 0.3839977
vn 0.9987727 -0.02899376 -0.04015802
vn 0.07132573 0.9932849 0.0910916
vn 0.1995727 0.2678309 0.9425696
vn 0.966037 0.06877799 0.249083
vn 0.9948457 0.06146546 0.08064933
vn 0.253673 0.494275 0.8314701

vt 0.6 0
vt 0.4 0
vt 0.6 0.238785
vt 0.8 0.239928
vt 0.8 0
vt 0.8 0.94415
vt 0.6 0.94415
vt 0.4 0.239928
vt 0.4 0
vt 0.599999 1.888299
vt 0.399999 1.888299
vt 0.8 1.888299
vt 0.499999 2.832449
vt 0.499999 2.832449
vt 0.4 0.94415
vt 0.199999 1.888299
vt 0.499999 2.832449
vt 0.2 0.94415
vt 0 1.888299
vt 0.499999 2.832449
vt 0.2 0.241775
vt 0.2 0
vt 0.4 0
vt 0 1E-06
vt 0 0.241776
vt 0 0.94415
vt 1 1.888299
vt 1 0.94415
vt 0.499999 2.832449
vt 1 0.241775
vt 1 0
vt 0.8 0.239928
vt 1 1.888299
vt 1 0.94415
vt 0.8 1.888299
vt 0.499999 2.832449
vt 0.199999 1.888299
vt 0 1.888299
vt 0.2 0.94415
vt 0 0.94415
vt 0.8 1.888299
vt 0.8 0.94415
vt 0.8 1.888299
vt 0.499999 1.888299
vt 0.499999 2.832449
vt 0.6 0.94415
vt 0.4 0.94415
vt 0.499999 1.888299
vt 0.199999 1.888299
vt 0.199999 1.888299
vt 0.499999 1.888299
vt 0.499999 2.832449
vt 0.6 0
vt 0.4 0
vt 0.6 0.238785
vt 0.4 0.239928
vt 0.2 0
vt 0.6 0.94415
vt 0.8 0.94415
vt 0.2 0.241775
vt 0 1E-06
vt 0.599999 1.888299
vt 0.399999 1.888299
vt 0.8 1.888299
vt 0.499999 2.832449
vt 0.499999 2.832449
vt 0.4 0.94415
vt 0.199999 1.888299
vt 0.499999 2.832449
vt 0.2 0.94415
vt 0 1.888299
vt 0.499999 2.832449
vt 0 0.241776
vt 0 0.94415
vt 1 0.94415
vt 1 1.888299
vt 0.499999 2.832449
vt 0.8 0.239928
vt 1 0.241775
vt 1 0
vt 0.8 0




usemtl Bark_02
usemap Bark_02
f 5/5/5 31/31/31 32/32/32
f 41/41/41 42/42/42 34/34/34
f 46/46/46 48/48/48 47/47/47
f 39/39/39 47/47/47 49/49/49
f 27/27/27 29/29/29 12/12/12
f 27/27/27 12/12/12 28/28/28
f 28/28/28 12/12/12 6/6/6
f 28/28/28 6/6/6 4/4/4
f 4/4/4 6/6/6 3/3/3
f 4/4/4 3/3/3 1/1/1
f 1/1/1 3/3/3 2/2/2
f 4/4/4 1/1/1 5/5/5
f 17/17/17 16/16/16 11/11/11
f 11/11/11 16/16/16 15/15/15
f 11/11/11 15/15/15 7/7/7
f 7/7/7 15/15/15 8/8/8
f 7/7/7 8/8/8 3/3/3
f 3/3/3 8/8/8 9/9/9
f 3/3/3 6/6/6 7/7/7
f 7/7/7 6/6/6 10/10/10
f 7/7/7 10/10/10 11/11/11
f 11/11/11 10/10/10 13/13/13
f 12/12/12 14/14/14 10/10/10
f 12/12/12 10/10/10 6/6/6
f 22/22/22 23/23/23 8/8/8
f 22/22/22 8/8/8 21/21/21
f 21/21/21 8/8/8 15/15/15
f 21/21/21 15/15/15 18/18/18
f 18/18/18 15/15/15 16/16/16
f 18/18/18 16/16/16 19/19/19
f 19/19/19 16/16/16 20/20/20
f 30/30/30 28/28/28 4/4/4
f 30/30/30 4/4/4 31/31/31
f 35/35/35 34/34/34 33/33/33
f 35/35/35 33/33/33 36/36/36
f 37/37/37 36/36/36 38/38/38
f 37/37/37 38/38/38 39/39/39
f 39/39/39 38/38/38 40/40/40
f 43/43/43 45/45/45 44/44/44
f 43/43/43 44/44/44 42/42/42
f 42/42/42 44/44/44 46/46/46
f 51/51/51 52/52/52 50/50/50
f 51/51/51 50/50/50 47/47/47
f 53/53/53 81/81/81 78/78/78
f 53/53/53 78/78/78 55/55/55
f 55/55/55 78/78/78 59/59/59
f 55/55/55 59/59/59 58/58/58
f 58/58/58 59/59/59 62/62/62
f 58/58/58 62/62/62 63/63/63
f 63/63/63 62/62/62 65/65/65
f 80/80/80 79/79/79 78/78/78
f 78/78/78 79/79/79 75/75/75
f 78/78/78 75/75/75 59/59/59
f 59/59/59 75/75/75 64/64/64
f 59/59/59 64/64/64 62/62/62
f 62/62/62 64/64/64 66/66/66
f 54/54/54 53/53/53 55/55/55
f 54/54/54 55/55/55 56/56/56
f 56/56/56 55/55/55 58/58/58
f 56/56/56 58/58/58 67/67/67
f 67/67/67 58/58/58 63/63/63
f 67/67/67 63/63/63 68/68/68
f 68/68/68 63/63/63 69/69/69
f 57/57/57 54/54/54 56/56/56
f 57/57/57 56/56/56 60/60/60
f 60/60/60 56/56/56 67/67/67
f 60/60/60 67/67/67 70/70/70
f 70/70/70 67/67/67 68/68/68
f 70/70/70 68/68/68 71/71/71
f 71/71/71 68/68/68 72/72/72
f 76/76/76 77/77/77 64/64/64
f 76/76/76 64/64/64 75/75/75
f 24/24/24 22/22/22 21/21/21
f 24/24/24 21/21/21 25/25/25
f 25/25/25 21/21/21 18/18/18
f 25/25/25 18/18/18 26/26/26
f 26/26/26 18/18/18 19/19/19
f 61/61/61 57/57/57 60/60/60
f 61/61/61 60/60/60 73/73/73
f 73/73/73 60/60/60 70/70/70
f 73/73/73 70/70/70 74/74/74
f 74/74/74 70/70/70 71/71/71
f 81/81/81 80/80/80 78/78/78

