g NewMesh_tris_114
v 0.3575535 -0.1606663 0.09154813
v -0.01820907 -0.1028564 0.5501354
v 0.1498736 0.2618155 0.1478904
v 0.05540936 0.2598037 -0.1760346
v 0.1271248 -0.1596726 -0.4009883
v -0.2813675 0.2761437 -0.1864969
v -0.03592088 1.412832 -0.2404036
v -0.3812617 -0.1333251 -0.2382761
v 0.1896928 1.405597 -0.1897612
v 0.2114657 1.410461 0.04050111
v 0.25365 3.199935 -0.02694159
v 0.148375 3.206818 0.0915492
v 0.1734418 3.199573 -0.1638249
v 0.01859714 3.206233 -0.129932
v 0.1799596 4.887019 -0.04585072
v 0.1799596 4.887019 -0.04585072
v 0.1799596 4.887019 -0.04585072
v -0.0006915748 1.420703 0.132169
v 0.003103771 3.210711 0.02789768
v 0.1799596 4.887019 -0.04585072
v -0.1286842 0.2794018 0.3375003
v -0.1535846 1.422168 -0.04144008
v 0.01859714 3.206233 -0.129932
v 0.1799596 4.887019 -0.04585072
v -0.3951007 0.2882514 0.1307654
v -0.03592088 1.412832 -0.2404036
v -0.4025568 -0.1532741 0.2158958
v -0.01820907 -0.1028564 0.5501354
v -0.3812617 -0.1333251 -0.2382761
v -0.2813675 0.2761437 -0.1864969
v -0.01820907 -0.1028564 0.5501354
v 1.219535 0.2028532 -8.583008
v 2.058801 0.2168726 -8.894758
v 1.552731 0.7354178 -8.503969
v 2.008213 0.693347 -8.623886
v 2.381303 0.1628471 -8.222072
v 2.192339 0.7204646 -8.160812
v 2.036719 0.2874161 -7.602616
v 1.986924 2.249374 -8.282948
v 1.869366 0.7473901 -7.850764
v 1.764623 2.265842 -8.138925
v 1.839525 5.504027 -8.398273
v 1.9338 5.508687 -8.553885
v 2.12675 8.840391 -8.375978
v 1.918446 2.2455 -8.53932
v 1.814924 5.517426 -8.691422
v 2.12675 8.840391 -8.375978
v 2.008213 0.693347 -8.623886
v 1.653822 2.259574 -8.553744
v 1.647179 5.51817 -8.620813
v 2.12675 8.840391 -8.375978
v 1.558755 2.272146 -8.306286
v 1.662383 5.509887 -8.439638
v 2.12675 8.840391 -8.375978
v 1.474038 0.7566394 -8.06268
v 1.764623 2.265842 -8.138925
v 1.869366 0.7473901 -7.850764
v 1.839525 5.504027 -8.398273
v 2.12675 8.840391 -8.375978
v 1.201746 0.2902013 -7.72848
v 2.036719 0.2874161 -7.602616
v 1.72616 3.391595 -8.484821
v 1.835008 3.320492 -8.336023
v 0.4541229 5.488686 -6.437293
v 1.693117 3.220419 -8.340412
v 0.4541229 5.488686 -6.437293
v 1.835008 3.320492 -8.336023
v 1.693117 3.220419 -8.340412
v 0.4541229 5.488686 -6.437293
v 1.75911 4.236485 -8.413058
v 1.808106 4.175761 -8.594597
v 4.681649 6.658508 -8.870378
v 1.900058 4.075382 -8.486724
v 1.75911 4.236485 -8.413058
v 4.681649 6.658508 -8.870378
v 1.808106 4.175761 -8.594597
v 1.900058 4.075382 -8.486724
v 4.681649 6.658508 -8.870378
v 1.878327 5.789881 -8.535213
v 1.756442 5.782324 -8.435768
v 0.1349798 8.154932 -9.263556
v 1.704875 5.746315 -8.559086
v 1.878327 5.789881 -8.535213
v 0.1349798 8.154932 -9.263556
v 1.756442 5.782324 -8.435768
v 1.704875 5.746315 -8.559086
v 0.1349798 8.154932 -9.263556
v 1.602607 0.07852863 -15.04085
v 2.072722 0.1102226 -14.87309
v 1.718589 0.4833126 -14.88332
v 1.48954 0.4856926 -14.71685
v 1.279017 0.08291963 -14.71912
v 1.577082 0.4895436 -14.44766
v 1.499309 1.613209 -14.60033
v 1.552139 0.08606462 -14.36339
v 1.475221 1.613209 -14.79296
v 1.650986 1.613209 -14.8754
v 1.639718 7.676792 -14.84896
v 1.763261 7.676792 -14.79934
v 1.554344 7.676792 -14.7468
v 1.625123 7.676792 -14.63404
v 1.728438 12.02263 -14.755
v 1.728438 12.02263 -14.755
v 1.728438 12.02263 -14.755
v 1.783703 1.613209 -14.73371
v 1.754241 7.676792 -14.66651
v 1.728438 12.02263 -14.755
v 1.947639 0.4856926 -14.71685
v 1.689961 1.613209 -14.56371
v 1.625123 7.676792 -14.63404
v 1.728438 12.02263 -14.755
v 1.860096 0.4895436 -14.44766
v 1.499309 1.613209 -14.60033
v 1.91611 0.05476263 -14.47595
v 2.072722 0.1102226 -14.87309
v 1.552139 0.08606462 -14.36339
v 1.577082 0.4895436 -14.44766
v 2.072722 0.1102226 -14.87309

vn 0.9369211 0.3435284 0.06455376
vn 0.09466548 0.3679095 0.9250302
vn 0.9138826 0.2281504 0.3358065
vn 0.6037176 0.2120786 -0.7684711
vn 0.4224991 0.3528325 -0.8348675
vn -0.5924431 0.2031783 -0.7795702
vn -0.3815114 0.03612515 -0.923658
vn -0.7607969 0.1491557 -0.6316174
vn 0.7482567 -0.03727984 -0.6623611
vn 0.8721591 -0.002123461 0.4892179
vn 0.9948359 0.01890376 0.0997207
vn 0.2161866 0.04990588 0.9750758
vn 0.4039593 0.04183508 -0.9138199
vn -0.7431414 0.08706606 -0.6634458
vn 0.03629099 0.9993199 -0.006538304
vn 0.03629099 0.9993199 -0.006538304
vn 0.03629099 0.9993199 -0.006538304
vn -0.2016543 0.110392 0.9732159
vn -0.8577844 0.09191308 0.5057252
vn 0.03629099 0.9993199 -0.006538304
vn -0.1104082 0.2687171 0.9568706
vn -0.989709 0.1269305 0.06606756
vn -0.7431414 0.08706606 -0.6634458
vn 0.03629099 0.9993199 -0.006538304
vn -0.9401514 0.1847897 0.286301
vn -0.3815114 0.03612515 -0.923658
vn -0.8994744 0.1085837 0.4232675
vn 0.09466548 0.3679095 0.9250302
vn -0.7607969 0.1491557 -0.6316174
vn -0.5924431 0.2031783 -0.7795702
vn 0.09466548 0.3679095 0.9250302
vn -0.7085344 0.4854238 -0.5121941
vn 0.3508799 0.455157 -0.8183615
vn -0.6743276 0.2935927 -0.6775586
vn 0.4780962 0.3178102 -0.8187922
vn 0.9482979 0.3166524 -0.0215039
vn 0.9426471 0.2905923 0.164233
vn 0.4204232 0.4639048 0.779767
vn 0.9346614 0.09886093 0.3415177
vn 0.1605684 0.4317344 0.887594
vn -0.05443884 0.1413103 0.9884674
vn 0.3792684 0.02568858 0.9249299
vn 0.9943392 -0.01207617 -0.1055638
vn 0.1036595 0.9933901 0.04930444
vn 0.6334869 0.02590606 -0.7733195
vn 0.2061035 0.02849757 -0.9781151
vn 0.1036595 0.9933901 0.04930444
vn 0.4780962 0.3178102 -0.8187922
vn -0.5487311 0.01211686 -0.835911
vn -0.8497275 0.08272719 -0.5206912
vn 0.1036595 0.9933901 0.04930444
vn -0.9657654 0.07436064 0.2485312
vn -0.7692397 0.08217213 0.6336545
vn 0.1036595 0.9933901 0.04930444
vn -0.8242569 0.4388413 0.3577974
vn -0.05443884 0.1413103 0.9884674
vn 0.1605684 0.4317344 0.887594
vn 0.3792684 0.02568858 0.9249299
vn 0.1036595 0.9933901 0.04930444
vn -0.6413476 0.6099839 0.4653954
vn 0.4204232 0.4639048 0.779767
vn -0.256882 0.5908834 -0.764767
vn 0.856413 0.1022663 0.5060616
vn -0.4050773 0.6811759 0.6098458
vn -0.6016777 -0.6801015 0.4188627
vn -0.4050773 0.6811759 0.6098458
vn 0.856413 0.1022663 0.5060616
vn -0.6016777 -0.6801015 0.4188627
vn -0.4050773 0.6811759 0.6098458
vn -0.3912 0.6032665 0.6950052
vn -0.2208414 0.1485184 -0.9639353
vn 0.7497621 0.65452 -0.09726457
vn 0.6808507 -0.7023141 0.2078393
vn -0.3912 0.6032665 0.6950052
vn 0.7497621 0.65452 -0.09726457
vn -0.2208414 0.1485184 -0.9639353
vn 0.6808507 -0.7023141 0.2078393
vn 0.7497621 0.65452 -0.09726457
vn 0.8141211 0.5213563 -0.2557234
vn -0.09673688 0.2682929 0.958468
vn -0.549471 0.7966487 -0.2518578
vn -0.5914652 -0.5562402 -0.5837515
vn 0.8141211 0.5213563 -0.2557234
vn -0.549471 0.7966487 -0.2518578
vn -0.09673688 0.2682929 0.958468
vn -0.5914652 -0.5562402 -0.5837515
vn -0.549471 0.7966487 -0.2518578
vn -0.2429038 0.3767923 -0.8938822
vn 0.8514918 0.3482876 -0.3919914
vn 0.01590029 0.2539774 -0.9670795
vn -0.9189098 0.2534945 -0.302234
vn -0.9152043 0.3889343 -0.1055042
vn -0.5262805 0.1999341 0.8264716
vn -0.7386832 0.02816909 0.6734639
vn -0.3322604 0.1359927 0.9333322
vn -0.875204 -0.004608425 -0.483732
vn 0.1690774 0.01950189 -0.9854097
vn -0.2447966 0.01892207 -0.9693898
vn 0.8465758 0.00875905 -0.5321962
vn -0.9972286 0.03067128 -0.06778201
vn -0.3735503 0.02783316 0.9271923
vn 0.01443542 0.9998894 -0.003601225
vn 0.01443542 0.9998894 -0.003601225
vn 0.01443542 0.9998894 -0.003601225
vn 0.9869624 0.08292084 -0.1379471
vn 0.7668684 0.0142527 0.641646
vn 0.01443542 0.9998894 -0.003601225
vn 0.9470425 0.2407053 -0.212536
vn 0.4043181 0.0813031 0.9109976
vn -0.3735503 0.02783316 0.9271923
vn 0.01443542 0.9998894 -0.003601225
vn 0.5930218 0.1422202 0.7925268
vn -0.7386832 0.02816909 0.6734639
vn 0.7054172 0.06424259 0.705875
vn 0.8514918 0.3482876 -0.3919914
vn -0.3322604 0.1359927 0.9333322
vn -0.5262805 0.1999341 0.8264716
vn 0.8514918 0.3482876 -0.3919914

vt 0.6 0
vt 0.4 0
vt 0.6 0.238785
vt 0.8 0.239928
vt 0.8 0
vt 1 0.241775
vt 1 0.94415
vt 1 0
vt 0.8 0.94415
vt 0.6 0.94415
vt 0.599999 1.888299
vt 0.399999 1.888299
vt 0.8 1.888299
vt 1 1.888299
vt 0.499999 2.832449
vt 0.499999 2.832449
vt 0.499999 2.832449
vt 0.4 0.94415
vt 0.199999 1.888299
vt 0.499999 2.832449
vt 0.4 0.239928
vt 0.2 0.94415
vt 0 1.888299
vt 0.499999 2.832449
vt 0.2 0.241775
vt 0 0.94415
vt 0.2 0
vt 0.4 0
vt 0 1E-06
vt 0 0.241776
vt 0.4 0
vt 0.6 0
vt 0.4 0
vt 0.6 0.238785
vt 0.4 0.239928
vt 0.2 0
vt 0.2 0.241775
vt 0 1E-06
vt 0.2 0.94415
vt 0 0.241776
vt 0 0.94415
vt 0 1.888299
vt 0.199999 1.888299
vt 0.499999 2.832449
vt 0.4 0.94415
vt 0.399999 1.888299
vt 0.499999 2.832449
vt 0.4 0.239928
vt 0.6 0.94415
vt 0.599999 1.888299
vt 0.499999 2.832449
vt 0.8 0.94415
vt 0.8 1.888299
vt 0.499999 2.832449
vt 0.8 0.239928
vt 1 0.94415
vt 1 0.241775
vt 1 1.888299
vt 0.499999 2.832449
vt 0.8 0
vt 1 0
vt 0.349999 1.888299
vt 0 1.888299
vt 0.499999 2.832449
vt 0.8 1.888299
vt 0.499999 2.832449
vt 1 1.888299
vt 0.8 1.888299
vt 0.499999 2.832449
vt 0.349999 1.888299
vt 0 1.888299
vt 0.499999 2.832449
vt 0.8 1.888299
vt 0.349999 1.888299
vt 0.499999 2.832449
vt 1 1.888299
vt 0.8 1.888299
vt 0.499999 2.832449
vt 0.349999 1.888299
vt 0 1.888299
vt 0.499999 2.832449
vt 0.8 1.888299
vt 0.349999 1.888299
vt 0.499999 2.832449
vt 1 1.888299
vt 0.8 1.888299
vt 0.499999 2.832449
vt 0.6 0
vt 0.4 0
vt 0.6 0.238785
vt 0.8 0.239928
vt 0.8 0
vt 1 0.241775
vt 1 0.94415
vt 1 0
vt 0.8 0.94415
vt 0.6 0.94415
vt 0.599999 3.698042
vt 0.399999 3.698042
vt 0.8 3.698042
vt 1 3.698042
vt 0.499999 4.642191
vt 0.499999 4.642191
vt 0.499999 4.642191
vt 0.4 0.94415
vt 0.199999 3.698041
vt 0.499999 4.642191
vt 0.4 0.239928
vt 0.2 0.94415
vt 0 3.698042
vt 0.499999 4.642191
vt 0.2 0.241775
vt 0 0.94415
vt 0.2 0
vt 0.4 0
vt 0 1E-06
vt 0 0.241776
vt 0.4 0




usemtl Bark_02
usemap Bark_02
f 62/62/62 64/64/64 63/63/63
f 65/65/65 66/66/66 62/62/62
f 67/67/67 69/69/69 68/68/68
f 70/70/70 72/72/72 71/71/71
f 73/73/73 75/75/75 74/74/74
f 76/76/76 78/78/78 77/77/77
f 79/79/79 81/81/81 80/80/80
f 82/82/82 84/84/84 83/83/83
f 85/85/85 87/87/87 86/86/86
f 14/14/14 17/17/17 13/13/13
f 14/14/14 13/13/13 7/7/7
f 7/7/7 13/13/13 9/9/9
f 7/7/7 9/9/9 4/4/4
f 4/4/4 9/9/9 3/3/3
f 4/4/4 3/3/3 1/1/1
f 1/1/1 3/3/3 2/2/2
f 4/4/4 1/1/1 5/5/5
f 4/4/4 5/5/5 6/6/6
f 6/6/6 5/5/5 8/8/8
f 11/11/11 15/15/15 12/12/12
f 11/11/11 12/12/12 10/10/10
f 10/10/10 12/12/12 18/18/18
f 10/10/10 18/18/18 21/21/21
f 21/21/21 18/18/18 25/25/25
f 21/21/21 25/25/25 27/27/27
f 27/27/27 25/25/25 29/29/29
f 21/21/21 31/31/31 3/3/3
f 21/21/21 3/3/3 10/10/10
f 10/10/10 3/3/3 9/9/9
f 10/10/10 9/9/9 11/11/11
f 11/11/11 9/9/9 13/13/13
f 11/11/11 13/13/13 16/16/16
f 26/26/26 30/30/30 25/25/25
f 26/26/26 25/25/25 22/22/22
f 22/22/22 25/25/25 18/18/18
f 22/22/22 18/18/18 19/19/19
f 19/19/19 18/18/18 12/12/12
f 19/19/19 12/12/12 20/20/20
f 19/19/19 24/24/24 23/23/23
f 19/19/19 23/23/23 22/22/22
f 22/22/22 23/23/23 26/26/26
f 28/28/28 21/21/21 27/27/27
f 48/48/48 45/45/45 39/39/39
f 39/39/39 45/45/45 43/43/43
f 39/39/39 43/43/43 42/42/42
f 42/42/42 43/43/43 44/44/44
f 33/33/33 32/32/32 34/34/34
f 33/33/33 34/34/34 35/35/35
f 35/35/35 34/34/34 49/49/49
f 35/35/35 49/49/49 45/45/45
f 45/45/45 49/49/49 46/46/46
f 45/45/45 46/46/46 43/43/43
f 43/43/43 46/46/46 47/47/47
f 32/32/32 60/60/60 55/55/55
f 32/32/32 55/55/55 34/34/34
f 34/34/34 55/55/55 52/52/52
f 34/34/34 52/52/52 49/49/49
f 49/49/49 52/52/52 50/50/50
f 49/49/49 50/50/50 46/46/46
f 46/46/46 50/50/50 51/51/51
f 60/60/60 61/61/61 57/57/57
f 60/60/60 57/57/57 55/55/55
f 55/55/55 57/57/57 56/56/56
f 55/55/55 56/56/56 52/52/52
f 52/52/52 56/56/56 53/53/53
f 52/52/52 53/53/53 50/50/50
f 50/50/50 53/53/53 54/54/54
f 58/58/58 59/59/59 53/53/53
f 58/58/58 53/53/53 56/56/56
f 101/101/101 104/104/104 100/100/100
f 101/101/101 100/100/100 94/94/94
f 94/94/94 100/100/100 96/96/96
f 94/94/94 96/96/96 91/91/91
f 91/91/91 96/96/96 90/90/90
f 91/91/91 90/90/90 88/88/88
f 88/88/88 90/90/90 89/89/89
f 91/91/91 88/88/88 92/92/92
f 91/91/91 92/92/92 93/93/93
f 93/93/93 92/92/92 95/95/95
f 98/98/98 102/102/102 99/99/99
f 98/98/98 99/99/99 97/97/97
f 97/97/97 99/99/99 105/105/105
f 97/97/97 105/105/105 108/108/108
f 108/108/108 105/105/105 112/112/112
f 108/108/108 112/112/112 114/114/114
f 114/114/114 112/112/112 116/116/116
f 108/108/108 118/118/118 90/90/90
f 108/108/108 90/90/90 97/97/97
f 97/97/97 90/90/90 96/96/96
f 97/97/97 96/96/96 98/98/98
f 98/98/98 96/96/96 100/100/100
f 98/98/98 100/100/100 103/103/103
f 113/113/113 117/117/117 112/112/112
f 113/113/113 112/112/112 109/109/109
f 109/109/109 112/112/112 105/105/105
f 109/109/109 105/105/105 106/106/106
f 106/106/106 105/105/105 99/99/99
f 106/106/106 99/99/99 107/107/107
f 106/106/106 111/111/111 110/110/110
f 106/106/106 110/110/110 109/109/109
f 109/109/109 110/110/110 113/113/113
f 115/115/115 108/108/108 114/114/114
f 6/6/6 7/7/7 4/4/4
f 25/25/25 30/30/30 29/29/29
f 36/36/36 33/33/33 35/35/35
f 36/36/36 35/35/35 37/37/37
f 37/37/37 35/35/35 39/39/39
f 37/37/37 39/39/39 40/40/40
f 40/40/40 39/39/39 41/41/41
f 37/37/37 40/40/40 38/38/38
f 37/37/37 38/38/38 36/36/36
f 41/41/41 39/39/39 42/42/42
f 93/93/93 94/94/94 91/91/91
f 112/112/112 117/117/117 116/116/116

