g NewMesh_tris_64
v 2.307024 0.9265464 0.2004508
v 2.249105 -0.1525321 0.6122069
v 2.062683 0.8871049 0.7379989
v 2.288517 -0.147732 0.218514
v -0.8188131 1.018574 1.213196
v -1.034681 0.08786284 1.499591
v -1.227911 0.984555 1.516532
v -0.840327 0.09200288 1.219084
v 12.12211 1.256408 15.34578
v 11.88109 0.4732937 15.52736
v 11.72087 1.227784 15.49625
v 12.10334 0.4767772 15.34556
v 10.43708 0.9867815 13.27361
v 10.49877 0.1482809 12.95645
v 10.64854 0.9561334 12.86642
v 10.45217 0.1520107 13.26035
v -0.1201118 0.9722726 3.973184
v -0.2739771 0.218618 3.726883
v -0.2307096 0.9447258 3.575889
v -0.1183195 0.2219704 3.955211
v 0.3063461 1.027594 2.178499
v 0.3943309 0.08332142 2.531565
v 0.2843124 0.9930803 2.694738
v 0.2972518 0.08752179 2.199222
v 1.761962 0.5919332 23.50897
v 1.559487 -0.2090949 23.276
v 1.579802 0.5626547 23.11029
v 1.760856 -0.2055317 23.48981
v 0.568674 0.462044 24.92717
v 0.7327691 -0.389476 24.64303
v 0.9063513 0.43092 24.6061
v 0.5875542 -0.3856882 24.91943
v 1.886168 0.8293769 23.24883
v 2.30827 -0.2666946 23.23414
v 2.466983 0.7893143 23.39844
v 1.907501 -0.261819 23.26416
v 2.276085 0.5933484 23.49095
v 2.573459 -0.3267559 23.29788
v 2.758695 0.5597177 23.34748
v 2.298062 -0.3226631 23.49275
v -9.76184 0.5721693 8.219904
v -9.73033 -0.2109849 8.520033
v -9.839523 0.5435442 8.641348
v -9.771701 -0.2075012 8.235873
v 0.681168 1.019676 3.106278
v 0.6444093 -0.1273357 3.009977
v 0.9040333 0.9270188 3.410342
v 10.39607 1.473783 14.57721
v 10.27472 0.06837769 14.54216
v 10.85795 1.360253 14.58334
v 10.85308 1.085099 12.2185
v 10.95395 -0.2671665 12.15073
v 10.5629 0.9758618 12.55515
v 2.311245 0.4012915 24.609
v 2.376778 -0.8425768 24.69956
v 1.992453 0.3008103 24.35305
v 2.500916 0.1684038 25.4075
v 2.529196 -1.038928 25.30275
v 2.502577 0.07087411 25.80431
v -8.824057 0.8253437 7.578952
v -8.820147 -0.3575958 7.472717
v -8.735011 0.7297844 7.957419
v -8.553889 0.8702443 9.252126
v -8.514851 -0.3933132 9.145494
v -8.588353 0.7681726 9.665992
v -5.846696 1.272309 -0.9558216
v -5.726222 -0.09768304 -0.9811921
v -6.24704 1.161639 -0.7497214
v -4.768958 0.7682967 -6.910607
v -4.786848 -0.5195538 -7.024952
v -4.595177 0.6642626 -6.524643
v -6.072605 1.024632 -5.16562
v -6.198205 -0.3747704 -5.159275
v -5.635768 0.9115867 -5.309581
v 1.205136 0.8167598 2.386399
v 1.88582 0.905628 2.343509
v 1.71495 -0.02498087 2.252796
v 4.375506 0.8544655 4.29836
v 5.12829 0.953423 4.197845
v 4.931439 -0.08283882 4.110351
v 9.300938 1.147728 18.49093
v 10.02377 1.24416 18.64979
v 9.872676 0.2343404 18.50406
v -0.4402934 1.109423 3.296411
v -0.2219554 1.208972 4.02856
v -0.1660002 0.1665078 3.819199
v 12.39439 1.220037 16.38125
v 12.51008 1.296339 15.80719
v 12.39688 0.4973152 15.92874
v 12.20743 0.8686558 12.68828
v 12.45466 0.9569616 12.05726
v 12.30121 0.0322415 12.17305
v 0.5832656 0.3576069 25.29259
v 1.138652 0.4477536 24.88005
v 0.9431705 -0.496244 24.89727
v 3.668778 0.3443065 24.04432
v 2.889153 0.4521425 24.32202
v 3.118801 -0.6770934 24.37068
v -12.20236 0.6416752 6.957715
v -11.57905 0.737036 6.574171
v -11.78664 -0.2615634 6.574302
v -11.37277 0.5554076 6.382148
v -11.9834 0.6409851 6.623981
v -11.79992 -0.2551636 6.656214
v -9.804035 0.8793656 4.967513
v -9.522845 0.9716404 4.317553
v -9.687316 0.005357399 4.432873
v -9.098155 0.8353901 4.666749
v -9.746675 0.925092 4.897745
v -9.555646 -0.01424739 4.938223
v -8.501818 0.8730417 -5.871009
v -7.77348 0.970597 -5.697567
v -7.923742 -0.05098184 -5.847638
v -0.2827195 0.8976387 0.05780884
v 0.2256248 0.7653984 -0.4046147
v -0.002423102 -0.07247899 0.02111946
v 0.9423079 1.002466 -0.4673888
v 0.9745994 0.8470694 0.3395032
v 0.763615 -0.1375256 -0.1873575
v 2.203037 0.9616477 4.391752
v 2.804818 0.8450474 4.462533
v 2.389595 0.1062649 4.557052
v 12.79996 1.453484 14.28885
v 13.03426 1.301794 15.0415
v 12.70222 0.3406815 14.59803
v 9.250702 1.431 16.48417
v 9.166088 1.302714 15.82291
v 9.37751 0.4898892 16.24102
v 9.827123 1.458345 15.32358
v 9.460969 1.314331 14.67088
v 9.856857 0.4018536 15.01717
v 11.1959 1.442812 15.14482
v 10.55933 1.302356 15.50192
v 10.89706 0.4124242 15.11582
v 10.99509 1.21814 15.05687
v 10.63268 1.105596 14.59784
v 10.98059 0.3925131 14.81673
v 1.749856 0.9338801 3.796335
v 1.461879 0.8220603 4.301043
v 1.53403 0.1135677 3.899081
v -0.9599992 1.152021 1.75132
v -0.3984069 1.00355 1.222255
v -0.6460651 0.06282794 1.704641
v 0.9921662 1.255425 4.686404
v 1.125012 1.103829 3.909899
v 1.219477 0.1433155 4.455435
v 0.500341 0.8310797 23.7809
v -0.007628521 0.6967845 24.25945
v 0.2163824 -0.1541135 23.82312
v 0.5186812 0.7845432 23.59181
v 1.069864 0.6545964 23.20167
v 0.7964571 -0.1687499 23.58959
v -11.52334 0.6533356 7.93799
v -11.45925 0.5195997 8.630004
v -11.66431 -0.3277539 8.186707
v -11.22175 0.6637158 7.244505
v -11.33418 0.542621 6.625344
v -11.11423 -0.2246386 7.009031
v -10.68254 0.8874279 5.527122
v -10.50328 0.7476918 6.230805
v -10.78736 -0.1376788 5.806839
v -10.80057 0.9168503 5.929913
v -11.34794 0.7735059 5.424667
v -10.86667 -0.1347278 5.630702
v -10.26151 0.8469667 7.556402
v -9.89605 0.7050617 6.915901
v -9.987614 -0.1940522 7.426012
v -9.793204 1.080998 -7.355539
v -9.163499 0.9244267 -7.870796
v -9.459517 -0.06761458 -7.381551

vn 0.9338946 0.08258537 0.3478801
vn 0.9793692 0.02398823 0.2006507
vn 0.9016399 0.1110902 0.4179766
vn 0.994926 -0.01544286 0.09941695
vn 0.6481465 0.08258537 0.7570242
vn 0.7592978 0.02398823 0.6503011
vn 0.5859525 0.1110902 0.8026946
vn 0.8219832 -0.01544286 0.5693022
vn 0.4143745 0.08258537 0.9063517
vn 0.5506368 0.02398823 0.8344003
vn 0.3420013 0.1110902 0.9331098
vn 0.6332203 -0.01544286 0.7738175
vn -0.914408 0.08258537 -0.3962798
vn -0.9675257 0.02398823 -0.2516322
vn -0.8785289 0.1110902 -0.4645922
vn -0.9883594 -0.01544286 -0.1513514
vn -0.9390181 0.08258537 0.3338034
vn -0.8792166 0.02398823 0.4758182
vn -0.9593666 0.1110902 0.2593735
vn -0.826062 -0.01544286 0.5633675
vn 0.9962102 0.08258537 -0.02729427
vn 0.9832204 0.02398823 -0.1808381
vn 0.9925627 0.1110902 0.04978087
vn 0.9597216 -0.01544286 -0.280528
vn -0.8752384 0.08258537 0.4765894
vn -0.793957 0.02398823 0.6075007
vn -0.9069799 0.1110902 0.4062591
vn -0.727761 -0.01544286 0.6856569
vn -0.7355735 0.08258537 -0.6723922
vn -0.83289 0.02398823 -0.5529187
vn -0.6794088 0.1110902 -0.7253017
vn -0.8852369 -0.01544286 -0.4648841
vn 0.1804258 0.08258537 -0.9801154
vn 0.02753659 0.02398823 -0.999333
vn 0.2550583 0.1110902 -0.9605228
vn -0.0748606 -0.01544286 -0.9970744
vn -0.3501415 0.08258537 -0.9330491
vn -0.491091 0.02398823 -0.870778
vn -0.276078 0.1110902 -0.9546936
vn -0.5776992 -0.01544286 -0.8161036
vn 0.9903138 0.08258537 0.1116172
vn 0.9988196 0.02398823 -0.04224015
vn 0.975975 0.1110902 0.1874346
vn 0.9894236 -0.01544286 -0.1442304
vn 0.8097002 0.02325577 -0.5863829
vn 0.8097002 0.02325577 -0.5863829
vn 0.8097002 0.02325577 -0.5863829
vn 0.0189841 0.02325577 -0.9995493
vn 0.0189841 0.02325577 -0.9995493
vn 0.0189841 0.02325577 -0.9995493
vn 0.7534969 0.02325577 0.6570402
vn 0.7534969 0.02325577 0.6570402
vn 0.7534969 0.02325577 0.6570402
vn -0.6303434 0.02325577 0.7759681
vn -0.6303434 0.02325577 0.7759681
vn -0.6303434 0.02325577 0.7759681
vn 0.9997284 0.02325577 0.001536351
vn 0.9997284 0.02325577 0.001536351
vn 0.9997284 0.02325577 0.001536351
vn 0.9744511 0.02325577 -0.2233931
vn 0.9744511 0.02325577 -0.2233931
vn 0.9744511 0.02325577 -0.2233931
vn 0.9957902 0.02325577 0.08866294
vn 0.9957902 0.02325577 0.08866294
vn 0.9957902 0.02325577 0.08866294
vn 0.4524981 0.02325577 0.8914621
vn 0.4524981 0.02325577 0.8914621
vn 0.4524981 0.02325577 0.8914621
vn 0.9139221 0.02325577 -0.4052229
vn 0.9139221 0.02325577 -0.4052229
vn 0.9139221 0.02325577 -0.4052229
vn -0.3074715 0.02325577 -0.9512731
vn -0.3074715 0.02325577 -0.9512731
vn -0.3074715 0.02325577 -0.9512731
vn 0.07688383 -0.1106925 0.9908764
vn 0.07688383 -0.1106925 0.9908764
vn 0.07688383 -0.1106925 0.9908764
vn 0.1458168 -0.1106925 0.9830995
vn 0.1458168 -0.1106925 0.9830995
vn 0.1458168 -0.1106925 0.9830995
vn -0.1992173 -0.1106925 0.9736836
vn -0.1992173 -0.1106925 0.9736836
vn -0.1992173 -0.1106925 0.9736836
vn -0.9481851 -0.1106925 0.2978123
vn -0.9481851 -0.1106925 0.2978123
vn -0.9481851 -0.1106925 0.2978123
vn 0.9770122 -0.1106925 0.1821937
vn 0.9770122 -0.1106925 0.1821937
vn 0.9770122 -0.1106925 0.1821937
vn 0.9305317 -0.1106925 0.3490817
vn 0.9305317 -0.1106925 0.3490817
vn 0.9305317 -0.1106925 0.3490817
vn 0.6041507 -0.1106925 0.7891446
vn 0.6041507 -0.1106925 0.7891446
vn 0.6041507 -0.1106925 0.7891446
vn -0.3470283 -0.1106925 -0.9312994
vn -0.3470283 -0.1106925 -0.9312994
vn -0.3470283 -0.1106925 -0.9312994
vn 0.5330728 -0.1106925 0.838797
vn 0.5330728 -0.1106925 0.838797
vn 0.5330728 -0.1106925 0.838797
vn -0.3793185 -0.1106925 -0.918621
vn -0.3793185 -0.1106925 -0.918621
vn -0.3793185 -0.1106925 -0.918621
vn 0.9177821 -0.1106925 0.3813439
vn 0.9177821 -0.1106925 0.3813439
vn 0.9177821 -0.1106925 0.3813439
vn -0.3470282 -0.1106925 -0.9312994
vn -0.3470282 -0.1106925 -0.9312994
vn -0.3470282 -0.1106925 -0.9312994
vn -0.2161793 -0.1106925 0.9700586
vn -0.2161793 -0.1106925 0.9700586
vn -0.2161793 -0.1106925 0.9700586
vn 0.6869965 0.1717606 0.7060696
vn 0.6869965 0.1717606 0.7060696
vn 0.6869965 0.1717606 0.7060696
vn -0.9824735 0.1717606 0.07241713
vn -0.9824735 0.1717606 0.07241713
vn -0.9824735 0.1717606 0.07241713
vn -0.08216739 0.1717606 0.9817061
vn -0.08216739 0.1717606 0.9817061
vn -0.08216739 0.1717606 0.9817061
vn -0.9302536 0.1717606 0.3242324
vn -0.9302536 0.1717606 0.3242324
vn -0.9302536 0.1717606 0.3242324
vn 0.9724233 0.1717606 -0.1577698
vn 0.9724233 0.1717606 -0.1577698
vn 0.9724233 0.1717606 -0.1577698
vn 0.8425137 0.1717606 -0.5105575
vn 0.8425137 0.1717606 -0.5105575
vn 0.8425137 0.1717606 -0.5105575
vn -0.5105577 0.1717606 -0.8425137
vn -0.5105577 0.1717606 -0.8425137
vn -0.5105577 0.1717606 -0.8425137
vn 0.7522719 0.1717606 -0.6360702
vn 0.7522719 0.1717606 -0.6360702
vn 0.7522719 0.1717606 -0.6360702
vn -0.8715599 0.1717606 -0.4592186
vn -0.8715599 0.1717606 -0.4592186
vn -0.8715599 0.1717606 -0.4592186
vn 0.6992147 0.1717606 0.6939721
vn 0.6992147 0.1717606 0.6939721
vn 0.6992147 0.1717606 0.6939721
vn 0.9760605 0.1717606 0.1334332
vn 0.9760605 0.1717606 0.1334332
vn 0.9760605 0.1717606 0.1334332
vn -0.6992145 0.1717606 -0.6939723
vn -0.6992145 0.1717606 -0.6939723
vn -0.6992145 0.1717606 -0.6939723
vn 0.5958273 0.1717606 0.7845305
vn 0.5958273 0.1717606 0.7845305
vn 0.5958273 0.1717606 0.7845305
vn -0.977337 0.1717606 0.1237366
vn -0.977337 0.1717606 0.1237366
vn -0.977337 0.1717606 0.1237366
vn 0.9628336 0.1717606 -0.2084462
vn 0.9628336 0.1717606 -0.2084462
vn 0.9628336 0.1717606 -0.2084462
vn -0.9459477 0.1717606 0.2751024
vn -0.9459477 0.1717606 0.2751024
vn -0.9459477 0.1717606 0.2751024
vn 0.6435069 0.1717606 -0.7459204
vn 0.6435069 0.1717606 -0.7459204
vn 0.6435069 0.1717606 -0.7459204
vn 0.8715602 0.1717606 0.4592181
vn 0.8715602 0.1717606 0.4592181
vn 0.8715602 0.1717606 0.4592181
vn 0.6491024 0.1717606 0.7410563
vn 0.6491024 0.1717606 0.7410563
vn 0.6491024 0.1717606 0.7410563

vt 0.99898 0.999323
vt 0.760851 0.300332
vt 0.645684 0.999934
vt 0.98965 0.304891
vt 0.99898 0.999323
vt 0.760851 0.300332
vt 0.645684 0.999934
vt 0.98965 0.304891
vt 0.99898 0.999323
vt 0.760851 0.300332
vt 0.645684 0.999934
vt 0.98965 0.304891
vt 0.99898 0.999323
vt 0.760851 0.300332
vt 0.645684 0.999934
vt 0.98965 0.304891
vt 0.99898 0.999323
vt 0.760851 0.300332
vt 0.645684 0.999934
vt 0.98965 0.304891
vt 0.99898 0.999323
vt 0.760851 0.300332
vt 0.645684 0.999934
vt 0.98965 0.304891
vt 0.99898 0.999323
vt 0.760851 0.300332
vt 0.645684 0.999934
vt 0.98965 0.304891
vt 0.99898 0.999323
vt 0.760851 0.300332
vt 0.645684 0.999934
vt 0.98965 0.304891
vt 0.99898 0.999323
vt 0.760851 0.300332
vt 0.645684 0.999934
vt 0.98965 0.304891
vt 0.99898 0.999323
vt 0.760851 0.300332
vt 0.645684 0.999934
vt 0.98965 0.304891
vt 0.99898 0.999323
vt 0.760851 0.300332
vt 0.645684 0.999934
vt 0.98965 0.304891
vt -0.006391 0.021864
vt 0.081192 0.876851
vt 0.298698 0.008629
vt -0.006391 0.021864
vt 0.081192 0.876851
vt 0.298698 0.008629
vt -0.006391 0.021864
vt 0.081192 0.876851
vt 0.298698 0.008629
vt -0.006391 0.021864
vt 0.081192 0.876851
vt 0.298698 0.008629
vt -0.006391 0.021864
vt 0.081192 0.876851
vt 0.298698 0.008629
vt -0.006391 0.021864
vt 0.081192 0.876851
vt 0.298698 0.008629
vt -0.006391 0.021864
vt 0.081192 0.876851
vt 0.298698 0.008629
vt -0.006391 0.021864
vt 0.081192 0.876851
vt 0.298698 0.008629
vt -0.006391 0.021864
vt 0.081192 0.876851
vt 0.298698 0.008629
vt -0.006391 0.021864
vt 0.081192 0.876851
vt 0.298698 0.008629
vt 0.876737 0.001002
vt 0.308069 1.7E-05
vt 0.614817 0.684772
vt 0.876737 0.001002
vt 0.308069 1.7E-05
vt 0.614817 0.684772
vt 0.876737 0.001002
vt 0.308069 1.7E-05
vt 0.614817 0.684772
vt 0.876737 0.001002
vt 0.308069 1.7E-05
vt 0.614817 0.684772
vt 0.876737 0.001002
vt 0.308069 1.7E-05
vt 0.614817 0.684772
vt 0.876737 0.001002
vt 0.308069 1.7E-05
vt 0.614817 0.684772
vt 0.876737 0.001002
vt 0.308069 1.7E-05
vt 0.614817 0.684772
vt 0.876737 0.001002
vt 0.308069 1.7E-05
vt 0.614817 0.684772
vt 0.876737 0.001002
vt 0.308069 1.7E-05
vt 0.614817 0.684772
vt 0.876737 0.001002
vt 0.308069 1.7E-05
vt 0.614817 0.684772
vt 0.876737 0.001002
vt 0.308069 1.7E-05
vt 0.614817 0.684772
vt 0.876737 0.001002
vt 0.308069 1.7E-05
vt 0.614817 0.684772
vt 0.876737 0.001002
vt 0.308069 1.7E-05
vt 0.614817 0.684772
vt 0.027463 0.999213
vt 0.567618 0.999236
vt 0.272825 0.305572
vt 0.027463 0.999213
vt 0.567618 0.999236
vt 0.272825 0.305572
vt 0.027463 0.999213
vt 0.567618 0.999236
vt 0.272825 0.305572
vt 0.027463 0.999213
vt 0.567618 0.999236
vt 0.272825 0.305572
vt 0.027463 0.999213
vt 0.567618 0.999236
vt 0.272825 0.305572
vt 0.027463 0.999213
vt 0.567618 0.999236
vt 0.272825 0.305572
vt 0.027463 0.999213
vt 0.567618 0.999236
vt 0.272825 0.305572
vt 0.027463 0.999213
vt 0.567618 0.999236
vt 0.272825 0.305572
vt 0.027463 0.999213
vt 0.567618 0.999236
vt 0.272825 0.305572
vt 0.027463 0.999213
vt 0.567618 0.999236
vt 0.272825 0.305572
vt 0.027463 0.999213
vt 0.567618 0.999236
vt 0.272825 0.305572
vt 0.027463 0.999213
vt 0.567618 0.999236
vt 0.272825 0.305572
vt 0.027463 0.999213
vt 0.567618 0.999236
vt 0.272825 0.305572
vt 0.027463 0.999213
vt 0.567618 0.999236
vt 0.272825 0.305572
vt 0.027463 0.999213
vt 0.567618 0.999236
vt 0.272825 0.305572
vt 0.027463 0.999213
vt 0.567618 0.999236
vt 0.272825 0.305572
vt 0.027463 0.999213
vt 0.567618 0.999236
vt 0.272825 0.305572
vt 0.027463 0.999213
vt 0.567618 0.999236
vt 0.272825 0.305572
vt 0.027463 0.999213
vt 0.567618 0.999236
vt 0.272825 0.305572



vc 1 1 1 1
vc 1 1 1 1
vc 1 1 1 1
vc 1 1 1 1
vc 1 1 1 1
vc 1 1 1 1
vc 1 1 1 1
vc 1 1 1 1
vc 1 1 1 1
vc 1 1 1 1
vc 1 1 1 1
vc 1 1 1 1
vc 1 1 1 1
vc 1 1 1 1
vc 1 1 1 1
vc 1 1 1 1
vc 1 1 1 1
vc 1 1 1 1
vc 1 1 1 1
vc 1 1 1 1
vc 1 1 1 1
vc 1 1 1 1
vc 1 1 1 1
vc 1 1 1 1
vc 1 1 1 1
vc 1 1 1 1
vc 1 1 1 1
vc 1 1 1 1
vc 1 1 1 1
vc 1 1 1 1
vc 1 1 1 1
vc 1 1 1 1
vc 1 1 1 1
vc 1 1 1 1
vc 1 1 1 1
vc 1 1 1 1
vc 1 1 1 1
vc 1 1 1 1
vc 1 1 1 1
vc 1 1 1 1
vc 1 1 1 1
vc 1 1 1 1
vc 1 1 1 1
vc 1 1 1 1
vc 1 1 1 1
vc 1 1 1 1
vc 1 1 1 1
vc 1 1 1 1
vc 1 1 1 1
vc 1 1 1 1
vc 1 1 1 1
vc 1 1 1 1
vc 1 1 1 1
vc 1 1 1 1
vc 1 1 1 1
vc 1 1 1 1
vc 1 1 1 1
vc 1 1 1 1
vc 1 1 1 1
vc 1 1 1 1
vc 1 1 1 1
vc 1 1 1 1
vc 1 1 1 1
vc 1 1 1 1
vc 1 1 1 1
vc 1 1 1 1
vc 1 1 1 1
vc 1 1 1 1
vc 1 1 1 1
vc 1 1 1 1
vc 1 1 1 1
vc 1 1 1 1
vc 1 1 1 1
vc 1 1 1 1
vc 1 1 1 1
vc 1 1 1 1
vc 1 1 1 1
vc 1 1 1 1
vc 1 1 1 1
vc 1 1 1 1
vc 1 1 1 1
vc 1 1 1 1
vc 1 1 1 1
vc 1 1 1 1
vc 1 1 1 1
vc 1 1 1 1
vc 1 1 1 1
vc 1 1 1 1
vc 1 1 1 1
vc 1 1 1 1
vc 1 1 1 1
vc 1 1 1 1
vc 1 1 1 1
vc 1 1 1 1
vc 1 1 1 1
vc 1 1 1 1
vc 1 1 1 1
vc 1 1 1 1
vc 1 1 1 1
vc 1 1 1 1
vc 1 1 1 1
vc 1 1 1 1
vc 1 1 1 1
vc 1 1 1 1
vc 1 1 1 1
vc 1 1 1 1
vc 1 1 1 1
vc 1 1 1 1
vc 1 1 1 1
vc 1 1 1 1
vc 1 1 1 1
vc 1 1 1 1
vc 1 1 1 1
vc 1 1 1 1
vc 1 1 1 1
vc 1 1 1 1
vc 1 1 1 1
vc 1 1 1 1
vc 1 1 1 1
vc 1 1 1 1
vc 1 1 1 1
vc 1 1 1 1
vc 1 1 1 1
vc 1 1 1 1
vc 1 1 1 1
vc 1 1 1 1
vc 1 1 1 1
vc 1 1 1 1
vc 1 1 1 1
vc 1 1 1 1
vc 1 1 1 1
vc 1 1 1 1
vc 1 1 1 1
vc 1 1 1 1
vc 1 1 1 1
vc 1 1 1 1
vc 1 1 1 1
vc 1 1 1 1
vc 1 1 1 1
vc 1 1 1 1
vc 1 1 1 1
vc 1 1 1 1
vc 1 1 1 1
vc 1 1 1 1
vc 1 1 1 1
vc 1 1 1 1
vc 1 1 1 1
vc 1 1 1 1
vc 1 1 1 1
vc 1 1 1 1
vc 1 1 1 1
vc 1 1 1 1
vc 1 1 1 1
vc 1 1 1 1
vc 1 1 1 1
vc 1 1 1 1
vc 1 1 1 1
vc 1 1 1 1
vc 1 1 1 1
vc 1 1 1 1
vc 1 1 1 1
vc 1 1 1 1
vc 1 1 1 1
vc 1 1 1 1
vc 1 1 1 1
vc 1 1 1 1
vc 1 1 1 1
vc 1 1 1 1
vc 1 1 1 1
vc 1 1 1 1

usemtl MEP_Lumie
usemap MEP_Lumie
f 45/45/45 47/47/47 46/46/46
f 48/48/48 50/50/50 49/49/49
f 51/51/51 53/53/53 52/52/52
f 54/54/54 56/56/56 55/55/55
f 57/57/57 59/59/59 58/58/58
f 60/60/60 62/62/62 61/61/61
f 63/63/63 65/65/65 64/64/64
f 66/66/66 68/68/68 67/67/67
f 69/69/69 71/71/71 70/70/70
f 72/72/72 74/74/74 73/73/73
f 75/75/75 77/77/77 76/76/76
f 78/78/78 80/80/80 79/79/79
f 81/81/81 83/83/83 82/82/82
f 84/84/84 86/86/86 85/85/85
f 87/87/87 89/89/89 88/88/88
f 90/90/90 92/92/92 91/91/91
f 93/93/93 95/95/95 94/94/94
f 96/96/96 98/98/98 97/97/97
f 99/99/99 101/101/101 100/100/100
f 102/102/102 104/104/104 103/103/103
f 105/105/105 107/107/107 106/106/106
f 108/108/108 110/110/110 109/109/109
f 111/111/111 113/113/113 112/112/112
f 114/114/114 116/116/116 115/115/115
f 117/117/117 119/119/119 118/118/118
f 120/120/120 122/122/122 121/121/121
f 123/123/123 125/125/125 124/124/124
f 126/126/126 128/128/128 127/127/127
f 129/129/129 131/131/131 130/130/130
f 132/132/132 134/134/134 133/133/133
f 135/135/135 137/137/137 136/136/136
f 138/138/138 140/140/140 139/139/139
f 141/141/141 143/143/143 142/142/142
f 144/144/144 146/146/146 145/145/145
f 147/147/147 149/149/149 148/148/148
f 150/150/150 152/152/152 151/151/151
f 153/153/153 155/155/155 154/154/154
f 156/156/156 158/158/158 157/157/157
f 159/159/159 161/161/161 160/160/160
f 162/162/162 164/164/164 163/163/163
f 165/165/165 167/167/167 166/166/166
f 168/168/168 170/170/170 169/169/169
f 1/1/1 3/3/3 2/2/2
f 1/1/1 2/2/2 4/4/4
f 5/5/5 7/7/7 6/6/6
f 5/5/5 6/6/6 8/8/8
f 9/9/9 11/11/11 10/10/10
f 9/9/9 10/10/10 12/12/12
f 13/13/13 15/15/15 14/14/14
f 13/13/13 14/14/14 16/16/16
f 17/17/17 19/19/19 18/18/18
f 17/17/17 18/18/18 20/20/20
f 21/21/21 23/23/23 22/22/22
f 21/21/21 22/22/22 24/24/24
f 25/25/25 27/27/27 26/26/26
f 25/25/25 26/26/26 28/28/28
f 29/29/29 31/31/31 30/30/30
f 29/29/29 30/30/30 32/32/32
f 33/33/33 35/35/35 34/34/34
f 33/33/33 34/34/34 36/36/36
f 37/37/37 39/39/39 38/38/38
f 37/37/37 38/38/38 40/40/40
f 41/41/41 43/43/43 42/42/42
f 41/41/41 42/42/42 44/44/44

