g NewMesh_tris_120
v -0.5915684 -0.2596689 -4.160491
v 2.603141 -10.899 -0.981317
v 0.4479893 -11.04925 3.013449
v 0.5594352 -7.171976 -5.429147
v -0.1217326 -6.931074 1.474002
v 0.1322513 -4.044764 -3.005723
v -1.576211 -11.74272 2.509568
v -5.490912 -11.8667 0.1583223
v -8.079032 -9.201289 -1.537367
v 5.717734 -10.50806 -1.344081
v 0.1369139 -2.954429 -3.116361
v 7.466235 -9.912746 1.198424
v 1.278241 -8.829056 -2.351537
v -1.773558 -0.714082 -4.214753
v -0.3743822 -0.5896403 -3.86126
v 2.209358 -9.023572 -1.190506
v 1.843514 -8.832836 -2.341102
v -2.818339 -2.772131 -7.243699
v -0.364521 -2.424214 -3.290109
v -4.188155 -7.09105 -7.995467
v -0.165394 -8.764896 -7.135171
v 3.873965 -7.190431 -6.875926
v 2.603141 -10.899 -0.981317
v -0.5915684 -0.2596689 -4.160491
v 0.4479893 -11.04925 3.013449
v 0.5594352 -7.171976 -5.429147
v -0.1217326 -6.931074 1.474002
v -1.576211 -11.74272 2.509568
v 0.1322513 -4.044764 -3.005723
v -5.490912 -11.8667 0.1583223
v -8.079032 -9.201289 -1.537367
v 5.717734 -10.50806 -1.344081
v 7.466235 -9.912746 1.198424
v 0.1369139 -2.954429 -3.116361
v 1.278241 -8.829056 -2.351537
v -1.773558 -0.714082 -4.214753
v 2.209358 -9.023572 -1.190506
v -0.3743822 -0.5896403 -3.86126
v 1.843514 -8.832836 -2.341102
v -2.818339 -2.772131 -7.243699
v -4.188155 -7.09105 -7.995467
v -0.364521 -2.424214 -3.290109
v -0.165394 -8.764896 -7.135171
v 3.873965 -7.190431 -6.875926
v 15.87657 2.695245 14.25727
v 14.9054 -11.87333 16.43861
v 12.05387 -11.64515 12.67071
v 18.83569 -6.989571 16.45786
v 12.43921 -6.066076 12.55443
v 15.68558 -2.464075 14.66248
v 13.63027 -12.53435 11.20716
v 17.60328 -12.68816 8.92827
v 19.47549 -9.016575 7.253033
v 13.78868 -11.52811 19.29089
v 15.43645 -0.9712403 14.62565
v 10.41012 -10.59547 19.5513
v 16.11627 -9.062382 15.75975
v 16.58328 2.127179 13.29256
v 15.60359 2.25334 14.33219
v 14.66751 -9.285927 16.03426
v 15.86475 -9.096534 16.24748
v 20.59917 -0.8966829 14.00251
v 15.64647 -0.2284111 14.22614
v 23.30599 -6.834548 13.53836
v 21.29663 -9.28305 16.77619
v 18.80382 -7.30611 20.03599
v 14.9054 -11.87333 16.43861
v 15.87657 2.695245 14.25727
v 12.05387 -11.64515 12.67071
v 18.83569 -6.989571 16.45786
v 12.43921 -6.066076 12.55443
v 13.63027 -12.53435 11.20716
v 15.68558 -2.464075 14.66248
v 17.60328 -12.68816 8.92827
v 19.47549 -9.016575 7.253033
v 13.78868 -11.52811 19.29089
v 10.41012 -10.59547 19.5513
v 15.43645 -0.9712403 14.62565
v 16.11627 -9.062382 15.75975
v 16.58328 2.127179 13.29256
v 14.66751 -9.285927 16.03426
v 15.60359 2.25334 14.33219
v 15.86475 -9.096534 16.24748
v 20.59917 -0.8966829 14.00251
v 23.30599 -6.834548 13.53836
v 15.64647 -0.2284111 14.22614
v 21.29663 -9.28305 16.77619
v 18.80382 -7.30611 20.03599
v -19.50056 6.115142 13.71604
v -13.48279 -7.21474 20.42055
v -15.2625 -4.590654 23.04809
v -16.02423 -5.277404 16.2263
v -17.08894 0.4127595 20.20289
v -17.65915 1.338289 16.15848
v -16.43133 -6.304329 23.30539
v -19.04544 -8.840451 22.40726
v -21.78003 -6.436005 20.39155
v -11.35447 -6.501451 19.69116
v -18.05134 2.915759 15.56186
v -10.49124 -3.375269 20.6986
v -15.10841 -5.301052 18.75206
v -20.18159 5.227064 14.03024
v -19.24277 5.87418 14.02847
v -14.44598 -4.56796 19.42557
v -14.69984 -5.22584 18.70057
v -19.96185 -0.4215004 13.37862
v -18.59711 3.523982 15.25479
v -19.30006 -7.776722 15.19048
v -15.83842 -9.138252 16.08511
v -13.52418 -6.012596 15.04386
v -13.48279 -7.21474 20.42055
v -19.50056 6.115142 13.71604
v -15.2625 -4.590654 23.04809
v -16.02423 -5.277404 16.2263
v -17.08894 0.4127595 20.20289
v -16.43133 -6.304329 23.30539
v -17.65915 1.338289 16.15848
v -19.04544 -8.840451 22.40726
v -21.78003 -6.436005 20.39155
v -11.35447 -6.501451 19.69116
v -10.49124 -3.375269 20.6986
v -18.05134 2.915759 15.56186
v -15.10841 -5.301052 18.75206
v -20.18159 5.227064 14.03024
v -14.44598 -4.56796 19.42557
v -19.24277 5.87418 14.02847
v -14.69984 -5.22584 18.70057
v -19.96185 -0.4215004 13.37862
v -19.30006 -7.776722 15.19048
v -18.59711 3.523982 15.25479
v -15.83842 -9.138252 16.08511
v -13.52418 -6.012596 15.04386
v -13.04895 5.476604 -9.294726
v -15.25024 -10.08449 -15.64874
v -10.90255 -8.95997 -19.44151
v -14.97141 -5.865864 -9.13156
v -10.96278 -3.024446 -16.89978
v -13.34564 -0.06544527 -11.41011
v -8.807024 -10.30866 -18.0877
v -5.396599 -11.48853 -13.70952
v -3.206097 -7.976599 -10.31575
v -19.00652 -9.48759 -16.48141
v -13.402 1.618396 -11.15001
v -19.83249 -7.569999 -20.11866
v -14.36297 -7.352258 -13.23768
v -11.71326 4.697225 -8.79119
v -13.15954 5.070352 -9.776193
v -14.89324 -7.209117 -15.01089
v -15.00913 -7.334604 -13.4872
v -11.92587 0.3171493 -5.056975
v -12.9053 2.376345 -10.67204
v -10.70205 -6.828526 -4.12769
v -14.93437 -9.023314 -7.02388
v -19.46448 -6.299226 -8.828483
v -15.25024 -10.08449 -15.64874
v -13.04895 5.476604 -9.294726
v -10.90255 -8.95997 -19.44151
v -14.97141 -5.865864 -9.13156
v -10.96278 -3.024446 -16.89978
v -8.807024 -10.30866 -18.0877
v -13.34564 -0.06544527 -11.41011
v -5.396599 -11.48853 -13.70952
v -3.206097 -7.976599 -10.31575
v -19.00652 -9.48759 -16.48141
v -19.83249 -7.569999 -20.11866
v -13.402 1.618396 -11.15001
v -14.36297 -7.352258 -13.23768
v -11.71326 4.697225 -8.79119
v -14.89324 -7.209117 -15.01089
v -13.15954 5.070352 -9.776193
v -15.00913 -7.334604 -13.4872
v -11.92587 0.3171493 -5.056975
v -10.70205 -6.828526 -4.12769
v -12.9053 2.376345 -10.67204
v -14.93437 -9.023314 -7.02388
v -19.46448 -6.299226 -8.828483
v 21.56396 2.628234 -6.732012
v 25.46166 -12.68589 -9.061253
v 26.1064 -12.08159 -4.428685
v 21.47651 -8.252748 -10.70732
v 24.92903 -6.17562 -4.154503
v 22.64941 -2.849355 -7.320638
v 24.24924 -13.45316 -4.025616
v 19.90876 -14.58129 -4.070714
v 17.05224 -11.12803 -3.334854
v 27.64256 -11.90856 -10.90849
v 22.62682 -1.196442 -7.067591
v 30.45665 -10.19094 -9.39173
v 23.7352 -9.958932 -8.900538
v 20.61561 1.812393 -6.300179
v 21.89014 2.214692 -6.68925
v 25.10546 -9.882118 -8.429511
v 24.17225 -9.913562 -9.19248
v 18.00885 -2.223975 -9.095377
v 22.16273 -0.4665518 -6.783474
v 16.38423 -9.191478 -10.43449
v 19.88939 -11.20653 -12.34995
v 23.17344 -8.366385 -13.75336
v 25.46166 -12.68589 -9.061253
v 21.56396 2.628234 -6.732012
v 26.1064 -12.08159 -4.428685
v 21.47651 -8.252748 -10.70732
v 24.92903 -6.17562 -4.154503
v 24.24924 -13.45316 -4.025616
v 22.64941 -2.849355 -7.320638
v 19.90876 -14.58129 -4.070714
v 17.05224 -11.12803 -3.334854
v 27.64256 -11.90856 -10.90849
v 30.45665 -10.19094 -9.39173
v 22.62682 -1.196442 -7.067591
v 23.7352 -9.958932 -8.900538
v 20.61561 1.812393 -6.300179
v 25.10546 -9.882118 -8.429511
v 21.89014 2.214692 -6.68925
v 24.17225 -9.913562 -9.19248
v 18.00885 -2.223975 -9.095377
v 16.38423 -9.191478 -10.43449
v 22.16273 -0.4665518 -6.783474
v 19.88939 -11.20653 -12.34995
v 23.17344 -8.366385 -13.75336

vn 0.9813804 0.1844312 0.05364577
vn 0.9651197 0.1834858 0.1867544
vn 0.9016171 0.1749082 0.3955928
vn 0.9461005 0.1726742 -0.2740031
vn 0.9810729 -0.173246 -0.08649842
vn 0.7461276 -0.2536115 -0.6156093
vn 0.6886126 -0.3203244 -0.6505422
vn 0.3962311 -0.2618099 -0.8800322
vn 0.1534516 -0.1615964 -0.9748535
vn -0.5789674 -0.283661 0.7644171
vn -0.4795046 -0.2412476 0.8437268
vn -0.7181221 -0.34156 0.6063312
vn -0.2011844 -0.1197469 0.9722065
vn -0.3370515 -0.04343675 0.9404837
vn -0.2909782 -0.0286294 0.9563012
vn -0.9091951 -0.2527669 0.3308678
vn -0.9255273 -0.2611631 0.274214
vn -0.8873991 0.02303462 0.4604262
vn -0.5267843 -0.2871087 0.8000419
vn -0.4871042 -0.3725384 0.7899017
vn -0.1322474 -0.4630715 0.8763992
vn 0.1469271 -0.4575224 0.8769753
vn -0.9651197 -0.1834858 -0.1867544
vn -0.9813804 -0.1844312 -0.05364577
vn -0.9016171 -0.1749082 -0.3955928
vn -0.9461005 -0.1726742 0.2740031
vn -0.9810729 0.173246 0.08649842
vn -0.6886126 0.3203244 0.6505422
vn -0.7461276 0.2536115 0.6156093
vn -0.3962311 0.2618099 0.8800322
vn -0.1534516 0.1615964 0.9748535
vn 0.5789674 0.283661 -0.7644171
vn 0.7181221 0.34156 -0.6063312
vn 0.4795046 0.2412476 -0.8437268
vn 0.2011844 0.1197469 -0.9722065
vn 0.3370515 0.04343675 -0.9404837
vn 0.9091922 0.2527942 -0.3308547
vn 0.2909782 0.0286294 -0.9563012
vn 0.9255273 0.2611631 -0.274214
vn 0.8873991 -0.02303462 -0.4604262
vn 0.4871042 0.3725384 -0.7899017
vn 0.5267843 0.2871087 -0.8000419
vn 0.1322474 0.4630715 -0.8763992
vn -0.1469271 0.4575224 -0.8769753
vn -0.50544 0.1275331 0.853385
vn -0.6163279 0.1140487 0.7791874
vn -0.7725868 0.08779174 0.6288101
vn -0.1973673 0.150593 0.968694
vn -0.3404599 -0.2137578 0.915639
vn 0.2432094 -0.2283794 0.9427047
vn 0.3073761 -0.2882056 0.9068946
vn 0.6348084 -0.1920041 0.7484336
vn 0.8158287 -0.07044953 0.5739864
vn -0.3891968 -0.3289911 -0.8604016
vn -0.5087178 -0.2999209 -0.8070028
vn -0.1802813 -0.3634945 -0.913986
vn -0.760478 -0.206383 -0.6156941
vn -0.6804131 -0.120404 -0.7228699
vn -0.7166489 -0.1096439 -0.6887615
vn 0.1394613 -0.2377825 -0.9612545
vn 0.1980042 -0.2395931 -0.9504681
vn -0.01644549 0.02211773 -0.9996201
vn -0.4436873 -0.3386736 -0.829724
vn -0.442709 -0.4245733 -0.789776
vn -0.6673325 -0.5414203 -0.5114013
vn -0.7927781 -0.5502815 -0.2620935
vn 0.6163279 -0.1140487 -0.7791874
vn 0.50544 -0.1275331 -0.853385
vn 0.7725868 -0.08779174 -0.6288101
vn 0.1973673 -0.150593 -0.968694
vn 0.3404599 0.2137578 -0.915639
vn -0.3073761 0.2882056 -0.9068946
vn -0.2432094 0.2283794 -0.9427047
vn -0.6348084 0.1920041 -0.7484336
vn -0.8158287 0.07044953 -0.5739864
vn 0.3891968 0.3289911 0.8604016
vn 0.1802813 0.3634945 0.913986
vn 0.5087178 0.2999209 0.8070028
vn 0.760478 0.206383 0.6156941
vn 0.6804131 0.120404 0.7228699
vn -0.1394747 0.2378084 0.9612461
vn 0.7166489 0.1096439 0.6887615
vn -0.1980042 0.2395931 0.9504681
vn 0.01644549 -0.02211773 0.9996201
vn 0.442709 0.4245733 0.789776
vn 0.4436873 0.3386736 0.829724
vn 0.6673325 0.5414203 0.5114013
vn 0.7927781 0.5502815 0.2620935
vn 0.9127437 0.3637373 -0.1859948
vn 0.9003236 0.4295821 -0.06983361
vn 0.8455426 0.5199317 0.1213616
vn 0.8733593 0.1759587 -0.4541827
vn 0.9921409 -0.007126046 -0.1249218
vn 0.7697313 -0.3944686 -0.5019045
vn 0.7284596 -0.4789143 -0.4898854
vn 0.4250983 -0.6046393 -0.6735746
vn 0.1634981 -0.6160035 -0.7705895
vn -0.478911 0.05654293 0.8760407
vn -0.3901511 0.1517914 0.9081528
vn -0.6045491 -0.1001777 0.7902434
vn -0.1446612 0.3717647 0.9169865
vn -0.2952482 0.3933955 0.8706713
vn -0.2535077 0.4225447 0.8701665
vn -0.817524 -0.2059603 0.5378056
vn -0.8328062 -0.2456218 0.4960885
vn -0.8572708 0.09526064 0.5059764
vn -0.4265195 0.08200917 0.9007528
vn -0.3683439 0.01302294 0.9295983
vn -0.0002068323 0.04889939 0.9988037
vn 0.2699844 0.1056688 0.9570489
vn -0.9003236 -0.4295821 0.06983361
vn -0.9127437 -0.3637373 0.1859948
vn -0.8455426 -0.5199317 -0.1213616
vn -0.8733593 -0.1759587 0.4541827
vn -0.9921409 0.007126046 0.1249218
vn -0.7284596 0.4789143 0.4898854
vn -0.7697313 0.3944686 0.5019045
vn -0.4250983 0.6046393 0.6735746
vn -0.1634981 0.6160035 0.7705895
vn 0.478911 -0.05654293 -0.8760407
vn 0.6045491 0.1001777 -0.7902434
vn 0.3901511 -0.1517914 -0.9081528
vn 0.1446612 -0.3717647 -0.9169865
vn 0.2952482 -0.3933955 -0.8706713
vn 0.8175153 0.2059893 -0.5378078
vn 0.2535077 -0.4225447 -0.8701665
vn 0.8328062 0.2456218 -0.4960885
vn 0.8572708 -0.09526064 -0.5059764
vn 0.3683439 -0.01302294 -0.9295983
vn 0.4265195 -0.08200917 -0.9007528
vn 0.0002068323 -0.04889939 -0.9988037
vn -0.2699844 -0.1056688 -0.9570489
vn -0.9048766 0.218945 -0.3650497
vn -0.8427551 0.2394343 -0.4821152
vn -0.7095317 0.2634911 -0.6535573
vn -0.9869065 0.1524537 -0.05266093
vn -0.9427152 -0.1567677 -0.2944688
vn -0.9067803 -0.3297891 0.2626565
vn -0.8631894 -0.4029678 0.3041727
vn -0.6723624 -0.3914403 0.6282542
vn -0.4818116 -0.3152231 0.8176137
vn 0.8197043 -0.1706535 -0.5467745
vn 0.7532685 -0.1129265 -0.647946
vn 0.8960086 -0.2577473 -0.3615726
vn 0.5343645 0.0360179 -0.8444865
vn 0.6478843 0.1021248 -0.754862
vn 0.6098935 0.1206533 -0.783245
vn 0.9749289 -0.2210073 -0.02587185
vn 0.9705158 -0.2390731 0.03070592
vn 0.9915103 0.07285737 -0.1076982
vn 0.7835481 -0.1666904 -0.598554
vn 0.7455431 -0.2514451 -0.6172041
vn 0.4469199 -0.3162569 -0.8368061
vn 0.18581 -0.302646 -0.9348156
vn 0.8427551 -0.2394343 0.4821152
vn 0.9048766 -0.218945 0.3650497
vn 0.7095317 -0.2634911 0.6535573
vn 0.9869065 -0.1524537 0.05266093
vn 0.9427152 0.1567677 0.2944688
vn 0.8631894 0.4029678 -0.3041727
vn 0.9067803 0.3297891 -0.2626565
vn 0.6723624 0.3914403 -0.6282542
vn 0.4818116 0.3152231 -0.8176137
vn -0.8197043 0.1706535 0.5467745
vn -0.8960086 0.2577473 0.3615726
vn -0.7532685 0.1129265 0.647946
vn -0.5343645 -0.0360179 0.8444865
vn -0.6478843 -0.1021248 0.754862
vn -0.9749225 0.2210363 0.02586526
vn -0.6098935 -0.1206533 0.783245
vn -0.9705158 0.2390731 -0.03070592
vn -0.9915103 -0.07285737 0.1076982
vn -0.7455431 0.2514451 0.6172041
vn -0.7835481 0.1666904 0.598554
vn -0.4469199 0.3162569 0.8368061
vn -0.18581 0.302646 0.9348156
vn 0.8213108 0.278396 -0.4979401
vn 0.8836612 0.2743859 -0.3792827
vn 0.950867 0.2573389 -0.1721296
vn 0.6071445 0.2669263 -0.7484155
vn 0.7678244 -0.07602637 -0.6361334
vn 0.2806148 -0.172943 -0.9441112
vn 0.2185457 -0.2445389 -0.9446896
vn -0.1557905 -0.2121779 -0.964733
vn -0.4160466 -0.1349991 -0.8992666
vn -0.01945332 -0.3471535 0.9376066
vn 0.1039993 -0.2961564 0.9494606
vn -0.2190467 -0.4165418 0.8823329
vn 0.3961601 -0.1496056 0.9059113
vn 0.2611442 -0.08652212 0.9614144
vn 0.3068035 -0.06748155 0.9493775
vn -0.5386871 -0.3436804 0.7692204
vn -0.5836366 -0.3529916 0.7312765
vn -0.467563 -0.068532 0.8812991
vn 0.04381128 -0.3459074 0.9372452
vn 0.07687588 -0.426954 0.9009995
vn 0.4235598 -0.4835051 0.7660417
vn 0.652317 -0.4508362 0.6092858
vn -0.8836612 -0.2743859 0.3792827
vn -0.8213108 -0.278396 0.4979401
vn -0.950867 -0.2573389 0.1721296
vn -0.6071445 -0.2669263 0.7484155
vn -0.7678244 0.07602637 0.6361334
vn -0.2185457 0.2445389 0.9446896
vn -0.2806148 0.172943 0.9441112
vn 0.1557905 0.2121779 0.964733
vn 0.4160466 0.1349991 0.8992666
vn 0.01945332 0.3471535 -0.9376066
vn 0.2190467 0.4165418 -0.8823329
vn -0.1039993 0.2961564 -0.9494606
vn -0.3961601 0.1496056 -0.9059113
vn -0.2611442 0.08652212 -0.9614144
vn 0.5386903 0.3437072 -0.7692063
vn -0.3068035 0.06748155 -0.9493775
vn 0.5836366 0.3529916 -0.7312765
vn 0.467563 0.068532 -0.8812991
vn -0.07687588 0.426954 -0.9009995
vn -0.04381128 0.3459074 -0.9372452
vn -0.4235598 0.4835051 -0.7660417
vn -0.652317 0.4508362 -0.6092858

vt 0.802418 0.147402
vt 0.793543 0.997401
vt 0.551475 0.918781
vt 0.99973 0.672131
vt 0.013389 0.376593
vt 0.285138 0.144771
vt 0.017788 0.832453
vt 0.270822 0.994697
vt 0.59052 0.800243
vt 0.793543 0.997401
vt 0.802418 0.147402
vt 0.551475 0.918781
vt 0.99973 0.672131
vt 0.050836 0.107831
vt 0.055148 0.019504
vt 0.957324 0.019504
vt 0.953012 0.107831
vt 0.013389 0.376593
vt 0.285138 0.144771
vt 0.017788 0.832453
vt 0.270822 0.994697
vt 0.59052 0.800243
vt 0.793543 0.997401
vt 0.802418 0.147402
vt 0.551475 0.918781
vt 0.99973 0.672131
vt 0.013389 0.376593
vt 0.017788 0.832453
vt 0.285138 0.144771
vt 0.270822 0.994697
vt 0.59052 0.800243
vt 0.793543 0.997401
vt 0.551475 0.918781
vt 0.802418 0.147402
vt 0.99973 0.672131
vt 0.050836 0.107831
vt 0.957324 0.019504
vt 0.055148 0.019504
vt 0.953012 0.107831
vt 0.013389 0.376593
vt 0.017788 0.832453
vt 0.285138 0.144771
vt 0.270822 0.994697
vt 0.59052 0.800243
vt 0.802418 0.147402
vt 0.793543 0.997401
vt 0.551475 0.918781
vt 0.99973 0.672131
vt 0.013389 0.376593
vt 0.285138 0.144771
vt 0.017788 0.832453
vt 0.270822 0.994697
vt 0.59052 0.800243
vt 0.793543 0.997401
vt 0.802418 0.147402
vt 0.551475 0.918781
vt 0.99973 0.672131
vt 0.050836 0.107831
vt 0.055148 0.019504
vt 0.957324 0.019504
vt 0.953012 0.107831
vt 0.013389 0.376593
vt 0.285138 0.144771
vt 0.017788 0.832453
vt 0.270822 0.994697
vt 0.59052 0.800243
vt 0.793543 0.997401
vt 0.802418 0.147402
vt 0.551475 0.918781
vt 0.99973 0.672131
vt 0.013389 0.376593
vt 0.017788 0.832453
vt 0.285138 0.144771
vt 0.270822 0.994697
vt 0.59052 0.800243
vt 0.793543 0.997401
vt 0.551475 0.918781
vt 0.802418 0.147402
vt 0.99973 0.672131
vt 0.050836 0.107831
vt 0.957324 0.019504
vt 0.055148 0.019504
vt 0.953012 0.107831
vt 0.013389 0.376593
vt 0.017788 0.832453
vt 0.285138 0.144771
vt 0.270822 0.994697
vt 0.59052 0.800243
vt 0.802418 0.147402
vt 0.793543 0.997401
vt 0.551475 0.918781
vt 0.99973 0.672131
vt 0.013389 0.376593
vt 0.285138 0.144771
vt 0.017788 0.832453
vt 0.270822 0.994697
vt 0.59052 0.800243
vt 0.793543 0.997401
vt 0.802418 0.147402
vt 0.551475 0.918781
vt 0.99973 0.672131
vt 0.050836 0.107831
vt 0.055148 0.019504
vt 0.957324 0.019504
vt 0.953012 0.107831
vt 0.013389 0.376593
vt 0.285138 0.144771
vt 0.017788 0.832453
vt 0.270822 0.994697
vt 0.59052 0.800243
vt 0.793543 0.997401
vt 0.802418 0.147402
vt 0.551475 0.918781
vt 0.99973 0.672131
vt 0.013389 0.376593
vt 0.017788 0.832453
vt 0.285138 0.144771
vt 0.270822 0.994697
vt 0.59052 0.800243
vt 0.793543 0.997401
vt 0.551475 0.918781
vt 0.802418 0.147402
vt 0.99973 0.672131
vt 0.050836 0.107831
vt 0.957324 0.019504
vt 0.055148 0.019504
vt 0.953012 0.107831
vt 0.013389 0.376593
vt 0.017788 0.832453
vt 0.285138 0.144771
vt 0.270822 0.994697
vt 0.59052 0.800243
vt 0.802418 0.147402
vt 0.793543 0.997401
vt 0.551475 0.918781
vt 0.99973 0.672131
vt 0.013389 0.376593
vt 0.285138 0.144771
vt 0.017788 0.832453
vt 0.270822 0.994697
vt 0.59052 0.800243
vt 0.793543 0.997401
vt 0.802418 0.147402
vt 0.551475 0.918781
vt 0.99973 0.672131
vt 0.050836 0.107831
vt 0.055148 0.019504
vt 0.957324 0.019504
vt 0.953012 0.107831
vt 0.013389 0.376593
vt 0.285138 0.144771
vt 0.017788 0.832453
vt 0.270822 0.994697
vt 0.59052 0.800243
vt 0.793543 0.997401
vt 0.802418 0.147402
vt 0.551475 0.918781
vt 0.99973 0.672131
vt 0.013389 0.376593
vt 0.017788 0.832453
vt 0.285138 0.144771
vt 0.270822 0.994697
vt 0.59052 0.800243
vt 0.793543 0.997401
vt 0.551475 0.918781
vt 0.802418 0.147402
vt 0.99973 0.672131
vt 0.050836 0.107831
vt 0.957324 0.019504
vt 0.055148 0.019504
vt 0.953012 0.107831
vt 0.013389 0.376593
vt 0.017788 0.832453
vt 0.285138 0.144771
vt 0.270822 0.994697
vt 0.59052 0.800243
vt 0.802418 0.147402
vt 0.793543 0.997401
vt 0.551475 0.918781
vt 0.99973 0.672131
vt 0.013389 0.376593
vt 0.285138 0.144771
vt 0.017788 0.832453
vt 0.270822 0.994697
vt 0.59052 0.800243
vt 0.793543 0.997401
vt 0.802418 0.147402
vt 0.551475 0.918781
vt 0.99973 0.672131
vt 0.050836 0.107831
vt 0.055148 0.019504
vt 0.957324 0.019504
vt 0.953012 0.107831
vt 0.013389 0.376593
vt 0.285138 0.144771
vt 0.017788 0.832453
vt 0.270822 0.994697
vt 0.59052 0.800243
vt 0.793543 0.997401
vt 0.802418 0.147402
vt 0.551475 0.918781
vt 0.99973 0.672131
vt 0.013389 0.376593
vt 0.017788 0.832453
vt 0.285138 0.144771
vt 0.270822 0.994697
vt 0.59052 0.800243
vt 0.793543 0.997401
vt 0.551475 0.918781
vt 0.802418 0.147402
vt 0.99973 0.672131
vt 0.050836 0.107831
vt 0.957324 0.019504
vt 0.055148 0.019504
vt 0.953012 0.107831
vt 0.013389 0.376593
vt 0.017788 0.832453
vt 0.285138 0.144771
vt 0.270822 0.994697
vt 0.59052 0.800243




usemtl MEP_Brush_02
usemap MEP_Brush_02
f 1/1/1 3/3/3 2/2/2
f 1/1/1 2/2/2 4/4/4
f 8/8/8 9/9/9 6/6/6
f 8/8/8 6/6/6 7/7/7
f 7/7/7 6/6/6 5/5/5
f 10/10/10 12/12/12 11/11/11
f 10/10/10 11/11/11 13/13/13
f 16/16/16 15/15/15 14/14/14
f 16/16/16 14/14/14 17/17/17
f 21/21/21 22/22/22 19/19/19
f 21/21/21 19/19/19 20/20/20
f 20/20/20 19/19/19 18/18/18
f 23/23/23 25/25/25 24/24/24
f 23/23/23 24/24/24 26/26/26
f 28/28/28 27/27/27 29/29/29
f 28/28/28 29/29/29 30/30/30
f 30/30/30 29/29/29 31/31/31
f 34/34/34 33/33/33 32/32/32
f 34/34/34 32/32/32 35/35/35
f 36/36/36 38/38/38 37/37/37
f 36/36/36 37/37/37 39/39/39
f 41/41/41 40/40/40 42/42/42
f 41/41/41 42/42/42 43/43/43
f 43/43/43 42/42/42 44/44/44
f 45/45/45 47/47/47 46/46/46
f 45/45/45 46/46/46 48/48/48
f 52/52/52 53/53/53 50/50/50
f 52/52/52 50/50/50 51/51/51
f 51/51/51 50/50/50 49/49/49
f 54/54/54 56/56/56 55/55/55
f 54/54/54 55/55/55 57/57/57
f 60/60/60 59/59/59 58/58/58
f 60/60/60 58/58/58 61/61/61
f 65/65/65 66/66/66 63/63/63
f 65/65/65 63/63/63 64/64/64
f 64/64/64 63/63/63 62/62/62
f 67/67/67 69/69/69 68/68/68
f 67/67/67 68/68/68 70/70/70
f 72/72/72 71/71/71 73/73/73
f 72/72/72 73/73/73 74/74/74
f 74/74/74 73/73/73 75/75/75
f 78/78/78 77/77/77 76/76/76
f 78/78/78 76/76/76 79/79/79
f 80/80/80 82/82/82 81/81/81
f 80/80/80 81/81/81 83/83/83
f 85/85/85 84/84/84 86/86/86
f 85/85/85 86/86/86 87/87/87
f 87/87/87 86/86/86 88/88/88
f 89/89/89 91/91/91 90/90/90
f 89/89/89 90/90/90 92/92/92
f 96/96/96 97/97/97 94/94/94
f 96/96/96 94/94/94 95/95/95
f 95/95/95 94/94/94 93/93/93
f 98/98/98 100/100/100 99/99/99
f 98/98/98 99/99/99 101/101/101
f 104/104/104 103/103/103 102/102/102
f 104/104/104 102/102/102 105/105/105
f 109/109/109 110/110/110 107/107/107
f 109/109/109 107/107/107 108/108/108
f 108/108/108 107/107/107 106/106/106
f 111/111/111 113/113/113 112/112/112
f 111/111/111 112/112/112 114/114/114
f 116/116/116 115/115/115 117/117/117
f 116/116/116 117/117/117 118/118/118
f 118/118/118 117/117/117 119/119/119
f 122/122/122 121/121/121 120/120/120
f 122/122/122 120/120/120 123/123/123
f 124/124/124 126/126/126 125/125/125
f 124/124/124 125/125/125 127/127/127
f 129/129/129 128/128/128 130/130/130
f 129/129/129 130/130/130 131/131/131
f 131/131/131 130/130/130 132/132/132
f 133/133/133 135/135/135 134/134/134
f 133/133/133 134/134/134 136/136/136
f 140/140/140 141/141/141 138/138/138
f 140/140/140 138/138/138 139/139/139
f 139/139/139 138/138/138 137/137/137
f 142/142/142 144/144/144 143/143/143
f 142/142/142 143/143/143 145/145/145
f 148/148/148 147/147/147 146/146/146
f 148/148/148 146/146/146 149/149/149
f 153/153/153 154/154/154 151/151/151
f 153/153/153 151/151/151 152/152/152
f 152/152/152 151/151/151 150/150/150
f 155/155/155 157/157/157 156/156/156
f 155/155/155 156/156/156 158/158/158
f 160/160/160 159/159/159 161/161/161
f 160/160/160 161/161/161 162/162/162
f 162/162/162 161/161/161 163/163/163
f 166/166/166 165/165/165 164/164/164
f 166/166/166 164/164/164 167/167/167
f 168/168/168 170/170/170 169/169/169
f 168/168/168 169/169/169 171/171/171
f 173/173/173 172/172/172 174/174/174
f 173/173/173 174/174/174 175/175/175
f 175/175/175 174/174/174 176/176/176
f 177/177/177 179/179/179 178/178/178
f 177/177/177 178/178/178 180/180/180
f 184/184/184 185/185/185 182/182/182
f 184/184/184 182/182/182 183/183/183
f 183/183/183 182/182/182 181/181/181
f 186/186/186 188/188/188 187/187/187
f 186/186/186 187/187/187 189/189/189
f 192/192/192 191/191/191 190/190/190
f 192/192/192 190/190/190 193/193/193
f 197/197/197 198/198/198 195/195/195
f 197/197/197 195/195/195 196/196/196
f 196/196/196 195/195/195 194/194/194
f 199/199/199 201/201/201 200/200/200
f 199/199/199 200/200/200 202/202/202
f 204/204/204 203/203/203 205/205/205
f 204/204/204 205/205/205 206/206/206
f 206/206/206 205/205/205 207/207/207
f 210/210/210 209/209/209 208/208/208
f 210/210/210 208/208/208 211/211/211
f 212/212/212 214/214/214 213/213/213
f 212/212/212 213/213/213 215/215/215
f 217/217/217 216/216/216 218/218/218
f 217/217/217 218/218/218 219/219/219
f 219/219/219 218/218/218 220/220/220

