g NewMesh_tris_90
v -0.3456717 1.803581 -0.7811947
v 0.09684718 0.7386515 0.625066
v 0.04324985 0.4517534 0.2136814
v -0.2000693 2.446674 -0.493381
v 0.09684718 0.7386515 0.625066
v -0.2000693 2.446674 -0.493381
v 0.2498038 2.016397 -0.9611683
v 0.3837711 2.241714 -0.3577587
v 0.3837711 2.241714 -0.3577587
v 0.5371162 0.4936844 0.1200954
v 0.5907135 0.7805825 0.53148
v 0.2498038 2.016397 -0.9611683
v -0.3456717 1.803581 -0.7811947
v 0.2498038 2.016397 -0.9611683
v -0.2000693 2.446674 -0.493381
v 0.04324985 0.4517534 0.2136814
v 0.2498038 2.016397 -0.9611683
v -0.3456717 1.803581 -0.7811947
v 0.5371162 0.4936844 0.1200954
v 0.5907135 0.7805825 0.53148
v -0.2000693 2.446674 -0.493381
v 0.3837711 2.241714 -0.3577587
v 0.09684718 0.7386515 0.625066
v -1.718694 0.7567221 1.224736
v -0.5081337 -0.5705062 0.9410537
v -0.9712558 -0.7510506 0.8553673
v -1.272512 1.320472 1.251461
v -0.5081337 -0.5705062 0.9410537
v -1.272512 1.320472 1.251461
v -1.691972 1.067687 0.6460664
v -1.040533 1.149842 0.6872418
v -1.040533 1.149842 0.6872418
v -0.9254025 -0.6365496 0.3662789
v -0.4622804 -0.4560052 0.4519652
v -1.691972 1.067687 0.6460664
v -1.718694 0.7567221 1.224736
v -1.691972 1.067687 0.6460664
v -1.272512 1.320472 1.251461
v -0.9712558 -0.7510506 0.8553673
v -1.691972 1.067687 0.6460664
v -1.718694 0.7567221 1.224736
v -0.9254025 -0.6365496 0.3662789
v -0.4622804 -0.4560052 0.4519652
v -1.272512 1.320472 1.251461
v -1.040533 1.149842 0.6872418
v -0.5081337 -0.5705062 0.9410537
v -1.747863 2.075688 -0.07592487
v -0.529623 -0.3283445 0.5963755
v -1.094947 -0.4679703 0.0919831
v -1.009712 2.775356 0.3400543
v -0.529623 -0.3283445 0.5963755
v -1.009712 2.775356 0.3400543
v -1.118482 2.40607 -0.7852249
v -0.3224958 2.331578 -0.1765289
v -0.3224958 2.331578 -0.1765289
v -0.5904987 -0.4155448 -0.4879149
v -0.02517516 -0.275919 0.01647747
v -1.118482 2.40607 -0.7852249
v -1.747863 2.075688 -0.07592487
v -1.118482 2.40607 -0.7852249
v -1.009712 2.775356 0.3400543
v -1.094947 -0.4679703 0.0919831
v -1.118482 2.40607 -0.7852249
v -1.747863 2.075688 -0.07592487
v -0.5904987 -0.4155448 -0.4879149
v -0.02517516 -0.275919 0.01647747
v -1.009712 2.775356 0.3400543
v -0.3224958 2.331578 -0.1765289
v -0.529623 -0.3283445 0.5963755
v 0.2043339 0.4191239 0.3874791
v -0.4022794 -0.125303 -0.4359216
v 0.2762014 0.333728 -0.424141
v -0.4741469 -0.03990712 0.3756985
v 0.3545505 -0.5262779 0.08676801
v 0.2762014 0.333728 -0.424141
v -0.4022794 -0.125303 -0.4359216
v 0.3545505 -0.5262779 0.08676801
v -0.4741469 -0.03990712 0.3756985
v 0.2043339 0.4191239 0.3874791
v -0.4022794 -0.125303 -0.4359216
v -0.4741469 -0.03990712 0.3756985
v 0.3545505 -0.5262779 0.08676801
v 0.2043339 0.4191239 0.3874791
v 0.2762014 0.333728 -0.424141
v 0.3545505 -0.5262779 0.08676801
v 0.4826259 0.2906201 0.1427845
v 0.05271623 1.172162 -0.07786872
v 0.6640332 0.8536212 -0.2514669
v -0.1286911 0.6091607 0.3163826
v -0.0464878 0.4366459 -0.5329998
v 0.6640332 0.8536212 -0.2514669
v 0.05271623 1.172162 -0.07786872
v -0.0464878 0.4366459 -0.5329998
v -0.1286911 0.6091607 0.3163826
v 0.4826259 0.2906201 0.1427845
v 0.05271623 1.172162 -0.07786872
v -0.1286911 0.6091607 0.3163826
v -0.0464878 0.4366459 -0.5329998
v 0.4826259 0.2906201 0.1427845
v 0.6640332 0.8536212 -0.2514669
v -0.0464878 0.4366459 -0.5329998
v -0.2467919 -0.460642 -0.6213796
v -1.220437 -0.01161009 -0.2358454
v -0.4769797 0.2689696 -0.368781
v -0.9902494 -0.7412217 -0.4884441
v -0.941966 -0.04101694 -1.182037
v -0.4769797 0.2689696 -0.368781
v -1.220437 -0.01161009 -0.2358454
v -0.941966 -0.04101694 -1.182037
v -0.9902494 -0.7412217 -0.4884441
v -0.2467919 -0.460642 -0.6213796
v -1.220437 -0.01161009 -0.2358454
v -0.9902494 -0.7412217 -0.4884441
v -0.941966 -0.04101694 -1.182037
v -0.2467919 -0.460642 -0.6213796
v -0.4769797 0.2689696 -0.368781
v -0.941966 -0.04101694 -1.182037
v -1.305605 -0.273733 -0.3000541
v -1.314011 -0.2384794 0.8979431
v -1.106342 -0.8194932 0.3169511
v -1.513275 0.3072807 0.280938
v -0.512674 0.03168546 0.2960688
v -1.106342 -0.8194932 0.3169511
v -1.314011 -0.2384794 0.8979431
v -0.512674 0.03168546 0.2960688
v -1.513275 0.3072807 0.280938
v -1.305605 -0.273733 -0.3000541
v -1.314011 -0.2384794 0.8979431
v -1.513275 0.3072807 0.280938
v -0.512674 0.03168546 0.2960688
v -1.305605 -0.273733 -0.3000541
v -1.106342 -0.8194932 0.3169511
v -0.512674 0.03168546 0.2960688
v -0.9853506 0.2670376 1.216209
v -1.284486 -0.5181708 1.053647
v -0.736729 -0.2609017 1.055904
v -1.533108 0.009768496 1.213952
v -1.068738 -0.2715905 1.718475
v -0.736729 -0.2609017 1.055904
v -1.284486 -0.5181708 1.053647
v -1.068738 -0.2715905 1.718475
v -1.533108 0.009768496 1.213952
v -0.9853506 0.2670376 1.216209
v -1.284486 -0.5181708 1.053647
v -1.533108 0.009768496 1.213952
v -1.068738 -0.2715905 1.718475
v -0.9853506 0.2670376 1.216209
v -0.736729 -0.2609017 1.055904
v -1.068738 -0.2715905 1.718475
v -0.9138472 0.6991864 1.495454
v -0.8717355 0.3151823 0.9438264
v -0.7202522 0.7505119 1.063424
v -1.065331 0.2638568 1.375856
v -0.4849474 0.321129 1.380294
v -0.7202522 0.7505119 1.063424
v -0.8717355 0.3151823 0.9438264
v -0.4849474 0.321129 1.380294
v -1.065331 0.2638568 1.375856
v -0.9138472 0.6991864 1.495454
v -0.8717355 0.3151823 0.9438264
v -1.065331 0.2638568 1.375856
v -0.4849474 0.321129 1.380294
v -0.9138472 0.6991864 1.495454
v -0.7202522 0.7505119 1.063424
v -0.4849474 0.321129 1.380294
v -0.4143278 0.1497804 0.8662724
v -0.3783366 0.8868022 0.431091
v -0.813745 0.4853627 0.5583923
v 0.02108054 0.5512199 0.738971
v -0.5298433 0.8235297 1.154591
v -0.813745 0.4853627 0.5583923
v -0.3783366 0.8868022 0.431091
v -0.5298433 0.8235297 1.154591
v 0.02108054 0.5512199 0.738971
v -0.4143278 0.1497804 0.8662724
v -0.3783366 0.8868022 0.431091
v 0.02108054 0.5512199 0.738971
v -0.5298433 0.8235297 1.154591
v -0.4143278 0.1497804 0.8662724
v -0.813745 0.4853627 0.5583923
v -0.5298433 0.8235297 1.154591
v 0.02981884 1.079161 0.3971632
v -0.5336061 1.019217 0.6700475
v -0.1639983 0.7724474 0.6542922
v -0.339789 1.32593 0.4129185
v -0.09834126 1.256034 0.8960827
v -0.1639983 0.7724474 0.6542922
v -0.5336061 1.019217 0.6700475
v -0.09834126 1.256034 0.8960827
v -0.339789 1.32593 0.4129185
v 0.02981884 1.079161 0.3971632
v -0.5336061 1.019217 0.6700475
v -0.339789 1.32593 0.4129185
v -0.09834126 1.256034 0.8960827
v 0.02981884 1.079161 0.3971632
v -0.1639983 0.7724474 0.6542922
v -0.09834126 1.256034 0.8960827
v 0.7640864 -0.4386559 -0.7384237
v 0.1298119 0.1737854 -0.1205813
v 0.768323 0.2901542 -0.5184768
v 0.1255753 -0.5550247 -0.3405282
v 0.03240783 0.05425406 -1.040126
v 0.768323 0.2901542 -0.5184768
v 0.1298119 0.1737854 -0.1205813
v 0.03240783 0.05425406 -1.040126
v 0.1255753 -0.5550247 -0.3405282
v 0.7640864 -0.4386559 -0.7384237
v 0.1298119 0.1737854 -0.1205813
v 0.1255753 -0.5550247 -0.3405282
v 0.03240783 0.05425406 -1.040126
v 0.7640864 -0.4386559 -0.7384237
v 0.768323 0.2901542 -0.5184768
v 0.03240783 0.05425406 -1.040126
v -2.117209 -0.4117776 0.5891014
v -1.360534 0.2469229 1.067616
v -2.076041 -0.01192909 1.26448
v -1.401702 -0.1529256 0.3922373
v -1.416281 -0.7075888 1.178813
v -2.076041 -0.01192909 1.26448
v -1.360534 0.2469229 1.067616
v -1.416281 -0.7075888 1.178813
v -1.401702 -0.1529256 0.3922373
v -2.117209 -0.4117776 0.5891014
v -1.360534 0.2469229 1.067616
v -1.401702 -0.1529256 0.3922373
v -1.416281 -0.7075888 1.178813
v -2.117209 -0.4117776 0.5891014
v -2.076041 -0.01192909 1.26448
v -1.416281 -0.7075888 1.178813

vn -0.9567177 -0.01365782 0.290697
vn -0.9567177 -0.01365782 0.290697
vn -0.9567177 -0.01365782 0.290697
vn -0.9567177 -0.01365782 0.290697
vn -0.9567177 -0.01365782 0.290697
vn 0.3847114 0.8334678 -0.3966466
vn 0.3847114 0.8334678 -0.3966466
vn 0.3847114 0.8334678 -0.3966466
vn 0.9798256 0.03204775 -0.1972683
vn 0.9798256 0.03204775 -0.1972683
vn 0.9798256 0.03204775 -0.1972683
vn 0.9798256 0.03204775 -0.1972683
vn -0.4015675 0.4483334 -0.7985867
vn -0.4015675 0.4483334 -0.7985867
vn -0.4015675 0.4483334 -0.7985867
vn -0.06252952 -0.5939798 -0.8020462
vn -0.06252952 -0.5939798 -0.8020462
vn -0.06252952 -0.5939798 -0.8020462
vn -0.06252952 -0.5939798 -0.8020462
vn 0.04893008 0.5400782 0.8401914
vn 0.04893008 0.5400782 0.8401914
vn 0.04893008 0.5400782 0.8401914
vn 0.04893008 0.5400782 0.8401914
vn 0.02885257 -0.1836785 0.9825629
vn 0.02885257 -0.1836785 0.9825629
vn 0.02885257 -0.1836785 0.9825629
vn 0.02885257 -0.1836785 0.9825629
vn 0.02885257 -0.1836785 0.9825629
vn -0.09811319 0.9406808 -0.3247975
vn -0.09811319 0.9406808 -0.3247975
vn -0.09811319 0.9406808 -0.3247975
vn 0.0690778 0.1807468 -0.9811009
vn 0.0690778 0.1807468 -0.9811009
vn 0.0690778 0.1807468 -0.9811009
vn 0.0690778 0.1807468 -0.9811009
vn -0.7590445 0.5874584 0.2806136
vn -0.7590445 0.5874584 0.2806136
vn -0.7590445 0.5874584 0.2806136
vn -0.8997009 -0.3810337 -0.2129593
vn -0.8997009 -0.3810337 -0.2129593
vn -0.8997009 -0.3810337 -0.2129593
vn -0.8997009 -0.3810337 -0.2129593
vn 0.9206901 0.3182829 0.2258889
vn 0.9206901 0.3182829 0.2258889
vn 0.9206901 0.3182829 0.2258889
vn 0.9206901 0.3182829 0.2258889
vn -0.5549074 -0.04893688 0.8304716
vn -0.5549074 -0.04893688 0.8304716
vn -0.5549074 -0.04893688 0.8304716
vn -0.5549074 -0.04893688 0.8304716
vn -0.5549074 -0.04893688 0.8304716
vn 0.3299852 0.8870126 -0.3229837
vn 0.3299852 0.8870126 -0.3229837
vn 0.3299852 0.8870126 -0.3229837
vn 0.6320356 0.02614855 -0.7744982
vn 0.6320356 0.02614855 -0.7744982
vn 0.6320356 0.02614855 -0.7744982
vn 0.6320356 0.02614855 -0.7744982
vn -0.6163654 0.7639138 -0.1911269
vn -0.6163654 0.7639138 -0.1911269
vn -0.6163654 0.7639138 -0.1911269
vn -0.7013497 -0.2133349 -0.6801448
vn -0.7013497 -0.2133349 -0.6801448
vn -0.7013497 -0.2133349 -0.6801448
vn -0.7013497 -0.2133349 -0.6801448
vn 0.6956733 0.1499922 0.7025248
vn 0.6956733 0.1499922 0.7025248
vn 0.6956733 0.1499922 0.7025248
vn 0.6956733 0.1499922 0.7025248
vn -0.5535777 0.8217045 -0.1354753
vn -0.5535777 0.8217045 -0.1354753
vn -0.5535777 0.8217045 -0.1354753
vn -0.5535777 0.8217045 -0.1354753
vn 0.3260227 -0.4606992 -0.8255091
vn 0.3260227 -0.4606992 -0.8255091
vn 0.3260227 -0.4606992 -0.8255091
vn 0.1690987 -0.2742356 0.9466786
vn 0.1690987 -0.2742356 0.9466786
vn 0.1690987 -0.2742356 0.9466786
vn -0.4931772 -0.8686188 0.04772318
vn -0.4931772 -0.8686188 0.04772318
vn -0.4931772 -0.8686188 0.04772318
vn 0.9882986 0.1336841 0.0734463
vn 0.9882986 0.1336841 0.0734463
vn 0.9882986 0.1336841 0.0734463
vn 0.441946 0.4146353 0.7954629
vn 0.441946 0.4146353 0.7954629
vn 0.441946 0.4146353 0.7954629
vn 0.441946 0.4146353 0.7954629
vn 0.0306173 0.5229719 -0.8517998
vn 0.0306173 0.5229719 -0.8517998
vn 0.0306173 0.5229719 -0.8517998
vn -0.425895 -0.8938228 0.1403356
vn -0.425895 -0.8938228 0.1403356
vn -0.425895 -0.8938228 0.1403356
vn -0.9668299 0.2153789 -0.1373018
vn -0.9668299 0.2153789 -0.1373018
vn -0.9668299 0.2153789 -0.1373018
vn 0.5715522 -0.5862299 -0.5741624
vn 0.5715522 -0.5862299 -0.5741624
vn 0.5715522 -0.5862299 -0.5741624
vn 0.2586022 -0.242166 0.9351367
vn 0.2586022 -0.242166 0.9351367
vn 0.2586022 -0.242166 0.9351367
vn 0.2586022 -0.242166 0.9351367
vn -0.3711913 0.9182789 -0.1377708
vn -0.3711913 0.9182789 -0.1377708
vn -0.3711913 0.9182789 -0.1377708
vn 0.1398968 -0.7016849 -0.6986181
vn 0.1398968 -0.7016849 -0.6986181
vn 0.1398968 -0.7016849 -0.6986181
vn -0.941 -0.2031898 -0.2706154
vn -0.941 -0.2031898 -0.2706154
vn -0.941 -0.2031898 -0.2706154
vn 0.7097055 0.4197838 -0.5657734
vn 0.7097055 0.4197838 -0.5657734
vn 0.7097055 0.4197838 -0.5657734
vn -0.940572 -0.3395774 0.003393203
vn -0.940572 -0.3395774 0.003393203
vn -0.940572 -0.3395774 0.003393203
vn -0.940572 -0.3395774 0.003393203
vn 0.6309235 -0.4241243 0.6496569
vn 0.6309235 -0.4241243 0.6496569
vn 0.6309235 -0.4241243 0.6496569
vn 0.2103266 0.7278433 -0.6526918
vn 0.2103266 0.7278433 -0.6526918
vn 0.2103266 0.7278433 -0.6526918
vn 0.2014553 0.7650494 0.6116495
vn 0.2014553 0.7650494 0.6116495
vn 0.2014553 0.7650494 0.6116495
vn 0.6397948 -0.4613304 -0.6146843
vn 0.6397948 -0.4613304 -0.6146843
vn 0.6397948 -0.4613304 -0.6146843
vn -0.1093578 0.2412942 -0.9642707
vn -0.1093578 0.2412942 -0.9642707
vn -0.1093578 0.2412942 -0.9642707
vn -0.1093578 0.2412942 -0.9642707
vn 0.4163646 -0.8881949 0.1942944
vn 0.4163646 -0.8881949 0.1942944
vn 0.4163646 -0.8881949 0.1942944
vn -0.3185547 0.6723807 0.668152
vn -0.3185547 0.6723807 0.668152
vn -0.3185547 0.6723807 0.668152
vn -0.7606732 -0.4881477 0.4278879
vn -0.7606732 -0.4881477 0.4278879
vn -0.7606732 -0.4881477 0.4278879
vn 0.8584831 0.2723335 0.4345585
vn 0.8584831 0.2723335 0.4345585
vn 0.8584831 0.2723335 0.4345585
vn -0.8564618 0.3907116 -0.3373688
vn -0.8564618 0.3907116 -0.3373688
vn -0.8564618 0.3907116 -0.3373688
vn -0.8564618 0.3907116 -0.3373688
vn 0.7466379 -0.07832285 -0.6606037
vn 0.7466379 -0.07832285 -0.6606037
vn 0.7466379 -0.07832285 -0.6606037
vn 0.01938384 -0.2711307 0.9623473
vn 0.01938384 -0.2711307 0.9623473
vn 0.01938384 -0.2711307 0.9623473
vn 0.09848168 -0.992401 -0.07376771
vn 0.09848168 -0.992401 -0.07376771
vn 0.09848168 -0.992401 -0.07376771
vn 0.6675401 0.6429474 0.3755113
vn 0.6675401 0.6429474 0.3755113
vn 0.6675401 0.6429474 0.3755113
vn 0.2204044 -0.5038971 -0.8351704
vn 0.2204044 -0.5038971 -0.8351704
vn 0.2204044 -0.5038971 -0.8351704
vn 0.2204044 -0.5038971 -0.8351704
vn -0.6883278 0.7208503 -0.0811135
vn -0.6883278 0.7208503 -0.0811135
vn -0.6883278 0.7208503 -0.0811135
vn 0.4911976 -0.2701634 0.8280922
vn 0.4911976 -0.2701634 0.8280922
vn 0.4911976 -0.2701634 0.8280922
vn 0.5443407 0.8180923 0.1855215
vn 0.5443407 0.8180923 0.1855215
vn 0.5443407 0.8180923 0.1855215
vn -0.7414709 -0.3674053 0.5614572
vn -0.7414709 -0.3674053 0.5614572
vn -0.7414709 -0.3674053 0.5614572
vn -0.3452985 -0.4651411 -0.8151152
vn -0.3452985 -0.4651411 -0.8151152
vn -0.3452985 -0.4651411 -0.8151152
vn -0.3452985 -0.4651411 -0.8151152
vn -0.2354146 -0.4088936 0.8816949
vn -0.2354146 -0.4088936 0.8816949
vn -0.2354146 -0.4088936 0.8816949
vn 0.5442505 0.824917 -0.1526537
vn 0.5442505 0.824917 -0.1526537
vn 0.5442505 0.824917 -0.1526537
vn -0.5889899 0.7043497 0.3962099
vn -0.5889899 0.7043497 0.3962099
vn -0.5889899 0.7043497 0.3962099
vn 0.8978258 -0.2883262 0.3328313
vn 0.8978258 -0.2883262 0.3328313
vn 0.8978258 -0.2883262 0.3328313
vn 0.5445266 -0.2452284 0.8020934
vn 0.5445266 -0.2452284 0.8020934
vn 0.5445266 -0.2452284 0.8020934
vn 0.5445266 -0.2452284 0.8020934
vn -0.2385354 0.9659421 -0.1002827
vn -0.2385354 0.9659421 -0.1002827
vn -0.2385354 0.9659421 -0.1002827
vn -0.2484907 -0.7466092 -0.6171119
vn -0.2484907 -0.7466092 -0.6171119
vn -0.2484907 -0.7466092 -0.6171119
vn -0.9936966 -0.02705472 0.1087882
vn -0.9936966 -0.02705472 0.1087882
vn -0.9936966 -0.02705472 0.1087882
vn 0.5066706 0.2463876 -0.8261828
vn 0.5066706 0.2463876 -0.8261828
vn 0.5066706 0.2463876 -0.8261828
vn -0.4104499 0.7954262 -0.4459015
vn -0.4104499 0.7954262 -0.4459015
vn -0.4104499 0.7954262 -0.4459015
vn -0.4104499 0.7954262 -0.4459015
vn 0.2304049 0.09932593 0.9680123
vn 0.2304049 0.09932593 0.9680123
vn 0.2304049 0.09932593 0.9680123
vn 0.1367026 -0.8107573 -0.5691968
vn 0.1367026 -0.8107573 -0.5691968
vn 0.1367026 -0.8107573 -0.5691968
vn 0.9978257 -0.06113295 -0.02463044
vn 0.9978257 -0.06113295 -0.02463044
vn 0.9978257 -0.06113295 -0.02463044
vn -0.6307182 -0.6502984 0.423446
vn -0.6307182 -0.6502984 0.423446
vn -0.6307182 -0.6502984 0.423446

vt 0.476116 0.601492
vt 0.665817 0.06558
vt 0.476358 0.076906
vt 0.721662 0.715486
vt 0.665817 0.06558
vt 0.721662 0.715486
vt 0.999243 0.8093
vt 0.915257 0.57643
vt 0.003578 0.558267
vt 0.286909 0.065406
vt 0.098517 0.042343
vt 0.233517 0.649976
vt 0.811794 0.970757
vt 0.999243 0.8093
vt 0.721662 0.715486
vt 0.476358 0.076906
vt 0.233517 0.649976
vt 0.476116 0.601492
vt 0.286909 0.065406
vt 0.855335 0.055278
vt 0.721662 0.715486
vt 0.915257 0.57643
vt 0.665817 0.06558
vt 0.476116 0.601492
vt 0.665817 0.06558
vt 0.476358 0.076906
vt 0.721662 0.715486
vt 0.665817 0.06558
vt 0.721662 0.715486
vt 0.999243 0.8093
vt 0.915257 0.57643
vt 0.003578 0.558267
vt 0.286909 0.065406
vt 0.098517 0.042343
vt 0.233517 0.649976
vt 0.811794 0.970757
vt 0.999243 0.8093
vt 0.721662 0.715486
vt 0.476358 0.076906
vt 0.233517 0.649976
vt 0.476116 0.601492
vt 0.286909 0.065406
vt 0.855335 0.055278
vt 0.721662 0.715486
vt 0.915257 0.57643
vt 0.665817 0.06558
vt 0.476116 0.601492
vt 0.665817 0.06558
vt 0.476358 0.076906
vt 0.721662 0.715486
vt 0.665817 0.06558
vt 0.721662 0.715486
vt 0.999243 0.8093
vt 0.915257 0.57643
vt 0.003578 0.558267
vt 0.286909 0.065406
vt 0.098517 0.042343
vt 0.233517 0.649976
vt 0.811794 0.970757
vt 0.999243 0.8093
vt 0.721662 0.715486
vt 0.476358 0.076906
vt 0.233517 0.649976
vt 0.476116 0.601492
vt 0.286909 0.065406
vt 0.855335 0.055278
vt 0.721662 0.715486
vt 0.915257 0.57643
vt 0.665817 0.06558
vt 0.309508 0.597561
vt 0.46052 0.228079
vt 0.200273 0.337314
vt 0.569755 0.488326
vt 0.274311 0.390687
vt 0.069954 0.336123
vt 0.219748 0.595044
vt 0.274311 0.390687
vt 0.478668 0.44525
vt 0.328874 0.186329
vt 0.219748 0.595044
vt 0.478668 0.44525
vt 0.274311 0.390687
vt 0.328874 0.186329
vt 0.069954 0.336123
vt 0.274311 0.390687
vt 0.309508 0.597561
vt 0.46052 0.228079
vt 0.200273 0.337314
vt 0.569755 0.488326
vt 0.274311 0.390687
vt 0.069954 0.336123
vt 0.219748 0.595044
vt 0.274311 0.390687
vt 0.478668 0.44525
vt 0.328874 0.186329
vt 0.219748 0.595044
vt 0.478668 0.44525
vt 0.274311 0.390687
vt 0.328874 0.186329
vt 0.069954 0.336123
vt 0.274311 0.390687
vt 0.309508 0.597561
vt 0.46052 0.228079
vt 0.200273 0.337314
vt 0.569755 0.488326
vt 0.274311 0.390687
vt 0.069954 0.336123
vt 0.219748 0.595044
vt 0.274311 0.390687
vt 0.478668 0.44525
vt 0.328874 0.186329
vt 0.219748 0.595044
vt 0.478668 0.44525
vt 0.274311 0.390687
vt 0.328874 0.186329
vt 0.069954 0.336123
vt 0.274311 0.390687
vt 0.309508 0.597561
vt 0.46052 0.228079
vt 0.200273 0.337314
vt 0.569755 0.488326
vt 0.274311 0.390687
vt 0.069954 0.336123
vt 0.219748 0.595044
vt 0.274311 0.390687
vt 0.478668 0.44525
vt 0.328874 0.186329
vt 0.219748 0.595044
vt 0.478668 0.44525
vt 0.274311 0.390687
vt 0.328874 0.186329
vt 0.069954 0.336123
vt 0.274311 0.390687
vt 0.309508 0.597561
vt 0.46052 0.228079
vt 0.200273 0.337314
vt 0.569755 0.488326
vt 0.274311 0.390687
vt 0.069954 0.336123
vt 0.219748 0.595044
vt 0.274311 0.390687
vt 0.478668 0.44525
vt 0.328874 0.186329
vt 0.219748 0.595044
vt 0.478668 0.44525
vt 0.274311 0.390687
vt 0.328874 0.186329
vt 0.069954 0.336123
vt 0.274311 0.390687
vt 0.309508 0.597561
vt 0.46052 0.228079
vt 0.200273 0.337314
vt 0.569755 0.488326
vt 0.274311 0.390687
vt 0.069954 0.336123
vt 0.219748 0.595044
vt 0.274311 0.390687
vt 0.478668 0.44525
vt 0.328874 0.186329
vt 0.219748 0.595044
vt 0.478668 0.44525
vt 0.274311 0.390687
vt 0.328874 0.186329
vt 0.069954 0.336123
vt 0.274311 0.390687
vt 0.309508 0.597561
vt 0.46052 0.228079
vt 0.200273 0.337314
vt 0.569755 0.488326
vt 0.274311 0.390687
vt 0.069954 0.336123
vt 0.219748 0.595044
vt 0.274311 0.390687
vt 0.478668 0.44525
vt 0.328874 0.186329
vt 0.219748 0.595044
vt 0.478668 0.44525
vt 0.274311 0.390687
vt 0.328874 0.186329
vt 0.069954 0.336123
vt 0.274311 0.390687
vt 0.309508 0.597561
vt 0.46052 0.228079
vt 0.200273 0.337314
vt 0.569755 0.488326
vt 0.274311 0.390687
vt 0.069954 0.336123
vt 0.219748 0.595044
vt 0.274311 0.390687
vt 0.478668 0.44525
vt 0.328874 0.186329
vt 0.219748 0.595044
vt 0.478668 0.44525
vt 0.274311 0.390687
vt 0.328874 0.186329
vt 0.069954 0.336123
vt 0.274311 0.390687
vt 0.309508 0.597561
vt 0.46052 0.228079
vt 0.200273 0.337314
vt 0.569755 0.488326
vt 0.274311 0.390687
vt 0.069954 0.336123
vt 0.219748 0.595044
vt 0.274311 0.390687
vt 0.478668 0.44525
vt 0.328874 0.186329
vt 0.219748 0.595044
vt 0.478668 0.44525
vt 0.274311 0.390687
vt 0.328874 0.186329
vt 0.069954 0.336123
vt 0.274311 0.390687
vt 0.309508 0.597561
vt 0.46052 0.228079
vt 0.200273 0.337314
vt 0.569755 0.488326
vt 0.274311 0.390687
vt 0.069954 0.336123
vt 0.219748 0.595044
vt 0.274311 0.390687
vt 0.478668 0.44525
vt 0.328874 0.186329
vt 0.219748 0.595044
vt 0.478668 0.44525
vt 0.274311 0.390687
vt 0.328874 0.186329
vt 0.069954 0.336123
vt 0.274311 0.390687




usemtl MEP_Crystal_01
usemap MEP_Crystal_01
f 1/1/1 3/3/3 2/2/2
f 1/1/1 5/5/5 4/4/4
f 6/6/6 8/8/8 7/7/7
f 13/13/13 15/15/15 14/14/14
f 24/24/24 26/26/26 25/25/25
f 24/24/24 28/28/28 27/27/27
f 29/29/29 31/31/31 30/30/30
f 36/36/36 38/38/38 37/37/37
f 47/47/47 49/49/49 48/48/48
f 47/47/47 51/51/51 50/50/50
f 52/52/52 54/54/54 53/53/53
f 59/59/59 61/61/61 60/60/60
f 74/74/74 76/76/76 75/75/75
f 77/77/77 79/79/79 78/78/78
f 80/80/80 82/82/82 81/81/81
f 83/83/83 85/85/85 84/84/84
f 90/90/90 92/92/92 91/91/91
f 93/93/93 95/95/95 94/94/94
f 96/96/96 98/98/98 97/97/97
f 99/99/99 101/101/101 100/100/100
f 106/106/106 108/108/108 107/107/107
f 109/109/109 111/111/111 110/110/110
f 112/112/112 114/114/114 113/113/113
f 115/115/115 117/117/117 116/116/116
f 122/122/122 124/124/124 123/123/123
f 125/125/125 127/127/127 126/126/126
f 128/128/128 130/130/130 129/129/129
f 131/131/131 133/133/133 132/132/132
f 138/138/138 140/140/140 139/139/139
f 141/141/141 143/143/143 142/142/142
f 144/144/144 146/146/146 145/145/145
f 147/147/147 149/149/149 148/148/148
f 154/154/154 156/156/156 155/155/155
f 157/157/157 159/159/159 158/158/158
f 160/160/160 162/162/162 161/161/161
f 163/163/163 165/165/165 164/164/164
f 170/170/170 172/172/172 171/171/171
f 173/173/173 175/175/175 174/174/174
f 176/176/176 178/178/178 177/177/177
f 179/179/179 181/181/181 180/180/180
f 186/186/186 188/188/188 187/187/187
f 189/189/189 191/191/191 190/190/190
f 192/192/192 194/194/194 193/193/193
f 195/195/195 197/197/197 196/196/196
f 202/202/202 204/204/204 203/203/203
f 205/205/205 207/207/207 206/206/206
f 208/208/208 210/210/210 209/209/209
f 211/211/211 213/213/213 212/212/212
f 218/218/218 220/220/220 219/219/219
f 221/221/221 223/223/223 222/222/222
f 224/224/224 226/226/226 225/225/225
f 227/227/227 229/229/229 228/228/228
f 9/9/9 11/11/11 10/10/10
f 9/9/9 10/10/10 12/12/12
f 16/16/16 18/18/18 17/17/17
f 16/16/16 17/17/17 19/19/19
f 20/20/20 22/22/22 21/21/21
f 20/20/20 21/21/21 23/23/23
f 32/32/32 34/34/34 33/33/33
f 32/32/32 33/33/33 35/35/35
f 39/39/39 41/41/41 40/40/40
f 39/39/39 40/40/40 42/42/42
f 43/43/43 45/45/45 44/44/44
f 43/43/43 44/44/44 46/46/46
f 55/55/55 57/57/57 56/56/56
f 55/55/55 56/56/56 58/58/58
f 62/62/62 64/64/64 63/63/63
f 62/62/62 63/63/63 65/65/65
f 66/66/66 68/68/68 67/67/67
f 66/66/66 67/67/67 69/69/69
f 70/70/70 72/72/72 71/71/71
f 70/70/70 71/71/71 73/73/73
f 86/86/86 88/88/88 87/87/87
f 86/86/86 87/87/87 89/89/89
f 102/102/102 104/104/104 103/103/103
f 102/102/102 103/103/103 105/105/105
f 118/118/118 120/120/120 119/119/119
f 118/118/118 119/119/119 121/121/121
f 134/134/134 136/136/136 135/135/135
f 134/134/134 135/135/135 137/137/137
f 150/150/150 152/152/152 151/151/151
f 150/150/150 151/151/151 153/153/153
f 166/166/166 168/168/168 167/167/167
f 166/166/166 167/167/167 169/169/169
f 182/182/182 184/184/184 183/183/183
f 182/182/182 183/183/183 185/185/185
f 198/198/198 200/200/200 199/199/199
f 198/198/198 199/199/199 201/201/201
f 214/214/214 216/216/216 215/215/215
f 214/214/214 215/215/215 217/217/217

