g NewMesh_tris_4
v 2.242896 -1.086805 -4.460972
v -1.56976 -1.776242 2.585103
v -1.265202 -7.331637 1.731078
v 1.452093 2.43382 -2.080858
v -1.387276 1.946097 4.886653
v 1.001866 2.319488 -2.598436
v 1.65075 7.770966 -1.530307
v -0.9338458 -1.645808 2.525202

vn -0.8798792 0.08180531 -0.4681029
vn -0.8804398 0.04984197 -0.471531
vn -0.8802362 0.02462364 -0.4738964
vn -0.8782602 0.1163228 -0.463819
vn -0.9484385 0.1115767 -0.2966733
vn -0.9451229 0.1434049 -0.2935604
vn -0.9418254 0.1683764 -0.2908857
vn -0.9509144 0.07697933 -0.2997265

vt 0.9999 0.9999
vt 0.0001 0.0001
vt 0.9999 0.0001
vt 0.0001 0.9999
vt 0.9999 0.9999
vt 0.0001 0.0001
vt 0.9999 0.0001
vt 0.0001 0.9999



vc 1 1 1 1
vc 1 1 1 1
vc 1 1 1 1
vc 1 1 1 1
vc 1 1 1 1
vc 1 1 1 1
vc 1 1 1 1
vc 1 1 1 1

usemtl MEP_Spiderweb
usemap MEP_Spiderweb
f 1/1/1 3/3/3 2/2/2
f 1/1/1 2/2/2 4/4/4
f 5/5/5 7/7/7 6/6/6
f 5/5/5 6/6/6 8/8/8

