g NewMesh_tris_4
v -2.880829 -0.6171805 -4.637462
v 2.483409 -2.016605 1.996826
v 3.922137 -7.167391 -0.8364667
v -2.309765 2.652988 -1.384721
v 3.275553 1.927439 4.445652
v -2.919336 2.227462 -1.304234
v -3.755805 7.80776 0.7746291
v 2.6204 -1.579038 1.466666

vn -0.7459952 -0.4236548 0.5138167
vn -0.7378309 -0.4520874 0.5012211
vn -0.7308669 -0.4741579 0.4909256
vn -0.753949 -0.3923739 0.526881
vn -0.6325271 -0.4035384 0.6611098
vn -0.6399395 -0.3739566 0.6712928
vn -0.6453069 -0.3503782 0.6788329
vn -0.623784 -0.4351028 0.6492913

vt 0.9999 0.9999
vt 0.0001 0.0001
vt 0.9999 0.0001
vt 0.0001 0.9999
vt 0.9999 0.9999
vt 0.0001 0.0001
vt 0.9999 0.0001
vt 0.0001 0.9999



vc 1 1 1 1
vc 1 1 1 1
vc 1 1 1 1
vc 1 1 1 1
vc 1 1 1 1
vc 1 1 1 1
vc 1 1 1 1
vc 1 1 1 1

usemtl MEP_Spiderweb
usemap MEP_Spiderweb
f 1/1/1 3/3/3 2/2/2
f 1/1/1 2/2/2 4/4/4
f 5/5/5 7/7/7 6/6/6
f 5/5/5 6/6/6 8/8/8

