g NewMesh_tris_162
v 0.2691631 0.2953898 -0.03926532
v 0.1392228 0.2725186 0.1162737
v 0.04992361 0.4091869 -0.06758906
v 0.1632883 0.3031798 -0.1989155
v -0.06176861 0.3384888 -0.2111166
v -0.1889199 0.384249 -0.06351646
v -0.05451041 0.3828793 0.1788715
v 0.005763955 -0.01347756 -0.05733201
v 0.03523972 -0.01801313 0.04386024
v 0.0519708 0.4014583 -0.06704081
v -0.05558539 0.001412772 0.02718924
v 1.643913 0.1629775 0.7774623
v 1.630853 0.1086387 1.029048
v 1.409693 0.3041325 0.9321063
v 1.416095 0.1928109 0.700669
v 1.183166 0.2329922 0.8656748
v 1.171378 0.2660061 1.116096
v 1.491517 0.2331493 1.254235
v 1.345238 -0.2290092 0.9214965
v 1.451885 -0.2483977 0.9990813
v 1.411656 0.2944068 0.9300824
v 1.349246 -0.2240053 1.054643
v 1.88293 0.09702217 2.06754
v 1.955326 0.02402171 1.868693
v 2.149796 0.1312833 2.022001
v 2.039558 0.06520604 2.204412
v 2.278724 0.01638487 2.148643
v 2.37572 0.01515342 1.951589
v 2.167764 0.06425985 1.735076
v 2.036863 -0.3208619 2.04389
v 1.974952 -0.31453 1.946253
v 2.144796 0.124096 2.022843
v 2.076962 -0.3288819 1.935567
v 1.549602 0.1959753 2.970734
v 1.572678 0.1405026 3.196236
v 1.36238 0.3202702 3.145171
v 1.335233 0.2252981 2.934556
v 1.150049 0.2579324 3.115606
v 1.174587 0.2815558 3.34203
v 1.480089 0.2477989 3.420124
v 1.300266 -0.1619373 3.131602
v 1.40639 -0.1816166 3.185643
v 1.3638 0.3115142 3.142848
v 1.322436 -0.1607539 3.250249
v 1.675887 0.2650728 3.261243
v 1.417776 0.2445025 3.375732
v 1.422428 0.410208 3.077392
v 1.643658 0.2543738 2.997291
v 1.372193 0.2924045 2.838736
v 1.12315 0.366047 2.9373
v 1.139493 0.3956434 3.320535
v 1.357074 -0.1752532 3.110962
v 1.330789 -0.1695065 3.254904
v 1.424553 0.3996617 3.08022
v 1.22858 -0.1482488 3.175796
v -0.5639352 0.7022832 1.692343
v -0.8861073 0.6767076 1.623567
v -0.6714631 0.8342519 1.327291
v -0.4116977 0.6571057 1.425407
v -0.5560541 0.6667649 1.085314
v -0.8565705 0.7491205 0.9958069
v -1.105893 0.8292401 1.360543
v -0.7692195 0.1553621 1.388941
v -0.8934394 0.1773287 1.504248
v -0.671662 0.8224761 1.332754
v -0.9341961 0.1867418 1.35721
v -0.8971676 0.7558393 -1.455595
v -1.089401 0.789337 -1.713386
v -0.7100481 0.8248636 -1.795533
v -0.6418437 0.6232368 -1.553535
v -0.5333905 0.59218 -1.897126
v -0.664605 0.7166869 -2.157724
v -1.036818 0.9241654 -2.050757
v -1.025045 0.2292362 -1.803747
v -1.175624 0.3018311 -1.799123
v -0.7171332 0.8151314 -1.791475
v -1.11192 0.2884378 -1.933799
v 1.753191 0.3375287 6.811694
v 1.603325 0.2942772 6.555137
v 1.942138 0.4123206 6.507274
v 2.023162 0.2736231 6.759816
v 2.166168 0.2394642 6.457868
v 2.049408 0.2920702 6.192563
v 1.656554 0.3943371 6.233612
v 1.803628 -0.196627 6.547242
v 1.651778 -0.169114 6.529833
v 1.937672 0.4022973 6.511606
v 1.726999 -0.1783102 6.41341
v 0.02788004 0.5344592 4.55689
v -0.06204421 0.4834336 4.330368
v 0.2198563 0.586552 4.327615
v 0.2566402 0.4852416 4.551202
v 0.4123164 0.4462349 4.323573
v 0.3491608 0.4748925 4.089313
v 0.02046327 0.5525969 4.068945
v 0.1106081 0.08124819 4.372951
v -0.01207812 0.09979985 4.338434
v 0.2158046 0.5783553 4.331096
v 0.06434418 0.08850162 4.252974
v 10.00568 0.4445563 10.53443
v 9.73499 0.3492588 10.60129
v 9.75549 0.5098774 10.28511
v 10.03368 0.4189999 10.26005
v 9.791377 0.3726822 10.04148
v 9.505774 0.3736902 10.08638
v 9.431324 0.4157208 10.47757
v 9.853308 -0.09258313 10.35314
v 9.795218 -0.09183139 10.49405
v 9.760004 0.5000554 10.28926
v 9.706135 -0.1027407 10.39143
v 8.258379 -0.07317818 6.922691
v 8.445041 -0.1021791 7.071235
v 8.218041 0.02933354 7.194131
v 8.071681 -0.09206572 7.04845
v 8.057443 -0.08048122 7.316617
v 8.228552 -0.02970352 7.470685
v 8.511444 0.007845566 7.311932
v 8.268837 -0.4689265 7.191897
v 8.387685 -0.4612571 7.156315
v 8.219352 0.02061755 7.190745
v 8.367673 -0.4516082 7.265254
v 8.828497 0.4835006 12.1067
v 9.080956 0.4144979 11.91747
v 9.170536 0.6416429 12.22074
v 8.934729 0.5029269 12.39044
v 9.280834 0.5348802 12.48888
v 9.535483 0.5752311 12.30465
v 9.41607 0.5592702 11.88263
v 9.184593 -0.03022948 12.25922
v 9.175117 -0.04610812 12.0932
v 9.166537 0.6296331 12.21984
v 9.31127 -0.02366393 12.15053
v 10.34776 0.2702757 9.462255
v 10.26678 0.2230429 9.653297
v 10.09566 0.3242134 9.491131
v 10.20217 0.2389748 9.328687
v 9.970141 0.2134736 9.375254
v 9.870938 0.2355062 9.55765
v 10.06344 0.2865065 9.767338
v 10.17187 -0.1121919 9.512409
v 10.22739 -0.1020141 9.606909
v 10.09993 0.3170216 9.491138
v 10.12935 -0.1078929 9.613843
v 8.060098 0.2620477 10.7553
v 7.908554 0.1610379 10.52838
v 8.18457 0.3573242 10.43713
v 8.322122 0.2707644 10.67736
v 8.43433 0.2528577 10.37238
v 8.286179 0.24894 10.12838
v 7.898992 0.2420697 10.20824
v 8.227857 -0.2415257 10.52232
v 8.078266 -0.2580273 10.52182
v 8.183619 0.3471801 10.44231
v 8.138997 -0.2558719 10.4017
v 9.469535 0.2084189 8.756732
v 9.243952 0.1160218 8.669312
v 9.40501 0.2763827 8.455269
v 9.62475 0.2031741 8.569269
v 9.556437 0.1715485 8.289553
v 9.325982 0.1646412 8.182749
v 9.079198 0.1764105 8.433363
v 9.472539 -0.254129 8.528214
v 9.361509 -0.2630563 8.602613
v 9.406764 0.2676009 8.4601
v 9.346931 -0.2679676 8.483789
v 9.613218 0.1794807 8.415426
v 9.394516 0.1024415 8.499393
v 9.380531 0.2335034 8.23291
v 9.608531 0.1551129 8.184943
v 9.384818 0.115965 8.028394
v 9.152108 0.1194067 8.094579
v 9.130133 0.1590892 8.426614
v 9.464927 -0.2706968 8.286117
v 9.430941 -0.2682083 8.409035
v 9.38464 0.2252921 8.236007
v 9.346477 -0.2777051 8.332921
v 7.728882 -0.2496652 4.179066
v 7.995215 -0.2714877 4.237858
v 7.818184 -0.1288827 4.476872
v 7.601666 -0.2763762 4.401002
v 7.720362 -0.2579913 4.682497
v 7.969739 -0.1896008 4.754645
v 8.177943 -0.1382793 4.450891
v 7.892805 -0.6935854 4.449616
v 7.996186 -0.6805708 4.353846
v 7.818251 -0.1388155 4.47276
v 8.029623 -0.6680852 4.4753
v 2.63196 0.08935864 8.848083
v 2.424881 0.06598476 9.005113
v 2.369632 0.2390447 8.748307
v 2.545852 0.09842017 8.618594
v 2.269668 0.1481653 8.538396
v 2.070077 0.2123532 8.685326
v 2.168246 0.2125354 9.026051
v 2.300929 -0.3003917 8.754602
v 2.308604 -0.3048139 8.889275
v 2.371832 0.2291268 8.749689
v 2.200639 -0.2783513 8.842188

vn 0.4446059 0.8872374 0.1230267
vn 0.4618729 0.8044217 0.3736029
vn 0.2266423 0.969395 -0.09437531
vn 0.351213 0.8532401 -0.3855265
vn 0.01050865 0.8937675 -0.4484075
vn -0.1051847 0.984688 -0.1390173
vn 0.2563314 0.9436487 0.2093358
vn 0.2278806 -0.04814776 -0.9724979
vn 0.74186 0.1435736 0.6550042
vn 0.1354172 0.9763822 -0.1683459
vn -0.8367001 0.3282079 0.4384204
vn 0.4741281 0.8766278 -0.08201472
vn 0.6351078 0.7663696 0.09651729
vn 0.1737294 0.9783276 -0.1126645
vn 0.09047496 0.8984599 -0.4296325
vn -0.2161375 0.938785 -0.2682675
vn -0.1161167 0.991706 0.05510388
vn 0.3797129 0.9190056 0.1060509
vn -0.4098241 0.06690989 -0.9097074
vn 0.9932038 0.08386178 0.08070709
vn 0.05686456 0.9917502 -0.1148842
vn -0.3823369 0.2591217 0.8869468
vn -0.1416253 0.9859765 -0.08827603
vn -0.2547728 0.9138494 -0.3161802
vn 0.1428729 0.988202 0.05517243
vn 0.07374665 0.9225628 0.3787336
vn 0.411799 0.8431529 0.3457091
vn 0.4594686 0.8881439 0.009439514
vn 0.0225257 0.9738514 -0.2260665
vn 0.05112984 0.03479159 0.9980857
vn -0.8045247 0.3897678 -0.4481306
vn 0.2481139 0.9633932 0.1015548
vn 0.7397687 0.01879304 -0.6725988
vn 0.4612338 0.877659 -0.1303002
vn 0.6470928 0.7621926 0.01825597
vn 0.1603278 0.9807401 -0.1115518
vn 0.02879131 0.90984 -0.413959
vn -0.2490783 0.9462641 -0.2062628
vn -0.1001555 0.9900186 0.09915729
vn 0.3971512 0.9149917 0.07114076
vn -0.5445358 0.09285817 -0.8335814
vn 0.9942875 0.07970419 -0.07099077
vn 0.04459853 0.9944414 -0.09538103
vn -0.2396707 0.2351856 0.9419372
vn 0.3488981 0.9071887 0.2351147
vn 0.2516654 0.8444029 0.4729145
vn 0.2517946 0.9657508 -0.0626487
vn 0.4926168 0.8314522 -0.2569355
vn 0.2163248 0.8566412 -0.4683691
vn -0.02489589 0.967461 -0.2517926
vn 0.1423083 0.9642941 0.2233502
vn 0.6384793 -0.1156428 -0.7609014
vn 0.3715031 0.2159231 0.9029745
vn 0.2033459 0.9642615 -0.169854
vn -0.9420835 0.3352362 -0.009771628
vn 0.1587462 0.9425452 0.2939528
vn -0.06178285 0.8991154 0.4333293
vn 0.2583634 0.9660164 -0.00778744
vn 0.5648547 0.8251705 -0.005719513
vn 0.4684057 0.8151428 -0.3407911
vn 0.1479197 0.9348724 -0.3226973
vn 0.0005577139 0.9877461 0.1560686
vn 0.9630179 -0.1591573 -0.2174062
vn -0.232534 0.3237217 0.9171327
vn 0.2829401 0.9513587 -0.1219085
vn -0.7459568 0.2848764 -0.6019916
vn 0.2275655 0.9222558 0.3125031
vn -0.03095059 0.9615511 0.272876
vn 0.493964 0.8563383 0.1506131
vn 0.6683057 0.6532369 0.3558778
vn 0.8042066 0.5929806 0.04032102
vn 0.6006528 0.7836047 -0.1586818
vn 0.2139744 0.9712914 0.1039616
vn 0.7760639 -0.4177667 0.4724361
vn -0.6350875 0.5593256 0.5327466
vn 0.5779194 0.8120549 0.08109364
vn -0.07150659 0.309779 -0.9481159
vn -0.05528277 0.9770505 0.205709
vn -0.3084096 0.941192 0.1379891
vn 0.2368567 0.9683418 0.07882199
vn 0.4307738 0.8421789 0.3242969
vn 0.6151095 0.7877421 0.0332076
vn 0.3955914 0.8947815 -0.2070594
vn -0.05530975 0.9984381 -0.007882582
vn 0.7931218 -0.1422869 0.5922096
vn -0.8170311 0.4213318 0.3936239
vn 0.3371865 0.9411391 0.02371825
vn -0.03159866 0.1777945 -0.9835603
vn -0.1037941 0.9851333 0.1368915
vn -0.3430313 0.9387028 0.03415488
vn 0.2043107 0.9772988 0.0560727
vn 0.3610764 0.8703159 0.3349239
vn 0.5883669 0.804768 0.07856786
vn 0.4058631 0.8922597 -0.1978583
vn -0.07184548 0.9945794 -0.07516705
vn 0.6966974 -0.08750034 0.7120087
vn -0.8748624 0.4202833 0.2407862
vn 0.312316 0.9498007 0.01837411
vn 0.1145539 0.121799 -0.9859222
vn 0.02786858 0.9734842 0.2270505
vn -0.09481987 0.8900121 0.4459682
vn -0.01837911 0.9960042 -0.0873945
vn 0.2847668 0.9327475 -0.2211105
vn 0.06184667 0.8735477 -0.4827934
vn -0.2397435 0.9146303 -0.3255374
vn -0.179457 0.9686792 0.1716267
vn 0.787559 0.05784059 -0.6135187
vn 0.1035216 0.3307037 0.9380397
vn -0.04143589 0.978622 -0.2014503
vn -0.9751786 0.05059569 -0.2155616
vn 0.04927338 0.9367784 -0.3464367
vn 0.3052191 0.8759474 -0.3735737
vn -0.171067 0.9779257 -0.1199889
vn -0.4539943 0.8536662 -0.2552314
vn -0.5155761 0.8523018 0.08810779
vn -0.2126434 0.9539168 0.2117202
vn 0.1333335 0.9791102 -0.1535101
vn -0.9687049 -0.09847316 -0.227846
vn 0.6328787 0.2728458 -0.7245825
vn -0.2442221 0.9693079 -0.02824718
vn 0.4223301 0.2692002 0.8655452
vn -0.3271456 0.9046208 -0.2731977
vn -0.2940569 0.8046593 -0.5158041
vn -0.1580679 0.9872969 -0.0161004
vn -0.3550501 0.9023836 0.2442197
vn -0.03536515 0.9234074 0.3821887
vn 0.1549843 0.9824774 0.1035283
vn -0.1200529 0.94099 -0.3164256
vn -0.4462091 0.0411377 0.8939827
vn -0.5584412 0.1459346 -0.8166068
vn -0.08578765 0.9933696 0.07653414
vn 0.9394526 0.2346115 -0.2497725
vn 0.2101744 0.9776229 0.008957276
vn 0.3088393 0.9184564 0.247095
vn -0.06764444 0.986854 -0.1467768
vn 0.008904072 0.8878647 -0.4600184
vn -0.3350909 0.8355145 -0.435465
vn -0.3922641 0.9136285 -0.1068265
vn 0.04038261 0.9893603 0.1397692
vn -0.009889553 -0.05116596 -0.9986413
vn 0.8130978 0.3711995 0.4484228
vn -0.1725557 0.9653999 -0.1955192
vn -0.761786 0.1304777 0.6345532
vn -0.3092679 0.9374683 0.1597079
vn -0.5472832 0.8275989 0.1247443
vn -0.04092088 0.9991623 -0.0006210538
vn 0.204418 0.9524139 0.2260996
vn 0.3664625 0.9268358 -0.08173683
vn 0.1026564 0.9486419 -0.2992332
vn -0.336781 0.9400809 -0.0531653
vn 0.856122 0.1322073 0.4995763
vn -0.8592207 0.2108062 0.4661553
vn 0.05695048 0.9962031 -0.06585077
vn -0.1792084 0.07927936 -0.9806117
vn -0.1562769 0.9558339 0.2489162
vn -0.3748335 0.8549773 0.358488
vn -0.02182135 0.9990883 -0.03669268
vn 0.3075835 0.9513506 0.01800961
vn 0.2705411 0.9058873 -0.3258463
vn -0.06938311 0.9299133 -0.3611749
vn -0.2975786 0.9506879 0.08740422
vn 0.9908912 0.1159696 -0.06845258
vn -0.4516688 0.2671226 0.8512585
vn 0.02313876 0.9891665 -0.1449637
vn -0.693657 0.0456837 -0.7188554
vn 0.06238426 0.9758642 0.2092778
vn -0.03353349 0.8961444 0.4424935
vn -0.02140038 0.9950017 -0.09753736
vn 0.2628601 0.9274184 -0.2660819
vn 0.009481235 0.8670672 -0.4981009
vn -0.2705519 0.9127491 -0.3060894
vn -0.1501541 0.9722512 0.1793916
vn 0.7079503 0.04336314 -0.7049298
vn 0.2187174 0.3410584 0.9142439
vn -0.05821655 0.9764519 -0.2077324
vn -0.9936918 0.05673832 -0.09673414
vn -0.1468834 0.9312008 -0.3336022
vn 0.07358722 0.8794795 -0.4702133
vn -0.247216 0.9683818 -0.03348118
vn -0.5553048 0.8310753 -0.03082942
vn -0.4600818 0.833945 0.3047302
vn -0.1381769 0.9491538 0.2828678
vn 0.01136156 0.980312 -0.1971273
vn -0.9655022 -0.1389548 0.2202207
vn 0.2392752 0.282482 -0.9289517
vn -0.272336 0.958782 0.08105834
vn 0.7472102 0.3012363 0.5923966
vn 0.4233171 0.8814625 0.2093481
vn 0.382455 0.8022714 0.4583542
vn 0.2611748 0.9638757 -0.05226148
vn 0.4453849 0.8411398 -0.3067832
vn 0.1282492 0.8863921 -0.4448161
vn -0.05189004 0.9840347 -0.1702444
vn 0.2216636 0.9423564 0.2506585
vn 0.4386282 -0.06706304 -0.8961628
vn 0.5792538 0.1412732 0.802812
vn 0.188963 0.9712415 -0.1448557
vn -0.9068916 0.3489608 0.2361653

vt 0.006348 0.557724
vt 0.21934 0.151886
vt 0.486499 0.552585
vt 0.265073 0.983768
vt 0.716928 0.996144
vt 0.977328 0.582564
vt 0.68374 0.098826
vt 0.007682 0.068272
vt 0.011386 0.146476
vt 0.765117 0.06957
vt 0.008331 0.010848
vt 0.006348 0.557724
vt 0.21934 0.151886
vt 0.486499 0.552585
vt 0.265073 0.983768
vt 0.716928 0.996144
vt 0.977328 0.582564
vt 0.68374 0.098826
vt 0.007682 0.068272
vt 0.011386 0.146476
vt 0.765117 0.06957
vt 0.008331 0.010848
vt 0.006348 0.557724
vt 0.21934 0.151886
vt 0.486499 0.552585
vt 0.265073 0.983768
vt 0.716928 0.996144
vt 0.977328 0.582564
vt 0.68374 0.098826
vt 0.007682 0.068272
vt 0.011386 0.146476
vt 0.765117 0.06957
vt 0.008331 0.010848
vt 0.006348 0.557724
vt 0.21934 0.151886
vt 0.486499 0.552585
vt 0.265073 0.983768
vt 0.716928 0.996144
vt 0.977328 0.582564
vt 0.68374 0.098826
vt 0.007682 0.068272
vt 0.011386 0.146476
vt 0.765117 0.06957
vt 0.008331 0.010848
vt 0.006348 0.557724
vt 0.21934 0.151886
vt 0.486499 0.552585
vt 0.265073 0.983768
vt 0.716928 0.996144
vt 0.977328 0.582564
vt 0.68374 0.098826
vt 0.007682 0.068272
vt 0.011386 0.146476
vt 0.765117 0.06957
vt 0.008331 0.010848
vt 0.006348 0.557724
vt 0.21934 0.151886
vt 0.486499 0.552585
vt 0.265073 0.983768
vt 0.716928 0.996144
vt 0.977328 0.582564
vt 0.68374 0.098826
vt 0.007682 0.068272
vt 0.011386 0.146476
vt 0.765117 0.06957
vt 0.008331 0.010848
vt 0.006348 0.557724
vt 0.21934 0.151886
vt 0.486499 0.552585
vt 0.265073 0.983768
vt 0.716928 0.996144
vt 0.977328 0.582564
vt 0.68374 0.098826
vt 0.007682 0.068272
vt 0.011386 0.146476
vt 0.765117 0.06957
vt 0.008331 0.010848
vt 0.006348 0.557724
vt 0.21934 0.151886
vt 0.486499 0.552585
vt 0.265073 0.983768
vt 0.716928 0.996144
vt 0.977328 0.582564
vt 0.68374 0.098826
vt 0.007682 0.068272
vt 0.011386 0.146476
vt 0.765117 0.06957
vt 0.008331 0.010848
vt 0.006348 0.557724
vt 0.21934 0.151886
vt 0.486499 0.552585
vt 0.265073 0.983768
vt 0.716928 0.996144
vt 0.977328 0.582564
vt 0.68374 0.098826
vt 0.007682 0.068272
vt 0.011386 0.146476
vt 0.765117 0.06957
vt 0.008331 0.010848
vt 0.006348 0.557724
vt 0.21934 0.151886
vt 0.486499 0.552585
vt 0.265073 0.983768
vt 0.716928 0.996144
vt 0.977328 0.582564
vt 0.68374 0.098826
vt 0.007682 0.068272
vt 0.011386 0.146476
vt 0.765117 0.06957
vt 0.008331 0.010848
vt 0.006348 0.557724
vt 0.21934 0.151886
vt 0.486499 0.552585
vt 0.265073 0.983768
vt 0.716928 0.996144
vt 0.977328 0.582564
vt 0.68374 0.098826
vt 0.007682 0.068272
vt 0.011386 0.146476
vt 0.765117 0.06957
vt 0.008331 0.010848
vt 0.006348 0.557724
vt 0.21934 0.151886
vt 0.486499 0.552585
vt 0.265073 0.983768
vt 0.716928 0.996144
vt 0.977328 0.582564
vt 0.68374 0.098826
vt 0.007682 0.068272
vt 0.011386 0.146476
vt 0.765117 0.06957
vt 0.008331 0.010848
vt 0.006348 0.557724
vt 0.21934 0.151886
vt 0.486499 0.552585
vt 0.265073 0.983768
vt 0.716928 0.996144
vt 0.977328 0.582564
vt 0.68374 0.098826
vt 0.007682 0.068272
vt 0.011386 0.146476
vt 0.765117 0.06957
vt 0.008331 0.010848
vt 0.006348 0.557724
vt 0.21934 0.151886
vt 0.486499 0.552585
vt 0.265073 0.983768
vt 0.716928 0.996144
vt 0.977328 0.582564
vt 0.68374 0.098826
vt 0.007682 0.068272
vt 0.011386 0.146476
vt 0.765117 0.06957
vt 0.008331 0.010848
vt 0.006348 0.557724
vt 0.21934 0.151886
vt 0.486499 0.552585
vt 0.265073 0.983768
vt 0.716928 0.996144
vt 0.977328 0.582564
vt 0.68374 0.098826
vt 0.007682 0.068272
vt 0.011386 0.146476
vt 0.765117 0.06957
vt 0.008331 0.010848
vt 0.006348 0.557724
vt 0.21934 0.151886
vt 0.486499 0.552585
vt 0.265073 0.983768
vt 0.716928 0.996144
vt 0.977328 0.582564
vt 0.68374 0.098826
vt 0.007682 0.068272
vt 0.011386 0.146476
vt 0.765117 0.06957
vt 0.008331 0.010848
vt 0.006348 0.557724
vt 0.21934 0.151886
vt 0.486499 0.552585
vt 0.265073 0.983768
vt 0.716928 0.996144
vt 0.977328 0.582564
vt 0.68374 0.098826
vt 0.007682 0.068272
vt 0.011386 0.146476
vt 0.765117 0.06957
vt 0.008331 0.010848
vt 0.006348 0.557724
vt 0.21934 0.151886
vt 0.486499 0.552585
vt 0.265073 0.983768
vt 0.716928 0.996144
vt 0.977328 0.582564
vt 0.68374 0.098826
vt 0.007682 0.068272
vt 0.011386 0.146476
vt 0.765117 0.06957
vt 0.008331 0.010848




usemtl MEP_MushRooms
usemap MEP_MushRooms
f 2/2/2 1/1/1 3/3/3
f 2/2/2 3/3/3 7/7/7
f 7/7/7 3/3/3 6/6/6
f 5/5/5 6/6/6 3/3/3
f 5/5/5 3/3/3 4/4/4
f 4/4/4 3/3/3 1/1/1
f 9/9/9 8/8/8 10/10/10
f 9/9/9 10/10/10 11/11/11
f 11/11/11 10/10/10 8/8/8
f 13/13/13 12/12/12 14/14/14
f 13/13/13 14/14/14 18/18/18
f 18/18/18 14/14/14 17/17/17
f 16/16/16 17/17/17 14/14/14
f 16/16/16 14/14/14 15/15/15
f 15/15/15 14/14/14 12/12/12
f 20/20/20 19/19/19 21/21/21
f 20/20/20 21/21/21 22/22/22
f 22/22/22 21/21/21 19/19/19
f 24/24/24 23/23/23 25/25/25
f 24/24/24 25/25/25 29/29/29
f 29/29/29 25/25/25 28/28/28
f 27/27/27 28/28/28 25/25/25
f 27/27/27 25/25/25 26/26/26
f 26/26/26 25/25/25 23/23/23
f 31/31/31 30/30/30 32/32/32
f 31/31/31 32/32/32 33/33/33
f 33/33/33 32/32/32 30/30/30
f 35/35/35 34/34/34 36/36/36
f 35/35/35 36/36/36 40/40/40
f 40/40/40 36/36/36 39/39/39
f 38/38/38 39/39/39 36/36/36
f 38/38/38 36/36/36 37/37/37
f 37/37/37 36/36/36 34/34/34
f 42/42/42 41/41/41 43/43/43
f 42/42/42 43/43/43 44/44/44
f 44/44/44 43/43/43 41/41/41
f 46/46/46 45/45/45 47/47/47
f 46/46/46 47/47/47 51/51/51
f 51/51/51 47/47/47 50/50/50
f 49/49/49 50/50/50 47/47/47
f 49/49/49 47/47/47 48/48/48
f 48/48/48 47/47/47 45/45/45
f 53/53/53 52/52/52 54/54/54
f 53/53/53 54/54/54 55/55/55
f 55/55/55 54/54/54 52/52/52
f 57/57/57 56/56/56 58/58/58
f 57/57/57 58/58/58 62/62/62
f 62/62/62 58/58/58 61/61/61
f 60/60/60 61/61/61 58/58/58
f 60/60/60 58/58/58 59/59/59
f 59/59/59 58/58/58 56/56/56
f 64/64/64 63/63/63 65/65/65
f 64/64/64 65/65/65 66/66/66
f 66/66/66 65/65/65 63/63/63
f 68/68/68 67/67/67 69/69/69
f 68/68/68 69/69/69 73/73/73
f 73/73/73 69/69/69 72/72/72
f 71/71/71 72/72/72 69/69/69
f 71/71/71 69/69/69 70/70/70
f 70/70/70 69/69/69 67/67/67
f 75/75/75 74/74/74 76/76/76
f 75/75/75 76/76/76 77/77/77
f 77/77/77 76/76/76 74/74/74
f 79/79/79 78/78/78 80/80/80
f 79/79/79 80/80/80 84/84/84
f 84/84/84 80/80/80 83/83/83
f 82/82/82 83/83/83 80/80/80
f 82/82/82 80/80/80 81/81/81
f 81/81/81 80/80/80 78/78/78
f 86/86/86 85/85/85 87/87/87
f 86/86/86 87/87/87 88/88/88
f 88/88/88 87/87/87 85/85/85
f 90/90/90 89/89/89 91/91/91
f 90/90/90 91/91/91 95/95/95
f 95/95/95 91/91/91 94/94/94
f 93/93/93 94/94/94 91/91/91
f 93/93/93 91/91/91 92/92/92
f 92/92/92 91/91/91 89/89/89
f 97/97/97 96/96/96 98/98/98
f 97/97/97 98/98/98 99/99/99
f 99/99/99 98/98/98 96/96/96
f 101/101/101 100/100/100 102/102/102
f 101/101/101 102/102/102 106/106/106
f 106/106/106 102/102/102 105/105/105
f 104/104/104 105/105/105 102/102/102
f 104/104/104 102/102/102 103/103/103
f 103/103/103 102/102/102 100/100/100
f 108/108/108 107/107/107 109/109/109
f 108/108/108 109/109/109 110/110/110
f 110/110/110 109/109/109 107/107/107
f 112/112/112 111/111/111 113/113/113
f 112/112/112 113/113/113 117/117/117
f 117/117/117 113/113/113 116/116/116
f 115/115/115 116/116/116 113/113/113
f 115/115/115 113/113/113 114/114/114
f 114/114/114 113/113/113 111/111/111
f 119/119/119 118/118/118 120/120/120
f 119/119/119 120/120/120 121/121/121
f 121/121/121 120/120/120 118/118/118
f 123/123/123 122/122/122 124/124/124
f 123/123/123 124/124/124 128/128/128
f 128/128/128 124/124/124 127/127/127
f 126/126/126 127/127/127 124/124/124
f 126/126/126 124/124/124 125/125/125
f 125/125/125 124/124/124 122/122/122
f 130/130/130 129/129/129 131/131/131
f 130/130/130 131/131/131 132/132/132
f 132/132/132 131/131/131 129/129/129
f 134/134/134 133/133/133 135/135/135
f 134/134/134 135/135/135 139/139/139
f 139/139/139 135/135/135 138/138/138
f 137/137/137 138/138/138 135/135/135
f 137/137/137 135/135/135 136/136/136
f 136/136/136 135/135/135 133/133/133
f 141/141/141 140/140/140 142/142/142
f 141/141/141 142/142/142 143/143/143
f 143/143/143 142/142/142 140/140/140
f 145/145/145 144/144/144 146/146/146
f 145/145/145 146/146/146 150/150/150
f 150/150/150 146/146/146 149/149/149
f 148/148/148 149/149/149 146/146/146
f 148/148/148 146/146/146 147/147/147
f 147/147/147 146/146/146 144/144/144
f 152/152/152 151/151/151 153/153/153
f 152/152/152 153/153/153 154/154/154
f 154/154/154 153/153/153 151/151/151
f 156/156/156 155/155/155 157/157/157
f 156/156/156 157/157/157 161/161/161
f 161/161/161 157/157/157 160/160/160
f 159/159/159 160/160/160 157/157/157
f 159/159/159 157/157/157 158/158/158
f 158/158/158 157/157/157 155/155/155
f 163/163/163 162/162/162 164/164/164
f 163/163/163 164/164/164 165/165/165
f 165/165/165 164/164/164 162/162/162
f 167/167/167 166/166/166 168/168/168
f 167/167/167 168/168/168 172/172/172
f 172/172/172 168/168/168 171/171/171
f 170/170/170 171/171/171 168/168/168
f 170/170/170 168/168/168 169/169/169
f 169/169/169 168/168/168 166/166/166
f 174/174/174 173/173/173 175/175/175
f 174/174/174 175/175/175 176/176/176
f 176/176/176 175/175/175 173/173/173
f 178/178/178 177/177/177 179/179/179
f 178/178/178 179/179/179 183/183/183
f 183/183/183 179/179/179 182/182/182
f 181/181/181 182/182/182 179/179/179
f 181/181/181 179/179/179 180/180/180
f 180/180/180 179/179/179 177/177/177
f 185/185/185 184/184/184 186/186/186
f 185/185/185 186/186/186 187/187/187
f 187/187/187 186/186/186 184/184/184
f 189/189/189 188/188/188 190/190/190
f 189/189/189 190/190/190 194/194/194
f 194/194/194 190/190/190 193/193/193
f 192/192/192 193/193/193 190/190/190
f 192/192/192 190/190/190 191/191/191
f 191/191/191 190/190/190 188/188/188
f 196/196/196 195/195/195 197/197/197
f 196/196/196 197/197/197 198/198/198
f 198/198/198 197/197/197 195/195/195

