g NewMesh_tris_80
v 0.537352 1.75248 -0.5866573
v -0.1581341 -0.0805002 0.3130919
v -0.1754127 -0.1383889 -0.2821212
v 0.8748605 2.127716 0.1014364
v -0.1581341 -0.0805002 0.3130919
v 0.8748605 2.127716 0.1014364
v 1.308613 1.642039 -0.5535526
v 1.292057 1.513416 0.2159189
v 1.292057 1.513416 0.2159189
v 0.3737324 -0.3757007 -0.2749822
v 0.391011 -0.3178121 0.3202308
v 1.308613 1.642039 -0.5535526
v 0.537352 1.75248 -0.5866573
v 1.308613 1.642039 -0.5535526
v 0.8748605 2.127716 0.1014364
v -0.1754127 -0.1383889 -0.2821212
v 1.308613 1.642039 -0.5535526
v 0.537352 1.75248 -0.5866573
v 0.3737324 -0.3757007 -0.2749822
v 0.391011 -0.3178121 0.3202308
v 0.8748605 2.127716 0.1014364
v 1.292057 1.513416 0.2159189
v -0.1581341 -0.0805002 0.3130919
v 0.3614015 0.6761879 2.081008
v -0.3817599 -0.5943581 1.802948
v -0.3209086 -0.3930986 1.44462
v 0.532106 0.5695267 2.638363
v -0.3817599 -0.5943581 1.802948
v 0.532106 0.5695267 2.638363
v 0.8697616 0.490392 2.098832
v 0.7475273 0.1224138 2.477368
v 0.7475273 0.1224138 2.477368
v 0.02973915 -0.6074594 1.383769
v -0.03111219 -0.8087188 1.742097
v 0.8697616 0.490392 2.098832
v 0.3614015 0.6761879 2.081008
v 0.8697616 0.490392 2.098832
v 0.532106 0.5695267 2.638363
v -0.3209086 -0.3930986 1.44462
v 0.8697616 0.490392 2.098832
v 0.3614015 0.6761879 2.081008
v 0.02973915 -0.6074594 1.383769
v -0.03111219 -0.8087188 1.742097
v 0.532106 0.5695267 2.638363
v 0.7475273 0.1224138 2.477368
v -0.3817599 -0.5943581 1.802948
v -0.8904068 0.9195921 -0.07514291
v -0.2022098 -0.0156265 -0.1428895
v -0.8211362 0.2848429 -0.5935196
v -0.2714804 0.6191226 0.3754872
v -0.009138962 0.8800375 -0.5613849
v -0.8211362 0.2848429 -0.5935196
v -0.2022098 -0.0156265 -0.1428895
v -0.009138962 0.8800375 -0.5613849
v -0.2714804 0.6191226 0.3754872
v -0.8904068 0.9195921 -0.07514291
v -0.2022098 -0.0156265 -0.1428895
v -0.2714804 0.6191226 0.3754872
v -0.009138962 0.8800375 -0.5613849
v -0.8904068 0.9195921 -0.07514291
v -0.8211362 0.2848429 -0.5935196
v -0.009138962 0.8800375 -0.5613849
v 0.00898602 -0.7321798 0.1415253
v 0.8646675 0.1966495 0.5788584
v -0.07330927 0.1485646 0.4740975
v 0.9469628 -0.684095 0.2462862
v 0.3561143 -0.6069769 1.238547
v -0.07330927 0.1485646 0.4740975
v 0.8646675 0.1966495 0.5788584
v 0.3561143 -0.6069769 1.238547
v 0.9469628 -0.684095 0.2462862
v 0.00898602 -0.7321798 0.1415253
v 0.8646675 0.1966495 0.5788584
v 0.9469628 -0.684095 0.2462862
v 0.3561143 -0.6069769 1.238547
v 0.00898602 -0.7321798 0.1415253
v -0.07330927 0.1485646 0.4740975
v 0.3561143 -0.6069769 1.238547
v -1.283459 1.517919 -0.3184993
v -0.3752213 0.8155445 0.2279731
v -1.265645 0.7386577 0.1296782
v -0.3930348 1.594806 -0.2202044
v -0.7058243 0.7248392 -0.8185053
v -1.265645 0.7386577 0.1296782
v -0.3752213 0.8155445 0.2279731
v -0.7058243 0.7248392 -0.8185053
v -0.3930348 1.594806 -0.2202044
v -1.283459 1.517919 -0.3184993
v -0.3752213 0.8155445 0.2279731
v -0.3930348 1.594806 -0.2202044
v -0.7058243 0.7248392 -0.8185053
v -1.283459 1.517919 -0.3184993
v -1.265645 0.7386577 0.1296782
v -0.7058243 0.7248392 -0.8185053
v -0.8700236 -0.8599866 1.505099
v -1.500818 0.6071827 1.363325
v -0.5965609 0.1707968 1.889803
v -1.774281 -0.4236006 0.9786201
v -0.5586589 0.05344994 0.5067872
v -0.5965609 0.1707968 1.889803
v -1.500818 0.6071827 1.363325
v -0.5586589 0.05344994 0.5067872
v -1.774281 -0.4236006 0.9786201
v -0.8700236 -0.8599866 1.505099
v -1.500818 0.6071827 1.363325
v -1.774281 -0.4236006 0.9786201
v -0.5586589 0.05344994 0.5067872
v -0.8700236 -0.8599866 1.505099
v -0.5965609 0.1707968 1.889803
v -0.5586589 0.05344994 0.5067872
v -1.027868 -0.3594602 1.855148
v -0.08155569 -0.4518879 1.925596
v -0.5780284 -0.2919859 2.35274
v -0.531395 -0.5193622 1.428004
v -0.6299815 -1.057122 2.046756
v -0.5780284 -0.2919859 2.35274
v -0.08155569 -0.4518879 1.925596
v -0.6299815 -1.057122 2.046756
v -0.531395 -0.5193622 1.428004
v -1.027868 -0.3594602 1.855148
v -0.08155569 -0.4518879 1.925596
v -0.531395 -0.5193622 1.428004
v -0.6299815 -1.057122 2.046756
v -1.027868 -0.3594602 1.855148
v -0.5780284 -0.2919859 2.35274
v -0.6299815 -1.057122 2.046756
v -1.75196 0.02090934 1.932978
v -1.285275 -1.101917 1.760977
v -2.014551 -0.6965892 1.520302
v -1.022683 -0.3844184 2.173652
v -1.127132 -0.2667072 1.121833
v -2.014551 -0.6965892 1.520302
v -1.285275 -1.101917 1.760977
v -1.127132 -0.2667072 1.121833
v -1.022683 -0.3844184 2.173652
v -1.75196 0.02090934 1.932978
v -1.285275 -1.101917 1.760977
v -1.022683 -0.3844184 2.173652
v -1.127132 -0.2667072 1.121833
v -1.75196 0.02090934 1.932978
v -2.014551 -0.6965892 1.520302
v -1.127132 -0.2667072 1.121833
v -1.412932 0.08851469 0.8212665
v -1.954288 0.8620007 1.814169
v -1.297433 1.004043 1.116339
v -2.069787 -0.05352808 1.519096
v -2.386321 0.7585093 0.713924
v -1.297433 1.004043 1.116339
v -1.954288 0.8620007 1.814169
v -2.386321 0.7585093 0.713924
v -2.069787 -0.05352808 1.519096
v -1.412932 0.08851469 0.8212665
v -1.954288 0.8620007 1.814169
v -2.069787 -0.05352808 1.519096
v -2.386321 0.7585093 0.713924
v -1.412932 0.08851469 0.8212665
v -1.297433 1.004043 1.116339
v -2.386321 0.7585093 0.713924
v -0.06812593 -0.7767744 0.8139229
v 0.1218116 0.3477805 1.460321
v -0.5134301 0.03479234 0.8621808
v 0.5671157 -0.4637863 1.412063
v -0.4805401 -0.5349078 1.843638
v -0.5134301 0.03479234 0.8621808
v 0.1218116 0.3477805 1.460321
v -0.4805401 -0.5349078 1.843638
v 0.5671157 -0.4637863 1.412063
v -0.06812593 -0.7767744 0.8139229
v 0.1218116 0.3477805 1.460321
v 0.5671157 -0.4637863 1.412063
v -0.4805401 -0.5349078 1.843638
v -0.06812593 -0.7767744 0.8139229
v -0.5134301 0.03479234 0.8621808
v -0.4805401 -0.5349078 1.843638
v 0.6473517 -0.2901012 0.9126199
v 0.3192283 -1.572152 1.405269
v 1.142542 -1.007229 1.399986
v -0.1759619 -0.8550239 0.9179035
v 0.2113484 -0.5266504 2.030413
v 1.142542 -1.007229 1.399986
v 0.3192283 -1.572152 1.405269
v 0.2113484 -0.5266504 2.030413
v -0.1759619 -0.8550239 0.9179035
v 0.6473517 -0.2901012 0.9126199
v 0.3192283 -1.572152 1.405269
v -0.1759619 -0.8550239 0.9179035
v 0.2113484 -0.5266504 2.030413
v 0.6473517 -0.2901012 0.9126199
v 1.142542 -1.007229 1.399986
v 0.2113484 -0.5266504 2.030413
v -0.5294079 0.2040719 0.07895242
v 0.2520882 -0.7612642 -1.116696
v -0.5660975 0.1421798 -1.137976
v 0.2887779 -0.6993722 0.1002331
v 0.7642897 0.5375227 -0.5876021
v -0.5660975 0.1421798 -1.137976
v 0.2520882 -0.7612642 -1.116696
v 0.7642897 0.5375227 -0.5876021
v 0.2887779 -0.6993722 0.1002331
v -0.5294079 0.2040719 0.07895242
v 0.2520882 -0.7612642 -1.116696
v 0.2887779 -0.6993722 0.1002331
v 0.7642897 0.5375227 -0.5876021
v -0.5294079 0.2040719 0.07895242
v -0.5660975 0.1421798 -1.137976
v 0.7642897 0.5375227 -0.5876021

vn -0.9085276 0.4015029 0.1156418
vn -0.9085276 0.4015029 0.1156418
vn -0.9085276 0.4015029 0.1156418
vn -0.9085276 0.4015029 0.1156418
vn -0.9085276 0.4015029 0.1156418
vn 0.8120021 0.5725775 0.1131705
vn 0.8120021 0.5725775 0.1131705
vn 0.8120021 0.5725775 0.1131705
vn 0.9014644 -0.4322484 -0.02287371
vn 0.9014644 -0.4322484 -0.02287371
vn 0.9014644 -0.4322484 -0.02287371
vn 0.9014644 -0.4322484 -0.02287371
vn 0.1426184 0.8378956 -0.5268691
vn 0.1426184 0.8378956 -0.5268691
vn 0.1426184 0.8378956 -0.5268691
vn -0.007865698 -0.1442957 -0.9895033
vn -0.007865698 -0.1442957 -0.9895033
vn -0.007865698 -0.1442957 -0.9895033
vn -0.007865698 -0.1442957 -0.9895033
vn -0.03979257 0.09687106 0.9945012
vn -0.03979257 0.09687106 0.9945012
vn -0.03979257 0.09687106 0.9945012
vn -0.03979257 0.09687106 0.9945012
vn -0.8581906 0.4465912 0.2531109
vn -0.8581906 0.4465912 0.2531109
vn -0.8581906 0.4465912 0.2531109
vn -0.8581906 0.4465912 0.2531109
vn -0.8581906 0.4465912 0.2531109
vn 0.8401099 0.2274854 0.4924081
vn 0.8401099 0.2274854 0.4924081
vn 0.8401099 0.2274854 0.4924081
vn 0.8301709 -0.5216541 -0.1967057
vn 0.8301709 -0.5216541 -0.1967057
vn 0.8301709 -0.5216541 -0.1967057
vn 0.8301709 -0.5216541 -0.1967057
vn 0.3399892 0.9374121 0.07527222
vn 0.3399892 0.9374121 0.07527222
vn 0.3399892 0.9374121 0.07527222
vn 0.16014 0.4388878 -0.8841565
vn 0.16014 0.4388878 -0.8841565
vn 0.16014 0.4388878 -0.8841565
vn 0.16014 0.4388878 -0.8841565
vn -0.2133155 -0.469838 0.8565914
vn -0.2133155 -0.469838 0.8565914
vn -0.2133155 -0.469838 0.8565914
vn -0.2133155 -0.469838 0.8565914
vn -0.6531355 -0.5204647 0.5500277
vn -0.6531355 -0.5204647 0.5500277
vn -0.6531355 -0.5204647 0.5500277
vn -0.6531355 -0.5204647 0.5500277
vn 0.3674167 -0.4575541 -0.8097216
vn 0.3674167 -0.4575541 -0.8097216
vn 0.3674167 -0.4575541 -0.8097216
vn 0.2167494 0.9230592 0.3177753
vn 0.2167494 0.9230592 0.3177753
vn 0.2167494 0.9230592 0.3177753
vn 0.9651821 -0.094016 0.2440991
vn 0.9651821 -0.094016 0.2440991
vn 0.9651821 -0.094016 0.2440991
vn -0.381016 0.5595211 -0.7360454
vn -0.381016 0.5595211 -0.7360454
vn -0.381016 0.5595211 -0.7360454
vn 0.08540702 0.3589417 -0.9294442
vn 0.08540702 0.3589417 -0.9294442
vn 0.08540702 0.3589417 -0.9294442
vn 0.08540702 0.3589417 -0.9294442
vn -0.1160831 0.6730676 0.730414
vn -0.1160831 0.6730676 0.730414
vn -0.1160831 0.6730676 0.730414
vn 0.03969483 -0.9941061 0.1008834
vn 0.03969483 -0.9941061 0.1008834
vn 0.03969483 -0.9941061 0.1008834
vn 0.8495607 -0.1150089 0.5148005
vn 0.8495607 -0.1150089 0.5148005
vn 0.8495607 -0.1150089 0.5148005
vn -0.925949 -0.2060295 0.316497
vn -0.925949 -0.2060295 0.316497
vn -0.925949 -0.2060295 0.316497
vn -0.1373731 0.4914686 0.8599926
vn -0.1373731 0.4914686 0.8599926
vn -0.1373731 0.4914686 0.8599926
vn -0.1373731 0.4914686 0.8599926
vn 0.07915395 -0.994979 0.06124828
vn 0.07915395 -0.994979 0.06124828
vn 0.07915395 -0.994979 0.06124828
vn 0.0437129 0.5554082 -0.8304281
vn 0.0437129 0.5554082 -0.8304281
vn 0.0437129 0.5554082 -0.8304281
vn 0.9472097 -0.1432998 -0.286808
vn 0.9472097 -0.1432998 -0.286808
vn 0.9472097 -0.1432998 -0.286808
vn -0.8243428 -0.296271 -0.4823717
vn -0.8243428 -0.296271 -0.4823717
vn -0.8243428 -0.296271 -0.4823717
vn -0.5528426 -0.1586404 0.8180454
vn -0.5528426 -0.1586404 0.8180454
vn -0.5528426 -0.1586404 0.8180454
vn -0.5528426 -0.1586404 0.8180454
vn 0.462979 0.8841757 -0.06232027
vn 0.462979 0.8841757 -0.06232027
vn 0.462979 0.8841757 -0.06232027
vn 0.03148492 -0.7422872 -0.6693418
vn 0.03148492 -0.7422872 -0.6693418
vn 0.03148492 -0.7422872 -0.6693418
vn -0.4661773 0.4152288 -0.7811937
vn -0.4661773 0.4152288 -0.7811937
vn -0.4661773 0.4152288 -0.7811937
vn 0.9606413 -0.2733403 0.04953166
vn 0.9606413 -0.2733403 0.04953166
vn 0.9606413 -0.2733403 0.04953166
vn 0.111648 0.9662956 -0.2319646
vn 0.111648 0.9662956 -0.2319646
vn 0.111648 0.9662956 -0.2319646
vn 0.111648 0.9662956 -0.2319646
vn 0.54688 -0.3426095 0.7638985
vn 0.54688 -0.3426095 0.7638985
vn 0.54688 -0.3426095 0.7638985
vn -0.6467384 -0.5216479 -0.5564287
vn -0.6467384 -0.5216479 -0.5564287
vn -0.6467384 -0.5216479 -0.5564287
vn 0.6087493 -0.6442733 -0.4629645
vn 0.6087493 -0.6442733 -0.4629645
vn 0.6087493 -0.6442733 -0.4629645
vn -0.7086076 -0.2199841 0.6704343
vn -0.7086076 -0.2199841 0.6704343
vn -0.7086076 -0.2199841 0.6704343
vn -0.4508294 -0.3153009 0.8350677
vn -0.4508294 -0.3153009 0.8350677
vn -0.4508294 -0.3153009 0.8350677
vn -0.4508294 -0.3153009 0.8350677
vn -0.06886245 -0.598034 -0.7985069
vn -0.06886245 -0.598034 -0.7985069
vn -0.06886245 -0.598034 -0.7985069
vn 0.4720855 0.88004 0.05162005
vn 0.4720855 0.88004 0.05162005
vn 0.4720855 0.88004 0.05162005
vn 0.9527804 -0.2764923 -0.1255444
vn 0.9527804 -0.2764923 -0.1255444
vn 0.9527804 -0.2764923 -0.1255444
vn -0.5495574 0.5584983 -0.6213424
vn -0.5495574 0.5584983 -0.6213424
vn -0.5495574 0.5584983 -0.6213424
vn 0.725331 -0.2923694 0.6232295
vn 0.725331 -0.2923694 0.6232295
vn 0.725331 -0.2923694 0.6232295
vn 0.725331 -0.2923694 0.6232295
vn -0.2177377 0.975987 -0.006291054
vn -0.2177377 0.975987 -0.006291054
vn -0.2177377 0.975987 -0.006291054
vn -0.4310004 -0.714491 -0.5511271
vn -0.4310004 -0.714491 -0.5511271
vn -0.4310004 -0.714491 -0.5511271
vn -0.9307936 -0.0003894166 0.3655448
vn -0.9307936 -0.0003894166 0.3655448
vn -0.9307936 -0.0003894166 0.3655448
vn 0.2820556 0.2618854 -0.9229629
vn 0.2820556 0.2618854 -0.9229629
vn 0.2820556 0.2618854 -0.9229629
vn 0.547359 0.3456556 -0.7621813
vn 0.547359 0.3456556 -0.7621813
vn 0.547359 0.3456556 -0.7621813
vn 0.547359 0.3456556 -0.7621813
vn -0.6744556 0.6285068 0.3874128
vn -0.6744556 0.6285068 0.3874128
vn -0.6744556 0.6285068 0.3874128
vn 0.1848963 -0.9376621 0.2942842
vn 0.1848963 -0.9376621 0.2942842
vn 0.1848963 -0.9376621 0.2942842
vn 0.3681678 0.147426 0.9179968
vn 0.3681678 0.147426 0.9179968
vn 0.3681678 0.147426 0.9179968
vn -0.8577272 -0.4565813 -0.2362997
vn -0.8577272 -0.4565813 -0.2362997
vn -0.8577272 -0.4565813 -0.2362997
vn 0.2723489 -0.405082 -0.8727741
vn 0.2723489 -0.405082 -0.8727741
vn 0.2723489 -0.405082 -0.8727741
vn 0.2723489 -0.405082 -0.8727741
vn 0.3217832 -0.4612306 0.8268747
vn 0.3217832 -0.4612306 0.8268747
vn 0.3217832 -0.4612306 0.8268747
vn -0.5653728 0.8235371 -0.04626316
vn -0.5653728 0.8235371 -0.04626316
vn -0.5653728 0.8235371 -0.04626316
vn -0.859297 -0.3248892 0.3950387
vn -0.859297 -0.3248892 0.3950387
vn -0.859297 -0.3248892 0.3950387
vn 0.6157074 0.6871957 0.3855729
vn 0.6157074 0.6871957 0.3855729
vn 0.6157074 0.6871957 0.3855729
vn -0.7406971 -0.6694692 0.05638028
vn -0.7406971 -0.6694692 0.05638028
vn -0.7406971 -0.6694692 0.05638028
vn -0.7406971 -0.6694692 0.05638028
vn 0.3043212 0.2539767 -0.9180874
vn 0.3043212 0.2539767 -0.9180874
vn 0.3043212 0.2539767 -0.9180874
vn 0.3581604 0.3447984 0.8676607
vn 0.3581604 0.3447984 0.8676607
vn 0.3581604 0.3447984 0.8676607
vn 0.9315528 -0.3634794 -0.009599462
vn 0.9315528 -0.3634794 -0.009599462
vn 0.9315528 -0.3634794 -0.009599462
vn -0.2690712 0.9622545 -0.04082721
vn -0.2690712 0.9622545 -0.04082721
vn -0.2690712 0.9622545 -0.04082721

vt 0.476116 0.601492
vt 0.665817 0.06558
vt 0.476358 0.076906
vt 0.721662 0.715486
vt 0.665817 0.06558
vt 0.721662 0.715486
vt 0.999243 0.8093
vt 0.915257 0.57643
vt 0.003578 0.558267
vt 0.286909 0.065406
vt 0.098517 0.042343
vt 0.233517 0.649976
vt 0.811794 0.970757
vt 0.999243 0.8093
vt 0.721662 0.715486
vt 0.476358 0.076906
vt 0.233517 0.649976
vt 0.476116 0.601492
vt 0.286909 0.065406
vt 0.855335 0.055278
vt 0.721662 0.715486
vt 0.915257 0.57643
vt 0.665817 0.06558
vt 0.476116 0.601492
vt 0.665817 0.06558
vt 0.476358 0.076906
vt 0.721662 0.715486
vt 0.665817 0.06558
vt 0.721662 0.715486
vt 0.999243 0.8093
vt 0.915257 0.57643
vt 0.003578 0.558267
vt 0.286909 0.065406
vt 0.098517 0.042343
vt 0.233517 0.649976
vt 0.811794 0.970757
vt 0.999243 0.8093
vt 0.721662 0.715486
vt 0.476358 0.076906
vt 0.233517 0.649976
vt 0.476116 0.601492
vt 0.286909 0.065406
vt 0.855335 0.055278
vt 0.721662 0.715486
vt 0.915257 0.57643
vt 0.665817 0.06558
vt 0.309508 0.597561
vt 0.46052 0.228079
vt 0.200273 0.337314
vt 0.569755 0.488326
vt 0.274311 0.390687
vt 0.069954 0.336123
vt 0.219748 0.595044
vt 0.274311 0.390687
vt 0.478668 0.44525
vt 0.328874 0.186329
vt 0.219748 0.595044
vt 0.478668 0.44525
vt 0.274311 0.390687
vt 0.328874 0.186329
vt 0.069954 0.336123
vt 0.274311 0.390687
vt 0.309508 0.597561
vt 0.46052 0.228079
vt 0.200273 0.337314
vt 0.569755 0.488326
vt 0.274311 0.390687
vt 0.069954 0.336123
vt 0.219748 0.595044
vt 0.274311 0.390687
vt 0.478668 0.44525
vt 0.328874 0.186329
vt 0.219748 0.595044
vt 0.478668 0.44525
vt 0.274311 0.390687
vt 0.328874 0.186329
vt 0.069954 0.336123
vt 0.274311 0.390687
vt 0.309508 0.597561
vt 0.46052 0.228079
vt 0.200273 0.337314
vt 0.569755 0.488326
vt 0.274311 0.390687
vt 0.069954 0.336123
vt 0.219748 0.595044
vt 0.274311 0.390687
vt 0.478668 0.44525
vt 0.328874 0.186329
vt 0.219748 0.595044
vt 0.478668 0.44525
vt 0.274311 0.390687
vt 0.328874 0.186329
vt 0.069954 0.336123
vt 0.274311 0.390687
vt 0.309508 0.597561
vt 0.46052 0.228079
vt 0.200273 0.337314
vt 0.569755 0.488326
vt 0.274311 0.390687
vt 0.069954 0.336123
vt 0.219748 0.595044
vt 0.274311 0.390687
vt 0.478668 0.44525
vt 0.328874 0.186329
vt 0.219748 0.595044
vt 0.478668 0.44525
vt 0.274311 0.390687
vt 0.328874 0.186329
vt 0.069954 0.336123
vt 0.274311 0.390687
vt 0.309508 0.597561
vt 0.46052 0.228079
vt 0.200273 0.337314
vt 0.569755 0.488326
vt 0.274311 0.390687
vt 0.069954 0.336123
vt 0.219748 0.595044
vt 0.274311 0.390687
vt 0.478668 0.44525
vt 0.328874 0.186329
vt 0.219748 0.595044
vt 0.478668 0.44525
vt 0.274311 0.390687
vt 0.328874 0.186329
vt 0.069954 0.336123
vt 0.274311 0.390687
vt 0.309508 0.597561
vt 0.46052 0.228079
vt 0.200273 0.337314
vt 0.569755 0.488326
vt 0.274311 0.390687
vt 0.069954 0.336123
vt 0.219748 0.595044
vt 0.274311 0.390687
vt 0.478668 0.44525
vt 0.328874 0.186329
vt 0.219748 0.595044
vt 0.478668 0.44525
vt 0.274311 0.390687
vt 0.328874 0.186329
vt 0.069954 0.336123
vt 0.274311 0.390687
vt 0.309508 0.597561
vt 0.46052 0.228079
vt 0.200273 0.337314
vt 0.569755 0.488326
vt 0.274311 0.390687
vt 0.069954 0.336123
vt 0.219748 0.595044
vt 0.274311 0.390687
vt 0.478668 0.44525
vt 0.328874 0.186329
vt 0.219748 0.595044
vt 0.478668 0.44525
vt 0.274311 0.390687
vt 0.328874 0.186329
vt 0.069954 0.336123
vt 0.274311 0.390687
vt 0.309508 0.597561
vt 0.46052 0.228079
vt 0.200273 0.337314
vt 0.569755 0.488326
vt 0.274311 0.390687
vt 0.069954 0.336123
vt 0.219748 0.595044
vt 0.274311 0.390687
vt 0.478668 0.44525
vt 0.328874 0.186329
vt 0.219748 0.595044
vt 0.478668 0.44525
vt 0.274311 0.390687
vt 0.328874 0.186329
vt 0.069954 0.336123
vt 0.274311 0.390687
vt 0.309508 0.597561
vt 0.46052 0.228079
vt 0.200273 0.337314
vt 0.569755 0.488326
vt 0.274311 0.390687
vt 0.069954 0.336123
vt 0.219748 0.595044
vt 0.274311 0.390687
vt 0.478668 0.44525
vt 0.328874 0.186329
vt 0.219748 0.595044
vt 0.478668 0.44525
vt 0.274311 0.390687
vt 0.328874 0.186329
vt 0.069954 0.336123
vt 0.274311 0.390687
vt 0.309508 0.597561
vt 0.46052 0.228079
vt 0.200273 0.337314
vt 0.569755 0.488326
vt 0.274311 0.390687
vt 0.069954 0.336123
vt 0.219748 0.595044
vt 0.274311 0.390687
vt 0.478668 0.44525
vt 0.328874 0.186329
vt 0.219748 0.595044
vt 0.478668 0.44525
vt 0.274311 0.390687
vt 0.328874 0.186329
vt 0.069954 0.336123
vt 0.274311 0.390687




usemtl MEP_Crystal_01
usemap MEP_Crystal_01
f 1/1/1 3/3/3 2/2/2
f 1/1/1 5/5/5 4/4/4
f 6/6/6 8/8/8 7/7/7
f 13/13/13 15/15/15 14/14/14
f 24/24/24 26/26/26 25/25/25
f 24/24/24 28/28/28 27/27/27
f 29/29/29 31/31/31 30/30/30
f 36/36/36 38/38/38 37/37/37
f 51/51/51 53/53/53 52/52/52
f 54/54/54 56/56/56 55/55/55
f 57/57/57 59/59/59 58/58/58
f 60/60/60 62/62/62 61/61/61
f 67/67/67 69/69/69 68/68/68
f 70/70/70 72/72/72 71/71/71
f 73/73/73 75/75/75 74/74/74
f 76/76/76 78/78/78 77/77/77
f 83/83/83 85/85/85 84/84/84
f 86/86/86 88/88/88 87/87/87
f 89/89/89 91/91/91 90/90/90
f 92/92/92 94/94/94 93/93/93
f 99/99/99 101/101/101 100/100/100
f 102/102/102 104/104/104 103/103/103
f 105/105/105 107/107/107 106/106/106
f 108/108/108 110/110/110 109/109/109
f 115/115/115 117/117/117 116/116/116
f 118/118/118 120/120/120 119/119/119
f 121/121/121 123/123/123 122/122/122
f 124/124/124 126/126/126 125/125/125
f 131/131/131 133/133/133 132/132/132
f 134/134/134 136/136/136 135/135/135
f 137/137/137 139/139/139 138/138/138
f 140/140/140 142/142/142 141/141/141
f 147/147/147 149/149/149 148/148/148
f 150/150/150 152/152/152 151/151/151
f 153/153/153 155/155/155 154/154/154
f 156/156/156 158/158/158 157/157/157
f 163/163/163 165/165/165 164/164/164
f 166/166/166 168/168/168 167/167/167
f 169/169/169 171/171/171 170/170/170
f 172/172/172 174/174/174 173/173/173
f 179/179/179 181/181/181 180/180/180
f 182/182/182 184/184/184 183/183/183
f 185/185/185 187/187/187 186/186/186
f 188/188/188 190/190/190 189/189/189
f 195/195/195 197/197/197 196/196/196
f 198/198/198 200/200/200 199/199/199
f 201/201/201 203/203/203 202/202/202
f 204/204/204 206/206/206 205/205/205
f 9/9/9 11/11/11 10/10/10
f 9/9/9 10/10/10 12/12/12
f 16/16/16 18/18/18 17/17/17
f 16/16/16 17/17/17 19/19/19
f 20/20/20 22/22/22 21/21/21
f 20/20/20 21/21/21 23/23/23
f 32/32/32 34/34/34 33/33/33
f 32/32/32 33/33/33 35/35/35
f 39/39/39 41/41/41 40/40/40
f 39/39/39 40/40/40 42/42/42
f 43/43/43 45/45/45 44/44/44
f 43/43/43 44/44/44 46/46/46
f 47/47/47 49/49/49 48/48/48
f 47/47/47 48/48/48 50/50/50
f 63/63/63 65/65/65 64/64/64
f 63/63/63 64/64/64 66/66/66
f 79/79/79 81/81/81 80/80/80
f 79/79/79 80/80/80 82/82/82
f 95/95/95 97/97/97 96/96/96
f 95/95/95 96/96/96 98/98/98
f 111/111/111 113/113/113 112/112/112
f 111/111/111 112/112/112 114/114/114
f 127/127/127 129/129/129 128/128/128
f 127/127/127 128/128/128 130/130/130
f 143/143/143 145/145/145 144/144/144
f 143/143/143 144/144/144 146/146/146
f 159/159/159 161/161/161 160/160/160
f 159/159/159 160/160/160 162/162/162
f 175/175/175 177/177/177 176/176/176
f 175/175/175 176/176/176 178/178/178
f 191/191/191 193/193/193 192/192/192
f 191/191/191 192/192/192 194/194/194

