g NewMesh_tris_31
v 0.2789143 1.115725 -0.04087965
v -0.1717526 -0.06836865 0.03044418
v -0.363564 1.072445 -0.1248245
v 0.2540219 -0.0631015 -0.05450498
v -1.30728 1.432793 4.464328
v -1.786966 -0.004732576 4.187304
v -1.849308 1.380249 3.894265
v -1.320355 0.001661904 4.432455
v -0.2491233 0.7796306 3.676682
v -0.5230564 -0.004794303 3.548905
v -0.5708824 0.750959 3.392573
v -0.2577471 -0.00130498 3.659977
v -1.104001 1.044799 -1.862376
v -0.9156417 0.2324365 -1.612354
v -0.9479169 1.015106 -1.446153
v -1.104237 0.2360501 -1.842909
v 8.009016 1.440868 -4.681446
v 8.272264 0.03143233 -4.206401
v 8.176681 1.389351 -3.928644
v 8.003909 0.03770187 -4.648056
v -3.254462 0.8429936 3.610502
v -3.350232 0.07986464 3.888532
v -3.496623 0.8151004 3.950702
v -3.269747 0.08325923 3.620544
v 0.3151765 0.866734 1.102557
v -0.01254283 -0.05057479 0.9701049
v -0.0779618 0.8332054 0.790468
v 0.3040834 -0.04649437 1.083578
v 0.3540795 1.379253 -2.546872
v -0.1211926 0.1428603 -2.513694
v -0.3065835 1.334062 -2.69266
v 0.3294265 0.1483601 -2.56331
v 1.143407 1.071506 1.800924
v 1.064342 -0.3940767 1.695588
v 1.524229 0.9531143 2.095896
v -1.232891 0.9600999 5.236328
v -1.336764 -0.2220568 5.214044
v -0.8449677 0.8646039 5.214369
v 3.618066 1.152003 -0.3245104
v 3.659767 -0.4254057 -0.459995
v 3.60214 1.024578 0.193698
v 3.738417 1.120509 -0.2623489
v 3.8577 -0.3955084 -0.3281747
v 3.38144 0.9980433 0.0852792
v 10.64085 1.711581 0.5637969
v 10.72396 0.1710364 0.6745203
v 10.24055 1.587134 0.2537373
v 3.589166 1.167448 -0.9494464
v 2.81208 1.31218 -0.155763
v 3.117737 -0.2034165 -0.2321783
v 10.07955 1.172979 -0.3047779
v 10.46297 1.251348 0.1586117
v 10.43912 0.4306909 -0.01031222
v 1.9761 1.137863 -1.261424
v 1.613066 0.9611881 -2.104714
v 2.051672 -0.1582266 -1.63146
v -5.436168 2.011325 2.863768
v -4.904615 1.79838 1.893199
v -5.028636 0.4491574 2.660959
v -5.760123 1.477477 3.203618
v -5.871182 1.368331 2.647404
v -5.666928 0.6767774 2.989719
v -6.684007 1.921125 4.426805
v -6.022323 1.766234 4.885118
v -6.568282 0.7848454 4.737029
v 1.534568 1.30987 -1.965399
v 0.503152 1.110834 -1.887996
v 1.168127 -0.1502617 -2.181617
v 3.921731 1.304807 0.1593754
v 4.742471 1.122969 0.6276745
v 4.088813 -0.02915843 0.5103446
v 4.138446 1.358736 -2.573061
v 4.920805 1.144732 -3.363427
v 4.588319 -0.2112007 -2.656094
v 2.328413 1.370025 1.918558
v 2.778228 1.170484 0.9842566
v 2.699824 -0.09381621 1.708789

vn -0.05963527 0.08258537 0.9947981
vn 0.09445638 0.02398823 0.99524
vn -0.1360992 0.1110902 0.9844469
vn 0.1958151 -0.01544286 0.9805192
vn -0.6723926 0.08258537 0.7355732
vn -0.5529191 0.02398823 0.8328897
vn -0.725302 0.1110902 0.6794085
vn -0.4648845 -0.01544286 0.8852366
vn -0.605724 0.08258537 0.7913773
vn -0.4782234 0.02398823 0.8779107
vn -0.6633273 0.1110902 0.7400377
vn -0.3859615 -0.01544286 0.9223856
vn 0.9063516 0.08258537 -0.4143747
vn 0.8344002 0.02398823 -0.5506371
vn 0.9331098 0.1110902 -0.3420015
vn 0.7738174 -0.01544286 -0.6332204
vn 0.955201 0.08258537 -0.2842021
vn 0.9029138 0.02398823 -0.429152
vn 0.9716263 0.1110902 -0.2088092
vn 0.854414 -0.01544286 -0.5193632
vn 0.8503574 0.08258537 0.5196846
vn 0.9230893 0.02398823 0.3838372
vn 0.8053202 0.1110902 0.5823386
vn 0.9576766 -0.01544286 0.2874318
vn -0.5634766 0.08258537 0.8219938
vn -0.4316219 0.02398823 0.9017357
vn -0.6236877 0.1110902 0.7737393
vn -0.3371588 -0.01544286 0.9413211
vn -0.146111 0.08258537 0.985815
vn 0.007355735 0.02398823 0.9996853
vn -0.2213819 0.1110902 0.968839
vn 0.1096117 -0.01544286 0.9938545
vn 0.616705 0.02325577 -0.7868508
vn 0.616705 0.02325577 -0.7868508
vn 0.616705 0.02325577 -0.7868508
vn -0.05078721 0.02325577 -0.9984387
vn -0.05078721 0.02325577 -0.9984387
vn -0.05078721 0.02325577 -0.9984387
vn 0.9990658 0.02325577 0.03642575
vn 0.9990658 0.02325577 0.03642575
vn 0.9990658 0.02325577 0.03642575
vn 0.6933645 0.02325577 0.7202119
vn 0.6933645 0.02325577 0.7202119
vn 0.6933645 0.02325577 0.7202119
vn -0.6167052 0.02325577 0.7868507
vn -0.6167052 0.02325577 0.7868507
vn -0.6167052 0.02325577 0.7868507
vn -0.7201616 -0.1106925 -0.6849194
vn -0.7201616 -0.1106925 -0.6849194
vn -0.7201616 -0.1106925 -0.6849194
vn -0.7564446 -0.1106925 0.6446229
vn -0.7564446 -0.1106925 0.6446229
vn -0.7564446 -0.1106925 0.6446229
vn 0.8912659 0.1717606 -0.4196945
vn 0.8912659 0.1717606 -0.4196945
vn 0.8912659 0.1717606 -0.4196945
vn 0.8794418 0.1717606 0.4439375
vn 0.8794418 0.1717606 0.4439375
vn 0.8794418 0.1717606 0.4439375
vn 0.959049 0.1717606 -0.2252185
vn 0.959049 0.1717606 -0.2252185
vn 0.959049 0.1717606 -0.2252185
vn -0.5334325 0.1717606 0.8282198
vn -0.5334325 0.1717606 0.8282198
vn -0.5334325 0.1717606 0.8282198
vn -0.1066606 0.1717606 -0.9793477
vn -0.1066606 0.1717606 -0.9793477
vn -0.1066606 0.1717606 -0.9793477
vn -0.4592185 0.1717606 0.8715599
vn -0.4592185 0.1717606 0.8715599
vn -0.4592185 0.1717606 0.8715599
vn 0.723008 0.1717606 0.6691471
vn 0.723008 0.1717606 0.6691471
vn 0.723008 0.1717606 0.6691471
vn 0.9014703 0.1717606 0.3973029
vn 0.9014703 0.1717606 0.3973029
vn 0.9014703 0.1717606 0.3973029

vt 0.99898 0.999323
vt 0.760851 0.300332
vt 0.645684 0.999934
vt 0.98965 0.304891
vt 0.99898 0.999323
vt 0.760851 0.300332
vt 0.645684 0.999934
vt 0.98965 0.304891
vt 0.99898 0.999323
vt 0.760851 0.300332
vt 0.645684 0.999934
vt 0.98965 0.304891
vt 0.99898 0.999323
vt 0.760851 0.300332
vt 0.645684 0.999934
vt 0.98965 0.304891
vt 0.99898 0.999323
vt 0.760851 0.300332
vt 0.645684 0.999934
vt 0.98965 0.304891
vt 0.99898 0.999323
vt 0.760851 0.300332
vt 0.645684 0.999934
vt 0.98965 0.304891
vt 0.99898 0.999323
vt 0.760851 0.300332
vt 0.645684 0.999934
vt 0.98965 0.304891
vt 0.99898 0.999323
vt 0.760851 0.300332
vt 0.645684 0.999934
vt 0.98965 0.304891
vt -0.006391 0.021864
vt 0.081192 0.876851
vt 0.298698 0.008629
vt -0.006391 0.021864
vt 0.081192 0.876851
vt 0.298698 0.008629
vt -0.006391 0.021864
vt 0.081192 0.876851
vt 0.298698 0.008629
vt -0.006391 0.021864
vt 0.081192 0.876851
vt 0.298698 0.008629
vt -0.006391 0.021864
vt 0.081192 0.876851
vt 0.298698 0.008629
vt 0.876737 0.001002
vt 0.308069 1.7E-05
vt 0.614817 0.684772
vt 0.876737 0.001002
vt 0.308069 1.7E-05
vt 0.614817 0.684772
vt 0.027463 0.999213
vt 0.567618 0.999236
vt 0.272825 0.305572
vt 0.027463 0.999213
vt 0.567618 0.999236
vt 0.272825 0.305572
vt 0.027463 0.999213
vt 0.567618 0.999236
vt 0.272825 0.305572
vt 0.027463 0.999213
vt 0.567618 0.999236
vt 0.272825 0.305572
vt 0.027463 0.999213
vt 0.567618 0.999236
vt 0.272825 0.305572
vt 0.027463 0.999213
vt 0.567618 0.999236
vt 0.272825 0.305572
vt 0.027463 0.999213
vt 0.567618 0.999236
vt 0.272825 0.305572
vt 0.027463 0.999213
vt 0.567618 0.999236
vt 0.272825 0.305572



vc 1 1 1 1
vc 1 1 1 1
vc 1 1 1 1
vc 1 1 1 1
vc 1 1 1 1
vc 1 1 1 1
vc 1 1 1 1
vc 1 1 1 1
vc 1 1 1 1
vc 1 1 1 1
vc 1 1 1 1
vc 1 1 1 1
vc 1 1 1 1
vc 1 1 1 1
vc 1 1 1 1
vc 1 1 1 1
vc 1 1 1 1
vc 1 1 1 1
vc 1 1 1 1
vc 1 1 1 1
vc 1 1 1 1
vc 1 1 1 1
vc 1 1 1 1
vc 1 1 1 1
vc 1 1 1 1
vc 1 1 1 1
vc 1 1 1 1
vc 1 1 1 1
vc 1 1 1 1
vc 1 1 1 1
vc 1 1 1 1
vc 1 1 1 1
vc 1 1 1 1
vc 1 1 1 1
vc 1 1 1 1
vc 1 1 1 1
vc 1 1 1 1
vc 1 1 1 1
vc 1 1 1 1
vc 1 1 1 1
vc 1 1 1 1
vc 1 1 1 1
vc 1 1 1 1
vc 1 1 1 1
vc 1 1 1 1
vc 1 1 1 1
vc 1 1 1 1
vc 1 1 1 1
vc 1 1 1 1
vc 1 1 1 1
vc 1 1 1 1
vc 1 1 1 1
vc 1 1 1 1
vc 1 1 1 1
vc 1 1 1 1
vc 1 1 1 1
vc 1 1 1 1
vc 1 1 1 1
vc 1 1 1 1
vc 1 1 1 1
vc 1 1 1 1
vc 1 1 1 1
vc 1 1 1 1
vc 1 1 1 1
vc 1 1 1 1
vc 1 1 1 1
vc 1 1 1 1
vc 1 1 1 1
vc 1 1 1 1
vc 1 1 1 1
vc 1 1 1 1
vc 1 1 1 1
vc 1 1 1 1
vc 1 1 1 1
vc 1 1 1 1
vc 1 1 1 1
vc 1 1 1 1

usemtl MEP_Lumie
usemap MEP_Lumie
f 33/33/33 35/35/35 34/34/34
f 36/36/36 38/38/38 37/37/37
f 39/39/39 41/41/41 40/40/40
f 42/42/42 44/44/44 43/43/43
f 45/45/45 47/47/47 46/46/46
f 48/48/48 50/50/50 49/49/49
f 51/51/51 53/53/53 52/52/52
f 54/54/54 56/56/56 55/55/55
f 57/57/57 59/59/59 58/58/58
f 60/60/60 62/62/62 61/61/61
f 63/63/63 65/65/65 64/64/64
f 66/66/66 68/68/68 67/67/67
f 69/69/69 71/71/71 70/70/70
f 72/72/72 74/74/74 73/73/73
f 75/75/75 77/77/77 76/76/76
f 1/1/1 3/3/3 2/2/2
f 1/1/1 2/2/2 4/4/4
f 5/5/5 7/7/7 6/6/6
f 5/5/5 6/6/6 8/8/8
f 9/9/9 11/11/11 10/10/10
f 9/9/9 10/10/10 12/12/12
f 13/13/13 15/15/15 14/14/14
f 13/13/13 14/14/14 16/16/16
f 17/17/17 19/19/19 18/18/18
f 17/17/17 18/18/18 20/20/20
f 21/21/21 23/23/23 22/22/22
f 21/21/21 22/22/22 24/24/24
f 25/25/25 27/27/27 26/26/26
f 25/25/25 26/26/26 28/28/28
f 29/29/29 31/31/31 30/30/30
f 29/29/29 30/30/30 32/32/32

