g NewMesh_tris_180
v -10.35781 6.822177 -0.9895346
v -10.15068 6.567613 -0.6085418
v -10.34144 6.936247 -1.877639
v -10.00312 6.617963 -0.2302371
v -10.14728 6.783736 -2.318413
v -10.04794 6.921645 -2.744493
v -9.076184 6.782421 -3.607038
v -8.109452 5.821842 -1.340944
v -9.013853 6.639529 -3.473777
v -8.864655 6.321783 0.4733234
v -9.330023 6.516522 0.3400061
v -8.439404 6.473905 0.6819528
v -7.391997 6.423853 0.3484738
v -7.346037 6.554877 0.4799548
v -8.439404 6.473905 0.6819528
v -9.330023 6.516522 0.3400061
v -8.85427 7.191557 -0.5766079
v -7.8818 7.267414 -0.7671854
v -8.160846 7.698657 -1.460363
v -7.346037 6.554877 0.4799548
v -10.00312 6.617963 -0.2302371
v -9.222087 7.409119 -1.192435
v -10.35781 6.822177 -0.9895346
v -10.34144 6.936247 -1.877639
v -10.04794 6.921645 -2.744493
v -8.601703 7.487655 -2.559674
v -9.076184 6.782421 -3.607038
v -6.160619 6.646781 -2.815614
v -6.882386 6.730645 -3.564427
v -5.920205 6.455839 -2.321404
v -5.75023 6.609963 -1.894556
v -7.348383 6.605051 -3.715053
v -7.745487 6.773672 -3.896685
v -9.076184 6.782421 -3.607038
v -8.109452 5.821842 -1.340944
v -9.013853 6.639529 -3.473777
v -6.198357 6.652773 -0.7335357
v -5.909823 6.744809 -1.080878
v -6.438243 6.796123 -0.3336186
v -7.391997 6.423853 0.3484738
v -7.346037 6.554877 0.4799548
v -6.438243 6.796123 -0.3336186
v -6.991861 7.347362 -1.417898
v -5.909823 6.744809 -1.080878
v -7.8818 7.267414 -0.7671854
v -8.160846 7.698657 -1.460363
v -7.346037 6.554877 0.4799548
v -5.75023 6.609963 -1.894556
v -7.169929 7.375779 -2.136265
v -6.160619 6.646781 -2.815614
v -6.882386 6.730645 -3.564427
v -7.745487 6.773672 -3.896685
v -8.601703 7.487655 -2.559674
v -9.076184 6.782421 -3.607038
v -8.178604 5.982448 -1.187453
v -8.474077 5.598539 -1.117115
v -8.269266 6.025121 -1.422539
v -8.291951 5.657069 -1.70802
v -8.042966 6.018539 -1.532441
v -8.300038 4.965278 -1.363734
v -7.734973 5.599226 -1.527332
v -7.953483 5.988583 -1.29935
v -8.029108 4.954228 -1.488982
v -7.970275 5.542738 -0.9898651
v -8.178604 5.982448 -1.187453
v -7.916763 4.925012 -1.200793
v -7.970275 5.542738 -0.9898651
v -8.239053 4.920193 -0.9703445
v -8.029108 4.954228 -1.488982
v -7.771541 3.037139 -0.5832564
v -8.239053 4.920193 -0.9703445
v -8.029108 4.954228 -1.488982
v -8.220143 2.996776 -0.6133252
v -7.921626 2.956357 -0.8157099
v -7.921626 2.956357 -0.8157099
v -7.916763 4.925012 -1.200793
v -8.239053 4.920193 -0.9703445
v -7.960208 3.104124 -0.3272807
v -7.771541 3.037139 -0.5832564
v -7.960208 3.104124 -0.3272807
v -7.960208 3.104124 -0.3272807
v -8.220143 2.996776 -0.6133252
v -8.558646 0.9232486 0.09015331
v -8.220143 2.996776 -0.6133252
v -8.469625 0.857218 0.542416
v -8.11639 0.8223616 -0.2997318
v -7.960208 3.104124 -0.3272807
v -7.890795 1.044905 0.5324816
v -7.548349 0.9380097 0.03965493
v -7.771541 3.037139 -0.5832564
v -7.921626 2.956357 -0.8157099
v -7.714231 0.9108145 -0.2660588
v -7.771541 3.037139 -0.5832564
v -7.548349 0.9380097 0.03965493
v -8.220143 2.996776 -0.6133252
v -7.921626 2.956357 -0.8157099
v 0.9621706 8.525275 -2.040509
v 0.3515626 8.004481 -2.205168
v 1.781385 8.513557 -0.7227309
v -0.4970284 8.467418 -2.823148
v 1.72807 8.234001 0.3702067
v 1.945514 8.907003 0.8356267
v 0.9121897 8.702603 2.784151
v -1.920358 7.813864 0.6482859
v 0.633394 8.250598 2.584547
v -2.456797 7.736299 -2.996068
v -1.964158 8.253599 -3.259817
v -3.424049 8.074787 -2.926832
v -4.576444 7.624862 -1.363843
v -4.835128 8.074478 -1.569296
v -3.424049 8.074787 -2.926832
v -1.964158 8.253599 -3.259817
v -2.074655 10.69574 -1.757129
v -3.784446 10.71748 -0.9088691
v -2.37529 11.89936 0.0754104
v -4.835128 8.074478 -1.569296
v -0.4970284 8.467418 -2.823148
v -0.4913025 10.78791 -0.9197147
v 0.9621706 8.525275 -2.040509
v -0.5807747 10.9811 1.541246
v 1.781385 8.513557 -0.7227309
v 1.945514 8.907003 0.8356267
v 0.9121897 8.702603 2.784151
v -3.664993 8.697783 4.019402
v -2.225497 8.686107 4.444631
v -4.061081 8.287482 3.547695
v -4.94113 8.495302 3.05547
v -1.250453 8.45698 4.16049
v -0.7852113 9.020035 4.098485
v 0.9121897 8.702603 2.784151
v -1.920358 7.813864 0.6482859
v 0.633394 8.250598 2.584547
v -5.472023 8.005516 1.097078
v -5.683659 8.316245 1.675199
v -5.637319 8.20319 0.1647714
v -4.576444 7.624862 -1.363843
v -4.835128 8.074478 -1.569296
v -5.637319 8.20319 0.1647714
v -4.254202 10.63742 1.098081
v -5.683659 8.316245 1.675199
v -3.784446 10.71748 -0.9088691
v -2.37529 11.89936 0.0754104
v -4.835128 8.074478 -1.569296
v -4.94113 8.495302 3.05547
v -2.926513 10.86528 2.376266
v -3.664993 8.697783 4.019402
v -2.225497 8.686107 4.444631
v -0.7852113 9.020035 4.098485
v -0.5807747 10.9811 1.541246
v 0.9121897 8.702603 2.784151
v -2.014697 8.28844 0.2389392
v -1.481531 7.476826 0.05623204
v -1.597749 8.363279 0.5416861
v -2.41889 7.417251 0.3068691
v -1.862637 6.263405 0.3163023
v -1.273163 7.561247 1.084209
v -1.918473 8.360102 0.950491
v -1.481531 7.476826 0.05623204
v -1.444166 6.335166 0.8060777
v -2.29498 7.509007 1.289501
v -2.315392 8.295988 0.6463314
v -1.740511 6.347709 1.195127
v -2.41889 7.417251 0.3068691
v -2.014697 8.28844 0.2389392
v -2.134472 6.291986 0.8942611
v -1.740511 6.347709 1.195127
v -1.862637 6.263405 0.3163023
v -0.7930916 3.098337 0.3997453
v -2.134472 6.291986 0.8942611
v -1.862637 6.263405 0.3163023
v -1.32697 2.987198 0.1771047
v -1.740511 6.347709 1.195127
v -1.377196 2.997379 0.698536
v -1.039848 3.080315 0.9048233
v -1.377196 2.997379 0.698536
v -1.32697 2.987198 0.1771047
v 0.8820231 -0.2973897 -0.2550638
v -0.7930916 3.098337 0.3997453
v 0.4608597 -0.6861361 -0.7675793
v 0.6266319 -0.3503216 0.6384385
v -1.32697 2.987198 0.1771047
v -0.4104732 -0.5409549 -0.3835684
v -0.462239 -0.5153429 0.5864572
v -1.377196 2.997379 0.698536
v -1.039848 3.080315 0.9048233
v -0.002872947 -0.337925 0.8829749
v -1.377196 2.997379 0.698536
v -0.462239 -0.5153429 0.5864572
v -1.039848 3.080315 0.9048233
v -1.740511 6.347709 1.195127
v -0.7930916 3.098337 0.3997453
v -1.039848 3.080315 0.9048233
v -1.32697 2.987198 0.1771047
v -0.7930916 3.098337 0.3997453

vn -0.9794681 0.1465126 0.1384782
vn -0.6430388 -0.7268371 0.2412653
vn -0.9692804 0.1993082 -0.1441238
vn -0.7283947 -0.003922471 0.6851465
vn -0.6406627 -0.7394608 -0.2067586
vn -0.7988607 0.07784423 -0.5964578
vn -0.4512651 0.03162142 -0.8918296
vn 0.01490406 -0.9989177 0.04406109
vn -0.2255996 -0.9045594 -0.3617696
vn -0.1939533 -0.7862161 0.5867251
vn -0.5685066 0.05063137 0.8211191
vn 0.006215387 0.03360851 0.9994158
vn 0.2765809 -0.8790436 0.388311
vn 0.4132681 0.1244498 0.9020653
vn 0.006215387 0.03360851 0.9994158
vn -0.5685066 0.05063137 0.8211191
vn -0.134064 0.933998 0.3311716
vn 0.06583392 0.9445179 0.3217951
vn -0.005161904 0.9988677 0.04729616
vn 0.4132681 0.1244498 0.9020653
vn -0.7283947 -0.003922471 0.6851465
vn -0.2528851 0.9633568 0.08940293
vn -0.9794681 0.1465126 0.1384782
vn -0.9692804 0.1993082 -0.1441238
vn -0.7988607 0.07784423 -0.5964578
vn -0.08636808 0.9617366 -0.2600065
vn -0.4512651 0.03162142 -0.8918296
vn 0.7673452 0.08941039 -0.6349701
vn 0.5899026 0.07698508 -0.8037962
vn 0.74441 -0.6176359 -0.253731
vn 0.9998402 -0.009592329 0.01508372
vn 0.2369646 -0.7277524 -0.6436026
vn -0.003585765 0.04112523 -0.9991477
vn -0.4512651 0.03162142 -0.8918296
vn 0.01490406 -0.9989177 0.04406109
vn -0.2255996 -0.9045594 -0.3617696
vn 0.5376635 -0.7422816 0.3999201
vn 0.9402755 0.1242716 0.3169206
vn 0.6716118 0.3017444 0.6766742
vn 0.2765809 -0.8790436 0.388311
vn 0.4132681 0.1244498 0.9020653
vn 0.6716118 0.3017444 0.6766742
vn 0.2435279 0.9685815 0.05044042
vn 0.9402755 0.1242716 0.3169206
vn 0.06583392 0.9445179 0.3217951
vn -0.005161904 0.9988677 0.04729616
vn 0.4132681 0.1244498 0.9020653
vn 0.9998402 -0.009592329 0.01508372
vn 0.1942683 0.9562264 -0.2188401
vn 0.7673452 0.08941039 -0.6349701
vn 0.5899026 0.07698508 -0.8037962
vn -0.003585765 0.04112523 -0.9991477
vn -0.08636808 0.9617366 -0.2600065
vn -0.4512651 0.03162142 -0.8918296
vn -0.2048473 0.6611805 0.7217188
vn -0.8693933 0.2098281 0.4473561
vn -0.6956108 0.6678355 -0.2648048
vn -0.4520121 0.1373006 -0.8813816
vn 0.2783126 0.6623853 -0.6955485
vn -0.8258344 -0.3146 -0.4680004
vn 0.9039404 0.09418551 -0.4171579
vn 0.7432544 0.5772887 0.3380986
vn 0.2917872 -0.4365163 -0.8510663
vn 0.4619754 0.1503884 0.8740494
vn -0.2048473 0.6611805 0.7217188
vn 0.9570399 -0.1597589 0.2419747
vn 0.4619754 0.1503884 0.8740494
vn -0.4522462 -8.178787E-05 0.8918931
vn 0.2917872 -0.4365163 -0.8510663
vn 0.9960212 0.08528199 0.0258593
vn -0.4522462 -8.178787E-05 0.8918931
vn 0.2917872 -0.4365163 -0.8510663
vn -0.9792448 0.06961349 -0.1903512
vn 0.2308564 -0.2567077 -0.9385129
vn 0.2308564 -0.2567077 -0.9385129
vn 0.9570399 -0.1597589 0.2419747
vn -0.4522462 -8.178787E-05 0.8918931
vn 0.1070322 0.454138 0.884479
vn 0.9960212 0.08528199 0.0258593
vn 0.1070322 0.454138 0.884479
vn 0.1070322 0.454138 0.884479
vn -0.9792448 0.06961349 -0.1903512
vn -0.960377 0.1835413 -0.2097345
vn -0.9792448 0.06961349 -0.1903512
vn -0.6278916 0.4632539 0.6254182
vn -0.3593946 -0.1838051 -0.9149051
vn 0.1070322 0.454138 0.884479
vn 0.3290618 0.422604 0.8444668
vn 0.98904 0.1272134 0.07494407
vn 0.9960212 0.08528199 0.0258593
vn 0.2308564 -0.2567077 -0.9385129
vn 0.5803844 -0.1808246 -0.7940128
vn 0.9960212 0.08528199 0.0258593
vn 0.98904 0.1272134 0.07494407
vn -0.9792448 0.06961349 -0.1903512
vn 0.2308564 -0.2567077 -0.9385129
vn 0.729444 0.03251465 -0.6832672
vn 0.3626812 -0.8188868 -0.4448445
vn 0.9285266 -0.1016592 -0.3570763
vn 0.3481356 0.04511814 -0.9363577
vn 0.5841838 -0.8082228 0.07419717
vn 0.9608731 0.1993672 0.1922906
vn 0.7732418 0.005175472 0.6340901
vn 0.06508218 -0.9934723 0.09368692
vn 0.3387313 -0.8896737 0.3061728
vn -0.0178951 -0.8448642 -0.5346814
vn 0.09784227 -0.04449172 -0.9942068
vn -0.4850399 -0.1759409 -0.8566101
vn -0.3164104 -0.9306041 -0.1840124
vn -0.8121271 -0.09659952 -0.5754287
vn -0.4850399 -0.1759409 -0.8566101
vn 0.09784227 -0.04449172 -0.9942068
vn -0.03707266 0.7948741 -0.6056408
vn -0.5092112 0.7640852 -0.3960782
vn -0.07406089 0.9930559 -0.09140506
vn -0.8121271 -0.09659952 -0.5754287
vn 0.3481356 0.04511814 -0.9363577
vn 0.3632423 0.86414 -0.348306
vn 0.729444 0.03251465 -0.6832672
vn 0.3340151 0.9121333 0.2375853
vn 0.9285266 -0.1016592 -0.3570763
vn 0.9608731 0.1993672 0.1922906
vn 0.7732418 0.005175472 0.6340901
vn -0.4219164 0.04133077 0.9056921
vn -0.07662158 -0.09639582 0.9923894
vn -0.2347465 -0.8452379 0.4800699
vn -0.7701279 -0.1399681 0.6223439
vn 0.2260599 -0.7193184 0.6568696
vn 0.4241169 0.2860944 0.8592291
vn 0.7732418 0.005175472 0.6340901
vn 0.06508218 -0.9934723 0.09368692
vn 0.3387313 -0.8896737 0.3061728
vn -0.3727748 -0.9223429 0.1016005
vn -0.9373119 -0.18675 0.2942287
vn -0.9630186 -0.181039 -0.1995494
vn -0.3164104 -0.9306041 -0.1840124
vn -0.8121271 -0.09659952 -0.5754287
vn -0.9630186 -0.181039 -0.1995494
vn -0.5806497 0.8087385 0.09374447
vn -0.9373119 -0.18675 0.2942287
vn -0.5092112 0.7640852 -0.3960782
vn -0.07406089 0.9930559 -0.09140506
vn -0.8121271 -0.09659952 -0.5754287
vn -0.7701279 -0.1399681 0.6223439
vn -0.2048882 0.8859335 0.4161042
vn -0.4219164 0.04133077 0.9056921
vn -0.07662158 -0.09639582 0.9923894
vn 0.4241169 0.2860944 0.8592291
vn 0.3340151 0.9121333 0.2375853
vn 0.7732418 0.005175472 0.6340901
vn -0.2126194 0.4576746 -0.8633232
vn 0.5467787 0.04737549 -0.8359357
vn 0.7545288 0.633759 -0.1703992
vn -0.8373656 -0.03494175 -0.5455253
vn -0.1946459 -0.2730221 -0.9421103
vn 0.8257946 0.1797654 0.5345536
vn 0.05777914 0.6619822 0.7472891
vn 0.5467787 0.04737549 -0.8359357
vn 0.9929484 -0.1132845 0.03493044
vn -0.5855259 0.1081893 0.8034017
vn -0.880954 0.4713701 0.04159577
vn 0.1200363 -0.2732376 0.9544278
vn -0.8373656 -0.03494175 -0.5455253
vn -0.2126194 0.4576746 -0.8633232
vn -0.8849989 -0.3780709 0.2717338
vn 0.1200363 -0.2732376 0.9544278
vn -0.1946459 -0.2730221 -0.9421103
vn 0.8139781 0.4823923 -0.3236313
vn -0.8849989 -0.3780709 0.2717338
vn -0.1946459 -0.2730221 -0.9421103
vn -0.6072116 0.0141499 -0.7944141
vn 0.1200363 -0.2732376 0.9544278
vn -0.8423057 -0.3115526 0.4398365
vn 0.2491045 -0.00631575 0.968456
vn -0.8423057 -0.3115526 0.4398365
vn -0.6072116 0.0141499 -0.7944141
vn 0.7130089 0.5970275 -0.3676637
vn 0.8139781 0.4823923 -0.3236313
vn 0.1311853 0.4251972 -0.8955431
vn 0.7419528 0.3795729 0.5526574
vn -0.6072116 0.0141499 -0.7944141
vn -0.7244114 -0.04936409 -0.6875982
vn -0.8433672 -0.3125216 0.4371063
vn -0.8423057 -0.3115526 0.4398365
vn 0.2491045 -0.00631575 0.968456
vn -0.009878533 -0.05848883 0.998239
vn -0.8423057 -0.3115526 0.4398365
vn -0.8433672 -0.3125216 0.4371063
vn 0.2491045 -0.00631575 0.968456
vn 0.1200363 -0.2732376 0.9544278
vn 0.8139781 0.4823923 -0.3236313
vn 0.2491045 -0.00631575 0.968456
vn -0.6072116 0.0141499 -0.7944141
vn 0.8139781 0.4823923 -0.3236313

vt 0.568321 0.519897
vt 0.484064 0.539192
vt 0.741687 0.570667
vt 0.398166 0.526223
vt 0.799176 0.632682
vt 0.869809 0.659113
vt 0.998611 0.999407
vt 0.497272 0.999247
vt 0.953356 0.999408
vt 0.180175 0.653429
vt 0.230145 0.589156
vt 0.105516 0.69459
vt 0.030406 0.999341
vt 0.000619 0.999249
vt 0.256451 0.577359
vt 0.344316 0.488369
vt 0.186761 0.39691
vt 0.003576 0.445334
vt 0.002923 0.33058
vt 0.002881 0.645791
vt 0.385467 0.367922
vt 0.187202 0.2886
vt 0.377624 0.239538
vt 0.317313 0.125417
vt 0.226127 0.049296
vt 0.002108 0.166015
vt 0.000156 0.00393
vt 0.568321 0.519897
vt 0.741687 0.570667
vt 0.484064 0.539192
vt 0.398166 0.526223
vt 0.799176 0.632682
vt 0.869809 0.659113
vt 0.998611 0.999407
vt 0.497272 0.999247
vt 0.953356 0.999408
vt 0.180175 0.653429
vt 0.230145 0.589156
vt 0.105516 0.69459
vt 0.030406 0.999341
vt 0.000619 0.999249
vt 0.256451 0.577359
vt 0.186761 0.39691
vt 0.344316 0.488369
vt 0.003576 0.445334
vt 0.002923 0.33058
vt 0.002881 0.645791
vt 0.385467 0.367922
vt 0.187202 0.2886
vt 0.377624 0.239538
vt 0.317313 0.125417
vt 0.226127 0.049296
vt 0.002108 0.166015
vt 0.000156 0.00393
vt 0.568965 0.466877
vt 0.554439 0.410202
vt 0.523347 0.46291
vt 0.497722 0.411868
vt 0.47659 0.468095
vt 0.513853 0.34033
vt 0.442111 0.419963
vt 0.430977 0.481484
vt 0.459298 0.343998
vt 0.364406 0.444215
vt 0.396961 0.515581
vt 0.402815 0.35079
vt 0.629087 0.424366
vt 0.584407 0.339945
vt 0.459298 0.343998
vt 0.392133 0.076768
vt 0.584407 0.339945
vt 0.459298 0.343998
vt 0.505852 0.060945
vt 0.43741 0.066682
vt 0.43741 0.066682
vt 0.653651 0.331163
vt 0.584407 0.339945
vt 0.578183 0.0591
vt 0.642197 0.062685
vt 0.578183 0.0591
vt 0.578183 0.0591
vt 0.505852 0.060945
vt 0.957019 0.2635
vt 0.664456 0.27725
vt 0.959328 0.353647
vt 0.960209 0.161361
vt 0.670646 0.444286
vt 0.952085 0.454908
vt 0.947143 0.586758
vt 0.669064 0.545545
vt 0.666362 0.114033
vt 0.955 0.088154
vt 0.665795 0.015588
vt 0.953433 0.012338
vt 0.505852 0.060945
vt 0.43741 0.066682
vt 0.568321 0.519897
vt 0.484064 0.539192
vt 0.741687 0.570667
vt 0.398166 0.526223
vt 0.799176 0.632682
vt 0.869809 0.659113
vt 0.998611 0.999407
vt 0.497272 0.999247
vt 0.953356 0.999408
vt 0.180175 0.653429
vt 0.230145 0.589156
vt 0.105516 0.69459
vt 0.030406 0.999341
vt 0.000619 0.999249
vt 0.256451 0.577359
vt 0.344316 0.488369
vt 0.186761 0.39691
vt 0.003576 0.445334
vt 0.002923 0.33058
vt 0.002881 0.645791
vt 0.385467 0.367922
vt 0.187202 0.2886
vt 0.377624 0.239538
vt 0.002108 0.166015
vt 0.317313 0.125417
vt 0.226127 0.049296
vt 0.000156 0.00393
vt 0.568321 0.519897
vt 0.741687 0.570667
vt 0.484064 0.539192
vt 0.398166 0.526223
vt 0.799176 0.632682
vt 0.869809 0.659113
vt 0.998611 0.999407
vt 0.497272 0.999247
vt 0.953356 0.999408
vt 0.180175 0.653429
vt 0.230145 0.589156
vt 0.105516 0.69459
vt 0.030406 0.999341
vt 0.000619 0.999249
vt 0.256451 0.577359
vt 0.186761 0.39691
vt 0.344316 0.488369
vt 0.003576 0.445334
vt 0.002923 0.33058
vt 0.002881 0.645791
vt 0.385467 0.367922
vt 0.187202 0.2886
vt 0.377624 0.239538
vt 0.317313 0.125417
vt 0.226127 0.049296
vt 0.002108 0.166015
vt 0.000156 0.00393
vt 0.568965 0.466877
vt 0.554439 0.410202
vt 0.523347 0.46291
vt 0.629087 0.424366
vt 0.584407 0.339945
vt 0.497722 0.411868
vt 0.47659 0.468095
vt 0.554439 0.410202
vt 0.513853 0.34033
vt 0.442111 0.419963
vt 0.430977 0.481484
vt 0.459298 0.343998
vt 0.364406 0.444215
vt 0.396961 0.515581
vt 0.402815 0.35079
vt 0.459298 0.343998
vt 0.584407 0.339945
vt 0.505852 0.060945
vt 0.653651 0.331163
vt 0.584407 0.339945
vt 0.578183 0.0591
vt 0.459298 0.343998
vt 0.392133 0.076768
vt 0.43741 0.066682
vt 0.642197 0.062685
vt 0.578183 0.0591
vt 0.957019 0.2635
vt 0.664456 0.27725
vt 0.959328 0.353647
vt 0.960209 0.161361
vt 0.670646 0.444286
vt 0.952085 0.454908
vt 0.947143 0.586758
vt 0.669064 0.545545
vt 0.666362 0.114033
vt 0.955 0.088154
vt 0.665795 0.015588
vt 0.953433 0.012338
vt 0.43741 0.066682
vt 0.459298 0.343998
vt 0.505852 0.060945
vt 0.43741 0.066682
vt 0.578183 0.0591
vt 0.505852 0.060945




usemtl MEP_GiantMushroom
usemap MEP_GiantMushroom
f 75/75/75 63/63/63 70/70/70
f 79/79/79 76/76/76 80/80/80
f 81/81/81 68/68/68 82/82/82
f 95/95/95 60/60/60 96/96/96
f 172/172/172 165/165/165 173/173/173
f 174/174/174 162/162/162 173/173/173
f 175/175/175 169/169/169 176/176/176
f 159/159/159 190/190/190 189/189/189
f 191/191/191 159/159/159 192/192/192
f 193/193/193 155/155/155 194/194/194
f 3/3/3 6/6/6 5/5/5
f 3/3/3 5/5/5 2/2/2
f 2/2/2 5/5/5 8/8/8
f 2/2/2 8/8/8 10/10/10
f 10/10/10 8/8/8 13/13/13
f 10/10/10 13/13/13 12/12/12
f 12/12/12 13/13/13 14/14/14
f 25/25/25 24/24/24 22/22/22
f 25/25/25 22/22/22 19/19/19
f 19/19/19 22/22/22 17/17/17
f 19/19/19 17/17/17 18/18/18
f 18/18/18 17/17/17 15/15/15
f 18/18/18 15/15/15 20/20/20
f 26/26/26 27/27/27 25/25/25
f 26/26/26 25/25/25 19/19/19
f 39/39/39 41/41/41 40/40/40
f 39/39/39 40/40/40 37/37/37
f 37/37/37 40/40/40 35/35/35
f 37/37/37 35/35/35 30/30/30
f 30/30/30 35/35/35 32/32/32
f 30/30/30 32/32/32 29/29/29
f 29/29/29 32/32/32 33/33/33
f 51/51/51 52/52/52 49/49/49
f 49/49/49 52/52/52 46/46/46
f 49/49/49 46/46/46 43/43/43
f 43/43/43 46/46/46 45/45/45
f 43/43/43 45/45/45 42/42/42
f 42/42/42 45/45/45 47/47/47
f 52/52/52 54/54/54 53/53/53
f 52/52/52 53/53/53 46/46/46
f 59/59/59 62/62/62 61/61/61
f 59/59/59 61/61/61 58/58/58
f 58/58/58 61/61/61 63/63/63
f 62/62/62 65/65/65 64/64/64
f 62/62/62 64/64/64 61/61/61
f 61/61/61 64/64/64 66/66/66
f 61/61/61 66/66/66 69/69/69
f 69/69/69 66/66/66 70/70/70
f 55/55/55 57/57/57 56/56/56
f 55/55/55 56/56/56 67/67/67
f 67/67/67 56/56/56 68/68/68
f 57/57/57 59/59/59 58/58/58
f 57/57/57 58/58/58 56/56/56
f 56/56/56 58/58/58 60/60/60
f 56/56/56 60/60/60 71/71/71
f 71/71/71 60/60/60 73/73/73
f 72/72/72 74/74/74 60/60/60
f 72/72/72 60/60/60 58/58/58
f 76/76/76 67/67/67 77/77/77
f 76/76/76 77/77/77 78/78/78
f 89/89/89 90/90/90 87/87/87
f 89/89/89 87/87/87 88/88/88
f 88/88/88 87/87/87 85/85/85
f 83/83/83 85/85/85 84/84/84
f 83/83/83 84/84/84 86/86/86
f 86/86/86 84/84/84 91/91/91
f 86/86/86 91/91/91 92/92/92
f 92/92/92 91/91/91 93/93/93
f 92/92/92 93/93/93 94/94/94
f 99/99/99 102/102/102 101/101/101
f 99/99/99 101/101/101 98/98/98
f 98/98/98 101/101/101 104/104/104
f 98/98/98 104/104/104 106/106/106
f 106/106/106 104/104/104 109/109/109
f 106/106/106 109/109/109 108/108/108
f 108/108/108 109/109/109 110/110/110
f 111/111/111 116/116/116 114/114/114
f 111/111/111 114/114/114 113/113/113
f 113/113/113 114/114/114 115/115/115
f 113/113/113 115/115/115 118/118/118
f 118/118/118 115/115/115 120/120/120
f 118/118/118 120/120/120 122/122/122
f 122/122/122 120/120/120 123/123/123
f 135/135/135 137/137/137 136/136/136
f 135/135/135 136/136/136 133/133/133
f 133/133/133 136/136/136 131/131/131
f 133/133/133 131/131/131 126/126/126
f 126/126/126 131/131/131 128/128/128
f 126/126/126 128/128/128 125/125/125
f 125/125/125 128/128/128 129/129/129
f 148/148/148 150/150/150 149/149/149
f 148/148/148 149/149/149 145/145/145
f 145/145/145 149/149/149 142/142/142
f 145/145/145 142/142/142 139/139/139
f 139/139/139 142/142/142 141/141/141
f 139/139/139 141/141/141 138/138/138
f 138/138/138 141/141/141 143/143/143
f 151/151/151 153/153/153 152/152/152
f 151/151/151 152/152/152 154/154/154
f 154/154/154 152/152/152 155/155/155
f 158/158/158 153/153/153 156/156/156
f 156/156/156 153/153/153 157/157/157
f 156/156/156 157/157/157 160/160/160
f 160/160/160 157/157/157 161/161/161
f 160/160/160 161/161/161 163/163/163
f 163/163/163 161/161/161 164/164/164
f 160/160/160 163/163/163 165/165/165
f 160/160/160 165/165/165 166/166/166
f 167/167/167 152/152/152 159/159/159
f 167/167/167 159/159/159 168/168/168
f 169/169/169 154/154/154 170/170/170
f 169/169/169 170/170/170 171/171/171
f 183/183/183 184/184/184 181/181/181
f 183/183/183 181/181/181 182/182/182
f 182/182/182 181/181/181 179/179/179
f 177/177/177 179/179/179 178/178/178
f 177/177/177 178/178/178 180/180/180
f 180/180/180 178/178/178 185/185/185
f 180/180/180 185/185/185 186/186/186
f 186/186/186 185/185/185 187/187/187
f 186/186/186 187/187/187 188/188/188
f 1/1/1 3/3/3 2/2/2
f 1/1/1 2/2/2 4/4/4
f 4/4/4 2/2/2 10/10/10
f 4/4/4 10/10/10 11/11/11
f 11/11/11 10/10/10 12/12/12
f 9/9/9 8/8/8 5/5/5
f 9/9/9 5/5/5 7/7/7
f 7/7/7 5/5/5 6/6/6
f 16/16/16 15/15/15 17/17/17
f 16/16/16 17/17/17 21/21/21
f 21/21/21 17/17/17 22/22/22
f 21/21/21 22/22/22 23/23/23
f 23/23/23 22/22/22 24/24/24
f 38/38/38 39/39/39 37/37/37
f 38/38/38 37/37/37 31/31/31
f 31/31/31 37/37/37 30/30/30
f 31/31/31 30/30/30 28/28/28
f 28/28/28 30/30/30 29/29/29
f 34/34/34 33/33/33 32/32/32
f 34/34/34 32/32/32 36/36/36
f 36/36/36 32/32/32 35/35/35
f 50/50/50 51/51/51 49/49/49
f 50/50/50 49/49/49 48/48/48
f 48/48/48 49/49/49 43/43/43
f 48/48/48 43/43/43 44/44/44
f 44/44/44 43/43/43 42/42/42
f 85/85/85 87/87/87 84/84/84
f 97/97/97 99/99/99 98/98/98
f 97/97/97 98/98/98 100/100/100
f 100/100/100 98/98/98 106/106/106
f 100/100/100 106/106/106 107/107/107
f 107/107/107 106/106/106 108/108/108
f 105/105/105 104/104/104 101/101/101
f 105/105/105 101/101/101 103/103/103
f 103/103/103 101/101/101 102/102/102
f 112/112/112 111/111/111 113/113/113
f 112/112/112 113/113/113 117/117/117
f 117/117/117 113/113/113 118/118/118
f 117/117/117 118/118/118 119/119/119
f 119/119/119 118/118/118 121/121/121
f 118/118/118 122/122/122 121/121/121
f 134/134/134 135/135/135 133/133/133
f 134/134/134 133/133/133 127/127/127
f 127/127/127 133/133/133 126/126/126
f 127/127/127 126/126/126 124/124/124
f 124/124/124 126/126/126 125/125/125
f 130/130/130 129/129/129 128/128/128
f 130/130/130 128/128/128 132/132/132
f 132/132/132 128/128/128 131/131/131
f 146/146/146 147/147/147 145/145/145
f 146/146/146 145/145/145 144/144/144
f 144/144/144 145/145/145 139/139/139
f 144/144/144 139/139/139 140/140/140
f 140/140/140 139/139/139 138/138/138
f 145/145/145 147/147/147 148/148/148
f 159/159/159 158/158/158 156/156/156
f 159/159/159 156/156/156 162/162/162
f 162/162/162 156/156/156 160/160/160
f 179/179/179 181/181/181 178/178/178

