g NewMesh_tris_180
v 0.6070697 7.787711 5.922935
v 1.76968 7.597412 5.472439
v -1.728554 7.788217 5.98479
v 2.948806 7.835433 5.093912
v -2.655248 7.596279 5.622252
v -3.476534 7.85044 5.398753
v -4.85376 7.957803 3.378458
v 0.4011 7.175983 1.486437
v -4.577642 7.747949 3.265254
v 5.34017 7.755041 2.856941
v 4.853127 7.918139 3.720274
v 5.885034 8.022091 2.035209
v 5.39121 7.946151 -0.1866961
v 5.695202 8.167515 -0.2743725
v 5.885034 8.022091 2.035209
v 4.853127 7.918139 3.720274
v 2.532735 9.128313 2.938063
v 2.321826 9.422807 1.001763
v 0.5551158 10.03407 1.666332
v 5.695202 8.167515 -0.2743725
v 2.948806 7.835433 5.093912
v 0.6233839 9.180311 3.758262
v 0.6070697 7.787711 5.922935
v -1.728554 7.788217 5.98479
v -3.476534 7.85044 5.398753
v -2.213969 9.28026 2.568112
v -4.85376 7.957803 3.378458
v -2.120223 8.285812 -1.924586
v -4.01694 8.20616 -0.5998201
v -0.963284 8.096549 -2.3914
v 0.2082849 8.33595 -2.791672
v -4.530542 7.938777 0.2262726
v -5.024701 8.133193 0.9440544
v -4.85376 7.957803 3.378458
v 0.4011 7.175983 1.486437
v -4.577642 7.747949 3.265254
v 3.462834 8.097909 -2.544913
v 2.555714 8.337729 -2.890309
v 4.411367 8.291237 -2.205124
v 5.39121 7.946151 -0.1866961
v 5.695202 8.167515 -0.2743725
v 4.411367 8.291237 -2.205124
v 1.277431 9.357576 -0.673954
v 2.555714 8.337729 -2.890309
v 2.321826 9.422807 1.001763
v 0.5551158 10.03407 1.666332
v 5.695202 8.167515 -0.2743725
v 0.2082849 8.33595 -2.791672
v -0.7255511 9.426677 -0.1231678
v -2.120223 8.285812 -1.924586
v -4.01694 8.20616 -0.5998201
v -5.024701 8.133193 0.9440544
v -2.213969 9.28026 2.568112
v -4.85376 7.957803 3.378458
v 0.7772853 7.442202 1.624839
v 0.721903 6.752451 2.147256
v 0.1824385 7.431254 1.829324
v -0.564813 6.773663 1.84795
v 0.0306199 7.458983 1.392481
v 0.0787055 5.772182 1.723557
v 0.08143498 6.840599 0.763225
v 0.6225152 7.469378 1.189857
v -0.09376474 5.803682 1.227291
v 1.255385 6.798245 1.133659
v 0.7772853 7.442202 1.624839
v 0.5879638 5.817236 0.9912261
v 1.255385 6.798245 1.133659
v 1.003673 5.780626 1.561586
v -0.09376474 5.803682 1.227291
v 1.003673 5.780626 1.561586
v 0.1926369 2.811581 1.510913
v 0.9341849 2.805944 1.06421
v -0.1558676 2.820227 0.9961383
v -0.09376474 5.803682 1.227291
v 0.3889856 2.806313 0.7417424
v -0.09376474 5.803682 1.227291
v 0.5879638 5.817236 0.9912261
v 1.003673 5.780626 1.561586
v 0.3889856 2.806313 0.7417424
v 0.9341849 2.805944 1.06421
v -0.09495782 -0.4383452 1.879472
v 0.1926369 2.811581 1.510913
v 0.9333974 -0.7020733 1.671844
v -0.8613961 -0.4444378 1.152929
v 0.9341849 2.805944 1.06421
v 1.254699 -0.4078029 0.6402105
v 0.2043622 -0.3847876 0.08733118
v 0.3889856 2.806313 0.7417424
v -0.1558676 2.820227 0.9961383
v -0.5756935 -0.3163445 0.4174435
v 0.3889856 2.806313 0.7417424
v 0.2043622 -0.3847876 0.08733118
v -2.516799 4.798831 -2.111506
v -2.350303 4.631993 -1.71096
v -2.412366 4.797411 -2.91765
v -2.267298 4.740339 -1.367186
v -2.173901 4.623062 -3.265396
v -2.050804 4.708907 -3.655818
v -1.073714 4.577305 -4.300125
v -0.3753195 4.068561 -2.032748
v -1.019042 4.468114 -4.15256
v -1.30483 4.672719 -0.5766262
v -1.723309 4.787303 -0.7742277
v -0.9656718 4.883671 -0.371042
v 0.009318162 4.907137 -0.5510926
v 0.02196468 5.049148 -0.4501114
v -0.9656718 4.883671 -0.371042
v -1.723309 4.787303 -0.7742277
v -1.263569 5.349291 -1.646773
v -0.3842802 5.498684 -1.727413
v -0.5969605 5.783054 -2.440977
v 0.02196468 5.049148 -0.4501114
v -2.267298 4.740339 -1.367186
v -1.542478 5.436274 -2.266973
v -2.516799 4.798831 -2.111506
v -2.412366 4.797411 -2.91765
v -2.050804 4.708907 -3.655818
v -0.8423727 5.407157 -3.430972
v -1.073714 4.577305 -4.300125
v 1.44357 4.85626 -3.272537
v 0.8784415 4.766087 -4.026568
v 1.620326 4.765572 -2.777912
v 1.707253 4.978121 -2.405048
v 0.4937311 4.582443 -4.188987
v 0.1441393 4.674185 -4.418349
v -1.073714 4.577305 -4.300125
v -0.3753195 4.068561 -2.032748
v -1.019042 4.468114 -4.15256
v 1.17169 5.112345 -1.425764
v 1.458753 5.185378 -1.719294
v 0.8981327 5.268408 -1.117646
v 0.009318162 4.907137 -0.5510926
v 0.02196468 5.049148 -0.4501114
v 0.8981327 5.268408 -1.117646
v 0.4736998 5.586901 -2.226465
v 1.458753 5.185378 -1.719294
v -0.3842802 5.498684 -1.727413
v -0.5969605 5.783054 -2.440977
v 0.02196468 5.049148 -0.4501114
v 1.707253 4.978121 -2.405048
v 0.3944179 5.506561 -2.888278
v 1.44357 4.85626 -3.272537
v 0.8784415 4.766087 -4.026568
v 0.1441393 4.674185 -4.418349
v -0.8423727 5.407157 -3.430972
v -1.073714 4.577305 -4.300125
v -0.4705872 4.228458 -1.928805
v -0.7027224 3.851087 -1.8362
v -0.5287194 4.229594 -2.154018
v -0.479138 3.852155 -2.352071
v -0.3141711 4.233948 -2.227251
v -0.4557701 3.254051 -1.937366
v 0.001610903 3.879542 -2.124484
v -0.2581449 4.244197 -2.005944
v -0.1993126 3.257108 -2.018912
v -0.2633884 3.868219 -1.661973
v -0.4705872 4.228458 -1.928805
v -0.1293107 3.277188 -1.746351
v -0.2633884 3.868219 -1.661973
v -0.4418705 3.266908 -1.574066
v -0.1993126 3.257108 -2.018912
v 0.1200578 1.623267 -0.8836594
v -0.4418705 3.266908 -1.574066
v -0.1993126 3.257108 -2.018912
v -0.2715485 1.534965 -0.9505351
v 0.0212253 1.50436 -1.093177
v 0.0212253 1.50436 -1.093177
v -0.1293107 3.277188 -1.746351
v -0.4418705 3.266908 -1.574066
v -0.0837855 1.696563 -0.6861677
v 0.1200578 1.623267 -0.8836594
v -0.0837855 1.696563 -0.6861677
v -0.0837855 1.696563 -0.6861677
v -0.2715485 1.534965 -0.9505351
v -0.4436049 -0.3310562 -0.03222103
v -0.2715485 1.534965 -0.9505351
v -0.4093682 -0.3274019 0.389654
v 0.0045642 -0.4253028 -0.3171467
v -0.0837855 1.696563 -0.6861677
v 0.08778815 -0.09409909 0.4111675
v 0.4595169 -0.217012 0.02529455
v 0.1200578 1.623267 -0.8836594
v 0.0212253 1.50436 -1.093177
v 0.3495827 -0.2970166 -0.2594837
v 0.1200578 1.623267 -0.8836594
v 0.4595169 -0.217012 0.02529455
v -0.2715485 1.534965 -0.9505351
v 0.0212253 1.50436 -1.093177

vn 0.05288181 -0.05140879 0.9972765
vn 0.230805 -0.7598075 0.6078007
vn -0.2043747 -0.02175353 0.978651
vn 0.5759942 -0.02878152 0.816947
vn -0.3337165 -0.7681544 0.5464175
vn -0.7366509 0.01968597 0.6759866
vn -0.9409539 0.06592456 0.3320535
vn -0.004950378 -0.9974236 -0.07156564
vn -0.4208646 -0.9035934 0.07995061
vn 0.6393991 -0.7389289 0.2124922
vn 0.7665302 -0.02136599 0.6418527
vn 0.9982563 0.03386214 0.04834986
vn 0.3800062 -0.9034266 -0.1985336
vn 0.9390139 0.1341016 -0.3166541
vn 0.9982563 0.03386214 0.04834986
vn 0.7665302 -0.02136599 0.6418527
vn 0.2944328 0.9222062 0.2506889
vn 0.3452955 0.9370964 -0.0512008
vn 0.03006804 0.9975693 0.06285914
vn 0.9390139 0.1341016 -0.3166541
vn 0.5759942 -0.02878152 0.816947
vn 0.02013509 0.9187189 0.3943984
vn 0.05288181 -0.05140879 0.9972765
vn -0.2043747 -0.02175353 0.978651
vn -0.7366509 0.01968597 0.6759866
vn -0.2980061 0.9388285 0.1726076
vn -0.9409539 0.06592456 0.3320535
vn -0.572662 0.1350735 -0.8085874
vn -0.7607039 0.09850951 -0.6415804
vn -0.2736677 -0.5810212 -0.7664987
vn -0.06303293 0.1055181 -0.9924177
vn -0.6343091 -0.7046432 -0.3180096
vn -0.9949895 0.07426656 -0.06693616
vn -0.9409539 0.06592456 0.3320535
vn -0.004950378 -0.9974236 -0.07156564
vn -0.4208646 -0.9035934 0.07995061
vn 0.3373639 -0.6751209 -0.6560468
vn 0.2046469 0.09737147 -0.9739807
vn 0.7556059 0.0851517 -0.6494681
vn 0.3800062 -0.9034266 -0.1985336
vn 0.9390139 0.1341016 -0.3166541
vn 0.7556059 0.0851517 -0.6494681
vn 0.1182502 0.9594284 -0.2559569
vn 0.2046469 0.09737147 -0.9739807
vn 0.3452955 0.9370964 -0.0512008
vn 0.03006804 0.9975693 0.06285914
vn 0.9390139 0.1341016 -0.3166541
vn -0.06303293 0.1055181 -0.9924177
vn -0.1875031 0.9614954 -0.2009206
vn -0.572662 0.1350735 -0.8085874
vn -0.7607039 0.09850951 -0.6415804
vn -0.9949895 0.07426656 -0.06693616
vn -0.2980061 0.9388285 0.1726076
vn -0.9409539 0.06592456 0.3320535
vn 0.7237527 0.6013444 0.3384775
vn 0.3818319 0.0717172 0.9214451
vn -0.3179987 0.6077105 0.7277119
vn -0.9086522 0.09357984 0.4069321
vn -0.6776483 0.6827503 -0.2732118
vn -0.508086 -0.3122166 0.8027263
vn -0.3566929 0.1899861 -0.9146997
vn 0.3806885 0.6542296 -0.6534982
vn -0.8725834 -0.224788 -0.4336688
vn 0.9095813 0.1508699 -0.3871694
vn 0.7237527 0.6013444 0.3384775
vn 0.3433672 -0.1549781 -0.9263265
vn 0.9095813 0.1508699 -0.3871694
vn 0.8763127 -0.2874239 0.3866053
vn -0.8725834 -0.224788 -0.4336688
vn 0.8763127 -0.2874239 0.3866053
vn -0.2296997 0.06095313 0.971351
vn 0.996478 0.08349548 -0.007752964
vn -0.9445097 0.1612152 -0.2862008
vn -0.8725834 -0.224788 -0.4336688
vn 0.1195209 0.1436572 -0.9823835
vn -0.8725834 -0.224788 -0.4336688
vn 0.3433672 -0.1549781 -0.9263265
vn 0.8763127 -0.2874239 0.3866053
vn 0.1195209 0.1436572 -0.9823835
vn 0.996478 0.08349548 -0.007752964
vn -0.2862998 0.1558885 0.9453736
vn -0.2296997 0.06095313 0.971351
vn 0.6916338 0.1287268 0.7106843
vn -0.9483326 0.1714779 0.2669468
vn 0.996478 0.08349548 -0.007752964
vn 0.9338771 0.1242011 -0.3353319
vn 0.1200797 0.2160739 -0.9689649
vn 0.1195209 0.1436572 -0.9823835
vn -0.9445097 0.1612152 -0.2862008
vn -0.7547909 0.2238867 -0.6165757
vn 0.1195209 0.1436572 -0.9823835
vn 0.1200797 0.2160739 -0.9689649
vn -0.9990029 0.04454394 0.002966117
vn -0.590247 -0.7572836 0.2795177
vn -0.9578797 0.05685766 -0.2814848
vn -0.8065138 0.006271141 0.5911819
vn -0.5286828 -0.8340304 -0.1577581
vn -0.7187844 -0.1069236 -0.6869616
vn -0.3330226 -0.1525886 -0.9304904
vn 0.1122326 -0.9727755 0.2027601
vn -0.08224369 -0.9679635 -0.2372397
vn -0.1858759 -0.7110476 0.6781308
vn -0.6720455 0.09893794 0.7338705
vn -0.1265384 0.1779544 0.9758689
vn 0.3134116 -0.7735145 0.5508615
vn 0.2780978 0.3027005 0.9116106
vn -0.1265384 0.1779544 0.9758689
vn -0.6720455 0.09893794 0.7338705
vn -0.2715469 0.948646 0.1622741
vn -0.07428065 0.9819741 0.1738082
vn -0.1144294 0.9870939 -0.112034
vn 0.2780978 0.3027005 0.9116106
vn -0.8065138 0.006271141 0.5911819
vn -0.3605099 0.9281209 -0.09286661
vn -0.9990029 0.04454394 0.002966117
vn -0.9578797 0.05685766 -0.2814848
vn -0.7187844 -0.1069236 -0.6869616
vn -0.1509534 0.8964019 -0.4167453
vn -0.3330226 -0.1525886 -0.9304904
vn 0.8296064 0.08966295 -0.5511022
vn 0.677719 0.03148843 -0.7346465
vn 0.8307719 -0.5524538 -0.06791654
vn 0.9850935 0.1145504 0.1283311
vn 0.3921028 -0.7786528 -0.4898522
vn 0.121374 -0.104206 -0.9871218
vn -0.3330226 -0.1525886 -0.9304904
vn 0.1122326 -0.9727755 0.2027601
vn -0.08224369 -0.9679635 -0.2372397
vn 0.5552598 -0.6057345 0.569888
vn 0.8734979 0.2822988 0.3966218
vn 0.5436934 0.4757566 0.6914139
vn 0.3134116 -0.7735145 0.5508615
vn 0.2780978 0.3027005 0.9116106
vn 0.5436934 0.4757566 0.6914139
vn 0.1335542 0.9880999 -0.07630106
vn 0.8734979 0.2822988 0.3966218
vn -0.07428065 0.9819741 0.1738082
vn -0.1144294 0.9870939 -0.112034
vn 0.2780978 0.3027005 0.9116106
vn 0.9850935 0.1145504 0.1283311
vn 0.1210607 0.9311155 -0.3440469
vn 0.8296064 0.08966295 -0.5511022
vn 0.677719 0.03148843 -0.7346465
vn 0.121374 -0.104206 -0.9871218
vn -0.1509534 0.8964019 -0.4167453
vn -0.3330226 -0.1525886 -0.9304904
vn -0.3636469 0.7284612 0.5806077
vn -0.936918 0.1646932 0.3083192
vn -0.7208019 0.5328816 -0.4432627
vn -0.346031 -0.04739406 -0.9370251
vn 0.2959364 0.5840197 -0.755872
vn -0.721436 -0.4770603 -0.5019398
vn 0.9356677 0.1424167 -0.3228672
vn 0.6296405 0.7062222 0.3237328
vn 0.4428915 -0.51591 -0.7332693
vn 0.3270745 0.3300636 0.8854831
vn -0.3636469 0.7284612 0.5806077
vn 0.9290717 -0.005393156 0.3698605
vn 0.3270745 0.3300636 0.8854831
vn -0.5612966 0.07351025 0.8243436
vn 0.4428915 -0.51591 -0.7332693
vn 0.9701297 0.2088075 0.1234812
vn -0.5612966 0.07351025 0.8243436
vn 0.4428915 -0.51591 -0.7332693
vn -0.948328 -0.07838737 -0.3074565
vn 0.3755234 -0.3593748 -0.8543019
vn 0.3755234 -0.3593748 -0.8543019
vn 0.9290717 -0.005393156 0.3698605
vn -0.5612966 0.07351025 0.8243436
vn -0.05571222 0.5866169 0.807946
vn 0.9701297 0.2088075 0.1234812
vn -0.05571222 0.5866169 0.807946
vn -0.05571222 0.5866169 0.807946
vn -0.948328 -0.07838737 -0.3074565
vn -0.9389881 0.03299275 -0.3423634
vn -0.948328 -0.07838737 -0.3074565
vn -0.7479544 0.4686686 0.4700148
vn -0.2171735 -0.3562781 -0.9087912
vn -0.05571222 0.5866169 0.807946
vn 0.1716867 0.5769235 0.7985504
vn 0.9525664 0.256216 0.1642274
vn 0.9701297 0.2088075 0.1234812
vn 0.3755234 -0.3593748 -0.8543019
vn 0.6937099 -0.2214314 -0.6853718
vn 0.9701297 0.2088075 0.1234812
vn 0.9525664 0.256216 0.1642274
vn -0.948328 -0.07838737 -0.3074565
vn 0.3755234 -0.3593748 -0.8543019

vt 0.568321 0.519897
vt 0.484064 0.539192
vt 0.741687 0.570667
vt 0.398166 0.526223
vt 0.799176 0.632682
vt 0.869809 0.659113
vt 0.998611 0.999407
vt 0.497272 0.999247
vt 0.953356 0.999408
vt 0.180175 0.653429
vt 0.230145 0.589156
vt 0.105516 0.69459
vt 0.030406 0.999341
vt 0.000619 0.999249
vt 0.256451 0.577359
vt 0.344316 0.488369
vt 0.186761 0.39691
vt 0.003576 0.445334
vt 0.002923 0.33058
vt 0.002881 0.645791
vt 0.385467 0.367922
vt 0.187202 0.2886
vt 0.377624 0.239538
vt 0.317313 0.125417
vt 0.226127 0.049296
vt 0.002108 0.166015
vt 0.000156 0.00393
vt 0.568321 0.519897
vt 0.741687 0.570667
vt 0.484064 0.539192
vt 0.398166 0.526223
vt 0.799176 0.632682
vt 0.869809 0.659113
vt 0.998611 0.999407
vt 0.497272 0.999247
vt 0.953356 0.999408
vt 0.180175 0.653429
vt 0.230145 0.589156
vt 0.105516 0.69459
vt 0.030406 0.999341
vt 0.000619 0.999249
vt 0.256451 0.577359
vt 0.186761 0.39691
vt 0.344316 0.488369
vt 0.003576 0.445334
vt 0.002923 0.33058
vt 0.002881 0.645791
vt 0.385467 0.367922
vt 0.187202 0.2886
vt 0.377624 0.239538
vt 0.317313 0.125417
vt 0.226127 0.049296
vt 0.002108 0.166015
vt 0.000156 0.00393
vt 0.568965 0.466877
vt 0.554439 0.410202
vt 0.523347 0.46291
vt 0.497722 0.411868
vt 0.47659 0.468095
vt 0.513853 0.34033
vt 0.442111 0.419963
vt 0.430977 0.481484
vt 0.459298 0.343998
vt 0.364406 0.444215
vt 0.396961 0.515581
vt 0.402815 0.35079
vt 0.629087 0.424366
vt 0.584407 0.339945
vt 0.459298 0.343998
vt 0.584407 0.339945
vt 0.505852 0.060945
vt 0.578183 0.0591
vt 0.43741 0.066682
vt 0.459298 0.343998
vt 0.392133 0.076768
vt 0.459298 0.343998
vt 0.653651 0.331163
vt 0.584407 0.339945
vt 0.642197 0.062685
vt 0.578183 0.0591
vt 0.957019 0.2635
vt 0.664456 0.27725
vt 0.959328 0.353647
vt 0.960209 0.161361
vt 0.670646 0.444286
vt 0.952085 0.454908
vt 0.947143 0.586758
vt 0.669064 0.545545
vt 0.666362 0.114033
vt 0.955 0.088154
vt 0.665795 0.015588
vt 0.953433 0.012338
vt 0.568321 0.519897
vt 0.484064 0.539192
vt 0.741687 0.570667
vt 0.398166 0.526223
vt 0.799176 0.632682
vt 0.869809 0.659113
vt 0.998611 0.999407
vt 0.497272 0.999247
vt 0.953356 0.999408
vt 0.180175 0.653429
vt 0.230145 0.589156
vt 0.105516 0.69459
vt 0.030406 0.999341
vt 0.000619 0.999249
vt 0.256451 0.577359
vt 0.344316 0.488369
vt 0.186761 0.39691
vt 0.003576 0.445334
vt 0.002923 0.33058
vt 0.002881 0.645791
vt 0.385467 0.367922
vt 0.187202 0.2886
vt 0.377624 0.239538
vt 0.317313 0.125417
vt 0.226127 0.049296
vt 0.002108 0.166015
vt 0.000156 0.00393
vt 0.568321 0.519897
vt 0.741687 0.570667
vt 0.484064 0.539192
vt 0.398166 0.526223
vt 0.799176 0.632682
vt 0.869809 0.659113
vt 0.998611 0.999407
vt 0.497272 0.999247
vt 0.953356 0.999408
vt 0.180175 0.653429
vt 0.230145 0.589156
vt 0.105516 0.69459
vt 0.030406 0.999341
vt 0.000619 0.999249
vt 0.256451 0.577359
vt 0.186761 0.39691
vt 0.344316 0.488369
vt 0.003576 0.445334
vt 0.002923 0.33058
vt 0.002881 0.645791
vt 0.385467 0.367922
vt 0.187202 0.2886
vt 0.377624 0.239538
vt 0.317313 0.125417
vt 0.226127 0.049296
vt 0.002108 0.166015
vt 0.000156 0.00393
vt 0.568965 0.466877
vt 0.554439 0.410202
vt 0.523347 0.46291
vt 0.497722 0.411868
vt 0.47659 0.468095
vt 0.513853 0.34033
vt 0.442111 0.419963
vt 0.430977 0.481484
vt 0.459298 0.343998
vt 0.364406 0.444215
vt 0.396961 0.515581
vt 0.402815 0.35079
vt 0.629087 0.424366
vt 0.584407 0.339945
vt 0.459298 0.343998
vt 0.392133 0.076768
vt 0.584407 0.339945
vt 0.459298 0.343998
vt 0.505852 0.060945
vt 0.43741 0.066682
vt 0.43741 0.066682
vt 0.653651 0.331163
vt 0.584407 0.339945
vt 0.578183 0.0591
vt 0.642197 0.062685
vt 0.578183 0.0591
vt 0.578183 0.0591
vt 0.505852 0.060945
vt 0.957019 0.2635
vt 0.664456 0.27725
vt 0.959328 0.353647
vt 0.960209 0.161361
vt 0.670646 0.444286
vt 0.952085 0.454908
vt 0.947143 0.586758
vt 0.669064 0.545545
vt 0.666362 0.114033
vt 0.955 0.088154
vt 0.665795 0.015588
vt 0.953433 0.012338
vt 0.505852 0.060945
vt 0.43741 0.066682




usemtl MEP_GiantMushroom
usemap MEP_GiantMushroom
f 72/72/72 68/68/68 71/71/71
f 73/73/73 63/63/63 75/75/75
f 76/76/76 66/66/66 75/75/75
f 79/79/79 77/77/77 80/80/80
f 167/167/167 155/155/155 162/162/162
f 171/171/171 168/168/168 172/172/172
f 173/173/173 160/160/160 174/174/174
f 187/187/187 152/152/152 188/188/188
f 3/3/3 6/6/6 5/5/5
f 3/3/3 5/5/5 2/2/2
f 2/2/2 5/5/5 8/8/8
f 2/2/2 8/8/8 10/10/10
f 10/10/10 8/8/8 13/13/13
f 10/10/10 13/13/13 12/12/12
f 12/12/12 13/13/13 14/14/14
f 25/25/25 24/24/24 22/22/22
f 25/25/25 22/22/22 19/19/19
f 19/19/19 22/22/22 17/17/17
f 19/19/19 17/17/17 18/18/18
f 18/18/18 17/17/17 15/15/15
f 18/18/18 15/15/15 20/20/20
f 26/26/26 27/27/27 25/25/25
f 26/26/26 25/25/25 19/19/19
f 39/39/39 41/41/41 40/40/40
f 39/39/39 40/40/40 37/37/37
f 37/37/37 40/40/40 35/35/35
f 37/37/37 35/35/35 30/30/30
f 30/30/30 35/35/35 32/32/32
f 30/30/30 32/32/32 29/29/29
f 29/29/29 32/32/32 33/33/33
f 51/51/51 52/52/52 49/49/49
f 49/49/49 52/52/52 46/46/46
f 49/49/49 46/46/46 43/43/43
f 43/43/43 46/46/46 45/45/45
f 43/43/43 45/45/45 42/42/42
f 42/42/42 45/45/45 47/47/47
f 52/52/52 54/54/54 53/53/53
f 52/52/52 53/53/53 46/46/46
f 67/67/67 55/55/55 56/56/56
f 56/56/56 55/55/55 57/57/57
f 56/56/56 57/57/57 58/58/58
f 58/58/58 57/57/57 59/59/59
f 58/58/58 59/59/59 61/61/61
f 61/61/61 59/59/59 62/62/62
f 61/61/61 62/62/62 64/64/64
f 64/64/64 62/62/62 65/65/65
f 67/67/67 56/56/56 68/68/68
f 61/61/61 64/64/64 66/66/66
f 61/61/61 66/66/66 69/69/69
f 71/71/71 70/70/70 60/60/60
f 71/71/71 60/60/60 73/73/73
f 73/73/73 60/60/60 74/74/74
f 78/78/78 72/72/72 77/77/77
f 78/78/78 77/77/77 67/67/67
f 87/87/87 88/88/88 85/85/85
f 87/87/87 85/85/85 86/86/86
f 86/86/86 85/85/85 83/83/83
f 81/81/81 83/83/83 82/82/82
f 81/81/81 82/82/82 84/84/84
f 84/84/84 82/82/82 89/89/89
f 84/84/84 89/89/89 90/90/90
f 90/90/90 89/89/89 91/91/91
f 90/90/90 91/91/91 92/92/92
f 95/95/95 98/98/98 97/97/97
f 95/95/95 97/97/97 94/94/94
f 94/94/94 97/97/97 100/100/100
f 94/94/94 100/100/100 102/102/102
f 102/102/102 100/100/100 105/105/105
f 102/102/102 105/105/105 104/104/104
f 104/104/104 105/105/105 106/106/106
f 117/117/117 116/116/116 114/114/114
f 117/117/117 114/114/114 111/111/111
f 111/111/111 114/114/114 109/109/109
f 111/111/111 109/109/109 110/110/110
f 110/110/110 109/109/109 107/107/107
f 110/110/110 107/107/107 112/112/112
f 118/118/118 119/119/119 117/117/117
f 118/118/118 117/117/117 111/111/111
f 131/131/131 133/133/133 132/132/132
f 131/131/131 132/132/132 129/129/129
f 129/129/129 132/132/132 127/127/127
f 129/129/129 127/127/127 122/122/122
f 122/122/122 127/127/127 124/124/124
f 122/122/122 124/124/124 121/121/121
f 121/121/121 124/124/124 125/125/125
f 143/143/143 144/144/144 141/141/141
f 141/141/141 144/144/144 138/138/138
f 141/141/141 138/138/138 135/135/135
f 135/135/135 138/138/138 137/137/137
f 135/135/135 137/137/137 134/134/134
f 134/134/134 137/137/137 139/139/139
f 144/144/144 146/146/146 145/145/145
f 144/144/144 145/145/145 138/138/138
f 151/151/151 154/154/154 153/153/153
f 151/151/151 153/153/153 150/150/150
f 150/150/150 153/153/153 155/155/155
f 154/154/154 157/157/157 156/156/156
f 154/154/154 156/156/156 153/153/153
f 153/153/153 156/156/156 158/158/158
f 153/153/153 158/158/158 161/161/161
f 161/161/161 158/158/158 162/162/162
f 147/147/147 149/149/149 148/148/148
f 147/147/147 148/148/148 159/159/159
f 159/159/159 148/148/148 160/160/160
f 149/149/149 151/151/151 150/150/150
f 149/149/149 150/150/150 148/148/148
f 148/148/148 150/150/150 152/152/152
f 148/148/148 152/152/152 163/163/163
f 163/163/163 152/152/152 165/165/165
f 164/164/164 166/166/166 152/152/152
f 164/164/164 152/152/152 150/150/150
f 168/168/168 159/159/159 169/169/169
f 168/168/168 169/169/169 170/170/170
f 181/181/181 182/182/182 179/179/179
f 181/181/181 179/179/179 180/180/180
f 180/180/180 179/179/179 177/177/177
f 175/175/175 177/177/177 176/176/176
f 175/175/175 176/176/176 178/178/178
f 178/178/178 176/176/176 183/183/183
f 178/178/178 183/183/183 184/184/184
f 184/184/184 183/183/183 185/185/185
f 184/184/184 185/185/185 186/186/186
f 1/1/1 3/3/3 2/2/2
f 1/1/1 2/2/2 4/4/4
f 4/4/4 2/2/2 10/10/10
f 4/4/4 10/10/10 11/11/11
f 11/11/11 10/10/10 12/12/12
f 9/9/9 8/8/8 5/5/5
f 9/9/9 5/5/5 7/7/7
f 7/7/7 5/5/5 6/6/6
f 16/16/16 15/15/15 17/17/17
f 16/16/16 17/17/17 21/21/21
f 21/21/21 17/17/17 22/22/22
f 21/21/21 22/22/22 23/23/23
f 23/23/23 22/22/22 24/24/24
f 38/38/38 39/39/39 37/37/37
f 38/38/38 37/37/37 31/31/31
f 31/31/31 37/37/37 30/30/30
f 31/31/31 30/30/30 28/28/28
f 28/28/28 30/30/30 29/29/29
f 34/34/34 33/33/33 32/32/32
f 34/34/34 32/32/32 36/36/36
f 36/36/36 32/32/32 35/35/35
f 50/50/50 51/51/51 49/49/49
f 50/50/50 49/49/49 48/48/48
f 48/48/48 49/49/49 43/43/43
f 48/48/48 43/43/43 44/44/44
f 44/44/44 43/43/43 42/42/42
f 70/70/70 56/56/56 60/60/60
f 60/60/60 56/56/56 58/58/58
f 60/60/60 58/58/58 63/63/63
f 63/63/63 58/58/58 61/61/61
f 83/83/83 85/85/85 82/82/82
f 93/93/93 95/95/95 94/94/94
f 93/93/93 94/94/94 96/96/96
f 96/96/96 94/94/94 102/102/102
f 96/96/96 102/102/102 103/103/103
f 103/103/103 102/102/102 104/104/104
f 101/101/101 100/100/100 97/97/97
f 101/101/101 97/97/97 99/99/99
f 99/99/99 97/97/97 98/98/98
f 108/108/108 107/107/107 109/109/109
f 108/108/108 109/109/109 113/113/113
f 113/113/113 109/109/109 114/114/114
f 113/113/113 114/114/114 115/115/115
f 115/115/115 114/114/114 116/116/116
f 130/130/130 131/131/131 129/129/129
f 130/130/130 129/129/129 123/123/123
f 123/123/123 129/129/129 122/122/122
f 123/123/123 122/122/122 120/120/120
f 120/120/120 122/122/122 121/121/121
f 126/126/126 125/125/125 124/124/124
f 126/126/126 124/124/124 128/128/128
f 128/128/128 124/124/124 127/127/127
f 142/142/142 143/143/143 141/141/141
f 142/142/142 141/141/141 140/140/140
f 140/140/140 141/141/141 135/135/135
f 140/140/140 135/135/135 136/136/136
f 136/136/136 135/135/135 134/134/134
f 177/177/177 179/179/179 176/176/176

