g NewMesh_tris_4
v -1.588509 4.151757 -2.520228
v 2.687082 -0.8703165 2.07944
v 5.954178 3.580732 3.174329
v -2.956778 0.09858624 -1.899941
v 0.4499073 -4.52579 2.984295
v -2.618207 0.2082558 -2.497445
v -6.499898 -3.79005 -2.973472
v 2.119061 -0.6052109 2.258476

vn 0.5387117 -0.2717464 -0.7974607
vn 0.5594429 -0.2480698 -0.790876
vn 0.5753643 -0.2292296 -0.7851176
vn 0.5156479 -0.297089 -0.8036451
vn 0.5943899 -0.4139195 -0.6894717
vn 0.5716455 -0.4359324 -0.6951147
vn 0.5533134 -0.4529636 -0.6990482
vn 0.6183168 -0.3895802 -0.6825773

vt 0.9999 0.9999
vt 0.0001 0.0001
vt 0.9999 0.0001
vt 0.0001 0.9999
vt 0.9999 0.9999
vt 0.0001 0.0001
vt 0.9999 0.0001
vt 0.0001 0.9999



vc 1 1 1 1
vc 1 1 1 1
vc 1 1 1 1
vc 1 1 1 1
vc 1 1 1 1
vc 1 1 1 1
vc 1 1 1 1
vc 1 1 1 1

usemtl MEP_Spiderweb
usemap MEP_Spiderweb
f 1/1/1 3/3/3 2/2/2
f 1/1/1 2/2/2 4/4/4
f 5/5/5 7/7/7 6/6/6
f 5/5/5 6/6/6 8/8/8

