g NewMesh_tris_50
v 0.2435069 0.994777 -0.06224249
v -0.1494579 -0.06095728 0.04300208
v -0.33401 0.9561887 -0.07680039
v 0.2201647 -0.0562611 -0.07200435
v 0.5349734 0.7192141 0.7742798
v 0.3248065 -0.2088435 0.4849379
v 0.3649863 0.6852927 0.295739
v 0.5356313 -0.2047153 0.7520481
v 1.080941 0.6012714 -1.411575
v 1.386731 -0.2001052 -1.368562
v 1.48015 0.5719802 -1.230116
v 1.094355 -0.1965405 -1.397831
v 1.340096 0.5359954 -0.7513242
v 1.330048 -0.2086737 -0.4645512
v 1.211177 0.508777 -0.3647705
v 1.328698 -0.2053612 -0.7375922
v 2.048483 0.850096 -2.338482
v 2.0293 -0.1032529 -2.705342
v 2.169769 0.8152502 -2.845862
v 2.061488 -0.09901217 -2.357267
v 6.013831 0.1222491 -8.924108
v 6.293551 -0.743366 -8.742408
v 6.321805 0.0906099 -8.56423
v 6.020689 -0.7395155 -8.90453
v -9.61738 -0.05497234 -28.27687
v -9.270332 -0.9561601 -28.26471
v -9.149579 -0.08791172 -28.12085
v -9.600762 -0.9521514 -28.26307
v -9.559219 0.08771282 -28.04354
v -9.304067 -0.9643062 -28.35855
v -9.085116 0.04926039 -28.37007
v -9.534684 -0.9596266 -28.04935
v -2.687871 -0.3126937 -27.6725
v -2.393386 -1.195086 -27.84248
v -2.218476 -0.3449461 -27.78568
v -2.666915 -1.191161 -27.66967
v -3.518368 -0.1626212 -29.36013
v -3.892809 -1.196751 -29.49647
v -3.973583 -0.2004198 -29.69629
v -3.531613 -1.192151 -29.38108
v -3.693495 -0.3805265 -32.32279
v -3.610237 -1.164719 -32.0323
v -3.69682 -0.4091896 -31.89369
v -3.700442 -1.16123 -32.30532
v 0.7832825 0.6646785 -1.168318
v 0.8145061 -0.4662288 -1.071602
v 0.5795376 0.5733225 -1.479201
v 1.248531 0.8776093 -0.4975336
v 1.126613 -0.5276054 -0.5304478
v 1.710384 0.7640944 -0.4994662
v 0.4219762 0.8460986 -3.143471
v 0.3950456 -0.4970341 -3.261132
v 0.630855 0.7375987 -2.754562
v -0.4844743 0.6330752 -5.720562
v -0.4263552 -0.6265591 -5.623422
v -0.7834882 0.5313204 -6.006908
v 5.002947 0.2965633 -7.964808
v 4.88741 -1.091113 -8.011742
v 5.455869 0.1844651 -7.911119
v 3.612041 -0.2715955 -13.10047
v 3.522774 -1.286702 -13.08167
v 3.908679 -0.353597 -13.25318
v 5.348878 -0.334903 -8.987856
v 5.306782 -1.370528 -9.070861
v 5.577695 -0.418562 -8.735858
v -10.39516 0.1253031 -28.8451
v -10.51619 -1.222233 -28.8411
v -9.972157 0.0164475 -28.97637
v -4.491508 -0.1906288 -31.54536
v -4.376993 -1.488274 -31.5674
v -4.87406 -0.2954542 -31.35679
v 0.4087445 0.5764579 -1.963083
v -0.2328599 0.6668774 -2.227463
v -0.1170627 -0.2799778 -2.068294
v 0.7217057 0.6843954 -0.4720008
v 0.354324 0.7877005 -1.174576
v 0.3387796 -0.2940885 -0.9502303
v 0.1491008 0.504869 -1.038015
v 0.3726963 0.5876533 -0.4433188
v 0.4069698 -0.2792463 -0.6202419
v 1.671182 0.5568158 -0.3143601
v 1.265864 0.6414575 -0.821995
v 1.288436 -0.244893 -0.639127
v 1.97153 0.7778702 -4.841803
v 1.799168 0.861356 -5.458909
v 1.749185 -0.01288946 -5.284178
v 3.968566 -0.7179443 -10.96579
v 3.486027 -0.6377221 -11.34817
v 3.54586 -1.477793 -11.18411
v 3.54369 -0.6860458 -10.50687
v 3.596124 -0.5774 -9.674697
v 3.707026 -1.715116 -9.883594
v -2.895686 0.1185307 -14.1966
v -2.458485 0.2046819 -14.6926
v -2.637797 -0.6974763 -14.63765
v -3.602277 -0.2317705 -30.32952
v -2.946283 -0.1238789 -30.8348
v -3.179849 -1.253697 -30.8101
v -3.556531 -0.5200096 -30.20815
v -3.306821 -0.4447223 -29.68709
v -3.289793 -1.233115 -29.8501
v -3.796387 -0.4230268 -29.9531
v -3.250571 -0.336839 -29.57945
v -3.326992 -1.23938 -29.7508
v 3.375869 -0.2468208 -8.400084
v 3.825246 -0.3637215 -8.808867
v 3.623652 -1.104407 -8.432517
v 2.858846 -0.2471051 -13.71287
v 2.476928 -0.3554599 -13.29911
v 2.632672 -1.041998 -13.6629
v 2.591032 -0.1798371 -13.91448
v 2.802569 -0.2972147 -13.34236
v 2.528026 -1.040922 -13.6716
v -2.437937 0.3969774 -15.67795
v -2.519046 0.2400568 -14.86653
v -2.655982 -0.7541959 -15.42304
v -2.737963 0.06573016 -15.51866
v -2.570842 -0.0461295 -16.07541
v -2.550715 -0.754875 -15.66738
v -3.395266 0.2610348 -15.70298
v -2.759859 0.1303166 -15.46278
v -3.237164 -0.697917 -15.47258
v -9.945543 0.08872636 -30.4359
v -10.03509 -0.05879193 -29.67455
v -10.15467 -0.9934713 -30.19987
v -2.229573 -0.08743812 -29.40524
v -2.792558 -0.2414352 -28.83649
v -2.553302 -1.217165 -29.34549

vn 0.04467596 0.08258537 0.9955821
vn 0.1979697 0.02398823 0.9799147
vn -0.0324511 0.1110902 0.9932804
vn 0.2972344 -0.01544286 0.9546796
vn -0.9134453 0.08258537 0.3984938
vn -0.8438829 0.02398823 0.5359911
vn -0.9389363 0.1110902 0.3256646
vn -0.7847506 -0.01544286 0.6196192
vn 0.3478803 0.08258537 -0.9338945
vn 0.200651 0.02398823 -0.9793691
vn 0.4179768 0.1110902 -0.9016398
vn 0.09941721 -0.01544286 -0.9949259
vn 0.965142 0.08258537 0.2483559
vn 0.9949778 0.02398823 0.09717966
vn 0.9403911 0.1110902 0.3214399
vn 0.9998676 -0.01544286 -0.005125653
vn -0.983115 0.08258537 -0.1632932
vn -0.9996614 0.02398823 -0.01009186
vn -0.9648279 0.1110902 -0.2382563
vn -0.9956161 -0.01544286 0.09225032
vn 0.7099676 0.08258537 -0.6993752
vn 0.5957509 0.02398823 -0.8028111
vn 0.7598651 0.1110902 -0.6405185
vn 0.5105765 -0.01544286 -0.8596936
vn 0.2483563 0.08258537 -0.9651418
vn 0.09718008 0.02398823 -0.9949778
vn 0.3214403 0.1110902 -0.9403908
vn -0.005125227 -0.01544286 -0.9998676
vn -0.6213323 0.08258537 -0.7791829
vn -0.7361404 0.02398823 -0.6764038
vn -0.5575823 0.1110902 -0.8226548
vn -0.8016144 -0.01544286 -0.5976419
vn -0.3008292 0.08258537 -0.9500955
vn -0.4448446 0.02398823 -0.8952866
vn -0.2257345 0.1110902 -0.9678341
vn -0.5341956 -0.01544286 -0.8452199
vn -0.534446 0.08258537 0.8411582
vn -0.3998886 0.02398823 0.9162499
vn -0.5963045 0.1110902 0.7950345
vn -0.3041015 -0.01544286 0.9525144
vn 0.9946508 0.08258537 -0.06204461
vn 0.9763104 0.02398823 -0.2150415
vn 0.9936954 0.1110902 0.01511088
vn 0.9493467 -0.01544286 -0.3138507
vn -0.8392796 0.02325577 0.5432026
vn -0.8392796 0.02325577 0.5432026
vn -0.8392796 0.02325577 0.5432026
vn 0.001536994 0.02325577 -0.9997284
vn 0.001536994 0.02325577 -0.9997284
vn 0.001536994 0.02325577 -0.9997284
vn 0.8834293 0.02325577 -0.4679872
vn 0.8834293 0.02325577 -0.4679872
vn 0.8834293 0.02325577 -0.4679872
vn -0.6955753 0.02325577 0.7180768
vn -0.6955753 0.02325577 0.7180768
vn -0.6955753 0.02325577 0.7180768
vn 0.1233615 0.02325577 -0.9920894
vn 0.1233615 0.02325577 -0.9920894
vn 0.1233615 0.02325577 -0.9920894
vn -0.4524982 0.02325577 -0.8914621
vn -0.4524982 0.02325577 -0.8914621
vn -0.4524982 0.02325577 -0.8914621
vn 0.743971 0.02325577 -0.6678071
vn 0.743971 0.02325577 -0.6678071
vn 0.743971 0.02325577 -0.6678071
vn -0.2908228 0.02325577 -0.9564943
vn -0.2908228 0.02325577 -0.9564943
vn -0.2908228 0.02325577 -0.9564943
vn 0.436871 0.02325577 0.8992236
vn 0.436871 0.02325577 0.8992236
vn 0.436871 0.02325577 0.8992236
vn 0.3652687 -0.1106925 -0.9242976
vn 0.3652687 -0.1106925 -0.9242976
vn 0.3652687 -0.1106925 -0.9242976
vn 0.873939 -0.1106925 -0.4732629
vn 0.873939 -0.1106925 -0.4732629
vn 0.873939 -0.1106925 -0.4732629
vn -0.925101 -0.1106925 0.363229
vn -0.925101 -0.1106925 0.363229
vn -0.925101 -0.1106925 0.363229
vn 0.7675795 -0.1106925 -0.6313232
vn 0.7675795 -0.1106925 -0.6313232
vn 0.7675795 -0.1106925 -0.6313232
vn 0.9532384 -0.1106925 -0.2812186
vn 0.9532384 -0.1106925 -0.2812186
vn 0.9532384 -0.1106925 -0.2812186
vn 0.6058899 -0.1106925 -0.78781
vn 0.6058899 -0.1106925 -0.78781
vn 0.6058899 -0.1106925 -0.78781
vn -0.9908764 -0.1106925 0.07688399
vn -0.9908764 -0.1106925 0.07688399
vn -0.9908764 -0.1106925 0.07688399
vn 0.7550205 -0.1106925 0.6462904
vn 0.7550205 -0.1106925 0.6462904
vn 0.7550205 -0.1106925 0.6462904
vn 0.6178309 -0.1106925 0.7784806
vn 0.6178309 -0.1106925 0.7784806
vn 0.6178309 -0.1106925 0.7784806
vn -0.8899235 -0.1106925 0.4424744
vn -0.8899235 -0.1106925 0.4424744
vn -0.8899235 -0.1106925 0.4424744
vn -0.5494589 -0.1106925 0.8281558
vn -0.5494589 -0.1106925 0.8281558
vn -0.5494589 -0.1106925 0.8281558
vn 0.6869965 0.1717606 0.7060695
vn 0.6869965 0.1717606 0.7060695
vn 0.6869965 0.1717606 0.7060695
vn -0.7459201 0.1717606 -0.6435072
vn -0.7459201 0.1717606 -0.6435072
vn -0.7459201 0.1717606 -0.6435072
vn -0.9120097 0.1717606 0.3724737
vn -0.9120097 0.1717606 0.3724737
vn -0.9120097 0.1717606 0.3724737
vn -0.9829906 0.1717606 -0.06502169
vn -0.9829906 0.1717606 -0.06502169
vn -0.9829906 0.1717606 -0.06502169
vn 0.9525237 0.1717606 0.2513903
vn 0.9525237 0.1717606 0.2513903
vn 0.9525237 0.1717606 0.2513903
vn -0.3172225 0.1717606 0.9326673
vn -0.3172225 0.1717606 0.9326673
vn -0.3172225 0.1717606 0.9326673
vn -0.9817061 0.1717606 -0.0821672
vn -0.9817061 0.1717606 -0.0821672
vn -0.9817061 0.1717606 -0.0821672
vn -0.7230077 0.1717606 -0.6691475
vn -0.7230077 0.1717606 -0.6691475
vn -0.7230077 0.1717606 -0.6691475

vt 0.99898 0.999323
vt 0.760851 0.300332
vt 0.645684 0.999934
vt 0.98965 0.304891
vt 0.99898 0.999323
vt 0.760851 0.300332
vt 0.645684 0.999934
vt 0.98965 0.304891
vt 0.99898 0.999323
vt 0.760851 0.300332
vt 0.645684 0.999934
vt 0.98965 0.304891
vt 0.99898 0.999323
vt 0.760851 0.300332
vt 0.645684 0.999934
vt 0.98965 0.304891
vt 0.99898 0.999323
vt 0.760851 0.300332
vt 0.645684 0.999934
vt 0.98965 0.304891
vt 0.99898 0.999323
vt 0.760851 0.300332
vt 0.645684 0.999934
vt 0.98965 0.304891
vt 0.99898 0.999323
vt 0.760851 0.300332
vt 0.645684 0.999934
vt 0.98965 0.304891
vt 0.99898 0.999323
vt 0.760851 0.300332
vt 0.645684 0.999934
vt 0.98965 0.304891
vt 0.99898 0.999323
vt 0.760851 0.300332
vt 0.645684 0.999934
vt 0.98965 0.304891
vt 0.99898 0.999323
vt 0.760851 0.300332
vt 0.645684 0.999934
vt 0.98965 0.304891
vt 0.99898 0.999323
vt 0.760851 0.300332
vt 0.645684 0.999934
vt 0.98965 0.304891
vt -0.006391 0.021864
vt 0.081192 0.876851
vt 0.298698 0.008629
vt -0.006391 0.021864
vt 0.081192 0.876851
vt 0.298698 0.008629
vt -0.006391 0.021864
vt 0.081192 0.876851
vt 0.298698 0.008629
vt -0.006391 0.021864
vt 0.081192 0.876851
vt 0.298698 0.008629
vt -0.006391 0.021864
vt 0.081192 0.876851
vt 0.298698 0.008629
vt -0.006391 0.021864
vt 0.081192 0.876851
vt 0.298698 0.008629
vt -0.006391 0.021864
vt 0.081192 0.876851
vt 0.298698 0.008629
vt -0.006391 0.021864
vt 0.081192 0.876851
vt 0.298698 0.008629
vt -0.006391 0.021864
vt 0.081192 0.876851
vt 0.298698 0.008629
vt 0.876737 0.001002
vt 0.308069 1.7E-05
vt 0.614817 0.684772
vt 0.876737 0.001002
vt 0.308069 1.7E-05
vt 0.614817 0.684772
vt 0.876737 0.001002
vt 0.308069 1.7E-05
vt 0.614817 0.684772
vt 0.876737 0.001002
vt 0.308069 1.7E-05
vt 0.614817 0.684772
vt 0.876737 0.001002
vt 0.308069 1.7E-05
vt 0.614817 0.684772
vt 0.876737 0.001002
vt 0.308069 1.7E-05
vt 0.614817 0.684772
vt 0.876737 0.001002
vt 0.308069 1.7E-05
vt 0.614817 0.684772
vt 0.876737 0.001002
vt 0.308069 1.7E-05
vt 0.614817 0.684772
vt 0.876737 0.001002
vt 0.308069 1.7E-05
vt 0.614817 0.684772
vt 0.876737 0.001002
vt 0.308069 1.7E-05
vt 0.614817 0.684772
vt 0.876737 0.001002
vt 0.308069 1.7E-05
vt 0.614817 0.684772
vt 0.027463 0.999213
vt 0.567618 0.999236
vt 0.272825 0.305572
vt 0.027463 0.999213
vt 0.567618 0.999236
vt 0.272825 0.305572
vt 0.027463 0.999213
vt 0.567618 0.999236
vt 0.272825 0.305572
vt 0.027463 0.999213
vt 0.567618 0.999236
vt 0.272825 0.305572
vt 0.027463 0.999213
vt 0.567618 0.999236
vt 0.272825 0.305572
vt 0.027463 0.999213
vt 0.567618 0.999236
vt 0.272825 0.305572
vt 0.027463 0.999213
vt 0.567618 0.999236
vt 0.272825 0.305572
vt 0.027463 0.999213
vt 0.567618 0.999236
vt 0.272825 0.305572



vc 1 1 1 1
vc 1 1 1 1
vc 1 1 1 1
vc 1 1 1 1
vc 1 1 1 1
vc 1 1 1 1
vc 1 1 1 1
vc 1 1 1 1
vc 1 1 1 1
vc 1 1 1 1
vc 1 1 1 1
vc 1 1 1 1
vc 1 1 1 1
vc 1 1 1 1
vc 1 1 1 1
vc 1 1 1 1
vc 1 1 1 1
vc 1 1 1 1
vc 1 1 1 1
vc 1 1 1 1
vc 1 1 1 1
vc 1 1 1 1
vc 1 1 1 1
vc 1 1 1 1
vc 1 1 1 1
vc 1 1 1 1
vc 1 1 1 1
vc 1 1 1 1
vc 1 1 1 1
vc 1 1 1 1
vc 1 1 1 1
vc 1 1 1 1
vc 1 1 1 1
vc 1 1 1 1
vc 1 1 1 1
vc 1 1 1 1
vc 1 1 1 1
vc 1 1 1 1
vc 1 1 1 1
vc 1 1 1 1
vc 1 1 1 1
vc 1 1 1 1
vc 1 1 1 1
vc 1 1 1 1
vc 1 1 1 1
vc 1 1 1 1
vc 1 1 1 1
vc 1 1 1 1
vc 1 1 1 1
vc 1 1 1 1
vc 1 1 1 1
vc 1 1 1 1
vc 1 1 1 1
vc 1 1 1 1
vc 1 1 1 1
vc 1 1 1 1
vc 1 1 1 1
vc 1 1 1 1
vc 1 1 1 1
vc 1 1 1 1
vc 1 1 1 1
vc 1 1 1 1
vc 1 1 1 1
vc 1 1 1 1
vc 1 1 1 1
vc 1 1 1 1
vc 1 1 1 1
vc 1 1 1 1
vc 1 1 1 1
vc 1 1 1 1
vc 1 1 1 1
vc 1 1 1 1
vc 1 1 1 1
vc 1 1 1 1
vc 1 1 1 1
vc 1 1 1 1
vc 1 1 1 1
vc 1 1 1 1
vc 1 1 1 1
vc 1 1 1 1
vc 1 1 1 1
vc 1 1 1 1
vc 1 1 1 1
vc 1 1 1 1
vc 1 1 1 1
vc 1 1 1 1
vc 1 1 1 1
vc 1 1 1 1
vc 1 1 1 1
vc 1 1 1 1
vc 1 1 1 1
vc 1 1 1 1
vc 1 1 1 1
vc 1 1 1 1
vc 1 1 1 1
vc 1 1 1 1
vc 1 1 1 1
vc 1 1 1 1
vc 1 1 1 1
vc 1 1 1 1
vc 1 1 1 1
vc 1 1 1 1
vc 1 1 1 1
vc 1 1 1 1
vc 1 1 1 1
vc 1 1 1 1
vc 1 1 1 1
vc 1 1 1 1
vc 1 1 1 1
vc 1 1 1 1
vc 1 1 1 1
vc 1 1 1 1
vc 1 1 1 1
vc 1 1 1 1
vc 1 1 1 1
vc 1 1 1 1
vc 1 1 1 1
vc 1 1 1 1
vc 1 1 1 1
vc 1 1 1 1
vc 1 1 1 1
vc 1 1 1 1
vc 1 1 1 1
vc 1 1 1 1
vc 1 1 1 1
vc 1 1 1 1
vc 1 1 1 1
vc 1 1 1 1

usemtl MEP_Lumie
usemap MEP_Lumie
f 45/45/45 47/47/47 46/46/46
f 48/48/48 50/50/50 49/49/49
f 51/51/51 53/53/53 52/52/52
f 54/54/54 56/56/56 55/55/55
f 57/57/57 59/59/59 58/58/58
f 60/60/60 62/62/62 61/61/61
f 63/63/63 65/65/65 64/64/64
f 66/66/66 68/68/68 67/67/67
f 69/69/69 71/71/71 70/70/70
f 72/72/72 74/74/74 73/73/73
f 75/75/75 77/77/77 76/76/76
f 78/78/78 80/80/80 79/79/79
f 81/81/81 83/83/83 82/82/82
f 84/84/84 86/86/86 85/85/85
f 87/87/87 89/89/89 88/88/88
f 90/90/90 92/92/92 91/91/91
f 93/93/93 95/95/95 94/94/94
f 96/96/96 98/98/98 97/97/97
f 99/99/99 101/101/101 100/100/100
f 102/102/102 104/104/104 103/103/103
f 105/105/105 107/107/107 106/106/106
f 108/108/108 110/110/110 109/109/109
f 111/111/111 113/113/113 112/112/112
f 114/114/114 116/116/116 115/115/115
f 117/117/117 119/119/119 118/118/118
f 120/120/120 122/122/122 121/121/121
f 123/123/123 125/125/125 124/124/124
f 126/126/126 128/128/128 127/127/127
f 1/1/1 3/3/3 2/2/2
f 1/1/1 2/2/2 4/4/4
f 5/5/5 7/7/7 6/6/6
f 5/5/5 6/6/6 8/8/8
f 9/9/9 11/11/11 10/10/10
f 9/9/9 10/10/10 12/12/12
f 13/13/13 15/15/15 14/14/14
f 13/13/13 14/14/14 16/16/16
f 17/17/17 19/19/19 18/18/18
f 17/17/17 18/18/18 20/20/20
f 21/21/21 23/23/23 22/22/22
f 21/21/21 22/22/22 24/24/24
f 25/25/25 27/27/27 26/26/26
f 25/25/25 26/26/26 28/28/28
f 29/29/29 31/31/31 30/30/30
f 29/29/29 30/30/30 32/32/32
f 33/33/33 35/35/35 34/34/34
f 33/33/33 34/34/34 36/36/36
f 37/37/37 39/39/39 38/38/38
f 37/37/37 38/38/38 40/40/40
f 41/41/41 43/43/43 42/42/42
f 41/41/41 42/42/42 44/44/44

