g NewMesh_tris_4
v 3.57547 3.320809 -1.516657
v -0.4887884 -3.471701 -0.101577
v 4.003784 -6.110595 -2.231733
v -0.2210087 3.466423 0.5450541
v -3.81387 -2.811507 2.672271
v -0.24752 3.613359 -0.1341886
v -4.151924 6.365161 2.77507
v -0.1770791 -3.13016 0.3579597

vn -0.4464588 0.08149846 -0.891085
vn -0.4224922 0.06444969 -0.9040722
vn -0.4032977 0.05097823 -0.9136477
vn -0.4719082 0.09984192 -0.8759762
vn -0.5644066 -0.04727194 -0.8241422
vn -0.5864964 -0.02912669 -0.8094279
vn -0.6034772 -0.01481689 -0.7972425
vn -0.539813 -0.06684336 -0.8391269

vt 0.9999 0.9999
vt 0.0001 0.0001
vt 0.9999 0.0001
vt 0.0001 0.9999
vt 0.9999 0.9999
vt 0.0001 0.0001
vt 0.9999 0.0001
vt 0.0001 0.9999



vc 1 1 1 1
vc 1 1 1 1
vc 1 1 1 1
vc 1 1 1 1
vc 1 1 1 1
vc 1 1 1 1
vc 1 1 1 1
vc 1 1 1 1

usemtl MEP_Spiderweb
usemap MEP_Spiderweb
f 1/1/1 3/3/3 2/2/2
f 1/1/1 2/2/2 4/4/4
f 5/5/5 7/7/7 6/6/6
f 5/5/5 6/6/6 8/8/8

