g NewMesh_tris_90
v -3.985448 5.097783 -0.5054253
v -3.575052 4.941336 -0.2295067
v -4.375625 5.061631 -1.323649
v -3.297412 5.083823 0.04070991
v -4.350289 4.863341 -1.792
v -4.477867 4.946227 -2.233323
v -3.944739 4.821795 -3.428344
v -1.881996 4.407747 -1.72336
v -3.796248 4.710642 -3.322083
v -1.91426 5.101699 0.1973475
v -2.433507 5.196102 0.2650694
v -1.488401 5.365778 0.18143
v -0.6877228 5.437158 -0.5794358
v -0.6252865 5.601054 -0.494233
v -1.488401 5.365778 0.18143
v -2.433507 5.196102 0.2650694
v -2.573411 5.803773 -0.8376979
v -1.811336 6.015029 -1.448856
v -2.463042 6.284101 -1.99121
v -0.6252865 5.601054 -0.494233
v -3.297412 5.083823 0.04070991
v -3.215921 5.854038 -1.250094
v -3.985448 5.097783 -0.5054253
v -4.375625 5.061631 -1.323649
v -4.477867 4.946227 -2.233323
v -3.263822 5.802277 -2.764751
v -3.944739 4.821795 -3.428344
v -0.9903737 5.324011 -3.997908
v -1.96833 5.154372 -4.359743
v -0.5190803 5.257643 -3.641024
v -0.2278733 5.517839 -3.347178
v -2.412664 4.92033 -4.276072
v -2.885051 4.991539 -4.279646
v -3.944739 4.821795 -3.428344
v -1.881996 4.407747 -1.72336
v -3.796248 4.710642 -3.322083
v -0.1457324 5.686547 -2.106623
v -0.06044993 5.769146 -2.556628
v -0.226503 5.860536 -1.653854
v -0.6877228 5.437158 -0.5794358
v -0.6252865 5.601054 -0.494233
v -0.226503 5.860536 -1.653854
v -1.317892 6.136019 -2.438132
v -0.06044993 5.769146 -2.556628
v -1.811336 6.015029 -1.448856
v -2.463042 6.284101 -1.99121
v -0.6252865 5.601054 -0.494233
v -0.2278733 5.517839 -3.347178
v -1.78661 6.008993 -3.008734
v -0.9903737 5.324011 -3.997908
v -1.96833 5.154372 -4.359743
v -2.885051 4.991539 -4.279646
v -3.263822 5.802277 -2.764751
v -3.944739 4.821795 -3.428344
v -1.919965 4.585702 -1.570071
v -2.053001 4.157206 -1.337969
v -2.110695 4.572449 -1.745665
v -2.156303 4.144999 -1.956773
v -1.954787 4.585571 -1.944558
v -1.839236 3.501066 -1.575614
v -1.571198 4.213654 -2.035898
v -1.769232 4.611188 -1.771477
v -1.649089 3.51466 -1.807722
v -1.538147 4.209465 -1.441791
v -1.919965 4.585702 -1.570071
v -1.420177 3.55457 -1.595252
v -1.538147 4.209465 -1.441791
v -1.607314 3.534356 -1.24403
v -1.649089 3.51466 -1.807722
v -0.5426366 1.769974 -0.9194169
v -1.607314 3.534356 -1.24403
v -1.649089 3.51466 -1.807722
v -0.9426412 1.6465 -0.7432185
v -0.7530344 1.621571 -1.054188
v -0.7530344 1.621571 -1.054188
v -1.420177 3.55457 -1.595252
v -1.607314 3.534356 -1.24403
v -0.6190744 1.850138 -0.6115884
v -0.5426366 1.769974 -0.9194169
v -0.6190744 1.850138 -0.6115884
v -0.6190744 1.850138 -0.6115884
v -0.9426412 1.6465 -0.7432185
v -0.4096848 -0.3949468 0.2430776
v -0.9426412 1.6465 -0.7432185
v -0.1226201 -0.3678388 0.6172676
v -0.1562282 -0.4892206 -0.294724
v -0.6190744 1.850138 -0.6115884
v 0.3378712 -0.07929891 0.3327992
v 0.4608977 -0.2148049 -0.2527731
v -0.5426366 1.769974 -0.9194169
v -0.7530344 1.621571 -1.054188
v 0.1916951 -0.3242771 -0.4517319
v -0.5426366 1.769974 -0.9194169
v 0.4608977 -0.2148049 -0.2527731
v -0.9426412 1.6465 -0.7432185
v -0.7530344 1.621571 -1.054188

vn -0.8380765 -0.005247371 0.5455275
vn -0.2926101 -0.7724687 0.5636235
vn -0.9587063 -0.003677945 0.2843742
vn -0.3553287 -0.007431809 0.9347118
vn -0.4730947 -0.8655993 0.1640708
vn -0.9674847 -0.1733653 -0.1841677
vn -0.7734224 -0.2106187 -0.5978774
vn 0.2684182 -0.9558851 0.119313
vn -0.1333994 -0.9805323 -0.1440863
vn 0.2591821 -0.6882778 0.677568
vn -0.1714628 0.09813716 0.9802905
vn 0.4114364 0.2150441 0.8857065
vn 0.6124908 -0.731415 0.2998118
vn 0.7072337 0.3568056 0.6103361
vn 0.4114364 0.2150441 0.8857065
vn -0.1714628 0.09813716 0.9802905
vn -0.2022983 0.9402488 0.2738751
vn -0.0330277 0.9838579 0.1758776
vn -0.2220063 0.9741338 -0.04215095
vn 0.7072337 0.3568056 0.6103361
vn -0.3553287 -0.007431809 0.9347118
vn -0.4138133 0.903881 0.1084326
vn -0.8380765 -0.005247371 0.5455275
vn -0.9587063 -0.003677945 0.2843742
vn -0.9674847 -0.1733653 -0.1841677
vn -0.4118328 0.8681476 -0.2769719
vn -0.7734224 -0.2106187 -0.5978774
vn 0.3900486 0.1061004 -0.914661
vn 0.1671514 0.03224343 -0.9854039
vn 0.6956045 -0.5128235 -0.5031364
vn 0.8870866 0.1691827 -0.4294816
vn 0.1143624 -0.7793294 -0.6160901
vn -0.4267512 -0.1422246 -0.8931156
vn -0.7734224 -0.2106187 -0.5978774
vn 0.2684182 -0.9558851 0.119313
vn -0.1333994 -0.9805323 -0.1440863
vn 0.8142556 -0.5510972 0.1824272
vn 0.9279959 0.3430296 -0.1454451
vn 0.7988085 0.5328344 0.2792713
vn 0.6124908 -0.731415 0.2998118
vn 0.7072337 0.3568056 0.6103361
vn 0.7988085 0.5328344 0.2792713
vn 0.005008293 0.9891093 -0.1470979
vn 0.9279959 0.3430296 -0.1454451
vn -0.0330277 0.9838579 0.1758776
vn -0.2220063 0.9741338 -0.04215095
vn 0.7072337 0.3568056 0.6103361
vn 0.8870866 0.1691827 -0.4294816
vn -0.1468782 0.9196125 -0.3643347
vn 0.3900486 0.1061004 -0.914661
vn 0.1671514 0.03224343 -0.9854039
vn -0.4267512 -0.1422246 -0.8931156
vn -0.4118328 0.8681476 -0.2769719
vn -0.7734224 -0.2106187 -0.5978774
vn -0.03798625 0.7347435 0.6772805
vn -0.6284449 0.1314332 0.7666696
vn -0.8794123 0.4758358 0.01464149
vn -0.7948321 -0.1066033 -0.5973923
vn -0.2007406 0.5635359 -0.8013304
vn -0.844842 -0.5344955 -0.02359034
vn 0.5991582 0.1742692 -0.7814343
vn 0.6561306 0.750564 -0.07839846
vn 0.007486434 -0.5255713 -0.8507166
vn 0.7322729 0.385377 0.5614811
vn -0.03798625 0.7347435 0.6772805
vn 0.9790934 0.05755643 -0.195098
vn 0.7322729 0.385377 0.5614811
vn -0.02795463 0.0823511 0.9962112
vn 0.007486434 -0.5255713 -0.8507166
vn 0.8656776 0.2622634 -0.4264037
vn -0.02795463 0.0823511 0.9962112
vn 0.007486434 -0.5255713 -0.8507166
vn -0.9558287 -0.1393075 0.2588141
vn -0.1249473 -0.3781813 -0.9172605
vn -0.1249473 -0.3781813 -0.9172605
vn 0.9790934 0.05755643 -0.195098
vn -0.02795463 0.0823511 0.9962112
vn 0.3526145 0.6187809 0.7019781
vn 0.8656776 0.2622634 -0.4264037
vn 0.3526145 0.6187809 0.7019781
vn 0.3526145 0.6187809 0.7019781
vn -0.9558287 -0.1393075 0.2588141
vn -0.9743164 -0.02927941 0.2232717
vn -0.9558287 -0.1393075 0.2588141
vn -0.4026298 0.4514056 0.7963179
vn -0.6511262 -0.4070973 -0.6405515
vn 0.3526145 0.6187809 0.7019781
vn 0.5386238 0.6200288 0.5704809
vn 0.8699223 0.310518 -0.3831629
vn 0.8656776 0.2622634 -0.4264037
vn -0.1249473 -0.3781813 -0.9172605
vn 0.2240258 -0.2170972 -0.9500953
vn 0.8656776 0.2622634 -0.4264037
vn 0.8699223 0.310518 -0.3831629
vn -0.9558287 -0.1393075 0.2588141
vn -0.1249473 -0.3781813 -0.9172605

vt 0.568321 0.519897
vt 0.484064 0.539192
vt 0.741687 0.570667
vt 0.398166 0.526223
vt 0.799176 0.632682
vt 0.869809 0.659113
vt 0.998611 0.999407
vt 0.497272 0.999247
vt 0.953356 0.999408
vt 0.180175 0.653429
vt 0.230145 0.589156
vt 0.105516 0.69459
vt 0.030406 0.999341
vt 0.000619 0.999249
vt 0.256451 0.577359
vt 0.344316 0.488369
vt 0.186761 0.39691
vt 0.003576 0.445334
vt 0.002923 0.33058
vt 0.002881 0.645791
vt 0.385467 0.367922
vt 0.187202 0.2886
vt 0.377624 0.239538
vt 0.317313 0.125417
vt 0.226127 0.049296
vt 0.002108 0.166015
vt 0.000156 0.00393
vt 0.568321 0.519897
vt 0.741687 0.570667
vt 0.484064 0.539192
vt 0.398166 0.526223
vt 0.799176 0.632682
vt 0.869809 0.659113
vt 0.998611 0.999407
vt 0.497272 0.999247
vt 0.953356 0.999408
vt 0.180175 0.653429
vt 0.230145 0.589156
vt 0.105516 0.69459
vt 0.030406 0.999341
vt 0.000619 0.999249
vt 0.256451 0.577359
vt 0.186761 0.39691
vt 0.344316 0.488369
vt 0.003576 0.445334
vt 0.002923 0.33058
vt 0.002881 0.645791
vt 0.385467 0.367922
vt 0.187202 0.2886
vt 0.377624 0.239538
vt 0.317313 0.125417
vt 0.226127 0.049296
vt 0.002108 0.166015
vt 0.000156 0.00393
vt 0.568965 0.466877
vt 0.554439 0.410202
vt 0.523347 0.46291
vt 0.497722 0.411868
vt 0.47659 0.468095
vt 0.513853 0.34033
vt 0.442111 0.419963
vt 0.430977 0.481484
vt 0.459298 0.343998
vt 0.364406 0.444215
vt 0.396961 0.515581
vt 0.402815 0.35079
vt 0.629087 0.424366
vt 0.584407 0.339945
vt 0.459298 0.343998
vt 0.392133 0.076768
vt 0.584407 0.339945
vt 0.459298 0.343998
vt 0.505852 0.060945
vt 0.43741 0.066682
vt 0.43741 0.066682
vt 0.653651 0.331163
vt 0.584407 0.339945
vt 0.578183 0.0591
vt 0.642197 0.062685
vt 0.578183 0.0591
vt 0.578183 0.0591
vt 0.505852 0.060945
vt 0.957019 0.2635
vt 0.664456 0.27725
vt 0.959328 0.353647
vt 0.960209 0.161361
vt 0.670646 0.444286
vt 0.952085 0.454908
vt 0.947143 0.586758
vt 0.669064 0.545545
vt 0.666362 0.114033
vt 0.955 0.088154
vt 0.665795 0.015588
vt 0.953433 0.012338
vt 0.505852 0.060945
vt 0.43741 0.066682




usemtl MEP_GiantMushroom
usemap MEP_GiantMushroom
f 75/75/75 63/63/63 70/70/70
f 79/79/79 76/76/76 80/80/80
f 81/81/81 68/68/68 82/82/82
f 95/95/95 60/60/60 96/96/96
f 3/3/3 6/6/6 5/5/5
f 3/3/3 5/5/5 2/2/2
f 2/2/2 5/5/5 8/8/8
f 2/2/2 8/8/8 10/10/10
f 10/10/10 8/8/8 13/13/13
f 10/10/10 13/13/13 12/12/12
f 12/12/12 13/13/13 14/14/14
f 25/25/25 24/24/24 22/22/22
f 25/25/25 22/22/22 19/19/19
f 19/19/19 22/22/22 17/17/17
f 19/19/19 17/17/17 18/18/18
f 18/18/18 17/17/17 15/15/15
f 18/18/18 15/15/15 20/20/20
f 26/26/26 27/27/27 25/25/25
f 26/26/26 25/25/25 19/19/19
f 39/39/39 41/41/41 40/40/40
f 39/39/39 40/40/40 37/37/37
f 37/37/37 40/40/40 35/35/35
f 37/37/37 35/35/35 30/30/30
f 30/30/30 35/35/35 32/32/32
f 30/30/30 32/32/32 29/29/29
f 29/29/29 32/32/32 33/33/33
f 51/51/51 52/52/52 49/49/49
f 49/49/49 52/52/52 46/46/46
f 49/49/49 46/46/46 43/43/43
f 43/43/43 46/46/46 45/45/45
f 43/43/43 45/45/45 42/42/42
f 42/42/42 45/45/45 47/47/47
f 52/52/52 54/54/54 53/53/53
f 52/52/52 53/53/53 46/46/46
f 59/59/59 62/62/62 61/61/61
f 59/59/59 61/61/61 58/58/58
f 58/58/58 61/61/61 63/63/63
f 62/62/62 65/65/65 64/64/64
f 62/62/62 64/64/64 61/61/61
f 61/61/61 64/64/64 66/66/66
f 61/61/61 66/66/66 69/69/69
f 69/69/69 66/66/66 70/70/70
f 55/55/55 57/57/57 56/56/56
f 55/55/55 56/56/56 67/67/67
f 67/67/67 56/56/56 68/68/68
f 57/57/57 59/59/59 58/58/58
f 57/57/57 58/58/58 56/56/56
f 56/56/56 58/58/58 60/60/60
f 56/56/56 60/60/60 71/71/71
f 71/71/71 60/60/60 73/73/73
f 72/72/72 74/74/74 60/60/60
f 72/72/72 60/60/60 58/58/58
f 76/76/76 67/67/67 77/77/77
f 76/76/76 77/77/77 78/78/78
f 89/89/89 90/90/90 87/87/87
f 89/89/89 87/87/87 88/88/88
f 88/88/88 87/87/87 85/85/85
f 83/83/83 85/85/85 84/84/84
f 83/83/83 84/84/84 86/86/86
f 86/86/86 84/84/84 91/91/91
f 86/86/86 91/91/91 92/92/92
f 92/92/92 91/91/91 93/93/93
f 92/92/92 93/93/93 94/94/94
f 1/1/1 3/3/3 2/2/2
f 1/1/1 2/2/2 4/4/4
f 4/4/4 2/2/2 10/10/10
f 4/4/4 10/10/10 11/11/11
f 11/11/11 10/10/10 12/12/12
f 9/9/9 8/8/8 5/5/5
f 9/9/9 5/5/5 7/7/7
f 7/7/7 5/5/5 6/6/6
f 16/16/16 15/15/15 17/17/17
f 16/16/16 17/17/17 21/21/21
f 21/21/21 17/17/17 22/22/22
f 21/21/21 22/22/22 23/23/23
f 23/23/23 22/22/22 24/24/24
f 38/38/38 39/39/39 37/37/37
f 38/38/38 37/37/37 31/31/31
f 31/31/31 37/37/37 30/30/30
f 31/31/31 30/30/30 28/28/28
f 28/28/28 30/30/30 29/29/29
f 34/34/34 33/33/33 32/32/32
f 34/34/34 32/32/32 36/36/36
f 36/36/36 32/32/32 35/35/35
f 50/50/50 51/51/51 49/49/49
f 50/50/50 49/49/49 48/48/48
f 48/48/48 49/49/49 43/43/43
f 48/48/48 43/43/43 44/44/44
f 44/44/44 43/43/43 42/42/42
f 85/85/85 87/87/87 84/84/84

