g NewMesh_tris_74
v -0.005250164 -0.1025047 0.01677644
v 0.09182657 -0.5068049 0.01086015
v -0.002212912 -0.1947302 -0.0006463208
v 0.1098745 -0.5066838 0.0230941
v 0.09182657 -0.5068049 0.01086015
v 0.02233952 -0.6548728 0.001165458
v 0.05314917 -0.6546661 0.02205012
v 0.1098745 -0.5066838 0.0230941
v -0.0006992842 -0.09917827 -0.01768013
v 0.1124419 -0.506623 0.003761937
v -0.005250164 -0.1025047 0.01677644
v 0.05314917 -0.6546661 0.02205012
v 0.05753211 -0.6545622 -0.01095195
v 0.02233952 -0.6548728 0.001165458
v -0.002212912 -0.1947302 -0.0006463208
v 0.1124419 -0.506623 0.003761937
v -0.0006992842 -0.09917827 -0.01768013
v 0.09182657 -0.5068049 0.01086015
v 0.05753211 -0.6545622 -0.01095195
v 0.02233952 -0.6548728 0.001165458
v -0.09117642 -0.5082394 -0.01344861
v -0.005250164 -0.1025047 0.01677644
v -0.002212912 -0.1947302 -0.0006463208
v -0.09117642 -0.5082394 -0.01344861
v -0.1117918 -0.5084214 -0.006350396
v -0.01929551 -0.6551992 -0.004365029
v -0.0544881 -0.6555098 0.007752381
v -0.09117642 -0.5082394 -0.01344861
v -0.05010516 -0.6554059 -0.02524969
v -0.01929551 -0.6551992 -0.004365029
v -0.1092243 -0.5083606 -0.02568256
v -0.002212912 -0.1947302 -0.0006463208
v -0.0006992842 -0.09917827 -0.01768013
v -0.05010516 -0.6554059 -0.02524969
v -0.0544881 -0.6555098 0.007752381
v -0.01929551 -0.6551992 -0.004365029
v -0.1092243 -0.5083606 -0.02568256
v -0.1117918 -0.5084214 -0.006350396
v -0.0006992842 -0.09917827 -0.01768013
v -0.005250164 -0.1025047 0.01677644
v -0.07186661 -0.8219841 -0.3555804
v -0.3546531 -1.24249 -0.02214438
v -0.06847909 -1.239475 -0.3564452
v -0.3580406 -0.8249986 -0.0212796
v -0.175641 -1.344116 -0.01281318
v -0.02967351 -1.345515 -0.1771328
v 0.001183875 -0.6133635 -0.001513466
v -0.3580406 -0.8249986 -0.0212796
v -0.07186661 -0.8219841 -0.3555804
v 0.1479687 -1.34037 0.1175838
v -0.04994493 -1.391437 0.1511309
v -0.05886317 -1.340848 0.172747
v 0.1309792 -1.391019 0.1028779
v -0.3580406 -0.8249986 -0.0212796
v -0.1207216 -1.241333 0.3356647
v -0.3546531 -1.24249 -0.02214438
v -0.124109 -0.8238416 0.3365285
v 0.001183875 -0.6133635 -0.001513466
v -0.05886317 -1.340848 0.172747
v -0.175641 -1.344116 -0.01281318
v 0.001183875 -0.6133635 -0.001513466
v 0.3177179 -0.8191876 -0.1796008
v 0.2775 -0.8203689 0.2331575
v 0.2808875 -1.23786 0.2322927
v 0.1635638 -1.343168 -0.09130707
v 0.1479687 -1.34037 0.1175838
v 0.3211055 -1.236679 -0.1804656
v -0.124109 -0.8238416 0.3365285
v 0.2808875 -1.23786 0.2322927
v -0.1207216 -1.241333 0.3356647
v 0.2775 -0.8203689 0.2331575
v 0.001183875 -0.6133635 -0.001513466
v 0.2775 -0.8203689 0.2331575
v 0.3211055 -1.236679 -0.1804656
v 0.2808875 -1.23786 0.2322927
v 0.3177179 -0.8191876 -0.1796008
v 0.3211055 -1.236679 -0.1804656
v -0.02967351 -1.345515 -0.1771328
v 0.1635638 -1.343168 -0.09130707
v -0.06847909 -1.239475 -0.3564452
v 0.3177179 -0.8191876 -0.1796008
v -0.07186661 -0.8219841 -0.3555804
v 0.001183875 -0.6133635 -0.001513466
v -0.02967351 -1.345515 -0.1771328
v 0.1446223 -1.393467 -0.07984796
v 0.1635638 -1.343168 -0.09130707
v -0.02441129 -1.39552 -0.1549237
v -0.1207216 -1.241333 0.3356647
v 0.1479687 -1.34037 0.1175838
v -0.05886317 -1.340848 0.172747
v 0.2808875 -1.23786 0.2322927
v 0.1635638 -1.343168 -0.09130707
v 0.1309792 -1.391019 0.1028779
v 0.1479687 -1.34037 0.1175838
v 0.1446223 -1.393467 -0.07984796
v -0.05886317 -1.340848 0.172747
v -0.1520955 -1.394296 -0.01118686
v -0.175641 -1.344116 -0.01281318
v -0.04994493 -1.391437 0.1511309
v -0.3546531 -1.24249 -0.02214438
v -0.1207216 -1.241333 0.3356647
v -0.05886317 -1.340848 0.172747
v -0.175641 -1.344116 -0.01281318
v -0.02441129 -1.39552 -0.1549237
v -0.02967351 -1.345515 -0.1771328
v -0.1520955 -1.394296 -0.01118686
v -0.02441129 -1.39552 -0.1549237
v -0.1520955 -1.394296 -0.01118686
v 0.007774499 -1.395094 -0.002627718
v -0.1520955 -1.394296 -0.01118686
v -0.04994493 -1.391437 0.1511309
v 0.007774499 -1.395094 -0.002627718
v 0.1309792 -1.391019 0.1028779
v 0.1446223 -1.393467 -0.07984796
v 0.007774499 -1.395094 -0.002627718
v -0.04994493 -1.391437 0.1511309
v 0.1309792 -1.391019 0.1028779
v 0.007774499 -1.395094 -0.002627718
v 0.1446223 -1.393467 -0.07984796
v -0.02441129 -1.39552 -0.1549237
v 0.007774499 -1.395094 -0.002627718
v -0.01363227 -0.1085686 -0.008721475
v -0.02307396 2.199762 0.003153761
v 0.002214906 -0.1082482 0.01655373
v -0.03892013 2.199441 -0.02212154
v -0.03892013 2.199441 -0.02212154
v 0.01292737 -0.1082925 -0.01129023
v -0.01236149 2.199718 -0.0246902
v -0.01363227 -0.1085686 -0.008721475
v 0.002214906 -0.1082482 0.01655373
v -0.01236149 2.199718 -0.0246902
v 0.01292737 -0.1082925 -0.01129023
v -0.02307396 2.199762 0.003153761
v 0.01292737 -0.1082925 -0.01129023
v -0.01363227 -0.1085686 -0.008721475
v 0.002214906 -0.1082482 0.01655373
v -0.02307396 2.199762 0.003153761
v -0.03892013 2.199441 -0.02212154
v -0.01236149 2.199718 -0.0246902

vn -0.08645201 0.792218 0.6040832
vn -0.9881861 0.07588174 -0.133155
vn 0.01040664 -0.9997587 -0.01934531
vn 0.5179095 -0.03107974 0.8548707
vn -0.9881861 0.07588174 -0.133155
vn -0.9099711 -0.3962884 -0.1220993
vn 0.1802596 -0.5857332 0.7902045
vn 0.5179095 -0.03107974 0.8548707
vn 0.07008971 0.8146315 -0.5757282
vn 0.730929 -0.02546551 -0.6819783
vn -0.08645201 0.792218 0.6040832
vn 0.1802596 -0.5857332 0.7902045
vn 0.3807434 -0.5809795 -0.7193729
vn -0.9099711 -0.3962884 -0.1220993
vn 0.01040664 -0.9997587 -0.01934531
vn 0.730929 -0.02546551 -0.6819783
vn 0.07008971 0.8146315 -0.5757282
vn -0.9881861 0.07588174 -0.133155
vn 0.3807434 -0.5809795 -0.7193729
vn -0.9099711 -0.3962884 -0.1220993
vn 0.9873916 0.09136799 0.129266
vn -0.08645201 0.792218 0.6040832
vn 0.01040664 -0.9997587 -0.01934531
vn 0.9873916 0.09136799 0.129266
vn -0.7225677 -0.04080365 0.6900949
vn 0.9162859 -0.3819726 0.1204872
vn -0.3712417 -0.5900563 0.7169472
vn 0.9873916 0.09136799 0.129266
vn -0.1707579 -0.5853027 -0.7926302
vn 0.9162859 -0.3819726 0.1204872
vn -0.5270777 -0.03532683 -0.8490825
vn 0.01040664 -0.9997587 -0.01934531
vn 0.07008971 0.8146315 -0.5757282
vn -0.1707579 -0.5853027 -0.7926302
vn -0.3712417 -0.5900563 0.7169472
vn 0.9162859 -0.3819726 0.1204872
vn -0.5270777 -0.03532683 -0.8490825
vn -0.7225677 -0.04080365 0.6900949
vn 0.07008971 0.8146315 -0.5757282
vn -0.08645201 0.792218 0.6040832
vn -0.19912 0.4317358 -0.8797473
vn -0.896741 -0.4386804 -0.05843934
vn -0.1921177 -0.431262 -0.8815349
vn -0.9037433 0.4243097 -0.05665177
vn -0.6657594 -0.7443781 -0.05163122
vn -0.1421724 -0.7357215 -0.6621941
vn -0.01206603 0.9999264 -0.001316925
vn -0.9037433 0.4243097 -0.05665177
vn -0.19912 0.4317358 -0.8797473
vn 0.5239819 -0.7311959 0.4368015
vn -0.2364385 -0.7466541 0.6217754
vn -0.2411288 -0.7414501 0.6261858
vn 0.5154385 -0.7423546 0.428057
vn -0.9037433 0.4243097 -0.05665177
vn -0.3217415 -0.4375857 0.8396435
vn -0.896741 -0.4386804 -0.05843934
vn -0.3287715 0.4288252 0.8414382
vn -0.01206603 0.9999264 -0.001316925
vn -0.2411288 -0.7414501 0.6261858
vn -0.6657594 -0.7443781 -0.05163122
vn -0.01206603 0.9999264 -0.001316925
vn 0.776801 0.440467 -0.4500767
vn 0.680816 0.4383994 0.586767
vn 0.6878599 -0.4297211 0.5849688
vn 0.5916021 -0.7274312 -0.347636
vn 0.5239819 -0.7311959 0.4368015
vn 0.783831 -0.4259358 -0.4518714
vn -0.3287715 0.4288252 0.8414382
vn 0.6878599 -0.4297211 0.5849688
vn -0.3217415 -0.4375857 0.8396435
vn 0.680816 0.4383994 0.586767
vn -0.01206603 0.9999264 -0.001316925
vn 0.680816 0.4383994 0.586767
vn 0.783831 -0.4259358 -0.4518714
vn 0.6878599 -0.4297211 0.5849688
vn 0.776801 0.440467 -0.4500767
vn 0.783831 -0.4259358 -0.4518714
vn -0.1421724 -0.7357215 -0.6621941
vn 0.5916021 -0.7274312 -0.347636
vn -0.1921177 -0.431262 -0.8815349
vn 0.776801 0.440467 -0.4500767
vn -0.19912 0.4317358 -0.8797473
vn -0.01206603 0.9999264 -0.001316925
vn -0.1421724 -0.7357215 -0.6621941
vn 0.5747414 -0.7465974 -0.3350592
vn 0.5916021 -0.7274312 -0.347636
vn -0.1353464 -0.7532172 -0.6436965
vn -0.3217415 -0.4375857 0.8396435
vn 0.5239819 -0.7311959 0.4368015
vn -0.2411288 -0.7414501 0.6261858
vn 0.6878599 -0.4297211 0.5849688
vn 0.5916021 -0.7274312 -0.347636
vn 0.5154385 -0.7423546 0.428057
vn 0.5239819 -0.7311959 0.4368015
vn 0.5747414 -0.7465974 -0.3350592
vn -0.2411288 -0.7414501 0.6261858
vn -0.65567 -0.7533977 -0.04988851
vn -0.6657594 -0.7443781 -0.05163122
vn -0.2364385 -0.7466541 0.6217754
vn -0.896741 -0.4386804 -0.05843934
vn -0.3217415 -0.4375857 0.8396435
vn -0.2411288 -0.7414501 0.6261858
vn -0.6657594 -0.7443781 -0.05163122
vn -0.1353464 -0.7532172 -0.6436965
vn -0.1421724 -0.7357215 -0.6621941
vn -0.65567 -0.7533977 -0.04988851
vn -0.1353464 -0.7532172 -0.6436965
vn -0.65567 -0.7533977 -0.04988851
vn 0.005934529 -0.9998926 0.01340275
vn -0.65567 -0.7533977 -0.04988851
vn -0.2364385 -0.7466541 0.6217754
vn 0.005934529 -0.9998926 0.01340275
vn 0.5154385 -0.7423546 0.428057
vn 0.5747414 -0.7465974 -0.3350592
vn 0.005934529 -0.9998926 0.01340275
vn -0.2364385 -0.7466541 0.6217754
vn 0.5154385 -0.7423546 0.428057
vn 0.005934529 -0.9998926 0.01340275
vn 0.5747414 -0.7465974 -0.3350592
vn -0.1353464 -0.7532172 -0.6436965
vn 0.005934529 -0.9998926 0.01340275
vn -0.7391765 -0.5670499 -0.3634182
vn 0.07424978 0.5565022 0.8275217
vn 0.08632 -0.5450968 0.8339174
vn -0.7513772 0.5464604 -0.3698831
vn -0.7513772 0.5464604 -0.3698831
vn 0.6673602 -0.5524282 -0.4994533
vn 0.6551595 0.5610821 -0.5059182
vn -0.7391765 -0.5670499 -0.3634182
vn 0.08632 -0.5450968 0.8339174
vn 0.6551595 0.5610821 -0.5059182
vn 0.6673602 -0.5524282 -0.4994533
vn 0.07424978 0.5565022 0.8275217
vn 0.6673602 -0.5524282 -0.4994533
vn -0.7391765 -0.5670499 -0.3634182
vn 0.08632 -0.5450968 0.8339174
vn 0.07424978 0.5565022 0.8275217
vn -0.7513772 0.5464604 -0.3698831
vn 0.6551595 0.5610821 -0.5059182

vt 0.109504 0.899948
vt 0.125599 0.901442
vt 0.109471 0.90155
vt 0.125632 0.89984
vt 0.125599 0.901442
vt 0.137579 0.90826
vt 0.137612 0.906659
vt 0.125632 0.89984
vt 0.109504 0.899948
vt 0.125632 0.89984
vt 0.109504 0.899948
vt 0.137612 0.906659
vt 0.137612 0.906659
vt 0.137579 0.90826
vt 0.109471 0.90155
vt 0.125632 0.89984
vt 0.109504 0.899948
vt 0.125599 0.901442
vt 0.137612 0.906659
vt 0.137579 0.90826
vt 0.125288 0.916603
vt 0.109127 0.918313
vt 0.10916 0.916711
vt 0.125288 0.916603
vt 0.125255 0.918205
vt 0.137538 0.910281
vt 0.137505 0.911883
vt 0.125288 0.916603
vt 0.137505 0.911883
vt 0.137538 0.910281
vt 0.125255 0.918205
vt 0.10916 0.916711
vt 0.109127 0.918313
vt 0.137505 0.911883
vt 0.137505 0.911883
vt 0.137538 0.910281
vt 0.125255 0.918205
vt 0.125255 0.918205
vt 0.109127 0.918313
vt 0.109127 0.918313
vt 0.437684 0.993165
vt 0.206512 0.757814
vt 0.206512 0.993165
vt 0.437684 0.757814
vt 0.10828 0.815908
vt 0.105494 0.933424
vt 0.636665 0.87549
vt 0.437684 0.757814
vt 0.437684 0.993165
vt 0.109606 0.815124
vt 0.110859 0.936597
vt 0.110859 0.936597
vt 0.109606 0.815124
vt 0.437684 0.993165
vt 0.206512 0.757814
vt 0.206512 0.993165
vt 0.437684 0.757814
vt 0.636665 0.87549
vt 0.110859 0.814382
vt 0.10828 0.935072
vt 0.636665 0.87549
vt 0.437684 0.757814
vt 0.437684 0.993165
vt 0.206512 0.993165
vt 0.106406 0.817016
vt 0.109606 0.935856
vt 0.206512 0.757814
vt 0.437684 0.993165
vt 0.206512 0.757814
vt 0.206512 0.993165
vt 0.437684 0.757814
vt 0.636665 0.87549
vt 0.437684 0.993165
vt 0.206512 0.757814
vt 0.206512 0.993165
vt 0.437684 0.757814
vt 0.206512 0.993165
vt 0.105494 0.817555
vt 0.106406 0.933964
vt 0.206512 0.757814
vt 0.437684 0.993165
vt 0.437684 0.757814
vt 0.636665 0.87549
vt 0.105494 0.817555
vt 0.106406 0.933964
vt 0.106406 0.933964
vt 0.105494 0.817555
vt 0.206512 0.993165
vt 0.109606 0.815124
vt 0.110859 0.936597
vt 0.206512 0.757814
vt 0.106406 0.817016
vt 0.109606 0.935856
vt 0.109606 0.935856
vt 0.106406 0.817016
vt 0.110859 0.814382
vt 0.10828 0.935072
vt 0.10828 0.935072
vt 0.110859 0.814382
vt 0.206512 0.993165
vt 0.206512 0.757814
vt 0.110859 0.814382
vt 0.10828 0.815908
vt 0.105494 0.933424
vt 0.105494 0.933424
vt 0.10828 0.815908
vt 0.105494 0.933424
vt 0.10828 0.815908
vt 0.007531 0.87549
vt 0.10828 0.935072
vt 0.110859 0.814382
vt 0.007531 0.87549
vt 0.109606 0.935856
vt 0.106406 0.817016
vt 0.007531 0.87549
vt 0.110859 0.936597
vt 0.109606 0.815124
vt 0.007531 0.87549
vt 0.106406 0.933964
vt 0.105494 0.817555
vt 0.007531 0.87549
vt 0.194091 0.861009
vt 0.226117 0.862276
vt 0.194104 0.863055
vt 0.226103 0.86023
vt 0.226103 0.86023
vt 0.193532 0.861757
vt 0.225545 0.860976
vt 0.194091 0.861009
vt 0.194104 0.863055
vt 0.225545 0.860976
vt 0.193532 0.861757
vt 0.226117 0.862276
vt 0.193532 0.861757
vt 0.194091 0.861009
vt 0.194104 0.863055
vt 0.226117 0.862276
vt 0.226103 0.86023
vt 0.225545 0.860976

vt1 0.30438 0.9671984
vt1 0.4812261 0.8726596
vt1 0.3485152 0.9570601
vt1 0.4780176 0.8626465
vt1 0.4812261 0.8726596
vt1 0.559922 0.8797399
vt1 0.5544448 0.8626465
vt1 0.09632164 0.8867449
vt1 0.3004523 0.9000936
vt1 0.0963095 0.8961494
vt1 0.2989775 0.8833212
vt1 0.01997118 0.8833212
vt1 0.01995044 0.8993758
vt1 0.00390625 0.8913277
vt1 0.2297454 0.9962385
vt1 0.07569092 0.9520723
vt1 0.2762108 0.9905638
vt1 0.07611401 0.9625784
vt1 0.00390625 0.9783035
vt1 0.004628504 0.9962385
vt1 0.5047544 0.9750863
vt1 0.30438 0.9671984
vt1 0.3485152 0.9570601
vt1 0.5047544 0.9750863
vt1 0.5062371 0.9854958
vt1 0.5724718 0.9343735
vt1 0.5750031 0.9521437
vt1 0.07611401 0.9376599
vt1 0.00390625 0.9219348
vt1 0.004628503 0.9039998
vt1 0.07569093 0.948166
vt1 0.2297454 0.9039998
vt1 0.2762108 0.9096745
vt1 0.01997098 0.8626465
vt1 0.01995064 0.878701
vt1 0.00390625 0.8706534
vt1 0.09632153 0.8660682
vt1 0.09630962 0.8754727
vt1 0.3004737 0.8626465
vt1 0.2989561 0.879415
vt1 0.08516797 0.00390625
vt1 0.1935133 0.2694449
vt1 0.00390625 0.1837914
vt1 0.274775 0.08955974
vt1 0.1136077 0.334903
vt1 0.01369966 0.2811634
vt1 0.7337231 0.6540684
vt1 0.7487273 0.8587402
vt1 0.557018 0.7584284
vt1 0.1830831 0.5417199
vt1 0.1042942 0.6009238
vt1 0.08918417 0.5814979
vt1 0.1818189 0.5676729
vt1 0.274775 0.08955974
vt1 0.3777025 0.3526509
vt1 0.1935133 0.2694449
vt1 0.4359773 0.1810355
vt1 0.4734135 0.00390625
vt1 0.1406922 0.4449229
vt1 0.1136077 0.334903
vt1 0.7337231 0.6540684
vt1 0.5578559 0.5482451
vt1 0.7358786 0.4488291
vt1 0.1855997 0.4488291
vt1 0.2648584 0.597537
vt1 0.1830831 0.5417199
vt1 0.3525844 0.5474271
vt1 0.4359773 0.1810355
vt1 0.5967619 0.3890808
vt1 0.3777025 0.3526509
vt1 0.6153132 0.1665048
vt1 0.4734135 0.00390625
vt1 0.6153132 0.1665048
vt1 0.8178497 0.407508
vt1 0.5967619 0.3890808
vt1 0.836401 0.1849321
vt1 0.3525844 0.5474271
vt1 0.2624634 0.7039143
vt1 0.2648584 0.597537
vt1 0.3517465 0.7576098
vt1 0.5578559 0.5482451
vt1 0.557018 0.7584284
vt1 0.7337231 0.6540684
vt1 0.2624634 0.7039143
vt1 0.2399938 0.6109827
vt1 0.2648584 0.597537
vt1 0.2334489 0.6961154
vt1 0.01661848 0.5312786
vt1 0.1830831 0.5417199
vt1 0.08918417 0.5814979
vt1 0.1855997 0.4488291
vt1 0.2648584 0.597537
vt1 0.1818189 0.5676729
vt1 0.1830831 0.5417199
vt1 0.2399938 0.6109827
vt1 0.1406922 0.4449229
vt1 0.08970278 0.3528724
vt1 0.1136077 0.334903
vt1 0.1131637 0.444669
vt1 0.00390625 0.7188393
vt1 0.01661848 0.5312786
vt1 0.08918417 0.5814979
vt1 0.1136077 0.334903
vt1 0.007031721 0.3057372
vt1 0.01369966 0.2811634
vt1 0.08970278 0.3528724
vt1 0.2334489 0.6961154
vt1 0.1284785 0.7017415
vt1 0.1785477 0.6372508
vt1 0.1284785 0.7017415
vt1 0.1042942 0.6009238
vt1 0.1785477 0.6372508
vt1 0.1818189 0.5676729
vt1 0.2399938 0.6109827
vt1 0.1785477 0.6372508
vt1 0.1042942 0.6009238
vt1 0.1818189 0.5676729
vt1 0.1785477 0.6372508
vt1 0.2399938 0.6109827
vt1 0.2334489 0.6961154
vt1 0.1785477 0.6372508
vt1 0.00390625 0.06753237
vt1 0.9978803 0.1272522
vt1 0.003906304 0.1272531
vt1 0.9978803 0.06753237
vt1 0.00390625 0.1311614
vt1 0.9978803 0.1845765
vt1 0.00390625 0.1845765
vt1 0.9978803 0.1311594
vt1 0.9978803 0.06362612
vt1 0.00390625 0.00390625
vt1 0.9978803 0.00390625
vt1 0.00390625 0.06362612
vt1 0.00390625 0.1884827
vt1 0.05732333 0.1884827
vt1 0.03061379 0.2418978
vt1 0.03061379 0.2992191
vt1 0.00390625 0.245804
vt1 0.05732132 0.245804

vt2 0.30438 0.9671984
vt2 0.4812261 0.8726596
vt2 0.3485152 0.9570601
vt2 0.4780176 0.8626465
vt2 0.4812261 0.8726596
vt2 0.559922 0.8797399
vt2 0.5544448 0.8626465
vt2 0.09632164 0.8867449
vt2 0.3004523 0.9000936
vt2 0.0963095 0.8961494
vt2 0.2989775 0.8833212
vt2 0.01997118 0.8833212
vt2 0.01995044 0.8993758
vt2 0.00390625 0.8913277
vt2 0.2297454 0.9962385
vt2 0.07569092 0.9520723
vt2 0.2762108 0.9905638
vt2 0.07611401 0.9625784
vt2 0.00390625 0.9783035
vt2 0.004628504 0.9962385
vt2 0.5047544 0.9750863
vt2 0.30438 0.9671984
vt2 0.3485152 0.9570601
vt2 0.5047544 0.9750863
vt2 0.5062371 0.9854958
vt2 0.5724718 0.9343735
vt2 0.5750031 0.9521437
vt2 0.07611401 0.9376599
vt2 0.00390625 0.9219348
vt2 0.004628503 0.9039998
vt2 0.07569093 0.948166
vt2 0.2297454 0.9039998
vt2 0.2762108 0.9096745
vt2 0.01997098 0.8626465
vt2 0.01995064 0.878701
vt2 0.00390625 0.8706534
vt2 0.09632153 0.8660682
vt2 0.09630962 0.8754727
vt2 0.3004737 0.8626465
vt2 0.2989561 0.879415
vt2 0.08516797 0.00390625
vt2 0.1935133 0.2694449
vt2 0.00390625 0.1837914
vt2 0.274775 0.08955974
vt2 0.1136077 0.334903
vt2 0.01369966 0.2811634
vt2 0.7337231 0.6540684
vt2 0.7487273 0.8587402
vt2 0.557018 0.7584284
vt2 0.1830831 0.5417199
vt2 0.1042942 0.6009238
vt2 0.08918417 0.5814979
vt2 0.1818189 0.5676729
vt2 0.274775 0.08955974
vt2 0.3777025 0.3526509
vt2 0.1935133 0.2694449
vt2 0.4359773 0.1810355
vt2 0.4734135 0.00390625
vt2 0.1406922 0.4449229
vt2 0.1136077 0.334903
vt2 0.7337231 0.6540684
vt2 0.5578559 0.5482451
vt2 0.7358786 0.4488291
vt2 0.1855997 0.4488291
vt2 0.2648584 0.597537
vt2 0.1830831 0.5417199
vt2 0.3525844 0.5474271
vt2 0.4359773 0.1810355
vt2 0.5967619 0.3890808
vt2 0.3777025 0.3526509
vt2 0.6153132 0.1665048
vt2 0.4734135 0.00390625
vt2 0.6153132 0.1665048
vt2 0.8178497 0.407508
vt2 0.5967619 0.3890808
vt2 0.836401 0.1849321
vt2 0.3525844 0.5474271
vt2 0.2624634 0.7039143
vt2 0.2648584 0.597537
vt2 0.3517465 0.7576098
vt2 0.5578559 0.5482451
vt2 0.557018 0.7584284
vt2 0.7337231 0.6540684
vt2 0.2624634 0.7039143
vt2 0.2399938 0.6109827
vt2 0.2648584 0.597537
vt2 0.2334489 0.6961154
vt2 0.01661848 0.5312786
vt2 0.1830831 0.5417199
vt2 0.08918417 0.5814979
vt2 0.1855997 0.4488291
vt2 0.2648584 0.597537
vt2 0.1818189 0.5676729
vt2 0.1830831 0.5417199
vt2 0.2399938 0.6109827
vt2 0.1406922 0.4449229
vt2 0.08970278 0.3528724
vt2 0.1136077 0.334903
vt2 0.1131637 0.444669
vt2 0.00390625 0.7188393
vt2 0.01661848 0.5312786
vt2 0.08918417 0.5814979
vt2 0.1136077 0.334903
vt2 0.007031721 0.3057372
vt2 0.01369966 0.2811634
vt2 0.08970278 0.3528724
vt2 0.2334489 0.6961154
vt2 0.1284785 0.7017415
vt2 0.1785477 0.6372508
vt2 0.1284785 0.7017415
vt2 0.1042942 0.6009238
vt2 0.1785477 0.6372508
vt2 0.1818189 0.5676729
vt2 0.2399938 0.6109827
vt2 0.1785477 0.6372508
vt2 0.1042942 0.6009238
vt2 0.1818189 0.5676729
vt2 0.1785477 0.6372508
vt2 0.2399938 0.6109827
vt2 0.2334489 0.6961154
vt2 0.1785477 0.6372508
vt2 0.00390625 0.06753237
vt2 0.9978803 0.1272522
vt2 0.003906304 0.1272531
vt2 0.9978803 0.06753237
vt2 0.00390625 0.1311614
vt2 0.9978803 0.1845765
vt2 0.00390625 0.1845765
vt2 0.9978803 0.1311594
vt2 0.9978803 0.06362612
vt2 0.00390625 0.00390625
vt2 0.9978803 0.00390625
vt2 0.00390625 0.06362612
vt2 0.00390625 0.1884827
vt2 0.05732333 0.1884827
vt2 0.03061379 0.2418978
vt2 0.03061379 0.2992191
vt2 0.00390625 0.245804
vt2 0.05732132 0.245804


usemtl MEP_House_Props_01
usemap MEP_House_Props_01
f 1/1/1 3/3/3 2/2/2
f 21/21/21 23/23/23 22/22/22
f 47/47/47 49/49/49 48/48/48
f 56/56/56 60/60/60 59/59/59
f 61/61/61 63/63/63 62/62/62
f 100/100/100 102/102/102 101/101/101
f 107/107/107 109/109/109 108/108/108
f 110/110/110 112/112/112 111/111/111
f 113/113/113 115/115/115 114/114/114
f 116/116/116 118/118/118 117/117/117
f 119/119/119 121/121/121 120/120/120
f 134/134/134 136/136/136 135/135/135
f 137/137/137 139/139/139 138/138/138
f 6/6/6 7/7/7 4/4/4
f 6/6/6 4/4/4 5/5/5
f 5/5/5 4/4/4 1/1/1
f 9/9/9 11/11/11 8/8/8
f 9/9/9 8/8/8 10/10/10
f 10/10/10 8/8/8 12/12/12
f 10/10/10 12/12/12 13/13/13
f 13/13/13 12/12/12 14/14/14
f 19/19/19 20/20/20 18/18/18
f 19/19/19 18/18/18 16/16/16
f 16/16/16 18/18/18 15/15/15
f 16/16/16 15/15/15 17/17/17
f 24/24/24 22/22/22 25/25/25
f 24/24/24 25/25/25 26/26/26
f 26/26/26 25/25/25 27/27/27
f 33/33/33 32/32/32 31/31/31
f 31/31/31 32/32/32 28/28/28
f 31/31/31 28/28/28 29/29/29
f 29/29/29 28/28/28 30/30/30
f 34/34/34 36/36/36 35/35/35
f 34/34/34 35/35/35 37/37/37
f 37/37/37 35/35/35 38/38/38
f 37/37/37 38/38/38 39/39/39
f 39/39/39 38/38/38 40/40/40
f 46/46/46 45/45/45 43/43/43
f 43/43/43 45/45/45 42/42/42
f 43/43/43 42/42/42 41/41/41
f 41/41/41 42/42/42 44/44/44
f 50/50/50 52/52/52 51/51/51
f 50/50/50 51/51/51 53/53/53
f 57/57/57 58/58/58 54/54/54
f 57/57/57 54/54/54 55/55/55
f 55/55/55 54/54/54 56/56/56
f 64/64/64 66/66/66 65/65/65
f 64/64/64 65/65/65 67/67/67
f 71/71/71 72/72/72 68/68/68
f 71/71/71 68/68/68 69/69/69
f 69/69/69 68/68/68 70/70/70
f 73/73/73 75/75/75 74/74/74
f 73/73/73 74/74/74 76/76/76
f 82/82/82 83/83/83 81/81/81
f 82/82/82 81/81/81 80/80/80
f 80/80/80 81/81/81 77/77/77
f 80/80/80 77/77/77 78/78/78
f 78/78/78 77/77/77 79/79/79
f 84/84/84 86/86/86 85/85/85
f 84/84/84 85/85/85 87/87/87
f 88/88/88 90/90/90 89/89/89
f 88/88/88 89/89/89 91/91/91
f 92/92/92 94/94/94 93/93/93
f 92/92/92 93/93/93 95/95/95
f 96/96/96 98/98/98 97/97/97
f 96/96/96 97/97/97 99/99/99
f 103/103/103 105/105/105 104/104/104
f 103/103/103 104/104/104 106/106/106
f 122/122/122 124/124/124 123/123/123
f 122/122/122 123/123/123 125/125/125
f 126/126/126 128/128/128 127/127/127
f 126/126/126 127/127/127 129/129/129
f 130/130/130 132/132/132 131/131/131
f 130/130/130 131/131/131 133/133/133

