g NewMesh_tris_40
v -1.308733 -1.698231 -1.041785
v -1.285683 -3.245481 -1.117068
v -1.315631 -3.393597 -1.008445
v -1.126044 -3.187222 -1.121731
v -1.405099 -3.396387 -0.9899906
v -1.018169 -1.698231 -1.192169
v -0.9781762 -2.944846 -1.261145
v -0.727605 -1.698231 -1.342553
v -0.7851706 -2.854575 -1.250157
v -0.6759959 -2.754276 -1.401314
v -1.308733 -1.698231 -1.041785
v -1.315631 -3.393597 -1.008445
v -1.285683 -3.245481 -1.117068
v -1.126044 -3.187222 -1.121731
v -1.405099 -3.396387 -0.9899906
v -1.018169 -1.698231 -1.192169
v -0.9781762 -2.944846 -1.261145
v -0.727605 -1.698231 -1.342553
v -0.7851706 -2.854575 -1.250157
v -0.6759959 -2.754276 -1.401314
v -0.1225015 -1.976359 0.07893902
v 0.1212988 0.04301566 -0.04827842
v 0.004446448 -2.605444 0.07432203
v -0.3726029 0.04301566 0.2094445
v 0.2171972 -2.067092 -0.133247
v 0.4047098 -1.310978 -0.1479146
v 0.3849205 0.04301566 -0.1858389
v -0.353564 -1.286783 0.2459307
v -0.1225015 -1.976359 0.07893902
v 0.004446448 -2.605444 0.07432203
v 0.1212988 0.04301566 -0.04827842
v -0.3726029 0.04301566 0.2094445
v 0.2171972 -2.067092 -0.133247
v 0.4047098 -1.310978 -0.1479146
v 0.3849205 0.04301566 -0.1858389
v -0.353564 -1.286783 0.2459307
v 4.554488 -0.5200664 2.304562
v 4.76664 0.8836846 2.356183
v 4.632707 -0.9573695 2.368239
v 4.336852 0.8836846 2.251608
v 4.868368 -0.5831384 2.355631
v 4.988011 -0.05753263 2.445001
v 4.99604 0.8836846 2.411999
v 4.329127 -0.04071368 2.283358
v 4.554488 -0.5200664 2.304562
v 4.632707 -0.9573695 2.368239
v 4.76664 0.8836846 2.356183
v 4.336852 0.8836846 2.251608
v 4.868368 -0.5831384 2.355631
v 4.988011 -0.05753263 2.445001
v 4.99604 0.8836846 2.411999
v 4.329127 -0.04071368 2.283358

vn 0.4563861 0.004669392 0.8897697
vn 0.8077142 -0.01324536 0.5894254
vn 0.4360592 0.01266557 0.8998288
vn 0.2150774 -0.03155702 0.976087
vn 0.2014593 0.01467978 0.9793869
vn 0.4692701 -0.01049845 0.8829923
vn 0.5261889 0.005890169 0.8503473
vn 0.4568028 -0.0183113 0.8893795
vn 0.1938862 0.0546909 0.9794983
vn 0.808513 0.005371344 0.5884538
vn -0.4563861 -0.004669392 -0.8897697
vn -0.4360592 -0.01266557 -0.8998288
vn -0.8077142 0.01324536 -0.5894254
vn -0.2150774 0.03155702 -0.976087
vn -0.2014593 -0.01467978 -0.9793869
vn -0.4692701 0.01049845 -0.8829923
vn -0.5261889 -0.005890169 -0.8503473
vn -0.4568028 0.0183113 -0.8893795
vn -0.1938862 -0.0546909 -0.9794983
vn -0.808513 -0.005371344 -0.5884538
vn 0.3196874 0.06897267 0.9450093
vn 0.4450584 0.02322522 0.8952004
vn 0.5096474 0.04123154 0.8593948
vn 0.5021881 0.01504597 0.8646275
vn 0.5934125 -0.01294002 0.8047945
vn 0.2490114 -0.04544275 0.9674339
vn 0.4613087 0.07510708 0.884055
vn 0.6417401 0.07184251 0.7635498
vn -0.3196874 -0.06897267 -0.9450093
vn -0.5096474 -0.04123154 -0.8593948
vn -0.4450584 -0.02322522 -0.8952004
vn -0.5021881 -0.01504597 -0.8646275
vn -0.5934125 0.01294002 -0.8047945
vn -0.2490114 0.04544275 -0.9674339
vn -0.4613087 -0.07510708 -0.884055
vn -0.6417401 -0.07184251 -0.7635498
vn -0.3824331 0.06897267 0.9214052
vn -0.2553181 0.02322522 0.9665782
vn -0.1831442 0.04123154 0.982221
vn -0.1922028 0.01504597 0.9812399
vn -0.08416118 -0.01294002 0.9963682
vn -0.4503654 -0.04544275 0.8916872
vn -0.235751 0.07510708 0.9689068
vn -0.02063169 0.07184251 0.9972026
vn 0.3824331 -0.06897267 -0.9214052
vn 0.1831442 -0.04123154 -0.982221
vn 0.2553181 -0.02322522 -0.9665782
vn 0.1922028 -0.01504597 -0.9812399
vn 0.08416118 0.01294002 -0.9963682
vn 0.4503654 0.04544275 -0.8916872
vn 0.235751 -0.07510708 -0.9689068
vn 0.02063169 -0.07184251 -0.9972026

vt 0.995285 0.988714
vt 0.918914 0.22334
vt 0.961502 0.149652
vt 0.859861 0.253755
vt 0.995479 0.148737
vt 0.821127 0.991548
vt 0.785872 0.374726
vt 0.641011 0.99275
vt 0.712975 0.419221
vt 0.642067 0.47186
vt 0.995285 0.988714
vt 0.961502 0.149652
vt 0.918914 0.22334
vt 0.859861 0.253755
vt 0.995479 0.148737
vt 0.821127 0.991548
vt 0.785872 0.374726
vt 0.641011 0.99275
vt 0.712975 0.419221
vt 0.642067 0.47186
vt 0.609957 0.340976
vt 0.770891 0.003531
vt 0.650504 0.448369
vt 0.512793 0.002627
vt 0.801869 0.321676
vt 0.894025 0.211421
vt 0.903011 0.003538
vt 0.516624 0.186201
vt 0.609957 0.340976
vt 0.650504 0.448369
vt 0.770891 0.003531
vt 0.512793 0.002627
vt 0.801869 0.321676
vt 0.894025 0.211421
vt 0.903011 0.003538
vt 0.516624 0.186201
vt 0.609957 0.340976
vt 0.770891 0.003531
vt 0.650504 0.448369
vt 0.512793 0.002627
vt 0.801869 0.321676
vt 0.894025 0.211421
vt 0.903011 0.003538
vt 0.516624 0.186201
vt 0.609957 0.340976
vt 0.650504 0.448369
vt 0.770891 0.003531
vt 0.512793 0.002627
vt 0.801869 0.321676
vt 0.894025 0.211421
vt 0.903011 0.003538
vt 0.516624 0.186201

vt1 0.02795047 0.4014968
vt1 0.9015293 0.3144495
vt1 0.9883474 0.3603441
vt1 0.8624243 0.2453834
vt1 0.9919556 0.4014968
vt1 0.01630911 0.2541105
vt1 0.7182786 0.1645292
vt1 0.00390625 0.1067863
vt1 0.6608173 0.08117039
vt1 0.5947626 0.00390625
vt1 0.9679114 0.8029935
vt1 0.007514504 0.7618409
vt1 0.09433261 0.7159463
vt1 0.1334376 0.6468801
vt1 0.00390625 0.8029935
vt1 0.9795527 0.6556073
vt1 0.2775832 0.566026
vt1 0.9919556 0.5082831
vt1 0.3350446 0.4826672
vt1 0.4010993 0.405403
vt1 0.4806048 0.3375834
vt1 0.007632463 0.1777334
vt1 0.6306657 0.2709688
vt1 0.00390625 0.49009
vt1 0.5036308 0.1046414
vt1 0.3231134 0.00390625
vt1 0.00390625 0.01104178
vt1 0.3173893 0.496352
vt1 0.1539672 0.8339354
vt1 0.00390625 0.7673209
vt1 0.6269395 0.6740854
vt1 0.6306657 0.986442
vt1 0.1309412 0.6009934
vt1 0.3114586 0.5002583
vt1 0.6306657 0.5073938
vt1 0.3171827 0.992704
vt1 0.4806048 0.3375834
vt1 0.007632463 0.1777334
vt1 0.6306657 0.2709688
vt1 0.00390625 0.49009
vt1 0.5036308 0.1046414
vt1 0.3231134 0.00390625
vt1 0.00390625 0.01104178
vt1 0.3173893 0.496352
vt1 0.1539672 0.8339354
vt1 0.00390625 0.7673209
vt1 0.6269395 0.6740854
vt1 0.6306657 0.986442
vt1 0.1309412 0.6009934
vt1 0.3114586 0.5002583
vt1 0.6306657 0.5073938
vt1 0.3171827 0.992704

vt2 0.02795047 0.4014968
vt2 0.9015293 0.3144495
vt2 0.9883474 0.3603441
vt2 0.8624243 0.2453834
vt2 0.9919556 0.4014968
vt2 0.01630911 0.2541105
vt2 0.7182786 0.1645292
vt2 0.00390625 0.1067863
vt2 0.6608173 0.08117039
vt2 0.5947626 0.00390625
vt2 0.9679114 0.8029935
vt2 0.007514504 0.7618409
vt2 0.09433261 0.7159463
vt2 0.1334376 0.6468801
vt2 0.00390625 0.8029935
vt2 0.9795527 0.6556073
vt2 0.2775832 0.566026
vt2 0.9919556 0.5082831
vt2 0.3350446 0.4826672
vt2 0.4010993 0.405403
vt2 0.4806048 0.3375834
vt2 0.007632463 0.1777334
vt2 0.6306657 0.2709688
vt2 0.00390625 0.49009
vt2 0.5036308 0.1046414
vt2 0.3231134 0.00390625
vt2 0.00390625 0.01104178
vt2 0.3173893 0.496352
vt2 0.1539672 0.8339354
vt2 0.00390625 0.7673209
vt2 0.6269395 0.6740854
vt2 0.6306657 0.986442
vt2 0.1309412 0.6009934
vt2 0.3114586 0.5002583
vt2 0.6306657 0.5073938
vt2 0.3171827 0.992704
vt2 0.4806048 0.3375834
vt2 0.007632463 0.1777334
vt2 0.6306657 0.2709688
vt2 0.00390625 0.49009
vt2 0.5036308 0.1046414
vt2 0.3231134 0.00390625
vt2 0.00390625 0.01104178
vt2 0.3173893 0.496352
vt2 0.1539672 0.8339354
vt2 0.00390625 0.7673209
vt2 0.6269395 0.6740854
vt2 0.6306657 0.986442
vt2 0.1309412 0.6009934
vt2 0.3114586 0.5002583
vt2 0.6306657 0.5073938
vt2 0.3171827 0.992704


usemtl MEP_House_Props_01
usemap MEP_House_Props_01
f 2/2/2 4/4/4 1/1/1
f 2/2/2 1/1/1 3/3/3
f 3/3/3 1/1/1 5/5/5
f 9/9/9 10/10/10 8/8/8
f 9/9/9 8/8/8 7/7/7
f 7/7/7 8/8/8 6/6/6
f 7/7/7 6/6/6 4/4/4
f 4/4/4 6/6/6 1/1/1
f 12/12/12 15/15/15 11/11/11
f 12/12/12 11/11/11 13/13/13
f 13/13/13 11/11/11 14/14/14
f 14/14/14 11/11/11 16/16/16
f 14/14/14 16/16/16 17/17/17
f 17/17/17 16/16/16 18/18/18
f 17/17/17 18/18/18 19/19/19
f 19/19/19 18/18/18 20/20/20
f 26/26/26 27/27/27 22/22/22
f 26/26/26 22/22/22 25/25/25
f 25/25/25 22/22/22 23/23/23
f 24/24/24 28/28/28 21/21/21
f 24/24/24 21/21/21 22/22/22
f 22/22/22 21/21/21 23/23/23
f 33/33/33 30/30/30 31/31/31
f 33/33/33 31/31/31 34/34/34
f 34/34/34 31/31/31 35/35/35
f 31/31/31 30/30/30 29/29/29
f 31/31/31 29/29/29 32/32/32
f 32/32/32 29/29/29 36/36/36
f 42/42/42 43/43/43 38/38/38
f 42/42/42 38/38/38 41/41/41
f 41/41/41 38/38/38 39/39/39
f 40/40/40 44/44/44 37/37/37
f 40/40/40 37/37/37 38/38/38
f 38/38/38 37/37/37 39/39/39
f 49/49/49 46/46/46 47/47/47
f 49/49/49 47/47/47 50/50/50
f 50/50/50 47/47/47 51/51/51
f 47/47/47 46/46/46 45/45/45
f 47/47/47 45/45/45 48/48/48
f 48/48/48 45/45/45 52/52/52

