g NewMesh_tris_118
v -0.01363227 -0.1085686 -0.008721475
v -0.02307396 2.199762 0.003153761
v 0.002214906 -0.1082482 0.01655373
v -0.03892013 2.199441 -0.02212154
v -0.03892013 2.199441 -0.02212154
v 0.01292737 -0.1082925 -0.01129023
v -0.01236149 2.199718 -0.0246902
v -0.01363227 -0.1085686 -0.008721475
v 0.002214906 -0.1082482 0.01655373
v -0.01236149 2.199718 -0.0246902
v 0.01292737 -0.1082925 -0.01129023
v -0.02307396 2.199762 0.003153761
v 0.01292737 -0.1082925 -0.01129023
v -0.01363227 -0.1085686 -0.008721475
v 0.002214906 -0.1082482 0.01655373
v -0.02307396 2.199762 0.003153761
v -0.03892013 2.199441 -0.02212154
v -0.01236149 2.199718 -0.0246902
v 1.931848 -1.317367 2.388967
v 1.910653 -3.258529 2.31314
v 1.944021 -3.444354 2.420762
v 2.042567 -3.185439 2.223112
v 1.878635 -3.447854 2.484557
v 2.095415 -1.317367 2.105614
v 2.09189 -2.881356 2.025961
v 2.258982 -1.317367 1.822262
v 2.260342 -2.768104 1.931116
v 2.270749 -2.642268 1.744946
v 0.4688689 0.5427145 0.867316
v 0.4731179 -1.82579 0.7883221
v 0.5761129 -2.054229 0.870589
v 0.3148319 -1.732199 0.905066
v 0.6757089 -2.060183 0.8207381
v 0.2051749 0.5471915 0.9179101
v 0.1639509 -1.425353 0.8744731
v 0.04985881 0.5546576 0.9481781
v 0.07800889 -1.308018 1.00836
v -0.03882504 -1.188981 0.922019
v 0.8574909 -2.967401 -2.625223
v 1.046646 -1.321476 -2.504977
v 0.9124849 -3.480145 -2.537496
v 0.6634469 -1.321476 -2.748576
v 1.145705 -3.041353 -2.471913
v 1.232476 -2.425071 -2.345531
v 1.25118 -1.321476 -2.374955
v 0.6454509 -2.40535 -2.720268
v -0.005250216 -0.1025045 0.01677608
v 0.09182692 -0.506805 0.01085997
v -0.002213001 -0.1947305 -0.0006458759
v 0.1098748 -0.5066838 0.02309418
v 0.02233982 -0.6548728 0.001165152
v 0.05314898 -0.6546661 0.02205014
v -0.0006990433 -0.09917843 -0.01767993
v 0.1124419 -0.506623 0.003762007
v 0.05753183 -0.6545622 -0.010952
v -0.09117603 -0.5082395 -0.01344895
v -0.1117921 -0.5084214 -0.00635004
v -0.01929522 -0.6551992 -0.004364967
v -0.05448818 -0.6555099 0.00775218
v -0.05010509 -0.6554059 -0.02524996
v -0.1092241 -0.5083606 -0.02568293
v -0.07186604 -0.8219841 -0.3555799
v -0.3546531 -1.24249 -0.02214384
v -0.06847906 -1.239475 -0.3564448
v -0.3580401 -0.8249986 -0.02128005
v -0.1756411 -1.344116 -0.01281285
v -0.0296731 -1.345515 -0.1771328
v 0.001183987 -0.6133635 -0.001513958
v 0.1479689 -1.34037 0.1175841
v -0.04994512 -1.391437 0.151131
v -0.05886316 -1.340848 0.172747
v 0.1309789 -1.391019 0.1028781
v -0.1207211 -1.241333 0.3356651
v -0.124109 -0.8238417 0.3365281
v 0.3177179 -0.8191876 -0.179601
v 0.2774999 -0.8203689 0.233157
v 0.2808878 -1.23786 0.232293
v 0.1635638 -1.343168 -0.09130692
v 0.3211058 -1.236679 -0.1804659
v 0.1446218 -1.393467 -0.07984805
v -0.0244112 -1.39552 -0.1549239
v -0.1520951 -1.394296 -0.01118684
v 0.00777483 -1.395094 -0.00262785
v -0.005250216 -0.1025045 0.01677608
v -0.002213001 -0.1947305 -0.0006458759
v -0.1520951 -1.394296 -0.01118684
v -0.04994512 -1.391437 0.151131
v 0.1309789 -1.391019 0.1028781
v 0.1446218 -1.393467 -0.07984805
v -0.0244112 -1.39552 -0.1549239
v -0.0006990433 -0.09917843 -0.01767993
v -0.1756411 -1.344116 -0.01281285
v -0.3546531 -1.24249 -0.02214384
v -0.05886316 -1.340848 0.172747
v -0.3580401 -0.8249986 -0.02128005
v 0.1479689 -1.34037 0.1175841
v 0.2774999 -0.8203689 0.233157
v -0.124109 -0.8238417 0.3365281
v 0.2808878 -1.23786 0.232293
v -0.1207211 -1.241333 0.3356651
v -0.07186604 -0.8219841 -0.3555799
v 0.3177179 -0.8191876 -0.179601
v -0.06847906 -1.239475 -0.3564448
v 0.3211058 -1.236679 -0.1804659
v -0.0296731 -1.345515 -0.1771328
v 0.1635638 -1.343168 -0.09130692
v -0.03882504 -1.188981 0.922019
v 0.04985881 0.5546576 0.9481781
v 0.07800889 -1.308018 1.00836
v 0.001183987 -0.6133635 -0.001513958
v 0.00777483 -1.395094 -0.00262785
v 0.00777483 -1.395094 -0.00262785
v 0.00777483 -1.395094 -0.00262785
v 0.00777483 -1.395094 -0.00262785
v 1.944021 -3.444354 2.420762
v 1.931848 -1.317367 2.388967
v 1.878635 -3.447854 2.484557
v 1.910653 -3.258529 2.31314
v 2.042567 -3.185439 2.223112
v 2.095415 -1.317367 2.105614
v 2.09189 -2.881356 2.025961
v 2.258982 -1.317367 1.822262
v 2.260342 -2.768104 1.931116
v 2.270749 -2.642268 1.744946
v 0.07800889 -1.308018 1.00836
v 0.5761129 -2.054229 0.870589
v 0.4688689 0.5427145 0.867316
v 0.6757089 -2.060183 0.8207381
v 0.4731179 -1.82579 0.7883221
v 0.3148319 -1.732199 0.905066
v 0.2051749 0.5471915 0.9179101
v 0.1639509 -1.425353 0.8744731
v 0.07800889 -1.308018 1.00836
v 1.145705 -3.041353 -2.471913
v 1.046646 -1.321476 -2.504977
v 0.9124849 -3.480145 -2.537496
v 1.232476 -2.425071 -2.345531
v 1.25118 -1.321476 -2.374955
v 0.8574909 -2.967401 -2.625223
v 0.6634469 -1.321476 -2.748576
v 0.6454509 -2.40535 -2.720268
v 0.09182692 -0.506805 0.01085997
v 0.1098748 -0.5066838 0.02309418
v -0.005250216 -0.1025045 0.01677608
v 0.05314898 -0.6546661 0.02205014
v 0.02233982 -0.6548728 0.001165152
v 0.05753183 -0.6545622 -0.010952
v 0.1124419 -0.506623 0.003762007
v -0.0006990433 -0.09917843 -0.01767993
v -0.09117603 -0.5082395 -0.01344895
v -0.05010509 -0.6554059 -0.02524996
v -0.05448818 -0.6555099 0.00775218
v -0.01929522 -0.6551992 -0.004364967
v -0.1092241 -0.5083606 -0.02568293
v -0.1117921 -0.5084214 -0.00635004
v -0.0006990433 -0.09917843 -0.01767993
v -0.005250216 -0.1025045 0.01677608
v -0.04994512 -1.391437 0.151131
v 0.1309789 -1.391019 0.1028781
v 0.001183987 -0.6133635 -0.001513958
v 0.001183987 -0.6133635 -0.001513958
v 0.001183987 -0.6133635 -0.001513958
v -0.0296731 -1.345515 -0.1771328
v 0.1446218 -1.393467 -0.07984805
v 0.1635638 -1.343168 -0.09130692
v -0.0244112 -1.39552 -0.1549239
v 0.1479689 -1.34037 0.1175841
v -0.05886316 -1.340848 0.172747
v 0.1635638 -1.343168 -0.09130692
v 0.1309789 -1.391019 0.1028781
v 0.1479689 -1.34037 0.1175841
v 0.1446218 -1.393467 -0.07984805
v -0.05886316 -1.340848 0.172747
v -0.1520951 -1.394296 -0.01118684
v -0.1756411 -1.344116 -0.01281285
v -0.04994512 -1.391437 0.151131
v -0.1756411 -1.344116 -0.01281285
v -0.0244112 -1.39552 -0.1549239
v -0.0296731 -1.345515 -0.1771328
v -0.1520951 -1.394296 -0.01118684

vn -0.7391765 -0.5670499 -0.3634182
vn 0.07424978 0.5565022 0.8275217
vn 0.08632 -0.5450968 0.8339174
vn -0.7513772 0.5464604 -0.3698831
vn -0.7513772 0.5464604 -0.3698831
vn 0.6673602 -0.5524282 -0.4994533
vn 0.6551595 0.5610821 -0.5059182
vn -0.7391765 -0.5670499 -0.3634182
vn 0.08632 -0.5450968 0.8339174
vn 0.6551595 0.5610821 -0.5059182
vn 0.6673602 -0.5524282 -0.4994533
vn 0.07424978 0.5565022 0.8275217
vn 0.6673602 -0.5524282 -0.4994533
vn -0.7391765 -0.5670499 -0.3634182
vn 0.08632 -0.5450968 0.8339174
vn 0.07424978 0.5565022 0.8275217
vn -0.7513772 0.5464604 -0.3698831
vn 0.6551595 0.5610821 -0.5059182
vn 0.8642142 0.004669392 0.5031024
vn 0.9980683 -0.01324536 0.06069851
vn 0.8525229 0.01266557 0.5225364
vn 0.7075689 -0.03155702 0.7059394
vn 0.6978812 0.01467978 0.7160631
vn 0.8714082 -0.01049845 0.4904463
vn 0.9017311 0.005890169 0.4322572
vn 0.8643547 -0.0183113 0.5025491
vn 0.6915642 0.0546909 0.7202415
vn 0.9982168 0.005371343 0.0594495
vn -0.1920366 -0.001525965 -0.9813866
vn 0.3502517 0.03183104 -0.9361146
vn -0.2216512 -0.01037646 -0.9750708
vn -0.4503662 0.02426261 -0.8925142
vn -0.4484313 -0.0196237 -0.8936019
vn -0.1802997 0.01159716 -0.9835434
vn -0.04733322 0.006439506 -0.9988583
vn -0.1907356 0.02133277 -0.9814095
vn -0.5976568 -0.03488323 -0.8009927
vn 0.5826762 -0.0174265 -0.8125176
vn -0.6585587 0.06897267 0.7493618
vn -0.5527374 0.02322522 0.8330318
vn -0.4894344 0.04123154 0.8710648
vn -0.4976956 0.01504597 0.8672213
vn -0.4002666 -0.01294002 0.9163074
vn -0.7133169 -0.04544275 0.6993669
vn -0.53496 0.07510708 0.8415324
vn -0.3403838 0.0718425 0.937538
vn -0.08645201 0.7922181 0.6040832
vn -0.9881861 0.07588174 -0.133155
vn 0.01040664 -0.9997587 -0.01934531
vn 0.5179095 -0.03107974 0.8548706
vn -0.9099711 -0.3962884 -0.1220993
vn 0.1802596 -0.5857332 0.7902045
vn 0.07008971 0.8146315 -0.5757282
vn 0.730929 -0.02546551 -0.6819782
vn 0.3807434 -0.5809795 -0.7193729
vn 0.9873915 0.09136798 0.129266
vn -0.7225677 -0.04080365 0.6900949
vn 0.9162859 -0.3819726 0.1204872
vn -0.3712417 -0.5900562 0.7169471
vn -0.1707579 -0.5853027 -0.7926302
vn -0.5270777 -0.03532683 -0.8490826
vn -0.19912 0.4317358 -0.8797473
vn -0.896741 -0.4386804 -0.05843934
vn -0.1921177 -0.431262 -0.8815349
vn -0.9037433 0.4243097 -0.05665176
vn -0.6657594 -0.7443781 -0.05163122
vn -0.1421724 -0.7357215 -0.662194
vn -0.01206603 0.9999263 -0.001316925
vn 0.5239819 -0.7311959 0.4368015
vn -0.2364385 -0.746654 0.6217753
vn -0.2411288 -0.7414501 0.6261858
vn 0.5154386 -0.7423546 0.428057
vn -0.3217415 -0.4375857 0.8396435
vn -0.3287715 0.4288253 0.8414382
vn 0.776801 0.440467 -0.4500767
vn 0.680816 0.4383994 0.586767
vn 0.6878599 -0.4297211 0.5849688
vn 0.5916021 -0.7274312 -0.347636
vn 0.7838309 -0.4259358 -0.4518713
vn 0.5747414 -0.7465974 -0.3350592
vn -0.1353464 -0.7532172 -0.6436965
vn -0.65567 -0.7533977 -0.04988851
vn 0.005934529 -0.9998926 0.01340275
vn -0.08645201 0.7922181 0.6040832
vn 0.01040664 -0.9997587 -0.01934531
vn -0.65567 -0.7533977 -0.04988851
vn -0.2364385 -0.746654 0.6217753
vn 0.5154386 -0.7423546 0.428057
vn 0.5747414 -0.7465974 -0.3350592
vn -0.1353464 -0.7532172 -0.6436965
vn 0.07008971 0.8146315 -0.5757282
vn -0.6657594 -0.7443781 -0.05163122
vn -0.896741 -0.4386804 -0.05843934
vn -0.2411288 -0.7414501 0.6261858
vn -0.9037433 0.4243097 -0.05665176
vn 0.5239819 -0.7311959 0.4368015
vn 0.680816 0.4383994 0.586767
vn -0.3287715 0.4288253 0.8414382
vn 0.6878599 -0.4297211 0.5849688
vn -0.3217415 -0.4375857 0.8396435
vn -0.19912 0.4317358 -0.8797473
vn 0.776801 0.440467 -0.4500767
vn -0.1921177 -0.431262 -0.8815349
vn 0.7838309 -0.4259358 -0.4518713
vn -0.1421724 -0.7357215 -0.662194
vn 0.5916021 -0.7274312 -0.347636
vn -0.5826762 0.0174265 0.8125176
vn 0.1907356 -0.02133277 0.9814095
vn 0.5976568 0.03488323 0.8009927
vn -0.01206603 0.9999263 -0.001316925
vn 0.005934529 -0.9998926 0.01340275
vn 0.005934529 -0.9998926 0.01340275
vn 0.005934529 -0.9998926 0.01340275
vn 0.005934529 -0.9998926 0.01340275
vn -0.8525229 -0.01266557 -0.5225364
vn -0.8642142 -0.004669392 -0.5031024
vn -0.6978812 -0.01467978 -0.7160631
vn -0.9980683 0.01324536 -0.06069851
vn -0.7075689 0.03155702 -0.7059394
vn -0.8714082 0.01049845 -0.4904463
vn -0.9017311 -0.005890169 -0.4322572
vn -0.8643547 0.0183113 -0.5025491
vn -0.6915642 -0.0546909 -0.7202415
vn -0.9982168 -0.005371343 -0.0594495
vn -0.5976568 -0.03488323 -0.8009927
vn 0.2216512 0.01037646 0.9750708
vn 0.1920366 0.001525965 0.9813866
vn 0.4484313 0.0196237 0.8936019
vn -0.3502517 -0.03183104 0.9361146
vn 0.4503662 -0.02426261 0.8925142
vn 0.1802997 -0.01159716 0.9835434
vn 0.04733322 -0.006439506 0.9988583
vn 0.5976568 0.03488323 0.8009927
vn 0.4002666 0.01294002 -0.9163074
vn 0.5527374 -0.02322522 -0.8330318
vn 0.4894344 -0.04123154 -0.8710648
vn 0.7133169 0.04544275 -0.6993669
vn 0.53496 -0.07510708 -0.8415324
vn 0.6585587 -0.06897267 -0.7493618
vn 0.4976956 -0.01504597 -0.8672213
vn 0.3403838 -0.0718425 -0.937538
vn -0.9881861 0.07588174 -0.133155
vn 0.5179095 -0.03107974 0.8548706
vn -0.08645201 0.7922181 0.6040832
vn 0.1802596 -0.5857332 0.7902045
vn -0.9099711 -0.3962884 -0.1220993
vn 0.3807434 -0.5809795 -0.7193729
vn 0.730929 -0.02546551 -0.6819782
vn 0.07008971 0.8146315 -0.5757282
vn 0.9873915 0.09136798 0.129266
vn -0.1707579 -0.5853027 -0.7926302
vn -0.3712417 -0.5900562 0.7169471
vn 0.9162859 -0.3819726 0.1204872
vn -0.5270777 -0.03532683 -0.8490826
vn -0.7225677 -0.04080365 0.6900949
vn 0.07008971 0.8146315 -0.5757282
vn -0.08645201 0.7922181 0.6040832
vn -0.2364385 -0.746654 0.6217753
vn 0.5154386 -0.7423546 0.428057
vn -0.01206603 0.9999263 -0.001316925
vn -0.01206603 0.9999263 -0.001316925
vn -0.01206603 0.9999263 -0.001316925
vn -0.1421724 -0.7357215 -0.662194
vn 0.5747414 -0.7465974 -0.3350592
vn 0.5916021 -0.7274312 -0.347636
vn -0.1353464 -0.7532172 -0.6436965
vn 0.5239819 -0.7311959 0.4368015
vn -0.2411288 -0.7414501 0.6261858
vn 0.5916021 -0.7274312 -0.347636
vn 0.5154386 -0.7423546 0.428057
vn 0.5239819 -0.7311959 0.4368015
vn 0.5747414 -0.7465974 -0.3350592
vn -0.2411288 -0.7414501 0.6261858
vn -0.65567 -0.7533977 -0.04988851
vn -0.6657594 -0.7443781 -0.05163122
vn -0.2364385 -0.746654 0.6217753
vn -0.6657594 -0.7443781 -0.05163122
vn -0.1353464 -0.7532172 -0.6436965
vn -0.1421724 -0.7357215 -0.662194
vn -0.65567 -0.7533977 -0.04988851

vt 0.194091 0.861009
vt 0.226117 0.862276
vt 0.194104 0.863055
vt 0.226103 0.86023
vt 0.226103 0.86023
vt 0.193532 0.861757
vt 0.225545 0.860976
vt 0.194091 0.861009
vt 0.194104 0.863055
vt 0.225545 0.860976
vt 0.193532 0.861757
vt 0.226117 0.862276
vt 0.193532 0.861757
vt 0.194091 0.861009
vt 0.194104 0.863055
vt 0.226117 0.862276
vt 0.226103 0.86023
vt 0.225545 0.860976
vt 0.995285 0.988714
vt 0.918914 0.22334
vt 0.961502 0.149652
vt 0.859861 0.253755
vt 0.995479 0.148737
vt 0.821127 0.991548
vt 0.785872 0.374726
vt 0.641011 0.99275
vt 0.712975 0.419221
vt 0.642067 0.47186
vt 0.995285 0.988714
vt 0.918914 0.22334
vt 0.961502 0.149652
vt 0.859861 0.253755
vt 0.995479 0.148737
vt 0.821127 0.991548
vt 0.785872 0.374726
vt 0.641011 0.99275
vt 0.712975 0.419221
vt 0.642067 0.47186
vt 0.609957 0.340976
vt 0.770891 0.003531
vt 0.650504 0.448369
vt 0.512793 0.002627
vt 0.801869 0.321676
vt 0.894025 0.211421
vt 0.903011 0.003538
vt 0.516624 0.186201
vt 0.109504 0.899948
vt 0.125599 0.901442
vt 0.109471 0.90155
vt 0.125632 0.89984
vt 0.137579 0.90826
vt 0.137612 0.906659
vt 0.109504 0.899948
vt 0.125632 0.89984
vt 0.137612 0.906659
vt 0.125288 0.916603
vt 0.125255 0.918205
vt 0.137538 0.910281
vt 0.137505 0.911883
vt 0.137505 0.911883
vt 0.125255 0.918205
vt 0.437684 0.993165
vt 0.206512 0.993165
vt 0.206512 0.993165
vt 0.437684 0.757814
vt 0.10828 0.935072
vt 0.105494 0.933424
vt 0.636665 0.87549
vt 0.109606 0.815124
vt 0.110859 0.814382
vt 0.110859 0.814382
vt 0.109606 0.935856
vt 0.206512 0.757814
vt 0.437684 0.757814
vt 0.437684 0.757814
vt 0.437684 0.993165
vt 0.206512 0.993165
vt 0.106406 0.817016
vt 0.206512 0.757814
vt 0.106406 0.817016
vt 0.105494 0.933424
vt 0.10828 0.815908
vt 0.007531 0.87549
vt 0.109127 0.918313
vt 0.10916 0.916711
vt 0.10828 0.935072
vt 0.110859 0.936597
vt 0.109606 0.815124
vt 0.106406 0.933964
vt 0.105494 0.817555
vt 0.109127 0.918313
vt 0.10828 0.815908
vt 0.206512 0.757814
vt 0.110859 0.936597
vt 0.437684 0.993165
vt 0.109606 0.935856
vt 0.437684 0.757814
vt 0.437684 0.993165
vt 0.206512 0.757814
vt 0.206512 0.993165
vt 0.437684 0.757814
vt 0.437684 0.993165
vt 0.206512 0.757814
vt 0.206512 0.993165
vt 0.105494 0.817555
vt 0.106406 0.933964
vt 0.642067 0.47186
vt 0.641011 0.99275
vt 0.712975 0.419221
vt 0.636665 0.87549
vt 0.007531 0.87549
vt 0.007531 0.87549
vt 0.007531 0.87549
vt 0.007531 0.87549
vt 0.961502 0.149652
vt 0.995285 0.988714
vt 0.995479 0.148737
vt 0.918914 0.22334
vt 0.859861 0.253755
vt 0.821127 0.991548
vt 0.785872 0.374726
vt 0.641011 0.99275
vt 0.712975 0.419221
vt 0.642067 0.47186
vt 0.712975 0.419221
vt 0.961502 0.149652
vt 0.995285 0.988714
vt 0.995479 0.148737
vt 0.918914 0.22334
vt 0.859861 0.253755
vt 0.821127 0.991548
vt 0.785872 0.374726
vt 0.712975 0.419221
vt 0.801869 0.321676
vt 0.770891 0.003531
vt 0.650504 0.448369
vt 0.894025 0.211421
vt 0.903011 0.003538
vt 0.609957 0.340976
vt 0.512793 0.002627
vt 0.516624 0.186201
vt 0.125599 0.901442
vt 0.125632 0.89984
vt 0.109504 0.899948
vt 0.137612 0.906659
vt 0.137579 0.90826
vt 0.137612 0.906659
vt 0.125632 0.89984
vt 0.109504 0.899948
vt 0.125288 0.916603
vt 0.137505 0.911883
vt 0.137505 0.911883
vt 0.137538 0.910281
vt 0.125255 0.918205
vt 0.125255 0.918205
vt 0.109127 0.918313
vt 0.109127 0.918313
vt 0.110859 0.936597
vt 0.109606 0.815124
vt 0.636665 0.87549
vt 0.636665 0.87549
vt 0.636665 0.87549
vt 0.105494 0.817555
vt 0.106406 0.933964
vt 0.106406 0.933964
vt 0.105494 0.817555
vt 0.109606 0.815124
vt 0.110859 0.936597
vt 0.106406 0.817016
vt 0.109606 0.935856
vt 0.109606 0.935856
vt 0.106406 0.817016
vt 0.110859 0.814382
vt 0.10828 0.935072
vt 0.10828 0.935072
vt 0.110859 0.814382
vt 0.10828 0.815908
vt 0.105494 0.933424
vt 0.105494 0.933424
vt 0.10828 0.815908

vt1 0.00390625 0.06753237
vt1 0.9978803 0.1272522
vt1 0.003906304 0.1272531
vt1 0.9978803 0.06753237
vt1 0.00390625 0.1311614
vt1 0.9978803 0.1845765
vt1 0.00390625 0.1845765
vt1 0.9978803 0.1311594
vt1 0.9978803 0.06362612
vt1 0.00390625 0.00390625
vt1 0.9978803 0.00390625
vt1 0.00390625 0.06362612
vt1 0.00390625 0.1884827
vt1 0.05732333 0.1884827
vt1 0.03061379 0.2418978
vt1 0.03061379 0.2992191
vt1 0.00390625 0.245804
vt1 0.05732132 0.245804
vt1 0 0
vt1 0 0
vt1 0 0
vt1 0 0
vt1 0 0
vt1 0 0
vt1 0 0
vt1 0 0
vt1 0 0
vt1 0 0
vt1 0 0
vt1 0 0
vt1 0 0
vt1 0 0
vt1 0 0
vt1 0 0
vt1 0 0
vt1 0 0
vt1 0 0
vt1 0 0
vt1 0 0
vt1 0 0
vt1 0 0
vt1 0 0
vt1 0 0
vt1 0 0
vt1 0 0
vt1 0 0
vt1 0 0
vt1 0 0
vt1 0 0
vt1 0 0
vt1 0 0
vt1 0 0
vt1 0 0
vt1 0 0
vt1 0 0
vt1 0 0
vt1 0 0
vt1 0 0
vt1 0 0
vt1 0 0
vt1 0 0
vt1 0 0
vt1 0 0
vt1 0 0
vt1 0 0
vt1 0 0
vt1 0 0
vt1 0 0
vt1 0 0
vt1 0 0
vt1 0 0
vt1 0 0
vt1 0 0
vt1 0 0
vt1 0 0
vt1 0 0
vt1 0 0
vt1 0 0
vt1 0 0
vt1 0 0
vt1 0 0
vt1 0 0
vt1 0 0
vt1 0 0
vt1 0 0
vt1 0 0
vt1 0 0
vt1 0 0
vt1 0 0
vt1 0 0
vt1 0 0
vt1 0 0
vt1 0 0
vt1 0 0
vt1 0 0
vt1 0 0
vt1 0 0
vt1 0 0
vt1 0 0
vt1 0 0
vt1 0 0
vt1 0 0
vt1 0 0
vt1 0 0
vt1 0 0
vt1 0 0
vt1 0 0
vt1 0 0
vt1 0 0
vt1 0 0
vt1 0 0
vt1 0 0
vt1 0 0
vt1 0 0
vt1 0 0
vt1 0 0
vt1 0 0
vt1 0 0
vt1 0 0
vt1 0 0
vt1 0 0
vt1 0 0
vt1 0 0
vt1 0 0
vt1 0 0
vt1 0 0
vt1 0 0
vt1 0 0
vt1 0 0
vt1 0 0
vt1 0 0
vt1 0 0
vt1 0 0
vt1 0 0
vt1 0 0
vt1 0 0
vt1 0 0
vt1 0 0
vt1 0 0
vt1 0 0
vt1 0 0
vt1 0 0
vt1 0 0
vt1 0 0
vt1 0 0
vt1 0 0
vt1 0 0
vt1 0 0
vt1 0 0
vt1 0 0
vt1 0 0
vt1 0 0
vt1 0 0
vt1 0 0
vt1 0 0
vt1 0 0
vt1 0 0
vt1 0 0
vt1 0 0
vt1 0 0
vt1 0 0
vt1 0 0
vt1 0 0
vt1 0 0
vt1 0 0
vt1 0 0
vt1 0 0
vt1 0 0
vt1 0 0
vt1 0 0
vt1 0 0
vt1 0 0
vt1 0 0
vt1 0 0
vt1 0 0
vt1 0 0
vt1 0 0
vt1 0 0
vt1 0 0
vt1 0 0

vt2 0.00390625 0.06753237
vt2 0.9978803 0.1272522
vt2 0.003906304 0.1272531
vt2 0.9978803 0.06753237
vt2 0.00390625 0.1311614
vt2 0.9978803 0.1845765
vt2 0.00390625 0.1845765
vt2 0.9978803 0.1311594
vt2 0.9978803 0.06362612
vt2 0.00390625 0.00390625
vt2 0.9978803 0.00390625
vt2 0.00390625 0.06362612
vt2 0.00390625 0.1884827
vt2 0.05732333 0.1884827
vt2 0.03061379 0.2418978
vt2 0.03061379 0.2992191
vt2 0.00390625 0.245804
vt2 0.05732132 0.245804
vt2 0 0
vt2 0 0
vt2 0 0
vt2 0 0
vt2 0 0
vt2 0 0
vt2 0 0
vt2 0 0
vt2 0 0
vt2 0 0
vt2 0 0
vt2 0 0
vt2 0 0
vt2 0 0
vt2 0 0
vt2 0 0
vt2 0 0
vt2 0 0
vt2 0 0
vt2 0 0
vt2 0 0
vt2 0 0
vt2 0 0
vt2 0 0
vt2 0 0
vt2 0 0
vt2 0 0
vt2 0 0
vt2 0 0
vt2 0 0
vt2 0 0
vt2 0 0
vt2 0 0
vt2 0 0
vt2 0 0
vt2 0 0
vt2 0 0
vt2 0 0
vt2 0 0
vt2 0 0
vt2 0 0
vt2 0 0
vt2 0 0
vt2 0 0
vt2 0 0
vt2 0 0
vt2 0 0
vt2 0 0
vt2 0 0
vt2 0 0
vt2 0 0
vt2 0 0
vt2 0 0
vt2 0 0
vt2 0 0
vt2 0 0
vt2 0 0
vt2 0 0
vt2 0 0
vt2 0 0
vt2 0 0
vt2 0 0
vt2 0 0
vt2 0 0
vt2 0 0
vt2 0 0
vt2 0 0
vt2 0 0
vt2 0 0
vt2 0 0
vt2 0 0
vt2 0 0
vt2 0 0
vt2 0 0
vt2 0 0
vt2 0 0
vt2 0 0
vt2 0 0
vt2 0 0
vt2 0 0
vt2 0 0
vt2 0 0
vt2 0 0
vt2 0 0
vt2 0 0
vt2 0 0
vt2 0 0
vt2 0 0
vt2 0 0
vt2 0 0
vt2 0 0
vt2 0 0
vt2 0 0
vt2 0 0
vt2 0 0
vt2 0 0
vt2 0 0
vt2 0 0
vt2 0 0
vt2 0 0
vt2 0 0
vt2 0 0
vt2 0 0
vt2 0 0
vt2 0 0
vt2 0 0
vt2 0 0
vt2 0 0
vt2 0 0
vt2 0 0
vt2 0 0
vt2 0 0
vt2 0 0
vt2 0 0
vt2 0 0
vt2 0 0
vt2 0 0
vt2 0 0
vt2 0 0
vt2 0 0
vt2 0 0
vt2 0 0
vt2 0 0
vt2 0 0
vt2 0 0
vt2 0 0
vt2 0 0
vt2 0 0
vt2 0 0
vt2 0 0
vt2 0 0
vt2 0 0
vt2 0 0
vt2 0 0
vt2 0 0
vt2 0 0
vt2 0 0
vt2 0 0
vt2 0 0
vt2 0 0
vt2 0 0
vt2 0 0
vt2 0 0
vt2 0 0
vt2 0 0
vt2 0 0
vt2 0 0
vt2 0 0
vt2 0 0
vt2 0 0
vt2 0 0
vt2 0 0
vt2 0 0
vt2 0 0
vt2 0 0
vt2 0 0
vt2 0 0
vt2 0 0
vt2 0 0
vt2 0 0
vt2 0 0
vt2 0 0


usemtl MEP_House_Props_01
usemap MEP_House_Props_01
f 13/13/13 15/15/15 14/14/14
f 16/16/16 18/18/18 17/17/17
f 36/36/36 37/37/37 38/38/38
f 109/109/109 108/108/108 107/107/107
f 49/49/49 48/48/48 47/47/47
f 85/85/85 84/84/84 56/56/56
f 83/83/83 82/82/82 81/81/81
f 111/111/111 70/70/70 86/86/86
f 112/112/112 80/80/80 72/72/72
f 113/113/113 88/88/88 87/87/87
f 114/114/114 90/90/90 89/89/89
f 1/1/1 3/3/3 2/2/2
f 1/1/1 2/2/2 4/4/4
f 5/5/5 7/7/7 6/6/6
f 5/5/5 6/6/6 8/8/8
f 9/9/9 11/11/11 10/10/10
f 9/9/9 10/10/10 12/12/12
f 65/65/65 68/68/68 62/62/62
f 65/65/65 62/62/62 93/93/93
f 93/93/93 62/62/62 64/64/64
f 93/93/93 64/64/64 92/92/92
f 92/92/92 64/64/64 67/67/67
f 74/74/74 160/160/160 95/95/95
f 74/74/74 95/95/95 73/73/73
f 73/73/73 95/95/95 63/63/63
f 73/73/73 63/63/63 71/71/71
f 71/71/71 63/63/63 66/66/66
f 75/75/75 110/110/110 76/76/76
f 75/75/75 76/76/76 79/79/79
f 79/79/79 76/76/76 77/77/77
f 79/79/79 77/77/77 78/78/78
f 78/78/78 77/77/77 96/96/96
f 20/20/20 22/22/22 19/19/19
f 20/20/20 19/19/19 21/21/21
f 21/21/21 19/19/19 23/23/23
f 27/27/27 28/28/28 26/26/26
f 27/27/27 26/26/26 25/25/25
f 25/25/25 26/26/26 24/24/24
f 25/25/25 24/24/24 22/22/22
f 22/22/22 24/24/24 19/19/19
f 115/115/115 117/117/117 116/116/116
f 115/115/115 116/116/116 118/118/118
f 118/118/118 116/116/116 119/119/119
f 119/119/119 116/116/116 120/120/120
f 119/119/119 120/120/120 121/121/121
f 121/121/121 120/120/120 122/122/122
f 121/121/121 122/122/122 123/123/123
f 123/123/123 122/122/122 124/124/124
f 30/30/30 32/32/32 29/29/29
f 30/30/30 29/29/29 31/31/31
f 31/31/31 29/29/29 33/33/33
f 29/29/29 32/32/32 34/34/34
f 34/34/34 32/32/32 35/35/35
f 34/34/34 35/35/35 36/36/36
f 36/36/36 35/35/35 125/125/125
f 126/126/126 128/128/128 127/127/127
f 126/126/126 127/127/127 129/129/129
f 129/129/129 127/127/127 130/130/130
f 130/130/130 127/127/127 131/131/131
f 130/130/130 131/131/131 132/132/132
f 132/132/132 131/131/131 108/108/108
f 132/132/132 108/108/108 133/133/133
f 44/44/44 45/45/45 40/40/40
f 44/44/44 40/40/40 43/43/43
f 43/43/43 40/40/40 41/41/41
f 42/42/42 46/46/46 39/39/39
f 42/42/42 39/39/39 40/40/40
f 40/40/40 39/39/39 41/41/41
f 134/134/134 136/136/136 135/135/135
f 134/134/134 135/135/135 137/137/137
f 137/137/137 135/135/135 138/138/138
f 135/135/135 136/136/136 139/139/139
f 135/135/135 139/139/139 140/140/140
f 140/140/140 139/139/139 141/141/141
f 148/148/148 147/147/147 142/142/142
f 142/142/142 147/147/147 51/51/51
f 142/142/142 51/51/51 50/50/50
f 50/50/50 51/51/51 52/52/52
f 50/50/50 47/47/47 142/142/142
f 53/53/53 144/144/144 143/143/143
f 53/53/53 143/143/143 54/54/54
f 54/54/54 143/143/143 145/145/145
f 54/54/54 145/145/145 55/55/55
f 55/55/55 145/145/145 146/146/146
f 148/148/148 142/142/142 49/49/49
f 148/148/148 49/49/49 149/149/149
f 58/58/58 60/60/60 150/150/150
f 58/58/58 150/150/150 57/57/57
f 57/57/57 150/150/150 84/84/84
f 57/57/57 59/59/59 58/58/58
f 150/150/150 60/60/60 61/61/61
f 150/150/150 61/61/61 85/85/85
f 85/85/85 61/61/61 91/91/91
f 151/151/151 153/153/153 152/152/152
f 151/151/151 152/152/152 154/154/154
f 154/154/154 152/152/152 155/155/155
f 154/154/154 155/155/155 156/156/156
f 156/156/156 155/155/155 157/157/157
f 158/158/158 159/159/159 69/69/69
f 158/158/158 69/69/69 94/94/94
f 97/97/97 161/161/161 98/98/98
f 97/97/97 98/98/98 99/99/99
f 99/99/99 98/98/98 100/100/100
f 99/99/99 100/100/100 167/167/167
f 167/167/167 100/100/100 168/168/168
f 101/101/101 162/162/162 102/102/102
f 101/101/101 102/102/102 103/103/103
f 103/103/103 102/102/102 104/104/104
f 103/103/103 104/104/104 105/105/105
f 105/105/105 104/104/104 106/106/106
f 164/164/164 166/166/166 163/163/163
f 164/164/164 163/163/163 165/165/165
f 170/170/170 172/172/172 169/169/169
f 170/170/170 169/169/169 171/171/171
f 174/174/174 176/176/176 173/173/173
f 174/174/174 173/173/173 175/175/175
f 178/178/178 180/180/180 177/177/177
f 178/178/178 177/177/177 179/179/179

