g NewMesh_tris_72
v 3.368176 -0.5104746 2.242015
v 0.1058177 0.6719723 -3.514605
v 1.356502 -1.460451 0.8127695
v 4.828267 2.004226 1.912696
v 2.480614 2.387851 -1.502543
v 0.3368273 -4.113282 3.961575
v 0.5230783 -3.942697 2.101207
v -1.783215 -1.210019 -3.36175
v -2.658346 -2.570164 -1.485869
v 1.839266 3.783945 1.83673
v -3.375361 0.552466 -2.662989
v -2.137384 1.665179 -2.560755
v 0.1856971 2.937211 -2.262285
v -1.155174 -0.9069809 3.867265
v -2.624838 -2.886621 3.266582
v -0.6095576 -3.324287 4.667203
v 1.04234 0.8151909 4.075312
v 0.3368273 -4.113282 3.961575
v 3.082506 1.410335 3.640501
v 4.098014 3.0084 1.987841
v 4.828267 2.004226 1.912696
v -3.61508 -0.9989118 -2.155997
v -2.137384 1.665179 -2.560755
v 0.1058177 0.6719723 -3.514605
v 0.1856971 2.937211 -2.262285
v 2.480614 2.387851 -1.502543
v 4.098014 3.0084 1.987841
v 4.828267 2.004226 1.912696
v 1.839266 3.783945 1.83673
v -3.375361 0.552466 -2.662989
v -1.783215 -1.210019 -3.36175
v -3.61508 -0.9989118 -2.155997
v -2.624838 -2.886621 3.266582
v -0.6095576 -3.324287 4.667203
v 0.3368273 -4.113282 3.961575
v -3.61508 -0.9989118 -2.155997
v -2.624838 -2.886621 3.266582
v -2.658346 -2.570164 -1.485869
v -1.783215 -1.210019 -3.36175
v 4.828267 2.004226 1.912696
v 3.368176 -0.5104746 2.242015
v 3.082506 1.410335 3.640501
v 1.04234 0.8151909 4.075312
v 0.3368273 -4.113282 3.961575
v -2.658346 -2.570164 -1.485869
v -2.624838 -2.886621 3.266582
v 0.5230783 -3.942697 2.101207
v 0.3368273 -4.113282 3.961575
v -6.853209 -2.182811 -1.748171
v -2.193618 2.986122 -3.608192
v -5.021561 -0.3949091 -0.6888129
v -7.238716 -2.865645 -4.568509
v -4.202999 0.3320156 -5.242294
v -5.667095 -2.391014 3.119326
v -5.40644 -0.6636107 2.21468
v -1.136856 3.603487 -1.222178
v -1.188697 2.334552 0.9640561
v -3.757347 -3.420277 -4.941164
v 0.8680216 2.279244 -1.837459
v 0.09058654 1.72576 -3.224104
v -1.689054 0.8994677 -5.095456
v -3.067594 -3.509122 0.9487532
v -2.290126 -2.134514 2.975764
v -4.628527 -3.358605 3.08001
v -4.545757 -4.419508 -1.28851
v -5.667095 -2.391014 3.119326
v -6.160298 -4.270252 -2.747359
v -6.198087 -3.311686 -5.107275
v -7.238716 -2.865645 -4.568509
v 0.4227144 2.393805 -0.2424698
v 0.09058654 1.72576 -3.224104
v -2.193618 2.986122 -3.608192
v -1.689054 0.8994677 -5.095456
v -4.202999 0.3320156 -5.242294
v -6.198087 -3.311686 -5.107275
v -7.238716 -2.865645 -4.568509
v -3.757347 -3.420277 -4.941164
v 0.8680216 2.279244 -1.837459
v -1.136856 3.603487 -1.222178
v 0.4227144 2.393805 -0.2424698
v -2.290126 -2.134514 2.975764
v -4.628527 -3.358605 3.08001
v -5.667095 -2.391014 3.119326
v 0.4227144 2.393805 -0.2424698
v -2.290126 -2.134514 2.975764
v -1.188697 2.334552 0.9640561
v -1.136856 3.603487 -1.222178
v -7.238716 -2.865645 -4.568509
v -6.853209 -2.182811 -1.748171
v -6.160298 -4.270252 -2.747359
v -4.545757 -4.419508 -1.28851
v -5.667095 -2.391014 3.119326
v -1.188697 2.334552 0.9640561
v -2.290126 -2.134514 2.975764
v -5.40644 -0.6636107 2.21468
v -5.667095 -2.391014 3.119326

vn 0.8048126 -0.5791112 0.1300265
vn 0.3565595 -0.06130609 -0.932259
vn 0.6666709 -0.5930839 -0.4514439
vn 0.9962913 0.05695483 0.06449584
vn 0.6963719 0.355589 -0.6233961
vn 0.3347152 -0.8402225 0.4266052
vn 0.4703422 -0.8633687 -0.1826815
vn 0.001496909 -0.4689451 -0.883226
vn -0.4036801 -0.8444186 -0.3521357
vn -0.1123747 0.9527684 0.2821423
vn -0.8064966 0.4045096 -0.4312021
vn -0.5180231 0.7434533 -0.4230005
vn -0.04581969 0.8553113 -0.5160844
vn -0.5932669 0.4156713 0.6893851
vn -0.8336312 -0.3672763 0.4125131
vn -0.162691 -0.3713856 0.9141139
vn -0.04579356 0.3109709 0.9493156
vn 0.3347152 -0.8402225 0.4266052
vn 0.3993057 0.08465792 0.9129009
vn 0.5846647 0.7825007 0.214149
vn 0.9962913 0.05695483 0.06449584
vn -0.9269736 -0.2242777 -0.3006983
vn -0.5180231 0.7434533 -0.4230005
vn 0.3565595 -0.06130609 -0.932259
vn -0.04581969 0.8553113 -0.5160844
vn 0.6963719 0.355589 -0.6233961
vn 0.5846647 0.7825007 0.214149
vn 0.9962913 0.05695483 0.06449584
vn -0.1123747 0.9527684 0.2821423
vn -0.8064966 0.4045096 -0.4312021
vn 0.001496909 -0.4689451 -0.883226
vn -0.9269736 -0.2242777 -0.3006983
vn -0.8336312 -0.3672763 0.4125131
vn -0.162691 -0.3713856 0.9141139
vn 0.3347152 -0.8402225 0.4266052
vn -0.9269736 -0.2242777 -0.3006983
vn -0.8336312 -0.3672763 0.4125131
vn -0.4036801 -0.8444186 -0.3521357
vn 0.001496909 -0.4689451 -0.883226
vn 0.9962913 0.05695483 0.06449584
vn 0.8048126 -0.5791112 0.1300265
vn 0.3993057 0.08465792 0.9129009
vn -0.04579356 0.3109709 0.9493156
vn 0.3347152 -0.8402225 0.4266052
vn -0.4036801 -0.8444186 -0.3521357
vn -0.8336312 -0.3672763 0.4125131
vn 0.4703422 -0.8633687 -0.1826815
vn 0.3347152 -0.8402225 0.4266052
vn -0.9695356 0.1130542 0.2173001
vn -0.1992158 0.8841075 -0.4226902
vn -0.753996 0.6524666 0.07600942
vn -0.9044811 -0.07472301 -0.4199173
vn -0.4100728 0.4388916 -0.7995089
vn -0.680298 -0.06066495 0.7304207
vn -0.7149423 0.5098391 0.4784572
vn -0.02872179 0.9963589 0.08027572
vn 0.1216898 0.6522038 0.7482124
vn 0.4026178 -0.6338929 -0.6603626
vn 0.9564366 0.232445 -0.1766306
vn 0.8129777 0.09401423 -0.5746551
vn 0.4349539 0.1390727 -0.8896481
vn 0.5840009 -0.8012772 0.1299918
vn 0.5658676 -0.2412733 0.788404
vn -0.1325037 -0.6964135 0.7053021
vn 0.001539183 -0.9955238 0.09449925
vn -0.680298 -0.06066495 0.7304207
vn -0.483172 -0.8701922 0.09649155
vn -0.2880177 -0.499732 -0.8168927
vn -0.9044811 -0.07472301 -0.4199173
vn 0.8183524 0.3580938 0.44952
vn 0.8129777 0.09401423 -0.5746551
vn -0.1992158 0.8841075 -0.4226902
vn 0.4349539 0.1390727 -0.8896481
vn -0.4100728 0.4388916 -0.7995089
vn -0.2880177 -0.499732 -0.8168927
vn -0.9044811 -0.07472301 -0.4199173
vn 0.4026178 -0.6338929 -0.6603626
vn 0.9564366 0.232445 -0.1766306
vn -0.02872179 0.9963589 0.08027572
vn 0.8183524 0.3580938 0.44952
vn 0.5658676 -0.2412733 0.788404
vn -0.1325037 -0.6964135 0.7053021
vn -0.680298 -0.06066495 0.7304207
vn 0.8183524 0.3580938 0.44952
vn 0.5658676 -0.2412733 0.788404
vn 0.1216898 0.6522038 0.7482124
vn -0.02872179 0.9963589 0.08027572
vn -0.9044811 -0.07472301 -0.4199173
vn -0.9695356 0.1130542 0.2173001
vn -0.483172 -0.8701922 0.09649155
vn 0.001539183 -0.9955238 0.09449925
vn -0.680298 -0.06066495 0.7304207
vn 0.1216898 0.6522038 0.7482124
vn 0.5658676 -0.2412733 0.788404
vn -0.7149423 0.5098391 0.4784572
vn -0.680298 -0.06066495 0.7304207

vt 1.149564 -0.458714
vt 0.688908 0.516929
vt 1.233812 -0.103202
vt 0.79593 -0.623351
vt 0.603939 -0.054382
vt 1.775311 -0.25451
vt 1.607923 -0.077884
vt 1.036473 0.677262
vt 1.397745 0.57135
vt 0.210078 0.251308
vt -0.117415 1.017832
vt 0.080371 0.954612
vt 0.275584 0.766252
vt -0.578961 0.188049
vt -0.945208 0.395833
vt -0.828182 0.010369
vt -0.221996 -0.055647
vt -0.959769 -0.154285
vt 0.125047 -0.182301
vt 0.406031 0.087419
vt 0.528948 -0.02662
vt -0.300067 1.060481
vt 0.080371 0.954612
vt 0.361828 1.224147
vt 0.275584 0.766252
vt 0.49922 0.555329
vt 0.406031 0.087419
vt 0.528948 -0.02662
vt 0.210078 0.251308
vt -0.117415 1.017832
vt -0.160379 1.377239
vt -0.300067 1.060481
vt -0.945208 0.395833
vt -0.828182 0.010369
vt -0.959769 -0.154285
vt -0.300067 1.060481
vt -0.945208 0.395833
vt -0.571902 1.117625
vt -0.160379 1.377239
vt 0.79593 -0.623351
vt 1.149564 -0.458714
vt 1.098452 -0.75768
vt 1.371004 -0.759475
vt 1.775311 -0.25451
vt 1.397745 0.57135
vt 1.929395 0.165976
vt 1.607923 -0.077884
vt 1.775311 -0.25451
vt 1.149564 -0.458714
vt 0.688908 0.516929
vt 1.233812 -0.103202
vt 0.79593 -0.623351
vt 0.603939 -0.054382
vt 1.775311 -0.25451
vt 1.607923 -0.077884
vt 1.036473 0.677262
vt 1.397745 0.57135
vt 0.210078 0.251308
vt -0.117415 1.017832
vt 0.080371 0.954612
vt 0.275584 0.766252
vt -0.578961 0.188049
vt -0.945208 0.395833
vt -0.828182 0.010369
vt -0.221996 -0.055647
vt -0.959769 -0.154285
vt 0.125047 -0.182301
vt 0.406031 0.087419
vt 0.528948 -0.02662
vt -0.300067 1.060481
vt 0.080371 0.954612
vt 0.361828 1.224147
vt 0.275584 0.766252
vt 0.49922 0.555329
vt 0.406031 0.087419
vt 0.528948 -0.02662
vt 0.210078 0.251308
vt -0.117415 1.017832
vt -0.160379 1.377239
vt -0.300067 1.060481
vt -0.945208 0.395833
vt -0.828182 0.010369
vt -0.959769 -0.154285
vt -0.300067 1.060481
vt -0.945208 0.395833
vt -0.571902 1.117625
vt -0.160379 1.377239
vt 0.79593 -0.623351
vt 1.149564 -0.458714
vt 1.098452 -0.75768
vt 1.371004 -0.759475
vt 1.775311 -0.25451
vt 1.397745 0.57135
vt 1.929395 0.165976
vt 1.607923 -0.077884
vt 1.775311 -0.25451

vt1 0.0539483 0.6854088
vt1 0.3770035 0.7034451
vt1 0.1550724 0.7760575
vt1 0.07022489 0.5345058
vt1 0.273145 0.5867069
vt1 0.00390625 0.9228421
vt1 0.09697518 0.9071335
vt1 0.4202375 0.8215134
vt1 0.3527941 0.9228421
vt1 0.3501957 0.02803986
vt1 0.00390625 0.220999
vt1 0.04108705 0.1459741
vt1 0.111856 0.03115797
vt1 0.3541927 0.3091898
vt1 0.2994696 0.4206511
vt1 0.433674 0.4107863
vt1 0.4225781 0.1989087
vt1 0.5034581 0.4206511
vt1 0.4770347 0.1217176
vt1 0.4812235 0.00390625
vt1 0.5458108 0.02637729
vt1 0.02002143 0.3010099
vt1 0.5032272 0.6784404
vt1 0.3770035 0.7034451
vt1 0.3947602 0.5710255
vt1 0.273145 0.5867069
vt1 0.1122047 0.4794549
vt1 0.07022489 0.5345058
vt1 0.2165328 0.4245574
vt1 0.5453701 0.7605779
vt1 0.4202375 0.8215134
vt1 0.539665 0.8535512
vt1 0.6691611 0.5895282
vt1 0.5492764 0.5466701
vt1 0.5495551 0.4782287
vt1 0.9602074 0.5256054
vt1 0.6691611 0.5895282
vt1 0.8801306 0.470743
vt1 0.9929017 0.4245574
vt1 0.5458108 0.02637729
vt1 0.5754262 0.1771578
vt1 0.4770347 0.1217176
vt1 0.4225781 0.1989087
vt1 0.5034581 0.4206511
vt1 0.8801306 0.470743
vt1 0.6691611 0.5895282
vt1 0.6277239 0.4245574
vt1 0.5495551 0.4782287
vt1 0.0539483 0.6854088
vt1 0.3770035 0.7034451
vt1 0.1550724 0.7760575
vt1 0.07022489 0.5345058
vt1 0.273145 0.5867069
vt1 0.00390625 0.9228421
vt1 0.09697518 0.9071335
vt1 0.4202375 0.8215134
vt1 0.3527941 0.9228421
vt1 0.3501957 0.02803986
vt1 0.00390625 0.220999
vt1 0.04108705 0.1459741
vt1 0.111856 0.03115797
vt1 0.3541927 0.3091898
vt1 0.2994696 0.4206511
vt1 0.433674 0.4107863
vt1 0.4225781 0.1989087
vt1 0.5034581 0.4206511
vt1 0.4770347 0.1217176
vt1 0.4812235 0.00390625
vt1 0.5458108 0.02637729
vt1 0.02002143 0.3010099
vt1 0.5032272 0.6784404
vt1 0.3770035 0.7034451
vt1 0.3947602 0.5710255
vt1 0.273145 0.5867069
vt1 0.1122047 0.4794549
vt1 0.07022489 0.5345058
vt1 0.2165328 0.4245574
vt1 0.5453701 0.7605779
vt1 0.4202375 0.8215134
vt1 0.539665 0.8535512
vt1 0.6691611 0.5895282
vt1 0.5492764 0.5466701
vt1 0.5495551 0.4782287
vt1 0.9602074 0.5256054
vt1 0.6691611 0.5895282
vt1 0.8801306 0.470743
vt1 0.9929017 0.4245574
vt1 0.5458108 0.02637729
vt1 0.5754262 0.1771578
vt1 0.4770347 0.1217176
vt1 0.4225781 0.1989087
vt1 0.5034581 0.4206511
vt1 0.8801306 0.470743
vt1 0.6691611 0.5895282
vt1 0.6277239 0.4245574
vt1 0.5495551 0.4782287

vt2 0.0539483 0.6854088
vt2 0.3770035 0.7034451
vt2 0.1550724 0.7760575
vt2 0.07022489 0.5345058
vt2 0.273145 0.5867069
vt2 0.00390625 0.9228421
vt2 0.09697518 0.9071335
vt2 0.4202375 0.8215134
vt2 0.3527941 0.9228421
vt2 0.3501957 0.02803986
vt2 0.00390625 0.220999
vt2 0.04108705 0.1459741
vt2 0.111856 0.03115797
vt2 0.3541927 0.3091898
vt2 0.2994696 0.4206511
vt2 0.433674 0.4107863
vt2 0.4225781 0.1989087
vt2 0.5034581 0.4206511
vt2 0.4770347 0.1217176
vt2 0.4812235 0.00390625
vt2 0.5458108 0.02637729
vt2 0.02002143 0.3010099
vt2 0.5032272 0.6784404
vt2 0.3770035 0.7034451
vt2 0.3947602 0.5710255
vt2 0.273145 0.5867069
vt2 0.1122047 0.4794549
vt2 0.07022489 0.5345058
vt2 0.2165328 0.4245574
vt2 0.5453701 0.7605779
vt2 0.4202375 0.8215134
vt2 0.539665 0.8535512
vt2 0.6691611 0.5895282
vt2 0.5492764 0.5466701
vt2 0.5495551 0.4782287
vt2 0.9602074 0.5256054
vt2 0.6691611 0.5895282
vt2 0.8801306 0.470743
vt2 0.9929017 0.4245574
vt2 0.5458108 0.02637729
vt2 0.5754262 0.1771578
vt2 0.4770347 0.1217176
vt2 0.4225781 0.1989087
vt2 0.5034581 0.4206511
vt2 0.8801306 0.470743
vt2 0.6691611 0.5895282
vt2 0.6277239 0.4245574
vt2 0.5495551 0.4782287
vt2 0.0539483 0.6854088
vt2 0.3770035 0.7034451
vt2 0.1550724 0.7760575
vt2 0.07022489 0.5345058
vt2 0.273145 0.5867069
vt2 0.00390625 0.9228421
vt2 0.09697518 0.9071335
vt2 0.4202375 0.8215134
vt2 0.3527941 0.9228421
vt2 0.3501957 0.02803986
vt2 0.00390625 0.220999
vt2 0.04108705 0.1459741
vt2 0.111856 0.03115797
vt2 0.3541927 0.3091898
vt2 0.2994696 0.4206511
vt2 0.433674 0.4107863
vt2 0.4225781 0.1989087
vt2 0.5034581 0.4206511
vt2 0.4770347 0.1217176
vt2 0.4812235 0.00390625
vt2 0.5458108 0.02637729
vt2 0.02002143 0.3010099
vt2 0.5032272 0.6784404
vt2 0.3770035 0.7034451
vt2 0.3947602 0.5710255
vt2 0.273145 0.5867069
vt2 0.1122047 0.4794549
vt2 0.07022489 0.5345058
vt2 0.2165328 0.4245574
vt2 0.5453701 0.7605779
vt2 0.4202375 0.8215134
vt2 0.539665 0.8535512
vt2 0.6691611 0.5895282
vt2 0.5492764 0.5466701
vt2 0.5495551 0.4782287
vt2 0.9602074 0.5256054
vt2 0.6691611 0.5895282
vt2 0.8801306 0.470743
vt2 0.9929017 0.4245574
vt2 0.5458108 0.02637729
vt2 0.5754262 0.1771578
vt2 0.4770347 0.1217176
vt2 0.4225781 0.1989087
vt2 0.5034581 0.4206511
vt2 0.8801306 0.470743
vt2 0.6691611 0.5895282
vt2 0.6277239 0.4245574
vt2 0.5495551 0.4782287


usemtl Cliff_02
usemap Cliff_02
f 33/33/33 35/35/35 34/34/34
f 81/81/81 83/83/83 82/82/82
f 6/6/6 7/7/7 3/3/3
f 6/6/6 3/3/3 1/1/1
f 1/1/1 3/3/3 2/2/2
f 1/1/1 2/2/2 4/4/4
f 4/4/4 2/2/2 5/5/5
f 7/7/7 9/9/9 8/8/8
f 7/7/7 8/8/8 3/3/3
f 3/3/3 8/8/8 2/2/2
f 15/15/15 16/16/16 14/14/14
f 15/15/15 14/14/14 11/11/11
f 11/11/11 14/14/14 10/10/10
f 11/11/11 10/10/10 12/12/12
f 12/12/12 10/10/10 13/13/13
f 16/16/16 18/18/18 17/17/17
f 16/16/16 17/17/17 14/14/14
f 14/14/14 17/17/17 10/10/10
f 10/10/10 17/17/17 19/19/19
f 10/10/10 19/19/19 20/20/20
f 20/20/20 19/19/19 21/21/21
f 11/11/11 22/22/22 15/15/15
f 27/27/27 28/28/28 26/26/26
f 27/27/27 26/26/26 25/25/25
f 25/25/25 26/26/26 24/24/24
f 25/25/25 24/24/24 23/23/23
f 23/23/23 24/24/24 30/30/30
f 27/27/27 25/25/25 29/29/29
f 31/31/31 32/32/32 30/30/30
f 31/31/31 30/30/30 24/24/24
f 38/38/38 37/37/37 36/36/36
f 38/38/38 36/36/36 39/39/39
f 43/43/43 44/44/44 41/41/41
f 43/43/43 41/41/41 42/42/42
f 42/42/42 41/41/41 40/40/40
f 47/47/47 48/48/48 46/46/46
f 47/47/47 46/46/46 45/45/45
f 54/54/54 55/55/55 51/51/51
f 54/54/54 51/51/51 49/49/49
f 49/49/49 51/51/51 50/50/50
f 49/49/49 50/50/50 52/52/52
f 52/52/52 50/50/50 53/53/53
f 55/55/55 57/57/57 56/56/56
f 55/55/55 56/56/56 51/51/51
f 51/51/51 56/56/56 50/50/50
f 63/63/63 64/64/64 62/62/62
f 63/63/63 62/62/62 59/59/59
f 59/59/59 62/62/62 58/58/58
f 59/59/59 58/58/58 60/60/60
f 60/60/60 58/58/58 61/61/61
f 64/64/64 66/66/66 65/65/65
f 64/64/64 65/65/65 62/62/62
f 62/62/62 65/65/65 58/58/58
f 58/58/58 65/65/65 67/67/67
f 58/58/58 67/67/67 68/68/68
f 68/68/68 67/67/67 69/69/69
f 59/59/59 70/70/70 63/63/63
f 75/75/75 76/76/76 74/74/74
f 75/75/75 74/74/74 73/73/73
f 73/73/73 74/74/74 72/72/72
f 73/73/73 72/72/72 71/71/71
f 71/71/71 72/72/72 78/78/78
f 75/75/75 73/73/73 77/77/77
f 79/79/79 80/80/80 78/78/78
f 79/79/79 78/78/78 72/72/72
f 86/86/86 85/85/85 84/84/84
f 86/86/86 84/84/84 87/87/87
f 91/91/91 92/92/92 89/89/89
f 91/91/91 89/89/89 90/90/90
f 90/90/90 89/89/89 88/88/88
f 95/95/95 96/96/96 94/94/94
f 95/95/95 94/94/94 93/93/93

