g NewMesh_tris_142
v -16.21628 -0.03324144 5.43962
v -16.21725 -1.902411 5.542691
v -12.25235 0.2239514 7.946113
v -16.48536 2.027869 5.716532
v -20.18571 -0.3791068 3.181921
v -20.27743 1.944037 3.107301
v -21.98087 2.421376 5.973296
v -13.47674 1.586294 8.708015
v -18.14034 2.527943 8.315227
v -23.14931 1.964675 7.980459
v -12.17619 -2.06863 9.532369
v -14.06249 1.90369 10.41802
v -14.65969 2.091362 13.01633
v -27.07881 1.644775 5.619777
v -25.94987 2.015102 3.628549
v -24.5004 1.616678 1.23886
v -24.20201 -0.5600022 0.8596033
v -24.22969 -2.275549 0.9796112
v -27.97282 -0.6837213 -1.3981
v -28.23496 0.8132045 -0.2506087
v -29.33348 1.241251 1.182938
v -31.4034 1.28277 3.041532
v -28.96154 -2.611001 -1.028389
v -19.27567 2.04367 10.31711
v -20.09479 -2.27038 3.30329
v -29.33348 1.241251 1.182938
v -27.97282 -0.6837213 -1.3981
v -28.23496 0.8132045 -0.2506087
v -28.96154 -2.611001 -1.028389
v -31.4034 1.28277 3.041532
v -14.65969 2.091362 13.01633
v -14.06249 1.90369 10.41802
v -12.17619 -2.06863 9.532369
v -12.25235 0.2239514 7.946113
v -13.47674 1.586294 8.708015
v -12.29474 -0.5514174 -10.9202
v -12.50436 -3.207053 -10.50955
v -17.95497 -0.5002453 -14.6208
v -11.67574 2.23059 -11.91679
v -6.636577 -0.8019278 -7.54355
v -6.242644 2.472481 -8.127078
v -3.743057 2.099807 -12.26583
v -16.04351 1.050369 -16.07022
v -9.243195 1.974924 -15.68693
v -2.117038 0.7307563 -14.92973
v -18.32281 -4.184361 -16.17526
v -15.16655 0.9213226 -18.55947
v -14.28762 0.343874 -22.26113
v 3.48671 0.5518355 -11.41668
v 1.907645 1.790481 -8.748616
v -0.2183805 2.103852 -5.298255
v -0.8925174 -0.8066798 -4.12383
v -1.04645 -3.254592 -3.782091
v 4.505631 -0.7233096 -0.817917
v 5.051145 1.007522 -2.873193
v 6.676571 1.059704 -4.993833
v 9.65279 0.3350603 -7.575338
v 5.707298 -3.649143 -0.7422754
v -7.667821 0.5723872 -18.33597
v -6.980586 -3.483917 -7.154273
v 6.676571 1.059704 -4.993833
v 4.505631 -0.7233096 -0.817917
v 5.051145 1.007522 -2.873193
v 5.707298 -3.649143 -0.7422754
v 9.65279 0.3350603 -7.575338
v -14.28762 0.343874 -22.26113
v -15.16655 0.9213226 -18.55947
v -18.32281 -4.184361 -16.17526
v -17.95497 -0.5002453 -14.6208
v -16.04351 1.050369 -16.07022
v 2.629847 1.711089 6.845661
v -2.826298 -0.1158055 5.469489
v -0.1974736 2.131067 5.366282
v -3.093114 -3.659205 6.56624
v 5.120914 0.005252898 7.58581
v 2.629847 1.711089 6.845661
v 6.033703 1.35426 -4.041564
v 5.120914 0.005252898 7.58581
v -0.1974736 2.131067 5.366282
v 1.994777 1.310512 -3.922966
v 8.042932 0.189105 -3.98977
v -3.093114 -3.659205 6.56624
v -1.578212 -4.314219 -5.832736
v -2.826298 -0.1158055 5.469489
v -1.052924 -0.6606955 -4.734652
v -0.1974736 2.131067 5.366282
v 1.994777 1.310512 -3.922966
v -1.052924 -0.6606955 -4.734652
v -1.578212 -4.314219 -5.832736
v 6.033703 1.35426 -4.041564
v 1.994777 1.310512 -3.922966
v 8.042932 0.189105 -3.98977
v -5.349467 0.370962 6.212261
v -6.886122 -0.8750482 3.011744
v -5.839837 0.6204672 4.240672
v -7.365029 -3.170065 3.323824
v -4.589008 -0.6756598 7.707191
v -5.349467 0.370962 6.212261
v 1.291266 0.6300818 3.294205
v -4.589008 -0.6756598 7.707191
v -5.839837 0.6204672 4.240672
v -0.4479066 0.4961835 1.406863
v 2.155976 -0.06038838 4.273292
v -7.365029 -3.170065 3.323824
v -0.7760822 -3.092223 -1.133081
v -6.886122 -0.8750482 3.011744
v -1.243646 -0.8014094 -0.403719
v -5.839837 0.6204672 4.240672
v -0.4479066 0.4961835 1.406863
v -1.243646 -0.8014094 -0.403719
v -0.7760822 -3.092223 -1.133081
v 1.291266 0.6300818 3.294205
v -0.4479066 0.4961835 1.406863
v 2.155976 -0.06038838 4.273292
v -3.573503 -0.4786215 3.596255
v -3.695443 -2.695692 3.587714
v 1.99427 -0.6408675 3.488706
v -3.45219 1.938957 4.16815
v -8.994063 -0.4468656 3.947711
v -8.899542 2.307818 4.071996
v -8.672605 2.657709 8.045052
v 1.416914 0.9499063 5.123662
v -3.348691 2.34125 7.846978
v -8.568956 1.967824 10.76451
v 2.869061 -3.517288 4.868445
v 1.980821 1.175103 7.21403
v 3.097211 1.154559 10.18098
v -14.01435 2.038991 10.9897
v -14.15534 2.627273 8.30672
v -14.31584 2.33355 4.974854
v -14.48629 -0.2112049 4.275886
v -14.60816 -2.247354 4.310674
v -19.68839 0.07260287 4.510404
v -19.05162 1.732538 5.903554
v -19.16246 2.143588 8.063538
v -19.9954 2.103503 11.25649
v -20.6184 -2.190491 5.408665
v -3.218545 1.617681 10.5379
v -9.015605 -2.696647 3.895723
v -20.6184 -2.190491 5.408665
v -19.16246 2.143588 8.063538
v -19.68839 0.07260287 4.510404
v -19.05162 1.732538 5.903554
v 1.99427 -0.6408675 3.488706
v 2.869061 -3.517288 4.868445
v 1.416914 0.9499063 5.123662
v 1.980821 1.175103 7.21403
v 3.097211 1.154559 10.18098
v -19.9954 2.103503 11.25649

vn 0.525639 0.05344658 -0.8490272
vn 0.5385859 -0.106139 -0.8358586
vn 0.9120018 0.2142366 -0.3497933
vn 0.4096111 0.7345183 -0.5410192
vn 0.4972984 -0.02322197 -0.8672686
vn 0.345268 0.6596721 -0.6675499
vn -0.05440713 0.9984878 -0.007859237
vn 0.5586103 0.8223 -0.1085235
vn 0.02504547 0.999549 0.01656001
vn -0.1394172 0.9796817 0.1441743
vn 0.9887949 -0.01550248 -0.1484734
vn 0.5905755 0.8024566 0.08534698
vn 0.4548809 0.8845305 0.1033887
vn -0.150063 0.9832389 0.103548
vn -0.09683046 0.9927766 -0.07084002
vn 0.2031562 0.747844 -0.6320263
vn 0.4875404 0.05617106 -0.8712916
vn 0.4921584 -0.1044267 -0.8642194
vn -0.09534717 0.1722278 -0.9804317
vn -0.2679886 0.7118006 -0.6492473
vn -0.3876607 0.7788155 -0.4931183
vn -0.3535281 0.8704895 -0.3424413
vn -0.2585935 -0.0166386 -0.9658428
vn -0.1163456 0.9784304 0.1706963
vn 0.4960571 -0.03182757 -0.8677062
vn -0.3876607 0.7788155 -0.4931183
vn -0.09534717 0.1722278 -0.9804317
vn -0.2679886 0.7118006 -0.6492473
vn -0.2585935 -0.0166386 -0.9658428
vn -0.3535281 0.8704895 -0.3424413
vn 0.4548809 0.8845305 0.1033887
vn 0.5905755 0.8024566 0.08534698
vn 0.9887949 -0.01550248 -0.1484734
vn 0.9120018 0.2142366 -0.3497933
vn 0.5586103 0.8223 -0.1085235
vn -0.5199503 0.2683288 0.8109572
vn -0.5453694 0.1109505 0.8308201
vn -0.8924438 0.3513479 0.2830172
vn -0.3508289 0.8598664 0.3708759
vn -0.4977115 0.1951602 0.845101
vn -0.2925711 0.8081486 0.5111731
vn 0.1325358 0.9712758 -0.19763
vn -0.4924242 0.8673049 -0.07280682
vn 0.05341456 0.9733447 -0.2230405
vn 0.2158311 0.9149183 -0.3410884
vn -0.9869869 0.09146585 0.1322531
vn -0.5258194 0.8102386 -0.2588969
vn -0.3841041 0.8761413 -0.291274
vn 0.2267172 0.9259878 -0.3019038
vn 0.1743717 0.9755002 -0.1341411
vn -0.1439778 0.8758848 0.4605391
vn -0.4817585 0.2726769 0.8328001
vn -0.4989547 0.1149357 0.8589727
vn 0.1084193 0.3637782 0.9251544
vn 0.3228874 0.8081698 0.4925497
vn 0.4474683 0.8320066 0.3279286
vn 0.4206509 0.8928173 0.1610286
vn 0.2563549 0.1640369 0.9525618
vn 0.1927362 0.9099727 -0.3671547
vn -0.497149 0.1867626 0.8473267
vn 0.4474683 0.8320066 0.3279286
vn 0.1084193 0.3637782 0.9251544
vn 0.3228874 0.8081698 0.4925497
vn 0.2563549 0.1640369 0.9525618
vn 0.4206509 0.8928173 0.1610286
vn -0.3841041 0.8761413 -0.291274
vn -0.5258194 0.8102386 -0.2588969
vn -0.9869869 0.09146585 0.1322531
vn -0.8924438 0.3513479 0.2830172
vn -0.4924242 0.8673049 -0.07280682
vn 0.08008378 0.7612041 0.6435485
vn -0.8116152 0.4550169 0.3663888
vn -0.350717 0.881226 0.3169204
vn -0.8635039 0.1807401 0.4708442
vn 0.3136975 0.7295046 0.6077965
vn 0.08008378 0.7612041 0.6435485
vn 0.2727388 0.7820909 -0.5603105
vn 0.3136975 0.7295046 0.6077965
vn -0.350717 0.881226 0.3169204
vn -0.1772019 0.8256834 -0.5355806
vn 0.4595417 0.7730372 -0.4373047
vn -0.8635039 0.1807401 0.4708442
vn -0.6952414 0.2614651 -0.6695337
vn -0.8116152 0.4550169 0.3663888
vn -0.5808531 0.5133473 -0.6317312
vn -0.350717 0.881226 0.3169204
vn -0.1772019 0.8256834 -0.5355806
vn -0.5808531 0.5133473 -0.6317312
vn -0.6952414 0.2614651 -0.6695337
vn 0.2727388 0.7820909 -0.5603105
vn -0.1772019 0.8256834 -0.5355806
vn 0.4595417 0.7730372 -0.4373047
vn -0.484235 0.7253583 0.4892562
vn -0.8392992 0.4005877 -0.3675684
vn -0.5295252 0.8468702 -0.04913419
vn -0.9327746 0.1188979 -0.3402861
vn -0.3019628 0.7050578 0.6416476
vn -0.484235 0.7253583 0.4892562
vn 0.5456759 0.8233247 -0.1561234
vn -0.3019628 0.7050578 0.6416476
vn -0.5295252 0.8468702 -0.04913419
vn 0.2290083 0.8475531 -0.4787579
vn 0.576327 0.8145946 0.06544378
vn -0.9327746 0.1188979 -0.3402861
vn 0.0292555 0.2719244 -0.9618738
vn -0.8392992 0.4005877 -0.3675684
vn 0.05832607 0.5255389 -0.848768
vn -0.5295252 0.8468702 -0.04913419
vn 0.2290083 0.8475531 -0.4787579
vn 0.05832607 0.5255389 -0.848768
vn 0.0292555 0.2719244 -0.9618738
vn 0.5456759 0.8233247 -0.1561234
vn 0.2290083 0.8475531 -0.4787579
vn 0.576327 0.8145946 0.06544378
vn -0.02267434 0.105615 -0.9941486
vn -0.01821222 -0.05491923 -0.9983247
vn 0.5859234 0.2047944 -0.7840619
vn 0.1070777 0.7611396 -0.6396882
vn -0.0627533 0.03215491 -0.9975109
vn -0.02210425 0.7006254 -0.7131869
vn 0.03502977 0.9966827 0.0734604
vn 0.4753394 0.8038088 -0.3576925
vn 0.1146347 0.992151 0.04995175
vn 0.04589571 0.9681866 0.2459842
vn 0.7405993 -0.04495091 -0.6704417
vn 0.6064066 0.765533 -0.2150122
vn 0.5102708 0.8514665 -0.1209484
vn 0.01509289 0.9757795 0.2182351
vn -0.03525256 0.9984006 0.04419642
vn -0.113495 0.7913576 -0.6007263
vn -0.06635047 0.1119393 -0.9914975
vn -0.07224575 -0.0487036 -0.9961971
vn -0.6015333 0.2622335 -0.7545803
vn -0.5182179 0.7773383 -0.3566446
vn -0.526693 0.8353795 -0.1572754
vn -0.4080165 0.9118071 -0.04615645
vn -0.7454606 0.08003604 -0.661727
vn 0.07951724 0.9636 0.2552492
vn -0.06475566 0.02368334 -0.99762
vn -0.7454606 0.08003604 -0.661727
vn -0.526693 0.8353795 -0.1572754
vn -0.6015333 0.2622335 -0.7545803
vn -0.5182179 0.7773383 -0.3566446
vn 0.5859234 0.2047944 -0.7840619
vn 0.7405993 -0.04495091 -0.6704417
vn 0.4753394 0.8038088 -0.3576925
vn 0.6064066 0.765533 -0.2150122
vn 0.5102708 0.8514665 -0.1209484
vn -0.4080165 0.9118071 -0.04615645

vt 0.773393 0.217223
vt 0.773393 7.1E-05
vt 1.29675 0.217223
vt 0.773393 0.709375
vt 0.250036 0.217223
vt 0.250036 0.709375
vt 0.250035 0.923011
vt 1.29675 0.709375
vt 0.773393 0.923012
vt 0.250035 0.999929
vt 1.29675 7.1E-05
vt 1.29675 0.923012
vt 1.29675 0.999929
vt -0.273322 0.999929
vt -0.273322 0.923011
vt -0.273322 0.709375
vt -0.273322 0.217223
vt -0.273322 7.1E-05
vt -0.796679 0.217223
vt -0.796679 0.709375
vt -0.796679 0.923011
vt -0.796679 0.999929
vt -0.796679 7.1E-05
vt 0.773392 0.999929
vt 0.250036 7.1E-05
vt 0.633554 0.732983
vt 0.082263 0.37865
vt 0.291746 0.667745
vt 0.237586 -0.00292
vt 1.122423 0.712588
vt -0.01884 0.839844
vt 0.371397 0.863954
vt 0.7036 0.016282
vt 0.909623 0.175038
vt 0.729075 0.713717
vt 0.773393 0.217223
vt 0.773393 7.1E-05
vt 1.29675 0.217223
vt 0.773393 0.709375
vt 0.250036 0.217223
vt 0.250036 0.709375
vt 0.250035 0.923011
vt 1.29675 0.709375
vt 0.773393 0.923012
vt 0.250035 0.999929
vt 1.29675 7.1E-05
vt 1.29675 0.923012
vt 1.29675 0.999929
vt -0.273322 0.999929
vt -0.273322 0.923011
vt -0.273322 0.709375
vt -0.273322 0.217223
vt -0.273322 7.1E-05
vt -0.796679 0.217223
vt -0.796679 0.709375
vt -0.796679 0.923011
vt -0.796679 0.999929
vt -0.796679 7.1E-05
vt 0.773392 0.999929
vt 0.250036 7.1E-05
vt 0.633554 0.732983
vt 0.082263 0.37865
vt 0.291746 0.667745
vt 0.237586 -0.00292
vt 1.122423 0.712588
vt -0.01884 0.839844
vt 0.371397 0.863954
vt 0.7036 0.016282
vt 0.909623 0.175038
vt 0.729075 0.713717
vt 0.633554 0.732983
vt 0.082263 0.37865
vt 0.291746 0.667745
vt 0.237586 -0.00292
vt 1.122423 0.712588
vt -0.216816 0.849574
vt 0.593709 0.849574
vt -0.222631 0.999929
vt -0.150031 0.709375
vt 0.523973 0.709375
vt 0.590584 0.999929
vt -0.234889 7.1E-05
vt 0.590585 7.1E-05
vt -0.15592 0.217223
vt 0.523973 0.217223
vt -0.150031 0.709375
vt 0.523973 0.709375
vt 0.909623 0.175038
vt 0.7036 0.016282
vt 0.371397 0.863954
vt 0.729075 0.713717
vt -0.01884 0.839844
vt 0.633554 0.732983
vt 0.082263 0.37865
vt 0.291746 0.667745
vt 0.237586 -0.00292
vt 1.122423 0.712588
vt -0.216816 0.849574
vt 0.593709 0.849574
vt -0.222631 0.999929
vt -0.150031 0.709375
vt 0.523973 0.709375
vt 0.590584 0.999929
vt -0.234889 7.1E-05
vt 0.590585 7.1E-05
vt -0.15592 0.217223
vt 0.523973 0.217223
vt -0.150031 0.709375
vt 0.523973 0.709375
vt 0.909623 0.175038
vt 0.7036 0.016282
vt 0.371397 0.863954
vt 0.729075 0.713717
vt -0.01884 0.839844
vt 0.773393 0.217223
vt 0.773393 7.1E-05
vt 1.29675 0.217223
vt 0.773393 0.709375
vt 0.250036 0.217223
vt 0.250036 0.709375
vt 0.250035 0.923011
vt 0.729075 0.713717
vt 0.773393 0.923012
vt 0.250035 0.999929
vt 1.29675 7.1E-05
vt 0.371397 0.863954
vt -0.01884 0.839844
vt -0.273322 0.999929
vt -0.273322 0.923011
vt -0.273322 0.709375
vt -0.273322 0.217223
vt -0.273322 7.1E-05
vt -0.796679 0.217223
vt -0.796679 0.709375
vt -0.796679 0.923011
vt 1.122423 0.712588
vt -0.796679 7.1E-05
vt 0.773392 0.999929
vt 0.250036 7.1E-05
vt 0.237586 -0.00292
vt 0.633554 0.732983
vt 0.082263 0.37865
vt 0.291746 0.667745
vt 0.909623 0.175038
vt 0.7036 0.016282
vt 1.29675 0.709375
vt 1.29675 0.923012
vt 1.29675 0.999929
vt -0.796679 0.999929

vt1 0.2896103 0.378613
vt1 0.2735092 0.4736551
vt1 0.1170938 0.3363153
vt1 0.2994264 0.2812851
vt1 0.508964 0.3968944
vt1 0.5060386 0.2874025
vt1 0.5015095 0.1240579
vt1 0.1329921 0.2697307
vt1 0.285057 0.1386918
vt1 0.498345 0.00390625
vt1 0.006121434 0.3982771
vt1 0.08744048 0.2070304
vt1 0.00390625 0.1054685
vt1 0.7410653 0.01551431
vt1 0.7273539 0.1313095
vt1 0.7168595 0.2660618
vt1 0.7340955 0.3711688
vt1 0.7554465 0.4577636
vt1 0.9035308 0.3219224
vt1 0.8820764 0.2558505
vt1 0.9156494 0.1861027
vt1 0.9955254 0.07421698
vt1 0.9955254 0.3715052
vt1 0.2617481 0.02682776
vt1 0.5086909 0.4929966
vt1 0.9156494 0.1861027
vt1 0.9035308 0.3219224
vt1 0.8820764 0.2558505
vt1 0.9955254 0.3715052
vt1 0.9955254 0.07421698
vt1 0.00390625 0.1054685
vt1 0.08744048 0.2070304
vt1 0.006121434 0.3982771
vt1 0.1170938 0.3363153
vt1 0.1329921 0.2697307
vt1 0.2896103 0.378613
vt1 0.2735092 0.4736551
vt1 0.1170938 0.3363153
vt1 0.2994264 0.2812851
vt1 0.508964 0.3968944
vt1 0.5060386 0.2874025
vt1 0.5015095 0.1240579
vt1 0.1329921 0.2697307
vt1 0.285057 0.1386918
vt1 0.498345 0.00390625
vt1 0.006121434 0.3982771
vt1 0.08744048 0.2070304
vt1 0.00390625 0.1054685
vt1 0.7410653 0.01551431
vt1 0.7273539 0.1313095
vt1 0.7168595 0.2660618
vt1 0.7340955 0.3711688
vt1 0.7554465 0.4577636
vt1 0.9035308 0.3219224
vt1 0.8820764 0.2558505
vt1 0.9156494 0.1861027
vt1 0.9955254 0.07421698
vt1 0.9955254 0.3715052
vt1 0.2617481 0.02682776
vt1 0.5086909 0.4929966
vt1 0.9156494 0.1861027
vt1 0.9035308 0.3219224
vt1 0.8820764 0.2558505
vt1 0.9955254 0.3715052
vt1 0.9955254 0.07421698
vt1 0.00390625 0.1054685
vt1 0.08744048 0.2070304
vt1 0.006121434 0.3982771
vt1 0.1170938 0.3363153
vt1 0.1329921 0.2697307
vt1 0.1817665 0.4382719
vt1 0.3893451 0.1889124
vt1 0.3626887 0.366715
vt1 0.2983751 0.00390625
vt1 0.00390625 0.4305609
vt1 0.0308739 0.6853094
vt1 0.6189572 0.7992942
vt1 0.00390625 0.8675584
vt1 0.1025884 0.5090651
vt1 0.6294954 0.5990852
vt1 0.6526414 0.922691
vt1 0.2983751 0.00390625
vt1 0.9973108 0.00390625
vt1 0.3893451 0.1889124
vt1 0.9205126 0.2222382
vt1 0.3626887 0.366715
vt1 0.884671 0.4228909
vt1 0.7622571 0.4421781
vt1 0.988024 0.4421781
vt1 0.6189572 0.7992942
vt1 0.6294954 0.5990852
vt1 0.6526414 0.922691
vt1 0.1817665 0.4382719
vt1 0.3893451 0.1889124
vt1 0.3626887 0.366715
vt1 0.2983751 0.00390625
vt1 0.00390625 0.4305609
vt1 0.0308739 0.6853094
vt1 0.6189572 0.7992942
vt1 0.00390625 0.8675584
vt1 0.1025884 0.5090651
vt1 0.6294954 0.5990852
vt1 0.6526414 0.922691
vt1 0.2983751 0.00390625
vt1 0.9973108 0.00390625
vt1 0.3893451 0.1889124
vt1 0.9205126 0.2222382
vt1 0.3626887 0.366715
vt1 0.884671 0.4228909
vt1 0.7622571 0.4421781
vt1 0.988024 0.4421781
vt1 0.6189572 0.7992942
vt1 0.6294954 0.5990852
vt1 0.6526414 0.922691
vt1 0 0
vt1 0 0
vt1 0 0
vt1 0 0
vt1 0 0
vt1 0 0
vt1 0 0
vt1 0 0
vt1 0 0
vt1 0 0
vt1 0 0
vt1 0 0
vt1 0 0
vt1 0 0
vt1 0 0
vt1 0 0
vt1 0 0
vt1 0 0
vt1 0 0
vt1 0 0
vt1 0 0
vt1 0 0
vt1 0 0
vt1 0 0
vt1 0 0
vt1 0 0
vt1 0 0
vt1 0 0
vt1 0 0
vt1 0 0
vt1 0 0
vt1 0 0
vt1 0 0
vt1 0 0
vt1 0 0

vt2 0.2896103 0.378613
vt2 0.2735092 0.4736551
vt2 0.1170938 0.3363153
vt2 0.2994264 0.2812851
vt2 0.508964 0.3968944
vt2 0.5060386 0.2874025
vt2 0.5015095 0.1240579
vt2 0.1329921 0.2697307
vt2 0.285057 0.1386918
vt2 0.498345 0.00390625
vt2 0.006121434 0.3982771
vt2 0.08744048 0.2070304
vt2 0.00390625 0.1054685
vt2 0.7410653 0.01551431
vt2 0.7273539 0.1313095
vt2 0.7168595 0.2660618
vt2 0.7340955 0.3711688
vt2 0.7554465 0.4577636
vt2 0.9035308 0.3219224
vt2 0.8820764 0.2558505
vt2 0.9156494 0.1861027
vt2 0.9955254 0.07421698
vt2 0.9955254 0.3715052
vt2 0.2617481 0.02682776
vt2 0.5086909 0.4929966
vt2 0.9156494 0.1861027
vt2 0.9035308 0.3219224
vt2 0.8820764 0.2558505
vt2 0.9955254 0.3715052
vt2 0.9955254 0.07421698
vt2 0.00390625 0.1054685
vt2 0.08744048 0.2070304
vt2 0.006121434 0.3982771
vt2 0.1170938 0.3363153
vt2 0.1329921 0.2697307
vt2 0.2896103 0.378613
vt2 0.2735092 0.4736551
vt2 0.1170938 0.3363153
vt2 0.2994264 0.2812851
vt2 0.508964 0.3968944
vt2 0.5060386 0.2874025
vt2 0.5015095 0.1240579
vt2 0.1329921 0.2697307
vt2 0.285057 0.1386918
vt2 0.498345 0.00390625
vt2 0.006121434 0.3982771
vt2 0.08744048 0.2070304
vt2 0.00390625 0.1054685
vt2 0.7410653 0.01551431
vt2 0.7273539 0.1313095
vt2 0.7168595 0.2660618
vt2 0.7340955 0.3711688
vt2 0.7554465 0.4577636
vt2 0.9035308 0.3219224
vt2 0.8820764 0.2558505
vt2 0.9156494 0.1861027
vt2 0.9955254 0.07421698
vt2 0.9955254 0.3715052
vt2 0.2617481 0.02682776
vt2 0.5086909 0.4929966
vt2 0.9156494 0.1861027
vt2 0.9035308 0.3219224
vt2 0.8820764 0.2558505
vt2 0.9955254 0.3715052
vt2 0.9955254 0.07421698
vt2 0.00390625 0.1054685
vt2 0.08744048 0.2070304
vt2 0.006121434 0.3982771
vt2 0.1170938 0.3363153
vt2 0.1329921 0.2697307
vt2 0.1817665 0.4382719
vt2 0.3893451 0.1889124
vt2 0.3626887 0.366715
vt2 0.2983751 0.00390625
vt2 0.00390625 0.4305609
vt2 0.0308739 0.6853094
vt2 0.6189572 0.7992942
vt2 0.00390625 0.8675584
vt2 0.1025884 0.5090651
vt2 0.6294954 0.5990852
vt2 0.6526414 0.922691
vt2 0.2983751 0.00390625
vt2 0.9973108 0.00390625
vt2 0.3893451 0.1889124
vt2 0.9205126 0.2222382
vt2 0.3626887 0.366715
vt2 0.884671 0.4228909
vt2 0.7622571 0.4421781
vt2 0.988024 0.4421781
vt2 0.6189572 0.7992942
vt2 0.6294954 0.5990852
vt2 0.6526414 0.922691
vt2 0.1817665 0.4382719
vt2 0.3893451 0.1889124
vt2 0.3626887 0.366715
vt2 0.2983751 0.00390625
vt2 0.00390625 0.4305609
vt2 0.0308739 0.6853094
vt2 0.6189572 0.7992942
vt2 0.00390625 0.8675584
vt2 0.1025884 0.5090651
vt2 0.6294954 0.5990852
vt2 0.6526414 0.922691
vt2 0.2983751 0.00390625
vt2 0.9973108 0.00390625
vt2 0.3893451 0.1889124
vt2 0.9205126 0.2222382
vt2 0.3626887 0.366715
vt2 0.884671 0.4228909
vt2 0.7622571 0.4421781
vt2 0.988024 0.4421781
vt2 0.6189572 0.7992942
vt2 0.6294954 0.5990852
vt2 0.6526414 0.922691
vt2 0 0
vt2 0 0
vt2 0 0
vt2 0 0
vt2 0 0
vt2 0 0
vt2 0 0
vt2 0 0
vt2 0 0
vt2 0 0
vt2 0 0
vt2 0 0
vt2 0 0
vt2 0 0
vt2 0 0
vt2 0 0
vt2 0 0
vt2 0 0
vt2 0 0
vt2 0 0
vt2 0 0
vt2 0 0
vt2 0 0
vt2 0 0
vt2 0 0
vt2 0 0
vt2 0 0
vt2 0 0
vt2 0 0
vt2 0 0
vt2 0 0
vt2 0 0
vt2 0 0
vt2 0 0
vt2 0 0


usemtl MEP_DirtEdge_01
usemap MEP_DirtEdge_01
f 20/20/20 21/21/21 15/15/15
f 20/20/20 15/15/15 16/16/16
f 16/16/16 15/15/15 7/7/7
f 16/16/16 7/7/7 6/6/6
f 6/6/6 7/7/7 4/4/4
f 6/6/6 4/4/4 1/1/1
f 1/1/1 4/4/4 3/3/3
f 1/1/1 3/3/3 2/2/2
f 2/2/2 3/3/3 11/11/11
f 6/6/6 1/1/1 5/5/5
f 6/6/6 5/5/5 17/17/17
f 17/17/17 5/5/5 18/18/18
f 17/17/17 18/18/18 19/19/19
f 19/19/19 18/18/18 23/23/23
f 29/29/29 30/30/30 26/26/26
f 29/29/29 26/26/26 27/27/27
f 27/27/27 26/26/26 28/28/28
f 34/34/34 35/35/35 32/32/32
f 34/34/34 32/32/32 33/33/33
f 33/33/33 32/32/32 31/31/31
f 55/55/55 56/56/56 50/50/50
f 55/55/55 50/50/50 51/51/51
f 51/51/51 50/50/50 42/42/42
f 51/51/51 42/42/42 41/41/41
f 41/41/41 42/42/42 39/39/39
f 41/41/41 39/39/39 36/36/36
f 36/36/36 39/39/39 38/38/38
f 36/36/36 38/38/38 37/37/37
f 37/37/37 38/38/38 46/46/46
f 41/41/41 36/36/36 40/40/40
f 41/41/41 40/40/40 52/52/52
f 52/52/52 40/40/40 53/53/53
f 52/52/52 53/53/53 54/54/54
f 54/54/54 53/53/53 58/58/58
f 64/64/64 65/65/65 61/61/61
f 64/64/64 61/61/61 62/62/62
f 62/62/62 61/61/61 63/63/63
f 69/69/69 70/70/70 67/67/67
f 69/69/69 67/67/67 68/68/68
f 68/68/68 67/67/67 66/66/66
f 74/74/74 75/75/75 71/71/71
f 74/74/74 71/71/71 72/72/72
f 72/72/72 71/71/71 73/73/73
f 76/76/76 78/78/78 77/77/77
f 76/76/76 77/77/77 79/79/79
f 79/79/79 77/77/77 80/80/80
f 78/78/78 81/81/81 77/77/77
f 86/86/86 87/87/87 85/85/85
f 86/86/86 85/85/85 84/84/84
f 84/84/84 85/85/85 83/83/83
f 84/84/84 83/83/83 82/82/82
f 88/88/88 91/91/91 90/90/90
f 88/88/88 90/90/90 89/89/89
f 89/89/89 90/90/90 92/92/92
f 96/96/96 97/97/97 93/93/93
f 96/96/96 93/93/93 94/94/94
f 94/94/94 93/93/93 95/95/95
f 98/98/98 100/100/100 99/99/99
f 98/98/98 99/99/99 101/101/101
f 101/101/101 99/99/99 102/102/102
f 100/100/100 103/103/103 99/99/99
f 108/108/108 109/109/109 107/107/107
f 108/108/108 107/107/107 106/106/106
f 106/106/106 107/107/107 105/105/105
f 106/106/106 105/105/105 104/104/104
f 110/110/110 113/113/113 112/112/112
f 110/110/110 112/112/112 111/111/111
f 111/111/111 112/112/112 114/114/114
f 134/134/134 135/135/135 129/129/129
f 134/134/134 129/129/129 130/130/130
f 130/130/130 129/129/129 121/121/121
f 130/130/130 121/121/121 120/120/120
f 120/120/120 121/121/121 118/118/118
f 120/120/120 118/118/118 115/115/115
f 115/115/115 118/118/118 117/117/117
f 115/115/115 117/117/117 116/116/116
f 116/116/116 117/117/117 125/125/125
f 120/120/120 115/115/115 119/119/119
f 120/120/120 119/119/119 131/131/131
f 131/131/131 119/119/119 132/132/132
f 131/131/131 132/132/132 133/133/133
f 133/133/133 132/132/132 137/137/137
f 140/140/140 136/136/136 141/141/141
f 140/140/140 141/141/141 142/142/142
f 142/142/142 141/141/141 143/143/143
f 144/144/144 122/122/122 126/126/126
f 144/144/144 126/126/126 145/145/145
f 145/145/145 126/126/126 127/127/127
f 8/8/8 3/3/3 4/4/4
f 8/8/8 4/4/4 9/9/9
f 9/9/9 4/4/4 7/7/7
f 9/9/9 7/7/7 10/10/10
f 10/10/10 7/7/7 14/14/14
f 12/12/12 8/8/8 9/9/9
f 12/12/12 9/9/9 13/13/13
f 13/13/13 9/9/9 24/24/24
f 19/19/19 20/20/20 16/16/16
f 19/19/19 16/16/16 17/17/17
f 17/17/17 16/16/16 6/6/6
f 14/14/14 7/7/7 15/15/15
f 14/14/14 15/15/15 22/22/22
f 22/22/22 15/15/15 21/21/21
f 10/10/10 24/24/24 9/9/9
f 25/25/25 18/18/18 5/5/5
f 25/25/25 5/5/5 2/2/2
f 2/2/2 5/5/5 1/1/1
f 43/43/43 38/38/38 39/39/39
f 43/43/43 39/39/39 44/44/44
f 44/44/44 39/39/39 42/42/42
f 44/44/44 42/42/42 45/45/45
f 45/45/45 42/42/42 49/49/49
f 47/47/47 43/43/43 44/44/44
f 47/47/47 44/44/44 48/48/48
f 48/48/48 44/44/44 59/59/59
f 54/54/54 55/55/55 51/51/51
f 54/54/54 51/51/51 52/52/52
f 52/52/52 51/51/51 41/41/41
f 49/49/49 42/42/42 50/50/50
f 49/49/49 50/50/50 57/57/57
f 57/57/57 50/50/50 56/56/56
f 45/45/45 59/59/59 44/44/44
f 60/60/60 53/53/53 40/40/40
f 60/60/60 40/40/40 37/37/37
f 37/37/37 40/40/40 36/36/36
f 146/146/146 117/117/117 118/118/118
f 146/146/146 118/118/118 123/123/123
f 123/123/123 118/118/118 121/121/121
f 123/123/123 121/121/121 124/124/124
f 124/124/124 121/121/121 128/128/128
f 147/147/147 146/146/146 123/123/123
f 147/147/147 123/123/123 148/148/148
f 148/148/148 123/123/123 138/138/138
f 133/133/133 134/134/134 130/130/130
f 133/133/133 130/130/130 131/131/131
f 131/131/131 130/130/130 120/120/120
f 128/128/128 121/121/121 129/129/129
f 128/128/128 129/129/129 149/149/149
f 149/149/149 129/129/129 135/135/135
f 138/138/138 123/123/123 124/124/124
f 139/139/139 132/132/132 119/119/119
f 139/139/139 119/119/119 116/116/116
f 116/116/116 119/119/119 115/115/115

