g NewMesh_tris_143
v -2.990927 -3.2785 3.080645
v -4.14252 -5.376062 5.413606
v -5.704583 -2.662365 1.175719
v -2.647219 -5.315801 0.3154591
v -2.226851 -6.078104 3.026234
v -7.570554 -4.625711 2.855887
v -6.559253 -5.241754 -0.2681815
v -6.197201 -7.076149 0.999321
v -7.570554 -4.625711 2.855887
v -4.14252 -5.376062 5.413606
v -6.559253 -5.241754 -0.2681815
v -3.623276 -7.58122 1.72725
v -2.647219 -5.315801 0.3154591
v -2.226851 -6.078104 3.026234
v 3.643249 0.0705222 -7.34054
v 1.00735 -0.8550634 -5.553368
v 3.009532 3.278362 -8.052844
v 2.433674 0.06533213 -10.54531
v 1.678831 -1.703891 -8.475816
v 0.2014304 3.247376 -6.597332
v 0.5733682 3.458746 -9.885058
v -0.9412721 1.872874 -9.42045
v 0.2014304 3.247376 -6.597332
v 1.00735 -0.8550634 -5.553368
v 0.5733682 3.458746 -9.885058
v -0.1434167 -0.6941656 -9.686946
v 2.433674 0.06533213 -10.54531
v 1.678831 -1.703891 -8.475816
v -3.991793 0.6881658 -1.836928
v -5.08358 2.028768 -3.866591
v -2.042537 2.332804 -0.9802284
v -1.668257 -0.3024341 -2.934049
v -3.645548 -0.01750185 -4.01507
v -2.504098 4.06979 -2.779202
v -0.3201495 2.543019 -2.716847
v -1.026764 2.491603 -4.373907
v -2.504098 4.06979 -2.779202
v -5.08358 2.028768 -3.866591
v -0.3201495 2.543019 -2.716847
v -2.089377 0.6819403 -4.932853
v -1.668257 -0.3024341 -2.934049
v -3.645548 -0.01750185 -4.01507
v -0.1001486 0.3785976 0.1166518
v -0.3348923 0.06206628 -0.6642957
v 0.2358767 0.2838385 0.1359037
v -0.3509766 -0.5076585 0.5433171
v -0.7506128 -0.1574069 -0.004951794
v 0.6812134 -0.2887927 -0.6205712
v 0.6750911 -0.6717001 0.2644058
v 2.733495 -4.614736 4.833364
v 2.664301 -4.861017 3.905622
v 3.112741 -4.636178 4.894164
v 2.652338 -5.691773 5.117234
v 2.201838 -5.317448 4.515106
v 3.830048 -4.991093 4.064054
v 3.818043 -5.561958 4.958157
v -1.960606 1.026768 -0.7255577
v -2.491598 -0.07717824 -0.6307568
v -2.11144 1.175502 -1.168664
v -0.8315363 0.4190552 -1.349103
v -1.363986 0.01234411 -0.511685
v -2.928151 0.3017286 -2.026997
v -1.734525 0.7005712 -2.527685
v 0.4780387 0.251087 -3.504195
v -0.1105315 0.2479606 -2.03425
v 0.2355809 1.392962 -3.280209
v -0.9252744 0.926052 -4.288492
v -0.0649828 1.410351 -2.425336
v -0.0649828 1.410351 -2.425336
v -0.5189105 1.81761 -3.153754
v -0.9374486 1.466815 -2.815609
v -1.81862 0.8393128 -2.717616
v -0.9252744 0.926052 -4.288492
v -0.9252744 0.926052 -4.288492
v -0.1105315 0.2479606 -2.03425
v -0.0649828 1.410351 -2.425336
v 1.763552 -0.4368022 -5.631573
v 1.885198 -1.090952 -3.842178
v 2.735104 0.4115923 -5.006962
v 1.147053 1.512964 -5.144191
v 2.852179 0.01873663 -3.994
v 2.852179 0.01873663 -3.994
v 2.657401 1.12226 -4.23119
v 2.167592 0.892514 -3.677063
v 1.018984 0.9210954 -3.048583
v 1.147053 1.512964 -5.144191
v 1.147053 1.512964 -5.144191
v 1.885198 -1.090952 -3.842178
v 2.852179 0.01873663 -3.994
v -3.9389 -5.462337 4.401185
v -2.348146 -5.391068 5.413404
v -3.951752 -4.173122 4.987683
v -5.252564 -5.164934 5.983146
v -3.022353 -4.098801 5.532794
v -3.022353 -4.098801 5.532794
v -4.034884 -3.857697 5.97799
v -3.654492 -4.317819 6.45699
v -3.587193 -5.252873 7.349453
v -5.252564 -5.164934 5.983146
v -5.252564 -5.164934 5.983146
v -2.348146 -5.391068 5.413404
v -3.022353 -4.098801 5.532794
v 7.29381 -4.584813 2.670663
v 8.502212 -4.925581 4.06199
v 7.055652 -3.556669 3.600911
v 5.572151 -4.730233 3.799064
v 7.773859 -3.710451 4.382737
v 7.773859 -3.710451 4.382737
v 6.673302 -3.567461 4.563274
v 6.9128 -4.172271 4.956714
v 6.754164 -5.336434 5.478549
v 5.572151 -4.730233 3.799064
v 5.572151 -4.730233 3.799064
v 8.502212 -4.925581 4.06199
v 7.773859 -3.710451 4.382737
v 5.557852 -4.983747 1.058632
v 3.855942 -5.539701 2.950083
v 4.35292 -3.538684 0.8537011
v 3.677234 -5.088535 -0.9285469
v 3.169695 -3.871609 2.261086
v 2.040337 -4.770441 0.8594943
v 2.603237 -3.582972 0.4111434
v 1.581065 -6.334104 0.7456798
v 5.841759 -4.178369 -0.946294
v 4.304188 -4.176765 -1.962825
v 5.839978 -2.906098 -1.365175
v 6.984116 -3.671533 -2.427148
v 4.70705 -2.873685 -2.046533
v 5.532547 -3.109095 -3.182557
v 5.924287 -2.45852 -2.558906
v 5.542885 -4.010113 -3.907013
v 8.684934 -3.915099 0.04742884
v 8.362574 -4.259574 1.880557
v 7.855195 -2.859848 0.3475302
v 6.762362 -4.0217 -0.4546941
v 7.666241 -3.058235 1.677656
v 6.436051 -3.734314 1.268215
v 6.605569 -2.88725 0.7465695
v 6.116795 -4.868769 1.41258
v -4.440345 -5.946637 0.9393108
v -5.25361 -5.881669 3.001388
v -5.046826 -4.453682 0.9553341
v -6.507159 -5.550837 -0.06399813
v -5.569471 -4.363441 2.455366
v -7.085922 -4.802774 1.790526
v -6.509564 -4.012963 1.125864
v -7.857378 -5.935923 2.026741

vn 0.5458869 0.7919291 0.2735979
vn 0.03283121 -0.08629455 0.9957286
vn -0.2228921 0.93458 -0.277271
vn 0.6805146 0.01894427 -0.7324896
vn 0.8981774 -0.3339813 0.2858909
vn -0.9083732 0.1404766 0.3938582
vn -0.5029721 -0.03357153 -0.8636504
vn -0.4651479 -0.8413904 -0.2751357
vn -0.9083732 0.1404766 0.3938582
vn 0.03283121 -0.08629455 0.9957286
vn -0.5029721 -0.03357153 -0.8636504
vn 0.2567073 -0.9565315 -0.1383787
vn 0.6805146 0.01894427 -0.7324896
vn 0.8981774 -0.3339813 0.2858909
vn 0.919835 -0.2137929 0.3289317
vn -0.1772493 -0.4743274 0.8623203
vn 0.7131793 0.6929824 0.1055958
vn 0.4543111 -0.236951 -0.8587524
vn 0.1426858 -0.9832092 -0.1137551
vn -0.3947725 0.6281401 0.6705183
vn -0.181963 0.7467977 -0.6396739
vn -0.9202189 0.1283507 -0.369761
vn -0.3947725 0.6281401 0.6705183
vn -0.1772493 -0.4743274 0.8623203
vn -0.181963 0.7467977 -0.6396739
vn -0.6640456 -0.5579735 -0.4977036
vn 0.4543111 -0.236951 -0.8587524
vn 0.1426858 -0.9832092 -0.1137551
vn -0.5893931 -0.4013624 0.7010877
vn -0.9164748 0.2568742 -0.3067406
vn 0.120159 0.1777717 0.9767082
vn 0.4743367 -0.8638435 0.1696443
vn -0.4600033 -0.7900056 -0.4053247
vn -0.1265863 0.9898024 0.06532343
vn 0.9596716 0.2247572 0.1688631
vn 0.5775996 0.3213798 -0.7503957
vn -0.1265863 0.9898024 0.06532343
vn -0.9164748 0.2568742 -0.3067406
vn 0.9596716 0.2247572 0.1688631
vn 0.2609207 -0.333243 -0.9060184
vn 0.4743367 -0.8638435 0.1696443
vn -0.4600033 -0.7900056 -0.4053247
vn -0.1296927 0.9430641 0.306284
vn -0.1086507 0.9290321 -0.3536867
vn 0.4870485 0.7948867 0.3618548
vn -0.08727605 0.4112715 0.907325
vn -0.6323224 0.6854756 0.3609591
vn 0.6948172 0.7079147 -0.1268293
vn 0.6734194 0.3936777 0.625719
vn -0.3879035 0.824726 0.4115312
vn -0.2911399 0.9277152 -0.2336286
vn 0.2362963 0.8102438 0.5363479
vn -0.2844445 0.2217787 0.9326873
vn -0.8158076 0.4563373 0.3552666
vn 0.5117594 0.8557292 0.07635306
vn 0.4841141 0.4218039 0.7666258
vn -0.06864761 0.736242 0.6732275
vn -0.5922758 0.337962 0.7314309
vn -0.2599593 0.9595094 0.1084569
vn 0.5933207 0.7745593 0.2191542
vn 0.3148487 0.3695083 0.8742619
vn -0.708954 0.7039981 -0.0420816
vn 0.01689922 0.9453288 -0.3256806
vn 0.9516965 0.239704 -0.1918746
vn 0.4560647 0.3163821 0.8318098
vn 0.8003597 0.5541114 -0.2288776
vn -0.05440018 0.7432904 -0.6667534
vn 0.4008633 0.5571641 0.7272392
vn 0.4008633 0.5571641 0.7272392
vn -0.06627949 0.9914891 -0.1120551
vn -0.5117157 0.7587841 0.4029811
vn -0.5428675 0.7419971 0.3933639
vn -0.05440018 0.7432904 -0.6667534
vn -0.05440018 0.7432904 -0.6667534
vn 0.4560647 0.3163821 0.8318098
vn 0.4008633 0.5571641 0.7272392
vn 0.6669869 -0.2460645 -0.7032644
vn 0.7491418 -0.5296873 0.3977663
vn 0.8115153 0.04987245 -0.5821989
vn 0.3415062 0.8747374 -0.3438135
vn 0.8715897 -0.291037 0.3944985
vn 0.8715897 -0.291037 0.3944985
vn 0.6903418 0.7123061 0.1266796
vn 0.4121227 0.5062672 0.7575277
vn 0.3786963 0.5180297 0.7669642
vn 0.3415062 0.8747374 -0.3438135
vn 0.3415062 0.8747374 -0.3438135
vn 0.7491418 -0.5296873 0.3977663
vn 0.8715897 -0.291037 0.3944985
vn -0.0720555 0.4124103 -0.9081442
vn 0.8306234 0.5119024 -0.2191361
vn -0.1847265 0.6793322 -0.7101998
vn -0.780646 0.6216674 0.06419857
vn 0.680026 0.7195646 -0.1406822
vn 0.680026 0.7195646 -0.1406822
vn -0.2841567 0.9309335 0.2293855
vn 0.1831866 0.6761411 0.7136357
vn 0.1715634 0.6519359 0.7386105
vn -0.780646 0.6216674 0.06419857
vn -0.780646 0.6216674 0.06419857
vn 0.8306234 0.5119024 -0.2191361
vn 0.680026 0.7195646 -0.1406822
vn 0.1818604 0.6825575 -0.7078434
vn 0.835921 0.5074119 0.209211
vn 0.004625779 0.8787916 -0.4771833
vn -0.790323 0.6120576 0.02783905
vn 0.6602538 0.6875839 0.302148
vn 0.6602538 0.6875839 0.302148
vn -0.378222 0.8245122 0.4208654
vn -0.06431093 0.4034076 0.9127576
vn -0.08175538 0.3732241 0.9241319
vn -0.790323 0.6120576 0.02783905
vn -0.790323 0.6120576 0.02783905
vn 0.835921 0.5074119 0.209211
vn 0.6602538 0.6875839 0.302148
vn 0.7536941 0.6457609 0.1222212
vn -0.1014762 0.4017688 0.9101013
vn 0.4934772 0.8669952 -0.06927865
vn -0.1134003 0.5184316 -0.8475665
vn -0.2405496 0.6224089 0.7448108
vn -0.9615116 0.2745174 0.0116463
vn -0.5195258 0.7832724 -0.3414343
vn -0.9716464 0.2320248 0.04547279
vn 0.02176664 0.3126629 0.9496147
vn -0.9097186 0.3562037 0.2133794
vn 0.1652027 0.6253814 0.7626311
vn 0.8179448 0.572768 -0.05387884
vn -0.7702053 0.6220031 0.1410528
vn -0.1824246 0.6095494 -0.7714732
vn 0.2493052 0.9386231 -0.2383982
vn -0.217916 0.5719 -0.7908496
vn 0.7001805 0.6403329 -0.3157864
vn 0.3912921 0.432244 0.812438
vn 0.3765559 0.8583361 -0.3485179
vn -0.5472122 0.4920014 -0.6771215
vn 0.1844006 0.6490557 0.7380536
vn -0.8124613 0.2862184 0.5079228
vn -0.6269161 0.7779434 -0.04219407
vn -0.8029227 0.2449689 0.54342
vn 0.8985866 0.3675855 -0.2396308
vn 0.3683876 0.4353173 0.8214557
vn 0.6631238 0.6567506 -0.35909
vn -0.2637939 0.5059114 -0.821259
vn 0.2491383 0.6850759 0.6845445
vn -0.7611367 0.5731827 0.3035335
vn -0.3544889 0.9011374 -0.249578
vn -0.7699152 0.5371676 0.3445019

vt 0.251578 0.310394
vt 0.330479 0.502447
vt 0.344551 0.22311
vt 0.115042 0.150316
vt 0.091143 0.390057
vt 0.511544 0.265925
vt 0.393297 0.054999
vt 0.683346 0.196268
vt 0.510262 0.28045
vt 0.738581 0.489561
vt 0.624543 0.078051
vt 0.791647 0.240108
vt 0.889768 0.104492
vt 0.902042 0.322025
vt 0.251578 0.310394
vt 0.330479 0.502447
vt 0.344551 0.22311
vt 0.115042 0.150316
vt 0.091143 0.390057
vt 0.511544 0.265925
vt 0.393297 0.054999
vt 0.683346 0.196268
vt 0.510262 0.28045
vt 0.738581 0.489561
vt 0.624543 0.078051
vt 0.791647 0.240108
vt 0.889768 0.104492
vt 0.902042 0.322025
vt 0.251578 0.310394
vt 0.330479 0.502447
vt 0.344551 0.22311
vt 0.115042 0.150316
vt 0.091143 0.390057
vt 0.511544 0.265925
vt 0.393297 0.054999
vt 0.683346 0.196268
vt 0.510262 0.28045
vt 0.738581 0.489561
vt 0.624543 0.078051
vt 0.791647 0.240108
vt 0.889768 0.104492
vt 0.902042 0.322025
vt 0.736972 0.258286
vt 0.78174 0.17808
vt 0.699507 0.254278
vt 0.736741 0.370822
vt 0.822405 0.292692
vt 0.631653 0.171222
vt 0.598874 0.306051
vt 0.736972 0.258286
vt 0.78174 0.17808
vt 0.699507 0.254278
vt 0.736741 0.370822
vt 0.822405 0.292692
vt 0.631653 0.171222
vt 0.598874 0.306051
vt 0.736972 0.258286
vt 0.78174 0.17808
vt 0.699507 0.254278
vt 0.736741 0.370822
vt 0.822405 0.292692
vt 0.631653 0.171222
vt 0.598874 0.306051
vt 0.576068 0.37146
vt 0.69944 0.470374
vt 0.641933 0.358651
vt 0.678442 0.238777
vt 0.69629 0.38966
vt 0.69629 0.38966
vt 0.699473 0.332023
vt 0.7548 0.343914
vt 0.825099 0.335205
vt 0.678442 0.238777
vt 0.678442 0.238777
vt 0.69944 0.470374
vt 0.69629 0.38966
vt 0.576068 0.37146
vt 0.69944 0.470374
vt 0.641933 0.358651
vt 0.678442 0.238777
vt 0.69629 0.38966
vt 0.69629 0.38966
vt 0.699473 0.332023
vt 0.7548 0.343914
vt 0.825099 0.335205
vt 0.678442 0.238777
vt 0.678442 0.238777
vt 0.69944 0.470374
vt 0.69629 0.38966
vt 0.576068 0.37146
vt 0.69944 0.470374
vt 0.641933 0.358651
vt 0.678442 0.238777
vt 0.69629 0.38966
vt 0.69629 0.38966
vt 0.699473 0.332023
vt 0.7548 0.343914
vt 0.825099 0.335205
vt 0.678442 0.238777
vt 0.678442 0.238777
vt 0.69944 0.470374
vt 0.69629 0.38966
vt 0.576068 0.37146
vt 0.69944 0.470374
vt 0.641933 0.358651
vt 0.678442 0.238777
vt 0.69629 0.38966
vt 0.69629 0.38966
vt 0.699473 0.332023
vt 0.7548 0.343914
vt 0.825099 0.335205
vt 0.678442 0.238777
vt 0.678442 0.238777
vt 0.69944 0.470374
vt 0.69629 0.38966
vt 0.678817 0.339571
vt 0.668479 0.1514
vt 0.616117 0.295391
vt 0.483187 0.352658
vt 0.60151 0.212689
vt 0.50071 0.197754
vt 0.539119 0.262887
vt 0.44441 0.149101
vt 0.678817 0.339571
vt 0.668479 0.1514
vt 0.616117 0.295391
vt 0.483187 0.352658
vt 0.60151 0.212689
vt 0.50071 0.197754
vt 0.539119 0.262887
vt 0.44441 0.149101
vt 0.678817 0.339571
vt 0.668479 0.1514
vt 0.616117 0.295391
vt 0.483187 0.352658
vt 0.60151 0.212689
vt 0.50071 0.197754
vt 0.539119 0.262887
vt 0.44441 0.149101
vt 0.678817 0.339571
vt 0.668479 0.1514
vt 0.616117 0.295391
vt 0.483187 0.352658
vt 0.60151 0.212689
vt 0.50071 0.197754
vt 0.539119 0.262887
vt 0.44441 0.149101




usemtl MEP_RockWall_b
usemap MEP_RockWall_b
f 64/64/64 67/67/67 66/66/66
f 64/64/64 66/66/66 65/65/65
f 65/65/65 66/66/66 68/68/68
f 75/75/75 76/76/76 71/71/71
f 75/75/75 71/71/71 72/72/72
f 72/72/72 71/71/71 70/70/70
f 72/72/72 70/70/70 73/73/73
f 66/66/66 74/74/74 70/70/70
f 66/66/66 70/70/70 69/69/69
f 69/69/69 70/70/70 71/71/71
f 77/77/77 80/80/80 79/79/79
f 77/77/77 79/79/79 78/78/78
f 78/78/78 79/79/79 81/81/81
f 88/88/88 89/89/89 84/84/84
f 88/88/88 84/84/84 85/85/85
f 85/85/85 84/84/84 83/83/83
f 85/85/85 83/83/83 86/86/86
f 79/79/79 87/87/87 83/83/83
f 79/79/79 83/83/83 82/82/82
f 82/82/82 83/83/83 84/84/84
f 90/90/90 93/93/93 92/92/92
f 90/90/90 92/92/92 91/91/91
f 91/91/91 92/92/92 94/94/94
f 101/101/101 102/102/102 97/97/97
f 101/101/101 97/97/97 98/98/98
f 98/98/98 97/97/97 96/96/96
f 98/98/98 96/96/96 99/99/99
f 92/92/92 100/100/100 96/96/96
f 92/92/92 96/96/96 95/95/95
f 95/95/95 96/96/96 97/97/97
f 103/103/103 106/106/106 105/105/105
f 103/103/103 105/105/105 104/104/104
f 104/104/104 105/105/105 107/107/107
f 114/114/114 115/115/115 110/110/110
f 114/114/114 110/110/110 111/111/111
f 111/111/111 110/110/110 109/109/109
f 111/111/111 109/109/109 112/112/112
f 105/105/105 113/113/113 109/109/109
f 105/105/105 109/109/109 108/108/108
f 108/108/108 109/109/109 110/110/110
f 5/5/5 4/4/4 1/1/1
f 5/5/5 1/1/1 2/2/2
f 2/2/2 1/1/1 3/3/3
f 2/2/2 3/3/3 6/6/6
f 6/6/6 3/3/3 7/7/7
f 4/4/4 7/7/7 3/3/3
f 4/4/4 3/3/3 1/1/1
f 13/13/13 14/14/14 12/12/12
f 13/13/13 12/12/12 11/11/11
f 11/11/11 12/12/12 8/8/8
f 11/11/11 8/8/8 9/9/9
f 9/9/9 8/8/8 10/10/10
f 12/12/12 14/14/14 10/10/10
f 12/12/12 10/10/10 8/8/8
f 19/19/19 18/18/18 15/15/15
f 19/19/19 15/15/15 16/16/16
f 16/16/16 15/15/15 17/17/17
f 16/16/16 17/17/17 20/20/20
f 20/20/20 17/17/17 21/21/21
f 18/18/18 21/21/21 17/17/17
f 18/18/18 17/17/17 15/15/15
f 27/27/27 28/28/28 26/26/26
f 27/27/27 26/26/26 25/25/25
f 25/25/25 26/26/26 22/22/22
f 25/25/25 22/22/22 23/23/23
f 23/23/23 22/22/22 24/24/24
f 26/26/26 28/28/28 24/24/24
f 26/26/26 24/24/24 22/22/22
f 33/33/33 32/32/32 29/29/29
f 33/33/33 29/29/29 30/30/30
f 30/30/30 29/29/29 31/31/31
f 30/30/30 31/31/31 34/34/34
f 34/34/34 31/31/31 35/35/35
f 32/32/32 35/35/35 31/31/31
f 32/32/32 31/31/31 29/29/29
f 41/41/41 42/42/42 40/40/40
f 41/41/41 40/40/40 39/39/39
f 39/39/39 40/40/40 36/36/36
f 39/39/39 36/36/36 37/37/37
f 37/37/37 36/36/36 38/38/38
f 40/40/40 42/42/42 38/38/38
f 40/40/40 38/38/38 36/36/36
f 47/47/47 46/46/46 43/43/43
f 47/47/47 43/43/43 44/44/44
f 44/44/44 43/43/43 45/45/45
f 44/44/44 45/45/45 48/48/48
f 48/48/48 45/45/45 49/49/49
f 46/46/46 49/49/49 45/45/45
f 46/46/46 45/45/45 43/43/43
f 54/54/54 53/53/53 50/50/50
f 54/54/54 50/50/50 51/51/51
f 51/51/51 50/50/50 52/52/52
f 51/51/51 52/52/52 55/55/55
f 55/55/55 52/52/52 56/56/56
f 53/53/53 56/56/56 52/52/52
f 53/53/53 52/52/52 50/50/50
f 61/61/61 60/60/60 57/57/57
f 61/61/61 57/57/57 58/58/58
f 58/58/58 57/57/57 59/59/59
f 58/58/58 59/59/59 62/62/62
f 62/62/62 59/59/59 63/63/63
f 60/60/60 63/63/63 59/59/59
f 60/60/60 59/59/59 57/57/57
f 118/118/118 122/122/122 120/120/120
f 118/118/118 120/120/120 117/117/117
f 117/117/117 120/120/120 121/121/121
f 117/117/117 121/121/121 123/123/123
f 123/123/123 121/121/121 122/122/122
f 123/123/123 122/122/122 119/119/119
f 119/119/119 122/122/122 118/118/118
f 119/119/119 118/118/118 116/116/116
f 116/116/116 118/118/118 117/117/117
f 126/126/126 130/130/130 128/128/128
f 126/126/126 128/128/128 125/125/125
f 125/125/125 128/128/128 129/129/129
f 125/125/125 129/129/129 131/131/131
f 131/131/131 129/129/129 130/130/130
f 131/131/131 130/130/130 127/127/127
f 127/127/127 130/130/130 126/126/126
f 127/127/127 126/126/126 124/124/124
f 124/124/124 126/126/126 125/125/125
f 134/134/134 138/138/138 136/136/136
f 134/134/134 136/136/136 133/133/133
f 133/133/133 136/136/136 137/137/137
f 133/133/133 137/137/137 139/139/139
f 139/139/139 137/137/137 138/138/138
f 139/139/139 138/138/138 135/135/135
f 135/135/135 138/138/138 134/134/134
f 135/135/135 134/134/134 132/132/132
f 132/132/132 134/134/134 133/133/133
f 142/142/142 146/146/146 144/144/144
f 142/142/142 144/144/144 141/141/141
f 141/141/141 144/144/144 145/145/145
f 141/141/141 145/145/145 147/147/147
f 147/147/147 145/145/145 146/146/146
f 147/147/147 146/146/146 143/143/143
f 143/143/143 146/146/146 142/142/142
f 143/143/143 142/142/142 140/140/140
f 140/140/140 142/142/142 141/141/141
f 120/120/120 122/122/122 121/121/121
f 128/128/128 130/130/130 129/129/129
f 136/136/136 138/138/138 137/137/137
f 144/144/144 146/146/146 145/145/145

