g NewMesh_tris_65
v 4.084215 -0.3765748 -3.206273
v 0.6864407 1.609352 -0.4726002
v -0.6461734 -0.4673527 -3.320121
v -3.545649 0.8169658 -0.2057554
v 2.189674 1.463541 3.546696
v -2.663457 1.39331 1.821157
v -28.47218 0.8534238 -2.995265
v -31.63327 3.138192 -6.372315
v -28.6742 0.9782304 -8.093415
v -32.21177 2.515582 -10.93822
v -35.84471 2.995844 -4.481387
v -34.32522 3.115683 -9.823254
v -13.96409 5.140307 -3.187627
v -10.15502 6.279171 -0.3723814
v -13.4984 6.781476 1.347328
v -9.758458 7.093325 3.917643
v -6.879151 3.663569 -1.526304
v -7.807339 6.161542 3.024458
v -16.15707 -0.9799811 1.073157
v -18.81906 1.70224 -2.381199
v -14.95669 0.9368894 -3.405367
v -17.80828 2.535942 -6.801516
v -22.93553 -0.3640057 -2.494897
v -20.1761 2.139948 -6.487492
v 7.025832 2.577012 8.881104
v 2.879032 3.337543 6.087956
v 5.772342 1.339878 4.214367
v 1.55698 1.427765 2.171927
v -0.6104473 2.864393 8.945455
v -0.3152992 1.895499 3.611525
v -34.95812 -4.82685 -2.372722
v -33.62959 0.4453458 -3.086617
v -30.52224 -2.301703 -4.218071
v -29.93062 2.578641 -5.563368
v -37.75015 2.71838 -4.47939
v -32.10554 4.038756 -5.617295
v -42.02743 5.278884 -9.142789
v -37.49889 5.066398 -7.018131
v -40.5088 4.318888 -4.557621
v -36.24892 3.324195 -3.052805
v -34.87283 3.076592 -10.07783
v -34.59753 2.972573 -4.725624
v -6.090566 0.7362081 -4.80636
v -7.218225 2.312164 -9.551572
v -3.60618 0.4894598 -9.175271
v -5.233089 1.176519 -13.56043
v -11.67607 1.277256 -10.0905
v -7.638621 1.418114 -13.789
v -34.83136 3.232219 -4.051128
v -39.92419 2.379366 -2.479133
v -39.55223 5.152323 -5.653978
v -44.16692 3.519273 -4.555118
v -40.19203 -2.285438 -1.252624
v -44.3114 1.308219 -3.23527
v -13.07531 0.5566603 -12.02024
v -12.43257 2.068295 -7.858635
v -15.81517 1.379782 -8.693068
v -14.94325 1.982746 -4.709038
v -9.128539 0.1494409 -6.595006
v -12.94181 1.617451 -4.121781
v -37.62729 2.357492 -9.012553
v -34.86163 4.220449 -11.76833
v -33.52426 1.694607 -9.865049
v -31.37484 2.967803 -12.9713
v -36.92545 4.707399 -15.0309
v -32.41681 3.868754 -14.48615
v -9.563213 2.243428 0.3871617
v -6.776279 2.44838 -3.862242
v -4.814938 1.025839 -0.668704
v -2.751427 0.5121116 -4.871061
v -9.612061 1.2593 -7.231569
v -4.211555 0.598594 -6.799371
v -39.67869 4.075009 -4.353106
v -43.05008 6.021545 -6.849511
v -40.46499 4.431611 -8.843159
v -44.04934 5.643532 -10.87332
v -46.54548 5.415886 -4.712475
v -45.83602 5.935934 -9.610835

vn 0.1826218 0.8955167 -0.4058315
vn 0.07189592 0.9587722 -0.2749306
vn -0.08682875 0.8326856 -0.5468963
vn -0.1837115 0.924729 -0.3333561
vn 0.1684344 0.9848814 -0.04047735
vn -0.1217653 0.9871545 -0.103438
vn 0.427526 0.8830871 0.1933358
vn 0.2906049 0.952216 0.09398615
vn 0.5503321 0.8303999 -0.08700939
vn 0.33218 0.9284856 -0.1660447
vn 0.06312576 0.9764295 0.2063989
vn 0.1074607 0.9904043 -0.08689994
vn 0.09292575 0.8528826 -0.5137665
vn 0.2503293 0.8710081 -0.4227055
vn -0.02553161 0.9677391 -0.2506573
vn 0.2150841 0.9605265 -0.1764295
vn 0.4507242 0.7364097 -0.5045277
vn 0.4345988 0.8683408 -0.2389731
vn 0.001289298 0.820427 0.5717499
vn -0.1173188 0.8857768 0.4490386
vn 0.208719 0.9098527 0.3586147
vn 0.001747219 0.9732442 0.2297662
vn -0.3596598 0.8085575 0.4657033
vn -0.242537 0.942924 0.2281891
vn 0.2343697 0.9653764 -0.1145391
vn 0.06730466 0.9800243 -0.1871423
vn 0.3051289 0.8644228 -0.3995867
vn 0.05832091 0.8970662 -0.4380305
vn -0.1308468 0.9910296 -0.02719047
vn -0.1531561 0.9356115 -0.3180792
vn 0.122113 0.1029188 0.9871657
vn 0.1352227 0.2813709 0.9500238
vn 0.4205465 0.1045491 0.9012271
vn 0.3742954 0.3485982 0.8592916
vn -0.08091532 0.4099441 0.9085144
vn 0.1897696 0.5102406 0.8388338
vn 0.09187203 0.9953216 -0.02991075
vn 0.2647717 0.9640962 0.02036082
vn 0.03995001 0.9608051 0.2743315
vn 0.2877995 0.9160471 0.279337
vn 0.4288328 0.8891487 -0.1597406
vn 0.4791099 0.8677503 0.1321488
vn 0.1352334 0.959411 0.2474725
vn 0.0641733 0.9944976 0.0828033
vn 0.3940371 0.9154724 0.08151842
vn 0.2403342 0.9642045 -0.1120231
vn -0.1890666 0.9802756 0.05756404
vn 0.001977206 0.9854896 -0.1697248
vn 0.1598517 0.552788 0.8178465
vn -0.003705524 0.4910742 0.8711098
vn -0.01365684 0.7538723 0.656879
vn -0.2032669 0.6214018 0.7566651
vn -0.01590926 0.2551317 0.9667754
vn -0.2514429 0.4115625 0.8760096
vn 0.1987069 0.925082 -0.3236338
vn 0.248329 0.956889 -0.1506525
vn -0.08546323 0.9742996 -0.2084139
vn 0.04107 0.9991242 0.007990264
vn 0.477991 0.8750434 -0.07631303
vn 0.2618242 0.9589157 0.1092199
vn 0.04620105 0.8351468 0.5480832
vn 0.1373938 0.9037744 0.4053574
vn 0.324786 0.7165909 0.6172613
vn 0.3907816 0.8283663 0.4013711
vn 0.001690095 0.9791392 0.2031833
vn 0.295207 0.9341208 0.2006771
vn 0.06885602 0.9950494 0.07166223
vn 0.1413412 0.9853134 -0.09581209
vn 0.3579969 0.920431 0.1569868
vn 0.3958313 0.9137058 -0.09197307
vn -0.01819071 0.9561079 -0.2924496
vn 0.2750336 0.9112889 -0.306446
vn 0.3688543 0.907728 0.1999411
vn 0.2145161 0.968876 0.1235396
vn 0.4581483 0.8836187 -0.09653145
vn 0.2236811 0.9644583 -0.1406651
vn 0.002442944 0.9642817 0.2648675
vn 0.006628669 0.9995291 -0.02996326

vt 0.011616 0.018027
vt 0.35209 0.561321
vt 0.641421 0.203131
vt 0.976397 0.7772
vt 0.00726 0.988217
vt 0.791079 0.984502
vt 0.011616 0.018027
vt 0.35209 0.561321
vt 0.641421 0.203131
vt 0.976397 0.7772
vt 0.00726 0.988217
vt 0.791079 0.984502
vt 0.011616 0.018027
vt 0.35209 0.561321
vt 0.641421 0.203131
vt 0.976397 0.7772
vt 0.00726 0.988217
vt 0.791079 0.984502
vt 0.011616 0.018027
vt 0.35209 0.561321
vt 0.641421 0.203131
vt 0.976397 0.7772
vt 0.00726 0.988217
vt 0.791079 0.984502
vt 0.011616 0.018027
vt 0.35209 0.561321
vt 0.641421 0.203131
vt 0.976397 0.7772
vt 0.00726 0.988217
vt 0.791079 0.984502
vt 0.011616 0.018027
vt 0.35209 0.561321
vt 0.641421 0.203131
vt 0.976397 0.7772
vt 0.00726 0.988217
vt 0.791079 0.984502
vt 0.011616 0.018027
vt 0.35209 0.561321
vt 0.641421 0.203131
vt 0.976397 0.7772
vt 0.00726 0.988217
vt 0.791079 0.984502
vt 0.011616 0.018027
vt 0.35209 0.561321
vt 0.641421 0.203131
vt 0.976397 0.7772
vt 0.00726 0.988217
vt 0.791079 0.984502
vt 0.011616 0.018027
vt 0.35209 0.561321
vt 0.641421 0.203131
vt 0.976397 0.7772
vt 0.00726 0.988217
vt 0.791079 0.984502
vt 0.011616 0.018027
vt 0.35209 0.561321
vt 0.641421 0.203131
vt 0.976397 0.7772
vt 0.00726 0.988217
vt 0.791079 0.984502
vt 0.011616 0.018027
vt 0.35209 0.561321
vt 0.641421 0.203131
vt 0.976397 0.7772
vt 0.00726 0.988217
vt 0.791079 0.984502
vt 0.011616 0.018027
vt 0.35209 0.561321
vt 0.641421 0.203131
vt 0.976397 0.7772
vt 0.00726 0.988217
vt 0.791079 0.984502
vt 0.011616 0.018027
vt 0.35209 0.561321
vt 0.641421 0.203131
vt 0.976397 0.7772
vt 0.00726 0.988217
vt 0.791079 0.984502

vt1 0.992919 0.9183354
vt1 0.4569709 0.5627211
vt1 0.8663584 0.268197
vt1 0.3022882 0.00390625
vt1 0.00390625 0.9183354
vt1 0.04708201 0.2027966
vt1 0.992919 0.9183354
vt1 0.4569709 0.5627211
vt1 0.8663584 0.268197
vt1 0.3022882 0.00390625
vt1 0.00390625 0.9183354
vt1 0.04708201 0.2027966
vt1 0.992919 0.9183354
vt1 0.4569709 0.5627211
vt1 0.8663584 0.268197
vt1 0.3022882 0.00390625
vt1 0.00390625 0.9183354
vt1 0.04708201 0.2027966
vt1 0.992919 0.9183354
vt1 0.4569709 0.5627211
vt1 0.8663584 0.268197
vt1 0.3022882 0.00390625
vt1 0.00390625 0.9183354
vt1 0.04708201 0.2027966
vt1 0.992919 0.9183354
vt1 0.4569709 0.5627211
vt1 0.8663584 0.268197
vt1 0.3022882 0.00390625
vt1 0.00390625 0.9183354
vt1 0.04708201 0.2027966
vt1 0.992919 0.9183354
vt1 0.4569709 0.5627211
vt1 0.8663584 0.268197
vt1 0.3022882 0.00390625
vt1 0.00390625 0.9183354
vt1 0.04708201 0.2027966
vt1 0.992919 0.9183354
vt1 0.4569709 0.5627211
vt1 0.8663584 0.268197
vt1 0.3022882 0.00390625
vt1 0.00390625 0.9183354
vt1 0.04708201 0.2027966
vt1 0.992919 0.9183354
vt1 0.4569709 0.5627211
vt1 0.8663584 0.268197
vt1 0.3022882 0.00390625
vt1 0.00390625 0.9183354
vt1 0.04708201 0.2027966
vt1 0.992919 0.9183354
vt1 0.4569709 0.5627211
vt1 0.8663584 0.268197
vt1 0.3022882 0.00390625
vt1 0.00390625 0.9183354
vt1 0.04708201 0.2027966
vt1 0.992919 0.9183354
vt1 0.4569709 0.5627211
vt1 0.8663584 0.268197
vt1 0.3022882 0.00390625
vt1 0.00390625 0.9183354
vt1 0.04708201 0.2027966
vt1 0.992919 0.9183354
vt1 0.4569709 0.5627211
vt1 0.8663584 0.268197
vt1 0.3022882 0.00390625
vt1 0.00390625 0.9183354
vt1 0.04708201 0.2027966
vt1 0.992919 0.9183354
vt1 0.4569709 0.5627211
vt1 0.8663584 0.268197
vt1 0.3022882 0.00390625
vt1 0.00390625 0.9183354
vt1 0.04708201 0.2027966
vt1 0.992919 0.9183354
vt1 0.4569709 0.5627211
vt1 0.8663584 0.268197
vt1 0.3022882 0.00390625
vt1 0.00390625 0.9183354
vt1 0.04708201 0.2027966

vt2 0.992919 0.9183354
vt2 0.4569709 0.5627211
vt2 0.8663584 0.268197
vt2 0.3022882 0.00390625
vt2 0.00390625 0.9183354
vt2 0.04708201 0.2027966
vt2 0.992919 0.9183354
vt2 0.4569709 0.5627211
vt2 0.8663584 0.268197
vt2 0.3022882 0.00390625
vt2 0.00390625 0.9183354
vt2 0.04708201 0.2027966
vt2 0.992919 0.9183354
vt2 0.4569709 0.5627211
vt2 0.8663584 0.268197
vt2 0.3022882 0.00390625
vt2 0.00390625 0.9183354
vt2 0.04708201 0.2027966
vt2 0.992919 0.9183354
vt2 0.4569709 0.5627211
vt2 0.8663584 0.268197
vt2 0.3022882 0.00390625
vt2 0.00390625 0.9183354
vt2 0.04708201 0.2027966
vt2 0.992919 0.9183354
vt2 0.4569709 0.5627211
vt2 0.8663584 0.268197
vt2 0.3022882 0.00390625
vt2 0.00390625 0.9183354
vt2 0.04708201 0.2027966
vt2 0.992919 0.9183354
vt2 0.4569709 0.5627211
vt2 0.8663584 0.268197
vt2 0.3022882 0.00390625
vt2 0.00390625 0.9183354
vt2 0.04708201 0.2027966
vt2 0.992919 0.9183354
vt2 0.4569709 0.5627211
vt2 0.8663584 0.268197
vt2 0.3022882 0.00390625
vt2 0.00390625 0.9183354
vt2 0.04708201 0.2027966
vt2 0.992919 0.9183354
vt2 0.4569709 0.5627211
vt2 0.8663584 0.268197
vt2 0.3022882 0.00390625
vt2 0.00390625 0.9183354
vt2 0.04708201 0.2027966
vt2 0.992919 0.9183354
vt2 0.4569709 0.5627211
vt2 0.8663584 0.268197
vt2 0.3022882 0.00390625
vt2 0.00390625 0.9183354
vt2 0.04708201 0.2027966
vt2 0.992919 0.9183354
vt2 0.4569709 0.5627211
vt2 0.8663584 0.268197
vt2 0.3022882 0.00390625
vt2 0.00390625 0.9183354
vt2 0.04708201 0.2027966
vt2 0.992919 0.9183354
vt2 0.4569709 0.5627211
vt2 0.8663584 0.268197
vt2 0.3022882 0.00390625
vt2 0.00390625 0.9183354
vt2 0.04708201 0.2027966
vt2 0.992919 0.9183354
vt2 0.4569709 0.5627211
vt2 0.8663584 0.268197
vt2 0.3022882 0.00390625
vt2 0.00390625 0.9183354
vt2 0.04708201 0.2027966
vt2 0.992919 0.9183354
vt2 0.4569709 0.5627211
vt2 0.8663584 0.268197
vt2 0.3022882 0.00390625
vt2 0.00390625 0.9183354
vt2 0.04708201 0.2027966


usemtl MEP_Tree_02_Dif
usemap MEP_Tree_02_Dif
f 3/3/3 4/4/4 2/2/2
f 3/3/3 2/2/2 1/1/1
f 1/1/1 2/2/2 5/5/5
f 6/6/6 5/5/5 2/2/2
f 6/6/6 2/2/2 4/4/4
f 9/9/9 10/10/10 8/8/8
f 9/9/9 8/8/8 7/7/7
f 7/7/7 8/8/8 11/11/11
f 12/12/12 11/11/11 8/8/8
f 12/12/12 8/8/8 10/10/10
f 15/15/15 16/16/16 14/14/14
f 15/15/15 14/14/14 13/13/13
f 13/13/13 14/14/14 17/17/17
f 18/18/18 17/17/17 14/14/14
f 18/18/18 14/14/14 16/16/16
f 21/21/21 22/22/22 20/20/20
f 21/21/21 20/20/20 19/19/19
f 19/19/19 20/20/20 23/23/23
f 24/24/24 23/23/23 20/20/20
f 24/24/24 20/20/20 22/22/22
f 27/27/27 28/28/28 26/26/26
f 27/27/27 26/26/26 25/25/25
f 25/25/25 26/26/26 29/29/29
f 30/30/30 29/29/29 26/26/26
f 30/30/30 26/26/26 28/28/28
f 33/33/33 34/34/34 32/32/32
f 33/33/33 32/32/32 31/31/31
f 31/31/31 32/32/32 35/35/35
f 36/36/36 35/35/35 32/32/32
f 36/36/36 32/32/32 34/34/34
f 39/39/39 40/40/40 38/38/38
f 39/39/39 38/38/38 37/37/37
f 37/37/37 38/38/38 41/41/41
f 42/42/42 41/41/41 38/38/38
f 42/42/42 38/38/38 40/40/40
f 45/45/45 46/46/46 44/44/44
f 45/45/45 44/44/44 43/43/43
f 43/43/43 44/44/44 47/47/47
f 48/48/48 47/47/47 44/44/44
f 48/48/48 44/44/44 46/46/46
f 51/51/51 52/52/52 50/50/50
f 51/51/51 50/50/50 49/49/49
f 49/49/49 50/50/50 53/53/53
f 54/54/54 53/53/53 50/50/50
f 54/54/54 50/50/50 52/52/52
f 57/57/57 58/58/58 56/56/56
f 57/57/57 56/56/56 55/55/55
f 55/55/55 56/56/56 59/59/59
f 60/60/60 59/59/59 56/56/56
f 60/60/60 56/56/56 58/58/58
f 63/63/63 64/64/64 62/62/62
f 63/63/63 62/62/62 61/61/61
f 61/61/61 62/62/62 65/65/65
f 66/66/66 65/65/65 62/62/62
f 66/66/66 62/62/62 64/64/64
f 69/69/69 70/70/70 68/68/68
f 69/69/69 68/68/68 67/67/67
f 67/67/67 68/68/68 71/71/71
f 72/72/72 71/71/71 68/68/68
f 72/72/72 68/68/68 70/70/70
f 75/75/75 76/76/76 74/74/74
f 75/75/75 74/74/74 73/73/73
f 73/73/73 74/74/74 77/77/77
f 78/78/78 77/77/77 74/74/74
f 78/78/78 74/74/74 76/76/76

