g NewMesh_tris_166
v 1.651926 0.263667 0.01362034
v 1.601226 -1.585152 1.505925
v -0.2525854 1.56287 0.6735945
v -0.1062539 -0.2920164 -1.606595
v 1.117999 -1.607659 -0.6742187
v -0.8839398 0.08140721 2.268606
v -2.085614 0.4448654 0.2516235
v -1.886706 -1.134593 0.4661334
v -0.8839398 0.08140721 2.268606
v 1.601226 -1.585152 1.505925
v -2.085614 0.4448654 0.2516235
v -0.5613117 -2.008471 -0.6414479
v -0.1062539 -0.2920164 -1.606595
v 1.117999 -1.607659 -0.6742187
v 0.5829778 -5.994003 -14.39591
v 0.2373829 -7.753169 -14.11924
v 2.230856 -6.005681 -15.19279
v 1.797609 -5.586578 -13.02872
v 0.6236512 -6.587448 -12.93704
v 2.383617 -7.72617 -15.09323
v 3.372602 -6.566576 -14.1104
v 2.915175 -7.430102 -13.3698
v 2.383617 -7.72617 -15.09323
v 0.2373829 -7.753169 -14.11924
v 3.372602 -6.566576 -14.1104
v 1.784393 -7.037158 -12.50367
v 1.797609 -5.586578 -13.02872
v 0.6236512 -6.587448 -12.93704
v -0.5061119 -2.842124 -4.324683
v 0.8948002 -3.020064 -2.966104
v -0.5917136 -4.644531 -5.133369
v 0.5492122 -2.707148 -6.046493
v 1.009345 -2.104016 -4.559375
v 0.7987022 -5.309501 -4.076219
v 0.9504969 -4.991411 -6.003253
v 1.994371 -4.451493 -5.392363
v 0.7987022 -5.309501 -4.076219
v 0.8948002 -3.020064 -2.966104
v 0.9504969 -4.991411 -6.003253
v 2.001369 -2.862298 -5.243686
v 0.5492122 -2.707148 -6.046493
v 1.009345 -2.104016 -4.559375
v -8.744453 -4.311135 -11.56048
v -8.391335 -5.009018 -10.88144
v -9.124549 -4.234027 -11.41556
v -9.206664 -5.201565 -12.22245
v -8.399411 -5.223525 -11.81594
v -9.572795 -4.846367 -10.43358
v -10.15517 -4.949275 -11.41029
v -2.395959 -6.233266 -16.44246
v -1.998572 -6.816413 -16.36098
v -2.541711 -6.226266 -16.19887
v -2.996673 -6.695017 -16.76721
v -2.391946 -6.764363 -16.88537
v -2.459909 -6.844428 -15.61955
v -3.177006 -6.731219 -15.91309
v -2.576005 -5.871858 -11.48065
v -1.748237 -6.352913 -12.20478
v -1.883671 -5.296264 -11.44336
v -1.847574 -5.885539 -10.37773
v -1.415516 -5.547349 -11.87916
v -1.415516 -5.547349 -11.87916
v -1.269302 -5.355842 -11.20044
v -1.082809 -5.797726 -11.28461
v -0.8627003 -6.557524 -11.05578
v -1.847574 -5.885539 -10.37773
v -1.847574 -5.885539 -10.37773
v -1.748237 -6.352913 -12.20478
v -1.415516 -5.547349 -11.87916
v -2.899626 -4.353373 -6.174183
v -1.563466 -5.449188 -6.584218
v -1.947397 -3.551481 -6.651377
v -1.9221 -3.27129 -4.871055
v -1.191748 -4.170476 -6.932985
v -1.191748 -4.170476 -6.932985
v -1.057291 -3.314643 -6.312574
v -0.7260459 -3.878567 -6.010375
v -0.3373499 -4.525548 -5.053993
v -1.9221 -3.27129 -4.871055
v -1.9221 -3.27129 -4.871055
v -1.563466 -5.449188 -6.584218
v -1.191748 -4.170476 -6.932985
v 3.565798 -4.072174 -4.61799
v 2.916083 -3.492486 -3.925712
v 3.167694 -3.529408 -5.112182
v 2.667768 -4.519948 -5.320439
v 2.813895 -3.173579 -4.720213
v 2.813895 -3.173579 -4.720213
v 2.575738 -3.472061 -5.267591
v 2.301305 -3.560361 -4.920437
v 1.814389 -4.002425 -4.533399
v 2.667768 -4.519948 -5.320439
v 2.667768 -4.519948 -5.320439
v 2.916083 -3.492486 -3.925712
v 2.813895 -3.173579 -4.720213
v -2.723788 -5.587559 -7.153213
v -4.719515 -5.002995 -8.625498
v -1.911345 -4.439545 -8.357556
v -1.295122 -6.614822 -9.1728
v -3.34757 -3.941086 -9.372766
v -2.748789 -5.359814 -10.59869
v -1.717381 -4.627899 -10.10293
v -3.500697 -6.697989 -11.04409
v 2.761047 -7.989485 -18.50257
v 1.809458 -7.70259 -17.26847
v 2.330581 -6.967934 -18.81412
v 1.524862 -7.936768 -19.61791
v 1.685586 -6.72613 -17.90972
v 0.7697658 -7.189042 -18.57703
v 1.28773 -6.699943 -19.03106
v 0.2008324 -7.984625 -18.40015
v 1.460778 -6.93258 -11.11469
v 0.5068643 -6.507051 -9.94589
v 0.9581084 -6.026726 -11.58831
v 0.2318552 -7.166865 -12.18726
v 0.3083332 -5.680431 -10.73821
v -0.5637197 -6.313485 -11.29051
v -0.09171189 -5.880488 -11.82727
v -1.064448 -7.096319 -10.96922
v -7.190315 -1.644823 -3.493749
v -6.724249 -2.882199 -5.524987
v -5.875531 -0.6739022 -4.15005
v -4.839687 -1.946015 -2.557857
v -5.581635 -1.501199 -5.651028
v -4.22798 -2.383503 -4.705211
v -4.281383 -1.121052 -4.435063
v -4.083717 -3.862318 -4.383352
v -7.965021 -3.982431 -6.603008
v -9.943011 -4.407464 -8.343668
v -7.392986 -2.828823 -8.053348
v -5.965452 -4.880364 -8.354463
v -8.847648 -3.050626 -9.278615
v -7.636032 -4.458472 -10.17335
v -6.922253 -3.29161 -9.781563
v -7.880229 -6.104106 -10.36015
v -0.2679382 -4.700651 -4.927209
v -2.11764 -5.16957 -6.367018
v 0.3650941 -4.113642 -6.434632
v 1.333693 -6.138859 -6.224001
v -0.9812399 -4.368637 -7.466028
v -0.1275817 -5.943111 -7.91579
v 0.6760242 -4.958063 -7.826007
v -0.5780014 -7.35929 -7.715937
v -3.008245 -5.740467 -8.835838
v -1.812191 -6.378409 -10.66597
v -1.776864 -4.636327 -8.775161
v -1.193947 -6.100892 -7.31569
v -0.948652 -5.031237 -10.12721
v 0.06232851 -5.976593 -9.041178
v -0.2312544 -4.892189 -8.580599
v 0.2810346 -7.387903 -9.006161
v -2.941103 -4.937934 -7.05505
v -3.975095 -4.364854 -5.597869
v -3.224916 -3.664373 -7.451074
v -4.379933 -4.640016 -8.371204
v -3.914886 -3.218975 -6.38433
v -5.087596 -3.578225 -7.156849
v -4.383418 -3.133139 -7.710723
v -5.919957 -4.376608 -6.922077

vn 0.8558468 0.4974881 -0.141534
vn 0.6391708 -0.4830749 0.5984141
vn 0.07617056 0.9909802 0.1102549
vn -0.05127106 0.182924 -0.9817893
vn 0.6043433 -0.583021 -0.5430061
vn -0.2454658 0.1387172 0.9594291
vn -0.8952969 0.4110358 -0.1717354
vn -0.8277115 -0.5563942 0.07293335
vn -0.2454658 0.1387172 0.9594291
vn 0.6391708 -0.4830749 0.5984141
vn -0.8952969 0.4110358 -0.1717354
vn -0.3380923 -0.850236 -0.4034751
vn -0.05127106 0.182924 -0.9817893
vn 0.6043433 -0.583021 -0.5430061
vn -0.6976977 0.5806423 -0.41961
vn -0.7532946 -0.6380534 -0.159484
vn 0.1766883 0.5636544 -0.8068921
vn 0.1162814 0.8414856 0.5276181
vn -0.7217419 0.1454114 0.6767156
vn 0.2530287 -0.6742037 -0.6938487
vn 0.9738132 0.2258808 -0.02580049
vn 0.6568875 -0.5617349 0.5029442
vn 0.2530287 -0.6742037 -0.6938487
vn -0.7532946 -0.6380534 -0.159484
vn 0.9738132 0.2258808 -0.02580049
vn 0.1183994 -0.3027858 0.9456756
vn 0.1162814 0.8414856 0.5276181
vn -0.7217419 0.1454114 0.6767156
vn -0.8719649 0.4255171 0.2421
vn 0.1230015 0.2236968 0.9668663
vn -0.8826104 -0.4412526 -0.1621574
vn -0.1879869 0.5245287 -0.8303798
vn 0.1599855 0.9812646 0.1073516
vn 0.06224017 -0.8345539 0.5473993
vn 0.09442998 -0.6318095 -0.7693502
vn 0.9041372 -0.338431 -0.2607689
vn 0.06224017 -0.8345539 0.5473993
vn 0.1230015 0.2236968 0.9668663
vn 0.09442998 -0.6318095 -0.7693502
vn 0.8784899 0.4047574 -0.2538247
vn -0.1879869 0.5245287 -0.8303798
vn 0.1599855 0.9812646 0.1073516
vn 0.4680466 0.8446321 -0.2598633
vn 0.6721996 0.6577812 0.3398111
vn -0.1152584 0.992004 -0.05141401
vn -0.0386402 0.5706621 -0.8202754
vn 0.7200574 0.4257426 -0.5479605
vn -0.1550576 0.8685064 0.470801
vn -0.5547489 0.7975978 -0.2368364
vn 0.3440172 0.9067692 -0.2437657
vn 0.8279166 0.5593209 0.04140458
vn 0.01384271 0.9542834 0.2985825
vn -0.4245845 0.7878327 -0.4461475
vn 0.3239157 0.6073852 -0.7253702
vn 0.2651827 0.677782 0.6857767
vn -0.4739243 0.8020079 0.3635645
vn -0.6008832 0.7419931 -0.2972974
vn 0.2620385 0.3193879 -0.910674
vn -0.3387235 0.9278064 -0.1563375
vn 0.1403695 0.7261265 0.67308
vn 0.3856359 0.5104296 -0.7686003
vn 0.3856359 0.5104296 -0.7686003
vn 0.5503054 0.802416 0.2308511
vn 0.9646218 0.2635817 -0.005425574
vn 0.9717433 0.235429 0.0169672
vn 0.1403695 0.7261265 0.67308
vn 0.1403695 0.7261265 0.67308
vn 0.2620385 0.3193879 -0.910674
vn 0.3856359 0.5104296 -0.7686003
vn -0.6363415 0.3450576 -0.6899311
vn 0.2907917 -0.2787191 -0.9152901
vn -0.3977334 0.602323 -0.6921092
vn 0.04515399 0.9951469 0.08742809
vn 0.3910155 -0.02993775 -0.9198971
vn 0.3910155 -0.02993775 -0.9198971
vn 0.4736838 0.8248739 -0.3085557
vn 0.940664 0.2965337 -0.1649818
vn 0.9485441 0.2887137 -0.1300321
vn 0.04515399 0.9951469 0.08742809
vn 0.04515399 0.9951469 0.08742809
vn 0.2907917 -0.2787191 -0.9152901
vn 0.3910155 -0.02993775 -0.9198971
vn 0.8790416 0.3501063 -0.3235917
vn 0.1353229 0.9426666 0.3050694
vn 0.6691819 0.4632098 -0.5810612
vn -0.06461653 -0.03315083 -0.9973594
vn 0.05080627 0.9971163 0.05637212
vn 0.05080627 0.9971163 0.05637212
vn -0.2789179 0.5060026 -0.8161899
vn -0.769136 0.5679373 -0.2930479
vn -0.7916331 0.5397825 -0.2862723
vn -0.06461653 -0.03315083 -0.9973594
vn -0.06461653 -0.03315083 -0.9973594
vn 0.1353229 0.9426666 0.3050694
vn 0.05080627 0.9971163 0.05637212
vn 0.3029591 0.5793678 0.7566693
vn -0.5660605 0.8242153 -0.01563738
vn 0.5588242 0.6782156 0.4772202
vn 0.9798571 -4.682122E-05 -0.1996995
vn -0.3221077 0.9309536 -0.1719653
vn 0.05120932 0.2820487 -0.9580324
vn 0.6564388 0.5090321 -0.5567535
vn -0.0006731717 0.2641801 -0.9644731
vn 0.9266071 0.370026 -0.06693282
vn 0.1333072 0.6034594 0.7861717
vn 0.7286772 0.6167312 -0.2977788
vn -0.04100803 0.3256432 -0.944603
vn 0.05240677 0.8153285 0.5766221
vn -0.8195279 0.5725906 -0.02267169
vn -0.2836843 0.8149472 -0.5053557
vn -0.8385358 0.5444452 0.02090695
vn 0.8955872 0.4194946 -0.1481478
vn 0.09124262 0.7413361 0.6649026
vn 0.6783793 0.6061551 -0.4151838
vn -0.07034352 0.1492372 -0.9862961
vn -0.006527785 0.9061936 0.4228129
vn -0.8606236 0.4976223 -0.1081624
vn -0.3471242 0.6894068 -0.6357855
vn -0.8772246 0.4763208 -0.05996271
vn -0.5879008 0.8087169 0.01869199
vn -0.2547702 0.2004426 -0.9459994
vn -0.23221 0.9724609 0.01995545
vn 0.5864367 0.5937695 0.5509351
vn -0.01633902 0.3947289 -0.9186525
vn 0.8806346 -0.02401203 -0.4731874
vn 0.7559268 0.6421338 -0.1274323
vn 0.8658237 -0.0725366 -0.4950635
vn 0.01267478 0.7801048 0.6255206
vn -0.7909559 0.5694605 -0.223838
vn 0.2556236 0.9034027 0.3442678
vn 0.9463133 0.2884365 -0.1459296
vn -0.576341 0.7195323 -0.387433
vn 0.0731371 0.09497866 -0.9927891
vn 0.5237362 0.5827128 -0.6214067
vn 0.03068675 0.05996256 -0.9977289
vn 0.1507155 0.8981458 0.4130602
vn -0.6979855 0.6141024 -0.3683674
vn 0.4024546 0.9084006 0.1133072
vn 0.975569 0.0905892 -0.2001468
vn -0.4669519 0.6834304 -0.5611408
vn 0.06094733 -0.1654356 -0.9843356
vn 0.5917537 0.3214258 -0.7392653
vn 0.01343686 -0.1934414 -0.9810199
vn -0.6668642 0.7448694 -0.02148447
vn 0.04493727 0.4089078 -0.9114686
vn -0.3574425 0.923583 0.1386696
vn 0.2853568 0.4751171 0.8323672
vn 0.2320138 0.6041341 -0.7623594
vn 0.9815997 0.1421246 -0.1275263
vn 0.6598173 0.6962222 0.2826943
vn 0.9816235 0.09958582 -0.1627827
vn 0.9779351 0.1932034 -0.07946894
vn 0.2475154 0.5869622 0.7708512
vn 0.8263757 0.466487 -0.3154254
vn 0.01122701 0.3058322 -0.9520193
vn 0.20485 0.8051516 0.5565675
vn -0.7016306 0.7117634 -0.03327688
vn -0.1345958 0.8411641 -0.5237625
vn -0.7250888 0.6885669 0.01104237

vt 0.251578 0.310394
vt 0.330479 0.502447
vt 0.344551 0.22311
vt 0.115042 0.150316
vt 0.091143 0.390057
vt 0.511544 0.265925
vt 0.393297 0.054999
vt 0.683346 0.196268
vt 0.510262 0.28045
vt 0.738581 0.489561
vt 0.624543 0.078051
vt 0.791647 0.240108
vt 0.889768 0.104492
vt 0.902042 0.322025
vt 0.251578 0.310394
vt 0.330479 0.502447
vt 0.344551 0.22311
vt 0.115042 0.150316
vt 0.091143 0.390057
vt 0.511544 0.265925
vt 0.393297 0.054999
vt 0.683346 0.196268
vt 0.510262 0.28045
vt 0.738581 0.489561
vt 0.624543 0.078051
vt 0.791647 0.240108
vt 0.889768 0.104492
vt 0.902042 0.322025
vt 0.251578 0.310394
vt 0.330479 0.502447
vt 0.344551 0.22311
vt 0.115042 0.150316
vt 0.091143 0.390057
vt 0.511544 0.265925
vt 0.393297 0.054999
vt 0.683346 0.196268
vt 0.510262 0.28045
vt 0.738581 0.489561
vt 0.624543 0.078051
vt 0.791647 0.240108
vt 0.889768 0.104492
vt 0.902042 0.322025
vt 0.736972 0.258286
vt 0.78174 0.17808
vt 0.699507 0.254278
vt 0.736741 0.370822
vt 0.822405 0.292692
vt 0.631653 0.171222
vt 0.598874 0.306051
vt 0.736972 0.258286
vt 0.78174 0.17808
vt 0.699507 0.254278
vt 0.736741 0.370822
vt 0.822405 0.292692
vt 0.631653 0.171222
vt 0.598874 0.306051
vt 0.576068 0.37146
vt 0.69944 0.470374
vt 0.641933 0.358651
vt 0.678442 0.238777
vt 0.69629 0.38966
vt 0.69629 0.38966
vt 0.699473 0.332023
vt 0.7548 0.343914
vt 0.825099 0.335205
vt 0.678442 0.238777
vt 0.678442 0.238777
vt 0.69944 0.470374
vt 0.69629 0.38966
vt 0.576068 0.37146
vt 0.69944 0.470374
vt 0.641933 0.358651
vt 0.678442 0.238777
vt 0.69629 0.38966
vt 0.69629 0.38966
vt 0.699473 0.332023
vt 0.7548 0.343914
vt 0.825099 0.335205
vt 0.678442 0.238777
vt 0.678442 0.238777
vt 0.69944 0.470374
vt 0.69629 0.38966
vt 0.576068 0.37146
vt 0.69944 0.470374
vt 0.641933 0.358651
vt 0.678442 0.238777
vt 0.69629 0.38966
vt 0.69629 0.38966
vt 0.699473 0.332023
vt 0.7548 0.343914
vt 0.825099 0.335205
vt 0.678442 0.238777
vt 0.678442 0.238777
vt 0.69944 0.470374
vt 0.69629 0.38966
vt 0.678817 0.339571
vt 0.668479 0.1514
vt 0.616117 0.295391
vt 0.483187 0.352658
vt 0.60151 0.212689
vt 0.50071 0.197754
vt 0.539119 0.262887
vt 0.44441 0.149101
vt 0.678817 0.339571
vt 0.668479 0.1514
vt 0.616117 0.295391
vt 0.483187 0.352658
vt 0.60151 0.212689
vt 0.50071 0.197754
vt 0.539119 0.262887
vt 0.44441 0.149101
vt 0.678817 0.339571
vt 0.668479 0.1514
vt 0.616117 0.295391
vt 0.483187 0.352658
vt 0.60151 0.212689
vt 0.50071 0.197754
vt 0.539119 0.262887
vt 0.44441 0.149101
vt 0.678817 0.339571
vt 0.668479 0.1514
vt 0.616117 0.295391
vt 0.483187 0.352658
vt 0.60151 0.212689
vt 0.50071 0.197754
vt 0.539119 0.262887
vt 0.44441 0.149101
vt 0.678817 0.339571
vt 0.668479 0.1514
vt 0.616117 0.295391
vt 0.483187 0.352658
vt 0.60151 0.212689
vt 0.50071 0.197754
vt 0.539119 0.262887
vt 0.44441 0.149101
vt 0.678817 0.339571
vt 0.668479 0.1514
vt 0.616117 0.295391
vt 0.483187 0.352658
vt 0.60151 0.212689
vt 0.50071 0.197754
vt 0.539119 0.262887
vt 0.44441 0.149101
vt 0.678817 0.339571
vt 0.668479 0.1514
vt 0.616117 0.295391
vt 0.483187 0.352658
vt 0.60151 0.212689
vt 0.50071 0.197754
vt 0.539119 0.262887
vt 0.44441 0.149101
vt 0.678817 0.339571
vt 0.668479 0.1514
vt 0.616117 0.295391
vt 0.483187 0.352658
vt 0.60151 0.212689
vt 0.50071 0.197754
vt 0.539119 0.262887
vt 0.44441 0.149101




usemtl MEP_RockWall_b
usemap MEP_RockWall_b
f 57/57/57 60/60/60 59/59/59
f 57/57/57 59/59/59 58/58/58
f 58/58/58 59/59/59 61/61/61
f 68/68/68 69/69/69 64/64/64
f 68/68/68 64/64/64 65/65/65
f 65/65/65 64/64/64 63/63/63
f 65/65/65 63/63/63 66/66/66
f 59/59/59 67/67/67 63/63/63
f 59/59/59 63/63/63 62/62/62
f 62/62/62 63/63/63 64/64/64
f 70/70/70 73/73/73 72/72/72
f 70/70/70 72/72/72 71/71/71
f 71/71/71 72/72/72 74/74/74
f 81/81/81 82/82/82 77/77/77
f 81/81/81 77/77/77 78/78/78
f 78/78/78 77/77/77 76/76/76
f 78/78/78 76/76/76 79/79/79
f 72/72/72 80/80/80 76/76/76
f 72/72/72 76/76/76 75/75/75
f 75/75/75 76/76/76 77/77/77
f 83/83/83 86/86/86 85/85/85
f 83/83/83 85/85/85 84/84/84
f 84/84/84 85/85/85 87/87/87
f 94/94/94 95/95/95 90/90/90
f 94/94/94 90/90/90 91/91/91
f 91/91/91 90/90/90 89/89/89
f 91/91/91 89/89/89 92/92/92
f 85/85/85 93/93/93 89/89/89
f 85/85/85 89/89/89 88/88/88
f 88/88/88 89/89/89 90/90/90
f 5/5/5 4/4/4 1/1/1
f 5/5/5 1/1/1 2/2/2
f 2/2/2 1/1/1 3/3/3
f 2/2/2 3/3/3 6/6/6
f 6/6/6 3/3/3 7/7/7
f 4/4/4 7/7/7 3/3/3
f 4/4/4 3/3/3 1/1/1
f 13/13/13 14/14/14 12/12/12
f 13/13/13 12/12/12 11/11/11
f 11/11/11 12/12/12 8/8/8
f 11/11/11 8/8/8 9/9/9
f 9/9/9 8/8/8 10/10/10
f 12/12/12 14/14/14 10/10/10
f 12/12/12 10/10/10 8/8/8
f 19/19/19 18/18/18 15/15/15
f 19/19/19 15/15/15 16/16/16
f 16/16/16 15/15/15 17/17/17
f 16/16/16 17/17/17 20/20/20
f 20/20/20 17/17/17 21/21/21
f 18/18/18 21/21/21 17/17/17
f 18/18/18 17/17/17 15/15/15
f 27/27/27 28/28/28 26/26/26
f 27/27/27 26/26/26 25/25/25
f 25/25/25 26/26/26 22/22/22
f 25/25/25 22/22/22 23/23/23
f 23/23/23 22/22/22 24/24/24
f 26/26/26 28/28/28 24/24/24
f 26/26/26 24/24/24 22/22/22
f 33/33/33 32/32/32 29/29/29
f 33/33/33 29/29/29 30/30/30
f 30/30/30 29/29/29 31/31/31
f 30/30/30 31/31/31 34/34/34
f 34/34/34 31/31/31 35/35/35
f 32/32/32 35/35/35 31/31/31
f 32/32/32 31/31/31 29/29/29
f 41/41/41 42/42/42 40/40/40
f 41/41/41 40/40/40 39/39/39
f 39/39/39 40/40/40 36/36/36
f 39/39/39 36/36/36 37/37/37
f 37/37/37 36/36/36 38/38/38
f 40/40/40 42/42/42 38/38/38
f 40/40/40 38/38/38 36/36/36
f 47/47/47 46/46/46 43/43/43
f 47/47/47 43/43/43 44/44/44
f 44/44/44 43/43/43 45/45/45
f 44/44/44 45/45/45 48/48/48
f 48/48/48 45/45/45 49/49/49
f 46/46/46 49/49/49 45/45/45
f 46/46/46 45/45/45 43/43/43
f 54/54/54 53/53/53 50/50/50
f 54/54/54 50/50/50 51/51/51
f 51/51/51 50/50/50 52/52/52
f 51/51/51 52/52/52 55/55/55
f 55/55/55 52/52/52 56/56/56
f 53/53/53 56/56/56 52/52/52
f 53/53/53 52/52/52 50/50/50
f 98/98/98 102/102/102 100/100/100
f 98/98/98 100/100/100 97/97/97
f 97/97/97 100/100/100 101/101/101
f 97/97/97 101/101/101 103/103/103
f 103/103/103 101/101/101 102/102/102
f 103/103/103 102/102/102 99/99/99
f 99/99/99 102/102/102 98/98/98
f 99/99/99 98/98/98 96/96/96
f 96/96/96 98/98/98 97/97/97
f 106/106/106 110/110/110 108/108/108
f 106/106/106 108/108/108 105/105/105
f 105/105/105 108/108/108 109/109/109
f 105/105/105 109/109/109 111/111/111
f 111/111/111 109/109/109 110/110/110
f 111/111/111 110/110/110 107/107/107
f 107/107/107 110/110/110 106/106/106
f 107/107/107 106/106/106 104/104/104
f 104/104/104 106/106/106 105/105/105
f 114/114/114 118/118/118 116/116/116
f 114/114/114 116/116/116 113/113/113
f 113/113/113 116/116/116 117/117/117
f 113/113/113 117/117/117 119/119/119
f 119/119/119 117/117/117 118/118/118
f 119/119/119 118/118/118 115/115/115
f 115/115/115 118/118/118 114/114/114
f 115/115/115 114/114/114 112/112/112
f 112/112/112 114/114/114 113/113/113
f 122/122/122 126/126/126 124/124/124
f 122/122/122 124/124/124 121/121/121
f 121/121/121 124/124/124 125/125/125
f 121/121/121 125/125/125 127/127/127
f 127/127/127 125/125/125 126/126/126
f 127/127/127 126/126/126 123/123/123
f 123/123/123 126/126/126 122/122/122
f 123/123/123 122/122/122 120/120/120
f 120/120/120 122/122/122 121/121/121
f 130/130/130 134/134/134 132/132/132
f 130/130/130 132/132/132 129/129/129
f 129/129/129 132/132/132 133/133/133
f 129/129/129 133/133/133 135/135/135
f 135/135/135 133/133/133 134/134/134
f 135/135/135 134/134/134 131/131/131
f 131/131/131 134/134/134 130/130/130
f 131/131/131 130/130/130 128/128/128
f 128/128/128 130/130/130 129/129/129
f 138/138/138 142/142/142 140/140/140
f 138/138/138 140/140/140 137/137/137
f 137/137/137 140/140/140 141/141/141
f 137/137/137 141/141/141 143/143/143
f 143/143/143 141/141/141 142/142/142
f 143/143/143 142/142/142 139/139/139
f 139/139/139 142/142/142 138/138/138
f 139/139/139 138/138/138 136/136/136
f 136/136/136 138/138/138 137/137/137
f 146/146/146 150/150/150 148/148/148
f 146/146/146 148/148/148 145/145/145
f 145/145/145 148/148/148 149/149/149
f 145/145/145 149/149/149 151/151/151
f 151/151/151 149/149/149 150/150/150
f 151/151/151 150/150/150 147/147/147
f 147/147/147 150/150/150 146/146/146
f 147/147/147 146/146/146 144/144/144
f 144/144/144 146/146/146 145/145/145
f 154/154/154 158/158/158 156/156/156
f 154/154/154 156/156/156 153/153/153
f 153/153/153 156/156/156 157/157/157
f 153/153/153 157/157/157 159/159/159
f 159/159/159 157/157/157 158/158/158
f 159/159/159 158/158/158 155/155/155
f 155/155/155 158/158/158 154/154/154
f 155/155/155 154/154/154 152/152/152
f 152/152/152 154/154/154 153/153/153
f 100/100/100 102/102/102 101/101/101
f 108/108/108 110/110/110 109/109/109
f 116/116/116 118/118/118 117/117/117
f 124/124/124 126/126/126 125/125/125
f 132/132/132 134/134/134 133/133/133
f 140/140/140 142/142/142 141/141/141
f 148/148/148 150/150/150 149/149/149
f 156/156/156 158/158/158 157/157/157

