g NewMesh_tris_124
v -0.5923412 1.722147 -0.8739571
v 1.422716 2.109935 1.033907
v -2.292884 -0.178648 0.3463144
v 0.1227583 -0.8185102 -2.06101
v 1.642214 0.8401363 -1.262148
v -0.7525855 -0.4038014 2.518465
v -1.043718 -2.421872 0.5978459
v 0.7990867 -2.168044 0.9534428
v -0.7525855 -0.4038014 2.518465
v 1.422716 2.109935 1.033907
v -1.043718 -2.421872 0.5978459
v 2.012693 -1.059296 -0.6297816
v 0.1227583 -0.8185102 -2.06101
v 1.642214 0.8401363 -1.262148
v -1.352999 -1.280223 -11.24656
v 1.87815 -1.426301 -12.77129
v -0.6326343 -0.2819312 -7.854794
v -1.470749 -4.394992 -9.265336
v -0.08715958 -4.026445 -11.95423
v 2.740371 -0.2564282 -8.358158
v 1.049068 -2.669492 -6.334418
v 2.548529 -3.817036 -7.84324
v 2.740371 -0.2564282 -8.358158
v 1.87815 -1.426301 -12.77129
v 1.049068 -2.669492 -6.334418
v 1.341167 -5.180684 -10.11616
v -1.470749 -4.394992 -9.265336
v -0.08715958 -4.026445 -11.95423
v -2.497719 -1.37998 6.12829
v -0.3369188 -2.072482 8.508221
v -5.273649 -2.884326 7.148584
v -2.644915 -4.282367 4.37053
v -0.3809842 -3.235425 5.645792
v -3.913889 -4.075851 9.711212
v -4.866104 -5.884417 7.13659
v -2.784844 -6.440326 7.683712
v -3.913889 -4.075851 9.711212
v -0.3369188 -2.072482 8.508221
v -4.866104 -5.884417 7.13659
v -0.8312028 -5.539892 6.087966
v -2.644915 -4.282367 4.37053
v -0.3809842 -3.235425 5.645792
v -0.864388 2.956645 9.851045
v 0.4105639 0.7540866 8.412933
v 0.3908328 5.355186 8.679653
v 1.261129 3.791258 11.82627
v 0.8227329 1.472 11.03211
v 2.061046 3.873901 7.009604
v 3.006544 5.405319 9.311923
v 3.782472 3.589578 9.382373
v 2.061046 3.873901 7.009604
v 0.4105639 0.7540866 8.412933
v 3.006544 5.405319 9.311923
v 2.856018 2.083726 10.97718
v 1.261129 3.791258 11.82627
v 0.8227329 1.472 11.03211
v 3.191025 2.605976 -13.10734
v 3.076483 -0.3455459 -14.90976
v 4.745308 4.833841 -15.30107
v 6.59936 2.758311 -12.04271
v 4.984055 0.3128805 -12.36017
v 5.173415 2.545867 -17.6406
v 7.757085 3.920099 -15.79605
v 7.973248 1.591248 -15.79559
v 5.173415 2.545867 -17.6406
v 3.076483 -0.3455459 -14.90976
v 7.757085 3.920099 -15.79605
v 7.261312 0.2454235 -13.42371
v 6.59936 2.758311 -12.04271
v 4.984055 0.3128805 -12.36017
v -5.846669 -6.150242 -3.13164
v -5.188476 -8.682608 -4.806413
v -4.137476 -3.908288 -4.502491
v -3.244372 -5.817556 -1.284142
v -4.310132 -8.104565 -2.083103
v -2.933597 -5.773902 -6.464413
v -1.355549 -4.461935 -4.133369
v -0.9577922 -6.523623 -4.155506
v -2.933597 -5.773902 -6.464413
v -5.188476 -8.682608 -4.806413
v -1.355549 -4.461935 -4.133369
v -2.078509 -7.924615 -2.371033
v -3.244372 -5.817556 -1.284142
v -4.310132 -8.104565 -2.083103
v 0.1935842 -1.284012 -0.6502678
v -0.4503271 -2.754856 -1.961613
v -0.7799582 -0.5449194 -1.613467
v 1.135003 0.08385651 -2.216673
v -1.199476 -1.384538 -2.339499
v -1.199476 -1.384538 -2.339499
v -0.7181122 -0.3070523 -2.732348
v -0.3721143 -0.9374647 -3.168322
v 0.6993702 -1.555696 -3.869817
v 1.135003 0.08385651 -2.216673
v 1.135003 0.08385651 -2.216673
v -0.4503271 -2.754856 -1.961613
v -1.199476 -1.384538 -2.339499
v -11.78121 -11.72322 3.211374
v -13.05452 -12.88113 2.111344
v -11.96906 -10.94655 1.902718
v -10.06584 -11.75497 1.75697
v -12.73758 -11.57095 1.281052
v -12.73758 -11.57095 1.281052
v -11.66583 -11.17327 0.8394055
v -11.7513 -11.97733 0.6584817
v -11.25224 -13.26707 0.4329605
v -10.06584 -11.75497 1.75697
v -10.06584 -11.75497 1.75697
v -13.05452 -12.88113 2.111344
v -12.73758 -11.57095 1.281052
v -3.466168 -6.592294 0.8425594
v -4.586576 -7.209677 2.547738
v -4.899588 -6.258443 0.3593289
v -4.505333 -8.008286 -0.5492522
v -5.71136 -6.629528 1.601253
v -5.950506 -8.066663 0.8337129
v -6.034542 -7.176849 0.1317677
v -5.573882 -9.296261 1.200022
v -4.666262 -6.63653 7.026657
v -6.023288 -7.276574 8.984425
v -6.274328 -6.046268 6.498852
v -6.053771 -8.067588 5.368101
v -7.247615 -6.422699 7.928092
v -7.713889 -8.00909 6.981227
v -7.699821 -6.944754 6.209065
v -7.437784 -9.486803 7.347254

vn -0.4412015 0.792608 -0.4208488
vn 0.4604366 0.7704833 0.4408558
vn -0.9918969 0.1265649 -0.01103377
vn -0.1001741 -0.3210345 -0.9417548
vn 0.6562657 0.4139298 -0.6308545
vn -0.2324292 0.03735793 0.9718956
vn -0.4378867 -0.897901 0.04504669
vn 0.5070842 -0.7862365 0.3531256
vn -0.2324292 0.03735793 0.9718956
vn 0.4604366 0.7704833 0.4408558
vn -0.4378867 -0.897901 0.04504669
vn 0.8642738 -0.4570885 -0.2100015
vn -0.1001741 -0.3210345 -0.9417548
vn 0.6562657 0.4139298 -0.6308545
vn -0.7431709 0.4836881 -0.4623234
vn 0.4379379 0.3341374 -0.8346033
vn -0.5374112 0.7183356 0.4417953
vn -0.7701653 -0.6047259 0.2028597
vn -0.2837753 -0.5549108 -0.7820138
vn 0.6874656 0.6926042 0.2183813
vn 0.006893311 -0.1565232 0.9876503
vn 0.7184755 -0.5601951 0.4122797
vn 0.6874656 0.6926042 0.2183813
vn 0.4379379 0.3341374 -0.8346033
vn 0.006893311 -0.1565232 0.9876503
vn 0.3581769 -0.9250693 -0.1263174
vn -0.7701653 -0.6047259 0.2028597
vn -0.2837753 -0.5549108 -0.7820138
vn -0.09260903 0.9412351 -0.3248076
vn 0.6613498 0.4953212 0.5632704
vn -0.8777719 0.4777381 -0.03581466
vn -0.1218559 -0.1527287 -0.9807269
vn 0.8142499 0.2173769 -0.5382789
vn -0.2908297 0.007396908 0.9567463
vn -0.7292155 -0.6770332 -0.09935235
vn 0.1623087 -0.9514527 0.2615216
vn -0.2908297 0.007396908 0.9567463
vn 0.6613498 0.4953212 0.5632704
vn -0.7292155 -0.6770332 -0.09935235
vn 0.6620197 -0.7118908 -0.2343957
vn -0.1218559 -0.1527287 -0.9807269
vn 0.8142499 0.2173769 -0.5382789
vn -0.9950944 0.01609373 0.09761123
vn -0.283665 -0.8298278 -0.4805414
vn -0.5588397 0.7848358 -0.2678261
vn -0.0897331 0.3432318 0.9349545
vn -0.2523573 -0.7086191 0.6589192
vn 0.1834743 0.08247808 -0.9795583
vn 0.559354 0.8267525 0.06002856
vn 0.9974425 -0.06889197 -0.01903393
vn 0.1834743 0.08247808 -0.9795583
vn -0.283665 -0.8298278 -0.4805414
vn 0.559354 0.8267525 0.06002856
vn 0.7017602 -0.4854257 0.5214348
vn -0.0897331 0.3432318 0.9349545
vn -0.2523573 -0.7086191 0.6589192
vn -0.8227161 0.3275459 0.4645989
vn -0.6771269 -0.6996776 -0.2279265
vn -0.3683281 0.9201228 -0.1330727
vn 0.3939863 0.3554224 0.8476142
vn -0.1597551 -0.5927407 0.7893902
vn -0.20803 0.01933564 -0.9779314
vn 0.7482243 0.6096703 -0.2616538
vn 0.8410082 -0.3783013 -0.3867731
vn -0.20803 0.01933564 -0.9779314
vn -0.6771269 -0.6996776 -0.2279265
vn 0.7482243 0.6096703 -0.2616538
vn 0.6800219 -0.6802806 0.2734745
vn 0.3939863 0.3554224 0.8476142
vn -0.1597551 -0.5927407 0.7893902
vn -0.9530861 0.2234595 0.2041883
vn -0.5024796 -0.7378893 -0.4505926
vn -0.4036028 0.8921421 -0.2029465
vn 0.08345039 0.3291937 0.9405677
vn -0.3274214 -0.656702 0.6793656
vn 0.09366489 0.06812023 -0.9932706
vn 0.7257951 0.6879051 0.002846353
vn 0.9523119 -0.2776529 -0.126535
vn 0.09366489 0.06812023 -0.9932706
vn -0.5024796 -0.7378893 -0.4505926
vn 0.7257951 0.6879051 0.002846353
vn 0.6326814 -0.6366366 0.4409172
vn 0.08345039 0.3291937 0.9405677
vn -0.3274214 -0.656702 0.6793656
vn -0.5499706 0.2942089 0.781648
vn -0.8993183 -0.4368266 -0.02022691
vn -0.6566876 0.5258194 0.540625
vn -0.09501176 0.9889601 -0.1137138
vn -0.971207 -0.201513 -0.1270808
vn -0.971207 -0.201513 -0.1270808
vn -0.5539085 0.7238727 -0.4113317
vn -0.4494117 0.1830386 -0.8743719
vn -0.416882 0.1798331 -0.8909935
vn -0.09501176 0.9889601 -0.1137138
vn -0.09501176 0.9889601 -0.1137138
vn -0.8993183 -0.4368266 -0.02022691
vn -0.971207 -0.201513 -0.1270808
vn -0.3161368 0.7952377 0.5173537
vn -0.9662251 0.1777405 -0.1865942
vn -0.2289342 0.9495144 0.2145032
vn 0.5600836 0.7587828 -0.3324983
vn -0.8630813 0.3597345 -0.3545161
vn -0.8630813 0.3597345 -0.3545161
vn 0.06886523 0.7219042 -0.6885579
vn -0.1450767 0.1016918 -0.9841806
vn -0.1203702 0.07519896 -0.9898767
vn 0.5600836 0.7587828 -0.3324983
vn 0.5600836 0.7587828 -0.3324983
vn -0.9662251 0.1777405 -0.1865942
vn -0.8630813 0.3597345 -0.3545161
vn 0.2730486 0.9496214 -0.15383
vn -0.4130942 0.5465825 0.7284234
vn -0.03836158 0.9202707 -0.3893971
vn -0.2636176 0.07344572 -0.9618271
vn -0.6259928 0.5906661 0.5091626
vn -0.9528744 -0.3030846 -0.01304706
vn -0.8083284 0.2203437 -0.5459431
vn -0.9430555 -0.3309288 0.03365252
vn 0.3768085 0.918363 -0.1209321
vn -0.345124 0.5610363 0.7524145
vn 0.06273448 0.9330155 -0.3543254
vn -0.2592042 0.1391754 -0.9557423
vn -0.5529904 0.6369814 0.5370814
vn -0.9808834 -0.1940255 -0.01489698
vn -0.7816586 0.3299819 -0.5292653
vn -0.9739791 -0.2245583 0.03062928

vt 0.251578 0.310394
vt 0.330479 0.502447
vt 0.344551 0.22311
vt 0.115042 0.150316
vt 0.091143 0.390057
vt 0.511544 0.265925
vt 0.393297 0.054999
vt 0.683346 0.196268
vt 0.510262 0.28045
vt 0.738581 0.489561
vt 0.624543 0.078051
vt 0.791647 0.240108
vt 0.889768 0.104492
vt 0.902042 0.322025
vt 0.251578 0.310394
vt 0.330479 0.502447
vt 0.344551 0.22311
vt 0.115042 0.150316
vt 0.091143 0.390057
vt 0.511544 0.265925
vt 0.393297 0.054999
vt 0.683346 0.196268
vt 0.510262 0.28045
vt 0.738581 0.489561
vt 0.624543 0.078051
vt 0.791647 0.240108
vt 0.889768 0.104492
vt 0.902042 0.322025
vt 0.251578 0.310394
vt 0.330479 0.502447
vt 0.344551 0.22311
vt 0.115042 0.150316
vt 0.091143 0.390057
vt 0.511544 0.265925
vt 0.393297 0.054999
vt 0.683346 0.196268
vt 0.510262 0.28045
vt 0.738581 0.489561
vt 0.624543 0.078051
vt 0.791647 0.240108
vt 0.889768 0.104492
vt 0.902042 0.322025
vt 0.251578 0.310394
vt 0.330479 0.502447
vt 0.344551 0.22311
vt 0.115042 0.150316
vt 0.091143 0.390057
vt 0.511544 0.265925
vt 0.393297 0.054999
vt 0.683346 0.196268
vt 0.510262 0.28045
vt 0.738581 0.489561
vt 0.624543 0.078051
vt 0.791647 0.240108
vt 0.889768 0.104492
vt 0.902042 0.322025
vt 0.251578 0.310394
vt 0.330479 0.502447
vt 0.344551 0.22311
vt 0.115042 0.150316
vt 0.091143 0.390057
vt 0.511544 0.265925
vt 0.393297 0.054999
vt 0.683346 0.196268
vt 0.510262 0.28045
vt 0.738581 0.489561
vt 0.624543 0.078051
vt 0.791647 0.240108
vt 0.889768 0.104492
vt 0.902042 0.322025
vt 0.251578 0.310394
vt 0.330479 0.502447
vt 0.344551 0.22311
vt 0.115042 0.150316
vt 0.091143 0.390057
vt 0.511544 0.265925
vt 0.393297 0.054999
vt 0.683346 0.196268
vt 0.510262 0.28045
vt 0.738581 0.489561
vt 0.624543 0.078051
vt 0.791647 0.240108
vt 0.889768 0.104492
vt 0.902042 0.322025
vt 0.576068 0.37146
vt 0.69944 0.470374
vt 0.641933 0.358651
vt 0.678442 0.238777
vt 0.69629 0.38966
vt 0.69629 0.38966
vt 0.699473 0.332023
vt 0.7548 0.343914
vt 0.825099 0.335205
vt 0.678442 0.238777
vt 0.678442 0.238777
vt 0.69944 0.470374
vt 0.69629 0.38966
vt 0.576068 0.37146
vt 0.69944 0.470374
vt 0.641933 0.358651
vt 0.678442 0.238777
vt 0.69629 0.38966
vt 0.69629 0.38966
vt 0.699473 0.332023
vt 0.7548 0.343914
vt 0.825099 0.335205
vt 0.678442 0.238777
vt 0.678442 0.238777
vt 0.69944 0.470374
vt 0.69629 0.38966
vt 0.678817 0.339571
vt 0.668479 0.1514
vt 0.616117 0.295391
vt 0.483187 0.352658
vt 0.60151 0.212689
vt 0.50071 0.197754
vt 0.539119 0.262887
vt 0.44441 0.149101
vt 0.678817 0.339571
vt 0.668479 0.1514
vt 0.616117 0.295391
vt 0.483187 0.352658
vt 0.60151 0.212689
vt 0.50071 0.197754
vt 0.539119 0.262887
vt 0.44441 0.149101




usemtl MEP_RockWall_b
usemap MEP_RockWall_b
f 85/85/85 88/88/88 87/87/87
f 85/85/85 87/87/87 86/86/86
f 86/86/86 87/87/87 89/89/89
f 96/96/96 97/97/97 92/92/92
f 96/96/96 92/92/92 93/93/93
f 93/93/93 92/92/92 91/91/91
f 93/93/93 91/91/91 94/94/94
f 87/87/87 95/95/95 91/91/91
f 87/87/87 91/91/91 90/90/90
f 90/90/90 91/91/91 92/92/92
f 98/98/98 101/101/101 100/100/100
f 98/98/98 100/100/100 99/99/99
f 99/99/99 100/100/100 102/102/102
f 109/109/109 110/110/110 105/105/105
f 109/109/109 105/105/105 106/106/106
f 106/106/106 105/105/105 104/104/104
f 106/106/106 104/104/104 107/107/107
f 100/100/100 108/108/108 104/104/104
f 100/100/100 104/104/104 103/103/103
f 103/103/103 104/104/104 105/105/105
f 5/5/5 4/4/4 1/1/1
f 5/5/5 1/1/1 2/2/2
f 2/2/2 1/1/1 3/3/3
f 2/2/2 3/3/3 6/6/6
f 6/6/6 3/3/3 7/7/7
f 4/4/4 7/7/7 3/3/3
f 4/4/4 3/3/3 1/1/1
f 13/13/13 14/14/14 12/12/12
f 13/13/13 12/12/12 11/11/11
f 11/11/11 12/12/12 8/8/8
f 11/11/11 8/8/8 9/9/9
f 9/9/9 8/8/8 10/10/10
f 12/12/12 14/14/14 10/10/10
f 12/12/12 10/10/10 8/8/8
f 19/19/19 18/18/18 15/15/15
f 19/19/19 15/15/15 16/16/16
f 16/16/16 15/15/15 17/17/17
f 16/16/16 17/17/17 20/20/20
f 20/20/20 17/17/17 21/21/21
f 18/18/18 21/21/21 17/17/17
f 18/18/18 17/17/17 15/15/15
f 27/27/27 28/28/28 26/26/26
f 27/27/27 26/26/26 25/25/25
f 25/25/25 26/26/26 22/22/22
f 25/25/25 22/22/22 23/23/23
f 23/23/23 22/22/22 24/24/24
f 26/26/26 28/28/28 24/24/24
f 26/26/26 24/24/24 22/22/22
f 33/33/33 32/32/32 29/29/29
f 33/33/33 29/29/29 30/30/30
f 30/30/30 29/29/29 31/31/31
f 30/30/30 31/31/31 34/34/34
f 34/34/34 31/31/31 35/35/35
f 32/32/32 35/35/35 31/31/31
f 32/32/32 31/31/31 29/29/29
f 41/41/41 42/42/42 40/40/40
f 41/41/41 40/40/40 39/39/39
f 39/39/39 40/40/40 36/36/36
f 39/39/39 36/36/36 37/37/37
f 37/37/37 36/36/36 38/38/38
f 40/40/40 42/42/42 38/38/38
f 40/40/40 38/38/38 36/36/36
f 47/47/47 46/46/46 43/43/43
f 47/47/47 43/43/43 44/44/44
f 44/44/44 43/43/43 45/45/45
f 44/44/44 45/45/45 48/48/48
f 48/48/48 45/45/45 49/49/49
f 46/46/46 49/49/49 45/45/45
f 46/46/46 45/45/45 43/43/43
f 55/55/55 56/56/56 54/54/54
f 55/55/55 54/54/54 53/53/53
f 53/53/53 54/54/54 50/50/50
f 53/53/53 50/50/50 51/51/51
f 51/51/51 50/50/50 52/52/52
f 54/54/54 56/56/56 52/52/52
f 54/54/54 52/52/52 50/50/50
f 61/61/61 60/60/60 57/57/57
f 61/61/61 57/57/57 58/58/58
f 58/58/58 57/57/57 59/59/59
f 58/58/58 59/59/59 62/62/62
f 62/62/62 59/59/59 63/63/63
f 60/60/60 63/63/63 59/59/59
f 60/60/60 59/59/59 57/57/57
f 69/69/69 70/70/70 68/68/68
f 69/69/69 68/68/68 67/67/67
f 67/67/67 68/68/68 64/64/64
f 67/67/67 64/64/64 65/65/65
f 65/65/65 64/64/64 66/66/66
f 68/68/68 70/70/70 66/66/66
f 68/68/68 66/66/66 64/64/64
f 75/75/75 74/74/74 71/71/71
f 75/75/75 71/71/71 72/72/72
f 72/72/72 71/71/71 73/73/73
f 72/72/72 73/73/73 76/76/76
f 76/76/76 73/73/73 77/77/77
f 74/74/74 77/77/77 73/73/73
f 74/74/74 73/73/73 71/71/71
f 83/83/83 84/84/84 82/82/82
f 83/83/83 82/82/82 81/81/81
f 81/81/81 82/82/82 78/78/78
f 81/81/81 78/78/78 79/79/79
f 79/79/79 78/78/78 80/80/80
f 82/82/82 84/84/84 80/80/80
f 82/82/82 80/80/80 78/78/78
f 113/113/113 117/117/117 115/115/115
f 113/113/113 115/115/115 112/112/112
f 112/112/112 115/115/115 116/116/116
f 112/112/112 116/116/116 118/118/118
f 118/118/118 116/116/116 117/117/117
f 118/118/118 117/117/117 114/114/114
f 114/114/114 117/117/117 113/113/113
f 114/114/114 113/113/113 111/111/111
f 111/111/111 113/113/113 112/112/112
f 121/121/121 125/125/125 123/123/123
f 121/121/121 123/123/123 120/120/120
f 120/120/120 123/123/123 124/124/124
f 120/120/120 124/124/124 126/126/126
f 126/126/126 124/124/124 125/125/125
f 126/126/126 125/125/125 122/122/122
f 122/122/122 125/125/125 121/121/121
f 122/122/122 121/121/121 119/119/119
f 119/119/119 121/121/121 120/120/120
f 115/115/115 117/117/117 116/116/116
f 123/123/123 125/125/125 124/124/124

