g NewMesh_tris_72
v -15.70427 3.306334 8.595388
v -16.80455 1.856355 10.6502
v -15.01239 1.368506 6.740977
v -12.92173 2.890941 8.947215
v -14.51871 3.051678 10.64807
v -15.8118 -0.6037434 8.26599
v -13.17886 -0.09246221 7.685435
v -13.35974 -0.3328991 9.516322
v -15.8118 -0.6037434 8.26599
v -16.80455 1.856355 10.6502
v -13.17886 -0.09246221 7.685435
v -13.27102 1.502064 10.79088
v -12.92173 2.890941 8.947215
v -14.51871 3.051678 10.64807
v -24.43176 2.766261 17.23498
v -23.49053 -0.005643284 14.73665
v -22.41905 5.837737 15.97161
v -21.23209 2.965796 19.58508
v -22.43939 0.2570423 18.18695
v -20.83336 3.959496 13.2457
v -18.94999 5.224143 16.35308
v -18.35882 2.721275 15.96204
v -20.83336 3.959496 13.2457
v -23.49053 -0.005643284 14.73665
v -18.94999 5.224143 16.35308
v -19.68462 0.6336558 17.88838
v -21.23209 2.965796 19.58508
v -22.43939 0.2570423 18.18695
v -3.488167 0.2786881 -1.960464
v -3.116216 -0.5751171 -2.200164
v -3.35438 0.3272018 -1.603373
v -4.378255 -0.2387255 -1.529916
v -3.99689 -0.4534494 -2.246188
v -2.728229 -0.4900951 -1.086088
v -3.634486 -0.2136798 -0.6105967
v -10.78193 0.9468256 1.934603
v -9.946315 0.2893202 2.202487
v -11.04315 0.9102131 2.28465
v -11.38532 -0.0461556 1.415963
v -10.44799 0.1294769 1.334664
v -10.74442 0.09717507 3.27247
v -11.79003 -0.1059246 2.701051
v -20.82786 1.19721 11.37956
v -18.57956 1.18601 11.68325
v -20.47232 2.754173 11.97119
v -21.4466 1.669769 13.75337
v -19.18017 2.786173 12.09669
v -19.18017 2.786173 12.09669
v -20.04618 3.153228 13.08064
v -19.41672 2.581325 13.43239
v -18.94782 1.467465 14.41302
v -21.4466 1.669769 13.75337
v -21.4466 1.669769 13.75337
v -18.57956 1.18601 11.68325
v -19.18017 2.786173 12.09669
v 0.2987044 -2.006847 0.03568788
v 2.045737 -0.2128244 0.4329241
v -0.5206414 -0.5736682 -0.7824864
v -1.619032 -0.691828 1.338591
v 0.7574457 0.7051748 -0.5823565
v -0.2770771 1.243033 0.9913638
v -1.060902 0.937821 -0.06674653
v 0.1480361 1.248134 2.52388
v -2.937425 0.03741894 2.082615
v -3.627918 1.416366 4.098935
v -3.721791 1.476002 1.235201
v -5.428993 -0.2010269 1.15699
v -4.148464 2.519334 2.665699
v -5.921077 1.694493 2.51475
v -5.393733 2.019104 1.311403
v -6.697548 0.7729183 3.555518

vn -0.479908 0.8048251 -0.349206
vn -0.8246164 0.02926205 0.564935
vn -0.2173476 0.1245065 -0.9681209
vn 0.7686407 0.6181784 -0.1644595
vn 0.0798082 0.7230666 0.6861525
vn -0.5896386 -0.7824623 -0.2001976
vn 0.6675147 -0.5065417 -0.5457469
vn 0.5194877 -0.747731 0.4135587
vn -0.5896386 -0.7824623 -0.2001976
vn -0.8246164 0.02926205 0.564935
vn 0.6675147 -0.5065417 -0.5457469
vn 0.5968744 -0.1136022 0.7942514
vn 0.7686407 0.6181784 -0.1644595
vn 0.0798082 0.7230666 0.6861525
vn -0.9615205 0.1554018 0.2265584
vn -0.4724513 -0.6836807 -0.5562109
vn -0.4372717 0.8961483 -0.07557558
vn 0.06830214 0.1930072 0.9788172
vn -0.3035004 -0.7597536 0.5750321
vn 0.09345638 0.2141755 -0.9723142
vn 0.6986557 0.7072981 0.1077482
vn 0.9626464 -0.2202191 -0.1575293
vn 0.09345638 0.2141755 -0.9723142
vn -0.4724513 -0.6836807 -0.5562109
vn 0.6986557 0.7072981 0.1077482
vn 0.6557054 -0.6691463 0.3497049
vn 0.06830214 0.1930072 0.9788172
vn -0.3035004 -0.7597536 0.5750321
vn 0.08303984 0.8398977 -0.5363546
vn 0.5853075 0.4368932 -0.6830371
vn 0.3015622 0.9520773 0.05107885
vn -0.562435 0.8248168 -0.05782799
vn -0.3232015 0.5304341 -0.7836966
vn 0.7423237 0.6557719 0.1375456
vn 0.03751797 0.8730239 0.4862321
vn 0.08255619 0.952313 -0.293742
vn 0.6105908 0.7890376 0.06781255
vn -0.309179 0.9280623 0.2076258
vn -0.5848097 0.5899485 -0.5567391
vn 0.2111516 0.6329803 -0.7448159
vn -0.03474841 0.7664608 0.6413502
vn -0.7328348 0.6368231 0.2396026
vn -0.4258775 0.4047297 -0.809211
vn 0.6859936 0.4597964 -0.5639149
vn -0.4323778 0.6801862 -0.5919427
vn -0.6512601 0.6669323 0.3620243
vn 0.5922252 0.6768459 -0.4372058
vn 0.5922252 0.6768459 -0.4372058
vn -0.1170406 0.9486846 0.2937668
vn 0.4973409 0.6730039 0.5474649
vn 0.4960995 0.6498273 0.5758556
vn -0.6512601 0.6669323 0.3620243
vn -0.6512601 0.6669323 0.3620243
vn 0.6859936 0.4597964 -0.5639149
vn 0.5922252 0.6768459 -0.4372058
vn -0.05834446 -0.5198999 -0.8522324
vn 0.6801922 0.3826703 -0.6252216
vn -0.3420244 -0.2550738 -0.9044096
vn -0.9865106 0.07166973 -0.1471743
vn 0.4322151 0.5381573 -0.7235862
vn -0.1815189 0.9818992 0.05408261
vn -0.6563187 0.6255758 -0.4217827
vn -0.1353639 0.9872304 0.0839801
vn 0.8475557 0.1649633 -0.5044169
vn 0.4242533 0.8143903 0.3959513
vn 0.5852568 0.3414865 -0.7354329
vn -0.3735757 -0.03194685 -0.9270494
vn 0.2778528 0.9473998 0.1588441
vn -0.7577828 0.6521221 0.02240746
vn -0.4282774 0.6147247 -0.6623383
vn -0.7603278 0.6449438 0.07713

vt 0.251578 0.310394
vt 0.330479 0.502447
vt 0.344551 0.22311
vt 0.115042 0.150316
vt 0.091143 0.390057
vt 0.511544 0.265925
vt 0.393297 0.054999
vt 0.683346 0.196268
vt 0.510262 0.28045
vt 0.738581 0.489561
vt 0.624543 0.078051
vt 0.791647 0.240108
vt 0.889768 0.104492
vt 0.902042 0.322025
vt 0.251578 0.310394
vt 0.330479 0.502447
vt 0.344551 0.22311
vt 0.115042 0.150316
vt 0.091143 0.390057
vt 0.511544 0.265925
vt 0.393297 0.054999
vt 0.683346 0.196268
vt 0.510262 0.28045
vt 0.738581 0.489561
vt 0.624543 0.078051
vt 0.791647 0.240108
vt 0.889768 0.104492
vt 0.902042 0.322025
vt 0.736972 0.258286
vt 0.78174 0.17808
vt 0.699507 0.254278
vt 0.736741 0.370822
vt 0.822405 0.292692
vt 0.631653 0.171222
vt 0.598874 0.306051
vt 0.736972 0.258286
vt 0.78174 0.17808
vt 0.699507 0.254278
vt 0.736741 0.370822
vt 0.822405 0.292692
vt 0.631653 0.171222
vt 0.598874 0.306051
vt 0.576068 0.37146
vt 0.69944 0.470374
vt 0.641933 0.358651
vt 0.678442 0.238777
vt 0.69629 0.38966
vt 0.69629 0.38966
vt 0.699473 0.332023
vt 0.7548 0.343914
vt 0.825099 0.335205
vt 0.678442 0.238777
vt 0.678442 0.238777
vt 0.69944 0.470374
vt 0.69629 0.38966
vt 0.678817 0.339571
vt 0.668479 0.1514
vt 0.616117 0.295391
vt 0.483187 0.352658
vt 0.60151 0.212689
vt 0.50071 0.197754
vt 0.539119 0.262887
vt 0.44441 0.149101
vt 0.678817 0.339571
vt 0.668479 0.1514
vt 0.616117 0.295391
vt 0.483187 0.352658
vt 0.60151 0.212689
vt 0.50071 0.197754
vt 0.539119 0.262887
vt 0.44441 0.149101




usemtl MEP_RockWall_b
usemap MEP_RockWall_b
f 43/43/43 46/46/46 45/45/45
f 43/43/43 45/45/45 44/44/44
f 44/44/44 45/45/45 47/47/47
f 54/54/54 55/55/55 50/50/50
f 54/54/54 50/50/50 51/51/51
f 51/51/51 50/50/50 49/49/49
f 51/51/51 49/49/49 52/52/52
f 45/45/45 53/53/53 49/49/49
f 45/45/45 49/49/49 48/48/48
f 48/48/48 49/49/49 50/50/50
f 5/5/5 4/4/4 1/1/1
f 5/5/5 1/1/1 2/2/2
f 2/2/2 1/1/1 3/3/3
f 2/2/2 3/3/3 6/6/6
f 6/6/6 3/3/3 7/7/7
f 4/4/4 7/7/7 3/3/3
f 4/4/4 3/3/3 1/1/1
f 13/13/13 14/14/14 12/12/12
f 13/13/13 12/12/12 11/11/11
f 11/11/11 12/12/12 8/8/8
f 11/11/11 8/8/8 9/9/9
f 9/9/9 8/8/8 10/10/10
f 12/12/12 14/14/14 10/10/10
f 12/12/12 10/10/10 8/8/8
f 19/19/19 18/18/18 15/15/15
f 19/19/19 15/15/15 16/16/16
f 16/16/16 15/15/15 17/17/17
f 16/16/16 17/17/17 20/20/20
f 20/20/20 17/17/17 21/21/21
f 18/18/18 21/21/21 17/17/17
f 18/18/18 17/17/17 15/15/15
f 27/27/27 28/28/28 26/26/26
f 27/27/27 26/26/26 25/25/25
f 25/25/25 26/26/26 22/22/22
f 25/25/25 22/22/22 23/23/23
f 23/23/23 22/22/22 24/24/24
f 26/26/26 28/28/28 24/24/24
f 26/26/26 24/24/24 22/22/22
f 33/33/33 32/32/32 29/29/29
f 33/33/33 29/29/29 30/30/30
f 30/30/30 29/29/29 31/31/31
f 30/30/30 31/31/31 34/34/34
f 34/34/34 31/31/31 35/35/35
f 32/32/32 35/35/35 31/31/31
f 32/32/32 31/31/31 29/29/29
f 40/40/40 39/39/39 36/36/36
f 40/40/40 36/36/36 37/37/37
f 37/37/37 36/36/36 38/38/38
f 37/37/37 38/38/38 41/41/41
f 41/41/41 38/38/38 42/42/42
f 39/39/39 42/42/42 38/38/38
f 39/39/39 38/38/38 36/36/36
f 58/58/58 62/62/62 60/60/60
f 58/58/58 60/60/60 57/57/57
f 57/57/57 60/60/60 61/61/61
f 57/57/57 61/61/61 63/63/63
f 63/63/63 61/61/61 62/62/62
f 63/63/63 62/62/62 59/59/59
f 59/59/59 62/62/62 58/58/58
f 59/59/59 58/58/58 56/56/56
f 56/56/56 58/58/58 57/57/57
f 66/66/66 70/70/70 68/68/68
f 66/66/66 68/68/68 65/65/65
f 65/65/65 68/68/68 69/69/69
f 65/65/65 69/69/69 71/71/71
f 71/71/71 69/69/69 70/70/70
f 71/71/71 70/70/70 67/67/67
f 67/67/67 70/70/70 66/66/66
f 67/67/67 66/66/66 64/64/64
f 64/64/64 66/66/66 65/65/65
f 60/60/60 62/62/62 61/61/61
f 68/68/68 70/70/70 69/69/69

