g NewMesh_tris_71
v -0.9339503 1.289358 -3.879315
v -2.951182 -0.4490612 -4.25952
v -0.07380862 1.815677 -6.399428
v 1.322549 -0.2929623 -4.231298
v -0.6658904 -0.959976 -3.307745
v -1.746984 0.1963578 -7.476648
v 0.9061716 -0.2331168 -7.38762
v 0.0430315 -1.733744 -6.831757
v -1.746984 0.1963578 -7.476648
v -2.951182 -0.4490612 -4.25952
v 0.9061716 -0.2331168 -7.38762
v 0.06018909 -2.147283 -4.680132
v 1.322549 -0.2929623 -4.231298
v -0.6658904 -0.959976 -3.307745
v 0.3770158 0.7308925 4.222638
v -0.1218527 -0.1213686 4.626995
v 0.4939286 0.5910933 3.836973
v 1.449694 0.3051836 4.671606
v 0.6344864 0.2778758 5.121362
v 0.2684407 -0.6142343 3.474907
v 1.393482 -0.271158 3.493782
v 3.934016 5.914756 2.479218
v 2.777637 5.383476 1.426176
v 3.89894 6.783659 1.595326
v 5.313366 5.935984 1.293831
v 3.210312 6.513032 1.006703
v 3.210312 6.513032 1.006703
v 4.122004 6.764402 0.7104574
v 3.950456 6.184411 0.4220901
v 4.182274 5.159693 -0.002333247
v 5.313366 5.935984 1.293831
v 5.313366 5.935984 1.293831
v 2.777637 5.383476 1.426176
v 3.210312 6.513032 1.006703
v 1.60237 -1.382797 -0.2113401
v 0.003084612 -1.123252 1.895283
v 0.9547543 0.413704 -0.4994116
v -0.4442973 -0.9561411 -2.064688
v -0.1274181 0.6527166 1.052161
v -1.680029 0.09915174 -0.1716535
v -0.7708842 0.9794123 -0.8088916
v -2.689602 -1.223162 -0.06555469
v 5.167544 4.519007 -2.314514
v 3.532936 4.821843 -0.3557533
v 3.983495 5.75137 -3.066083
v 3.262807 3.642035 -4.016715
v 2.849709 6.047818 -1.643352
v 1.695322 4.685831 -2.510024
v 2.246807 5.558798 -3.409914
v 1.229588 3.243505 -1.962484
v 9.63378 5.024919 -4.283697
v 8.2511 5.664869 -2.883416
v 8.652428 5.723032 -5.184195
v 8.18766 3.839054 -5.394983
v 7.687968 6.248914 -4.185464
v 6.8412 4.936288 -4.525059
v 7.274152 5.406466 -5.42427
v 6.510853 3.947285 -3.752012
v -2.169185 -0.3830372 -0.2530223
v -3.316153 -0.6122296 1.197858
v -2.809016 0.810492 -0.2669065
v -3.62365 -0.09579614 -1.533813
v -3.592568 0.6844643 0.8091647
v -4.602859 0.2816808 -0.1340395
v -4.063885 1.051453 -0.4566988
v -5.161312 -0.7407647 -0.2303686

vn -0.1326986 0.7867952 0.6027805
vn -0.9457626 -0.1111867 0.3052389
vn 0.181613 0.9404333 -0.2874052
vn 0.8907364 0.03985483 0.4527697
vn -0.01922649 -0.3377684 0.9410328
vn -0.6319946 0.1271946 -0.7644635
vn 0.6924903 -0.01368667 -0.7212975
vn 0.1576368 -0.8359057 -0.5257493
vn -0.6319946 0.1271946 -0.7644635
vn -0.9457626 -0.1111867 0.3052389
vn 0.6924903 -0.01368667 -0.7212975
vn 0.2277141 -0.951801 0.2054774
vn 0.8907364 0.03985483 0.4527697
vn -0.01922649 -0.3377684 0.9410328
vn -0.3779331 0.9245953 -0.04785553
vn -0.872674 0.4876205 -0.02581731
vn -0.2030491 0.746523 -0.6336201
vn 0.4253977 0.9042075 -0.03802194
vn -0.201471 0.8502534 0.4862907
vn -0.5086515 0.3335841 -0.7937225
vn 0.267306 0.5839475 -0.76652
vn -0.1897919 0.6963842 0.6921186
vn -0.922344 0.3681472 -0.1172563
vn -0.07500417 0.8996421 0.4301376
vn 0.6795512 0.7147524 -0.1653455
vn -0.7890303 0.564692 -0.2419792
vn -0.7890303 0.564692 -0.2419792
vn 0.1933269 0.8392956 -0.5081411
vn -0.114401 0.3453985 -0.9314571
vn -0.09423564 0.3172947 -0.9436332
vn 0.6795512 0.7147524 -0.1653455
vn 0.6795512 0.7147524 -0.1653455
vn -0.922344 0.3681472 -0.1172563
vn -0.7890303 0.564692 -0.2419792
vn 0.9412228 0.3376293 -0.01030031
vn 0.1480709 0.484878 0.8619561
vn 0.7558592 0.6213219 -0.2064852
vn -0.01728854 0.4526036 -0.8915442
vn 0.07801609 0.7264205 0.682808
vn -0.7959257 0.6032571 0.05082585
vn -0.2454294 0.8870325 -0.3910728
vn -0.8165292 0.5702392 0.09004158
vn 0.760718 0.6258006 -0.1722839
vn -0.07581121 0.7447897 0.6629788
vn 0.4971804 0.751866 -0.4330234
vn -0.1314407 0.1217913 -0.9838141
vn -0.2175875 0.8792026 0.4238614
vn -0.9591083 0.2703341 -0.08385019
vn -0.5229053 0.5793928 -0.6251992
vn -0.9686595 0.2458807 -0.03523573
vn 0.7331797 0.586382 -0.3443887
vn -0.1375317 0.9071938 0.3975982
vn 0.4729472 0.6097271 -0.6360455
vn -0.1024629 -0.1961259 -0.9752107
vn -0.2774392 0.9524348 0.1260773
vn -0.9681503 0.1732533 -0.1807436
vn -0.5294418 0.3255488 -0.7833961
vn -0.9781542 0.1644844 -0.1271191
vn 0.8786163 0.4718469 0.07344225
vn 0.06587925 0.3557257 0.9322655
vn 0.653523 0.7525557 -0.08104139
vn -0.07969339 0.583073 -0.8085015
vn -0.03894667 0.6098205 0.7915821
vn -0.8791231 0.4611063 0.1205139
vn -0.3752251 0.89175 -0.2529587
vn -0.8947265 0.4194747 0.1533148

vt 0.251578 0.310394
vt 0.330479 0.502447
vt 0.344551 0.22311
vt 0.115042 0.150316
vt 0.091143 0.390057
vt 0.511544 0.265925
vt 0.393297 0.054999
vt 0.683346 0.196268
vt 0.510262 0.28045
vt 0.738581 0.489561
vt 0.624543 0.078051
vt 0.791647 0.240108
vt 0.889768 0.104492
vt 0.902042 0.322025
vt 0.736972 0.258286
vt 0.78174 0.17808
vt 0.699507 0.254278
vt 0.736741 0.370822
vt 0.822405 0.292692
vt 0.631653 0.171222
vt 0.598874 0.306051
vt 0.576068 0.37146
vt 0.69944 0.470374
vt 0.641933 0.358651
vt 0.678442 0.238777
vt 0.69629 0.38966
vt 0.69629 0.38966
vt 0.699473 0.332023
vt 0.7548 0.343914
vt 0.825099 0.335205
vt 0.678442 0.238777
vt 0.678442 0.238777
vt 0.69944 0.470374
vt 0.69629 0.38966
vt 0.678817 0.339571
vt 0.668479 0.1514
vt 0.616117 0.295391
vt 0.483187 0.352658
vt 0.60151 0.212689
vt 0.50071 0.197754
vt 0.539119 0.262887
vt 0.44441 0.149101
vt 0.678817 0.339571
vt 0.668479 0.1514
vt 0.616117 0.295391
vt 0.483187 0.352658
vt 0.60151 0.212689
vt 0.50071 0.197754
vt 0.539119 0.262887
vt 0.44441 0.149101
vt 0.678817 0.339571
vt 0.668479 0.1514
vt 0.616117 0.295391
vt 0.483187 0.352658
vt 0.60151 0.212689
vt 0.50071 0.197754
vt 0.539119 0.262887
vt 0.44441 0.149101
vt 0.678817 0.339571
vt 0.668479 0.1514
vt 0.616117 0.295391
vt 0.483187 0.352658
vt 0.60151 0.212689
vt 0.50071 0.197754
vt 0.539119 0.262887
vt 0.44441 0.149101




usemtl MEP_RockWall_b
usemap MEP_RockWall_b
f 22/22/22 25/25/25 24/24/24
f 22/22/22 24/24/24 23/23/23
f 23/23/23 24/24/24 26/26/26
f 33/33/33 34/34/34 29/29/29
f 33/33/33 29/29/29 30/30/30
f 30/30/30 29/29/29 28/28/28
f 30/30/30 28/28/28 31/31/31
f 24/24/24 32/32/32 28/28/28
f 24/24/24 28/28/28 27/27/27
f 27/27/27 28/28/28 29/29/29
f 5/5/5 4/4/4 1/1/1
f 5/5/5 1/1/1 2/2/2
f 2/2/2 1/1/1 3/3/3
f 2/2/2 3/3/3 6/6/6
f 6/6/6 3/3/3 7/7/7
f 4/4/4 7/7/7 3/3/3
f 4/4/4 3/3/3 1/1/1
f 13/13/13 14/14/14 12/12/12
f 13/13/13 12/12/12 11/11/11
f 11/11/11 12/12/12 8/8/8
f 11/11/11 8/8/8 9/9/9
f 9/9/9 8/8/8 10/10/10
f 12/12/12 14/14/14 10/10/10
f 12/12/12 10/10/10 8/8/8
f 19/19/19 18/18/18 15/15/15
f 19/19/19 15/15/15 16/16/16
f 16/16/16 15/15/15 17/17/17
f 16/16/16 17/17/17 20/20/20
f 20/20/20 17/17/17 21/21/21
f 18/18/18 21/21/21 17/17/17
f 18/18/18 17/17/17 15/15/15
f 37/37/37 41/41/41 39/39/39
f 37/37/37 39/39/39 36/36/36
f 36/36/36 39/39/39 40/40/40
f 36/36/36 40/40/40 42/42/42
f 42/42/42 40/40/40 41/41/41
f 42/42/42 41/41/41 38/38/38
f 38/38/38 41/41/41 37/37/37
f 38/38/38 37/37/37 35/35/35
f 35/35/35 37/37/37 36/36/36
f 45/45/45 49/49/49 47/47/47
f 45/45/45 47/47/47 44/44/44
f 44/44/44 47/47/47 48/48/48
f 44/44/44 48/48/48 50/50/50
f 50/50/50 48/48/48 49/49/49
f 50/50/50 49/49/49 46/46/46
f 46/46/46 49/49/49 45/45/45
f 46/46/46 45/45/45 43/43/43
f 43/43/43 45/45/45 44/44/44
f 53/53/53 57/57/57 55/55/55
f 53/53/53 55/55/55 52/52/52
f 52/52/52 55/55/55 56/56/56
f 52/52/52 56/56/56 58/58/58
f 58/58/58 56/56/56 57/57/57
f 58/58/58 57/57/57 54/54/54
f 54/54/54 57/57/57 53/53/53
f 54/54/54 53/53/53 51/51/51
f 51/51/51 53/53/53 52/52/52
f 61/61/61 65/65/65 63/63/63
f 61/61/61 63/63/63 60/60/60
f 60/60/60 63/63/63 64/64/64
f 60/60/60 64/64/64 66/66/66
f 66/66/66 64/64/64 65/65/65
f 66/66/66 65/65/65 62/62/62
f 62/62/62 65/65/65 61/61/61
f 62/62/62 61/61/61 59/59/59
f 59/59/59 61/61/61 60/60/60
f 39/39/39 41/41/41 40/40/40
f 47/47/47 49/49/49 48/48/48
f 55/55/55 57/57/57 56/56/56
f 63/63/63 65/65/65 64/64/64

