g NewMesh_tris_102
v 2.068489 1.350427 0.8108662
v -0.2925744 0.6886121 3.455331
v -0.05301708 2.210359 -2.018037
v 1.885593 -1.740825 -1.259311
v 1.594104 -1.584929 1.795235
v -2.964324 1.691229 -0.2614733
v -1.8232 -0.4465585 -2.930899
v -2.446127 -1.824472 -1.01901
v -2.964324 1.691229 -0.2614733
v -0.2925744 0.6886121 3.455331
v -1.8232 -0.4465585 -2.930899
v -0.2527328 -2.974689 0.5605468
v 1.885593 -1.740825 -1.259311
v 1.594104 -1.584929 1.795235
v -4.122353 4.274418 2.534151
v -5.343759 2.586578 0.01450536
v -0.9241444 3.464875 2.518056
v -3.785597 1.916488 4.927958
v -5.794406 2.027511 3.001684
v -1.237368 1.502841 0.1147718
v -0.6187103 0.5435667 3.177449
v -2.282946 -0.6628145 2.365913
v -1.237368 1.502841 0.1147718
v -5.343759 2.586578 0.01450536
v -0.6187103 0.5435667 3.177449
v -4.729991 -0.08268132 3.241936
v -3.785597 1.916488 4.927958
v -5.794406 2.027511 3.001684
v 4.087956 -2.452394 -3.091999
v 2.900384 -2.904692 -3.02413
v 4.285127 -2.727917 -3.471449
v 4.529219 -3.498285 -2.147397
v 3.582383 -2.923484 -2.063724
v 3.476066 -3.828705 -4.148686
v 4.673067 -4.218507 -3.529601
v 1.656252 0.1896345 4.635371
v 0.6756474 -0.1133765 4.763802
v 1.721041 0.1055508 4.235766
v 2.025452 -0.9211041 4.90127
v 1.359033 -0.4824065 5.323855
v 0.8480853 -0.4414761 3.546817
v 1.841667 -0.9922933 3.644435
v 6.079541 -4.334229 -0.3162122
v 5.895178 -4.826935 -2.428875
v 7.365929 -3.609216 -1.016708
v 8.219623 -5.357712 0.03017799
v 7.246321 -3.834451 -2.236548
v 7.246321 -3.834451 -2.236548
v 8.34277 -4.052969 -1.561019
v 8.154431 -4.76795 -2.044081
v 8.141144 -6.240294 -2.294331
v 8.219623 -5.357712 0.03017799
v 8.219623 -5.357712 0.03017799
v 5.895178 -4.826935 -2.428875
v 7.246321 -3.834451 -2.236548
v 5.590918 -4.857437 -2.557986
v 3.504108 -3.953118 -3.610794
v 6.313525 -3.925292 -3.945721
v 6.34157 -6.157574 -4.723104
v 4.83471 -3.198457 -4.665379
v 4.895599 -4.705612 -5.87901
v 6.10271 -4.180074 -5.651169
v 3.855512 -5.867467 -6.078118
v 2.36651 -2.280421 1.407303
v 4.160298 -3.479546 -0.1972532
v 3.921734 -1.140313 1.722828
v 3.904011 -2.667707 3.74754
v 5.196865 -1.930561 0.5098825
v 5.859878 -2.971009 2.180941
v 5.568657 -1.596759 2.466662
v 5.864704 -4.632016 2.473926
v 8.016778 -8.249205 -8.6814
v 6.919428 -6.810148 -6.728609
v 7.687077 -6.593602 -9.62668
v 5.777649 -8.055821 -10.3496
v 6.980512 -5.515331 -8.217129
v 5.145597 -6.081082 -8.954013
v 6.074208 -5.769748 -9.981379
v 3.934593 -6.963196 -8.216186
v 9.819736 -9.460693 -10.2803
v 11.69078 -9.453433 -8.822941
v 10.00532 -7.764486 -10.03787
v 8.328579 -8.296856 -8.656025
v 11.39502 -7.736019 -9.056426
v 10.20855 -7.634512 -7.66412
v 9.874408 -6.905961 -8.642013
v 9.979569 -8.591623 -6.548482
v -5.273067 1.5359 0.868177
v -6.656968 2.732411 2.181056
v -6.044937 2.426136 -0.267305
v -7.032084 0.5483459 -0.3705132
v -6.990189 3.346653 0.6649705
v -8.212732 2.154941 0.331841
v -7.561192 2.431656 -0.6377397
v -8.888701 1.292318 1.222902

vn 0.7815176 0.5991833 0.17381
vn -0.1305103 0.2634957 0.9557914
vn 0.2130017 0.7932089 -0.5704822
vn 0.7156169 -0.4740064 -0.5130402
vn 0.6411552 -0.4981765 0.5837294
vn -0.8144672 0.5719523 0.09753924
vn -0.3602803 -0.1604845 -0.9189358
vn -0.7283607 -0.6704746 -0.1412608
vn -0.8144672 0.5719523 0.09753924
vn -0.1305103 0.2634957 0.9557914
vn -0.3602803 -0.1604845 -0.9189358
vn -0.1390814 -0.9699903 0.1994375
vn 0.7156169 -0.4740064 -0.5130402
vn 0.6411552 -0.4981765 0.5837294
vn -0.2169107 0.9715008 0.09558219
vn -0.5830762 0.1763638 -0.7930435
vn 0.7017704 0.7053563 0.09995341
vn -0.1120396 0.06899129 0.9913059
vn -0.9555676 0.07146231 0.2859783
vn 0.5253802 -0.08438005 -0.8466733
vn 0.8120936 -0.4124991 0.412733
vn 0.1371759 -0.989396 -0.04773154
vn 0.5253802 -0.08438005 -0.8466733
vn -0.5830762 0.1763638 -0.7930435
vn 0.8120936 -0.4124991 0.412733
vn -0.5178552 -0.8155022 0.2584223
vn -0.1120396 0.06899129 0.9913059
vn -0.9555676 0.07146231 0.2859783
vn 0.2491507 0.9648154 -0.08399609
vn -0.3612295 0.8758335 -0.3200455
vn 0.5170621 0.64373 -0.564144
vn 0.8219967 0.5113243 0.2507367
vn 0.1210879 0.8785621 0.4620242
vn 0.1321138 0.4471609 -0.8846429
vn 0.8261684 0.2349883 -0.5120804
vn 0.3668105 0.8969961 0.246674
vn -0.2834739 0.9482278 0.1432016
vn 0.4895791 0.7900862 -0.3688847
vn 0.920156 0.3143409 0.2334582
vn 0.3328842 0.5989395 0.7283264
vn 0.0266009 0.7661932 -0.6420594
vn 0.7399863 0.3801718 -0.5548781
vn -0.2957403 0.8811555 0.3689211
vn -0.2805451 0.6126944 -0.7388504
vn 0.0409622 0.952774 0.3009047
vn 0.8074526 0.365889 0.4627586
vn -0.03294342 0.7097313 -0.7037018
vn -0.03294342 0.7097313 -0.7037018
vn 0.8276306 0.5490615 -0.1164431
vn 0.7398159 0.09325792 -0.6663148
vn 0.7477199 0.05777507 -0.6614959
vn 0.8074526 0.365889 0.4627586
vn 0.8074526 0.365889 0.4627586
vn -0.2805451 0.6126944 -0.7388504
vn -0.03294342 0.7097313 -0.7037018
vn 0.5545945 0.5277894 0.6433219
vn -0.3985633 0.9158002 0.04957033
vn 0.7595635 0.5704869 0.3124228
vn 0.8995719 -0.1894853 -0.3935298
vn -0.1777473 0.971138 -0.1590501
vn -0.1012284 0.2466611 -0.9638004
vn 0.6055886 0.3637519 -0.7077761
vn -0.1556581 0.238784 -0.9585159
vn -0.5293419 0.8001265 -0.282125
vn 0.3305377 0.2671977 -0.9051796
vn -0.248744 0.9663575 -0.06541856
vn 0.1287477 0.5566772 0.8206915
vn 0.4990949 0.4609737 -0.7337626
vn 0.9918316 0.01830026 0.1262348
vn 0.6570981 0.65617 0.37103
vn 0.9948531 -0.02861105 0.09720448
vn 0.9699402 0.05823525 -0.2362722
vn 0.398 0.7215468 0.5665388
vn 0.8097394 0.2829538 -0.5140615
vn -0.09575737 0.06811816 -0.9930711
vn 0.343853 0.8860601 0.3109064
vn -0.6399343 0.7574379 -0.1295068
vn -0.1374983 0.7025865 -0.6981881
vn -0.6588382 0.7481859 -0.07842252
vn 0.0823846 0.1321541 -0.9877996
vn 0.961135 0.1993438 -0.1910018
vn -0.02993771 0.4888951 -0.8718287
vn -0.7358932 0.6664261 -0.1197392
vn 0.8539316 0.4886632 -0.1789114
vn 0.2112929 0.7153465 0.666059
vn -0.136801 0.9894563 0.04755801
vn 0.2400939 0.6779587 0.6947855
vn 0.8791128 0.3511483 -0.3222663
vn 0.067347 0.9497495 0.3056799
vn 0.6540686 0.4065732 -0.6378813
vn -0.0801994 -0.2658778 -0.9606649
vn -0.03743558 0.9991098 0.01944806
vn -0.8785753 0.3838073 -0.2842488
vn -0.374773 0.3610819 -0.8539117
vn -0.8941737 0.3833768 -0.2312482

vt 0.251578 0.310394
vt 0.330479 0.502447
vt 0.344551 0.22311
vt 0.115042 0.150316
vt 0.091143 0.390057
vt 0.511544 0.265925
vt 0.393297 0.054999
vt 0.683346 0.196268
vt 0.510262 0.28045
vt 0.738581 0.489561
vt 0.624543 0.078051
vt 0.791647 0.240108
vt 0.889768 0.104492
vt 0.902042 0.322025
vt 0.251578 0.310394
vt 0.330479 0.502447
vt 0.344551 0.22311
vt 0.115042 0.150316
vt 0.091143 0.390057
vt 0.511544 0.265925
vt 0.393297 0.054999
vt 0.683346 0.196268
vt 0.510262 0.28045
vt 0.738581 0.489561
vt 0.624543 0.078051
vt 0.791647 0.240108
vt 0.889768 0.104492
vt 0.902042 0.322025
vt 0.736972 0.258286
vt 0.78174 0.17808
vt 0.699507 0.254278
vt 0.736741 0.370822
vt 0.822405 0.292692
vt 0.631653 0.171222
vt 0.598874 0.306051
vt 0.736972 0.258286
vt 0.78174 0.17808
vt 0.699507 0.254278
vt 0.736741 0.370822
vt 0.822405 0.292692
vt 0.631653 0.171222
vt 0.598874 0.306051
vt 0.576068 0.37146
vt 0.69944 0.470374
vt 0.641933 0.358651
vt 0.678442 0.238777
vt 0.69629 0.38966
vt 0.69629 0.38966
vt 0.699473 0.332023
vt 0.7548 0.343914
vt 0.825099 0.335205
vt 0.678442 0.238777
vt 0.678442 0.238777
vt 0.69944 0.470374
vt 0.69629 0.38966
vt 0.678817 0.339571
vt 0.668479 0.1514
vt 0.616117 0.295391
vt 0.483187 0.352658
vt 0.60151 0.212689
vt 0.50071 0.197754
vt 0.539119 0.262887
vt 0.44441 0.149101
vt 0.678817 0.339571
vt 0.668479 0.1514
vt 0.616117 0.295391
vt 0.483187 0.352658
vt 0.60151 0.212689
vt 0.50071 0.197754
vt 0.539119 0.262887
vt 0.44441 0.149101
vt 0.678817 0.339571
vt 0.668479 0.1514
vt 0.616117 0.295391
vt 0.483187 0.352658
vt 0.60151 0.212689
vt 0.50071 0.197754
vt 0.539119 0.262887
vt 0.44441 0.149101
vt 0.678817 0.339571
vt 0.668479 0.1514
vt 0.616117 0.295391
vt 0.483187 0.352658
vt 0.60151 0.212689
vt 0.50071 0.197754
vt 0.539119 0.262887
vt 0.44441 0.149101
vt 0.678817 0.339571
vt 0.668479 0.1514
vt 0.616117 0.295391
vt 0.483187 0.352658
vt 0.60151 0.212689
vt 0.50071 0.197754
vt 0.539119 0.262887
vt 0.44441 0.149101




usemtl MEP_RockWall_b
usemap MEP_RockWall_b
f 43/43/43 46/46/46 45/45/45
f 43/43/43 45/45/45 44/44/44
f 44/44/44 45/45/45 47/47/47
f 54/54/54 55/55/55 50/50/50
f 54/54/54 50/50/50 51/51/51
f 51/51/51 50/50/50 49/49/49
f 51/51/51 49/49/49 52/52/52
f 45/45/45 53/53/53 49/49/49
f 45/45/45 49/49/49 48/48/48
f 48/48/48 49/49/49 50/50/50
f 5/5/5 4/4/4 1/1/1
f 5/5/5 1/1/1 2/2/2
f 2/2/2 1/1/1 3/3/3
f 2/2/2 3/3/3 6/6/6
f 6/6/6 3/3/3 7/7/7
f 4/4/4 7/7/7 3/3/3
f 4/4/4 3/3/3 1/1/1
f 13/13/13 14/14/14 12/12/12
f 13/13/13 12/12/12 11/11/11
f 11/11/11 12/12/12 8/8/8
f 11/11/11 8/8/8 9/9/9
f 9/9/9 8/8/8 10/10/10
f 12/12/12 14/14/14 10/10/10
f 12/12/12 10/10/10 8/8/8
f 19/19/19 18/18/18 15/15/15
f 19/19/19 15/15/15 16/16/16
f 16/16/16 15/15/15 17/17/17
f 16/16/16 17/17/17 20/20/20
f 20/20/20 17/17/17 21/21/21
f 18/18/18 21/21/21 17/17/17
f 18/18/18 17/17/17 15/15/15
f 27/27/27 28/28/28 26/26/26
f 27/27/27 26/26/26 25/25/25
f 25/25/25 26/26/26 22/22/22
f 25/25/25 22/22/22 23/23/23
f 23/23/23 22/22/22 24/24/24
f 26/26/26 28/28/28 24/24/24
f 26/26/26 24/24/24 22/22/22
f 33/33/33 32/32/32 29/29/29
f 33/33/33 29/29/29 30/30/30
f 30/30/30 29/29/29 31/31/31
f 30/30/30 31/31/31 34/34/34
f 34/34/34 31/31/31 35/35/35
f 32/32/32 35/35/35 31/31/31
f 32/32/32 31/31/31 29/29/29
f 40/40/40 39/39/39 36/36/36
f 40/40/40 36/36/36 37/37/37
f 37/37/37 36/36/36 38/38/38
f 37/37/37 38/38/38 41/41/41
f 41/41/41 38/38/38 42/42/42
f 39/39/39 42/42/42 38/38/38
f 39/39/39 38/38/38 36/36/36
f 58/58/58 62/62/62 60/60/60
f 58/58/58 60/60/60 57/57/57
f 57/57/57 60/60/60 61/61/61
f 57/57/57 61/61/61 63/63/63
f 63/63/63 61/61/61 62/62/62
f 63/63/63 62/62/62 59/59/59
f 59/59/59 62/62/62 58/58/58
f 59/59/59 58/58/58 56/56/56
f 56/56/56 58/58/58 57/57/57
f 66/66/66 70/70/70 68/68/68
f 66/66/66 68/68/68 65/65/65
f 65/65/65 68/68/68 69/69/69
f 65/65/65 69/69/69 71/71/71
f 71/71/71 69/69/69 70/70/70
f 71/71/71 70/70/70 67/67/67
f 67/67/67 70/70/70 66/66/66
f 67/67/67 66/66/66 64/64/64
f 64/64/64 66/66/66 65/65/65
f 74/74/74 78/78/78 76/76/76
f 74/74/74 76/76/76 73/73/73
f 73/73/73 76/76/76 77/77/77
f 73/73/73 77/77/77 79/79/79
f 79/79/79 77/77/77 78/78/78
f 79/79/79 78/78/78 75/75/75
f 75/75/75 78/78/78 74/74/74
f 75/75/75 74/74/74 72/72/72
f 72/72/72 74/74/74 73/73/73
f 82/82/82 86/86/86 84/84/84
f 82/82/82 84/84/84 81/81/81
f 81/81/81 84/84/84 85/85/85
f 81/81/81 85/85/85 87/87/87
f 87/87/87 85/85/85 86/86/86
f 87/87/87 86/86/86 83/83/83
f 83/83/83 86/86/86 82/82/82
f 83/83/83 82/82/82 80/80/80
f 80/80/80 82/82/82 81/81/81
f 90/90/90 94/94/94 92/92/92
f 90/90/90 92/92/92 89/89/89
f 89/89/89 92/92/92 93/93/93
f 89/89/89 93/93/93 95/95/95
f 95/95/95 93/93/93 94/94/94
f 95/95/95 94/94/94 91/91/91
f 91/91/91 94/94/94 90/90/90
f 91/91/91 90/90/90 88/88/88
f 88/88/88 90/90/90 89/89/89
f 60/60/60 62/62/62 61/61/61
f 68/68/68 70/70/70 69/69/69
f 76/76/76 78/78/78 77/77/77
f 84/84/84 86/86/86 85/85/85
f 92/92/92 94/94/94 93/93/93

