g NewMesh_tris_35
v -12.40747 5.768634 -6.183146
v -8.521064 7.524994 -3.24976
v -11.13394 5.140951 -1.260491
v -7.015954 6.243251 0.9697086
v -4.795218 7.678155 -5.998465
v -5.158065 7.003815 -0.4748633
v 4.021451 1.037549 -6.667248
v -0.2669638 1.720887 -4.856871
v -0.2848507 0.7558104 -8.416772
v -4.117506 0.7238921 -6.311602
v -0.09128305 0.3601947 -0.8760534
v -4.019856 0.6150136 -4.068388
v -6.964719 0.4558159 7.376671
v -5.284587 1.222516 4.305381
v -3.579013 0.2865594 6.332418
v -2.317105 0.5120832 3.258005
v -7.30828 0.4124642 1.952585
v -3.450134 0.5548738 1.974813
v -7.446588 6.347634 -7.137067
v -3.316309 6.068408 -5.417125
v -5.559441 7.915195 -3.440063
v -1.889962 6.915377 -1.73849
v -1.954116 2.415971 -6.365688
v -0.8407979 5.280129 -2.640147
v -4.986305 1.182442 -12.56436
v -5.024041 2.066458 -7.353627
v -8.750188 1.174249 -8.931283
v -8.328282 1.218065 -4.037168
v -0.9543968 0.3212073 -5.690283
v -5.990442 0.9721782 -3.114393
v -7.968447 5.402477 5.036832
v -5.697489 7.292252 0.9390126
v -3.185429 5.906639 3.669424
v -1.409854 6.977331 -0.5433927
v -8.359629 6.259955 -2.566478
v -2.98336 7.082452 -2.370791
v -3.183676 0.4775936 -1.922866
v -0.1653729 1.17175 -0.411668
v -2.0688 0.2994994 1.295732
v 0.9309434 0.4733865 2.405035
v 2.016175 0.3608015 -2.435336
v 2.126471 0.4970331 1.273054

vn -0.4308516 0.9018952 0.03085577
vn -0.274073 0.9556423 0.107851
vn -0.493783 0.8084592 0.320269
vn -0.2609705 0.8938483 0.3645949
vn -0.07454942 0.9961787 -0.04550103
vn -0.05600177 0.9667757 0.2494169
vn 0.1478582 0.9887432 -0.02291048
vn -0.006992842 0.9972515 0.07376067
vn -0.04993386 0.9640287 -0.2610662
vn -0.2223257 0.9718831 -0.07755308
vn 0.00608389 0.9463215 0.3231696
vn -0.2462581 0.9547358 0.1668437
vn -0.08768053 0.9767097 0.1958327
vn -0.02792163 0.999307 0.0246171
vn 0.2155087 0.9428898 0.2539979
vn 0.2343104 0.9721513 0.004502447
vn -0.1955328 0.9667785 -0.1646396
vn 0.09906957 0.9745339 -0.2011692
vn 0.3252446 0.6641155 -0.6731766
vn 0.4915446 0.6198867 -0.6116571
vn 0.325179 0.8464024 -0.4217365
vn 0.5508401 0.7409269 -0.3841907
vn 0.5950127 0.4025953 -0.6956126
vn 0.692987 0.5549077 -0.460268
vn 0.09912197 0.9811785 -0.165722
vn 0.1255016 0.9919832 0.01478816
vn -0.1995778 0.976543 -0.08082417
vn -0.10101 0.9833751 0.1508985
vn 0.3554016 0.9288061 0.1049233
vn 0.1114617 0.9557899 0.2721067
vn -0.204355 0.9270803 0.3142629
vn -0.145834 0.9780527 0.1488131
vn 0.1000615 0.9214082 0.3754925
vn 0.1179723 0.9841791 0.1321887
vn -0.3063878 0.9507326 -0.04726285
vn -0.01437874 0.9970824 -0.07496653
vn -0.1846749 0.9794552 -0.08101036
vn -0.01116708 0.9995655 -0.02727813
vn -0.2326882 0.9463956 0.2240347
vn 0.01770794 0.9720519 0.2340969
vn 0.1716264 0.964357 -0.2013947
vn 0.2185396 0.9715053 0.09174885

vt 0.011616 0.018027
vt 0.35209 0.561321
vt 0.641421 0.203131
vt 0.976397 0.7772
vt 0.00726 0.988217
vt 0.791079 0.984502
vt 0.011616 0.018027
vt 0.35209 0.561321
vt 0.641421 0.203131
vt 0.976397 0.7772
vt 0.00726 0.988217
vt 0.791079 0.984502
vt 0.011616 0.018027
vt 0.35209 0.561321
vt 0.641421 0.203131
vt 0.976397 0.7772
vt 0.00726 0.988217
vt 0.791079 0.984502
vt 0.011616 0.018027
vt 0.35209 0.561321
vt 0.641421 0.203131
vt 0.976397 0.7772
vt 0.00726 0.988217
vt 0.791079 0.984502
vt 0.011616 0.018027
vt 0.35209 0.561321
vt 0.641421 0.203131
vt 0.976397 0.7772
vt 0.00726 0.988217
vt 0.791079 0.984502
vt 0.011616 0.018027
vt 0.35209 0.561321
vt 0.641421 0.203131
vt 0.976397 0.7772
vt 0.00726 0.988217
vt 0.791079 0.984502
vt 0.011616 0.018027
vt 0.35209 0.561321
vt 0.641421 0.203131
vt 0.976397 0.7772
vt 0.00726 0.988217
vt 0.791079 0.984502

vt1 0.992919 0.9183354
vt1 0.4569709 0.5627211
vt1 0.8663584 0.268197
vt1 0.3022882 0.00390625
vt1 0.00390625 0.9183354
vt1 0.04708201 0.2027966
vt1 0.992919 0.9183354
vt1 0.4569709 0.5627211
vt1 0.8663584 0.268197
vt1 0.3022882 0.00390625
vt1 0.00390625 0.9183354
vt1 0.04708201 0.2027966
vt1 0.992919 0.9183354
vt1 0.4569709 0.5627211
vt1 0.8663584 0.268197
vt1 0.3022882 0.00390625
vt1 0.00390625 0.9183354
vt1 0.04708201 0.2027966
vt1 0.992919 0.9183354
vt1 0.4569709 0.5627211
vt1 0.8663584 0.268197
vt1 0.3022882 0.00390625
vt1 0.00390625 0.9183354
vt1 0.04708201 0.2027966
vt1 0.992919 0.9183354
vt1 0.4569709 0.5627211
vt1 0.8663584 0.268197
vt1 0.3022882 0.00390625
vt1 0.00390625 0.9183354
vt1 0.04708201 0.2027966
vt1 0.992919 0.9183354
vt1 0.4569709 0.5627211
vt1 0.8663584 0.268197
vt1 0.3022882 0.00390625
vt1 0.00390625 0.9183354
vt1 0.04708201 0.2027966
vt1 0 0
vt1 0 0
vt1 0 0
vt1 0 0
vt1 0 0
vt1 0 0

vt2 0.992919 0.9183354
vt2 0.4569709 0.5627211
vt2 0.8663584 0.268197
vt2 0.3022882 0.00390625
vt2 0.00390625 0.9183354
vt2 0.04708201 0.2027966
vt2 0.992919 0.9183354
vt2 0.4569709 0.5627211
vt2 0.8663584 0.268197
vt2 0.3022882 0.00390625
vt2 0.00390625 0.9183354
vt2 0.04708201 0.2027966
vt2 0.992919 0.9183354
vt2 0.4569709 0.5627211
vt2 0.8663584 0.268197
vt2 0.3022882 0.00390625
vt2 0.00390625 0.9183354
vt2 0.04708201 0.2027966
vt2 0.992919 0.9183354
vt2 0.4569709 0.5627211
vt2 0.8663584 0.268197
vt2 0.3022882 0.00390625
vt2 0.00390625 0.9183354
vt2 0.04708201 0.2027966
vt2 0.992919 0.9183354
vt2 0.4569709 0.5627211
vt2 0.8663584 0.268197
vt2 0.3022882 0.00390625
vt2 0.00390625 0.9183354
vt2 0.04708201 0.2027966
vt2 0.992919 0.9183354
vt2 0.4569709 0.5627211
vt2 0.8663584 0.268197
vt2 0.3022882 0.00390625
vt2 0.00390625 0.9183354
vt2 0.04708201 0.2027966
vt2 0 0
vt2 0 0
vt2 0 0
vt2 0 0
vt2 0 0
vt2 0 0


usemtl MEP_Tree_02_Dif
usemap MEP_Tree_02_Dif
f 3/3/3 4/4/4 2/2/2
f 3/3/3 2/2/2 1/1/1
f 1/1/1 2/2/2 5/5/5
f 6/6/6 5/5/5 2/2/2
f 6/6/6 2/2/2 4/4/4
f 9/9/9 10/10/10 8/8/8
f 9/9/9 8/8/8 7/7/7
f 7/7/7 8/8/8 11/11/11
f 12/12/12 11/11/11 8/8/8
f 12/12/12 8/8/8 10/10/10
f 15/15/15 16/16/16 14/14/14
f 15/15/15 14/14/14 13/13/13
f 13/13/13 14/14/14 17/17/17
f 18/18/18 17/17/17 14/14/14
f 18/18/18 14/14/14 16/16/16
f 21/21/21 22/22/22 20/20/20
f 21/21/21 20/20/20 19/19/19
f 19/19/19 20/20/20 23/23/23
f 24/24/24 23/23/23 20/20/20
f 24/24/24 20/20/20 22/22/22
f 27/27/27 28/28/28 26/26/26
f 27/27/27 26/26/26 25/25/25
f 25/25/25 26/26/26 29/29/29
f 30/30/30 29/29/29 26/26/26
f 30/30/30 26/26/26 28/28/28
f 33/33/33 34/34/34 32/32/32
f 33/33/33 32/32/32 31/31/31
f 31/31/31 32/32/32 35/35/35
f 36/36/36 35/35/35 32/32/32
f 36/36/36 32/32/32 34/34/34
f 40/40/40 42/42/42 38/38/38
f 40/40/40 38/38/38 39/39/39
f 39/39/39 38/38/38 37/37/37
f 41/41/41 37/37/37 38/38/38
f 41/41/41 38/38/38 42/42/42

