g NewMesh_tris_84
v 0.7169088 1.820183 3.174488
v 7.522775 4.624211 7.228416
v 4.589733 4.965651 8.309883
v 8.013684 5.811052 3.859489
v 2.340371 9.823741 -0.05719022
v 3.734723 7.069386 -2.501979
v 0.04391397 -0.4262663 0.9643437
v 3.039003 8.956994 4.318423
v 3.295011 9.070712 8.742092
v 2.023283 2.714228 4.875999
v 2.485653 9.048538 6.021088
v 5.847112 7.160547 9.399703
v -0.6596873 9.591807 6.46133
v 1.608677 0.6540459 2.936158
v 0.06966085 8.923241 2.902068
v 2.312067 8.208908 9.143885
v 7.159957 6.649315 4.342461
v 4.219464 6.802775 6.068193
v 0.4390067 0.8543726 2.713078
v 6.747043 6.582695 0.451833
v 3.470483 4.762678 8.39643
v -0.06163837 0.4207891 -0.663154
v -0.150726 -0.4586941 -0.08359256
v 2.965006 5.443724 8.262745
v 4.174816 7.552721 10.83533
v 6.007023 7.114609 8.171032
v 1.566461 2.817823 3.978507
v 2.801872 4.396146 12.30072
v 4.549436 9.759994 4.356897
v 5.744365 7.646126 2.374829
v 1.462665 2.431341 4.883511
v 3.887146 8.319201 8.382717
v 3.231308 4.095919 13.84768
v 3.995503 7.801574 4.823539
v 7.560402 2.515774 5.677226
v 6.010093 4.454718 -2.643408
v -3.481274 9.021475 3.385973
v 2.645052 6.491216 -3.099514
v 7.522775 4.624211 7.228416
v 0.7169088 1.820183 3.174488
v 4.589733 4.965651 8.309883
v 8.013684 5.811052 3.859489
v 2.340371 9.823741 -0.05719022
v 0.04391397 -0.4262663 0.9643437
v 3.734723 7.069386 -2.501979
v 3.039003 8.956994 4.318423
v 3.295011 9.070712 8.742092
v 2.485653 9.048538 6.021088
v 2.023283 2.714228 4.875999
v 5.847112 7.160547 9.399703
v -0.6596873 9.591807 6.46133
v 0.06966085 8.923241 2.902068
v 1.608677 0.6540459 2.936158
v 2.312067 8.208908 9.143885
v 7.159957 6.649315 4.342461
v 0.4390067 0.8543726 2.713078
v 4.219464 6.802775 6.068193
v 6.747043 6.582695 0.451833
v 3.470483 4.762678 8.39643
v -0.150726 -0.4586941 -0.08359256
v -0.06163837 0.4207891 -0.663154
v 2.965006 5.443724 8.262745
v 4.174816 7.552721 10.83533
v 1.566461 2.817823 3.978507
v 6.007023 7.114609 8.171032
v 2.801872 4.396146 12.30072
v 4.549436 9.759994 4.356897
v 1.462665 2.431341 4.883511
v 5.744365 7.646126 2.374829
v 3.887146 8.319201 8.382717
v 3.231308 4.095919 13.84768
v 7.560402 2.515774 5.677226
v 3.995503 7.801574 4.823539
v 6.010093 4.454718 -2.643408
v -3.481274 9.021475 3.385973
v 2.645052 6.491216 -3.099514
v -0.7629458 -9.312673 -8.770711
v 3.294455 -3.236506 -16.2849
v 4.910336 -6.613934 -15.11691
v 2.44243 -0.3378563 -12.95437
v 5.55344 -1.97488 -3.647552
v 0.8420026 -0.6095079 -3.401489
v -4.36583 -9.91136 -7.09334
v 7.111411 -4.056262 -8.642576
v 9.841138 -6.126158 -12.98145
v 0.9530264 -8.468286 -10.94876
v 8.346513 -5.487936 -9.835769
v 7.664868 -4.846387 -16.16041
v 9.836837 -8.63442 -7.828755
v -2.340158 -8.85959 -9.635468
v 6.830027 -6.309252 -5.224674
v 9.358428 -7.761718 -13.01674
v 3.807028 -1.046432 -12.4796
v 5.610047 -4.871604 -11.99367
v -2.020351 -9.82201 -8.522163
v 1.480424 0.6008679 -8.518381
v 4.973114 -7.89165 -14.49412
v -4.413637 -8.722007 -5.134581
v -4.991006 -9.559099 -5.973584
v 5.727024 -7.993666 -13.7405
v 9.29065 -7.115966 -16.19414
v 6.844096 -4.045178 -15.12325
v 0.6178738 -8.394776 -9.733633
v 7.063885 -10.85302 -17.88157
v 7.68799 -2.154197 -9.419609
v 3.983032 -0.923202 -9.217875
v 0.768395 -9.178519 -10.67502
v 8.697412 -5.705617 -13.3554
v 7.584088 -11.40149 -19.77316
v 5.979515 -3.933267 -10.25512
v 0.0907963 -3.404296 -15.67782
v -2.514434 0.4732617 -5.90762
v 7.951741 -10.10898 -3.151806
v 0.08465494 -1.673993 -2.298918
v 3.294455 -3.236506 -16.2849
v -0.7629458 -9.312673 -8.770711
v 4.910336 -6.613934 -15.11691
v 2.44243 -0.3378563 -12.95437
v 5.55344 -1.97488 -3.647552
v -4.36583 -9.91136 -7.09334
v 0.8420026 -0.6095079 -3.401489
v 7.111411 -4.056262 -8.642576
v 9.841138 -6.126158 -12.98145
v 8.346513 -5.487936 -9.835769
v 0.9530264 -8.468286 -10.94876
v 7.664868 -4.846387 -16.16041
v 9.836837 -8.63442 -7.828755
v 6.830027 -6.309252 -5.224674
v -2.340158 -8.85959 -9.635468
v 9.358428 -7.761718 -13.01674
v 3.807028 -1.046432 -12.4796
v -2.020351 -9.82201 -8.522163
v 5.610047 -4.871604 -11.99367
v 1.480424 0.6008679 -8.518381
v 4.973114 -7.89165 -14.49412
v -4.991006 -9.559099 -5.973584
v -4.413637 -8.722007 -5.134581
v 5.727024 -7.993666 -13.7405
v 9.29065 -7.115966 -16.19414
v 0.6178738 -8.394776 -9.733633
v 6.844096 -4.045178 -15.12325
v 7.063885 -10.85302 -17.88157
v 7.68799 -2.154197 -9.419609
v 0.768395 -9.178519 -10.67502
v 3.983032 -0.923202 -9.217875
v 8.697412 -5.705617 -13.3554
v 7.584088 -11.40149 -19.77316
v 0.0907963 -3.404296 -15.67782
v 5.979515 -3.933267 -10.25512
v -2.514434 0.4732617 -5.90762
v 7.951741 -10.10898 -3.151806
v 0.08465494 -1.673993 -2.298918

vn -0.3221826 0.9403213 -0.1095182
vn -0.3392098 0.9373966 -0.07889535
vn -0.07489616 0.8745116 -0.4791869
vn -0.4836334 0.8452473 0.2272788
vn 0.967331 -0.2013666 0.1540196
vn 0.7981564 -0.1199717 0.5903839
vn 0.9631146 -0.1975723 0.1826895
vn 0.9520528 -0.2330468 -0.1982038
vn -0.7512962 -0.2266706 0.6198179
vn -0.7682332 -0.2134067 0.6035521
vn -0.958371 0.01843072 0.2849303
vn -0.4873274 -0.3805217 0.7859486
vn -0.8957295 -0.3402095 0.2862274
vn -0.9085549 -0.3310644 0.2548027
vn -0.9695742 -0.1811482 -0.1646545
vn -0.7091135 -0.4070317 0.5757456
vn -0.5816118 0.7577587 -0.2958538
vn -0.3710926 0.6238418 -0.6878312
vn -0.5747097 0.7552102 -0.3152243
vn -0.6598519 0.7492157 0.05719455
vn 0.7631052 0.4142312 -0.4960673
vn 0.9397775 -0.2216114 -0.2602047
vn 0.9360026 -0.2548116 -0.242838
vn 0.7383011 0.4491853 -0.5031342
vn 0.7491086 -0.643061 0.1590876
vn 0.4027237 -0.8176581 0.411399
vn 0.7330975 -0.6572369 0.1749506
vn 0.9060534 -0.4195828 -0.05493148
vn 0.8655972 -0.3380288 0.369429
vn 0.6936981 -0.2434644 0.6778702
vn 0.8842029 -0.3502201 0.3090809
vn 0.9218501 -0.387328 0.01301866
vn 0.4812923 0.7957867 0.3675338
vn 0.4859266 0.8655841 0.1209948
vn 0.8088028 0.5692794 0.1475088
vn 0.6577834 0.7374814 -0.1531088
vn 0.1473242 0.9865507 0.07080562
vn 0.402042 0.8898495 -0.2157083
vn 0.3392098 -0.9373966 0.07889535
vn 0.3221826 -0.9403213 0.1095182
vn 0.07489616 -0.8745116 0.4791869
vn 0.4836334 -0.8452473 -0.2272788
vn -0.967331 0.2013666 -0.1540196
vn -0.9631146 0.1975723 -0.1826895
vn -0.7981564 0.1199717 -0.5903839
vn -0.9520528 0.2330468 0.1982038
vn 0.7512962 0.2266706 -0.6198179
vn 0.958371 -0.01843072 -0.2849303
vn 0.7682332 0.2134067 -0.6035521
vn 0.4873274 0.3805217 -0.7859486
vn 0.8957295 0.3402095 -0.2862274
vn 0.9695742 0.1811482 0.1646545
vn 0.9085549 0.3310644 -0.2548027
vn 0.7091135 0.4070317 -0.5757456
vn 0.5816118 -0.7577587 0.2958538
vn 0.5747097 -0.7552102 0.3152243
vn 0.3710926 -0.6238418 0.6878312
vn 0.6598519 -0.7492157 -0.05719455
vn -0.7631052 -0.4142312 0.4960673
vn -0.9360026 0.2548116 0.242838
vn -0.9397775 0.2216114 0.2602047
vn -0.7383011 -0.4491853 0.5031342
vn -0.7491086 0.643061 -0.1590876
vn -0.7330975 0.6572369 -0.1749506
vn -0.4027237 0.8176581 -0.411399
vn -0.9060534 0.4195828 0.05493148
vn -0.8655972 0.3380288 -0.369429
vn -0.8842029 0.3502201 -0.3090809
vn -0.6936981 0.2434644 -0.6778702
vn -0.9218501 0.387328 -0.01301866
vn -0.4812923 -0.7957867 -0.3675338
vn -0.8088028 -0.5692794 -0.1475088
vn -0.4859266 -0.8655841 -0.1209948
vn -0.6577834 -0.7374814 0.1531088
vn -0.1473242 -0.9865507 -0.07080562
vn -0.402042 -0.8898495 0.2157083
vn 0.8092632 0.1589727 0.5655271
vn 0.8242983 0.1307849 0.5508428
vn 0.5339009 0.4929883 0.6869588
vn 0.9162533 -0.1550572 0.3693741
vn -0.2574732 0.6372012 -0.7264173
vn 0.0506655 0.3438061 -0.9376729
vn -0.2396947 0.6228971 -0.7446782
vn -0.4520504 0.7645152 -0.4595293
vn 0.2267786 -0.966301 -0.1217942
vn 0.2331261 -0.9677339 -0.09562124
vn 0.3101855 -0.8921635 0.3283739
vn 0.1312291 -0.8852509 -0.4462172
vn -0.008116411 -0.9840978 0.177442
vn -0.01329559 -0.97728 0.211535
vn -0.07650315 -0.7859973 0.6134781
vn 0.04339209 -0.9845522 -0.1696289
vn 0.6047891 -0.04297455 0.7952254
vn 0.2660754 0.2439129 0.9325827
vn 0.5921265 -0.03002081 0.8052858
vn 0.7804611 -0.2623367 0.5675035
vn -0.007623618 0.9967002 0.08081107
vn -0.4700899 0.7859023 -0.4017128
vn -0.489673 0.762182 -0.4234373
vn 0.02311526 0.9935136 0.1113388
vn -0.5994416 0.2832175 -0.7486373
vn -0.5713393 -0.1756088 -0.8017064
vn -0.6013723 0.2577741 -0.7562434
vn -0.5359876 0.59141 -0.6024548
vn -0.2545795 0.4075322 -0.8769873
vn 0.003665832 0.1724417 -0.985013
vn -0.2972141 0.4438571 -0.8453726
vn -0.478054 0.5876166 -0.6528179
vn 0.7832779 0.5463397 -0.2966286
vn 0.7237298 0.6843145 -0.08904325
vn 0.4286168 0.8169798 -0.3857867
vn 0.4531811 0.8912389 -0.01788472
vn 0.8590973 0.4796641 0.1785336
vn 0.5960212 0.7715159 0.2225348
vn -0.8242983 -0.1307849 -0.5508428
vn -0.8092632 -0.1589727 -0.5655271
vn -0.5339009 -0.4929883 -0.6869588
vn -0.9162533 0.1550572 -0.3693741
vn 0.2574732 -0.6372012 0.7264173
vn 0.2396947 -0.6228971 0.7446782
vn -0.0506655 -0.3438061 0.9376729
vn 0.4520504 -0.7645152 0.4595293
vn -0.2267786 0.966301 0.1217942
vn -0.3101855 0.8921635 -0.3283739
vn -0.2331261 0.9677339 0.09562124
vn -0.1312291 0.8852509 0.4462172
vn 0.008116411 0.9840978 -0.177442
vn 0.07650315 0.7859973 -0.6134781
vn 0.01329559 0.97728 -0.211535
vn -0.04339209 0.9845522 0.1696289
vn -0.6047891 0.04297455 -0.7952254
vn -0.5921265 0.03002081 -0.8052858
vn -0.2660754 -0.2439129 -0.9325827
vn -0.7804611 0.2623367 -0.5675035
vn 0.007623618 -0.9967002 -0.08081107
vn 0.489673 -0.762182 0.4234373
vn 0.4700899 -0.7859023 0.4017128
vn -0.02311526 -0.9935136 -0.1113388
vn 0.5994416 -0.2832175 0.7486373
vn 0.6013723 -0.2577741 0.7562434
vn 0.5713393 0.1756088 0.8017064
vn 0.5359876 -0.59141 0.6024548
vn 0.2545795 -0.4075322 0.8769873
vn 0.2972141 -0.4438571 0.8453726
vn -0.003665832 -0.1724417 0.985013
vn 0.478054 -0.5876166 0.6528179
vn -0.7832779 -0.5463397 0.2966286
vn -0.4286168 -0.8169798 0.3857867
vn -0.7237298 -0.6843145 0.08904325
vn -0.4531811 -0.8912389 0.01788472
vn -0.8590973 -0.4796641 -0.1785336
vn -0.5960212 -0.7715159 -0.2225348

vt 0.949269 0.632488
vt 0.814342 0.0958
vt 0.997141 0.184147
vt 0.632398 0.204926
vt 0.814342 0.0958
vt 0.997141 0.184147
vt 0.949269 0.632488
vt 0.632398 0.204926
vt 0.814342 0.0958
vt 0.949269 0.632488
vt 0.997141 0.184147
vt 0.632398 0.204926
vt 0.814342 0.0958
vt 0.949269 0.632488
vt 0.997141 0.184147
vt 0.632398 0.204926
vt 0.814342 0.0958
vt 0.997141 0.184147
vt 0.949269 0.632488
vt 0.632398 0.204926
vt 0.274249 0.026267
vt 0.964855 0.110985
vt 0.967416 0.026267
vt 0.275317 0.089653
vt 0.814342 0.0958
vt 0.997141 0.184147
vt 0.949269 0.632488
vt 0.632398 0.204926
vt 0.814342 0.0958
vt 0.997141 0.184147
vt 0.949269 0.632488
vt 0.632398 0.204926
vt 0.011616 0.018027
vt 0.35209 0.561321
vt 0.641421 0.203131
vt 0.976397 0.7772
vt 0.00726 0.988217
vt 0.791079 0.984502
vt 0.814342 0.0958
vt 0.949269 0.632488
vt 0.997141 0.184147
vt 0.632398 0.204926
vt 0.814342 0.0958
vt 0.949269 0.632488
vt 0.997141 0.184147
vt 0.632398 0.204926
vt 0.814342 0.0958
vt 0.997141 0.184147
vt 0.949269 0.632488
vt 0.632398 0.204926
vt 0.814342 0.0958
vt 0.997141 0.184147
vt 0.949269 0.632488
vt 0.632398 0.204926
vt 0.814342 0.0958
vt 0.949269 0.632488
vt 0.997141 0.184147
vt 0.632398 0.204926
vt 0.274249 0.026267
vt 0.967416 0.026267
vt 0.964855 0.110985
vt 0.275317 0.089653
vt 0.814342 0.0958
vt 0.949269 0.632488
vt 0.997141 0.184147
vt 0.632398 0.204926
vt 0.814342 0.0958
vt 0.949269 0.632488
vt 0.997141 0.184147
vt 0.632398 0.204926
vt 0.011616 0.018027
vt 0.641421 0.203131
vt 0.35209 0.561321
vt 0.976397 0.7772
vt 0.00726 0.988217
vt 0.791079 0.984502
vt 0.949269 0.632488
vt 0.814342 0.0958
vt 0.997141 0.184147
vt 0.632398 0.204926
vt 0.814342 0.0958
vt 0.997141 0.184147
vt 0.949269 0.632488
vt 0.632398 0.204926
vt 0.814342 0.0958
vt 0.949269 0.632488
vt 0.997141 0.184147
vt 0.632398 0.204926
vt 0.814342 0.0958
vt 0.949269 0.632488
vt 0.997141 0.184147
vt 0.632398 0.204926
vt 0.814342 0.0958
vt 0.997141 0.184147
vt 0.949269 0.632488
vt 0.632398 0.204926
vt 0.274249 0.026267
vt 0.964855 0.110985
vt 0.967416 0.026267
vt 0.275317 0.089653
vt 0.814342 0.0958
vt 0.997141 0.184147
vt 0.949269 0.632488
vt 0.632398 0.204926
vt 0.814342 0.0958
vt 0.997141 0.184147
vt 0.949269 0.632488
vt 0.632398 0.204926
vt 0.011616 0.018027
vt 0.35209 0.561321
vt 0.641421 0.203131
vt 0.976397 0.7772
vt 0.00726 0.988217
vt 0.791079 0.984502
vt 0.814342 0.0958
vt 0.949269 0.632488
vt 0.997141 0.184147
vt 0.632398 0.204926
vt 0.814342 0.0958
vt 0.949269 0.632488
vt 0.997141 0.184147
vt 0.632398 0.204926
vt 0.814342 0.0958
vt 0.997141 0.184147
vt 0.949269 0.632488
vt 0.632398 0.204926
vt 0.814342 0.0958
vt 0.997141 0.184147
vt 0.949269 0.632488
vt 0.632398 0.204926
vt 0.814342 0.0958
vt 0.949269 0.632488
vt 0.997141 0.184147
vt 0.632398 0.204926
vt 0.274249 0.026267
vt 0.967416 0.026267
vt 0.964855 0.110985
vt 0.275317 0.089653
vt 0.814342 0.0958
vt 0.949269 0.632488
vt 0.997141 0.184147
vt 0.632398 0.204926
vt 0.814342 0.0958
vt 0.949269 0.632488
vt 0.997141 0.184147
vt 0.632398 0.204926
vt 0.011616 0.018027
vt 0.641421 0.203131
vt 0.35209 0.561321
vt 0.976397 0.7772
vt 0.00726 0.988217
vt 0.791079 0.984502




usemtl MEP_Tree_02_Dif
usemap MEP_Tree_02_Dif
f 1/1/1 3/3/3 2/2/2
f 1/1/1 2/2/2 4/4/4
f 7/7/7 6/6/6 5/5/5
f 7/7/7 5/5/5 8/8/8
f 9/9/9 11/11/11 10/10/10
f 9/9/9 10/10/10 12/12/12
f 13/13/13 15/15/15 14/14/14
f 13/13/13 14/14/14 16/16/16
f 19/19/19 18/18/18 17/17/17
f 19/19/19 17/17/17 20/20/20
f 21/21/21 23/23/23 22/22/22
f 21/21/21 22/22/22 24/24/24
f 27/27/27 26/26/26 25/25/25
f 27/27/27 25/25/25 28/28/28
f 31/31/31 30/30/30 29/29/29
f 31/31/31 29/29/29 32/32/32
f 39/39/39 41/41/41 40/40/40
f 39/39/39 40/40/40 42/42/42
f 43/43/43 45/45/45 44/44/44
f 43/43/43 44/44/44 46/46/46
f 49/49/49 48/48/48 47/47/47
f 49/49/49 47/47/47 50/50/50
f 53/53/53 52/52/52 51/51/51
f 53/53/53 51/51/51 54/54/54
f 55/55/55 57/57/57 56/56/56
f 55/55/55 56/56/56 58/58/58
f 61/61/61 60/60/60 59/59/59
f 61/61/61 59/59/59 62/62/62
f 63/63/63 65/65/65 64/64/64
f 63/63/63 64/64/64 66/66/66
f 67/67/67 69/69/69 68/68/68
f 67/67/67 68/68/68 70/70/70
f 77/77/77 79/79/79 78/78/78
f 77/77/77 78/78/78 80/80/80
f 83/83/83 82/82/82 81/81/81
f 83/83/83 81/81/81 84/84/84
f 85/85/85 87/87/87 86/86/86
f 85/85/85 86/86/86 88/88/88
f 89/89/89 91/91/91 90/90/90
f 89/89/89 90/90/90 92/92/92
f 95/95/95 94/94/94 93/93/93
f 95/95/95 93/93/93 96/96/96
f 97/97/97 99/99/99 98/98/98
f 97/97/97 98/98/98 100/100/100
f 103/103/103 102/102/102 101/101/101
f 103/103/103 101/101/101 104/104/104
f 107/107/107 106/106/106 105/105/105
f 107/107/107 105/105/105 108/108/108
f 115/115/115 117/117/117 116/116/116
f 115/115/115 116/116/116 118/118/118
f 119/119/119 121/121/121 120/120/120
f 119/119/119 120/120/120 122/122/122
f 125/125/125 124/124/124 123/123/123
f 125/125/125 123/123/123 126/126/126
f 129/129/129 128/128/128 127/127/127
f 129/129/129 127/127/127 130/130/130
f 131/131/131 133/133/133 132/132/132
f 131/131/131 132/132/132 134/134/134
f 137/137/137 136/136/136 135/135/135
f 137/137/137 135/135/135 138/138/138
f 139/139/139 141/141/141 140/140/140
f 139/139/139 140/140/140 142/142/142
f 143/143/143 145/145/145 144/144/144
f 143/143/143 144/144/144 146/146/146
f 35/35/35 36/36/36 34/34/34
f 35/35/35 34/34/34 33/33/33
f 33/33/33 34/34/34 37/37/37
f 38/38/38 37/37/37 34/34/34
f 38/38/38 34/34/34 36/36/36
f 72/72/72 71/71/71 73/73/73
f 72/72/72 73/73/73 74/74/74
f 74/74/74 73/73/73 76/76/76
f 73/73/73 71/71/71 75/75/75
f 73/73/73 75/75/75 76/76/76
f 111/111/111 112/112/112 110/110/110
f 111/111/111 110/110/110 109/109/109
f 109/109/109 110/110/110 113/113/113
f 114/114/114 113/113/113 110/110/110
f 114/114/114 110/110/110 112/112/112
f 148/148/148 147/147/147 149/149/149
f 148/148/148 149/149/149 150/150/150
f 150/150/150 149/149/149 152/152/152
f 149/149/149 147/147/147 151/151/151
f 149/149/149 151/151/151 152/152/152

