g NewMesh_tris_171
v 10.08831 1.281182 6.250613
v 8.24723 -1.005602 6.720657
v 11.04096 0.8403734 3.440058
v 12.86309 -0.005495998 6.525709
v 10.78576 -0.6399613 7.828818
v 9.583898 -1.573883 3.140847
v 12.54738 -1.44273 3.328579
v 11.87143 -2.849157 4.594975
v 9.583898 -1.573883 3.140847
v 8.24723 -1.005602 6.720657
v 12.54738 -1.44273 3.328579
v 11.86839 -2.290863 6.95152
v 12.86309 -0.005495998 6.525709
v 10.78576 -0.6399613 7.828818
v 15.85288 5.573561 10.22903
v 13.69135 3.145235 11.20118
v 16.99399 4.454265 7.200982
v 18.98379 4.143443 10.88908
v 16.57022 3.750939 12.43098
v 15.28526 1.709804 7.349095
v 18.66473 1.846012 7.609725
v 17.8337 0.5563464 9.314607
v 15.28526 1.709804 7.349095
v 13.69135 3.145235 11.20118
v 18.66473 1.846012 7.609725
v 17.78888 1.692441 11.83384
v 18.98379 4.143443 10.88908
v 16.57022 3.750939 12.43098
v 1.390012 2.466461 7.081121
v 1.359341 1.00196 10.27055
v 2.715075 -0.08867115 5.017553
v 4.882023 3.322325 6.617753
v 3.379496 3.379972 9.202233
v 3.165639 -2.201851 7.574249
v 5.790216 -0.6552305 5.83342
v 6.14899 -0.3973916 8.164225
v 3.165639 -2.201851 7.574249
v 1.359341 1.00196 10.27055
v 5.790216 -0.6552305 5.83342
v 5.631774 2.18593 9.274044
v 4.882023 3.322325 6.617753
v 3.379496 3.379972 9.202233
v -2.236649 5.728715 11.39867
v -0.2340956 2.973164 12.76746
v -0.8112334 8.725729 13.04449
v -4.613796 6.539216 14.2394
v -3.526137 3.702741 13.49588
v 1.470395 6.863672 14.93819
v -1.431809 8.598904 16.36476
v -1.373028 6.273618 17.22894
v 1.470395 6.863672 14.93819
v -0.2340956 2.973164 12.76746
v -1.431809 8.598904 16.36476
v -3.353949 4.352368 16.0773
v -4.613796 6.539216 14.2394
v -3.526137 3.702741 13.49588
v -8.909698 9.542972 12.96308
v -11.70711 8.546967 12.49445
v -7.259736 7.973264 10.95919
v -7.616795 7.236504 14.59087
v -10.05996 7.993442 14.72167
v -9.516294 6.485183 10.00304
v -7.291563 5.288226 11.63083
v -9.073764 4.728169 12.43017
v -9.516294 6.485183 10.00304
v -11.70711 8.546967 12.49445
v -7.291563 5.288226 11.63083
v -9.757363 5.841418 14.50122
v -7.616795 7.236504 14.59087
v -10.05996 7.993442 14.72167
v -0.1135876 0.5599674 0.1871211
v -0.9327237 -0.4065523 0.413792
v 0.0016228 0.4890881 -0.3092547
v 1.026399 -0.3361109 0.5451695
v 0.04354591 -0.2967042 1.087891
v -0.5594048 -0.7144242 -1.093417
v 0.8531665 -0.6170655 -1.003041
v 16.56546 0.2241485 2.882622
v 16.19498 -0.4704029 3.251321
v 16.66659 0.09785222 2.575125
v 17.45564 -0.05640692 3.265205
v 16.79338 -0.09201559 3.633755
v 16.5336 -0.9070921 2.336101
v 17.43452 -0.5806831 2.333696
v 4.405748 0.5831195 1.02544
v 3.446857 -0.218372 1.316675
v 4.508081 0.4556481 0.5392385
v 5.386641 -0.4466641 1.466867
v 4.425167 -0.209976 1.990455
v 3.766098 -0.70004 -0.1520039
v 5.172071 -0.8192954 -0.05172075
v 17.05156 1.805414 8.539858
v 15.7185 0.8400009 7.534602
v 17.0898 2.404611 7.222452
v 18.70793 1.306759 7.307856
v 16.29674 1.895277 6.647711
v 16.29674 1.895277 6.647711
v 17.38412 2.021185 6.272637
v 17.1663 1.275651 6.178741
v 17.40166 -0.0255367 6.13535
v 18.70793 1.306759 7.307856
v 18.70793 1.306759 7.307856
v 15.7185 0.8400009 7.534602
v 16.29674 1.895277 6.647711
v 13.49395 1.312245 8.726432
v 12.37169 0.4560183 7.875989
v 13.50209 1.826528 7.601316
v 14.9118 0.9285502 7.660818
v 12.83301 1.372641 7.115375
v 12.83301 1.372641 7.115375
v 13.75587 1.507392 6.787035
v 13.58747 0.8653546 6.70738
v 13.82019 -0.2401879 6.666761
v 14.9118 0.9285502 7.660818
v 14.9118 0.9285502 7.660818
v 12.37169 0.4560183 7.875989
v 12.83301 1.372641 7.115375
v 4.553317 4.108785 9.465191
v 3.532631 2.674175 8.87044
v 4.416737 4.324787 8.09374
v 6.196544 3.73718 8.303591
v 3.793855 3.535697 7.746025
v 3.793855 3.535697 7.746025
v 4.768367 3.809079 7.278273
v 4.748263 3.063384 7.387162
v 5.288508 1.936456 7.638927
v 6.196544 3.73718 8.303591
v 6.196544 3.73718 8.303591
v 3.532631 2.674175 8.87044
v 3.793855 3.535697 7.746025
v -6.483428 4.678872 13.9543
v -4.953361 3.429792 12.90221
v -5.762502 5.732594 12.86244
v -4.918422 6.341516 14.88108
v -4.921463 5.019929 12.21002
v -4.921463 5.019929 12.21002
v -4.616888 6.19244 12.78903
v -3.989825 5.577178 13.01791
v -2.964394 4.960369 13.97958
v -4.918422 6.341516 14.88108
v -4.918422 6.341516 14.88108
v -4.953361 3.429792 12.90221
v -4.921463 5.019929 12.21002
v -1.755067 1.777018 9.176614
v -2.358631 2.490712 10.58011
v -2.565622 2.655443 8.759836
v -3.382376 1.171018 8.519073
v -2.887182 3.101925 9.552856
v -2.887182 3.101925 9.552856
v -3.491514 2.733217 8.83009
v -3.719527 2.523879 9.440087
v -4.233254 1.762591 10.14336
v -3.382376 1.171018 8.519073
v -3.382376 1.171018 8.519073
v -2.358631 2.490712 10.58011
v -2.887182 3.101925 9.552856
v -8.522813 3.745859 8.655489
v -6.915405 3.523893 10.0644
v -7.910769 5.231069 8.803544
v -9.787144 5.301488 9.91286
v -6.952819 5.11277 9.566042
v -6.952819 5.11277 9.566042
v -7.883671 5.992464 9.714418
v -7.752744 5.585768 10.47428
v -8.201657 5.045129 11.77018
v -9.787144 5.301488 9.91286
v -9.787144 5.301488 9.91286
v -6.915405 3.523893 10.0644
v -6.952819 5.11277 9.566042
v -0.385324 -0.5228404 5.067696
v -1.8985 -0.2602696 6.9284
v -1.391532 0.7790009 4.462185
v -2.230788 -1.057089 3.411825
v -2.434438 1.036756 5.819449
v -3.62003 -0.07415844 4.906323
v -3.03051 0.7649683 4.129936
v -4.173445 -1.423967 5.308869
v 7.015807 -1.55449 6.689259
v 4.924116 -0.7152866 6.019458
v 7.512681 -0.1533997 5.847041
v 7.861463 -1.777226 4.377391
v 6.017894 0.5052794 5.425979
v 6.277293 -0.3379547 3.83837
v 7.319416 0.2088864 4.269844
v 5.487191 -1.413728 3.211043

vn -0.293211 0.9267946 0.2346892
vn -0.9240863 -0.1425961 0.3545854
vn 0.02717179 0.7588226 -0.6507302
vn 0.8500885 0.3764639 0.3682724
vn -0.0001830248 0.07548587 0.9971468
vn -0.6113478 -0.3074972 -0.7291772
vn 0.7143771 -0.1828465 -0.67545
vn 0.3230153 -0.9351892 -0.1451973
vn -0.6113478 -0.3074972 -0.7291772
vn -0.9240863 -0.1425961 0.3545854
vn 0.7143771 -0.1828465 -0.67545
vn 0.3809945 -0.7301 0.5672716
vn 0.8500885 0.3764639 0.3682724
vn -0.0001830248 0.07548587 0.9971468
vn -0.2798615 0.9588411 0.04797249
vn -0.9335627 -0.05863167 0.3535859
vn 0.05481911 0.6209972 -0.7818934
vn 0.84969 0.426562 0.3099544
vn -0.01862244 0.2633924 0.964509
vn -0.6025058 -0.4309955 -0.6717364
vn 0.7240451 -0.3185768 -0.6117742
vn 0.3077062 -0.9505471 0.04215767
vn -0.6025058 -0.4309955 -0.6717364
vn -0.9335627 -0.05863167 0.3535859
vn 0.7240451 -0.3185768 -0.6117742
vn 0.3554104 -0.6148465 0.7040221
vn 0.84969 0.426562 0.3099544
vn -0.01862244 0.2633924 0.964509
vn -0.8161436 0.4703655 -0.3356575
vn -0.6450788 -0.1074294 0.7565264
vn -0.4285358 -0.2160767 -0.8773072
vn 0.4145761 0.7775505 -0.4728024
vn -0.08416357 0.8597771 0.5036862
vn -0.2580155 -0.9602439 0.1065816
vn 0.6965337 -0.3719167 -0.6136112
vn 0.8413287 -0.3884229 0.3758904
vn -0.2580155 -0.9602439 0.1065816
vn -0.6450788 -0.1074294 0.7565264
vn 0.6965337 -0.3719167 -0.6136112
vn 0.7321518 0.3101169 0.6064497
vn 0.4145761 0.7775505 -0.4728024
vn -0.08416357 0.8597771 0.5036862
vn -0.1508561 0.05852279 -0.9868221
vn 0.4990939 -0.7934557 -0.3483292
vn 0.2047464 0.8213433 -0.5324227
vn -0.9519321 0.3052923 -0.02493621
vn -0.6411713 -0.7244785 -0.2530417
vn 0.9836061 0.1170972 0.13714
vn -0.06478628 0.796063 0.6017362
vn 0.07479068 -0.114804 0.9905688
vn 0.9836061 0.1170972 0.13714
vn 0.4990939 -0.7934557 -0.3483292
vn -0.06478628 0.796063 0.6017362
vn -0.4627132 -0.5405202 0.7026622
vn -0.9519321 0.3052923 -0.02493621
vn -0.6411713 -0.7244785 -0.2530417
vn 0.1722275 0.9837301 0.05111413
vn -0.9091229 0.3921457 -0.1404181
vn 0.6861235 0.4606911 -0.5630259
vn 0.6801904 0.03201967 0.7323359
vn -0.3697397 0.3286372 0.8690742
vn -0.3179007 -0.1773909 -0.9313816
vn 0.7135102 -0.6588696 -0.2383153
vn -0.1911598 -0.9806761 0.04162099
vn -0.3179007 -0.1773909 -0.9313816
vn -0.9091229 0.3921457 -0.1404181
vn 0.7135102 -0.6588696 -0.2383153
vn -0.3326006 -0.6436525 0.6892664
vn 0.6801904 0.03201967 0.7323359
vn -0.3697397 0.3286372 0.8690742
vn -0.1721914 0.9647816 0.1988631
vn -0.748625 0.6515676 0.1225581
vn -0.0224844 0.9084275 -0.4174374
vn 0.608023 0.7729108 0.1814305
vn -0.03061559 0.7216167 0.6916155
vn -0.4039105 0.6240907 -0.6688551
vn 0.4063714 0.689129 -0.5999697
vn -0.4247597 0.8999061 -0.09873317
vn -0.8964857 0.4401151 -0.05111033
vn -0.2406404 0.6984426 -0.6739956
vn 0.3785552 0.921231 -0.08960775
vn -0.2450367 0.8647653 0.4383354
vn -0.5245997 0.2620798 -0.8100057
vn 0.2375016 0.5529481 -0.7986497
vn -0.01744606 0.9926935 0.1193958
vn -0.6361537 0.7691657 0.0607675
vn 0.1215748 0.8640521 -0.4885014
vn 0.7225972 0.6794428 0.1273221
vn 0.08379182 0.7706835 0.631685
vn -0.2999806 0.6241153 -0.721451
vn 0.5103748 0.5659208 -0.6474962
vn -0.1829656 0.8968892 0.4026332
vn -0.9010032 0.3320563 -0.2791628
vn -0.05061516 0.9944125 0.09263866
vn 0.7151033 0.5945089 -0.3676772
vn -0.7551281 0.4698728 -0.4571663
vn -0.7551281 0.4698728 -0.4571663
vn 0.2467045 0.6078011 -0.7547944
vn -0.06749708 0.007712308 -0.9976897
vn -0.04816372 -0.02343548 -0.9985644
vn 0.7151033 0.5945089 -0.3676772
vn 0.7151033 0.5945089 -0.3676772
vn -0.9010032 0.3320563 -0.2791628
vn -0.7551281 0.4698728 -0.4571663
vn -0.2052133 0.8906916 0.4056552
vn -0.912582 0.3063444 -0.2708267
vn -0.07842331 0.9924133 0.09468732
vn 0.6944668 0.6153686 -0.3728771
vn -0.7722875 0.4485508 -0.4498602
vn -0.7722875 0.4485508 -0.4498602
vn 0.2225351 0.615693 -0.7559102
vn -0.07635331 0.007135691 -0.9970554
vn -0.05613935 -0.02344095 -0.9981477
vn 0.6944668 0.6153686 -0.3728771
vn 0.6944668 0.6153686 -0.3728771
vn -0.912582 0.3063444 -0.2708267
vn -0.7722875 0.4485508 -0.4498602
vn -0.399453 0.8986426 0.1813255
vn -0.9611551 0.01810879 -0.2754141
vn -0.3024496 0.9407651 -0.153249
vn 0.5314416 0.6328617 -0.5630772
vn -0.858936 0.1356996 -0.4937758
vn -0.858936 0.1356996 -0.4937758
vn 0.0681091 0.4301177 -0.9001999
vn -0.08603163 -0.2703252 -0.9589176
vn -0.05936995 -0.2949486 -0.9536669
vn 0.5314416 0.6328617 -0.5630772
vn 0.5314416 0.6328617 -0.5630772
vn -0.9611551 0.01810879 -0.2754141
vn -0.858936 0.1356996 -0.4937758
vn -0.8946373 0.1960629 -0.4014768
vn -0.04843071 -0.3500464 -0.9354796
vn -0.7139298 0.4747001 -0.5147468
vn -0.06466631 0.9979047 -0.00205566
vn 0.006317865 -0.09439713 -0.9955146
vn 0.006317865 -0.09439713 -0.9955146
vn 0.1974465 0.8287107 -0.5236918
vn 0.7527676 0.3714851 -0.5434517
vn 0.7745198 0.3685754 -0.5140731
vn -0.06466631 0.9979047 -0.00205566
vn -0.06466631 0.9979047 -0.00205566
vn -0.04843071 -0.3500464 -0.9354796
vn 0.006317865 -0.09439713 -0.9955146
vn 0.7310825 0.4191549 -0.5383565
vn 0.2236043 0.9062955 0.3586495
vn 0.4504063 0.5525322 -0.7013147
vn -0.3767274 0.07835713 -0.9230042
vn 0.06468886 0.9853926 0.1575332
vn 0.06468886 0.9853926 0.1575332
vn -0.5234446 0.5844361 -0.6200323
vn -0.8231017 0.5668769 0.03397426
vn -0.8422627 0.5372671 0.04401648
vn -0.3767274 0.07835713 -0.9230042
vn -0.3767274 0.07835713 -0.9230042
vn 0.2236043 0.9062955 0.3586495
vn 0.06468886 0.9853926 0.1575332
vn 0.1579061 0.03329712 -0.9868926
vn 0.9801699 0.0151117 -0.1975818
vn 0.1675061 0.3758401 -0.9114197
vn -0.424226 0.855564 -0.2967195
vn 0.9345672 0.2783659 -0.2215776
vn 0.9345672 0.2783659 -0.2215776
vn 0.1504732 0.9784202 -0.1416033
vn 0.4343836 0.7604828 0.4826766
vn 0.4121462 0.7542249 0.5111558
vn -0.424226 0.855564 -0.2967195
vn -0.424226 0.855564 -0.2967195
vn 0.9801699 0.0151117 -0.1975818
vn 0.9345672 0.2783659 -0.2215776
vn 0.812015 0.5706525 -0.1224227
vn -0.0149378 0.6917009 0.7220296
vn 0.5613086 0.7396734 -0.3712357
vn -0.1163273 0.2127629 -0.9701545
vn -0.1437091 0.8568552 0.4951233
vn -0.9322124 0.3571 -0.05881928
vn -0.4689227 0.6711506 -0.5741677
vn -0.9440228 0.3296491 -0.01234862
vn 0.4763483 0.322702 0.8178971
vn -0.5405675 0.7516087 0.3779828
vn 0.6639856 0.5205083 0.5368374
vn 0.9090679 0.1205289 -0.3988335
vn -0.3365251 0.9167199 0.2153499
vn -0.1621118 0.5767313 -0.8006878
vn 0.5220742 0.6976364 -0.4906548
vn -0.2144066 0.558907 -0.8010323

vt 0.251578 0.310394
vt 0.330479 0.502447
vt 0.344551 0.22311
vt 0.115042 0.150316
vt 0.091143 0.390057
vt 0.511544 0.265925
vt 0.393297 0.054999
vt 0.683346 0.196268
vt 0.510262 0.28045
vt 0.738581 0.489561
vt 0.624543 0.078051
vt 0.791647 0.240108
vt 0.889768 0.104492
vt 0.902042 0.322025
vt 0.251578 0.310394
vt 0.330479 0.502447
vt 0.344551 0.22311
vt 0.115042 0.150316
vt 0.091143 0.390057
vt 0.511544 0.265925
vt 0.393297 0.054999
vt 0.683346 0.196268
vt 0.510262 0.28045
vt 0.738581 0.489561
vt 0.624543 0.078051
vt 0.791647 0.240108
vt 0.889768 0.104492
vt 0.902042 0.322025
vt 0.251578 0.310394
vt 0.330479 0.502447
vt 0.344551 0.22311
vt 0.115042 0.150316
vt 0.091143 0.390057
vt 0.511544 0.265925
vt 0.393297 0.054999
vt 0.683346 0.196268
vt 0.510262 0.28045
vt 0.738581 0.489561
vt 0.624543 0.078051
vt 0.791647 0.240108
vt 0.889768 0.104492
vt 0.902042 0.322025
vt 0.251578 0.310394
vt 0.330479 0.502447
vt 0.344551 0.22311
vt 0.115042 0.150316
vt 0.091143 0.390057
vt 0.511544 0.265925
vt 0.393297 0.054999
vt 0.683346 0.196268
vt 0.510262 0.28045
vt 0.738581 0.489561
vt 0.624543 0.078051
vt 0.791647 0.240108
vt 0.889768 0.104492
vt 0.902042 0.322025
vt 0.251578 0.310394
vt 0.330479 0.502447
vt 0.344551 0.22311
vt 0.115042 0.150316
vt 0.091143 0.390057
vt 0.511544 0.265925
vt 0.393297 0.054999
vt 0.683346 0.196268
vt 0.510262 0.28045
vt 0.738581 0.489561
vt 0.624543 0.078051
vt 0.791647 0.240108
vt 0.889768 0.104492
vt 0.902042 0.322025
vt 0.736972 0.258286
vt 0.78174 0.17808
vt 0.699507 0.254278
vt 0.736741 0.370822
vt 0.822405 0.292692
vt 0.631653 0.171222
vt 0.598874 0.306051
vt 0.736972 0.258286
vt 0.78174 0.17808
vt 0.699507 0.254278
vt 0.736741 0.370822
vt 0.822405 0.292692
vt 0.631653 0.171222
vt 0.598874 0.306051
vt 0.736972 0.258286
vt 0.78174 0.17808
vt 0.699507 0.254278
vt 0.736741 0.370822
vt 0.822405 0.292692
vt 0.631653 0.171222
vt 0.598874 0.306051
vt 0.576068 0.37146
vt 0.69944 0.470374
vt 0.641933 0.358651
vt 0.678442 0.238777
vt 0.69629 0.38966
vt 0.69629 0.38966
vt 0.699473 0.332023
vt 0.7548 0.343914
vt 0.825099 0.335205
vt 0.678442 0.238777
vt 0.678442 0.238777
vt 0.69944 0.470374
vt 0.69629 0.38966
vt 0.576068 0.37146
vt 0.69944 0.470374
vt 0.641933 0.358651
vt 0.678442 0.238777
vt 0.69629 0.38966
vt 0.69629 0.38966
vt 0.699473 0.332023
vt 0.7548 0.343914
vt 0.825099 0.335205
vt 0.678442 0.238777
vt 0.678442 0.238777
vt 0.69944 0.470374
vt 0.69629 0.38966
vt 0.576068 0.37146
vt 0.69944 0.470374
vt 0.641933 0.358651
vt 0.678442 0.238777
vt 0.69629 0.38966
vt 0.69629 0.38966
vt 0.699473 0.332023
vt 0.7548 0.343914
vt 0.825099 0.335205
vt 0.678442 0.238777
vt 0.678442 0.238777
vt 0.69944 0.470374
vt 0.69629 0.38966
vt 0.576068 0.37146
vt 0.69944 0.470374
vt 0.641933 0.358651
vt 0.678442 0.238777
vt 0.69629 0.38966
vt 0.69629 0.38966
vt 0.699473 0.332023
vt 0.7548 0.343914
vt 0.825099 0.335205
vt 0.678442 0.238777
vt 0.678442 0.238777
vt 0.69944 0.470374
vt 0.69629 0.38966
vt 0.576068 0.37146
vt 0.69944 0.470374
vt 0.641933 0.358651
vt 0.678442 0.238777
vt 0.69629 0.38966
vt 0.69629 0.38966
vt 0.699473 0.332023
vt 0.7548 0.343914
vt 0.825099 0.335205
vt 0.678442 0.238777
vt 0.678442 0.238777
vt 0.69944 0.470374
vt 0.69629 0.38966
vt 0.576068 0.37146
vt 0.69944 0.470374
vt 0.641933 0.358651
vt 0.678442 0.238777
vt 0.69629 0.38966
vt 0.69629 0.38966
vt 0.699473 0.332023
vt 0.7548 0.343914
vt 0.825099 0.335205
vt 0.678442 0.238777
vt 0.678442 0.238777
vt 0.69944 0.470374
vt 0.69629 0.38966
vt 0.678817 0.339571
vt 0.668479 0.1514
vt 0.616117 0.295391
vt 0.483187 0.352658
vt 0.60151 0.212689
vt 0.50071 0.197754
vt 0.539119 0.262887
vt 0.44441 0.149101
vt 0.678817 0.339571
vt 0.668479 0.1514
vt 0.616117 0.295391
vt 0.483187 0.352658
vt 0.60151 0.212689
vt 0.50071 0.197754
vt 0.539119 0.262887
vt 0.44441 0.149101




usemtl MEP_RockWall_b
usemap MEP_RockWall_b
f 92/92/92 95/95/95 94/94/94
f 92/92/92 94/94/94 93/93/93
f 93/93/93 94/94/94 96/96/96
f 103/103/103 104/104/104 99/99/99
f 103/103/103 99/99/99 100/100/100
f 100/100/100 99/99/99 98/98/98
f 100/100/100 98/98/98 101/101/101
f 94/94/94 102/102/102 98/98/98
f 94/94/94 98/98/98 97/97/97
f 97/97/97 98/98/98 99/99/99
f 105/105/105 108/108/108 107/107/107
f 105/105/105 107/107/107 106/106/106
f 106/106/106 107/107/107 109/109/109
f 116/116/116 117/117/117 112/112/112
f 116/116/116 112/112/112 113/113/113
f 113/113/113 112/112/112 111/111/111
f 113/113/113 111/111/111 114/114/114
f 107/107/107 115/115/115 111/111/111
f 107/107/107 111/111/111 110/110/110
f 110/110/110 111/111/111 112/112/112
f 118/118/118 121/121/121 120/120/120
f 118/118/118 120/120/120 119/119/119
f 119/119/119 120/120/120 122/122/122
f 129/129/129 130/130/130 125/125/125
f 129/129/129 125/125/125 126/126/126
f 126/126/126 125/125/125 124/124/124
f 126/126/126 124/124/124 127/127/127
f 120/120/120 128/128/128 124/124/124
f 120/120/120 124/124/124 123/123/123
f 123/123/123 124/124/124 125/125/125
f 131/131/131 134/134/134 133/133/133
f 131/131/131 133/133/133 132/132/132
f 132/132/132 133/133/133 135/135/135
f 142/142/142 143/143/143 138/138/138
f 142/142/142 138/138/138 139/139/139
f 139/139/139 138/138/138 137/137/137
f 139/139/139 137/137/137 140/140/140
f 133/133/133 141/141/141 137/137/137
f 133/133/133 137/137/137 136/136/136
f 136/136/136 137/137/137 138/138/138
f 144/144/144 147/147/147 146/146/146
f 144/144/144 146/146/146 145/145/145
f 145/145/145 146/146/146 148/148/148
f 155/155/155 156/156/156 151/151/151
f 155/155/155 151/151/151 152/152/152
f 152/152/152 151/151/151 150/150/150
f 152/152/152 150/150/150 153/153/153
f 146/146/146 154/154/154 150/150/150
f 146/146/146 150/150/150 149/149/149
f 149/149/149 150/150/150 151/151/151
f 157/157/157 160/160/160 159/159/159
f 157/157/157 159/159/159 158/158/158
f 158/158/158 159/159/159 161/161/161
f 168/168/168 169/169/169 164/164/164
f 168/168/168 164/164/164 165/165/165
f 165/165/165 164/164/164 163/163/163
f 165/165/165 163/163/163 166/166/166
f 159/159/159 167/167/167 163/163/163
f 159/159/159 163/163/163 162/162/162
f 162/162/162 163/163/163 164/164/164
f 5/5/5 4/4/4 1/1/1
f 5/5/5 1/1/1 2/2/2
f 2/2/2 1/1/1 3/3/3
f 2/2/2 3/3/3 6/6/6
f 6/6/6 3/3/3 7/7/7
f 4/4/4 7/7/7 3/3/3
f 4/4/4 3/3/3 1/1/1
f 13/13/13 14/14/14 12/12/12
f 13/13/13 12/12/12 11/11/11
f 11/11/11 12/12/12 8/8/8
f 11/11/11 8/8/8 9/9/9
f 9/9/9 8/8/8 10/10/10
f 12/12/12 14/14/14 10/10/10
f 12/12/12 10/10/10 8/8/8
f 19/19/19 18/18/18 15/15/15
f 19/19/19 15/15/15 16/16/16
f 16/16/16 15/15/15 17/17/17
f 16/16/16 17/17/17 20/20/20
f 20/20/20 17/17/17 21/21/21
f 18/18/18 21/21/21 17/17/17
f 18/18/18 17/17/17 15/15/15
f 27/27/27 28/28/28 26/26/26
f 27/27/27 26/26/26 25/25/25
f 25/25/25 26/26/26 22/22/22
f 25/25/25 22/22/22 23/23/23
f 23/23/23 22/22/22 24/24/24
f 26/26/26 28/28/28 24/24/24
f 26/26/26 24/24/24 22/22/22
f 33/33/33 32/32/32 29/29/29
f 33/33/33 29/29/29 30/30/30
f 30/30/30 29/29/29 31/31/31
f 30/30/30 31/31/31 34/34/34
f 34/34/34 31/31/31 35/35/35
f 32/32/32 35/35/35 31/31/31
f 32/32/32 31/31/31 29/29/29
f 41/41/41 42/42/42 40/40/40
f 41/41/41 40/40/40 39/39/39
f 39/39/39 40/40/40 36/36/36
f 39/39/39 36/36/36 37/37/37
f 37/37/37 36/36/36 38/38/38
f 40/40/40 42/42/42 38/38/38
f 40/40/40 38/38/38 36/36/36
f 47/47/47 46/46/46 43/43/43
f 47/47/47 43/43/43 44/44/44
f 44/44/44 43/43/43 45/45/45
f 44/44/44 45/45/45 48/48/48
f 48/48/48 45/45/45 49/49/49
f 46/46/46 49/49/49 45/45/45
f 46/46/46 45/45/45 43/43/43
f 55/55/55 56/56/56 54/54/54
f 55/55/55 54/54/54 53/53/53
f 53/53/53 54/54/54 50/50/50
f 53/53/53 50/50/50 51/51/51
f 51/51/51 50/50/50 52/52/52
f 54/54/54 56/56/56 52/52/52
f 54/54/54 52/52/52 50/50/50
f 61/61/61 60/60/60 57/57/57
f 61/61/61 57/57/57 58/58/58
f 58/58/58 57/57/57 59/59/59
f 58/58/58 59/59/59 62/62/62
f 62/62/62 59/59/59 63/63/63
f 60/60/60 63/63/63 59/59/59
f 60/60/60 59/59/59 57/57/57
f 69/69/69 70/70/70 68/68/68
f 69/69/69 68/68/68 67/67/67
f 67/67/67 68/68/68 64/64/64
f 67/67/67 64/64/64 65/65/65
f 65/65/65 64/64/64 66/66/66
f 68/68/68 70/70/70 66/66/66
f 68/68/68 66/66/66 64/64/64
f 75/75/75 74/74/74 71/71/71
f 75/75/75 71/71/71 72/72/72
f 72/72/72 71/71/71 73/73/73
f 72/72/72 73/73/73 76/76/76
f 76/76/76 73/73/73 77/77/77
f 74/74/74 77/77/77 73/73/73
f 74/74/74 73/73/73 71/71/71
f 82/82/82 81/81/81 78/78/78
f 82/82/82 78/78/78 79/79/79
f 79/79/79 78/78/78 80/80/80
f 79/79/79 80/80/80 83/83/83
f 83/83/83 80/80/80 84/84/84
f 81/81/81 84/84/84 80/80/80
f 81/81/81 80/80/80 78/78/78
f 89/89/89 88/88/88 85/85/85
f 89/89/89 85/85/85 86/86/86
f 86/86/86 85/85/85 87/87/87
f 86/86/86 87/87/87 90/90/90
f 90/90/90 87/87/87 91/91/91
f 88/88/88 91/91/91 87/87/87
f 88/88/88 87/87/87 85/85/85
f 172/172/172 176/176/176 174/174/174
f 172/172/172 174/174/174 171/171/171
f 171/171/171 174/174/174 175/175/175
f 171/171/171 175/175/175 177/177/177
f 177/177/177 175/175/175 176/176/176
f 177/177/177 176/176/176 173/173/173
f 173/173/173 176/176/176 172/172/172
f 173/173/173 172/172/172 170/170/170
f 170/170/170 172/172/172 171/171/171
f 180/180/180 184/184/184 182/182/182
f 180/180/180 182/182/182 179/179/179
f 179/179/179 182/182/182 183/183/183
f 179/179/179 183/183/183 185/185/185
f 185/185/185 183/183/183 184/184/184
f 185/185/185 184/184/184 181/181/181
f 181/181/181 184/184/184 180/180/180
f 181/181/181 180/180/180 178/178/178
f 178/178/178 180/180/180 179/179/179
f 174/174/174 176/176/176 175/175/175
f 182/182/182 184/184/184 183/183/183

