g NewMesh_tris_111
v 4.633018 15.65657 18.65235
v 20.61662 15.82104 17.87071
v 8.140837 15.41057 25.82447
v 25.46016 16.48558 19.06062
v 21.96763 14.75367 27.55612
v 25.25407 15.6687 23.47061
v 28.41191 7.81567 17.31028
v 27.16637 12.40803 21.64495
v 25.93729 13.09318 18.34949
v 29.12672 7.170709 20.54175
v 25.92711 7.339419 14.77929
v 22.02799 12.71998 16.81115
v 25.17424 8.839676 8.590761
v 19.32955 13.83671 11.70605
v 19.25391 7.585219 4.546449
v 16.90048 13.1566 6.223834
v 13.68389 6.633063 0.5208356
v 11.42933 12.08481 2.74483
v 32.5268 1.103981 15.03327
v 33.7937 0.5580458 18.69976
v 26.09296 0.7428483 7.612584
v 22.80269 0.6442274 2.051197
v 19.25391 7.585219 4.546449
v 16.93742 0.1197913 -1.49325
v 13.68389 6.633063 0.5208356
v 28.17753 -0.3020627 13.10005
v 3.815279 0.8699375 0.1122137
v 11.42933 12.08481 2.74483
v 1.586167 8.514228 1.924623
v 13.68389 6.633063 0.5208356
v 5.054197 -4.37736 -0.4905561
v 16.93742 0.1197913 -1.49325
v 22.84255 14.35519 27.02768
v 16.26576 7.240501 35.31924
v 13.85588 11.56459 36.61477
v 23.93186 10.51693 24.78381
v 26.30232 15.35272 23.0526
v 27.16637 12.40803 21.64495
v 26.30232 15.35272 23.0526
v 25.93729 13.09318 18.34949
v 27.16637 12.40803 21.64495
v 26.18338 16.45909 18.73883
v 22.02799 12.71998 16.81115
v 21.34926 15.6709 17.40226
v 19.32955 13.83671 11.70605
v 18.02805 16.65318 12.09849
v 16.90048 13.1566 6.223834
v 15.3271 16.72475 6.712491
v 11.42933 12.08481 2.74483
v 7.792554 15.67846 4.186927
v 1.586167 8.514228 1.924623
v 7.792554 15.67846 4.186927
v -3.576369 13.51722 4.514791
v 11.42933 12.08481 2.74483
v 6.605834 15.91148 4.513008
v 7.792554 15.67846 4.186927
v -3.725406 13.84893 4.936821
v 13.85588 11.56459 36.61477
v 21.96763 14.75367 27.55612
v 22.84255 14.35519 27.02768
v 13.46054 12.03001 36.358
v 25.25407 15.6687 23.47061
v 26.30232 15.35272 23.0526
v 10.74982 13.29009 32.09215
v 21.96763 14.75367 27.55612
v 13.46054 12.03001 36.358
v 8.140837 15.41057 25.82447
v 0.2780747 15.50246 12.78014
v -3.725406 13.84893 4.936821
v 6.605834 15.91148 4.513008
v 14.56767 16.90664 7.078815
v 17.26614 16.8376 12.51673
v 0.2780747 15.50246 12.78014
v 17.26614 16.8376 12.51673
v 4.633018 15.65657 18.65235
v 20.61662 15.82104 17.87071
v 7.792554 15.67846 4.186927
v 14.56767 16.90664 7.078815
v 6.605834 15.91148 4.513008
v 15.3271 16.72475 6.712491
v 17.26614 16.8376 12.51673
v 18.02805 16.65318 12.09849
v 20.61662 15.82104 17.87071
v 21.34926 15.6709 17.40226
v 25.46016 16.48558 19.06062
v 26.18338 16.45909 18.73883
v 25.25407 15.6687 23.47061
v 26.30232 15.35272 23.0526
v 19.22207 -0.4857093 32.67231
v 23.93186 10.51693 24.78381
v 27.82953 5.641702 23.3591
v 16.26576 7.240501 35.31924
v 27.16637 12.40803 21.64495
v 29.12672 7.170709 20.54175
v 31.20143 -1.514168 22.07781
v 22.23804 -7.184364 31.68756
v 19.22207 -0.4857093 32.67231
v 33.7937 0.5580458 18.69976
v 28.17753 -0.3020627 13.10005
v 27.28533 -8.162374 5.934643
v 30.08456 -9.068686 12.02164
v 26.09296 0.7428483 7.612584
v 32.5268 1.103981 15.03327
v 34.30407 -8.771332 14.05109
v 23.48762 -8.11912 -0.1843095
v 22.80269 0.6442274 2.051197
v 17.21916 -7.721932 -3.825928
v 16.93742 0.1197913 -1.49325
v 33.7937 0.5580458 18.69976
v 35.73637 -9.270484 18.14069
v 33.7937 0.5580458 18.69976
v 32.93418 -10.53187 21.76876
v 31.20143 -1.514168 22.07781
v 35.73637 -9.270484 18.14069
v 23.08463 -14.69173 31.81234
v 22.23804 -7.184364 31.68756
v 4.462845 -10.57923 -2.092941
v 16.93742 0.1197913 -1.49325
v 5.054197 -4.37736 -0.4905561
v 17.21916 -7.721932 -3.825928
v 10.51518 10.16383 1.392302
v 7.724127 -0.2695157 -8.134771
v 12.5193 1.527674 -4.330807
v 1.007499 13.31246 -4.424655
v 7.177282 15.79629 3.459035
v 15.62688 2.975582 1.086243
v 1.653135 -2.336582 -8.941993
v -6.37857 10.66454 -9.126354
v -3.0435 -3.847039 -12.37033
v -9.609859 9.793553 -9.713615
v 15.62688 2.975582 1.086243
v 11.21419 0.8665293 11.56226
v 10.51518 10.16383 1.392302
v 7.177282 15.79629 3.459035
v 3.612282 15.07437 9.420731
v -15.24202 5.532844 -3.601768
v -11.16351 -6.991861 -4.415494
v -9.609859 9.793553 -9.713615
v -3.0435 -3.847039 -12.37033
v -6.37857 10.66454 -9.126354
v -13.10256 9.29153 -1.879724
v -9.609859 9.793553 -9.713615
v -15.24202 5.532844 -3.601768
v -7.226889 13.83991 3.231321
v 1.007499 13.31246 -4.424655
v -2.917164 15.50398 6.316283
v 7.177282 15.79629 3.459035
v 3.612282 15.07437 9.420731

vn -0.04422488 0.9976071 0.05314423
vn 0.01157897 0.9989706 -0.04386018
vn -0.005491941 0.9887551 0.1494433
vn 0.05590494 0.9978477 -0.03427459
vn 0.2871787 0.8302242 0.4777618
vn 0.256076 0.8927035 0.3708172
vn 0.6948969 0.5070652 -0.5099052
vn 0.9464917 0.1948009 0.2573053
vn 0.7143608 0.3390081 -0.6121783
vn 0.8639914 0.4162434 0.2833027
vn 0.6977142 0.5021214 -0.510949
vn 0.6442401 0.4827069 -0.5932528
vn 0.764018 0.5112743 -0.3935419
vn 0.7531185 0.5377778 -0.3789557
vn 0.5142649 0.4904358 -0.7035654
vn 0.5356305 0.5189027 -0.6662132
vn 0.1778176 0.3617499 -0.9151599
vn 0.1816121 0.4032647 -0.8968805
vn 0.7140162 0.384921 -0.5848219
vn 0.9218757 0.3354675 0.1939245
vn 0.8618513 0.255624 -0.4380283
vn 0.6347448 0.3236299 -0.7016858
vn 0.5142649 0.4904358 -0.7035654
vn 0.2101468 0.3209668 -0.9234818
vn 0.1778176 0.3617499 -0.9151599
vn 0.7334095 0.2757872 -0.6213308
vn -0.09294648 0.2160676 -0.9719443
vn 0.1816121 0.4032647 -0.8968805
vn -0.07258681 0.3197385 -0.9447213
vn 0.1778176 0.3617499 -0.9151599
vn -0.1536292 0.2300845 -0.9609678
vn 0.2101468 0.3209668 -0.9234818
vn 0.6790863 0.3147022 0.6631775
vn 0.7459459 0.1012382 0.6582671
vn 0.6515107 0.3402499 0.6780588
vn 0.7404494 0.07757459 0.6676202
vn 0.7967075 0.4559771 0.3966638
vn 0.9464917 0.1948009 0.2573053
vn 0.7967075 0.4559771 0.3966638
vn 0.7143608 0.3390081 -0.6121783
vn 0.9464917 0.1948009 0.2573053
vn 0.6181868 0.6620739 -0.4236782
vn 0.6442401 0.4827069 -0.5932528
vn 0.3663482 0.7874417 -0.4957061
vn 0.7531185 0.5377778 -0.3789557
vn 0.5700464 0.7875099 -0.2342552
vn 0.5356305 0.5189027 -0.6662132
vn 0.4178902 0.7448515 -0.5201577
vn 0.1816121 0.4032647 -0.8968805
vn 0.03171812 0.6524943 -0.7571295
vn -0.07258681 0.3197385 -0.9447213
vn 0.03171812 0.6524943 -0.7571295
vn -0.1252496 0.5462926 -0.8281768
vn 0.1816121 0.4032647 -0.8968805
vn -0.1363091 0.8895692 -0.4359891
vn 0.03171812 0.6524943 -0.7571295
vn -0.1847658 0.8470842 -0.4983071
vn 0.6515107 0.3402499 0.6780588
vn 0.2871787 0.8302242 0.4777618
vn 0.6790863 0.3147022 0.6631775
vn 0.3028865 0.7920459 0.5300218
vn 0.256076 0.8927035 0.3708172
vn 0.7967075 0.4559771 0.3966638
vn -0.001378194 0.9526687 0.3040074
vn 0.2871787 0.8302242 0.4777618
vn 0.3028865 0.7920459 0.5300218
vn -0.005491941 0.9887551 0.1494433
vn -0.1306194 0.9909729 -0.03018863
vn -0.1847658 0.8470842 -0.4983071
vn -0.1363091 0.8895692 -0.4359891
vn 0.02734347 0.982409 -0.1847295
vn 0.08507095 0.9951481 0.04942802
vn -0.1306194 0.9909729 -0.03018863
vn 0.08507095 0.9951481 0.04942802
vn -0.04422488 0.9976071 0.05314423
vn 0.01157897 0.9989706 -0.04386018
vn 0.03171812 0.6524943 -0.7571295
vn 0.02734347 0.982409 -0.1847295
vn -0.1363091 0.8895692 -0.4359891
vn 0.4178902 0.7448515 -0.5201577
vn 0.08507095 0.9951481 0.04942802
vn 0.5700464 0.7875099 -0.2342552
vn 0.01157897 0.9989706 -0.04386018
vn 0.3663482 0.7874417 -0.4957061
vn 0.05590494 0.9978477 -0.03427459
vn 0.6181868 0.6620739 -0.4236782
vn 0.256076 0.8927035 0.3708172
vn 0.7967075 0.4559771 0.3966638
vn 0.6899552 0.1798003 0.701166
vn 0.7404494 0.07757459 0.6676202
vn 0.7040803 0.2238708 0.6739085
vn 0.7459459 0.1012382 0.6582671
vn 0.9464917 0.1948009 0.2573053
vn 0.8639914 0.4162434 0.2833027
vn 0.716285 0.1721762 0.676233
vn 0.6789631 0.1385007 0.7209901
vn 0.6899552 0.1798003 0.701166
vn 0.9218757 0.3354675 0.1939245
vn 0.7334095 0.2757872 -0.6213308
vn 0.8773523 0.2087374 -0.4320669
vn 0.6847848 0.2102018 -0.6977714
vn 0.8618513 0.255624 -0.4380283
vn 0.7140162 0.384921 -0.5848219
vn 0.7348374 0.2064408 -0.6460621
vn 0.6731828 0.2380685 -0.7001059
vn 0.6347448 0.3236299 -0.7016858
vn 0.1402399 0.280533 -0.949544
vn 0.2101468 0.3209668 -0.9234818
vn 0.9218757 0.3354675 0.1939245
vn 0.9559014 0.1776415 0.2338716
vn 0.9218757 0.3354675 0.1939245
vn 0.7242239 0.1087432 0.6809366
vn 0.716285 0.1721762 0.676233
vn 0.9559014 0.1776415 0.2338716
vn 0.6932156 0.1002459 0.7137247
vn 0.6789631 0.1385007 0.7209901
vn -0.1852221 0.2689142 -0.9451866
vn 0.2101468 0.3209668 -0.9234818
vn -0.1536292 0.2300845 -0.9609678
vn 0.1402399 0.280533 -0.949544
vn 0.7992285 0.5611094 -0.2153835
vn 0.2675731 0.4178196 -0.8682347
vn 0.4795806 0.5593536 -0.676111
vn 0.2080327 0.7611413 -0.6143177
vn 0.5371119 0.8420023 -0.05042768
vn 0.8117126 0.5800891 -0.06796581
vn 0.3151978 0.29163 -0.9031071
vn 0.0421222 0.7052904 -0.7076659
vn -0.08421145 0.09359796 -0.9920424
vn -0.4410678 0.551011 -0.7084109
vn 0.8117126 0.5800891 -0.06796581
vn 0.7773888 0.4742169 0.4132617
vn 0.7992285 0.5611094 -0.2153835
vn 0.5371119 0.8420023 -0.05042768
vn 0.4065058 0.8457979 0.3455126
vn -0.7739266 0.1358099 -0.6185414
vn -0.6576962 -0.1706979 -0.7336881
vn -0.4410678 0.551011 -0.7084109
vn -0.08421145 0.09359796 -0.9920424
vn 0.0421222 0.7052904 -0.7076659
vn -0.5864054 0.7663881 -0.2622557
vn -0.4410678 0.551011 -0.7084109
vn -0.7739266 0.1358099 -0.6185414
vn -0.2592901 0.9305805 -0.2584347
vn 0.2080327 0.7611413 -0.6143177
vn -0.107881 0.9814158 -0.1586969
vn 0.5371119 0.8420023 -0.05042768
vn 0.4065058 0.8457979 0.3455126

vt 0.160722 0.992174
vt 0.769016 0.957669
vt 0.568912 0.739034
vt 0.992202 0.93296
vt 1.139973 0.725072
vt 1.222029 0.879832
vt 0.009357 0.336857
vt -0.214336 0.545841
vt 0.009357 0.538979
vt -0.214336 0.351573
vt 0.234125 0.32051
vt 0.23305 0.531795
vt 0.68715 0.349292
vt 0.682145 0.539446
vt 1.129357 0.316749
vt 1.127824 0.531771
vt 1.575208 0.306403
vt 1.575208 0.531795
vt 0.009357 0.0627
vt -0.214336 0.081344
vt 0.689652 0.087657
vt 1.130123 0.06952
vt 1.129357 0.33404
vt 1.575208 0.053991
vt 1.575208 0.32322
vt 0.234662 0.041772
vt 0.687747 0.349292
vt 0.421336 0.53287
vt 0.682742 0.539447
vt 0.424696 0.330965
vt 0.69025 0.087696
vt 0.426376 0.056916
vt 0.2473 0.678007
vt 0.499542 0.54472
vt 0.499542 0.678007
vt 0.238968 0.54472
vt 0.095168 0.678008
vt 0.095168 0.54472
vt -0.538263 0.678008
vt -0.288137 0.54472
vt -0.538263 0.54472
vt -0.288137 0.678008
vt -0.03801 0.54472
vt -0.03801 0.678007
vt 0.462243 0.54472
vt 0.462243 0.678007
vt 0.962496 0.54472
vt 0.962496 0.678007
vt 1.462749 0.54472
vt 1.462749 0.678007
vt 0.462911 0.54472
vt 0.171932 0.678008
vt 0.462911 0.678007
vt 0.171932 0.54472
vt 0.228618 0.716213
vt 0.227797 0.678008
vt 0.463731 0.716213
vt 0.462911 0.678007
vt 0.319088 0.716213
vt 0.316251 0.678007
vt 0.463731 0.716213
vt 0.228618 0.716213
vt 0.227797 0.678008
vt 0.75313 0.772241
vt 1.030825 0.983831
vt 1.032008 0.772241
vt 0.474252 0.772241
vt 0.491712 0.733116
vt 0.101952 0.987427
vt 0.436336 0.997231
vt 0.725218 0.985835
vt 1.114978 0.731524
vt 0.252656 0.990337
vt 0.900897 0.983419
vt 0.655006 0.722537
vt 1.305199 0.764447
vt 1.462749 0.678007
vt 0.965988 0.716213
vt 1.466241 0.716213
vt 0.962496 0.678007
vt 0.465735 0.716213
vt 0.462243 0.678007
vt -0.034518 0.716213
vt -0.03801 0.678007
vt -0.284645 0.716213
vt -0.288137 0.678008
vt -0.534771 0.716213
vt -0.538263 0.678008
vt 0.720508 0.349292
vt 0.481675 0.534834
vt 0.483159 0.33691
vt 0.715503 0.539446
vt 0.352321 0.531459
vt 0.354888 0.324504
vt 0.483902 0.064852
vt 0.72301 0.089932
vt 0.720508 0.350428
vt 0.356171 0.047932
vt 1.422021 0.050575
vt 0.578433 0.514354
vt 1.421081 0.526355
vt 0.581693 0.081766
vt 1.864131 0.054583
vt 1.864093 0.510687
vt -0.247366 0.514215
vt -0.250736 0.055249
vt -1.094103 0.527304
vt -1.095361 0.0667
vt 2.296828 0.058854
vt 2.296828 0.497832
vt 1.194907 0.070375
vt 0.960741 0.53037
vt 0.961442 0.080732
vt 1.192949 0.538653
vt 0.516263 0.512981
vt 0.519433 0.080937
vt 0.577319 0.51433
vt 1.066628 0.078421
vt 0.580578 0.081752
vt 1.06409 0.536675
vt -0.496033 0.345811
vt 0.465105 0.0002
vt -0.027034 0.000264
vt 0.331399 0.719624
vt -0.516105 0.726228
vt -0.519173 0.000264
vt 0.959419 0.006873
vt 1.190631 0.722722
vt 1.44952 0.000305
vt 1.452134 0.722621
vt 0.752021 0.000264
vt 0.465762 0.000264
vt 0.752021 0.345811
vt 0.748613 0.733021
vt 0.466561 0.775759
vt 0.5018 0.737135
vt 0.5018 0.001464
vt 0.899615 0.737135
vt 0.899615 0.000305
vt 1.142249 0.73146
vt 1.118592 0.998144
vt 1.34264 0.73146
vt 1.34264 0.998144
vt 0.588409 0.998144
vt 0.484047 0.73146
vt 0.211293 0.998144
vt -0.165822 0.73146
vt -0.165822 0.998144

vt1 0.247318 0.2535401
vt1 0.4287613 0.07939291
vt1 0.3609731 0.3020709
vt1 0.4992683 0.04558554
vt1 0.5425721 0.1835347
vt1 0.5410712 0.1017098
vt1 0.1119224 0.53942
vt1 0.06841818 0.4423032
vt1 0.1280954 0.437568
vt1 0.05620505 0.5327993
vt1 0.1698177 0.547899
vt1 0.1970247 0.4378141
vt1 0.2668042 0.5610508
vt1 0.2921034 0.4401243
vt1 0.3716791 0.5664378
vt1 0.3836522 0.4694106
vt1 0.4774785 0.5790762
vt1 0.4868394 0.4819612
vt1 0.08772503 0.6655996
vt1 0.02804022 0.6614774
vt1 0.2524518 0.6780481
vt1 0.3514129 0.6901035
vt1 0.3716791 0.5664378
vt1 0.4554178 0.6924321
vt1 0.4774785 0.5790762
vt1 0.1614378 0.67873
vt1 0.649294 0.6237703
vt1 0.4868394 0.4819612
vt1 0.6504655 0.4960809
vt1 0.4774785 0.5790762
vt1 0.6527349 0.7090549
vt1 0.4554178 0.6924321
vt1 0.5526443 0.1698594
vt1 0.6277622 0.3518004
vt1 0.5522132 0.3774265
vt1 0.6177585 0.1446349
vt1 0.5518315 0.08708161
vt1 0.602272 0.07072137
vt1 0.05503246 0.3926496
vt1 0.1280954 0.437568
vt1 0.06841818 0.4423032
vt1 0.1221582 0.3813327
vt1 0.1970247 0.4378141
vt1 0.2031901 0.3894143
vt1 0.2921034 0.4401243
vt1 0.3052028 0.3918104
vt1 0.3836522 0.4694106
vt1 0.3991475 0.4088933
vt1 0.4868394 0.4819612
vt1 0.5255833 0.4081648
vt1 0.6504655 0.4960809
vt1 0.5255833 0.4081648
vt1 0.7061158 0.3900388
vt1 0.4868394 0.4819612
vt1 0.5423791 0.3980031
vt1 0.5255833 0.4081648
vt1 0.7067791 0.3813327
vt1 0.5522132 0.3774265
vt1 0.5425721 0.1835347
vt1 0.5526443 0.1698594
vt1 0.541841 0.3771672
vt1 0.5410712 0.1017098
vt1 0.5518315 0.08708161
vt1 0.4623804 0.354037
vt1 0.5425721 0.1835347
vt1 0.541841 0.3771672
vt1 0.3609731 0.3020709
vt1 0.1352308 0.2293765
vt1 0.00390625 0.1790441
vt1 0.1249315 0.06616019
vt1 0.2448602 0.01645201
vt1 0.3319443 0.05150758
vt1 0.1352308 0.2293765
vt1 0.3319443 0.05150758
vt1 0.247318 0.2535401
vt1 0.4287613 0.07939291
vt1 0.1347143 0.04925876
vt1 0.2448602 0.01645201
vt1 0.1249315 0.06616019
vt1 0.2497022 0.00390625
vt1 0.3319443 0.05150758
vt1 0.3367548 0.0385875
vt1 0.4287613 0.07939291
vt1 0.432559 0.0659795
vt1 0.4992683 0.04558554
vt1 0.5049056 0.03434838
vt1 0.5410712 0.1017098
vt1 0.5518315 0.08708161
vt1 0.7590241 0.3150956
vt1 0.6177585 0.1446349
vt1 0.7068077 0.1024168
vt1 0.6277622 0.3518004
vt1 0.602272 0.07072137
vt1 0.6892226 0.05155546
vt1 0.8283079 0.07521042
vt1 0.8726082 0.2938388
vt1 0.7590241 0.3150956
vt1 0.8094625 0.00390625
vt1 0.1614378 0.67873
vt1 0.2513033 0.8189014
vt1 0.1472029 0.8197803
vt1 0.2524518 0.6780481
vt1 0.08772503 0.6655996
vt1 0.07149281 0.8173203
vt1 0.3634946 0.8287978
vt1 0.3514129 0.6901035
vt1 0.4773229 0.8176404
vt1 0.4554178 0.6924321
vt1 0.02804022 0.6614774
vt1 0.00390625 0.8151549
vt1 0.8094625 0.00390625
vt1 0.9712622 0.08230708
vt1 0.8283079 0.07521042
vt1 0.9657479 0.008427965
vt1 0.9892439 0.3103872
vt1 0.8726082 0.2938388
vt1 0.6856862 0.8054014
vt1 0.4554178 0.6924321
vt1 0.6527349 0.7090549
vt1 0.4773229 0.8176404
vt1 0.04346408 0.4396744
vt1 0.3515162 0.6832771
vt1 0.1778953 0.6941059
vt1 0.2995294 0.2901186
vt1 0.03880703 0.2511139
vt1 0.00390625 0.6770779
vt1 0.5209836 0.6405487
vt1 0.5048347 0.2708209
vt1 0.6773243 0.5973371
vt1 0.577499 0.2502071
vt1 0.0318069 0.9950921
vt1 0.00390625 0.6980121
vt1 0.2551509 0.9503446
vt1 0.4169662 0.8781372
vt1 0.4234388 0.6980121
vt1 0.7288187 0.09460182
vt1 0.9847759 0.3844791
vt1 0.577499 0.2502071
vt1 0.6773243 0.5973371
vt1 0.5048347 0.2708209
vt1 0.593909 0.05208769
vt1 0.577499 0.2502071
vt1 0.7288187 0.09460182
vt1 0.3508801 0.00390625
vt1 0.2995294 0.2901186
vt1 0.197484 0.007175418
vt1 0.03880703 0.2511139
vt1 0.00390625 0.06063874

vt2 0.247318 0.2535401
vt2 0.4287613 0.07939291
vt2 0.3609731 0.3020709
vt2 0.4992683 0.04558554
vt2 0.5425721 0.1835347
vt2 0.5410712 0.1017098
vt2 0.1119224 0.53942
vt2 0.06841818 0.4423032
vt2 0.1280954 0.437568
vt2 0.05620505 0.5327993
vt2 0.1698177 0.547899
vt2 0.1970247 0.4378141
vt2 0.2668042 0.5610508
vt2 0.2921034 0.4401243
vt2 0.3716791 0.5664378
vt2 0.3836522 0.4694106
vt2 0.4774785 0.5790762
vt2 0.4868394 0.4819612
vt2 0.08772503 0.6655996
vt2 0.02804022 0.6614774
vt2 0.2524518 0.6780481
vt2 0.3514129 0.6901035
vt2 0.3716791 0.5664378
vt2 0.4554178 0.6924321
vt2 0.4774785 0.5790762
vt2 0.1614378 0.67873
vt2 0.649294 0.6237703
vt2 0.4868394 0.4819612
vt2 0.6504655 0.4960809
vt2 0.4774785 0.5790762
vt2 0.6527349 0.7090549
vt2 0.4554178 0.6924321
vt2 0.5526443 0.1698594
vt2 0.6277622 0.3518004
vt2 0.5522132 0.3774265
vt2 0.6177585 0.1446349
vt2 0.5518315 0.08708161
vt2 0.602272 0.07072137
vt2 0.05503246 0.3926496
vt2 0.1280954 0.437568
vt2 0.06841818 0.4423032
vt2 0.1221582 0.3813327
vt2 0.1970247 0.4378141
vt2 0.2031901 0.3894143
vt2 0.2921034 0.4401243
vt2 0.3052028 0.3918104
vt2 0.3836522 0.4694106
vt2 0.3991475 0.4088933
vt2 0.4868394 0.4819612
vt2 0.5255833 0.4081648
vt2 0.6504655 0.4960809
vt2 0.5255833 0.4081648
vt2 0.7061158 0.3900388
vt2 0.4868394 0.4819612
vt2 0.5423791 0.3980031
vt2 0.5255833 0.4081648
vt2 0.7067791 0.3813327
vt2 0.5522132 0.3774265
vt2 0.5425721 0.1835347
vt2 0.5526443 0.1698594
vt2 0.541841 0.3771672
vt2 0.5410712 0.1017098
vt2 0.5518315 0.08708161
vt2 0.4623804 0.354037
vt2 0.5425721 0.1835347
vt2 0.541841 0.3771672
vt2 0.3609731 0.3020709
vt2 0.1352308 0.2293765
vt2 0.00390625 0.1790441
vt2 0.1249315 0.06616019
vt2 0.2448602 0.01645201
vt2 0.3319443 0.05150758
vt2 0.1352308 0.2293765
vt2 0.3319443 0.05150758
vt2 0.247318 0.2535401
vt2 0.4287613 0.07939291
vt2 0.1347143 0.04925876
vt2 0.2448602 0.01645201
vt2 0.1249315 0.06616019
vt2 0.2497022 0.00390625
vt2 0.3319443 0.05150758
vt2 0.3367548 0.0385875
vt2 0.4287613 0.07939291
vt2 0.432559 0.0659795
vt2 0.4992683 0.04558554
vt2 0.5049056 0.03434838
vt2 0.5410712 0.1017098
vt2 0.5518315 0.08708161
vt2 0.7590241 0.3150956
vt2 0.6177585 0.1446349
vt2 0.7068077 0.1024168
vt2 0.6277622 0.3518004
vt2 0.602272 0.07072137
vt2 0.6892226 0.05155546
vt2 0.8283079 0.07521042
vt2 0.8726082 0.2938388
vt2 0.7590241 0.3150956
vt2 0.8094625 0.00390625
vt2 0.1614378 0.67873
vt2 0.2513033 0.8189014
vt2 0.1472029 0.8197803
vt2 0.2524518 0.6780481
vt2 0.08772503 0.6655996
vt2 0.07149281 0.8173203
vt2 0.3634946 0.8287978
vt2 0.3514129 0.6901035
vt2 0.4773229 0.8176404
vt2 0.4554178 0.6924321
vt2 0.02804022 0.6614774
vt2 0.00390625 0.8151549
vt2 0.8094625 0.00390625
vt2 0.9712622 0.08230708
vt2 0.8283079 0.07521042
vt2 0.9657479 0.008427965
vt2 0.9892439 0.3103872
vt2 0.8726082 0.2938388
vt2 0.6856862 0.8054014
vt2 0.4554178 0.6924321
vt2 0.6527349 0.7090549
vt2 0.4773229 0.8176404
vt2 0.04346408 0.4396744
vt2 0.3515162 0.6832771
vt2 0.1778953 0.6941059
vt2 0.2995294 0.2901186
vt2 0.03880703 0.2511139
vt2 0.00390625 0.6770779
vt2 0.5209836 0.6405487
vt2 0.5048347 0.2708209
vt2 0.6773243 0.5973371
vt2 0.577499 0.2502071
vt2 0.0318069 0.9950921
vt2 0.00390625 0.6980121
vt2 0.2551509 0.9503446
vt2 0.4169662 0.8781372
vt2 0.4234388 0.6980121
vt2 0.7288187 0.09460182
vt2 0.9847759 0.3844791
vt2 0.577499 0.2502071
vt2 0.6773243 0.5973371
vt2 0.5048347 0.2708209
vt2 0.593909 0.05208769
vt2 0.577499 0.2502071
vt2 0.7288187 0.09460182
vt2 0.3508801 0.00390625
vt2 0.2995294 0.2901186
vt2 0.197484 0.007175418
vt2 0.03880703 0.2511139
vt2 0.00390625 0.06063874


usemtl MEP_RockWall_b
usemap MEP_RockWall_b
f 5/5/5 6/6/6 4/4/4
f 5/5/5 4/4/4 3/3/3
f 3/3/3 4/4/4 2/2/2
f 3/3/3 2/2/2 1/1/1
f 8/8/8 10/10/10 7/7/7
f 8/8/8 7/7/7 9/9/9
f 9/9/9 7/7/7 11/11/11
f 9/9/9 11/11/11 12/12/12
f 12/12/12 11/11/11 13/13/13
f 12/12/12 13/13/13 14/14/14
f 14/14/14 13/13/13 15/15/15
f 14/14/14 15/15/15 16/16/16
f 16/16/16 15/15/15 17/17/17
f 16/16/16 17/17/17 18/18/18
f 24/24/24 25/25/25 23/23/23
f 24/24/24 23/23/23 22/22/22
f 22/22/22 23/23/23 13/13/13
f 22/22/22 13/13/13 21/21/21
f 21/21/21 13/13/13 11/11/11
f 21/21/21 11/11/11 26/26/26
f 26/26/26 11/11/11 7/7/7
f 26/26/26 7/7/7 19/19/19
f 19/19/19 7/7/7 10/10/10
f 19/19/19 10/10/10 20/20/20
f 32/32/32 31/31/31 30/30/30
f 30/30/30 31/31/31 27/27/27
f 30/30/30 27/27/27 28/28/28
f 28/28/28 27/27/27 29/29/29
f 38/38/38 37/37/37 36/36/36
f 36/36/36 37/37/37 33/33/33
f 36/36/36 33/33/33 34/34/34
f 34/34/34 33/33/33 35/35/35
f 49/49/49 50/50/50 48/48/48
f 49/49/49 48/48/48 47/47/47
f 47/47/47 48/48/48 46/46/46
f 47/47/47 46/46/46 45/45/45
f 45/45/45 46/46/46 44/44/44
f 45/45/45 44/44/44 43/43/43
f 43/43/43 44/44/44 42/42/42
f 43/43/43 42/42/42 40/40/40
f 40/40/40 42/42/42 39/39/39
f 40/40/40 39/39/39 41/41/41
f 51/51/51 53/53/53 52/52/52
f 51/51/51 52/52/52 54/54/54
f 55/55/55 56/56/56 53/53/53
f 55/55/55 53/53/53 57/57/57
f 63/63/63 62/62/62 60/60/60
f 60/60/60 62/62/62 59/59/59
f 60/60/60 59/59/59 58/58/58
f 58/58/58 59/59/59 61/61/61
f 64/64/64 66/66/66 65/65/65
f 64/64/64 65/65/65 67/67/67
f 70/70/70 69/69/69 68/68/68
f 70/70/70 68/68/68 71/71/71
f 71/71/71 68/68/68 72/72/72
f 75/75/75 76/76/76 74/74/74
f 75/75/75 74/74/74 73/73/73
f 87/87/87 88/88/88 86/86/86
f 87/87/87 86/86/86 85/85/85
f 85/85/85 86/86/86 84/84/84
f 85/85/85 84/84/84 83/83/83
f 83/83/83 84/84/84 82/82/82
f 83/83/83 82/82/82 81/81/81
f 81/81/81 82/82/82 80/80/80
f 81/81/81 80/80/80 78/78/78
f 78/78/78 80/80/80 77/77/77
f 78/78/78 77/77/77 79/79/79
f 94/94/94 93/93/93 91/91/91
f 91/91/91 93/93/93 90/90/90
f 91/91/91 90/90/90 89/89/89
f 89/89/89 90/90/90 92/92/92
f 98/98/98 94/94/94 95/95/95
f 95/95/95 94/94/94 91/91/91
f 95/95/95 91/91/91 96/96/96
f 96/96/96 91/91/91 97/97/97
f 109/109/109 110/110/110 104/104/104
f 109/109/109 104/104/104 103/103/103
f 103/103/103 104/104/104 101/101/101
f 103/103/103 101/101/101 99/99/99
f 99/99/99 101/101/101 100/100/100
f 99/99/99 100/100/100 102/102/102
f 102/102/102 100/100/100 105/105/105
f 102/102/102 105/105/105 106/106/106
f 106/106/106 105/105/105 107/107/107
f 106/106/106 107/107/107 108/108/108
f 116/116/116 115/115/115 113/113/113
f 113/113/113 115/115/115 112/112/112
f 113/113/113 112/112/112 111/111/111
f 111/111/111 112/112/112 114/114/114
f 117/117/117 119/119/119 118/118/118
f 117/117/117 118/118/118 120/120/120
f 122/122/122 127/127/127 124/124/124
f 122/122/122 124/124/124 121/121/121
f 121/121/121 124/124/124 125/125/125
f 121/121/121 126/126/126 123/123/123
f 121/121/121 123/123/123 122/122/122
f 129/129/129 130/130/130 128/128/128
f 129/129/129 128/128/128 127/127/127
f 127/127/127 128/128/128 124/124/124
f 134/134/134 135/135/135 132/132/132
f 134/134/134 132/132/132 133/133/133
f 133/133/133 132/132/132 131/131/131
f 138/138/138 139/139/139 137/137/137
f 138/138/138 137/137/137 136/136/136
f 142/142/142 143/143/143 141/141/141
f 142/142/142 141/141/141 140/140/140
f 140/140/140 141/141/141 144/144/144
f 140/140/140 144/144/144 145/145/145
f 145/145/145 144/144/144 146/146/146
f 145/145/145 146/146/146 147/147/147
f 147/147/147 146/146/146 148/148/148

