g NewMesh_tris_122
v -2.151223 1.596667 -1.418822
v -3.266184 1.930337 -1.596942
v -1.920925 1.844533 -1.745958
v -2.31423 0.5964832 -2.335205
v -3.012288 0.8710083 -1.632716
v -2.613964 2.664012 -2.661479
v -1.896198 1.707102 -3.165109
v -7.629091 0.5047737 2.155503
v -8.327154 -0.3997259 2.384785
v -7.521872 0.4339467 1.707763
v -6.558527 -0.2464656 2.499349
v -7.44899 -0.241271 2.990969
v -7.976258 -0.69751 1.027426
v -6.703094 -0.5450101 1.104985
v -9.731545 0.3493207 -1.108634
v -10.67305 -0.5237585 -1.070988
v -9.620528 0.3658817 -1.609697
v -8.727632 -0.7420313 -0.9563205
v -9.701621 -0.6833509 -0.4039479
v -10.32502 -0.5663011 -2.611508
v -8.916092 -0.6777087 -2.523659
v 2.278471 0.1472674 -5.707071
v 1.565835 -0.3845885 -5.593596
v 2.349715 0.1036789 -6.055534
v 2.903457 -0.6587192 -5.502314
v 2.238807 -0.4987331 -5.121652
v 1.783172 -0.5833626 -6.656074
v 2.75516 -0.7493345 -6.591091
v -1.652754 0.4737347 1.416943
v -2.393907 -0.3226009 1.555966
v -1.557148 0.4365194 0.9907262
v -0.7239017 -0.3590244 1.668836
v -1.559286 -0.3118472 2.133921
v -2.087815 -0.5153289 0.2564959
v -0.8815873 -0.5018068 0.3368235
v -5.175961 2.703963 0.0159018
v -5.936224 2.495006 -0.7607923
v -5.072166 3.125863 -0.06745718
v -4.253852 2.345325 -0.8030024
v -5.104606 1.899904 -0.6977564
v -5.606029 3.772681 -1.094642
v -4.390348 3.669966 -1.085284
v 0.001289935 -0.5167551 1.016946
v -1.111427 -0.532799 -0.004155399
v 0.161284 0.4276736 0.4104258
v 1.263808 -0.5248094 -0.06554776
v -0.4932144 0.449908 -0.1539322
v -0.4932144 0.449908 -0.1539322
v 0.3768425 0.5499939 -0.3865057
v 0.1161149 0.1396026 -0.7592832
v 0.1309824 -0.7083833 -1.35436
v 1.263808 -0.5248094 -0.06554776
v 1.263808 -0.5248094 -0.06554776
v -1.111427 -0.532799 -0.004155399
v -0.4932144 0.449908 -0.1539322
v -1.696701 3.376602 -2.838382
v -1.879175 4.970925 -4.011495
v -0.3636057 3.508494 -3.495743
v -1.229689 1.93955 -4.422009
v -0.4350724 4.448014 -4.133566
v -0.4350724 4.448014 -4.133566
v -0.04504182 3.39721 -4.541065
v -0.5917562 3.692367 -5.055079
v -1.597264 3.56325 -5.967065
v -1.229689 1.93955 -4.422009
v -1.229689 1.93955 -4.422009
v -1.879175 4.970925 -4.011495
v -0.4350724 4.448014 -4.133566
v -9.612348 1.057878 -5.073329
v -9.71568 -0.7446384 -5.17604
v -10.01902 0.8147395 -6.345481
v -8.256986 1.300257 -6.511917
v -10.12736 -0.2129272 -6.405849
v -10.12736 -0.2129272 -6.405849
v -9.564725 0.377988 -7.12102
v -9.158333 -0.1959505 -6.912235
v -8.079722 -0.7532654 -6.657407
v -8.256986 1.300257 -6.511917
v -8.256986 1.300257 -6.511917
v -9.71568 -0.7446384 -5.17604
v -10.12736 -0.2129272 -6.405849
v -5.533603 -1.123434 -1.051235
v -7.124975 -0.9813012 0.9485354
v -6.558431 0.344529 -1.555883
v -7.512324 -1.461571 -2.843204
v -7.652483 0.5161076 -0.09093101
v -8.949029 -0.5265939 -1.159319
v -8.297649 0.4170415 -1.899211
v -9.580103 -1.973363 -0.8652511
v 0.2629244 -0.6514825 -10.64624
v -1.415102 -0.5711863 -8.569353
v -1.007215 0.6687614 -11.28806
v -1.720812 -1.437975 -12.47173
v -2.172209 0.8075425 -9.772611
v -3.352786 -0.5447548 -10.7903
v -2.812768 0.4607694 -11.64204
v -3.795466 -2.102628 -10.36054
v -8.368124 -0.8185735 -3.848586
v -9.621458 -0.7813763 -2.22573
v -8.956907 0.541428 -4.006017
v -9.958069 -0.5221918 -5.274238
v -9.808732 0.6104654 -2.808275
v -10.97104 0.1536218 -3.783049
v -10.31311 0.9012164 -4.234342
v -11.68162 -0.9184498 -3.758727
v -0.8322391 -0.9161376 -1.31987
v -2.177805 -0.7485379 0.3980571
v -1.574834 0.4431922 -1.680754
v -2.540858 -0.9484992 -2.860409
v -2.493653 0.6170105 -0.4193528
v -3.685045 -0.1064796 -1.376166
v -3.047099 0.6721848 -1.96619
v -4.348614 -1.293766 -1.189942
v -8.918503 -1.11978 2.393892
v -10.39589 -0.9137844 4.236463
v -9.86657 0.2200487 1.870506
v -10.74806 -1.499154 0.7446306
v -10.88241 0.4333752 3.217918
v -12.08152 -0.5711859 2.265671
v -11.47679 0.2745328 1.547022
v -12.66675 -1.899096 2.590479

vn 0.4790782 0.02307803 0.8774689
vn -0.01135292 0.4653687 0.8850442
vn 0.8171398 0.3563254 0.4531166
vn 0.7749115 -0.5180264 0.3621616
vn 0.1500971 -0.4391777 0.8857731
vn 0.5359336 0.7889668 0.3005105
vn 0.9841796 0.1771736 -1.626599E-05
vn -0.2189833 0.9601448 0.17369
vn -0.7794764 0.61731 0.1065129
vn -0.06684291 0.8949453 -0.4411405
vn 0.5696544 0.8061334 0.1601336
vn -0.06561073 0.7372277 0.6724511
vn -0.4340072 0.5858361 -0.6844222
vn 0.3721549 0.6920776 -0.6184896
vn -0.04489024 0.9185435 0.392763
vn -0.6568229 0.7067674 0.2627998
vn 0.1040284 0.9689652 -0.2242421
vn 0.7030228 0.6322346 0.3256354
vn 0.05662596 0.5638834 0.8239108
vn -0.3085171 0.7948003 -0.522599
vn 0.5022447 0.7362308 -0.4535576
vn 0.05270063 0.9630988 0.2639379
vn -0.5794302 0.7975037 0.1680735
vn 0.1934937 0.9145749 -0.3551235
vn 0.7676555 0.5975132 0.231696
vn 0.1277378 0.6616964 0.7388104
vn -0.2399305 0.7434876 -0.624227
vn 0.5624757 0.6145893 -0.5530834
vn -0.1210192 0.9571758 0.2629998
vn -0.7131484 0.680838 0.1669706
vn 0.02662257 0.93413 -0.3559389
vn 0.6479208 0.725677 0.2314987
vn 0.006513062 0.6745358 0.7382134
vn -0.368915 0.6878624 -0.6250976
vn 0.4435495 0.7049874 -0.5534046
vn -0.1138986 -0.1592255 0.9806499
vn -0.7075676 -0.08114621 0.7019712
vn 0.04464803 0.4509525 0.8914304
vn 0.6525585 -0.1669418 0.7391196
vn 0.001481219 -0.6637307 0.7479702
vn -0.3489641 0.7005214 0.62249
vn 0.4622163 0.6153141 0.6385489
vn -0.05263371 0.545912 0.8361878
vn -0.8181993 0.5748801 -0.007927328
vn 0.1097477 0.7735312 0.6241835
vn 0.8214418 0.5700592 -0.01630773
vn -0.6426119 0.7610922 -0.08825346
vn -0.6426119 0.7610922 -0.08825346
vn 0.3821754 0.8706037 -0.3098242
vn -0.01400009 0.5634054 -0.826062
vn -6.156736E-05 0.5351179 -0.8447773
vn 0.8214418 0.5700592 -0.01630773
vn 0.8214418 0.5700592 -0.01630773
vn -0.8181993 0.5748801 -0.007927328
vn -0.6426119 0.7610922 -0.08825346
vn 0.4380257 0.04695081 0.8977355
vn 0.3957128 0.9060903 0.1497056
vn 0.7136943 -0.04100738 0.6992558
vn 0.7229053 -0.690143 -0.03332613
vn 0.6205944 0.7805687 0.0746671
vn 0.6205944 0.7805687 0.0746671
vn 0.9562653 -0.1681051 -0.2393685
vn 0.6283555 0.2259014 -0.7444044
vn 0.6054716 0.2093951 -0.7678266
vn 0.7229053 -0.690143 -0.03332613
vn 0.7229053 -0.690143 -0.03332613
vn 0.3957128 0.9060903 0.1497056
vn 0.6205944 0.7805687 0.0746671
vn -0.8067681 0.5718735 0.148614
vn -0.8314713 -0.5551923 -0.02042013
vn -0.796456 0.5699171 -0.2021193
vn 0.001708424 0.6455997 -0.7636742
vn -0.8436651 -0.462873 -0.2719885
vn -0.8436651 -0.462873 -0.2719885
vn -0.3077577 0.1527678 -0.9391204
vn -0.04753926 -0.5130943 -0.8570148
vn -0.0112328 -0.517965 -0.855328
vn 0.001708424 0.6455997 -0.7636742
vn 0.001708424 0.6455997 -0.7636742
vn -0.8314713 -0.5551923 -0.02042013
vn -0.8436651 -0.462873 -0.2719885
vn 0.8293424 0.5540005 -0.0726262
vn 0.008505566 0.621052 0.7837231
vn 0.5835403 0.753356 -0.3032088
vn -0.1117181 0.3063521 -0.9453398
vn -0.1154957 0.8106998 0.5739569
vn -0.9206088 0.3899593 -0.02027806
vn -0.4487901 0.7363539 -0.5063304
vn -0.9331759 0.3586524 0.02347703
vn 0.7440764 0.6570792 -0.120819
vn -0.08333004 0.676621 0.731601
vn 0.474219 0.8010322 -0.365327
vn -0.1476634 0.2113309 -0.9661959
vn -0.2313574 0.829705 0.5079995
vn -0.9659822 0.2543634 -0.04666561
vn -0.5442992 0.6235306 -0.5612024
vn -0.9743136 0.225195 -0.0004881726
vn 0.9169811 0.3986625 0.01462671
vn 0.111193 0.449688 0.8862374
vn 0.7143868 0.6790838 -0.16881
vn -0.04228897 0.4946494 -0.8680631
vn 0.02634053 0.6948034 0.7187173
vn -0.8341938 0.5465021 0.07386664
vn -0.3012265 0.8875443 -0.3486083
vn -0.8527874 0.5102797 0.1112133
vn 0.8816969 0.4696456 -0.04520454
vn 0.06978893 0.5739408 0.8159174
vn 0.6580964 0.7051241 -0.2640249
vn -0.07747635 0.3664902 -0.9271905
vn -0.03368931 0.7862384 0.6170043
vn -0.8759879 0.482321 0.003398484
vn -0.370063 0.8044108 -0.464733
vn -0.891794 0.4501534 0.04544581
vn 0.829569 0.5505672 -0.09322549
vn 0.007121694 0.6520044 0.7581817
vn 0.5842369 0.7405295 -0.3320897
vn -0.1098764 0.2681753 -0.9570836
vn -0.1164509 0.8330916 0.5407381
vn -0.9205051 0.3889115 -0.03766127
vn -0.4477095 0.715479 -0.5363265
vn -0.9331602 0.359387 0.007291066

vt 0.736972 0.258286
vt 0.78174 0.17808
vt 0.699507 0.254278
vt 0.736741 0.370822
vt 0.822405 0.292692
vt 0.631653 0.171222
vt 0.598874 0.306051
vt 0.736972 0.258286
vt 0.78174 0.17808
vt 0.699507 0.254278
vt 0.736741 0.370822
vt 0.822405 0.292692
vt 0.631653 0.171222
vt 0.598874 0.306051
vt 0.736972 0.258286
vt 0.78174 0.17808
vt 0.699507 0.254278
vt 0.736741 0.370822
vt 0.822405 0.292692
vt 0.631653 0.171222
vt 0.598874 0.306051
vt 0.736972 0.258286
vt 0.78174 0.17808
vt 0.699507 0.254278
vt 0.736741 0.370822
vt 0.822405 0.292692
vt 0.631653 0.171222
vt 0.598874 0.306051
vt 0.736972 0.258286
vt 0.78174 0.17808
vt 0.699507 0.254278
vt 0.736741 0.370822
vt 0.822405 0.292692
vt 0.631653 0.171222
vt 0.598874 0.306051
vt 0.736972 0.258286
vt 0.78174 0.17808
vt 0.699507 0.254278
vt 0.736741 0.370822
vt 0.822405 0.292692
vt 0.631653 0.171222
vt 0.598874 0.306051
vt 0.576068 0.37146
vt 0.69944 0.470374
vt 0.641933 0.358651
vt 0.678442 0.238777
vt 0.69629 0.38966
vt 0.69629 0.38966
vt 0.699473 0.332023
vt 0.7548 0.343914
vt 0.825099 0.335205
vt 0.678442 0.238777
vt 0.678442 0.238777
vt 0.69944 0.470374
vt 0.69629 0.38966
vt 0.576068 0.37146
vt 0.69944 0.470374
vt 0.641933 0.358651
vt 0.678442 0.238777
vt 0.69629 0.38966
vt 0.69629 0.38966
vt 0.699473 0.332023
vt 0.7548 0.343914
vt 0.825099 0.335205
vt 0.678442 0.238777
vt 0.678442 0.238777
vt 0.69944 0.470374
vt 0.69629 0.38966
vt 0.576068 0.37146
vt 0.69944 0.470374
vt 0.641933 0.358651
vt 0.678442 0.238777
vt 0.69629 0.38966
vt 0.69629 0.38966
vt 0.699473 0.332023
vt 0.7548 0.343914
vt 0.825099 0.335205
vt 0.678442 0.238777
vt 0.678442 0.238777
vt 0.69944 0.470374
vt 0.69629 0.38966
vt 0.678817 0.339571
vt 0.668479 0.1514
vt 0.616117 0.295391
vt 0.483187 0.352658
vt 0.60151 0.212689
vt 0.50071 0.197754
vt 0.539119 0.262887
vt 0.44441 0.149101
vt 0.678817 0.339571
vt 0.668479 0.1514
vt 0.616117 0.295391
vt 0.483187 0.352658
vt 0.60151 0.212689
vt 0.50071 0.197754
vt 0.539119 0.262887
vt 0.44441 0.149101
vt 0.678817 0.339571
vt 0.668479 0.1514
vt 0.616117 0.295391
vt 0.483187 0.352658
vt 0.60151 0.212689
vt 0.50071 0.197754
vt 0.539119 0.262887
vt 0.44441 0.149101
vt 0.678817 0.339571
vt 0.668479 0.1514
vt 0.616117 0.295391
vt 0.483187 0.352658
vt 0.60151 0.212689
vt 0.50071 0.197754
vt 0.539119 0.262887
vt 0.44441 0.149101
vt 0.678817 0.339571
vt 0.668479 0.1514
vt 0.616117 0.295391
vt 0.483187 0.352658
vt 0.60151 0.212689
vt 0.50071 0.197754
vt 0.539119 0.262887
vt 0.44441 0.149101




usemtl MEP_RockWall_b
usemap MEP_RockWall_b
f 43/43/43 46/46/46 45/45/45
f 43/43/43 45/45/45 44/44/44
f 44/44/44 45/45/45 47/47/47
f 54/54/54 55/55/55 50/50/50
f 54/54/54 50/50/50 51/51/51
f 51/51/51 50/50/50 49/49/49
f 51/51/51 49/49/49 52/52/52
f 45/45/45 53/53/53 49/49/49
f 45/45/45 49/49/49 48/48/48
f 48/48/48 49/49/49 50/50/50
f 56/56/56 59/59/59 58/58/58
f 56/56/56 58/58/58 57/57/57
f 57/57/57 58/58/58 60/60/60
f 67/67/67 68/68/68 63/63/63
f 67/67/67 63/63/63 64/64/64
f 64/64/64 63/63/63 62/62/62
f 64/64/64 62/62/62 65/65/65
f 58/58/58 66/66/66 62/62/62
f 58/58/58 62/62/62 61/61/61
f 61/61/61 62/62/62 63/63/63
f 69/69/69 72/72/72 71/71/71
f 69/69/69 71/71/71 70/70/70
f 70/70/70 71/71/71 73/73/73
f 80/80/80 81/81/81 76/76/76
f 80/80/80 76/76/76 77/77/77
f 77/77/77 76/76/76 75/75/75
f 77/77/77 75/75/75 78/78/78
f 71/71/71 79/79/79 75/75/75
f 71/71/71 75/75/75 74/74/74
f 74/74/74 75/75/75 76/76/76
f 5/5/5 4/4/4 1/1/1
f 5/5/5 1/1/1 2/2/2
f 2/2/2 1/1/1 3/3/3
f 2/2/2 3/3/3 6/6/6
f 6/6/6 3/3/3 7/7/7
f 4/4/4 7/7/7 3/3/3
f 4/4/4 3/3/3 1/1/1
f 12/12/12 11/11/11 8/8/8
f 12/12/12 8/8/8 9/9/9
f 9/9/9 8/8/8 10/10/10
f 9/9/9 10/10/10 13/13/13
f 13/13/13 10/10/10 14/14/14
f 11/11/11 14/14/14 10/10/10
f 11/11/11 10/10/10 8/8/8
f 19/19/19 18/18/18 15/15/15
f 19/19/19 15/15/15 16/16/16
f 16/16/16 15/15/15 17/17/17
f 16/16/16 17/17/17 20/20/20
f 20/20/20 17/17/17 21/21/21
f 18/18/18 21/21/21 17/17/17
f 18/18/18 17/17/17 15/15/15
f 26/26/26 25/25/25 22/22/22
f 26/26/26 22/22/22 23/23/23
f 23/23/23 22/22/22 24/24/24
f 23/23/23 24/24/24 27/27/27
f 27/27/27 24/24/24 28/28/28
f 25/25/25 28/28/28 24/24/24
f 25/25/25 24/24/24 22/22/22
f 33/33/33 32/32/32 29/29/29
f 33/33/33 29/29/29 30/30/30
f 30/30/30 29/29/29 31/31/31
f 30/30/30 31/31/31 34/34/34
f 34/34/34 31/31/31 35/35/35
f 32/32/32 35/35/35 31/31/31
f 32/32/32 31/31/31 29/29/29
f 40/40/40 39/39/39 36/36/36
f 40/40/40 36/36/36 37/37/37
f 37/37/37 36/36/36 38/38/38
f 37/37/37 38/38/38 41/41/41
f 41/41/41 38/38/38 42/42/42
f 39/39/39 42/42/42 38/38/38
f 39/39/39 38/38/38 36/36/36
f 84/84/84 88/88/88 86/86/86
f 84/84/84 86/86/86 83/83/83
f 83/83/83 86/86/86 87/87/87
f 83/83/83 87/87/87 89/89/89
f 89/89/89 87/87/87 88/88/88
f 89/89/89 88/88/88 85/85/85
f 85/85/85 88/88/88 84/84/84
f 85/85/85 84/84/84 82/82/82
f 82/82/82 84/84/84 83/83/83
f 92/92/92 96/96/96 94/94/94
f 92/92/92 94/94/94 91/91/91
f 91/91/91 94/94/94 95/95/95
f 91/91/91 95/95/95 97/97/97
f 97/97/97 95/95/95 96/96/96
f 97/97/97 96/96/96 93/93/93
f 93/93/93 96/96/96 92/92/92
f 93/93/93 92/92/92 90/90/90
f 90/90/90 92/92/92 91/91/91
f 100/100/100 104/104/104 102/102/102
f 100/100/100 102/102/102 99/99/99
f 99/99/99 102/102/102 103/103/103
f 99/99/99 103/103/103 105/105/105
f 105/105/105 103/103/103 104/104/104
f 105/105/105 104/104/104 101/101/101
f 101/101/101 104/104/104 100/100/100
f 101/101/101 100/100/100 98/98/98
f 98/98/98 100/100/100 99/99/99
f 108/108/108 112/112/112 110/110/110
f 108/108/108 110/110/110 107/107/107
f 107/107/107 110/110/110 111/111/111
f 107/107/107 111/111/111 113/113/113
f 113/113/113 111/111/111 112/112/112
f 113/113/113 112/112/112 109/109/109
f 109/109/109 112/112/112 108/108/108
f 109/109/109 108/108/108 106/106/106
f 106/106/106 108/108/108 107/107/107
f 116/116/116 120/120/120 118/118/118
f 116/116/116 118/118/118 115/115/115
f 115/115/115 118/118/118 119/119/119
f 115/115/115 119/119/119 121/121/121
f 121/121/121 119/119/119 120/120/120
f 121/121/121 120/120/120 117/117/117
f 117/117/117 120/120/120 116/116/116
f 117/117/117 116/116/116 114/114/114
f 114/114/114 116/116/116 115/115/115
f 86/86/86 88/88/88 87/87/87
f 94/94/94 96/96/96 95/95/95
f 102/102/102 104/104/104 103/103/103
f 110/110/110 112/112/112 111/111/111
f 118/118/118 120/120/120 119/119/119

