g NewMesh_tris_114
v 2.173265 -1.074686 0.6132144
v 0.1403766 -0.4892166 3.362281
v 1.800285 1.829643 -1.304581
v -0.1777676 -1.92821 -1.952132
v -0.4210236 -2.575093 0.9211345
v -0.3812821 3.173747 0.7882035
v -1.200885 2.025451 -2.379657
v -2.741261 1.169524 -0.8330231
v -0.3812821 3.173747 0.7882035
v 0.1403766 -0.4892166 3.362281
v -1.200885 2.025451 -2.379657
v -2.470261 -1.55453 -0.1333955
v -0.1777676 -1.92821 -1.952132
v -0.4210236 -2.575093 0.9211345
v 2.11235 1.445438 -6.019294
v 1.559189 -0.7578021 -3.276756
v -1.186021 2.628875 -6.815055
v 1.031742 -0.5555347 -8.910248
v 2.380906 -1.611349 -6.406383
v -2.671376 0.7183807 -4.431846
v -3.008295 0.140754 -7.928575
v -2.456894 -1.933582 -6.839061
v -2.671376 0.7183807 -4.431846
v 1.559189 -0.7578021 -3.276756
v -3.008295 0.140754 -7.928575
v 0.2616108 -2.896477 -7.14978
v 1.031742 -0.5555347 -8.910248
v 2.380906 -1.611349 -6.406383
v -2.018091 0.3895181 -13.60724
v -3.654532 2.361762 -11.25426
v -3.396041 1.449832 -16.65714
v -4.49126 -2.08 -14.44269
v -4.092418 -0.8346839 -11.78275
v -5.467289 3.598385 -15.20654
v -6.49999 0.6651628 -16.76436
v -7.514326 0.808313 -14.64759
v -5.467289 3.598385 -15.20654
v -3.654532 2.361762 -11.25426
v -6.49999 0.6651628 -16.76436
v -6.479466 -0.8724623 -12.61416
v -4.49126 -2.08 -14.44269
v -4.092418 -0.8346839 -11.78275
v -7.933536 2.099162 -21.1871
v -10.3898 0.4384104 -21.47651
v -6.308994 1.367976 -23.60849
v -5.847548 0.0708475 -20.18572
v -8.322648 0.07422553 -19.62417
v -8.210209 -0.5348404 -24.52385
v -5.533044 -1.257426 -23.43734
v -6.933495 -2.397827 -22.54683
v -8.210209 -0.5348404 -24.52385
v -10.3898 0.4384104 -21.47651
v -5.533044 -1.257426 -23.43734
v -7.518582 -1.832074 -20.26079
v -5.847548 0.0708475 -20.18572
v -8.322648 0.07422553 -19.62417
v 1.216336 -0.4231983 5.6032
v 0.4948539 -1.79408 3.459899
v 3.747716 -1.172299 5.993177
v 1.117675 -2.297865 7.587345
v -0.2481973 -2.181592 5.799393
v 3.728865 -2.789647 4.057836
v 3.818157 -3.530924 6.593975
v 2.549364 -4.470476 5.755768
v 3.728865 -2.789647 4.057836
v 0.4948539 -1.79408 3.459899
v 3.818157 -3.530924 6.593975
v 0.5056798 -3.914318 6.148313
v 1.117675 -2.297865 7.587345
v -0.2481973 -2.181592 5.799393
v 3.974356 -0.04191757 -14.83354
v 4.534996 -0.969526 -14.52565
v 3.640365 -0.02924012 -14.53164
v 3.21032 -0.7707534 -15.6047
v 4.181872 -0.8853153 -15.5035
v 3.49119 -1.009044 -13.61494
v 2.540432 -0.8250121 -14.39274
v 8.34785 -1.52643 -11.95835
v 7.633618 -2.108226 -12.55878
v 8.733377 -1.695152 -12.08524
v 8.291384 -2.416141 -11.04541
v 7.53866 -2.092673 -11.54541
v 8.789828 -2.700403 -12.93501
v 9.278924 -2.885389 -11.84144
v 5.722272 -1.913942 -5.031058
v 5.566854 -2.150373 -3.378757
v 5.258641 -0.8258801 -4.601245
v 3.94041 -1.574533 -5.3733
v 5.204562 -0.9322501 -3.649153
v 5.204562 -0.9322501 -3.649153
v 4.443268 -0.6067301 -4.22015
v 4.216802 -1.096695 -3.806533
v 3.534617 -1.985327 -3.546995
v 3.94041 -1.574533 -5.3733
v 3.94041 -1.574533 -5.3733
v 5.566854 -2.150373 -3.378757
v 5.204562 -0.9322501 -3.649153
v 2.611363 -1.302979 -11.0207
v 1.478465 -0.9686812 -9.14647
v 2.046436 0.1794412 -11.29471
v 0.7457024 -1.035998 -12.38897
v 1.291302 0.4650192 -9.925565
v -0.1063725 -0.05264603 -10.76658
v 0.5877038 0.6418611 -11.423
v -0.9317061 -1.142393 -10.51684
v 15.81242 -6.13312 2.074899
v 14.34795 -6.463575 3.895389
v 15.25687 -4.527551 2.30707
v 14.04009 -5.241709 0.5856367
v 14.26357 -4.731792 3.662712
v 12.90875 -4.846509 2.448636
v 13.73615 -3.941889 2.166417
v 12.00084 -5.97931 2.160015

vn 0.9336884 -0.330705 0.1373329
vn 0.06923689 -0.06238636 0.9956477
vn 0.7997168 0.4540435 -0.392807
vn 0.08156106 -0.6471658 -0.7579738
vn -0.05537015 -0.9558977 0.2884328
vn -0.03438403 0.9108839 0.4112278
vn -0.2818376 0.4858522 -0.8273544
vn -0.961216 0.2401121 -0.1356838
vn -0.03438403 0.9108839 0.4112278
vn 0.06923689 -0.06238636 0.9956477
vn -0.2818376 0.4858522 -0.8273544
vn -0.8723343 -0.488615 -0.01697536
vn 0.08156106 -0.6471658 -0.7579738
vn -0.05537015 -0.9558977 0.2884328
vn 0.7226052 0.6888662 0.05749051
vn 0.3832324 -0.1556976 0.9104347
vn -0.1633148 0.9727166 -0.1647746
vn 0.3575567 -0.02703872 -0.9335
vn 0.8778115 -0.4732992 -0.0737214
vn -0.6667116 0.2385245 0.7061174
vn -0.7841932 0.0936067 -0.6134158
vn -0.6566947 -0.7488187 -0.08956945
vn -0.6667116 0.2385245 0.7061174
vn 0.3832324 -0.1556976 0.9104347
vn -0.7841932 0.0936067 -0.6134158
vn 0.0380465 -0.9715898 -0.2335929
vn 0.3575567 -0.02703872 -0.9335
vn 0.8778115 -0.4732992 -0.0737214
vn 0.9953579 -0.08913639 0.0362937
vn 0.245597 0.5708151 0.7834871
vn 0.5904209 0.1861282 -0.7853403
vn 0.1090188 -0.9658699 -0.2349687
vn 0.2252592 -0.5753179 0.7863
vn -0.1847537 0.9629175 -0.1966114
vn -0.523294 -0.1551616 -0.8379071
vn -0.9995561 0.01676004 0.02462921
vn -0.1847537 0.9629175 -0.1966114
vn 0.245597 0.5708151 0.7834871
vn -0.523294 -0.1551616 -0.8379071
vn -0.7191621 -0.4722204 0.5097193
vn 0.1090188 -0.9658699 -0.2349687
vn 0.2252592 -0.5753179 0.7863
vn -0.08408137 0.9747559 0.2068368
vn -0.9900951 0.1325142 0.04638772
vn 0.4370822 0.7111789 -0.5506213
vn 0.7618281 0.1216015 0.6362634
vn -0.2904301 0.0846027 0.9531488
vn -0.4131546 -0.1283643 -0.9015687
vn 0.809751 -0.3881379 -0.4400596
vn 0.08094199 -0.9902393 -0.1134668
vn -0.4131546 -0.1283643 -0.9015687
vn -0.9900951 0.1325142 0.04638772
vn 0.809751 -0.3881379 -0.4400596
vn -0.03203782 -0.8016348 0.5969549
vn 0.7618281 0.1216015 0.6362634
vn -0.2904301 0.0846027 0.9531488
vn -0.190475 0.9805828 0.04665381
vn -0.4491107 0.1808002 -0.874992
vn 0.7057999 0.6811737 0.1945478
vn -0.2577892 0.09393708 0.9616239
vn -0.9842551 0.1123739 0.1364331
vn 0.6435898 -0.1213762 -0.7556851
vn 0.7235124 -0.4331218 0.5375271
vn 0.1037819 -0.9945371 -0.01119736
vn 0.6435898 -0.1213762 -0.7556851
vn -0.4491107 0.1808002 -0.874992
vn 0.7235124 -0.4331218 0.5375271
vn -0.5826448 -0.7903873 0.1892428
vn -0.2577892 0.09393708 0.9616239
vn -0.9842551 0.1123739 0.1364331
vn 0.4045131 0.9048758 -0.1325479
vn 0.7822591 0.5556523 0.2816404
vn -0.06956866 0.9546244 0.2895729
vn -0.2718897 0.7891135 -0.5507957
vn 0.5246837 0.604918 -0.5989835
vn 0.05628738 0.6775333 0.7333351
vn -0.5557328 0.8046321 0.2091129
vn 0.03864256 0.9980537 0.04894418
vn -0.2417573 0.8183535 -0.5213934
vn 0.6111309 0.7813816 -0.1263402
vn 0.3399337 0.6310368 0.6973075
vn -0.3888719 0.8368033 0.3854074
vn 0.5735591 0.5473801 -0.60943
vn 0.8901706 0.4354616 0.1340504
vn 0.7772157 0.4880553 -0.3971622
vn 0.5762187 0.3862142 0.7202851
vn 0.5509049 0.7534643 -0.3588805
vn -0.4103088 0.7328994 -0.5426832
vn 0.4386732 0.6087655 0.6610373
vn 0.4386732 0.6087655 0.6610373
vn -0.3294387 0.9439309 0.02155046
vn -0.548407 0.5799551 0.6024134
vn -0.5760456 0.5560805 0.599121
vn -0.4103088 0.7328994 -0.5426832
vn -0.4103088 0.7328994 -0.5426832
vn 0.5762187 0.3862142 0.7202851
vn 0.4386732 0.6087655 0.6610373
vn 0.9339676 0.33101 -0.1346729
vn 0.2410243 0.5374969 0.8080869
vn 0.7278342 0.6027861 -0.3269655
vn -0.115529 0.3954958 -0.9111729
vn 0.1514287 0.7676354 0.6227402
vn -0.7863632 0.6097263 0.09933207
vn -0.28801 0.8619343 -0.4172764
vn -0.8024991 0.5793667 0.1425813
vn 0.943877 0.3101514 0.1135877
vn 0.1303478 0.1959314 0.9719158
vn 0.7657768 0.6430339 0.009668604
vn 0.008688338 0.7036207 -0.7105227
vn 0.06675 0.481711 0.8737843
vn -0.7920592 0.5709924 0.2158934
vn -0.2284016 0.9677628 -0.1061505
vn -0.8139036 0.5278895 0.24268

vt 0.251578 0.310394
vt 0.330479 0.502447
vt 0.344551 0.22311
vt 0.115042 0.150316
vt 0.091143 0.390057
vt 0.511544 0.265925
vt 0.393297 0.054999
vt 0.683346 0.196268
vt 0.510262 0.28045
vt 0.738581 0.489561
vt 0.624543 0.078051
vt 0.791647 0.240108
vt 0.889768 0.104492
vt 0.902042 0.322025
vt 0.251578 0.310394
vt 0.330479 0.502447
vt 0.344551 0.22311
vt 0.115042 0.150316
vt 0.091143 0.390057
vt 0.511544 0.265925
vt 0.393297 0.054999
vt 0.683346 0.196268
vt 0.510262 0.28045
vt 0.738581 0.489561
vt 0.624543 0.078051
vt 0.791647 0.240108
vt 0.889768 0.104492
vt 0.902042 0.322025
vt 0.251578 0.310394
vt 0.330479 0.502447
vt 0.344551 0.22311
vt 0.115042 0.150316
vt 0.091143 0.390057
vt 0.511544 0.265925
vt 0.393297 0.054999
vt 0.683346 0.196268
vt 0.510262 0.28045
vt 0.738581 0.489561
vt 0.624543 0.078051
vt 0.791647 0.240108
vt 0.889768 0.104492
vt 0.902042 0.322025
vt 0.251578 0.310394
vt 0.330479 0.502447
vt 0.344551 0.22311
vt 0.115042 0.150316
vt 0.091143 0.390057
vt 0.511544 0.265925
vt 0.393297 0.054999
vt 0.683346 0.196268
vt 0.510262 0.28045
vt 0.738581 0.489561
vt 0.624543 0.078051
vt 0.791647 0.240108
vt 0.889768 0.104492
vt 0.902042 0.322025
vt 0.251578 0.310394
vt 0.330479 0.502447
vt 0.344551 0.22311
vt 0.115042 0.150316
vt 0.091143 0.390057
vt 0.511544 0.265925
vt 0.393297 0.054999
vt 0.683346 0.196268
vt 0.510262 0.28045
vt 0.738581 0.489561
vt 0.624543 0.078051
vt 0.791647 0.240108
vt 0.889768 0.104492
vt 0.902042 0.322025
vt 0.736972 0.258286
vt 0.78174 0.17808
vt 0.699507 0.254278
vt 0.736741 0.370822
vt 0.822405 0.292692
vt 0.631653 0.171222
vt 0.598874 0.306051
vt 0.736972 0.258286
vt 0.78174 0.17808
vt 0.699507 0.254278
vt 0.736741 0.370822
vt 0.822405 0.292692
vt 0.631653 0.171222
vt 0.598874 0.306051
vt 0.576068 0.37146
vt 0.69944 0.470374
vt 0.641933 0.358651
vt 0.678442 0.238777
vt 0.69629 0.38966
vt 0.69629 0.38966
vt 0.699473 0.332023
vt 0.7548 0.343914
vt 0.825099 0.335205
vt 0.678442 0.238777
vt 0.678442 0.238777
vt 0.69944 0.470374
vt 0.69629 0.38966
vt 0.678817 0.339571
vt 0.668479 0.1514
vt 0.616117 0.295391
vt 0.483187 0.352658
vt 0.60151 0.212689
vt 0.50071 0.197754
vt 0.539119 0.262887
vt 0.44441 0.149101
vt 0.678817 0.339571
vt 0.668479 0.1514
vt 0.616117 0.295391
vt 0.483187 0.352658
vt 0.60151 0.212689
vt 0.50071 0.197754
vt 0.539119 0.262887
vt 0.44441 0.149101




usemtl MEP_RockWall_b
usemap MEP_RockWall_b
f 85/85/85 88/88/88 87/87/87
f 85/85/85 87/87/87 86/86/86
f 86/86/86 87/87/87 89/89/89
f 96/96/96 97/97/97 92/92/92
f 96/96/96 92/92/92 93/93/93
f 93/93/93 92/92/92 91/91/91
f 93/93/93 91/91/91 94/94/94
f 87/87/87 95/95/95 91/91/91
f 87/87/87 91/91/91 90/90/90
f 90/90/90 91/91/91 92/92/92
f 5/5/5 4/4/4 1/1/1
f 5/5/5 1/1/1 2/2/2
f 2/2/2 1/1/1 3/3/3
f 2/2/2 3/3/3 6/6/6
f 6/6/6 3/3/3 7/7/7
f 4/4/4 7/7/7 3/3/3
f 4/4/4 3/3/3 1/1/1
f 13/13/13 14/14/14 12/12/12
f 13/13/13 12/12/12 11/11/11
f 11/11/11 12/12/12 8/8/8
f 11/11/11 8/8/8 9/9/9
f 9/9/9 8/8/8 10/10/10
f 12/12/12 14/14/14 10/10/10
f 12/12/12 10/10/10 8/8/8
f 19/19/19 18/18/18 15/15/15
f 19/19/19 15/15/15 16/16/16
f 16/16/16 15/15/15 17/17/17
f 16/16/16 17/17/17 20/20/20
f 20/20/20 17/17/17 21/21/21
f 18/18/18 21/21/21 17/17/17
f 18/18/18 17/17/17 15/15/15
f 27/27/27 28/28/28 26/26/26
f 27/27/27 26/26/26 25/25/25
f 25/25/25 26/26/26 22/22/22
f 25/25/25 22/22/22 23/23/23
f 23/23/23 22/22/22 24/24/24
f 26/26/26 28/28/28 24/24/24
f 26/26/26 24/24/24 22/22/22
f 33/33/33 32/32/32 29/29/29
f 33/33/33 29/29/29 30/30/30
f 30/30/30 29/29/29 31/31/31
f 30/30/30 31/31/31 34/34/34
f 34/34/34 31/31/31 35/35/35
f 32/32/32 35/35/35 31/31/31
f 32/32/32 31/31/31 29/29/29
f 41/41/41 42/42/42 40/40/40
f 41/41/41 40/40/40 39/39/39
f 39/39/39 40/40/40 36/36/36
f 39/39/39 36/36/36 37/37/37
f 37/37/37 36/36/36 38/38/38
f 40/40/40 42/42/42 38/38/38
f 40/40/40 38/38/38 36/36/36
f 47/47/47 46/46/46 43/43/43
f 47/47/47 43/43/43 44/44/44
f 44/44/44 43/43/43 45/45/45
f 44/44/44 45/45/45 48/48/48
f 48/48/48 45/45/45 49/49/49
f 46/46/46 49/49/49 45/45/45
f 46/46/46 45/45/45 43/43/43
f 55/55/55 56/56/56 54/54/54
f 55/55/55 54/54/54 53/53/53
f 53/53/53 54/54/54 50/50/50
f 53/53/53 50/50/50 51/51/51
f 51/51/51 50/50/50 52/52/52
f 54/54/54 56/56/56 52/52/52
f 54/54/54 52/52/52 50/50/50
f 61/61/61 60/60/60 57/57/57
f 61/61/61 57/57/57 58/58/58
f 58/58/58 57/57/57 59/59/59
f 58/58/58 59/59/59 62/62/62
f 62/62/62 59/59/59 63/63/63
f 60/60/60 63/63/63 59/59/59
f 60/60/60 59/59/59 57/57/57
f 69/69/69 70/70/70 68/68/68
f 69/69/69 68/68/68 67/67/67
f 67/67/67 68/68/68 64/64/64
f 67/67/67 64/64/64 65/65/65
f 65/65/65 64/64/64 66/66/66
f 68/68/68 70/70/70 66/66/66
f 68/68/68 66/66/66 64/64/64
f 75/75/75 74/74/74 71/71/71
f 75/75/75 71/71/71 72/72/72
f 72/72/72 71/71/71 73/73/73
f 72/72/72 73/73/73 76/76/76
f 76/76/76 73/73/73 77/77/77
f 74/74/74 77/77/77 73/73/73
f 74/74/74 73/73/73 71/71/71
f 82/82/82 81/81/81 78/78/78
f 82/82/82 78/78/78 79/79/79
f 79/79/79 78/78/78 80/80/80
f 79/79/79 80/80/80 83/83/83
f 83/83/83 80/80/80 84/84/84
f 81/81/81 84/84/84 80/80/80
f 81/81/81 80/80/80 78/78/78
f 100/100/100 104/104/104 102/102/102
f 100/100/100 102/102/102 99/99/99
f 99/99/99 102/102/102 103/103/103
f 99/99/99 103/103/103 105/105/105
f 105/105/105 103/103/103 104/104/104
f 105/105/105 104/104/104 101/101/101
f 101/101/101 104/104/104 100/100/100
f 101/101/101 100/100/100 98/98/98
f 98/98/98 100/100/100 99/99/99
f 108/108/108 112/112/112 110/110/110
f 108/108/108 110/110/110 107/107/107
f 107/107/107 110/110/110 111/111/111
f 107/107/107 111/111/111 113/113/113
f 113/113/113 111/111/111 112/112/112
f 113/113/113 112/112/112 109/109/109
f 109/109/109 112/112/112 108/108/108
f 109/109/109 108/108/108 106/106/106
f 106/106/106 108/108/108 107/107/107
f 102/102/102 104/104/104 103/103/103
f 110/110/110 112/112/112 111/111/111

