g NewMesh_tris_38
v 4.747817 -1.16817 -1.668607
v 4.625877 -3.38524 -1.677148
v 10.31559 -1.330416 -1.776156
v 4.869129 1.249409 -1.096712
v -0.6727439 -1.136414 -1.317151
v -0.5782223 1.61827 -1.192866
v -0.3512851 1.96816 2.780189
v 9.738234 0.2603579 -0.1412001
v 4.972628 1.651702 2.582116
v -0.2476372 1.278276 5.499652
v 11.19038 -4.206836 -0.3964171
v 10.30214 0.4855547 1.949168
v 11.41853 0.4650107 4.91612
v -5.693025 1.349443 5.724841
v -5.834017 1.937724 3.041858
v -5.994522 1.644002 -0.2900085
v -6.16497 -0.9007534 -0.9889766
v -6.286844 -2.936902 -0.954188
v -11.36707 -0.6169456 -0.7544584
v -10.7303 1.04299 0.6386921
v -10.84114 1.454039 2.798676
v -11.67408 1.413955 5.991625
v -12.29708 -2.88004 0.1438027
v 5.102774 0.9281322 5.273037
v -0.6942857 -3.386196 -1.369139
v -10.84114 1.454039 2.798676
v -11.36707 -0.6169456 -0.7544584
v -10.7303 1.04299 0.6386921
v -12.29708 -2.88004 0.1438027
v -11.67408 1.413955 5.991625
v 11.41853 0.4650107 4.91612
v 10.30214 0.4855547 1.949168
v 11.19038 -4.206836 -0.3964171
v 10.31559 -1.330416 -1.776156
v 9.738234 0.2603579 -0.1412001

vn -0.02267434 0.105615 -0.9941486
vn -0.01821222 -0.05491922 -0.9983246
vn 0.5859234 0.2047944 -0.7840619
vn 0.1070777 0.7611396 -0.6396882
vn -0.0627533 0.03215491 -0.9975109
vn -0.02210425 0.7006254 -0.7131869
vn 0.03502977 0.9966828 0.07346041
vn 0.4753394 0.8038088 -0.3576925
vn 0.1146347 0.992151 0.04995175
vn 0.04589571 0.9681866 0.2459842
vn 0.7405993 -0.04495091 -0.6704417
vn 0.6064066 0.7655331 -0.2150122
vn 0.5102708 0.8514665 -0.1209484
vn 0.01509289 0.9757795 0.2182351
vn -0.03525256 0.9984007 0.04419642
vn -0.113495 0.7913576 -0.6007263
vn -0.06635047 0.1119393 -0.9914974
vn -0.07224575 -0.04870359 -0.996197
vn -0.6015332 0.2622334 -0.7545802
vn -0.5182179 0.7773383 -0.3566446
vn -0.526693 0.8353795 -0.1572754
vn -0.4080165 0.9118071 -0.04615645
vn -0.7454606 0.08003604 -0.661727
vn 0.07951724 0.9635999 0.2552492
vn -0.06475565 0.02368334 -0.99762
vn -0.526693 0.8353795 -0.1572754
vn -0.6015332 0.2622334 -0.7545802
vn -0.5182179 0.7773383 -0.3566446
vn -0.7454606 0.08003604 -0.661727
vn -0.4080165 0.9118071 -0.04615645
vn 0.5102708 0.8514665 -0.1209484
vn 0.6064066 0.7655331 -0.2150122
vn 0.7405993 -0.04495091 -0.6704417
vn 0.5859234 0.2047944 -0.7840619
vn 0.4753394 0.8038088 -0.3576925

vt 0.773393 0.217223
vt 0.773393 7.1E-05
vt 1.29675 0.217223
vt 0.773393 0.709375
vt 0.250036 0.217223
vt 0.250036 0.709375
vt 0.250035 0.923011
vt 1.29675 0.709375
vt 0.773393 0.923012
vt 0.250035 0.999929
vt 1.29675 7.1E-05
vt 1.29675 0.923012
vt 1.29675 0.999929
vt -0.273322 0.999929
vt -0.273322 0.923011
vt -0.273322 0.709375
vt -0.273322 0.217223
vt -0.273322 7.1E-05
vt -0.796679 0.217223
vt -0.796679 0.709375
vt -0.796679 0.923011
vt -0.796679 0.999929
vt -0.796679 7.1E-05
vt 0.773392 0.999929
vt 0.250036 7.1E-05
vt 0.633554 0.732983
vt 0.082263 0.37865
vt 0.291746 0.667745
vt 0.237586 -0.00292
vt 1.122423 0.712588
vt -0.01884 0.839844
vt 0.371397 0.863954
vt 0.7036 0.016282
vt 0.909623 0.175038
vt 0.729075 0.713717

vt1 0.2896103 0.378613
vt1 0.2735092 0.4736551
vt1 0.1170938 0.3363153
vt1 0.2994264 0.2812851
vt1 0.508964 0.3968944
vt1 0.5060386 0.2874025
vt1 0.5015095 0.1240579
vt1 0.1329921 0.2697307
vt1 0.285057 0.1386918
vt1 0.498345 0.00390625
vt1 0.006121434 0.3982771
vt1 0.08744048 0.2070304
vt1 0.00390625 0.1054685
vt1 0.7410653 0.01551431
vt1 0.7273539 0.1313095
vt1 0.7168595 0.2660618
vt1 0.7340955 0.3711688
vt1 0.7554465 0.4577636
vt1 0.9035308 0.3219224
vt1 0.8820764 0.2558505
vt1 0.9156494 0.1861027
vt1 0.9955254 0.07421698
vt1 0.9955254 0.3715052
vt1 0.2617481 0.02682776
vt1 0.5086909 0.4929966
vt1 0.9156494 0.1861027
vt1 0.9035308 0.3219224
vt1 0.8820764 0.2558505
vt1 0.9955254 0.3715052
vt1 0.9955254 0.07421698
vt1 0.00390625 0.1054685
vt1 0.08744048 0.2070304
vt1 0.006121434 0.3982771
vt1 0.1170938 0.3363153
vt1 0.1329921 0.2697307

vt2 0.2896103 0.378613
vt2 0.2735092 0.4736551
vt2 0.1170938 0.3363153
vt2 0.2994264 0.2812851
vt2 0.508964 0.3968944
vt2 0.5060386 0.2874025
vt2 0.5015095 0.1240579
vt2 0.1329921 0.2697307
vt2 0.285057 0.1386918
vt2 0.498345 0.00390625
vt2 0.006121434 0.3982771
vt2 0.08744048 0.2070304
vt2 0.00390625 0.1054685
vt2 0.7410653 0.01551431
vt2 0.7273539 0.1313095
vt2 0.7168595 0.2660618
vt2 0.7340955 0.3711688
vt2 0.7554465 0.4577636
vt2 0.9035308 0.3219224
vt2 0.8820764 0.2558505
vt2 0.9156494 0.1861027
vt2 0.9955254 0.07421698
vt2 0.9955254 0.3715052
vt2 0.2617481 0.02682776
vt2 0.5086909 0.4929966
vt2 0.9156494 0.1861027
vt2 0.9035308 0.3219224
vt2 0.8820764 0.2558505
vt2 0.9955254 0.3715052
vt2 0.9955254 0.07421698
vt2 0.00390625 0.1054685
vt2 0.08744048 0.2070304
vt2 0.006121434 0.3982771
vt2 0.1170938 0.3363153
vt2 0.1329921 0.2697307


usemtl MEP_DirtEdge_01
usemap MEP_DirtEdge_01
f 20/20/20 21/21/21 15/15/15
f 20/20/20 15/15/15 16/16/16
f 16/16/16 15/15/15 7/7/7
f 16/16/16 7/7/7 6/6/6
f 6/6/6 7/7/7 4/4/4
f 6/6/6 4/4/4 1/1/1
f 1/1/1 4/4/4 3/3/3
f 1/1/1 3/3/3 2/2/2
f 2/2/2 3/3/3 11/11/11
f 6/6/6 1/1/1 5/5/5
f 6/6/6 5/5/5 17/17/17
f 17/17/17 5/5/5 18/18/18
f 17/17/17 18/18/18 19/19/19
f 19/19/19 18/18/18 23/23/23
f 29/29/29 30/30/30 26/26/26
f 29/29/29 26/26/26 27/27/27
f 27/27/27 26/26/26 28/28/28
f 34/34/34 35/35/35 32/32/32
f 34/34/34 32/32/32 33/33/33
f 33/33/33 32/32/32 31/31/31
f 8/8/8 3/3/3 4/4/4
f 8/8/8 4/4/4 9/9/9
f 9/9/9 4/4/4 7/7/7
f 9/9/9 7/7/7 10/10/10
f 10/10/10 7/7/7 14/14/14
f 12/12/12 8/8/8 9/9/9
f 12/12/12 9/9/9 13/13/13
f 13/13/13 9/9/9 24/24/24
f 19/19/19 20/20/20 16/16/16
f 19/19/19 16/16/16 17/17/17
f 17/17/17 16/16/16 6/6/6
f 14/14/14 7/7/7 15/15/15
f 14/14/14 15/15/15 22/22/22
f 22/22/22 15/15/15 21/21/21
f 10/10/10 24/24/24 9/9/9
f 25/25/25 18/18/18 5/5/5
f 25/25/25 5/5/5 2/2/2
f 2/2/2 5/5/5 1/1/1

