g NewMesh_tris_20
v 4.189987 1.306143 -19.20522
v 2.865283 18.75873 -1.558141
v 0.4976911 1.222302 -3.847013
v -1.023463 14.59817 11.51129
v -1.760982 9.539968 11.0791
v 4.576966 18.85962 -2.001663
v -17.10014 11.531 -3.887884
v -0.9974822 2.215606 -0.862348
v 17.55079 6.728611 1.011228
v 16.18219 1.790798 1.384655
v 4.337023 9.836101 -4.751265
v -0.4930415 0.2105198 1.735153
v -0.1261436 -0.862585 -0.3538387
v 5.44565 10.12896 -2.883159
v 0.9682029 13.47545 -3.581986
v 1.322399 -0.8123573 0.9452552
v -1.242681 -0.3534432 0.1523903
v 3.014311 12.33264 -4.532537
v 4.337023 9.836101 -4.751265
v -0.1261436 -0.862585 -0.3538387
v -0.4930415 0.2105198 1.735153
v 5.44565 10.12896 -2.883159
v 0.9682029 13.47545 -3.581986
v -1.242681 -0.3534432 0.1523903
v 1.322399 -0.8123573 0.9452552
v 3.014311 12.33264 -4.532537
v 2.865283 18.75873 -1.558141
v 4.189987 1.306143 -19.20522
v 0.4976911 1.222302 -3.847013
v -1.023463 14.59817 11.51129
v -1.760982 9.539968 11.0791
v 4.576966 18.85962 -2.001663
v -0.9974822 2.215606 -0.862348
v -17.10014 11.531 -3.887884
v 17.55079 6.728611 1.011228
v 16.18219 1.790798 1.384655

vn -0.9524103 0.1852904 -0.2420372
vn -0.9518895 0.1850228 -0.2442809
vn -0.9519646 0.1850566 -0.2439619
vn -0.9514912 0.184794 -0.2459994
vn -0.9515288 0.1847017 -0.2459232
vn 0.08506657 -0.2354347 -0.9681603
vn 0.0828473 -0.2347566 -0.9685172
vn 0.0847451 -0.2353112 -0.9682184
vn 0.08673378 -0.2358924 -0.9679009
vn 0.08668907 -0.2358157 -0.9679236
vn -0.7810978 0.5341049 0.3234476
vn -0.9310359 0.2679709 -0.2477168
vn -0.9265209 0.2429194 -0.2873138
vn -0.7532767 0.546508 0.365928
vn 0.4702237 0.2567286 0.8443815
vn -0.1667572 0.3587081 0.9184338
vn -0.213294 0.3603582 0.9081011
vn 0.5165117 0.2427213 0.8211589
vn 0.7810978 -0.5341049 -0.3234476
vn 0.9265209 -0.2429194 0.2873138
vn 0.9310359 -0.2679709 0.2477168
vn 0.7532767 -0.546508 -0.365928
vn -0.4702237 -0.2567286 -0.8443815
vn 0.213294 -0.3603582 -0.9081011
vn 0.1667572 -0.3587081 -0.9184338
vn -0.5165117 -0.2427213 -0.8211589
vn 0.9518895 -0.1850228 0.2442809
vn 0.9524103 -0.1852904 0.2420372
vn 0.9519646 -0.1850566 0.2439619
vn 0.9514912 -0.184794 0.2459994
vn 0.9515288 -0.1847017 0.2459232
vn -0.08506657 0.2354347 0.9681603
vn -0.0847451 0.2353112 0.9682184
vn -0.0828473 0.2347566 0.9685172
vn -0.08673378 0.2358924 0.9679009
vn -0.08668907 0.2358157 0.9679236

vt 0.011616 0.018027
vt 0.00726 0.988217
vt 0.676948 0.258421
vt 0.791079 0.984502
vt 0.976397 0.7772
vt 0.00726 0.988217
vt 0.011616 0.018027
vt 0.676948 0.258421
vt 0.791079 0.984502
vt 0.976397 0.7772
vt 0.274249 0.026267
vt 0.967415 0.098825
vt 0.967416 0.026267
vt 0.274249 0.098825
vt 0.274249 0.026267
vt 0.967415 0.098825
vt 0.967416 0.026267
vt 0.274249 0.098825
vt 0.274249 0.026267
vt 0.967416 0.026267
vt 0.967415 0.098825
vt 0.274249 0.098825
vt 0.274249 0.026267
vt 0.967416 0.026267
vt 0.967415 0.098825
vt 0.274249 0.098825
vt 0.00726 0.988217
vt 0.011616 0.018027
vt 0.676948 0.258421
vt 0.791079 0.984502
vt 0.976397 0.7772
vt 0.00726 0.988217
vt 0.676948 0.258421
vt 0.011616 0.018027
vt 0.791079 0.984502
vt 0.976397 0.7772




usemtl MEP_Tree_02_Dif
usemap MEP_Tree_02_Dif
f 2/2/2 1/1/1 3/3/3
f 2/2/2 3/3/3 4/4/4
f 4/4/4 3/3/3 5/5/5
f 9/9/9 10/10/10 8/8/8
f 9/9/9 8/8/8 6/6/6
f 6/6/6 8/8/8 7/7/7
f 11/11/11 13/13/13 12/12/12
f 11/11/11 12/12/12 14/14/14
f 15/15/15 17/17/17 16/16/16
f 15/15/15 16/16/16 18/18/18
f 21/21/21 20/20/20 19/19/19
f 21/21/21 19/19/19 22/22/22
f 25/25/25 24/24/24 23/23/23
f 25/25/25 23/23/23 26/26/26
f 30/30/30 31/31/31 29/29/29
f 30/30/30 29/29/29 27/27/27
f 27/27/27 29/29/29 28/28/28
f 32/32/32 34/34/34 33/33/33
f 32/32/32 33/33/33 35/35/35
f 35/35/35 33/33/33 36/36/36

